<?xml version="1.0" encoding="utf-8" standalone="no"?>
<!DOCTYPE svg PUBLIC "-//W3C//DTD SVG 1.1//EN"
  "http://www.w3.org/Graphics/SVG/1.1/DTD/svg11.dtd">
<svg xmlns:xlink="http://www.w3.org/1999/xlink" width="723.933125pt" height="401.230781pt" viewBox="0 0 723.933125 401.230781" xmlns="http://www.w3.org/2000/svg" version="1.1">
 <metadata>
  <rdf:RDF xmlns:dc="http://purl.org/dc/elements/1.1/" xmlns:cc="http://creativecommons.org/ns#" xmlns:rdf="http://www.w3.org/1999/02/22-rdf-syntax-ns#">
   <cc:Work>
    <dc:type rdf:resource="http://purl.org/dc/dcmitype/StillImage"/>
    <dc:date>2026-05-22T02:33:56.507340</dc:date>
    <dc:format>image/svg+xml</dc:format>
    <dc:creator>
     <cc:Agent>
      <dc:title>Matplotlib v3.10.9, https://matplotlib.org/</dc:title>
     </cc:Agent>
    </dc:creator>
   </cc:Work>
  </rdf:RDF>
 </metadata>
 <defs>
  <style type="text/css">*{stroke-linejoin: round; stroke-linecap: butt}</style>
 </defs>
 <g id="figure_1">
  <g id="patch_1">
   <path d="M 0 401.230781 
L 723.933125 401.230781 
L 723.933125 0 
L 0 0 
z
" style="fill: #ffffff"/>
  </g>
  <g id="axes_1">
   <g id="patch_2">
    <path d="M 47.133125 358.385 
L 716.733125 358.385 
L 716.733125 25.745 
L 47.133125 25.745 
z
" style="fill: #ffffff"/>
   </g>
   <g id="matplotlib.axis_1">
    <g id="xtick_1">
     <g id="line2d_1">
      <defs>
       <path id="m189b85813e" d="M 0 0 
L 0 6 
" style="stroke: #262626; stroke-width: 1.25"/>
      </defs>
      <g>
       <use xlink:href="#m189b85813e" x="158.733125" y="358.385" style="fill: #262626; stroke: #262626; stroke-width: 1.25"/>
      </g>
     </g>
     <g id="text_1">
      <!-- 1 -->
      <g style="fill: #262626" transform="translate(154.993125 376.509687) scale(0.11 -0.11)">
       <defs>
        <path id="AppleGothic-31" d="M 2342 4774 
L 2752 4774 
L 2752 0 
L 2285 0 
L 2285 3526 
L 1158 3526 
L 1158 3885 
L 1414 3885 
Q 1990 3885 2214 4205 
Q 2342 4410 2342 4774 
z
" transform="scale(0.015625)"/>
       </defs>
       <use xlink:href="#AppleGothic-31"/>
      </g>
     </g>
    </g>
    <g id="xtick_2">
     <g id="line2d_2">
      <g>
       <use xlink:href="#m189b85813e" x="381.933125" y="358.385" style="fill: #262626; stroke: #262626; stroke-width: 1.25"/>
      </g>
     </g>
     <g id="text_2">
      <!-- 2 -->
      <g style="fill: #262626" transform="translate(378.193125 376.509687) scale(0.11 -0.11)">
       <defs>
        <path id="AppleGothic-32" d="M 1101 429 
L 3942 429 
L 3942 0 
L 653 0 
L 653 205 
Q 653 1018 1344 1664 
Q 1670 1894 1990 2124 
Q 2310 2355 2637 2592 
Q 3334 3098 3334 3597 
Q 3334 3994 3014 4218 
Q 2867 4326 2694 4377 
Q 2522 4429 2317 4429 
Q 2016 4429 1741 4352 
Q 1325 4224 883 3910 
L 883 4435 
Q 1325 4659 1667 4758 
Q 2010 4858 2317 4858 
Q 2963 4858 3405 4525 
Q 3840 4198 3840 3622 
Q 3840 2995 3168 2438 
Q 2848 2214 2531 2000 
Q 2214 1786 1894 1562 
Q 1178 1024 1101 429 
z
" transform="scale(0.015625)"/>
       </defs>
       <use xlink:href="#AppleGothic-32"/>
      </g>
     </g>
    </g>
    <g id="xtick_3">
     <g id="line2d_3">
      <g>
       <use xlink:href="#m189b85813e" x="605.133125" y="358.385" style="fill: #262626; stroke: #262626; stroke-width: 1.25"/>
      </g>
     </g>
     <g id="text_3">
      <!-- 3 -->
      <g style="fill: #262626" transform="translate(601.393125 376.509687) scale(0.11 -0.11)">
       <defs>
        <path id="AppleGothic-33" d="M 550 333 
L 550 870 
Q 883 621 1235 483 
Q 1587 346 1971 346 
Q 2522 346 2861 666 
Q 3219 992 3219 1421 
Q 3219 1869 2842 2099 
Q 2515 2304 1965 2304 
L 992 2304 
L 992 2701 
L 1658 2701 
Q 2298 2701 2662 2928 
Q 3027 3155 3027 3584 
Q 3027 3936 2752 4173 
Q 2458 4429 1978 4429 
Q 1786 4429 1597 4393 
Q 1408 4358 1222 4282 
Q 890 4141 531 3872 
L 531 4422 
Q 736 4531 912 4608 
Q 1088 4685 1254 4736 
Q 1626 4858 2022 4858 
Q 2650 4858 3066 4531 
Q 3488 4211 3488 3642 
Q 3488 3168 3168 2861 
Q 2976 2675 2643 2554 
Q 2874 2522 3053 2448 
Q 3232 2374 3366 2266 
Q 3718 1971 3718 1434 
Q 3718 813 3219 365 
Q 2714 -83 1965 -83 
Q 1549 -83 1126 70 
Q 1024 102 880 166 
Q 736 230 550 333 
z
" transform="scale(0.015625)"/>
       </defs>
       <use xlink:href="#AppleGothic-33"/>
      </g>
     </g>
    </g>
    <g id="text_4">
     <!-- 부여된 과제의 개수 (1, 2, 3) -->
     <g style="fill: #262626" transform="translate(302.6975 391.966406) scale(0.12 -0.12)">
      <defs>
       <path id="AppleGothic-bd80" d="M 4563 3130 
L 4563 4038 
L 1760 4045 
L 1760 3123 
L 4563 3130 
z
M 6010 1613 
Q 5798 1613 5472 1619 
Q 5146 1626 4704 1638 
Q 4269 1651 3942 1657 
Q 3616 1664 3392 1664 
L 3392 -589 
L 2931 -589 
Q 2938 -538 2947 -355 
Q 2957 -173 2957 224 
L 2950 1664 
L 1914 1670 
Q 1549 1670 1145 1664 
Q 742 1658 397 1645 
L 397 2042 
Q 512 2035 611 2035 
Q 710 2035 800 2029 
Q 2016 1990 2957 1990 
L 3187 1990 
Q 3654 1990 4000 1990 
Q 4346 1990 4576 1997 
Q 5037 2003 5421 2009 
Q 5805 2016 6010 2022 
L 6010 1613 
z
M 5043 5011 
Q 4992 4890 4992 4794 
L 4986 4109 
L 5005 2816 
L 3878 2829 
L 1318 2816 
L 1325 4749 
Q 1325 4902 1321 4976 
Q 1318 5050 1306 5114 
L 1677 5082 
Q 1792 5082 1792 5011 
Q 1792 4986 1776 4925 
Q 1760 4864 1760 4851 
L 1760 4352 
L 3130 4333 
L 4563 4352 
L 4557 5082 
L 4902 5075 
Q 5043 5075 5043 5011 
z
" transform="scale(0.015625)"/>
       <path id="AppleGothic-c5ec" d="M 3008 2592 
Q 3008 3379 2746 3789 
Q 2509 4141 2074 4141 
Q 1126 4141 1126 2586 
Q 1126 1856 1388 1446 
Q 1651 1037 2138 1037 
Q 2605 1037 2822 1542 
Q 3008 1965 3008 2592 
z
M 5446 5050 
Q 5446 5018 5434 4979 
Q 5389 4870 5389 4851 
L 5382 2138 
L 5421 -570 
L 4915 -570 
L 4934 749 
L 4928 1523 
L 3731 1510 
L 3731 1914 
L 4928 1914 
L 4928 3142 
L 3731 3130 
L 3731 3520 
L 4928 3520 
L 4928 4851 
L 4902 5197 
Q 5146 5197 5296 5158 
Q 5446 5120 5446 5050 
z
M 3475 2605 
Q 3475 1779 3181 1267 
Q 2829 666 2067 666 
Q 1350 666 986 1267 
Q 678 1786 678 2618 
Q 678 3450 1011 3962 
Q 1376 4518 2080 4518 
Q 2810 4518 3162 3968 
Q 3475 3469 3475 2605 
z
" transform="scale(0.015625)"/>
       <path id="AppleGothic-b41c" d="M 5568 -365 
Q 5459 -358 5257 -358 
Q 5056 -358 4768 -352 
Q 4480 -346 4182 -346 
Q 3885 -346 3558 -346 
L 1517 -358 
L 1530 390 
L 1510 1171 
Q 1734 1171 1884 1155 
Q 2035 1139 2035 1075 
Q 2035 1069 2016 1005 
Q 1997 941 1997 909 
L 1978 422 
Q 1978 320 1978 259 
Q 1978 198 1981 160 
Q 1984 122 1987 96 
Q 1990 70 1997 45 
L 3629 45 
Q 4019 45 4323 48 
Q 4627 51 4851 58 
Q 5075 64 5251 70 
Q 5427 77 5568 83 
L 5568 -365 
z
M 5427 5030 
Q 5427 4998 5414 4931 
Q 5402 4864 5402 4826 
L 5389 3366 
L 5402 704 
L 4922 678 
Q 4928 966 4931 1273 
Q 4934 1581 4941 1914 
Q 4947 2240 4950 2512 
Q 4954 2784 4954 2995 
Q 4954 4115 4934 4531 
Q 4934 4736 4928 4899 
Q 4922 5062 4915 5184 
L 4998 5184 
Q 5184 5184 5305 5155 
Q 5427 5126 5427 5030 
z
M 4576 1824 
L 2822 1728 
L 870 1638 
L 646 1606 
Q 563 1606 512 1754 
Q 467 1907 467 2035 
L 1376 2022 
Q 1709 2022 1929 2028 
Q 2150 2035 2355 2054 
L 2374 2509 
L 2355 3040 
L 1018 3053 
L 1030 3840 
L 1018 4723 
L 2522 4710 
L 4058 4723 
L 4058 4339 
L 3770 4339 
Q 2714 4358 2643 4358 
L 1478 4352 
L 1466 3821 
L 1478 3386 
L 2816 3379 
L 4147 3392 
L 4147 3021 
L 3411 3034 
L 2790 3034 
L 2778 2528 
L 2790 2074 
Q 2893 2080 2973 2083 
Q 3053 2086 3110 2086 
Q 3590 2106 3699 2106 
L 4563 2170 
L 4576 1824 
z
" transform="scale(0.015625)"/>
       <path id="AppleGothic-20" transform="scale(0.015625)"/>
       <path id="AppleGothic-acfc" d="M 4339 1184 
Q 4198 1165 4086 1152 
Q 3974 1139 3885 1126 
Q 3373 1062 2973 1014 
Q 2573 966 2266 934 
Q 1965 909 1680 883 
Q 1395 858 1120 826 
Q 966 813 876 803 
Q 787 794 762 794 
Q 710 781 668 774 
Q 627 768 582 755 
Q 499 755 454 934 
Q 429 1024 419 1091 
Q 410 1158 410 1210 
L 1030 1229 
L 1638 1274 
L 1651 2381 
L 1638 3302 
L 1677 3302 
Q 1850 3302 1990 3283 
Q 2131 3264 2131 3206 
Q 2131 3174 2099 3100 
Q 2067 3027 2067 2982 
L 2080 2189 
L 2067 1293 
L 3174 1408 
L 4320 1536 
L 4339 1184 
z
M 6061 2035 
L 5126 2042 
L 5114 1050 
L 5126 -486 
L 4653 -506 
Q 4653 -397 4653 -233 
Q 4653 -70 4659 141 
Q 4666 365 4666 659 
Q 4666 954 4666 1331 
Q 4672 1715 4675 2214 
Q 4678 2714 4678 3347 
L 4678 4691 
Q 4678 4870 4675 4985 
Q 4672 5101 4659 5184 
L 4800 5184 
Q 5011 5184 5100 5158 
Q 5190 5133 5190 5082 
Q 5190 5082 5180 5050 
Q 5171 5018 5161 4973 
Q 5152 4928 5142 4880 
Q 5133 4832 5133 4794 
L 5120 4051 
L 5126 2445 
L 6061 2451 
L 6061 2035 
z
M 3718 4499 
Q 3718 4371 3715 4262 
Q 3712 4154 3706 4064 
Q 3699 3974 3686 3779 
Q 3674 3584 3642 3283 
Q 3610 2982 3597 2793 
Q 3584 2605 3571 2515 
Q 3546 2330 3533 2211 
Q 3520 2093 3507 2042 
L 3078 2054 
Q 3085 2157 3098 2227 
Q 3130 2483 3155 2710 
Q 3181 2938 3200 3142 
L 3264 4109 
L 2042 4109 
Q 1562 4109 1267 4102 
Q 973 4096 768 4083 
L 768 4480 
L 3718 4499 
z
" transform="scale(0.015625)"/>
       <path id="AppleGothic-c81c" d="M 5683 5056 
Q 5683 5030 5664 4950 
Q 5645 4870 5645 4826 
L 5619 2336 
L 5651 -538 
L 5158 -538 
L 5184 2246 
L 5178 5190 
L 5235 5190 
Q 5408 5190 5545 5164 
Q 5683 5139 5683 5056 
z
M 4576 4890 
Q 4576 4858 4553 4778 
Q 4531 4698 4531 4666 
Q 4518 4256 4512 3766 
Q 4506 3277 4506 2829 
L 4518 -102 
L 4026 -102 
L 4070 2656 
L 2886 2637 
L 2886 3059 
L 4064 3046 
L 4051 5005 
L 4083 5005 
Q 4288 5005 4432 4982 
Q 4576 4960 4576 4890 
z
M 3322 4115 
L 2221 4115 
L 2208 3654 
Q 2208 2912 2490 2330 
Q 2746 1779 3315 1216 
L 3021 896 
Q 2931 979 2844 1062 
Q 2758 1146 2669 1235 
Q 2464 1472 2336 1670 
Q 2259 1798 2179 1952 
Q 2099 2106 2022 2298 
Q 2010 2330 1997 2378 
Q 1984 2426 1965 2477 
Q 1926 2387 1894 2313 
Q 1862 2240 1837 2182 
Q 1760 2010 1667 1853 
Q 1574 1696 1466 1549 
Q 1395 1453 1286 1331 
Q 1178 1210 1030 1075 
Q 960 1011 889 950 
Q 819 890 749 826 
L 352 1114 
Q 384 1114 627 1318 
Q 781 1446 921 1603 
Q 1062 1760 1190 1939 
Q 1530 2413 1658 2918 
Q 1728 3226 1760 3488 
Q 1792 3750 1792 3936 
L 1792 4115 
L 1222 4128 
L 698 4115 
L 698 4531 
L 2010 4512 
L 3322 4531 
L 3322 4115 
z
" transform="scale(0.015625)"/>
       <path id="AppleGothic-c758" d="M 3571 3379 
Q 3571 4218 2573 4218 
Q 2061 4218 1776 3987 
Q 1491 3757 1491 3386 
Q 1491 2970 1786 2733 
Q 2054 2522 2509 2522 
Q 3059 2522 3328 2765 
Q 3571 2976 3571 3379 
z
M 4608 1094 
Q 4134 1018 3872 979 
Q 3456 928 3120 899 
Q 2784 870 2528 870 
L 902 813 
Q 858 800 816 790 
Q 774 781 730 768 
Q 653 768 608 941 
Q 563 1114 563 1242 
L 2477 1248 
Q 2938 1248 3334 1273 
Q 3731 1299 4070 1350 
Q 4282 1376 4576 1459 
L 4608 1094 
z
M 5466 5069 
Q 5466 5037 5437 4944 
Q 5408 4851 5408 4813 
L 5408 2298 
Q 5408 2010 5411 1683 
Q 5414 1357 5421 973 
Q 5427 595 5433 230 
Q 5440 -134 5453 -499 
L 4973 -557 
L 4973 45 
Q 4979 237 4979 512 
Q 4979 787 4986 1158 
Q 4992 1523 4992 1788 
Q 4992 2054 4992 2221 
Q 4992 2880 4985 3357 
Q 4979 3834 4966 4122 
Q 4954 4410 4944 4675 
Q 4934 4941 4922 5184 
L 5024 5184 
Q 5190 5184 5328 5158 
Q 5466 5133 5466 5069 
z
M 4006 3328 
Q 4006 2790 3578 2464 
Q 3155 2138 2528 2138 
Q 1894 2138 1504 2445 
Q 1088 2765 1088 3341 
Q 1088 3955 1517 4288 
Q 1920 4602 2541 4602 
Q 3174 4602 3597 4269 
Q 4006 3936 4006 3354 
L 4006 3328 
z
" transform="scale(0.015625)"/>
       <path id="AppleGothic-ac1c" d="M 5658 5101 
Q 5658 5094 5648 5065 
Q 5638 5037 5626 4973 
Q 5594 4845 5594 4806 
L 5587 -467 
L 5158 -506 
L 5171 2163 
L 4256 2138 
L 4256 -186 
L 3853 -224 
Q 3853 19 3853 393 
Q 3853 768 3859 1274 
Q 3866 1786 3866 2301 
Q 3866 2816 3872 3354 
Q 3878 3898 3881 4211 
Q 3885 4525 3885 4634 
Q 3885 4883 3866 5050 
L 3898 5050 
Q 4051 5050 4188 5034 
Q 4326 5018 4326 4966 
Q 4326 4954 4294 4874 
Q 4262 4794 4262 4717 
Q 4262 4704 4262 4592 
Q 4262 4480 4256 4275 
Q 4250 4070 4250 3910 
Q 4250 3750 4250 3642 
L 4256 2483 
L 5178 2502 
L 5190 4250 
L 5190 4717 
Q 5190 4902 5187 4998 
Q 5184 5094 5171 5190 
L 5248 5190 
Q 5478 5190 5568 5171 
Q 5658 5152 5658 5101 
z
M 2989 4410 
Q 2989 4205 2966 4009 
Q 2944 3814 2899 3610 
Q 2829 3264 2691 2931 
Q 2554 2598 2362 2266 
Q 2074 1760 1651 1350 
Q 1338 1056 1011 845 
Q 774 685 730 685 
Q 704 698 691 707 
Q 678 717 666 723 
Q 634 749 608 771 
Q 582 794 563 819 
Q 525 870 457 905 
Q 390 941 390 954 
L 403 986 
Q 448 986 666 1114 
Q 992 1293 1280 1549 
Q 1485 1722 1657 1930 
Q 1830 2138 1978 2381 
Q 2291 2893 2464 3526 
Q 2490 3629 2515 3760 
Q 2541 3891 2560 4051 
L 1696 4058 
L 627 4026 
L 627 4403 
Q 723 4397 838 4397 
Q 954 4397 1082 4390 
L 1491 4390 
L 2989 4410 
z
" transform="scale(0.015625)"/>
       <path id="AppleGothic-c218" d="M 6022 1952 
L 3411 1952 
L 3424 896 
L 3462 -582 
L 2982 -582 
L 2982 1952 
Q 2912 1952 2774 1949 
Q 2637 1946 2419 1939 
Q 2208 1933 2086 1933 
Q 1965 1933 1933 1933 
L 378 1894 
L 378 2304 
L 3206 2298 
Q 3706 2298 4202 2307 
Q 4698 2317 5184 2330 
Q 5536 2342 6022 2368 
L 6022 1952 
z
M 5792 3482 
Q 5792 3450 5747 3402 
Q 5702 3354 5658 3315 
L 5523 3117 
Q 5453 3123 5395 3126 
Q 5338 3130 5286 3142 
Q 4685 3251 4090 3610 
Q 3699 3846 3411 4250 
Q 3360 4320 3312 4409 
Q 3264 4499 3206 4621 
Q 3149 4512 3097 4422 
Q 3046 4333 2995 4262 
Q 2688 3846 2208 3552 
Q 2054 3450 1875 3370 
Q 1696 3290 1498 3219 
Q 1382 3181 1232 3142 
Q 1082 3104 896 3072 
Q 896 3072 873 3101 
Q 851 3130 828 3162 
Q 806 3194 780 3226 
Q 755 3258 749 3270 
Q 736 3290 678 3347 
Q 621 3405 621 3424 
L 640 3443 
Q 730 3450 810 3453 
Q 890 3456 954 3469 
Q 1338 3526 1674 3676 
Q 2010 3827 2298 4077 
Q 2605 4326 2790 4659 
Q 2842 4755 2886 4880 
Q 2931 5005 2970 5171 
L 3411 5133 
Q 3475 5133 3475 5075 
Q 3475 5056 3472 5037 
Q 3469 5018 3462 4992 
Q 3462 4973 3443 4947 
Q 3482 4832 3520 4755 
Q 3738 4301 4230 3974 
Q 4659 3686 5261 3571 
Q 5363 3552 5488 3536 
Q 5613 3520 5766 3507 
Q 5786 3507 5792 3482 
z
" transform="scale(0.015625)"/>
       <path id="AppleGothic-28" d="M 2227 5261 
L 2650 5261 
Q 2342 4768 2169 4473 
Q 1997 4179 1958 4083 
Q 1606 3283 1606 2272 
Q 1606 1587 1754 1018 
Q 1882 570 2138 102 
Q 2150 70 2275 -131 
Q 2400 -333 2630 -717 
L 2227 -717 
Q 2099 -531 1980 -355 
Q 1862 -179 1734 0 
Q 1581 243 1469 483 
Q 1357 723 1274 954 
Q 1069 1587 1069 2272 
Q 1069 2963 1261 3558 
Q 1338 3789 1450 4022 
Q 1562 4256 1715 4499 
Q 1843 4691 1971 4880 
Q 2099 5069 2227 5261 
z
" transform="scale(0.015625)"/>
       <path id="AppleGothic-2c" d="M 806 -941 
L 550 -941 
Q 666 -698 723 -502 
Q 781 -307 806 -64 
Q 666 0 602 77 
Q 525 160 525 346 
Q 525 576 630 720 
Q 736 864 883 864 
Q 1030 864 1113 701 
Q 1197 538 1197 326 
Q 1197 141 1161 -48 
Q 1126 -237 1056 -429 
Q 1011 -538 950 -662 
Q 890 -787 806 -941 
z
" transform="scale(0.015625)"/>
       <path id="AppleGothic-29" d="M 2221 2272 
Q 2221 1587 2016 960 
Q 1862 499 1555 6 
Q 1427 -179 1305 -355 
Q 1184 -531 1062 -717 
L 659 -717 
Q 781 -512 902 -310 
Q 1024 -109 1152 96 
Q 1280 333 1376 557 
Q 1472 781 1530 1005 
Q 1683 1562 1683 2272 
Q 1683 2650 1641 2973 
Q 1600 3296 1517 3584 
Q 1459 3802 1356 4029 
Q 1254 4256 1120 4499 
Q 992 4691 873 4880 
Q 755 5069 640 5261 
L 1062 5261 
Q 1190 5069 1315 4880 
Q 1440 4691 1568 4506 
Q 1722 4256 1837 4022 
Q 1952 3789 2022 3565 
Q 2221 2976 2221 2272 
z
" transform="scale(0.015625)"/>
      </defs>
      <use xlink:href="#AppleGothic-bd80"/>
      <use xlink:href="#AppleGothic-c5ec" transform="translate(99.999985 0)"/>
      <use xlink:href="#AppleGothic-b41c" transform="translate(199.999969 0)"/>
      <use xlink:href="#AppleGothic-20" transform="translate(299.999954 0)"/>
      <use xlink:href="#AppleGothic-acfc" transform="translate(331.999939 0)"/>
      <use xlink:href="#AppleGothic-c81c" transform="translate(431.999924 0)"/>
      <use xlink:href="#AppleGothic-c758" transform="translate(531.999908 0)"/>
      <use xlink:href="#AppleGothic-20" transform="translate(631.999893 0)"/>
      <use xlink:href="#AppleGothic-ac1c" transform="translate(663.999878 0)"/>
      <use xlink:href="#AppleGothic-c218" transform="translate(763.999863 0)"/>
      <use xlink:href="#AppleGothic-20" transform="translate(863.999847 0)"/>
      <use xlink:href="#AppleGothic-28" transform="translate(895.999832 0)"/>
      <use xlink:href="#AppleGothic-31" transform="translate(945.999817 0)"/>
      <use xlink:href="#AppleGothic-2c" transform="translate(1013.999802 0)"/>
      <use xlink:href="#AppleGothic-20" transform="translate(1042.299789 0)"/>
      <use xlink:href="#AppleGothic-32" transform="translate(1074.299774 0)"/>
      <use xlink:href="#AppleGothic-2c" transform="translate(1142.299759 0)"/>
      <use xlink:href="#AppleGothic-20" transform="translate(1170.599747 0)"/>
      <use xlink:href="#AppleGothic-33" transform="translate(1202.599731 0)"/>
      <use xlink:href="#AppleGothic-29" transform="translate(1270.599716 0)"/>
     </g>
    </g>
   </g>
   <g id="matplotlib.axis_2">
    <g id="ytick_1">
     <g id="line2d_4">
      <defs>
       <path id="m51f1745b83" d="M 0 0 
L -6 0 
" style="stroke: #262626; stroke-width: 1.25"/>
      </defs>
      <g>
       <use xlink:href="#m51f1745b83" x="47.133125" y="349.427401" style="fill: #262626; stroke: #262626; stroke-width: 1.25"/>
      </g>
     </g>
     <g id="text_5">
      <!-- 0 -->
      <g style="fill: #262626" transform="translate(30.153125 353.739745) scale(0.11 -0.11)">
       <defs>
        <path id="AppleGothic-30" d="M 2227 -83 
Q 1414 -83 934 576 
Q 461 1229 461 2387 
Q 461 3552 973 4218 
Q 1453 4858 2221 4858 
Q 3027 4858 3482 4173 
Q 3955 3494 3955 2394 
Q 3955 1248 3462 582 
Q 2976 -83 2227 -83 
z
M 2176 346 
Q 2861 346 3200 992 
Q 3462 1536 3462 2400 
Q 3462 3315 3162 3859 
Q 2822 4429 2214 4429 
Q 1574 4429 1248 3821 
Q 960 3283 960 2374 
Q 960 1478 1248 941 
Q 1574 346 2176 346 
z
" transform="scale(0.015625)"/>
       </defs>
       <use xlink:href="#AppleGothic-30"/>
      </g>
     </g>
    </g>
    <g id="ytick_2">
     <g id="line2d_5">
      <g>
       <use xlink:href="#m51f1745b83" x="47.133125" y="292.20471" style="fill: #262626; stroke: #262626; stroke-width: 1.25"/>
      </g>
     </g>
     <g id="text_6">
      <!-- 2 -->
      <g style="fill: #262626" transform="translate(30.153125 296.517054) scale(0.11 -0.11)">
       <use xlink:href="#AppleGothic-32"/>
      </g>
     </g>
    </g>
    <g id="ytick_3">
     <g id="line2d_6">
      <g>
       <use xlink:href="#m51f1745b83" x="47.133125" y="234.982019" style="fill: #262626; stroke: #262626; stroke-width: 1.25"/>
      </g>
     </g>
     <g id="text_7">
      <!-- 4 -->
      <g style="fill: #262626" transform="translate(30.153125 239.294362) scale(0.11 -0.11)">
       <defs>
        <path id="AppleGothic-34" d="M 2662 4774 
L 3130 4774 
L 3130 1811 
L 4000 1811 
L 4000 1382 
L 3130 1382 
L 3130 0 
L 2662 0 
L 2662 1382 
L 352 1382 
L 352 1811 
L 2662 4774 
z
M 2662 1811 
L 2662 4166 
L 838 1811 
L 2662 1811 
z
" transform="scale(0.015625)"/>
       </defs>
       <use xlink:href="#AppleGothic-34"/>
      </g>
     </g>
    </g>
    <g id="ytick_4">
     <g id="line2d_7">
      <g>
       <use xlink:href="#m51f1745b83" x="47.133125" y="177.759327" style="fill: #262626; stroke: #262626; stroke-width: 1.25"/>
      </g>
     </g>
     <g id="text_8">
      <!-- 6 -->
      <g style="fill: #262626" transform="translate(30.153125 182.071671) scale(0.11 -0.11)">
       <defs>
        <path id="AppleGothic-36" d="M 3699 4557 
L 3699 4013 
Q 3584 4102 3475 4163 
Q 3366 4224 3258 4275 
Q 3085 4358 2918 4393 
Q 2752 4429 2586 4429 
Q 2470 4429 2352 4409 
Q 2234 4390 2118 4339 
Q 1670 4154 1395 3738 
Q 1011 3149 1011 2189 
Q 1312 2490 1568 2656 
Q 2022 2931 2534 2931 
Q 3162 2931 3584 2566 
Q 4038 2163 4038 1491 
Q 4038 806 3558 358 
Q 3078 -83 2394 -83 
Q 1670 -83 1146 454 
Q 518 1088 518 2253 
Q 518 3411 1120 4134 
Q 1715 4858 2605 4858 
Q 2938 4858 3226 4762 
Q 3309 4730 3427 4682 
Q 3546 4634 3699 4557 
z
M 1062 1702 
Q 1152 1152 1498 768 
Q 1882 346 2419 346 
Q 2899 346 3213 659 
Q 3539 973 3539 1459 
Q 3539 1920 3226 2214 
Q 2918 2502 2496 2502 
Q 1990 2502 1542 2176 
Q 1414 2080 1292 1965 
Q 1171 1850 1062 1702 
z
" transform="scale(0.015625)"/>
       </defs>
       <use xlink:href="#AppleGothic-36"/>
      </g>
     </g>
    </g>
    <g id="ytick_5">
     <g id="line2d_8">
      <g>
       <use xlink:href="#m51f1745b83" x="47.133125" y="120.536636" style="fill: #262626; stroke: #262626; stroke-width: 1.25"/>
      </g>
     </g>
     <g id="text_9">
      <!-- 8 -->
      <g style="fill: #262626" transform="translate(30.153125 124.84898) scale(0.11 -0.11)">
       <defs>
        <path id="AppleGothic-38" d="M 2957 2605 
Q 3219 2528 3404 2445 
Q 3590 2362 3706 2272 
Q 4192 1926 4192 1370 
Q 4192 749 3642 333 
Q 3098 -83 2285 -83 
Q 1434 -83 947 326 
Q 512 691 512 1229 
Q 512 1798 998 2125 
Q 1146 2227 1341 2304 
Q 1536 2381 1779 2451 
Q 1574 2534 1430 2617 
Q 1286 2701 1197 2784 
Q 819 3104 819 3603 
Q 819 4173 1261 4512 
Q 1702 4858 2381 4858 
Q 3014 4858 3437 4570 
Q 3898 4262 3898 3738 
Q 3898 3373 3670 3081 
Q 3443 2790 2957 2605 
z
M 2406 2752 
Q 2624 2835 2781 2915 
Q 2938 2995 3040 3066 
Q 3398 3322 3398 3667 
Q 3398 3994 3104 4205 
Q 2822 4429 2362 4429 
Q 1894 4429 1613 4205 
Q 1325 3994 1325 3635 
Q 1325 3322 1581 3098 
Q 1696 3002 1901 2912 
Q 2106 2822 2406 2752 
z
M 2368 2304 
Q 2061 2202 1840 2106 
Q 1619 2010 1472 1920 
Q 1011 1626 1011 1235 
Q 1011 845 1376 595 
Q 1728 346 2310 346 
Q 2938 346 3315 640 
Q 3693 934 3693 1338 
Q 3693 1741 3238 1997 
Q 3104 2067 2886 2147 
Q 2669 2227 2368 2304 
z
" transform="scale(0.015625)"/>
       </defs>
       <use xlink:href="#AppleGothic-38"/>
      </g>
     </g>
    </g>
    <g id="ytick_6">
     <g id="line2d_9">
      <g>
       <use xlink:href="#m51f1745b83" x="47.133125" y="63.313944" style="fill: #262626; stroke: #262626; stroke-width: 1.25"/>
      </g>
     </g>
     <g id="text_10">
      <!-- 10 -->
      <g style="fill: #262626" transform="translate(22.673125 67.626288) scale(0.11 -0.11)">
       <use xlink:href="#AppleGothic-31"/>
       <use xlink:href="#AppleGothic-30" transform="translate(67.999985 0)"/>
      </g>
     </g>
    </g>
    <g id="text_11">
     <!-- 점수 (Score) -->
     <g style="fill: #262626" transform="translate(16.60875 227.795937) rotate(-90) scale(0.12 -0.12)">
      <defs>
       <path id="AppleGothic-c810" d="M 4941 -6 
L 4941 1094 
Q 4800 1101 4601 1107 
Q 4403 1114 4141 1120 
Q 3885 1126 3661 1129 
Q 3437 1133 3245 1133 
Q 2963 1133 2748 1133 
Q 2534 1133 2374 1126 
Q 2214 1126 2057 1123 
Q 1901 1120 1741 1114 
L 1741 6 
Q 1830 6 2009 6 
Q 2189 6 2470 0 
Q 2746 -6 2915 -9 
Q 3085 -13 3142 -13 
L 4941 -6 
z
M 5395 -486 
L 4941 -499 
L 4915 -365 
L 1766 -352 
L 1747 -474 
L 1280 -480 
L 1293 570 
L 1280 1478 
Q 1702 1466 2217 1462 
Q 2733 1459 3258 1459 
L 5382 1459 
L 5376 205 
L 5376 -243 
Q 5382 -314 5385 -371 
Q 5389 -429 5395 -486 
z
M 4006 2259 
L 3859 2106 
Q 3808 2054 3760 2012 
Q 3712 1971 3661 1920 
Q 3571 1965 3497 2003 
Q 3424 2042 3360 2074 
Q 3181 2182 3024 2310 
Q 2867 2438 2726 2592 
Q 2515 2810 2362 3162 
Q 2336 3219 2310 3296 
Q 2285 3373 2253 3475 
Q 2221 3379 2195 3328 
Q 2022 2931 1670 2573 
Q 1542 2445 1379 2313 
Q 1216 2182 1005 2035 
Q 934 1997 844 1939 
Q 755 1882 646 1811 
L 314 2112 
L 326 2131 
Q 1030 2419 1485 2982 
Q 1997 3603 1997 4314 
L 1990 4429 
Q 1875 4442 1718 4448 
Q 1562 4454 1312 4454 
L 640 4448 
L 640 4845 
Q 742 4838 892 4832 
Q 1043 4826 1222 4822 
Q 1402 4819 1600 4816 
Q 1798 4813 2003 4813 
L 2234 4813 
Q 2579 4813 2828 4816 
Q 3078 4819 3232 4826 
Q 3386 4832 3510 4838 
Q 3635 4845 3744 4858 
L 3744 4422 
L 3142 4435 
L 2490 4422 
Q 2490 4102 2534 3885 
Q 2592 3558 2778 3245 
Q 3040 2797 3552 2483 
Q 3725 2374 4006 2259 
z
M 5446 5107 
Q 5446 5094 5408 4995 
Q 5370 4896 5370 4806 
L 5395 1830 
L 4928 1805 
L 4941 2381 
L 4941 3232 
L 4333 3245 
L 3642 3226 
L 3642 3603 
Q 3674 3603 3754 3603 
Q 3834 3603 3962 3597 
Q 4090 3590 4179 3590 
Q 4269 3590 4320 3590 
L 4941 3603 
L 4941 4742 
Q 4941 4954 4934 5053 
Q 4928 5152 4915 5190 
L 4998 5190 
Q 5171 5190 5308 5174 
Q 5446 5158 5446 5107 
z
" transform="scale(0.015625)"/>
       <path id="AppleGothic-53" d="M 3418 4666 
L 3418 4019 
Q 3251 4160 3081 4269 
Q 2912 4378 2746 4448 
Q 2362 4627 1965 4627 
Q 1466 4627 1139 4378 
Q 806 4122 806 3770 
Q 806 3258 1562 3002 
Q 1914 2880 2262 2768 
Q 2611 2656 2970 2541 
Q 3731 2176 3731 1453 
Q 3731 749 3187 320 
Q 2669 -83 1901 -83 
Q 1389 -83 915 115 
Q 640 224 262 474 
L 262 1126 
Q 755 685 1261 506 
Q 1427 442 1587 416 
Q 1747 390 1907 390 
Q 2419 390 2771 646 
Q 3162 928 3162 1382 
Q 3162 1933 2419 2221 
Q 2061 2330 1715 2445 
Q 1370 2560 1024 2669 
Q 275 3014 275 3731 
Q 275 4333 749 4710 
Q 1235 5101 1965 5101 
Q 2413 5101 2861 4934 
Q 3091 4858 3418 4666 
z
" transform="scale(0.015625)"/>
       <path id="AppleGothic-63" d="M 3085 3123 
L 3085 2522 
Q 2726 2861 2349 3008 
Q 2240 3053 2125 3069 
Q 2010 3085 1894 3085 
Q 1363 3085 1024 2688 
Q 685 2278 685 1715 
Q 685 1139 1037 730 
Q 1389 339 1920 339 
Q 2253 339 2528 483 
Q 2803 627 3085 915 
L 3085 307 
Q 2746 96 2470 6 
Q 2195 -83 1914 -83 
Q 1197 -83 685 429 
Q 186 960 186 1709 
Q 186 2445 678 2976 
Q 1178 3501 1920 3501 
Q 2298 3501 2624 3373 
Q 2816 3302 3085 3123 
z
" transform="scale(0.015625)"/>
       <path id="AppleGothic-6f" d="M 1888 -83 
Q 1229 -83 730 397 
Q 198 902 198 1709 
Q 198 2470 666 2982 
Q 1146 3501 1850 3501 
Q 2547 3501 3027 2982 
Q 3501 2470 3501 1715 
Q 3501 922 2989 403 
Q 2515 -83 1888 -83 
z
M 1843 339 
Q 2304 339 2662 723 
Q 3008 1114 3008 1715 
Q 3008 2336 2637 2726 
Q 2298 3085 1850 3085 
Q 1389 3085 1062 2714 
Q 704 2304 704 1709 
Q 704 1107 1056 704 
Q 1382 339 1843 339 
z
" transform="scale(0.015625)"/>
       <path id="AppleGothic-72" d="M 2125 3424 
L 2125 2963 
Q 2054 2989 2009 3005 
Q 1965 3021 1933 3027 
Q 1901 3034 1865 3037 
Q 1830 3040 1773 3040 
Q 1306 3040 1005 2586 
Q 749 2170 749 1658 
L 749 0 
L 288 0 
L 288 3424 
L 710 3424 
L 742 2835 
Q 902 3104 1043 3219 
Q 1331 3456 1734 3456 
Q 1843 3456 1936 3449 
Q 2029 3443 2125 3424 
z
" transform="scale(0.015625)"/>
       <path id="AppleGothic-65" d="M 3296 1850 
L 691 1850 
Q 691 1114 1033 726 
Q 1376 339 1933 339 
Q 2355 339 2746 608 
Q 2854 678 2976 784 
Q 3098 890 3238 1030 
L 3238 474 
Q 3085 358 2953 272 
Q 2822 186 2707 128 
Q 2304 -83 1901 -83 
Q 1203 -83 717 397 
Q 192 902 192 1709 
Q 192 2470 666 2982 
Q 1146 3501 1850 3501 
Q 2534 3501 2938 3002 
Q 3296 2547 3296 1850 
z
M 755 2240 
L 2758 2240 
Q 2682 2675 2429 2889 
Q 2176 3104 1818 3104 
Q 1421 3104 1146 2854 
Q 890 2624 755 2240 
z
" transform="scale(0.015625)"/>
      </defs>
      <use xlink:href="#AppleGothic-c810"/>
      <use xlink:href="#AppleGothic-c218" transform="translate(99.999985 0)"/>
      <use xlink:href="#AppleGothic-20" transform="translate(199.999969 0)"/>
      <use xlink:href="#AppleGothic-28" transform="translate(231.999954 0)"/>
      <use xlink:href="#AppleGothic-53" transform="translate(281.999939 0)"/>
      <use xlink:href="#AppleGothic-63" transform="translate(345.199936 0)"/>
      <use xlink:href="#AppleGothic-6f" transform="translate(397.09993 0)"/>
      <use xlink:href="#AppleGothic-72" transform="translate(455.399918 0)"/>
      <use xlink:href="#AppleGothic-65" transform="translate(490.599915 0)"/>
      <use xlink:href="#AppleGothic-29" transform="translate(545.499908 0)"/>
     </g>
    </g>
   </g>
   <g id="FillBetweenPolyCollection_1">
    <defs>
     <path id="m1f189ec199" d="M 158.733125 -57.965781 
L 155.120771 -57.965781 
L 154.43772 -60.153316 
L 153.660191 -62.340851 
L 152.782306 -64.528386 
L 151.799194 -66.715921 
L 150.707252 -68.903456 
L 149.5044 -71.090991 
L 148.190312 -73.278526 
L 146.766615 -75.466061 
L 145.237036 -77.653596 
L 143.607503 -79.841131 
L 141.886168 -82.028666 
L 140.083371 -84.216201 
L 138.211518 -86.403736 
L 136.284895 -88.591271 
L 134.319405 -90.778806 
L 132.33224 -92.966341 
L 130.34151 -95.153876 
L 128.365822 -97.341411 
L 126.423836 -99.528946 
L 124.533812 -101.716481 
L 122.71316 -103.904016 
L 120.978014 -106.091551 
L 119.342828 -108.279086 
L 117.820024 -110.466621 
L 116.419686 -112.654156 
L 115.149312 -114.841691 
L 114.013623 -117.029226 
L 113.014441 -119.216761 
L 112.150617 -121.404296 
L 111.418036 -123.591831 
L 110.809663 -125.779366 
L 110.315671 -127.966901 
L 109.923611 -130.154436 
L 109.618651 -132.341971 
L 109.383879 -134.529506 
L 109.200665 -136.717041 
L 109.049085 -138.904575 
L 108.908414 -141.09211 
L 108.757668 -143.279645 
L 108.576204 -145.46718 
L 108.344362 -147.654715 
L 108.044126 -149.84225 
L 107.6598 -152.029785 
L 107.178663 -154.21732 
L 106.591583 -156.404855 
L 105.893564 -158.59239 
L 105.084185 -160.779925 
L 104.167922 -162.96746 
L 103.154309 -165.154995 
L 102.05793 -167.34253 
L 100.898226 -169.530065 
L 99.699109 -171.7176 
L 98.488389 -173.905135 
L 97.297027 -176.09267 
L 96.158237 -178.280205 
L 95.106474 -180.46774 
L 94.176329 -182.655275 
L 93.40141 -184.84281 
L 92.813213 -187.030345 
L 92.440076 -189.21788 
L 92.306226 -191.405415 
L 92.430981 -193.59295 
L 92.828135 -195.780485 
L 93.505549 -197.96802 
L 94.464963 -200.155555 
L 95.702027 -202.34309 
L 97.206554 -204.530625 
L 98.962961 -206.71816 
L 100.950883 -208.905695 
L 103.145914 -211.09323 
L 105.520447 -213.280765 
L 108.044563 -215.4683 
L 110.686939 -217.655835 
L 113.415722 -219.84337 
L 116.199358 -222.030905 
L 119.007321 -224.21844 
L 121.810758 -226.405975 
L 124.582999 -228.59351 
L 127.299959 -230.781045 
L 129.940411 -232.96858 
L 132.486152 -235.156115 
L 134.922055 -237.34365 
L 137.236043 -239.531185 
L 139.418978 -241.71872 
L 141.464492 -243.906254 
L 143.368781 -246.093789 
L 145.130354 -248.281324 
L 146.749781 -250.468859 
L 148.229421 -252.656394 
L 149.573153 -254.843929 
L 150.786121 -257.031464 
L 151.87448 -259.218999 
L 152.845168 -261.406534 
L 153.705692 -263.594069 
L 154.463931 -265.781604 
L 155.127958 -267.969139 
L 155.705892 -270.156674 
L 156.205758 -272.344209 
L 156.635374 -274.531744 
L 158.733125 -274.531744 
L 158.733125 -274.531744 
L 158.733125 -272.344209 
L 158.733125 -270.156674 
L 158.733125 -267.969139 
L 158.733125 -265.781604 
L 158.733125 -263.594069 
L 158.733125 -261.406534 
L 158.733125 -259.218999 
L 158.733125 -257.031464 
L 158.733125 -254.843929 
L 158.733125 -252.656394 
L 158.733125 -250.468859 
L 158.733125 -248.281324 
L 158.733125 -246.093789 
L 158.733125 -243.906254 
L 158.733125 -241.71872 
L 158.733125 -239.531185 
L 158.733125 -237.34365 
L 158.733125 -235.156115 
L 158.733125 -232.96858 
L 158.733125 -230.781045 
L 158.733125 -228.59351 
L 158.733125 -226.405975 
L 158.733125 -224.21844 
L 158.733125 -222.030905 
L 158.733125 -219.84337 
L 158.733125 -217.655835 
L 158.733125 -215.4683 
L 158.733125 -213.280765 
L 158.733125 -211.09323 
L 158.733125 -208.905695 
L 158.733125 -206.71816 
L 158.733125 -204.530625 
L 158.733125 -202.34309 
L 158.733125 -200.155555 
L 158.733125 -197.96802 
L 158.733125 -195.780485 
L 158.733125 -193.59295 
L 158.733125 -191.405415 
L 158.733125 -189.21788 
L 158.733125 -187.030345 
L 158.733125 -184.84281 
L 158.733125 -182.655275 
L 158.733125 -180.46774 
L 158.733125 -178.280205 
L 158.733125 -176.09267 
L 158.733125 -173.905135 
L 158.733125 -171.7176 
L 158.733125 -169.530065 
L 158.733125 -167.34253 
L 158.733125 -165.154995 
L 158.733125 -162.96746 
L 158.733125 -160.779925 
L 158.733125 -158.59239 
L 158.733125 -156.404855 
L 158.733125 -154.21732 
L 158.733125 -152.029785 
L 158.733125 -149.84225 
L 158.733125 -147.654715 
L 158.733125 -145.46718 
L 158.733125 -143.279645 
L 158.733125 -141.09211 
L 158.733125 -138.904575 
L 158.733125 -136.717041 
L 158.733125 -134.529506 
L 158.733125 -132.341971 
L 158.733125 -130.154436 
L 158.733125 -127.966901 
L 158.733125 -125.779366 
L 158.733125 -123.591831 
L 158.733125 -121.404296 
L 158.733125 -119.216761 
L 158.733125 -117.029226 
L 158.733125 -114.841691 
L 158.733125 -112.654156 
L 158.733125 -110.466621 
L 158.733125 -108.279086 
L 158.733125 -106.091551 
L 158.733125 -103.904016 
L 158.733125 -101.716481 
L 158.733125 -99.528946 
L 158.733125 -97.341411 
L 158.733125 -95.153876 
L 158.733125 -92.966341 
L 158.733125 -90.778806 
L 158.733125 -88.591271 
L 158.733125 -86.403736 
L 158.733125 -84.216201 
L 158.733125 -82.028666 
L 158.733125 -79.841131 
L 158.733125 -77.653596 
L 158.733125 -75.466061 
L 158.733125 -73.278526 
L 158.733125 -71.090991 
L 158.733125 -68.903456 
L 158.733125 -66.715921 
L 158.733125 -64.528386 
L 158.733125 -62.340851 
L 158.733125 -60.153316 
L 158.733125 -57.965781 
z
" style="stroke: #545454; stroke-width: 1.25"/>
    </defs>
    <g clip-path="url(#p13f98dccb3)">
     <use xlink:href="#m1f189ec199" x="0" y="401.230781" style="fill: #597dbf; stroke: #545454; stroke-width: 1.25"/>
    </g>
   </g>
   <g id="FillBetweenPolyCollection_2">
    <defs>
     <path id="m7872bd5c04" d="M 161.141212 -156.612198 
L 158.733125 -156.612198 
L 158.733125 -158.251894 
L 158.733125 -159.891589 
L 158.733125 -161.531285 
L 158.733125 -163.17098 
L 158.733125 -164.810676 
L 158.733125 -166.450371 
L 158.733125 -168.090067 
L 158.733125 -169.729762 
L 158.733125 -171.369458 
L 158.733125 -173.009153 
L 158.733125 -174.648849 
L 158.733125 -176.288544 
L 158.733125 -177.92824 
L 158.733125 -179.567936 
L 158.733125 -181.207631 
L 158.733125 -182.847327 
L 158.733125 -184.487022 
L 158.733125 -186.126718 
L 158.733125 -187.766413 
L 158.733125 -189.406109 
L 158.733125 -191.045804 
L 158.733125 -192.6855 
L 158.733125 -194.325195 
L 158.733125 -195.964891 
L 158.733125 -197.604586 
L 158.733125 -199.244282 
L 158.733125 -200.883977 
L 158.733125 -202.523673 
L 158.733125 -204.163369 
L 158.733125 -205.803064 
L 158.733125 -207.44276 
L 158.733125 -209.082455 
L 158.733125 -210.722151 
L 158.733125 -212.361846 
L 158.733125 -214.001542 
L 158.733125 -215.641237 
L 158.733125 -217.280933 
L 158.733125 -218.920628 
L 158.733125 -220.560324 
L 158.733125 -222.200019 
L 158.733125 -223.839715 
L 158.733125 -225.47941 
L 158.733125 -227.119106 
L 158.733125 -228.758802 
L 158.733125 -230.398497 
L 158.733125 -232.038193 
L 158.733125 -233.677888 
L 158.733125 -235.317584 
L 158.733125 -236.957279 
L 158.733125 -238.596975 
L 158.733125 -240.23667 
L 158.733125 -241.876366 
L 158.733125 -243.516061 
L 158.733125 -245.155757 
L 158.733125 -246.795452 
L 158.733125 -248.435148 
L 158.733125 -250.074843 
L 158.733125 -251.714539 
L 158.733125 -253.354234 
L 158.733125 -254.99393 
L 158.733125 -256.633626 
L 158.733125 -258.273321 
L 158.733125 -259.913017 
L 158.733125 -261.552712 
L 158.733125 -263.192408 
L 158.733125 -264.832103 
L 158.733125 -266.471799 
L 158.733125 -268.111494 
L 158.733125 -269.75119 
L 158.733125 -271.390885 
L 158.733125 -273.030581 
L 158.733125 -274.670276 
L 158.733125 -276.309972 
L 158.733125 -277.949667 
L 158.733125 -279.589363 
L 158.733125 -281.229059 
L 158.733125 -282.868754 
L 158.733125 -284.50845 
L 158.733125 -286.148145 
L 158.733125 -287.787841 
L 158.733125 -289.427536 
L 158.733125 -291.067232 
L 158.733125 -292.706927 
L 158.733125 -294.346623 
L 158.733125 -295.986318 
L 158.733125 -297.626014 
L 158.733125 -299.265709 
L 158.733125 -300.905405 
L 158.733125 -302.5451 
L 158.733125 -304.184796 
L 158.733125 -305.824492 
L 158.733125 -307.464187 
L 158.733125 -309.103883 
L 158.733125 -310.743578 
L 158.733125 -312.383274 
L 158.733125 -314.022969 
L 158.733125 -315.662665 
L 158.733125 -317.30236 
L 158.733125 -318.942056 
L 165.58697 -318.942056 
L 165.58697 -318.942056 
L 166.851286 -317.30236 
L 168.280335 -315.662665 
L 169.881269 -314.022969 
L 171.658691 -312.383274 
L 173.614146 -310.743578 
L 175.745676 -309.103883 
L 178.047443 -307.464187 
L 180.509461 -305.824492 
L 183.11746 -304.184796 
L 185.852905 -302.5451 
L 188.693185 -300.905405 
L 191.611984 -299.265709 
L 194.579828 -297.626014 
L 197.564801 -295.986318 
L 200.533408 -294.346623 
L 203.451552 -292.706927 
L 206.285592 -291.067232 
L 209.003432 -289.427536 
L 211.575585 -287.787841 
L 213.976176 -286.148145 
L 216.183826 -284.50845 
L 218.182374 -282.868754 
L 219.961405 -281.229059 
L 221.516563 -279.589363 
L 222.849622 -277.949667 
L 223.968337 -276.309972 
L 224.886067 -274.670276 
L 225.621202 -273.030581 
L 226.196422 -271.390885 
L 226.637835 -269.75119 
L 226.974011 -268.111494 
L 227.234988 -266.471799 
L 227.451249 -264.832103 
L 227.652744 -263.192408 
L 227.86795 -261.552712 
L 228.123012 -259.913017 
L 228.440979 -258.273321 
L 228.841135 -256.633626 
L 229.338434 -254.99393 
L 229.94305 -253.354234 
L 230.660035 -251.714539 
L 231.489094 -250.074843 
L 232.424472 -248.435148 
L 233.45498 -246.795452 
L 234.564143 -245.155757 
L 235.7305 -243.516061 
L 236.92805 -241.876366 
L 238.126853 -240.23667 
L 239.293791 -238.596975 
L 240.393457 -236.957279 
L 241.389191 -235.317584 
L 242.244192 -233.677888 
L 242.92271 -232.038193 
L 243.391237 -230.398497 
L 243.61967 -228.758802 
L 243.582382 -227.119106 
L 243.259148 -225.47941 
L 242.635879 -223.839715 
L 241.705124 -222.200019 
L 240.466312 -220.560324 
L 238.925723 -218.920628 
L 237.096184 -217.280933 
L 234.996514 -215.641237 
L 232.650745 -214.001542 
L 230.087175 -212.361846 
L 227.337286 -210.722151 
L 224.434614 -209.082455 
L 221.413606 -207.44276 
L 218.308539 -205.803064 
L 215.152538 -204.163369 
L 211.976746 -202.523673 
L 208.809664 -200.883977 
L 205.676684 -199.244282 
L 202.599807 -197.604586 
L 199.597549 -195.964891 
L 196.685006 -194.325195 
L 193.874048 -192.6855 
L 191.173624 -191.045804 
L 188.590118 -189.406109 
L 186.12775 -187.766413 
L 183.788974 -186.126718 
L 181.574849 -184.487022 
L 179.485368 -182.847327 
L 177.519735 -181.207631 
L 175.676571 -179.567936 
L 173.95407 -177.92824 
L 172.350087 -176.288544 
L 170.862183 -174.648849 
L 169.48764 -173.009153 
L 168.223438 -171.369458 
L 167.066235 -169.729762 
L 166.012334 -168.090067 
L 165.057669 -166.450371 
L 164.197791 -164.810676 
L 163.42789 -163.17098 
L 162.742818 -161.531285 
L 162.137141 -159.891589 
L 161.605205 -158.251894 
L 161.141212 -156.612198 
z
" style="stroke: #545454; stroke-width: 1.25"/>
    </defs>
    <g clip-path="url(#p13f98dccb3)">
     <use xlink:href="#m7872bd5c04" x="0" y="401.230781" style="fill: #d98b5f; stroke: #545454; stroke-width: 1.25"/>
    </g>
   </g>
   <g id="FillBetweenPolyCollection_3">
    <defs>
     <path id="mf62203ad06" d="M 381.933125 -92.24606 
L 379.86239 -92.24606 
L 379.435057 -94.319071 
L 378.941308 -96.392083 
L 378.375413 -98.465094 
L 377.731947 -100.538105 
L 377.005914 -102.611116 
L 376.192855 -104.684127 
L 375.288936 -106.757138 
L 374.291005 -108.830149 
L 373.19661 -110.90316 
L 372.003989 -112.976171 
L 370.712009 -115.049182 
L 369.320079 -117.122193 
L 367.828032 -119.195204 
L 366.235979 -121.268215 
L 364.544167 -123.341226 
L 362.752838 -125.414238 
L 360.862112 -127.487249 
L 358.871907 -129.56026 
L 356.781917 -131.633271 
L 354.59165 -133.706282 
L 352.300547 -135.779293 
L 349.908167 -137.852304 
L 347.414462 -139.925315 
L 344.820114 -141.998326 
L 342.126936 -144.071337 
L 339.338317 -146.144348 
L 336.459685 -148.217359 
L 333.49898 -150.29037 
L 330.467097 -152.363381 
L 327.378282 -154.436393 
L 324.250447 -156.509404 
L 321.105392 -158.582415 
L 317.968885 -160.655426 
L 314.870614 -162.728437 
L 311.843954 -164.801448 
L 308.925568 -166.874459 
L 306.154819 -168.94747 
L 303.572989 -171.020481 
L 301.222327 -173.093492 
L 299.144931 -175.166503 
L 297.381495 -177.239514 
L 295.96996 -179.312525 
L 294.944117 -181.385536 
L 294.332205 -183.458548 
L 294.155599 -185.531559 
L 294.427609 -187.60457 
L 295.152505 -189.677581 
L 296.324794 -191.750592 
L 297.928823 -193.823603 
L 299.938757 -195.896614 
L 302.318933 -197.969625 
L 305.024631 -200.042636 
L 308.003224 -202.115647 
L 311.195689 -204.188658 
L 314.538406 -206.261669 
L 317.965204 -208.33468 
L 321.409531 -210.407691 
L 324.806678 -212.480703 
L 328.09595 -214.553714 
L 331.222682 -216.626725 
L 334.14001 -218.699736 
L 336.810317 -220.772747 
L 339.206298 -222.845758 
L 341.311584 -224.918769 
L 343.12092 -226.99178 
L 344.639886 -229.064791 
L 345.884182 -231.137802 
L 346.87853 -233.210813 
L 347.655236 -235.283824 
L 348.252504 -237.356835 
L 348.712569 -239.429846 
L 349.079749 -241.502858 
L 349.398509 -243.575869 
L 349.711611 -245.64888 
L 350.058448 -247.721891 
L 350.473607 -249.794902 
L 350.985744 -251.867913 
L 351.616772 -253.940924 
L 352.381414 -256.013935 
L 353.287094 -258.086946 
L 354.334168 -260.159957 
L 355.51644 -262.232968 
L 356.821944 -264.305979 
L 358.233903 -266.37899 
L 359.731834 -268.452001 
L 361.292709 -270.525012 
L 362.892128 -272.598024 
L 364.505428 -274.671035 
L 366.108701 -276.744046 
L 367.679662 -278.817057 
L 369.198354 -280.890068 
L 370.647667 -282.963079 
L 372.013666 -285.03609 
L 373.28575 -287.109101 
L 374.456637 -289.182112 
L 375.522214 -291.255123 
L 376.481275 -293.328134 
L 377.335168 -295.401145 
L 378.087396 -297.474156 
L 381.933125 -297.474156 
L 381.933125 -297.474156 
L 381.933125 -295.401145 
L 381.933125 -293.328134 
L 381.933125 -291.255123 
L 381.933125 -289.182112 
L 381.933125 -287.109101 
L 381.933125 -285.03609 
L 381.933125 -282.963079 
L 381.933125 -280.890068 
L 381.933125 -278.817057 
L 381.933125 -276.744046 
L 381.933125 -274.671035 
L 381.933125 -272.598024 
L 381.933125 -270.525012 
L 381.933125 -268.452001 
L 381.933125 -266.37899 
L 381.933125 -264.305979 
L 381.933125 -262.232968 
L 381.933125 -260.159957 
L 381.933125 -258.086946 
L 381.933125 -256.013935 
L 381.933125 -253.940924 
L 381.933125 -251.867913 
L 381.933125 -249.794902 
L 381.933125 -247.721891 
L 381.933125 -245.64888 
L 381.933125 -243.575869 
L 381.933125 -241.502858 
L 381.933125 -239.429846 
L 381.933125 -237.356835 
L 381.933125 -235.283824 
L 381.933125 -233.210813 
L 381.933125 -231.137802 
L 381.933125 -229.064791 
L 381.933125 -226.99178 
L 381.933125 -224.918769 
L 381.933125 -222.845758 
L 381.933125 -220.772747 
L 381.933125 -218.699736 
L 381.933125 -216.626725 
L 381.933125 -214.553714 
L 381.933125 -212.480703 
L 381.933125 -210.407691 
L 381.933125 -208.33468 
L 381.933125 -206.261669 
L 381.933125 -204.188658 
L 381.933125 -202.115647 
L 381.933125 -200.042636 
L 381.933125 -197.969625 
L 381.933125 -195.896614 
L 381.933125 -193.823603 
L 381.933125 -191.750592 
L 381.933125 -189.677581 
L 381.933125 -187.60457 
L 381.933125 -185.531559 
L 381.933125 -183.458548 
L 381.933125 -181.385536 
L 381.933125 -179.312525 
L 381.933125 -177.239514 
L 381.933125 -175.166503 
L 381.933125 -173.093492 
L 381.933125 -171.020481 
L 381.933125 -168.94747 
L 381.933125 -166.874459 
L 381.933125 -164.801448 
L 381.933125 -162.728437 
L 381.933125 -160.655426 
L 381.933125 -158.582415 
L 381.933125 -156.509404 
L 381.933125 -154.436393 
L 381.933125 -152.363381 
L 381.933125 -150.29037 
L 381.933125 -148.217359 
L 381.933125 -146.144348 
L 381.933125 -144.071337 
L 381.933125 -141.998326 
L 381.933125 -139.925315 
L 381.933125 -137.852304 
L 381.933125 -135.779293 
L 381.933125 -133.706282 
L 381.933125 -131.633271 
L 381.933125 -129.56026 
L 381.933125 -127.487249 
L 381.933125 -125.414238 
L 381.933125 -123.341226 
L 381.933125 -121.268215 
L 381.933125 -119.195204 
L 381.933125 -117.122193 
L 381.933125 -115.049182 
L 381.933125 -112.976171 
L 381.933125 -110.90316 
L 381.933125 -108.830149 
L 381.933125 -106.757138 
L 381.933125 -104.684127 
L 381.933125 -102.611116 
L 381.933125 -100.538105 
L 381.933125 -98.465094 
L 381.933125 -96.392083 
L 381.933125 -94.319071 
L 381.933125 -92.24606 
z
" style="stroke: #545454; stroke-width: 1.25"/>
    </defs>
    <g clip-path="url(#p13f98dccb3)">
     <use xlink:href="#mf62203ad06" x="0" y="401.230781" style="fill: #597dbf; stroke: #545454; stroke-width: 1.25"/>
    </g>
   </g>
   <g id="FillBetweenPolyCollection_4">
    <defs>
     <path id="ma7c074c83b" d="M 385.512366 -143.799818 
L 381.933125 -143.799818 
L 381.933125 -145.987353 
L 381.933125 -148.174888 
L 381.933125 -150.362423 
L 381.933125 -152.549958 
L 381.933125 -154.737493 
L 381.933125 -156.925028 
L 381.933125 -159.112563 
L 381.933125 -161.300098 
L 381.933125 -163.487633 
L 381.933125 -165.675168 
L 381.933125 -167.862703 
L 381.933125 -170.050238 
L 381.933125 -172.237773 
L 381.933125 -174.425308 
L 381.933125 -176.612843 
L 381.933125 -178.800378 
L 381.933125 -180.987913 
L 381.933125 -183.175448 
L 381.933125 -185.362983 
L 381.933125 -187.550518 
L 381.933125 -189.738053 
L 381.933125 -191.925588 
L 381.933125 -194.113123 
L 381.933125 -196.300658 
L 381.933125 -198.488193 
L 381.933125 -200.675728 
L 381.933125 -202.863263 
L 381.933125 -205.050798 
L 381.933125 -207.238333 
L 381.933125 -209.425868 
L 381.933125 -211.613403 
L 381.933125 -213.800938 
L 381.933125 -215.988473 
L 381.933125 -218.176008 
L 381.933125 -220.363543 
L 381.933125 -222.551078 
L 381.933125 -224.738613 
L 381.933125 -226.926148 
L 381.933125 -229.113682 
L 381.933125 -231.301217 
L 381.933125 -233.488752 
L 381.933125 -235.676287 
L 381.933125 -237.863822 
L 381.933125 -240.051357 
L 381.933125 -242.238892 
L 381.933125 -244.426427 
L 381.933125 -246.613962 
L 381.933125 -248.801497 
L 381.933125 -250.989032 
L 381.933125 -253.176567 
L 381.933125 -255.364102 
L 381.933125 -257.551637 
L 381.933125 -259.739172 
L 381.933125 -261.926707 
L 381.933125 -264.114242 
L 381.933125 -266.301777 
L 381.933125 -268.489312 
L 381.933125 -270.676847 
L 381.933125 -272.864382 
L 381.933125 -275.051917 
L 381.933125 -277.239452 
L 381.933125 -279.426987 
L 381.933125 -281.614522 
L 381.933125 -283.802057 
L 381.933125 -285.989592 
L 381.933125 -288.177127 
L 381.933125 -290.364662 
L 381.933125 -292.552197 
L 381.933125 -294.739732 
L 381.933125 -296.927267 
L 381.933125 -299.114802 
L 381.933125 -301.302337 
L 381.933125 -303.489872 
L 381.933125 -305.677407 
L 381.933125 -307.864942 
L 381.933125 -310.052477 
L 381.933125 -312.240012 
L 381.933125 -314.427547 
L 381.933125 -316.615082 
L 381.933125 -318.802617 
L 381.933125 -320.990152 
L 381.933125 -323.177687 
L 381.933125 -325.365222 
L 381.933125 -327.552757 
L 381.933125 -329.740292 
L 381.933125 -331.927827 
L 381.933125 -334.115361 
L 381.933125 -336.302896 
L 381.933125 -338.490431 
L 381.933125 -340.677966 
L 381.933125 -342.865501 
L 381.933125 -345.053036 
L 381.933125 -347.240571 
L 381.933125 -349.428106 
L 381.933125 -351.615641 
L 381.933125 -353.803176 
L 381.933125 -355.990711 
L 381.933125 -358.178246 
L 381.933125 -360.365781 
L 384.011647 -360.365781 
L 384.011647 -360.365781 
L 384.437324 -358.178246 
L 384.932608 -355.990711 
L 385.505244 -353.803176 
L 386.163185 -351.615641 
L 386.914472 -349.428106 
L 387.767109 -347.240571 
L 388.728899 -345.053036 
L 389.807281 -342.865501 
L 391.00913 -340.677966 
L 392.340545 -338.490431 
L 393.806621 -336.302896 
L 395.411204 -334.115361 
L 397.156629 -331.927827 
L 399.043461 -329.740292 
L 401.070225 -327.552757 
L 403.233149 -325.365222 
L 405.525925 -323.177687 
L 407.939499 -320.990152 
L 410.461904 -318.802617 
L 413.078152 -316.615082 
L 415.770206 -314.427547 
L 418.517035 -312.240012 
L 421.294773 -310.052477 
L 424.076997 -307.864942 
L 426.835116 -305.677407 
L 429.538885 -303.489872 
L 432.157039 -301.302337 
L 434.658018 -299.114802 
L 437.010783 -296.927267 
L 439.185693 -294.739732 
L 441.155393 -292.552197 
L 442.8957 -290.364662 
L 444.386435 -288.177127 
L 445.612159 -285.989592 
L 446.562778 -283.802057 
L 447.233983 -281.614522 
L 447.627496 -279.426987 
L 447.751107 -277.239452 
L 447.618484 -275.051917 
L 447.248767 -272.864382 
L 446.665963 -270.676847 
L 445.898147 -268.489312 
L 444.976529 -266.301777 
L 443.934406 -264.114242 
L 442.806056 -261.926707 
L 441.625614 -259.739172 
L 440.425992 -257.551637 
L 439.237867 -255.364102 
L 438.088794 -253.176567 
L 437.002466 -250.989032 
L 435.998144 -248.801497 
L 435.09028 -246.613962 
L 434.288321 -244.426427 
L 433.5967 -242.238892 
L 433.015002 -240.051357 
L 432.538275 -237.863822 
L 432.157472 -235.676287 
L 431.859988 -233.488752 
L 431.630271 -231.301217 
L 431.450471 -229.113682 
L 431.301107 -226.926148 
L 431.161725 -224.738613 
L 431.011535 -222.551078 
L 430.83 -220.363543 
L 430.597381 -218.176008 
L 430.295216 -215.988473 
L 429.906749 -213.800938 
L 429.417286 -211.613403 
L 428.81449 -209.425868 
L 428.088624 -207.238333 
L 427.232719 -205.050798 
L 426.242696 -202.863263 
L 425.117417 -200.675728 
L 423.858688 -198.488193 
L 422.471187 -196.300658 
L 420.962342 -194.113123 
L 419.342145 -191.925588 
L 417.622905 -189.738053 
L 415.818943 -187.550518 
L 413.946244 -185.362983 
L 412.022059 -183.175448 
L 410.064482 -180.987913 
L 408.092001 -178.800378 
L 406.123052 -176.612843 
L 404.175578 -174.425308 
L 402.266616 -172.237773 
L 400.411922 -170.050238 
L 398.62565 -167.862703 
L 396.920095 -165.675168 
L 395.305499 -163.487633 
L 393.789942 -161.300098 
L 392.379295 -159.112563 
L 391.077253 -156.925028 
L 389.885427 -154.737493 
L 388.803495 -152.549958 
L 387.829394 -150.362423 
L 386.959557 -148.174888 
L 386.189155 -145.987353 
L 385.512366 -143.799818 
z
" style="stroke: #545454; stroke-width: 1.25"/>
    </defs>
    <g clip-path="url(#p13f98dccb3)">
     <use xlink:href="#ma7c074c83b" x="0" y="401.230781" style="fill: #d98b5f; stroke: #545454; stroke-width: 1.25"/>
    </g>
   </g>
   <g id="FillBetweenPolyCollection_5">
    <defs>
     <path id="m5d99cd3573" d="M 605.133125 -156.048316 
L 600.478831 -156.048316 
L 599.610261 -157.699404 
L 598.623055 -159.350491 
L 597.50972 -161.001578 
L 596.263832 -162.652665 
L 594.880289 -164.303752 
L 593.355535 -165.954839 
L 591.687752 -167.605926 
L 589.876999 -169.257013 
L 587.925286 -170.9081 
L 585.836584 -172.559187 
L 583.616762 -174.210274 
L 581.273454 -175.861361 
L 578.81586 -177.512448 
L 576.254499 -179.163536 
L 573.600923 -180.814623 
L 570.867415 -182.46571 
L 568.066693 -184.116797 
L 565.211646 -185.767884 
L 562.315115 -187.418971 
L 559.389746 -189.070058 
L 556.447922 -190.721145 
L 553.501784 -192.372232 
L 550.563333 -194.023319 
L 547.644609 -195.674406 
L 544.757923 -197.325493 
L 541.916119 -198.976581 
L 539.132832 -200.627668 
L 536.422714 -202.278755 
L 533.801585 -203.929842 
L 531.286487 -205.580929 
L 528.895613 -207.232016 
L 526.648099 -208.883103 
L 524.563665 -210.53419 
L 522.662132 -212.185277 
L 520.962812 -213.836364 
L 519.48382 -215.487451 
L 518.241339 -217.138538 
L 517.248882 -218.789626 
L 516.516614 -220.440713 
L 516.050753 -222.0918 
L 515.853125 -223.742887 
L 515.920881 -225.393974 
L 516.24641 -227.045061 
L 516.817453 -228.696148 
L 517.617421 -230.347235 
L 518.625888 -231.998322 
L 519.819242 -233.649409 
L 521.171458 -235.300496 
L 522.654934 -236.951583 
L 524.241375 -238.60267 
L 525.90265 -240.253758 
L 527.61161 -241.904845 
L 529.342817 -243.555932 
L 531.07317 -245.207019 
L 532.78241 -246.858106 
L 534.453494 -248.509193 
L 536.07285 -250.16028 
L 537.630503 -251.811367 
L 539.120102 -253.462454 
L 540.538853 -255.113541 
L 541.887361 -256.764628 
L 543.169421 -258.415715 
L 544.391734 -260.066803 
L 545.563583 -261.71789 
L 546.696465 -263.368977 
L 547.803671 -265.020064 
L 548.899835 -266.671151 
L 550.000452 -268.322238 
L 551.121349 -269.973325 
L 552.278156 -271.624412 
L 553.485749 -273.275499 
L 554.757712 -274.926586 
L 556.105815 -276.577673 
L 557.539539 -278.22876 
L 559.065669 -279.879847 
L 560.687973 -281.530935 
L 562.406986 -283.182022 
L 564.219914 -284.833109 
L 566.12066 -286.484196 
L 568.099993 -288.135283 
L 570.145822 -289.78637 
L 572.243596 -291.437457 
L 574.376794 -293.088544 
L 576.527479 -294.739631 
L 578.676904 -296.390718 
L 580.806127 -298.041805 
L 582.89661 -299.692892 
L 584.930784 -301.34398 
L 586.892539 -302.995067 
L 588.767641 -304.646154 
L 590.544049 -306.297241 
L 592.212124 -307.948328 
L 593.764742 -309.599415 
L 595.1973 -311.250502 
L 596.507633 -312.901589 
L 597.695856 -314.552676 
L 598.764133 -316.203763 
L 599.716413 -317.85485 
L 600.558125 -319.505937 
L 605.133125 -319.505937 
L 605.133125 -319.505937 
L 605.133125 -317.85485 
L 605.133125 -316.203763 
L 605.133125 -314.552676 
L 605.133125 -312.901589 
L 605.133125 -311.250502 
L 605.133125 -309.599415 
L 605.133125 -307.948328 
L 605.133125 -306.297241 
L 605.133125 -304.646154 
L 605.133125 -302.995067 
L 605.133125 -301.34398 
L 605.133125 -299.692892 
L 605.133125 -298.041805 
L 605.133125 -296.390718 
L 605.133125 -294.739631 
L 605.133125 -293.088544 
L 605.133125 -291.437457 
L 605.133125 -289.78637 
L 605.133125 -288.135283 
L 605.133125 -286.484196 
L 605.133125 -284.833109 
L 605.133125 -283.182022 
L 605.133125 -281.530935 
L 605.133125 -279.879847 
L 605.133125 -278.22876 
L 605.133125 -276.577673 
L 605.133125 -274.926586 
L 605.133125 -273.275499 
L 605.133125 -271.624412 
L 605.133125 -269.973325 
L 605.133125 -268.322238 
L 605.133125 -266.671151 
L 605.133125 -265.020064 
L 605.133125 -263.368977 
L 605.133125 -261.71789 
L 605.133125 -260.066803 
L 605.133125 -258.415715 
L 605.133125 -256.764628 
L 605.133125 -255.113541 
L 605.133125 -253.462454 
L 605.133125 -251.811367 
L 605.133125 -250.16028 
L 605.133125 -248.509193 
L 605.133125 -246.858106 
L 605.133125 -245.207019 
L 605.133125 -243.555932 
L 605.133125 -241.904845 
L 605.133125 -240.253758 
L 605.133125 -238.60267 
L 605.133125 -236.951583 
L 605.133125 -235.300496 
L 605.133125 -233.649409 
L 605.133125 -231.998322 
L 605.133125 -230.347235 
L 605.133125 -228.696148 
L 605.133125 -227.045061 
L 605.133125 -225.393974 
L 605.133125 -223.742887 
L 605.133125 -222.0918 
L 605.133125 -220.440713 
L 605.133125 -218.789626 
L 605.133125 -217.138538 
L 605.133125 -215.487451 
L 605.133125 -213.836364 
L 605.133125 -212.185277 
L 605.133125 -210.53419 
L 605.133125 -208.883103 
L 605.133125 -207.232016 
L 605.133125 -205.580929 
L 605.133125 -203.929842 
L 605.133125 -202.278755 
L 605.133125 -200.627668 
L 605.133125 -198.976581 
L 605.133125 -197.325493 
L 605.133125 -195.674406 
L 605.133125 -194.023319 
L 605.133125 -192.372232 
L 605.133125 -190.721145 
L 605.133125 -189.070058 
L 605.133125 -187.418971 
L 605.133125 -185.767884 
L 605.133125 -184.116797 
L 605.133125 -182.46571 
L 605.133125 -180.814623 
L 605.133125 -179.163536 
L 605.133125 -177.512448 
L 605.133125 -175.861361 
L 605.133125 -174.210274 
L 605.133125 -172.559187 
L 605.133125 -170.9081 
L 605.133125 -169.257013 
L 605.133125 -167.605926 
L 605.133125 -165.954839 
L 605.133125 -164.303752 
L 605.133125 -162.652665 
L 605.133125 -161.001578 
L 605.133125 -159.350491 
L 605.133125 -157.699404 
L 605.133125 -156.048316 
z
" style="stroke: #545454; stroke-width: 1.25"/>
    </defs>
    <g clip-path="url(#p13f98dccb3)">
     <use xlink:href="#m5d99cd3573" x="0" y="401.230781" style="fill: #597dbf; stroke: #545454; stroke-width: 1.25"/>
    </g>
   </g>
   <g id="FillBetweenPolyCollection_6">
    <defs>
     <path id="m31e3ec89bb" d="M 607.409235 -152.996206 
L 605.133125 -152.996206 
L 605.133125 -154.997955 
L 605.133125 -156.999705 
L 605.133125 -159.001454 
L 605.133125 -161.003203 
L 605.133125 -163.004953 
L 605.133125 -165.006702 
L 605.133125 -167.008451 
L 605.133125 -169.010201 
L 605.133125 -171.01195 
L 605.133125 -173.0137 
L 605.133125 -175.015449 
L 605.133125 -177.017198 
L 605.133125 -179.018948 
L 605.133125 -181.020697 
L 605.133125 -183.022446 
L 605.133125 -185.024196 
L 605.133125 -187.025945 
L 605.133125 -189.027695 
L 605.133125 -191.029444 
L 605.133125 -193.031193 
L 605.133125 -195.032943 
L 605.133125 -197.034692 
L 605.133125 -199.036441 
L 605.133125 -201.038191 
L 605.133125 -203.03994 
L 605.133125 -205.04169 
L 605.133125 -207.043439 
L 605.133125 -209.045188 
L 605.133125 -211.046938 
L 605.133125 -213.048687 
L 605.133125 -215.050436 
L 605.133125 -217.052186 
L 605.133125 -219.053935 
L 605.133125 -221.055685 
L 605.133125 -223.057434 
L 605.133125 -225.059183 
L 605.133125 -227.060933 
L 605.133125 -229.062682 
L 605.133125 -231.064431 
L 605.133125 -233.066181 
L 605.133125 -235.06793 
L 605.133125 -237.069679 
L 605.133125 -239.071429 
L 605.133125 -241.073178 
L 605.133125 -243.074928 
L 605.133125 -245.076677 
L 605.133125 -247.078426 
L 605.133125 -249.080176 
L 605.133125 -251.081925 
L 605.133125 -253.083674 
L 605.133125 -255.085424 
L 605.133125 -257.087173 
L 605.133125 -259.088923 
L 605.133125 -261.090672 
L 605.133125 -263.092421 
L 605.133125 -265.094171 
L 605.133125 -267.09592 
L 605.133125 -269.097669 
L 605.133125 -271.099419 
L 605.133125 -273.101168 
L 605.133125 -275.102918 
L 605.133125 -277.104667 
L 605.133125 -279.106416 
L 605.133125 -281.108166 
L 605.133125 -283.109915 
L 605.133125 -285.111664 
L 605.133125 -287.113414 
L 605.133125 -289.115163 
L 605.133125 -291.116913 
L 605.133125 -293.118662 
L 605.133125 -295.120411 
L 605.133125 -297.122161 
L 605.133125 -299.12391 
L 605.133125 -301.125659 
L 605.133125 -303.127409 
L 605.133125 -305.129158 
L 605.133125 -307.130907 
L 605.133125 -309.132657 
L 605.133125 -311.134406 
L 605.133125 -313.136156 
L 605.133125 -315.137905 
L 605.133125 -317.139654 
L 605.133125 -319.141404 
L 605.133125 -321.143153 
L 605.133125 -323.144902 
L 605.133125 -325.146652 
L 605.133125 -327.148401 
L 605.133125 -329.150151 
L 605.133125 -331.1519 
L 605.133125 -333.153649 
L 605.133125 -335.155399 
L 605.133125 -337.157148 
L 605.133125 -339.158897 
L 605.133125 -341.160647 
L 605.133125 -343.162396 
L 605.133125 -345.164146 
L 605.133125 -347.165895 
L 605.133125 -349.167644 
L 605.133125 -351.169394 
L 607.251107 -351.169394 
L 607.251107 -351.169394 
L 607.694926 -349.167644 
L 608.205059 -347.165895 
L 608.7853 -345.164146 
L 609.438374 -343.162396 
L 610.165704 -341.160647 
L 610.967204 -339.158897 
L 611.841128 -337.157148 
L 612.783977 -335.155399 
L 613.790492 -333.153649 
L 614.853743 -331.1519 
L 615.965303 -329.150151 
L 617.115527 -327.148401 
L 618.293924 -325.146652 
L 619.4896 -323.144902 
L 620.691755 -321.143153 
L 621.890224 -319.141404 
L 623.07601 -317.139654 
L 624.241797 -315.137905 
L 625.382402 -313.136156 
L 626.495149 -311.134406 
L 627.580135 -309.132657 
L 628.640371 -307.130907 
L 629.681791 -305.129158 
L 630.713124 -303.127409 
L 631.74564 -301.125659 
L 632.79276 -299.12391 
L 633.869578 -297.122161 
L 634.992282 -295.120411 
L 636.177521 -293.118662 
L 637.441728 -291.116913 
L 638.800437 -289.115163 
L 640.267611 -287.113414 
L 641.855015 -285.111664 
L 643.571651 -283.109915 
L 645.42329 -281.108166 
L 647.412107 -279.106416 
L 649.536454 -277.104667 
L 651.790767 -275.102918 
L 654.165623 -273.101168 
L 656.647936 -271.099419 
L 659.221287 -269.097669 
L 661.866365 -267.09592 
L 664.561479 -265.094171 
L 667.283126 -263.092421 
L 670.006552 -261.090672 
L 672.706282 -259.088923 
L 675.356575 -257.087173 
L 677.931785 -255.085424 
L 680.406603 -253.083674 
L 682.75619 -251.081925 
L 684.956216 -249.080176 
L 686.982826 -247.078426 
L 688.812592 -245.076677 
L 690.422488 -243.074928 
L 691.789937 -241.073178 
L 692.892981 -239.071429 
L 693.710597 -237.069679 
L 694.22317 -235.06793 
L 694.413125 -233.066181 
L 694.265671 -231.064431 
L 693.769618 -229.062682 
L 692.918195 -227.060933 
L 691.709803 -225.059183 
L 690.148608 -223.057434 
L 688.244935 -221.055685 
L 686.015388 -219.053935 
L 683.482674 -217.052186 
L 680.675126 -215.050436 
L 677.625946 -213.048687 
L 674.372213 -211.046938 
L 670.953713 -209.045188 
L 667.411675 -207.043439 
L 663.787498 -205.04169 
L 660.121535 -203.03994 
L 656.45202 -201.038191 
L 652.814173 -199.036441 
L 649.239542 -197.034692 
L 645.755569 -195.032943 
L 642.385397 -193.031193 
L 639.147884 -191.029444 
L 636.057788 -189.027695 
L 633.126082 -187.025945 
L 630.360359 -185.024196 
L 627.765265 -183.022446 
L 625.342947 -181.020697 
L 623.093458 -179.018948 
L 621.015125 -177.017198 
L 619.104852 -175.015449 
L 617.358362 -173.0137 
L 615.770392 -171.01195 
L 614.334836 -169.010201 
L 613.044858 -167.008451 
L 611.892997 -165.006702 
L 610.871251 -163.004953 
L 609.971177 -161.003203 
L 609.183989 -159.001454 
L 608.500678 -156.999705 
L 607.912124 -154.997955 
L 607.409235 -152.996206 
z
" style="stroke: #545454; stroke-width: 1.25"/>
    </defs>
    <g clip-path="url(#p13f98dccb3)">
     <use xlink:href="#m31e3ec89bb" x="0" y="401.230781" style="fill: #d98b5f; stroke: #545454; stroke-width: 1.25"/>
    </g>
   </g>
   <g id="patch_3">
    <path d="M 158.733125 349.427401 
L 158.733125 349.427401 
L 158.733125 349.427401 
L 158.733125 349.427401 
z
" clip-path="url(#p13f98dccb3)" style="fill: #597dbf; stroke: #545454; stroke-width: 1.25; stroke-linejoin: miter"/>
   </g>
   <g id="patch_4">
    <path d="M 158.733125 349.427401 
L 158.733125 349.427401 
L 158.733125 349.427401 
L 158.733125 349.427401 
z
" clip-path="url(#p13f98dccb3)" style="fill: #d98b5f; stroke: #545454; stroke-width: 1.25; stroke-linejoin: miter"/>
   </g>
   <g id="line2d_10">
    <path d="M 109.13689 263.593364 
L 158.733125 263.593364 
" clip-path="url(#p13f98dccb3)" style="fill: none; stroke-dasharray: 1.5625,0.9375; stroke-dashoffset: 0; stroke: #545454; stroke-width: 1.25"/>
   </g>
   <g id="line2d_11">
    <path d="M 95.06961 220.676346 
L 158.733125 220.676346 
" clip-path="url(#p13f98dccb3)" style="fill: none; stroke-dasharray: 3.125,1.25; stroke-dashoffset: 0; stroke: #545454; stroke-width: 1.25"/>
   </g>
   <g id="line2d_12">
    <path d="M 92.661037 206.370673 
L 158.733125 206.370673 
" clip-path="url(#p13f98dccb3)" style="fill: none; stroke-dasharray: 1.5625,0.9375; stroke-dashoffset: 0; stroke: #545454; stroke-width: 1.25"/>
   </g>
   <g id="line2d_13">
    <path d="M 158.733125 177.759327 
L 242.42684 177.759327 
" clip-path="url(#p13f98dccb3)" style="fill: none; stroke-dasharray: 1.5625,0.9375; stroke-dashoffset: 0; stroke: #545454; stroke-width: 1.25"/>
   </g>
   <g id="line2d_14">
    <path d="M 158.733125 163.453654 
L 239.843624 163.453654 
" clip-path="url(#p13f98dccb3)" style="fill: none; stroke-dasharray: 3.125,1.25; stroke-dashoffset: 0; stroke: #545454; stroke-width: 1.25"/>
   </g>
   <g id="line2d_15">
    <path d="M 158.733125 127.689472 
L 225.392224 127.689472 
" clip-path="url(#p13f98dccb3)" style="fill: none; stroke-dasharray: 1.5625,0.9375; stroke-dashoffset: 0; stroke: #545454; stroke-width: 1.25"/>
   </g>
   <g id="line2d_16">
    <path d="M 305.061675 231.4056 
L 381.933125 231.4056 
" clip-path="url(#p13f98dccb3)" style="fill: none; stroke-dasharray: 1.5625,0.9375; stroke-dashoffset: 0; stroke: #545454; stroke-width: 1.25"/>
   </g>
   <g id="line2d_17">
    <path d="M 298.93379 206.370673 
L 381.933125 206.370673 
" clip-path="url(#p13f98dccb3)" style="fill: none; stroke-dasharray: 3.125,1.25; stroke-dashoffset: 0; stroke: #545454; stroke-width: 1.25"/>
   </g>
   <g id="line2d_18">
    <path d="M 298.93379 206.370673 
L 381.933125 206.370673 
" clip-path="url(#p13f98dccb3)" style="fill: none; stroke-dasharray: 1.5625,0.9375; stroke-dashoffset: 0; stroke: #545454; stroke-width: 1.25"/>
   </g>
   <g id="line2d_19">
    <path d="M 381.933125 177.759327 
L 431.074726 177.759327 
" clip-path="url(#p13f98dccb3)" style="fill: none; stroke-dasharray: 1.5625,0.9375; stroke-dashoffset: 0; stroke: #545454; stroke-width: 1.25"/>
   </g>
   <g id="line2d_20">
    <path d="M 381.933125 134.842309 
L 445.013054 134.842309 
" clip-path="url(#p13f98dccb3)" style="fill: none; stroke-dasharray: 3.125,1.25; stroke-dashoffset: 0; stroke: #545454; stroke-width: 1.25"/>
   </g>
   <g id="line2d_21">
    <path d="M 381.933125 120.536636 
L 447.399548 120.536636 
" clip-path="url(#p13f98dccb3)" style="fill: none; stroke-dasharray: 1.5625,0.9375; stroke-dashoffset: 0; stroke: #545454; stroke-width: 1.25"/>
   </g>
   <g id="line2d_22">
    <path d="M 515.885614 177.759327 
L 605.133125 177.759327 
" clip-path="url(#p13f98dccb3)" style="fill: none; stroke-dasharray: 1.5625,0.9375; stroke-dashoffset: 0; stroke: #545454; stroke-width: 1.25"/>
   </g>
   <g id="line2d_23">
    <path d="M 515.885614 177.759327 
L 605.133125 177.759327 
" clip-path="url(#p13f98dccb3)" style="fill: none; stroke-dasharray: 3.125,1.25; stroke-dashoffset: 0; stroke: #545454; stroke-width: 1.25"/>
   </g>
   <g id="line2d_24">
    <path d="M 537.875387 149.147981 
L 605.133125 149.147981 
" clip-path="url(#p13f98dccb3)" style="fill: none; stroke-dasharray: 1.5625,0.9375; stroke-dashoffset: 0; stroke: #545454; stroke-width: 1.25"/>
   </g>
   <g id="line2d_25">
    <path d="M 605.133125 177.759327 
L 690.471508 177.759327 
" clip-path="url(#p13f98dccb3)" style="fill: none; stroke-dasharray: 1.5625,0.9375; stroke-dashoffset: 0; stroke: #545454; stroke-width: 1.25"/>
   </g>
   <g id="line2d_26">
    <path d="M 605.133125 163.453654 
L 693.42164 163.453654 
" clip-path="url(#p13f98dccb3)" style="fill: none; stroke-dasharray: 3.125,1.25; stroke-dashoffset: 0; stroke: #545454; stroke-width: 1.25"/>
   </g>
   <g id="line2d_27">
    <path d="M 605.133125 149.147981 
L 681.581396 149.147981 
" clip-path="url(#p13f98dccb3)" style="fill: none; stroke-dasharray: 1.5625,0.9375; stroke-dashoffset: 0; stroke: #545454; stroke-width: 1.25"/>
   </g>
   <g id="patch_5">
    <path d="M 47.133125 358.385 
L 47.133125 25.745 
" style="fill: none; stroke: #262626; stroke-width: 1.25; stroke-linejoin: miter; stroke-linecap: square"/>
   </g>
   <g id="patch_6">
    <path d="M 716.733125 358.385 
L 716.733125 25.745 
" style="fill: none; stroke: #262626; stroke-width: 1.25; stroke-linejoin: miter; stroke-linecap: square"/>
   </g>
   <g id="patch_7">
    <path d="M 47.133125 358.385 
L 716.733125 358.385 
" style="fill: none; stroke: #262626; stroke-width: 1.25; stroke-linejoin: miter; stroke-linecap: square"/>
   </g>
   <g id="patch_8">
    <path d="M 47.133125 25.745 
L 716.733125 25.745 
" style="fill: none; stroke: #262626; stroke-width: 1.25; stroke-linejoin: miter; stroke-linecap: square"/>
   </g>
   <g id="text_12">
    <!-- 과제 개수(Solutions)와 주의력(Attention)이 점수에 미치는 영향 -->
    <g style="fill: #262626" transform="translate(151.234375 19.745) scale(0.16 -0.16)">
     <defs>
      <path id="AppleGothic-6c" d="M 288 5018 
L 749 5018 
L 749 0 
L 288 0 
L 288 5018 
z
" transform="scale(0.015625)"/>
      <path id="AppleGothic-75" d="M 262 3424 
L 730 3424 
L 730 1242 
Q 730 877 941 627 
Q 1171 339 1594 339 
Q 2080 339 2426 730 
Q 2784 1139 2784 1632 
L 2784 3424 
L 3245 3424 
L 3245 0 
L 2842 0 
L 2810 582 
Q 2707 442 2592 330 
Q 2477 218 2342 134 
Q 1984 -83 1555 -83 
Q 966 -83 614 282 
Q 262 653 262 1184 
L 262 3424 
z
" transform="scale(0.015625)"/>
      <path id="AppleGothic-74" d="M 691 4435 
L 1114 4435 
L 1114 3430 
L 2016 3430 
L 2016 3014 
L 1114 3014 
L 1114 838 
Q 1114 570 1213 454 
Q 1312 339 1555 339 
Q 1696 339 1795 371 
Q 1894 403 2016 454 
L 2016 38 
Q 1914 6 1770 -22 
Q 1626 -51 1478 -51 
Q 1094 -51 883 122 
Q 646 301 646 698 
L 646 3014 
L 70 3014 
L 70 3430 
L 646 3430 
L 691 4435 
z
" transform="scale(0.015625)"/>
      <path id="AppleGothic-69" d="M 256 3424 
L 717 3424 
L 717 0 
L 256 0 
L 256 3424 
z
M 480 4870 
Q 614 4870 704 4780 
Q 794 4691 794 4525 
Q 794 4358 710 4268 
Q 627 4179 480 4179 
Q 333 4179 253 4281 
Q 173 4384 173 4518 
Q 173 4730 269 4800 
Q 365 4870 480 4870 
z
" transform="scale(0.015625)"/>
      <path id="AppleGothic-6e" d="M 3264 2291 
L 3264 0 
L 2803 0 
L 2803 2259 
Q 2803 2618 2541 2848 
Q 2278 3085 1914 3085 
Q 1427 3085 1075 2682 
Q 723 2272 723 1760 
L 723 0 
L 288 0 
L 288 3424 
L 691 3424 
L 710 2784 
Q 883 3046 1114 3219 
Q 1491 3501 1965 3501 
Q 2515 3501 2886 3168 
Q 3264 2842 3264 2291 
z
" transform="scale(0.015625)"/>
      <path id="AppleGothic-73" d="M 224 294 
L 224 851 
Q 621 531 1030 403 
Q 1152 371 1267 355 
Q 1382 339 1504 339 
Q 1894 339 2150 518 
Q 2413 710 2413 947 
Q 2413 1075 2317 1210 
Q 2182 1376 1600 1510 
Q 909 1683 678 1798 
Q 230 2054 230 2515 
Q 230 2944 602 3219 
Q 979 3501 1542 3501 
Q 1798 3501 2003 3456 
Q 2208 3411 2387 3337 
Q 2566 3264 2720 3155 
L 2720 2598 
Q 2451 2822 2156 2953 
Q 1862 3085 1536 3085 
Q 1210 3085 973 2938 
Q 730 2790 730 2554 
Q 730 2240 1306 2054 
Q 1574 1978 1836 1901 
Q 2099 1824 2368 1747 
Q 2950 1498 2950 992 
Q 2950 563 2547 237 
Q 2138 -83 1530 -83 
Q 1261 -83 1005 -26 
Q 595 64 224 294 
z
" transform="scale(0.015625)"/>
      <path id="AppleGothic-c640" d="M 3354 3398 
Q 3354 3789 3072 4045 
Q 2784 4301 2349 4301 
Q 1843 4301 1549 4045 
Q 1286 3802 1286 3424 
Q 1286 2982 1587 2752 
Q 1850 2534 2323 2534 
Q 2848 2534 3123 2829 
Q 3354 3078 3354 3398 
z
M 6042 2054 
L 5146 2054 
L 5158 -506 
L 4678 -506 
Q 4685 -294 4685 42 
Q 4685 378 4691 838 
Q 4698 1299 4698 1705 
Q 4698 2112 4698 2464 
L 4685 4691 
Q 4685 4922 4678 5027 
Q 4672 5133 4659 5184 
L 4800 5184 
Q 4986 5184 5091 5165 
Q 5197 5146 5197 5082 
Q 5197 5056 5171 4947 
Q 5146 4851 5146 4794 
L 5133 3891 
L 5146 2464 
L 6042 2477 
L 6042 2054 
z
M 4429 1120 
Q 4205 1088 4019 1069 
Q 3834 1050 3699 1037 
Q 3258 992 2922 969 
Q 2586 947 2349 947 
Q 2022 947 1584 921 
Q 1146 896 691 864 
Q 640 851 589 838 
Q 538 826 486 813 
Q 429 813 390 944 
Q 352 1075 352 1280 
L 1338 1286 
Q 1510 1286 1773 1306 
Q 1907 1318 2000 1324 
Q 2093 1331 2144 1331 
L 2144 2176 
Q 2003 2176 1805 2234 
Q 1613 2285 1456 2371 
Q 1299 2458 1178 2573 
Q 832 2912 832 3456 
Q 832 4032 1293 4378 
Q 1709 4678 2310 4678 
Q 2957 4678 3373 4326 
Q 3802 3974 3802 3373 
Q 3802 2675 3206 2368 
Q 3104 2317 2957 2275 
Q 2810 2234 2605 2189 
L 2605 1363 
Q 2707 1370 2787 1373 
Q 2867 1376 2931 1376 
Q 3110 1389 3260 1395 
Q 3411 1402 3539 1414 
L 4429 1504 
L 4429 1120 
z
" transform="scale(0.015625)"/>
      <path id="AppleGothic-c8fc" d="M 5984 1850 
L 3482 1850 
L 3501 -570 
L 3008 -602 
Q 3014 -480 3014 -345 
Q 3014 -211 3014 -58 
Q 3021 90 3021 211 
Q 3021 333 3021 422 
L 3027 1850 
L 1837 1824 
L 410 1811 
L 410 2214 
Q 518 2208 649 2208 
Q 781 2208 947 2202 
L 1536 2202 
L 3232 2214 
Q 3821 2214 4256 2217 
Q 4691 2221 4986 2227 
Q 5581 2246 5984 2266 
L 5984 1850 
z
M 5562 3123 
Q 5562 3104 5485 3056 
Q 5408 3008 5382 2976 
L 5229 2790 
Q 5062 2822 4928 2857 
Q 4794 2893 4678 2938 
Q 4499 3008 4320 3104 
Q 4141 3200 3955 3328 
Q 3629 3539 3392 3853 
Q 3219 4134 3213 4134 
Q 3187 4083 3168 4041 
Q 3149 4000 3130 3968 
Q 2880 3552 2381 3245 
Q 2182 3117 1971 3024 
Q 1760 2931 1536 2861 
Q 1466 2835 1370 2816 
Q 1274 2797 1165 2778 
L 1005 2938 
Q 973 2970 896 3027 
Q 806 3085 806 3098 
Q 813 3123 832 3123 
Q 928 3136 1014 3145 
Q 1101 3155 1171 3168 
Q 1978 3334 2470 3789 
Q 2746 4026 2886 4365 
Q 2931 4454 2982 4646 
L 2048 4627 
L 1030 4627 
L 1030 5005 
Q 1101 5005 1251 5001 
Q 1402 4998 1645 4992 
Q 1888 4986 2080 4986 
Q 2272 4986 2406 4986 
L 5293 5030 
L 5293 4653 
L 4403 4659 
L 3450 4646 
Q 3456 4570 3469 4512 
Q 3571 4192 3955 3827 
Q 4346 3462 4973 3270 
Q 5082 3238 5219 3209 
Q 5357 3181 5530 3149 
L 5562 3123 
z
" transform="scale(0.015625)"/>
      <path id="AppleGothic-b825" d="M 5395 -480 
L 4922 -493 
Q 4928 -403 4931 -294 
Q 4934 -186 4934 -58 
Q 4941 77 4944 169 
Q 4947 262 4947 314 
L 4934 1082 
L 3290 1094 
Q 2688 1094 2182 1088 
Q 1677 1082 1280 1069 
L 1280 1466 
Q 1504 1459 1763 1452 
Q 2022 1446 2330 1434 
Q 2637 1427 2873 1424 
Q 3110 1421 3277 1421 
L 3597 1421 
L 4666 1421 
Q 4851 1427 5033 1430 
Q 5216 1434 5389 1440 
L 5376 358 
L 5376 -256 
Q 5382 -326 5385 -377 
Q 5389 -429 5395 -480 
z
M 3514 2093 
Q 3328 2061 3181 2035 
Q 3034 2010 2918 1997 
Q 2566 1946 2249 1920 
Q 1933 1894 1651 1894 
Q 1523 1894 1392 1891 
Q 1261 1888 1114 1882 
Q 966 1875 867 1872 
Q 768 1869 717 1869 
Q 717 1920 717 2029 
Q 717 2138 723 2310 
Q 730 2483 733 2582 
Q 736 2682 736 2701 
L 723 3558 
L 1555 3552 
L 2880 3584 
L 2880 4403 
L 1933 4403 
Q 1690 4403 1501 4403 
Q 1312 4403 1168 4400 
Q 1024 4397 915 4390 
Q 806 4384 717 4378 
L 717 4762 
L 1946 4742 
L 3315 4762 
L 3296 4051 
L 3315 3232 
Q 3181 3219 2829 3213 
Q 2656 3206 2531 3206 
Q 2406 3206 2336 3206 
L 1158 3206 
L 1158 2246 
L 1293 2246 
Q 1338 2246 1424 2249 
Q 1510 2253 1651 2259 
Q 1786 2266 1888 2269 
Q 1990 2272 2048 2272 
Q 2323 2272 2579 2291 
Q 2835 2310 3078 2355 
Q 3162 2368 3261 2390 
Q 3360 2413 3475 2445 
L 3514 2093 
z
M 5440 5094 
Q 5440 5069 5414 4995 
Q 5389 4922 5389 4870 
L 5376 3322 
Q 5376 3014 5376 2768 
Q 5376 2522 5379 2330 
Q 5382 2138 5385 1990 
Q 5389 1843 5389 1722 
L 4934 1696 
L 4947 2285 
L 4947 2643 
L 3763 2624 
L 3763 3014 
L 4422 3002 
L 4947 3014 
L 4947 3706 
L 4518 3693 
L 3757 3680 
L 3757 4064 
L 4461 4045 
L 4947 4058 
L 4947 4781 
Q 4947 4883 4937 4988 
Q 4928 5094 4915 5190 
L 5030 5190 
Q 5216 5190 5328 5171 
Q 5440 5152 5440 5094 
z
" transform="scale(0.015625)"/>
      <path id="AppleGothic-41" d="M 2086 5018 
L 2579 5018 
L 4448 0 
L 3859 0 
L 3258 1715 
L 1350 1715 
L 723 0 
L 166 0 
L 2086 5018 
z
M 3117 2157 
L 2342 4416 
L 1504 2157 
L 3117 2157 
z
" transform="scale(0.015625)"/>
      <path id="AppleGothic-c774" d="M 3226 2534 
Q 3226 3309 2899 3725 
Q 2611 4090 2157 4090 
Q 1683 4090 1414 3690 
Q 1146 3290 1146 2534 
Q 1146 1811 1440 1382 
Q 1741 954 2240 954 
Q 2758 954 3021 1446 
Q 3226 1856 3226 2534 
z
M 5446 5082 
Q 5446 5062 5427 4982 
Q 5408 4902 5408 4832 
L 5434 -538 
L 4941 -589 
L 4960 2259 
Q 4960 3552 4941 4070 
Q 4934 4326 4931 4604 
Q 4928 4883 4915 5190 
L 5094 5197 
Q 5242 5197 5344 5174 
Q 5446 5152 5446 5082 
z
M 3686 2547 
Q 3686 2125 3612 1785 
Q 3539 1446 3379 1203 
Q 2995 582 2176 582 
Q 1408 582 1018 1203 
Q 678 1734 678 2560 
Q 678 3379 1050 3898 
Q 1453 4461 2170 4461 
Q 2912 4461 3309 3910 
Q 3686 3411 3686 2547 
z
" transform="scale(0.015625)"/>
      <path id="AppleGothic-c5d0" d="M 2707 2669 
Q 2707 3430 2419 3750 
Q 2208 3981 1856 3981 
Q 1491 3981 1267 3686 
Q 1018 3341 1018 2624 
Q 1018 1235 1862 1235 
Q 2336 1235 2541 1696 
Q 2707 2061 2707 2669 
z
M 5670 5050 
Q 5670 4986 5664 4966 
Q 5632 4806 5632 4806 
L 5619 2336 
L 5626 -544 
L 5158 -544 
L 5184 2240 
L 5178 5184 
L 5286 5184 
Q 5453 5184 5561 5158 
Q 5670 5133 5670 5050 
z
M 4499 4966 
Q 4499 4954 4480 4886 
Q 4461 4819 4461 4768 
Q 4454 4506 4451 4230 
Q 4448 3955 4442 3648 
Q 4435 3341 4435 3069 
Q 4435 2797 4435 2554 
L 4448 -64 
L 3968 -64 
L 3994 2349 
L 3136 2349 
Q 3123 2253 3104 2157 
Q 3085 2061 3072 1965 
Q 2970 1523 2720 1235 
Q 2374 845 1818 845 
Q 1133 845 826 1389 
Q 576 1830 576 2675 
Q 576 3456 909 3910 
Q 1248 4384 1862 4384 
Q 2458 4384 2803 3930 
Q 3142 3488 3142 2752 
L 3987 2752 
L 4000 3968 
Q 4000 4230 4000 4416 
Q 4000 4602 3994 4710 
Q 3994 4832 3994 4918 
Q 3994 5005 3987 5069 
L 4064 5069 
Q 4250 5069 4374 5049 
Q 4499 5030 4499 4966 
z
" transform="scale(0.015625)"/>
      <path id="AppleGothic-bbf8" d="M 3053 1600 
L 3053 3872 
L 2125 3885 
L 1261 3872 
L 1261 1594 
L 2125 1581 
L 3053 1600 
z
M 5466 5158 
Q 5466 5139 5437 5049 
Q 5408 4960 5408 4890 
L 5408 2291 
Q 5408 1702 5408 1292 
Q 5408 883 5414 659 
Q 5414 429 5420 230 
Q 5427 32 5430 -112 
Q 5434 -256 5440 -339 
Q 5446 -422 5446 -422 
L 4947 -442 
Q 4954 -301 4963 211 
Q 4973 723 4973 1670 
L 4973 2272 
Q 4973 2790 4969 3174 
Q 4966 3558 4960 3827 
Q 4954 4096 4950 4339 
Q 4947 4582 4934 4806 
Q 4928 5254 4915 5254 
L 4947 5254 
Q 5139 5254 5302 5235 
Q 5466 5216 5466 5158 
z
M 3520 1171 
L 2342 1190 
L 781 1165 
Q 781 1254 781 1459 
Q 781 1664 787 1984 
Q 794 2304 797 2483 
Q 800 2662 800 2707 
Q 800 3053 800 3296 
Q 800 3539 794 3693 
Q 794 3846 790 3996 
Q 787 4147 781 4282 
Q 896 4275 1056 4275 
Q 1216 4275 1421 4269 
Q 1626 4262 1754 4262 
Q 1882 4262 1946 4262 
L 3520 4288 
L 3501 2842 
L 3520 1171 
z
" transform="scale(0.015625)"/>
      <path id="AppleGothic-ce58" d="M 4218 1114 
Q 4198 1101 4179 1082 
Q 4154 1062 4128 1030 
Q 4102 998 4070 954 
Q 4038 922 3987 864 
Q 3936 806 3898 774 
Q 3814 826 3731 870 
Q 3648 915 3571 966 
Q 3475 1037 3372 1120 
Q 3270 1203 3149 1312 
Q 3014 1440 2892 1590 
Q 2771 1741 2675 1914 
Q 2643 1971 2604 2044 
Q 2566 2118 2528 2214 
Q 2451 2054 2381 1952 
Q 2278 1786 2147 1632 
Q 2016 1478 1862 1331 
Q 1638 1120 1286 896 
Q 1222 858 1145 810 
Q 1069 762 960 698 
L 736 851 
Q 685 883 646 902 
Q 608 922 582 934 
Q 570 941 538 973 
Q 550 979 556 979 
Q 563 979 570 986 
Q 589 992 640 1030 
Q 768 1101 870 1161 
Q 973 1222 1056 1274 
Q 1530 1574 1837 1933 
Q 2118 2253 2240 2618 
Q 2317 2874 2317 3098 
L 2317 3226 
L 1715 3238 
Q 1466 3238 1216 3225 
Q 966 3213 762 3200 
L 762 3603 
Q 858 3603 979 3603 
Q 1101 3603 1229 3600 
Q 1357 3597 1485 3597 
Q 1613 3597 1722 3597 
Q 1920 3597 2211 3600 
Q 2502 3603 2906 3610 
Q 3699 3629 4096 3629 
L 4096 3226 
L 3354 3238 
L 2771 3226 
Q 2771 3014 2793 2832 
Q 2816 2650 2870 2486 
Q 2925 2323 3011 2172 
Q 3098 2022 3232 1869 
Q 3450 1606 3840 1357 
Q 3898 1312 3984 1261 
Q 4070 1210 4179 1152 
L 4211 1120 
Q 4211 1114 4218 1114 
z
M 5434 5069 
Q 5434 5011 5427 4992 
Q 5395 4832 5395 4806 
L 5414 -576 
L 4941 -576 
L 4960 2240 
Q 4960 3795 4941 4333 
Q 4934 4864 4922 5184 
L 5018 5184 
Q 5184 5184 5309 5158 
Q 5434 5133 5434 5069 
z
M 3174 4211 
L 2477 4218 
L 1805 4198 
L 1805 4614 
L 2458 4595 
Q 2726 4595 2902 4601 
Q 3078 4608 3174 4621 
L 3174 4211 
z
" transform="scale(0.015625)"/>
      <path id="AppleGothic-b294" d="M 5261 -384 
Q 5043 -378 4800 -371 
Q 4557 -365 4301 -361 
Q 4045 -358 3789 -358 
Q 3533 -358 3296 -358 
L 1370 -371 
Q 1382 -192 1388 13 
Q 1395 218 1395 410 
L 1395 992 
Q 1395 1114 1398 1194 
Q 1402 1274 1408 1338 
L 1574 1344 
Q 1702 1344 1801 1321 
Q 1901 1299 1901 1248 
Q 1901 1242 1894 1213 
Q 1888 1184 1885 1145 
Q 1882 1107 1875 1068 
Q 1869 1030 1869 1011 
L 1850 38 
L 3475 26 
L 5261 38 
L 5261 -384 
z
M 6067 2003 
L 5389 2003 
Q 5120 2010 4822 2013 
Q 4525 2016 4179 2022 
Q 3840 2029 3603 2032 
Q 3366 2035 3226 2035 
Q 2707 2035 2291 2032 
Q 1875 2029 1536 2022 
Q 1203 2016 908 2009 
Q 614 2003 346 1997 
L 346 2432 
Q 474 2432 1069 2413 
Q 1651 2406 2131 2394 
Q 2374 2387 2636 2387 
Q 2899 2387 3206 2387 
L 4064 2387 
L 5408 2387 
Q 5594 2394 5757 2397 
Q 5920 2400 6067 2406 
L 6067 2003 
z
M 5229 3347 
L 3213 3366 
L 1306 3354 
L 1318 4134 
L 1306 4992 
Q 1555 4992 1692 4963 
Q 1830 4934 1830 4864 
Q 1830 4838 1792 4755 
Q 1754 4672 1754 4634 
L 1754 3763 
L 3392 3744 
L 5229 3757 
L 5229 3347 
z
" transform="scale(0.015625)"/>
      <path id="AppleGothic-c601" d="M 4915 608 
Q 4915 883 4614 1050 
Q 4262 1229 3443 1229 
Q 3098 1229 2816 1187 
Q 2534 1146 2336 1066 
Q 2138 986 2029 870 
Q 1920 755 1920 614 
Q 1920 250 2349 96 
Q 2714 -38 3450 -38 
Q 4186 -38 4550 112 
Q 4915 262 4915 608 
z
M 3213 3411 
Q 3213 3782 2950 4032 
Q 2662 4301 2189 4301 
Q 1696 4301 1408 4013 
Q 1139 3763 1139 3373 
Q 1139 3014 1395 2778 
Q 1670 2509 2189 2509 
Q 2675 2509 2944 2761 
Q 3213 3014 3213 3411 
z
M 5370 608 
Q 5370 122 4861 -144 
Q 4352 -410 3430 -410 
Q 2970 -410 2621 -349 
Q 2272 -288 2016 -160 
Q 1478 115 1478 608 
Q 1478 1094 2074 1350 
Q 2611 1581 3443 1581 
Q 4166 1581 4666 1408 
Q 5370 1146 5370 608 
z
M 3616 3411 
Q 3616 2925 3258 2547 
Q 2861 2131 2189 2131 
Q 1517 2131 1107 2522 
Q 749 2867 749 3373 
Q 749 3891 1114 4256 
Q 1523 4666 2189 4666 
Q 2803 4666 3213 4307 
Q 3616 3962 3616 3411 
z
M 5414 5082 
Q 5414 5043 5385 4947 
Q 5357 4851 5357 4813 
L 5376 1715 
L 4928 1683 
L 4941 2451 
L 3853 2438 
L 3853 2784 
L 4941 2778 
L 4941 3629 
L 4397 3648 
Q 4218 3648 3968 3629 
Q 3942 3629 3913 3625 
Q 3885 3622 3853 3616 
L 3853 3994 
Q 3898 3987 3968 3987 
Q 4038 3987 4128 3981 
Q 4218 3974 4285 3974 
Q 4352 3974 4403 3974 
Q 4634 3974 4752 3980 
Q 4870 3987 4941 4000 
L 4941 4787 
Q 4941 5094 4915 5190 
L 5069 5190 
Q 5235 5190 5324 5171 
Q 5414 5152 5414 5082 
z
" transform="scale(0.015625)"/>
      <path id="AppleGothic-d5a5" d="M 4794 506 
Q 4794 838 4314 992 
Q 3917 1120 3315 1120 
Q 2675 1120 2349 1024 
Q 1862 890 1862 512 
Q 1862 166 2272 0 
Q 2637 -141 3302 -141 
Q 4051 -141 4422 12 
Q 4794 166 4794 506 
z
M 3309 2771 
Q 3309 3008 3091 3142 
Q 2867 3302 2387 3302 
Q 1914 3302 1686 3158 
Q 1459 3014 1459 2810 
Q 1459 2573 1728 2432 
Q 1997 2291 2426 2291 
Q 2880 2291 3094 2428 
Q 3309 2566 3309 2771 
z
M 5242 499 
Q 5242 -51 4710 -301 
Q 4230 -525 3315 -525 
Q 2502 -525 1997 -282 
Q 1414 -6 1414 512 
Q 1414 1030 1958 1261 
Q 2413 1459 3309 1459 
Q 4154 1459 4653 1248 
Q 5242 1005 5242 499 
z
M 3763 2803 
Q 3763 2400 3414 2185 
Q 3066 1971 2438 1971 
Q 1715 1971 1363 2204 
Q 1011 2438 1011 2854 
Q 1011 3251 1440 3443 
Q 1626 3533 1856 3574 
Q 2086 3616 2362 3616 
Q 2675 3616 2931 3561 
Q 3187 3507 3372 3404 
Q 3558 3302 3660 3152 
Q 3763 3002 3763 2803 
z
M 6022 2054 
L 5114 2067 
L 5114 1485 
L 4678 1472 
Q 4678 1504 4678 1613 
Q 4678 1722 4685 1914 
Q 4691 2106 4691 2246 
Q 4691 2387 4691 2490 
L 4685 4006 
Q 4685 4461 4678 4726 
Q 4672 4992 4666 5171 
L 5062 5146 
Q 5178 5146 5178 5050 
Q 5178 5037 5168 5001 
Q 5158 4966 5148 4918 
Q 5139 4870 5129 4822 
Q 5120 4774 5120 4749 
L 5114 3693 
L 6022 3706 
L 6022 3328 
L 5120 3334 
L 5120 2426 
L 6022 2432 
L 6022 2054 
z
M 4154 3955 
L 2330 3968 
Q 1901 3968 1440 3955 
Q 979 3942 589 3930 
L 589 4320 
Q 870 4307 1225 4300 
Q 1581 4294 1984 4294 
L 2285 4294 
Q 2822 4294 3283 4310 
Q 3744 4326 4154 4352 
L 4154 3955 
z
M 3162 4666 
L 2374 4666 
L 1658 4659 
L 1658 5037 
L 2406 5018 
L 3162 5037 
L 3162 4666 
z
" transform="scale(0.015625)"/>
     </defs>
     <use xlink:href="#AppleGothic-acfc"/>
     <use xlink:href="#AppleGothic-c81c" transform="translate(99.999985 0)"/>
     <use xlink:href="#AppleGothic-20" transform="translate(199.999969 0)"/>
     <use xlink:href="#AppleGothic-ac1c" transform="translate(231.999954 0)"/>
     <use xlink:href="#AppleGothic-c218" transform="translate(331.999939 0)"/>
     <use xlink:href="#AppleGothic-28" transform="translate(431.999924 0)"/>
     <use xlink:href="#AppleGothic-53" transform="translate(481.999908 0)"/>
     <use xlink:href="#AppleGothic-6f" transform="translate(545.199905 0)"/>
     <use xlink:href="#AppleGothic-6c" transform="translate(603.499893 0)"/>
     <use xlink:href="#AppleGothic-75" transform="translate(620.19989 0)"/>
     <use xlink:href="#AppleGothic-74" transform="translate(675.699875 0)"/>
     <use xlink:href="#AppleGothic-69" transform="translate(709.899872 0)"/>
     <use xlink:href="#AppleGothic-6f" transform="translate(725.799866 0)"/>
     <use xlink:href="#AppleGothic-6e" transform="translate(784.099854 0)"/>
     <use xlink:href="#AppleGothic-73" transform="translate(839.999847 0)"/>
     <use xlink:href="#AppleGothic-29" transform="translate(889.599838 0)"/>
     <use xlink:href="#AppleGothic-c640" transform="translate(939.599823 0)"/>
     <use xlink:href="#AppleGothic-20" transform="translate(1039.599808 0)"/>
     <use xlink:href="#AppleGothic-c8fc" transform="translate(1071.599792 0)"/>
     <use xlink:href="#AppleGothic-c758" transform="translate(1171.599777 0)"/>
     <use xlink:href="#AppleGothic-b825" transform="translate(1271.599762 0)"/>
     <use xlink:href="#AppleGothic-28" transform="translate(1371.599747 0)"/>
     <use xlink:href="#AppleGothic-41" transform="translate(1421.599731 0)"/>
     <use xlink:href="#AppleGothic-74" transform="translate(1494.199722 0)"/>
     <use xlink:href="#AppleGothic-74" transform="translate(1528.399719 0)"/>
     <use xlink:href="#AppleGothic-65" transform="translate(1562.599716 0)"/>
     <use xlink:href="#AppleGothic-6e" transform="translate(1617.49971 0)"/>
     <use xlink:href="#AppleGothic-74" transform="translate(1673.399704 0)"/>
     <use xlink:href="#AppleGothic-69" transform="translate(1707.599701 0)"/>
     <use xlink:href="#AppleGothic-6f" transform="translate(1723.499695 0)"/>
     <use xlink:href="#AppleGothic-6e" transform="translate(1781.799683 0)"/>
     <use xlink:href="#AppleGothic-29" transform="translate(1837.699677 0)"/>
     <use xlink:href="#AppleGothic-c774" transform="translate(1887.699661 0)"/>
     <use xlink:href="#AppleGothic-20" transform="translate(1987.699646 0)"/>
     <use xlink:href="#AppleGothic-c810" transform="translate(2019.699631 0)"/>
     <use xlink:href="#AppleGothic-c218" transform="translate(2119.699615 0)"/>
     <use xlink:href="#AppleGothic-c5d0" transform="translate(2219.6996 0)"/>
     <use xlink:href="#AppleGothic-20" transform="translate(2319.699585 0)"/>
     <use xlink:href="#AppleGothic-bbf8" transform="translate(2351.69957 0)"/>
     <use xlink:href="#AppleGothic-ce58" transform="translate(2451.699554 0)"/>
     <use xlink:href="#AppleGothic-b294" transform="translate(2551.699539 0)"/>
     <use xlink:href="#AppleGothic-20" transform="translate(2651.699524 0)"/>
     <use xlink:href="#AppleGothic-c601" transform="translate(2683.699509 0)"/>
     <use xlink:href="#AppleGothic-d5a5" transform="translate(2783.699493 0)"/>
    </g>
   </g>
   <g id="legend_1">
    <g id="patch_9">
     <path d="M 634.430781 352.885 
L 709.033125 352.885 
Q 711.233125 352.885 711.233125 350.685 
L 711.233125 302.777812 
Q 711.233125 300.577812 709.033125 300.577812 
L 634.430781 300.577812 
Q 632.230781 300.577812 632.230781 302.777812 
L 632.230781 350.685 
Q 632.230781 352.885 634.430781 352.885 
z
" style="fill: #ffffff; opacity: 0.8; stroke: #cccccc; stroke-linejoin: miter"/>
    </g>
    <g id="text_13">
     <!-- Attention -->
     <g style="fill: #262626" transform="translate(646.764453 314.386562) scale(0.12 -0.12)">
      <use xlink:href="#AppleGothic-41"/>
      <use xlink:href="#AppleGothic-74" transform="translate(72.599991 0)"/>
      <use xlink:href="#AppleGothic-74" transform="translate(106.799988 0)"/>
      <use xlink:href="#AppleGothic-65" transform="translate(140.999985 0)"/>
      <use xlink:href="#AppleGothic-6e" transform="translate(195.899979 0)"/>
      <use xlink:href="#AppleGothic-74" transform="translate(251.799973 0)"/>
      <use xlink:href="#AppleGothic-69" transform="translate(285.999969 0)"/>
      <use xlink:href="#AppleGothic-6f" transform="translate(301.899963 0)"/>
      <use xlink:href="#AppleGothic-6e" transform="translate(360.199951 0)"/>
     </g>
    </g>
    <g id="patch_10">
     <path d="M 636.630781 330.575625 
L 658.630781 330.575625 
L 658.630781 322.875625 
L 636.630781 322.875625 
z
" style="fill: #597dbf; stroke: #545454; stroke-width: 1.25; stroke-linejoin: miter"/>
    </g>
    <g id="text_14">
     <!-- divided -->
     <g style="fill: #262626" transform="translate(667.430781 330.575625) scale(0.11 -0.11)">
      <defs>
       <path id="AppleGothic-64" d="M 2682 5018 
L 3174 5018 
L 3174 0 
L 2733 0 
L 2688 557 
Q 2598 429 2508 329 
Q 2419 230 2330 160 
Q 2010 -83 1587 -83 
Q 928 -83 493 429 
Q 64 941 64 1670 
Q 64 2426 518 2957 
Q 979 3501 1670 3501 
Q 1958 3501 2208 3398 
Q 2298 3360 2416 3296 
Q 2534 3232 2682 3142 
L 2682 5018 
z
M 2682 1658 
L 2682 2643 
Q 2381 2906 2157 2995 
Q 1933 3085 1722 3085 
Q 1197 3085 870 2643 
Q 563 2227 563 1677 
Q 563 1088 902 698 
Q 1216 339 1645 339 
Q 2067 339 2374 710 
Q 2682 1082 2682 1658 
z
" transform="scale(0.015625)"/>
       <path id="AppleGothic-76" d="M 109 3424 
L 627 3424 
L 1715 486 
L 2829 3424 
L 3290 3424 
L 1920 0 
L 1478 0 
L 109 3424 
z
" transform="scale(0.015625)"/>
      </defs>
      <use xlink:href="#AppleGothic-64"/>
      <use xlink:href="#AppleGothic-69" transform="translate(53.999985 0)"/>
      <use xlink:href="#AppleGothic-76" transform="translate(69.899979 0)"/>
      <use xlink:href="#AppleGothic-69" transform="translate(124.099976 0)"/>
      <use xlink:href="#AppleGothic-64" transform="translate(139.999969 0)"/>
      <use xlink:href="#AppleGothic-65" transform="translate(193.999954 0)"/>
      <use xlink:href="#AppleGothic-64" transform="translate(248.899948 0)"/>
     </g>
    </g>
    <g id="patch_11">
     <path d="M 636.630781 346.592656 
L 658.630781 346.592656 
L 658.630781 338.892656 
L 636.630781 338.892656 
z
" style="fill: #d98b5f; stroke: #545454; stroke-width: 1.25; stroke-linejoin: miter"/>
    </g>
    <g id="text_15">
     <!-- focused -->
     <g style="fill: #262626" transform="translate(667.430781 346.592656) scale(0.11 -0.11)">
      <defs>
       <path id="AppleGothic-66" d="M 646 3430 
L 646 4083 
Q 646 4538 819 4774 
Q 1037 5101 1555 5101 
Q 1613 5101 1657 5097 
Q 1702 5094 1750 5088 
Q 1798 5082 1862 5062 
Q 1926 5043 2016 5018 
L 2016 4595 
Q 1997 4621 1837 4653 
Q 1766 4666 1712 4672 
Q 1658 4678 1619 4678 
Q 1350 4678 1228 4524 
Q 1107 4371 1107 4083 
L 1107 3430 
L 2016 3430 
L 2016 3014 
L 1107 3014 
L 1107 0 
L 646 0 
L 646 3014 
L 64 3014 
L 64 3430 
L 646 3430 
z
" transform="scale(0.015625)"/>
      </defs>
      <use xlink:href="#AppleGothic-66"/>
      <use xlink:href="#AppleGothic-6f" transform="translate(33.999985 0)"/>
      <use xlink:href="#AppleGothic-63" transform="translate(92.299973 0)"/>
      <use xlink:href="#AppleGothic-75" transform="translate(144.199966 0)"/>
      <use xlink:href="#AppleGothic-73" transform="translate(199.699951 0)"/>
      <use xlink:href="#AppleGothic-65" transform="translate(249.299942 0)"/>
      <use xlink:href="#AppleGothic-64" transform="translate(304.199936 0)"/>
     </g>
    </g>
   </g>
  </g>
 </g>
 <defs>
  <clipPath id="p13f98dccb3">
   <rect x="47.133125" y="25.745" width="669.6" height="332.64"/>
  </clipPath>
 </defs>
</svg>
