<svg width="450" height="250" viewBox="0 0 450 250" xmlns="http://www.w3.org/2000/svg">
  <defs>
    <linearGradient id="boxGrad" x1="0%" y1="0%" x2="100%" y2="100%">
      <stop offset="0%" stop-color="#4fd1c5" />
      <stop offset="100%" stop-color="#319795" />
    </linearGradient>
    <linearGradient id="plateGrad" x1="0%" y1="0%" x2="100%" y2="0%">
      <stop offset="0%" stop-color="#e2e8f0"/>
      <stop offset="50%" stop-color="#cbd5e0"/>
      <stop offset="100%" stop-color="#e2e8f0"/>
    </linearGradient>
    <filter id="shadow" x="-10%" y="-10%" width="120%" height="120%">
      <feDropShadow dx="2" dy="4" stdDeviation="3" flood-color="#a0aec0" flood-opacity="0.6"/>
    </filter>
  </defs>

  <!-- 배경 픽셀 그리드 은은하게 -->
  <path d="M0,50 L450,50 M0,100 L450,100 M0,150 L450,150 M0,200 L450,200" stroke="#f7fafc" stroke-width="2"/>
  <path d="M50,0 L50,250 M100,0 L100,250 M150,0 L150,250 M200,0 L200,250 M250,0 L250,250 M300,0 L300,250 M350,0 L350,250 M400,0 L400,250" stroke="#f7fafc" stroke-width="2"/>

  <!-- 1. Scalar (0D) -->
  <g transform="translate(60, 100)">
    <circle cx="0" cy="0" r="15" fill="#f6ad55" filter="url(#shadow)">
      <animate attributeName="cy" values="0; -10; 0" dur="2s" repeatCount="indefinite"/>
    </circle>
    <text x="0" y="-30" font-family="Arial" font-size="12" font-weight="bold" fill="#718096" text-anchor="middle">0D (Scalar)</text>
  </g>

  <!-- 화살표 1 -->
  <path d="M90,100 L120,100" stroke="#cbd5e0" stroke-width="3" stroke-dasharray="5,3">
    <animate attributeName="stroke-dashoffset" from="16" to="0" dur="1s" repeatCount="indefinite"/>
  </path>

  <!-- 2. Vector (1D) -->
  <g transform="translate(160, 100)">
    <g filter="url(#shadow)">
      <rect x="-30" y="-15" width="20" height="30" fill="url(#boxGrad)" rx="2" stroke="#2c7a7b" stroke-width="1"/>
      <rect x="-10" y="-15" width="20" height="30" fill="url(#boxGrad)" rx="2" stroke="#2c7a7b" stroke-width="1"/>
      <rect x="10" y="-15" width="20" height="30" fill="url(#boxGrad)" rx="2" stroke="#2c7a7b" stroke-width="1"/>
    </g>
    <text x="0" y="-30" font-family="Arial" font-size="12" font-weight="bold" fill="#718096" text-anchor="middle">1D (Vector)</text>
    <!-- 반짝이는 스캐너 효과 -->
    <line x1="-35" y1="-20" x2="-35" y2="20" stroke="#3182ce" stroke-width="2" opacity="0.8">
      <animate attributeName="x1" values="-35; 35; -35" dur="3s" repeatCount="indefinite"/>
      <animate attributeName="x2" values="-35; 35; -35" dur="3s" repeatCount="indefinite"/>
    </line>
  </g>

  <!-- 화살표 2 -->
  <path d="M210,100 L240,100" stroke="#cbd5e0" stroke-width="3" stroke-dasharray="5,3">
    <animate attributeName="stroke-dashoffset" from="16" to="0" dur="1s" repeatCount="indefinite"/>
  </path>

  <!-- 3. Matrix (2D) -->
  <g transform="translate(290, 80)">
    <g filter="url(#shadow)">
      <animateTransform attributeName="transform" type="translate" values="0,0; 0,-5; 0,0" dur="3s" repeatCount="indefinite"/>
      <!-- 1행 -->
      <rect x="-30" y="0" width="20" height="20" fill="#4299e1" rx="2" stroke="#2b6cb0" stroke-width="1"/>
      <rect x="-10" y="0" width="20" height="20" fill="#4299e1" rx="2" stroke="#2b6cb0" stroke-width="1"/>
      <rect x="10" y="0" width="20" height="20" fill="#4299e1" rx="2" stroke="#2b6cb0" stroke-width="1"/>
      <!-- 2행 -->
      <rect x="-30" y="20" width="20" height="20" fill="#4299e1" rx="2" stroke="#2b6cb0" stroke-width="1"/>
      <rect x="-10" y="20" width="20" height="20" fill="#4299e1" rx="2" stroke="#2b6cb0" stroke-width="1"/>
      <rect x="10" y="20" width="20" height="20" fill="#4299e1" rx="2" stroke="#2b6cb0" stroke-width="1"/>
      <!-- 3행 -->
      <rect x="-30" y="40" width="20" height="20" fill="#4299e1" rx="2" stroke="#2b6cb0" stroke-width="1"/>
      <rect x="-10" y="40" width="20" height="20" fill="#4299e1" rx="2" stroke="#2b6cb0" stroke-width="1"/>
      <rect x="10" y="40" width="20" height="20" fill="#4299e1" rx="2" stroke="#2b6cb0" stroke-width="1"/>
    </g>
    <text x="0" y="-10" font-family="Arial" font-size="12" font-weight="bold" fill="#718096" text-anchor="middle">2D (Matrix)</text>
  </g>

  <!-- 화살표 3 -->
  <path d="M340,100 L370,100" stroke="#cbd5e0" stroke-width="3" stroke-dasharray="5,3">
    <animate attributeName="stroke-dashoffset" from="16" to="0" dur="1s" repeatCount="indefinite"/>
  </path>

  <!-- 4. Tensor (3D Stack) -->
  <g transform="translate(400, 70)">
    <g filter="url(#shadow)">
      <!-- 뒤쪽 레이어 -->
      <rect x="-20" y="0" width="30" height="40" fill="#718096" opacity="0.6"/>
      <!-- 중간 레이어 -->
      <rect x="-15" y="10" width="30" height="40" fill="#a0aec0" opacity="0.8"/>
      <!-- 앞쪽 레이어 (메인 Matrix) -->
      <rect x="-10" y="20" width="30" height="40" fill="#2b6cb0" stroke="#bee3f8" stroke-width="1">
        <animate attributeName="fill" values="#2b6cb0; #3182ce; #2b6cb0" dur="2s" repeatCount="indefinite"/>
      </rect>
      
      <!-- 행렬 선 긋기 장식 -->
      <line x1="-10" y1="33" x2="20" y2="33" stroke="#bee3f8" stroke-width="1" opacity="0.5"/>
      <line x1="-10" y1="46" x2="20" y2="46" stroke="#bee3f8" stroke-width="1" opacity="0.5"/>
      <line x1="0" y1="20" x2="0" y2="60" stroke="#bee3f8" stroke-width="1" opacity="0.5"/>
      <line x1="10" y1="20" x2="10" y2="60" stroke="#bee3f8" stroke-width="1" opacity="0.5"/>
    </g>
    <text x="0" y="0" font-family="Arial" font-size="12" font-weight="bold" fill="#718096" text-anchor="middle">3D (Tensor)</text>
  </g>

  <!-- 하단 설명 -->
  <rect x="75" y="170" width="300" height="30" fill="url(#plateGrad)" rx="15" opacity="0.8"/>
  <text x="225" y="190" font-family="monospace" font-size="13" font-weight="bold" fill="#2d3748" text-anchor="middle">.shape == (Depth, Rows, Columns)</text>

</svg>
