<?xml version="1.0" encoding="utf-8" standalone="no"?>
<!DOCTYPE svg PUBLIC "-//W3C//DTD SVG 1.1//EN"
  "http://www.w3.org/Graphics/SVG/1.1/DTD/svg11.dtd">
<svg xmlns:xlink="http://www.w3.org/1999/xlink" width="616.157344pt" height="397.899844pt" viewBox="0 0 616.157344 397.899844" xmlns="http://www.w3.org/2000/svg" version="1.1">
 <metadata>
  <rdf:RDF xmlns:dc="http://purl.org/dc/elements/1.1/" xmlns:cc="http://creativecommons.org/ns#" xmlns:rdf="http://www.w3.org/1999/02/22-rdf-syntax-ns#">
   <cc:Work>
    <dc:type rdf:resource="http://purl.org/dc/dcmitype/StillImage"/>
    <dc:date>2026-05-25T18:32:47.045194</dc:date>
    <dc:format>image/svg+xml</dc:format>
    <dc:creator>
     <cc:Agent>
      <dc:title>Matplotlib v3.10.9, https://matplotlib.org/</dc:title>
     </cc:Agent>
    </dc:creator>
   </cc:Work>
  </rdf:RDF>
 </metadata>
 <defs>
  <style type="text/css">*{stroke-linejoin: round; stroke-linecap: butt}</style>
 </defs>
 <g id="figure_1">
  <g id="patch_1">
   <path d="M 0 397.899844 
L 616.157344 397.899844 
L 616.157344 0 
L 0 0 
z
" style="fill: #ffffff"/>
  </g>
  <g id="axes_1">
   <g id="patch_2">
    <path d="M 50.957344 356.031562 
L 608.957344 356.031562 
L 608.957344 23.391562 
L 50.957344 23.391562 
z
" style="fill: #ffffff"/>
   </g>
   <g id="matplotlib.axis_1">
    <g id="xtick_1">
     <g id="text_1">
      <!-- Entire home/apt -->
      <g style="fill: #262626" transform="translate(105.1325 373.539219) scale(0.11 -0.11)">
       <defs>
        <path id="ArialMT-45" d="M 506 0 
L 506 4581 
L 3819 4581 
L 3819 4041 
L 1113 4041 
L 1113 2638 
L 3647 2638 
L 3647 2100 
L 1113 2100 
L 1113 541 
L 3925 541 
L 3925 0 
L 506 0 
z
" transform="scale(0.015625)"/>
        <path id="ArialMT-6e" d="M 422 0 
L 422 3319 
L 928 3319 
L 928 2847 
Q 1294 3394 1984 3394 
Q 2284 3394 2536 3286 
Q 2788 3178 2913 3003 
Q 3038 2828 3088 2588 
Q 3119 2431 3119 2041 
L 3119 0 
L 2556 0 
L 2556 2019 
Q 2556 2363 2490 2533 
Q 2425 2703 2258 2804 
Q 2091 2906 1866 2906 
Q 1506 2906 1245 2678 
Q 984 2450 984 1813 
L 984 0 
L 422 0 
z
" transform="scale(0.015625)"/>
        <path id="ArialMT-74" d="M 1650 503 
L 1731 6 
Q 1494 -44 1306 -44 
Q 1000 -44 831 53 
Q 663 150 594 308 
Q 525 466 525 972 
L 525 2881 
L 113 2881 
L 113 3319 
L 525 3319 
L 525 4141 
L 1084 4478 
L 1084 3319 
L 1650 3319 
L 1650 2881 
L 1084 2881 
L 1084 941 
Q 1084 700 1114 631 
Q 1144 563 1211 522 
Q 1278 481 1403 481 
Q 1497 481 1650 503 
z
" transform="scale(0.015625)"/>
        <path id="ArialMT-69" d="M 425 3934 
L 425 4581 
L 988 4581 
L 988 3934 
L 425 3934 
z
M 425 0 
L 425 3319 
L 988 3319 
L 988 0 
L 425 0 
z
" transform="scale(0.015625)"/>
        <path id="ArialMT-72" d="M 416 0 
L 416 3319 
L 922 3319 
L 922 2816 
Q 1116 3169 1280 3281 
Q 1444 3394 1641 3394 
Q 1925 3394 2219 3213 
L 2025 2691 
Q 1819 2813 1613 2813 
Q 1428 2813 1281 2702 
Q 1134 2591 1072 2394 
Q 978 2094 978 1738 
L 978 0 
L 416 0 
z
" transform="scale(0.015625)"/>
        <path id="ArialMT-65" d="M 2694 1069 
L 3275 997 
Q 3138 488 2766 206 
Q 2394 -75 1816 -75 
Q 1088 -75 661 373 
Q 234 822 234 1631 
Q 234 2469 665 2931 
Q 1097 3394 1784 3394 
Q 2450 3394 2872 2941 
Q 3294 2488 3294 1666 
Q 3294 1616 3291 1516 
L 816 1516 
Q 847 969 1125 678 
Q 1403 388 1819 388 
Q 2128 388 2347 550 
Q 2566 713 2694 1069 
z
M 847 1978 
L 2700 1978 
Q 2663 2397 2488 2606 
Q 2219 2931 1791 2931 
Q 1403 2931 1139 2672 
Q 875 2413 847 1978 
z
" transform="scale(0.015625)"/>
        <path id="ArialMT-20" transform="scale(0.015625)"/>
        <path id="ArialMT-68" d="M 422 0 
L 422 4581 
L 984 4581 
L 984 2938 
Q 1378 3394 1978 3394 
Q 2347 3394 2619 3248 
Q 2891 3103 3008 2847 
Q 3125 2591 3125 2103 
L 3125 0 
L 2563 0 
L 2563 2103 
Q 2563 2525 2380 2717 
Q 2197 2909 1863 2909 
Q 1613 2909 1392 2779 
Q 1172 2650 1078 2428 
Q 984 2206 984 1816 
L 984 0 
L 422 0 
z
" transform="scale(0.015625)"/>
        <path id="ArialMT-6f" d="M 213 1659 
Q 213 2581 725 3025 
Q 1153 3394 1769 3394 
Q 2453 3394 2887 2945 
Q 3322 2497 3322 1706 
Q 3322 1066 3130 698 
Q 2938 331 2570 128 
Q 2203 -75 1769 -75 
Q 1072 -75 642 372 
Q 213 819 213 1659 
z
M 791 1659 
Q 791 1022 1069 705 
Q 1347 388 1769 388 
Q 2188 388 2466 706 
Q 2744 1025 2744 1678 
Q 2744 2294 2464 2611 
Q 2184 2928 1769 2928 
Q 1347 2928 1069 2612 
Q 791 2297 791 1659 
z
" transform="scale(0.015625)"/>
        <path id="ArialMT-6d" d="M 422 0 
L 422 3319 
L 925 3319 
L 925 2853 
Q 1081 3097 1340 3245 
Q 1600 3394 1931 3394 
Q 2300 3394 2536 3241 
Q 2772 3088 2869 2813 
Q 3263 3394 3894 3394 
Q 4388 3394 4653 3120 
Q 4919 2847 4919 2278 
L 4919 0 
L 4359 0 
L 4359 2091 
Q 4359 2428 4304 2576 
Q 4250 2725 4106 2815 
Q 3963 2906 3769 2906 
Q 3419 2906 3187 2673 
Q 2956 2441 2956 1928 
L 2956 0 
L 2394 0 
L 2394 2156 
Q 2394 2531 2256 2718 
Q 2119 2906 1806 2906 
Q 1569 2906 1367 2781 
Q 1166 2656 1075 2415 
Q 984 2175 984 1722 
L 984 0 
L 422 0 
z
" transform="scale(0.015625)"/>
        <path id="ArialMT-2f" d="M 0 -78 
L 1328 4659 
L 1778 4659 
L 453 -78 
L 0 -78 
z
" transform="scale(0.015625)"/>
        <path id="ArialMT-61" d="M 2588 409 
Q 2275 144 1986 34 
Q 1697 -75 1366 -75 
Q 819 -75 525 192 
Q 231 459 231 875 
Q 231 1119 342 1320 
Q 453 1522 633 1644 
Q 813 1766 1038 1828 
Q 1203 1872 1538 1913 
Q 2219 1994 2541 2106 
Q 2544 2222 2544 2253 
Q 2544 2597 2384 2738 
Q 2169 2928 1744 2928 
Q 1347 2928 1158 2789 
Q 969 2650 878 2297 
L 328 2372 
Q 403 2725 575 2942 
Q 747 3159 1072 3276 
Q 1397 3394 1825 3394 
Q 2250 3394 2515 3294 
Q 2781 3194 2906 3042 
Q 3031 2891 3081 2659 
Q 3109 2516 3109 2141 
L 3109 1391 
Q 3109 606 3145 398 
Q 3181 191 3288 0 
L 2700 0 
Q 2613 175 2588 409 
z
M 2541 1666 
Q 2234 1541 1622 1453 
Q 1275 1403 1131 1340 
Q 988 1278 909 1158 
Q 831 1038 831 891 
Q 831 666 1001 516 
Q 1172 366 1500 366 
Q 1825 366 2078 508 
Q 2331 650 2450 897 
Q 2541 1088 2541 1459 
L 2541 1666 
z
" transform="scale(0.015625)"/>
        <path id="ArialMT-70" d="M 422 -1272 
L 422 3319 
L 934 3319 
L 934 2888 
Q 1116 3141 1344 3267 
Q 1572 3394 1897 3394 
Q 2322 3394 2647 3175 
Q 2972 2956 3137 2557 
Q 3303 2159 3303 1684 
Q 3303 1175 3120 767 
Q 2938 359 2589 142 
Q 2241 -75 1856 -75 
Q 1575 -75 1351 44 
Q 1128 163 984 344 
L 984 -1272 
L 422 -1272 
z
M 931 1641 
Q 931 1000 1190 694 
Q 1450 388 1819 388 
Q 2194 388 2461 705 
Q 2728 1022 2728 1688 
Q 2728 2322 2467 2637 
Q 2206 2953 1844 2953 
Q 1484 2953 1207 2617 
Q 931 2281 931 1641 
z
" transform="scale(0.015625)"/>
       </defs>
       <use xlink:href="#ArialMT-45"/>
       <use xlink:href="#ArialMT-6e" transform="translate(66.699219 0)"/>
       <use xlink:href="#ArialMT-74" transform="translate(122.314453 0)"/>
       <use xlink:href="#ArialMT-69" transform="translate(150.097656 0)"/>
       <use xlink:href="#ArialMT-72" transform="translate(172.314453 0)"/>
       <use xlink:href="#ArialMT-65" transform="translate(205.615234 0)"/>
       <use xlink:href="#ArialMT-20" transform="translate(261.230469 0)"/>
       <use xlink:href="#ArialMT-68" transform="translate(289.013672 0)"/>
       <use xlink:href="#ArialMT-6f" transform="translate(344.628906 0)"/>
       <use xlink:href="#ArialMT-6d" transform="translate(400.244141 0)"/>
       <use xlink:href="#ArialMT-65" transform="translate(483.544922 0)"/>
       <use xlink:href="#ArialMT-2f" transform="translate(539.160156 0)"/>
       <use xlink:href="#ArialMT-61" transform="translate(566.943359 0)"/>
       <use xlink:href="#ArialMT-70" transform="translate(622.558594 0)"/>
       <use xlink:href="#ArialMT-74" transform="translate(678.173828 0)"/>
      </g>
     </g>
    </g>
    <g id="xtick_2">
     <g id="text_2">
      <!-- Private room -->
      <g style="fill: #262626" transform="translate(298.782656 373.405156) scale(0.11 -0.11)">
       <defs>
        <path id="ArialMT-50" d="M 494 0 
L 494 4581 
L 2222 4581 
Q 2678 4581 2919 4538 
Q 3256 4481 3484 4323 
Q 3713 4166 3852 3881 
Q 3991 3597 3991 3256 
Q 3991 2672 3619 2267 
Q 3247 1863 2275 1863 
L 1100 1863 
L 1100 0 
L 494 0 
z
M 1100 2403 
L 2284 2403 
Q 2872 2403 3119 2622 
Q 3366 2841 3366 3238 
Q 3366 3525 3220 3729 
Q 3075 3934 2838 4000 
Q 2684 4041 2272 4041 
L 1100 4041 
L 1100 2403 
z
" transform="scale(0.015625)"/>
        <path id="ArialMT-76" d="M 1344 0 
L 81 3319 
L 675 3319 
L 1388 1331 
Q 1503 1009 1600 663 
Q 1675 925 1809 1294 
L 2547 3319 
L 3125 3319 
L 1869 0 
L 1344 0 
z
" transform="scale(0.015625)"/>
       </defs>
       <use xlink:href="#ArialMT-50"/>
       <use xlink:href="#ArialMT-72" transform="translate(66.699219 0)"/>
       <use xlink:href="#ArialMT-69" transform="translate(100 0)"/>
       <use xlink:href="#ArialMT-76" transform="translate(122.216797 0)"/>
       <use xlink:href="#ArialMT-61" transform="translate(172.216797 0)"/>
       <use xlink:href="#ArialMT-74" transform="translate(227.832031 0)"/>
       <use xlink:href="#ArialMT-65" transform="translate(255.615234 0)"/>
       <use xlink:href="#ArialMT-20" transform="translate(311.230469 0)"/>
       <use xlink:href="#ArialMT-72" transform="translate(339.013672 0)"/>
       <use xlink:href="#ArialMT-6f" transform="translate(372.314453 0)"/>
       <use xlink:href="#ArialMT-6f" transform="translate(427.929688 0)"/>
       <use xlink:href="#ArialMT-6d" transform="translate(483.544922 0)"/>
      </g>
     </g>
    </g>
    <g id="xtick_3">
     <g id="text_3">
      <!-- Shared room -->
      <g style="fill: #262626" transform="translate(484.165625 373.405156) scale(0.11 -0.11)">
       <defs>
        <path id="ArialMT-53" d="M 288 1472 
L 859 1522 
Q 900 1178 1048 958 
Q 1197 738 1509 602 
Q 1822 466 2213 466 
Q 2559 466 2825 569 
Q 3091 672 3220 851 
Q 3350 1031 3350 1244 
Q 3350 1459 3225 1620 
Q 3100 1781 2813 1891 
Q 2628 1963 1997 2114 
Q 1366 2266 1113 2400 
Q 784 2572 623 2826 
Q 463 3081 463 3397 
Q 463 3744 659 4045 
Q 856 4347 1234 4503 
Q 1613 4659 2075 4659 
Q 2584 4659 2973 4495 
Q 3363 4331 3572 4012 
Q 3781 3694 3797 3291 
L 3216 3247 
Q 3169 3681 2898 3903 
Q 2628 4125 2100 4125 
Q 1550 4125 1298 3923 
Q 1047 3722 1047 3438 
Q 1047 3191 1225 3031 
Q 1400 2872 2139 2705 
Q 2878 2538 3153 2413 
Q 3553 2228 3743 1945 
Q 3934 1663 3934 1294 
Q 3934 928 3725 604 
Q 3516 281 3123 101 
Q 2731 -78 2241 -78 
Q 1619 -78 1198 103 
Q 778 284 539 648 
Q 300 1013 288 1472 
z
" transform="scale(0.015625)"/>
        <path id="ArialMT-64" d="M 2575 0 
L 2575 419 
Q 2259 -75 1647 -75 
Q 1250 -75 917 144 
Q 584 363 401 755 
Q 219 1147 219 1656 
Q 219 2153 384 2558 
Q 550 2963 881 3178 
Q 1213 3394 1622 3394 
Q 1922 3394 2156 3267 
Q 2391 3141 2538 2938 
L 2538 4581 
L 3097 4581 
L 3097 0 
L 2575 0 
z
M 797 1656 
Q 797 1019 1065 703 
Q 1334 388 1700 388 
Q 2069 388 2326 689 
Q 2584 991 2584 1609 
Q 2584 2291 2321 2609 
Q 2059 2928 1675 2928 
Q 1300 2928 1048 2622 
Q 797 2316 797 1656 
z
" transform="scale(0.015625)"/>
       </defs>
       <use xlink:href="#ArialMT-53"/>
       <use xlink:href="#ArialMT-68" transform="translate(66.699219 0)"/>
       <use xlink:href="#ArialMT-61" transform="translate(122.314453 0)"/>
       <use xlink:href="#ArialMT-72" transform="translate(177.929688 0)"/>
       <use xlink:href="#ArialMT-65" transform="translate(211.230469 0)"/>
       <use xlink:href="#ArialMT-64" transform="translate(266.845703 0)"/>
       <use xlink:href="#ArialMT-20" transform="translate(322.460938 0)"/>
       <use xlink:href="#ArialMT-72" transform="translate(350.244141 0)"/>
       <use xlink:href="#ArialMT-6f" transform="translate(383.544922 0)"/>
       <use xlink:href="#ArialMT-6f" transform="translate(439.160156 0)"/>
       <use xlink:href="#ArialMT-6d" transform="translate(494.775391 0)"/>
      </g>
     </g>
    </g>
    <g id="text_4">
     <!-- 객실 유형 -->
     <g style="fill: #262626" transform="translate(310.290469 388.314844) scale(0.12 -0.12)">
      <defs>
       <path id="ArialMT-ac1d" d="M 800 0 
L 800 4000 
L 4000 4000 
L 4000 0 
L 800 0 
z
M 900 100 
L 3900 100 
L 3900 3900 
L 900 3900 
L 900 100 
z
" transform="scale(0.015625)"/>
       <path id="ArialMT-c2e4" d="M 800 0 
L 800 4000 
L 4000 4000 
L 4000 0 
L 800 0 
z
M 900 100 
L 3900 100 
L 3900 3900 
L 900 3900 
L 900 100 
z
" transform="scale(0.015625)"/>
       <path id="ArialMT-c720" d="M 800 0 
L 800 4000 
L 4000 4000 
L 4000 0 
L 800 0 
z
M 900 100 
L 3900 100 
L 3900 3900 
L 900 3900 
L 900 100 
z
" transform="scale(0.015625)"/>
       <path id="ArialMT-d615" d="M 800 0 
L 800 4000 
L 4000 4000 
L 4000 0 
L 800 0 
z
M 900 100 
L 3900 100 
L 3900 3900 
L 900 3900 
L 900 100 
z
" transform="scale(0.015625)"/>
      </defs>
      <use xlink:href="#ArialMT-ac1d"/>
      <use xlink:href="#ArialMT-c2e4" transform="translate(75 0)"/>
      <use xlink:href="#ArialMT-20" transform="translate(150 0)"/>
      <use xlink:href="#ArialMT-c720" transform="translate(177.783203 0)"/>
      <use xlink:href="#ArialMT-d615" transform="translate(252.783203 0)"/>
     </g>
    </g>
   </g>
   <g id="matplotlib.axis_2">
    <g id="ytick_1">
     <g id="line2d_1">
      <path d="M 50.957344 346.503597 
L 608.957344 346.503597 
" clip-path="url(#paeb3f0af25)" style="fill: none; stroke: #cccccc; stroke-linecap: round"/>
     </g>
     <g id="text_5">
      <!-- 0 -->
      <g style="fill: #262626" transform="translate(35.340312 350.440394) scale(0.11 -0.11)">
       <defs>
        <path id="ArialMT-30" d="M 266 2259 
Q 266 3072 433 3567 
Q 600 4063 929 4331 
Q 1259 4600 1759 4600 
Q 2128 4600 2406 4451 
Q 2684 4303 2865 4023 
Q 3047 3744 3150 3342 
Q 3253 2941 3253 2259 
Q 3253 1453 3087 958 
Q 2922 463 2592 192 
Q 2263 -78 1759 -78 
Q 1097 -78 719 397 
Q 266 969 266 2259 
z
M 844 2259 
Q 844 1131 1108 757 
Q 1372 384 1759 384 
Q 2147 384 2411 759 
Q 2675 1134 2675 2259 
Q 2675 3391 2411 3762 
Q 2147 4134 1753 4134 
Q 1366 4134 1134 3806 
Q 844 3388 844 2259 
z
" transform="scale(0.015625)"/>
       </defs>
       <use xlink:href="#ArialMT-30"/>
      </g>
     </g>
    </g>
    <g id="ytick_2">
     <g id="line2d_2">
      <path d="M 50.957344 303.487949 
L 608.957344 303.487949 
" clip-path="url(#paeb3f0af25)" style="fill: none; stroke: #cccccc; stroke-linecap: round"/>
     </g>
     <g id="text_6">
      <!-- 100 -->
      <g style="fill: #262626" transform="translate(23.10625 307.424746) scale(0.11 -0.11)">
       <defs>
        <path id="ArialMT-31" d="M 2384 0 
L 1822 0 
L 1822 3584 
Q 1619 3391 1289 3197 
Q 959 3003 697 2906 
L 697 3450 
Q 1169 3672 1522 3987 
Q 1875 4303 2022 4600 
L 2384 4600 
L 2384 0 
z
" transform="scale(0.015625)"/>
       </defs>
       <use xlink:href="#ArialMT-31"/>
       <use xlink:href="#ArialMT-30" transform="translate(55.615234 0)"/>
       <use xlink:href="#ArialMT-30" transform="translate(111.230469 0)"/>
      </g>
     </g>
    </g>
    <g id="ytick_3">
     <g id="line2d_3">
      <path d="M 50.957344 260.472302 
L 608.957344 260.472302 
" clip-path="url(#paeb3f0af25)" style="fill: none; stroke: #cccccc; stroke-linecap: round"/>
     </g>
     <g id="text_7">
      <!-- 200 -->
      <g style="fill: #262626" transform="translate(23.10625 264.409099) scale(0.11 -0.11)">
       <defs>
        <path id="ArialMT-32" d="M 3222 541 
L 3222 0 
L 194 0 
Q 188 203 259 391 
Q 375 700 629 1000 
Q 884 1300 1366 1694 
Q 2113 2306 2375 2664 
Q 2638 3022 2638 3341 
Q 2638 3675 2398 3904 
Q 2159 4134 1775 4134 
Q 1369 4134 1125 3890 
Q 881 3647 878 3216 
L 300 3275 
Q 359 3922 746 4261 
Q 1134 4600 1788 4600 
Q 2447 4600 2831 4234 
Q 3216 3869 3216 3328 
Q 3216 3053 3103 2787 
Q 2991 2522 2730 2228 
Q 2469 1934 1863 1422 
Q 1356 997 1212 845 
Q 1069 694 975 541 
L 3222 541 
z
" transform="scale(0.015625)"/>
       </defs>
       <use xlink:href="#ArialMT-32"/>
       <use xlink:href="#ArialMT-30" transform="translate(55.615234 0)"/>
       <use xlink:href="#ArialMT-30" transform="translate(111.230469 0)"/>
      </g>
     </g>
    </g>
    <g id="ytick_4">
     <g id="line2d_4">
      <path d="M 50.957344 217.456655 
L 608.957344 217.456655 
" clip-path="url(#paeb3f0af25)" style="fill: none; stroke: #cccccc; stroke-linecap: round"/>
     </g>
     <g id="text_8">
      <!-- 300 -->
      <g style="fill: #262626" transform="translate(23.10625 221.393452) scale(0.11 -0.11)">
       <defs>
        <path id="ArialMT-33" d="M 269 1209 
L 831 1284 
Q 928 806 1161 595 
Q 1394 384 1728 384 
Q 2125 384 2398 659 
Q 2672 934 2672 1341 
Q 2672 1728 2419 1979 
Q 2166 2231 1775 2231 
Q 1616 2231 1378 2169 
L 1441 2663 
Q 1497 2656 1531 2656 
Q 1891 2656 2178 2843 
Q 2466 3031 2466 3422 
Q 2466 3731 2256 3934 
Q 2047 4138 1716 4138 
Q 1388 4138 1169 3931 
Q 950 3725 888 3313 
L 325 3413 
Q 428 3978 793 4289 
Q 1159 4600 1703 4600 
Q 2078 4600 2393 4439 
Q 2709 4278 2876 4000 
Q 3044 3722 3044 3409 
Q 3044 3113 2884 2869 
Q 2725 2625 2413 2481 
Q 2819 2388 3044 2092 
Q 3269 1797 3269 1353 
Q 3269 753 2831 336 
Q 2394 -81 1725 -81 
Q 1122 -81 723 278 
Q 325 638 269 1209 
z
" transform="scale(0.015625)"/>
       </defs>
       <use xlink:href="#ArialMT-33"/>
       <use xlink:href="#ArialMT-30" transform="translate(55.615234 0)"/>
       <use xlink:href="#ArialMT-30" transform="translate(111.230469 0)"/>
      </g>
     </g>
    </g>
    <g id="ytick_5">
     <g id="line2d_5">
      <path d="M 50.957344 174.441008 
L 608.957344 174.441008 
" clip-path="url(#paeb3f0af25)" style="fill: none; stroke: #cccccc; stroke-linecap: round"/>
     </g>
     <g id="text_9">
      <!-- 400 -->
      <g style="fill: #262626" transform="translate(23.10625 178.377805) scale(0.11 -0.11)">
       <defs>
        <path id="ArialMT-34" d="M 2069 0 
L 2069 1097 
L 81 1097 
L 81 1613 
L 2172 4581 
L 2631 4581 
L 2631 1613 
L 3250 1613 
L 3250 1097 
L 2631 1097 
L 2631 0 
L 2069 0 
z
M 2069 1613 
L 2069 3678 
L 634 1613 
L 2069 1613 
z
" transform="scale(0.015625)"/>
       </defs>
       <use xlink:href="#ArialMT-34"/>
       <use xlink:href="#ArialMT-30" transform="translate(55.615234 0)"/>
       <use xlink:href="#ArialMT-30" transform="translate(111.230469 0)"/>
      </g>
     </g>
    </g>
    <g id="ytick_6">
     <g id="line2d_6">
      <path d="M 50.957344 131.425361 
L 608.957344 131.425361 
" clip-path="url(#paeb3f0af25)" style="fill: none; stroke: #cccccc; stroke-linecap: round"/>
     </g>
     <g id="text_10">
      <!-- 500 -->
      <g style="fill: #262626" transform="translate(23.10625 135.362157) scale(0.11 -0.11)">
       <defs>
        <path id="ArialMT-35" d="M 266 1200 
L 856 1250 
Q 922 819 1161 601 
Q 1400 384 1738 384 
Q 2144 384 2425 690 
Q 2706 997 2706 1503 
Q 2706 1984 2436 2262 
Q 2166 2541 1728 2541 
Q 1456 2541 1237 2417 
Q 1019 2294 894 2097 
L 366 2166 
L 809 4519 
L 3088 4519 
L 3088 3981 
L 1259 3981 
L 1013 2750 
Q 1425 3038 1878 3038 
Q 2478 3038 2890 2622 
Q 3303 2206 3303 1553 
Q 3303 931 2941 478 
Q 2500 -78 1738 -78 
Q 1113 -78 717 272 
Q 322 622 266 1200 
z
" transform="scale(0.015625)"/>
       </defs>
       <use xlink:href="#ArialMT-35"/>
       <use xlink:href="#ArialMT-30" transform="translate(55.615234 0)"/>
       <use xlink:href="#ArialMT-30" transform="translate(111.230469 0)"/>
      </g>
     </g>
    </g>
    <g id="ytick_7">
     <g id="line2d_7">
      <path d="M 50.957344 88.409713 
L 608.957344 88.409713 
" clip-path="url(#paeb3f0af25)" style="fill: none; stroke: #cccccc; stroke-linecap: round"/>
     </g>
     <g id="text_11">
      <!-- 600 -->
      <g style="fill: #262626" transform="translate(23.10625 92.34651) scale(0.11 -0.11)">
       <defs>
        <path id="ArialMT-36" d="M 3184 3459 
L 2625 3416 
Q 2550 3747 2413 3897 
Q 2184 4138 1850 4138 
Q 1581 4138 1378 3988 
Q 1113 3794 959 3422 
Q 806 3050 800 2363 
Q 1003 2672 1297 2822 
Q 1591 2972 1913 2972 
Q 2475 2972 2870 2558 
Q 3266 2144 3266 1488 
Q 3266 1056 3080 686 
Q 2894 316 2569 119 
Q 2244 -78 1831 -78 
Q 1128 -78 684 439 
Q 241 956 241 2144 
Q 241 3472 731 4075 
Q 1159 4600 1884 4600 
Q 2425 4600 2770 4297 
Q 3116 3994 3184 3459 
z
M 888 1484 
Q 888 1194 1011 928 
Q 1134 663 1356 523 
Q 1578 384 1822 384 
Q 2178 384 2434 671 
Q 2691 959 2691 1453 
Q 2691 1928 2437 2201 
Q 2184 2475 1800 2475 
Q 1419 2475 1153 2201 
Q 888 1928 888 1484 
z
" transform="scale(0.015625)"/>
       </defs>
       <use xlink:href="#ArialMT-36"/>
       <use xlink:href="#ArialMT-30" transform="translate(55.615234 0)"/>
       <use xlink:href="#ArialMT-30" transform="translate(111.230469 0)"/>
      </g>
     </g>
    </g>
    <g id="ytick_8">
     <g id="line2d_8">
      <path d="M 50.957344 45.394066 
L 608.957344 45.394066 
" clip-path="url(#paeb3f0af25)" style="fill: none; stroke: #cccccc; stroke-linecap: round"/>
     </g>
     <g id="text_12">
      <!-- 700 -->
      <g style="fill: #262626" transform="translate(23.10625 49.330863) scale(0.11 -0.11)">
       <defs>
        <path id="ArialMT-37" d="M 303 3981 
L 303 4522 
L 3269 4522 
L 3269 4084 
Q 2831 3619 2401 2847 
Q 1972 2075 1738 1259 
Q 1569 684 1522 0 
L 944 0 
Q 953 541 1156 1306 
Q 1359 2072 1739 2783 
Q 2119 3494 2547 3981 
L 303 3981 
z
" transform="scale(0.015625)"/>
       </defs>
       <use xlink:href="#ArialMT-37"/>
       <use xlink:href="#ArialMT-30" transform="translate(55.615234 0)"/>
       <use xlink:href="#ArialMT-30" transform="translate(111.230469 0)"/>
      </g>
     </g>
    </g>
    <g id="text_13">
     <!-- 1박 가격 ($) -->
     <g style="fill: #262626" transform="translate(16.580625 217.214062) rotate(-90) scale(0.12 -0.12)">
      <defs>
       <path id="ArialMT-bc15" d="M 800 0 
L 800 4000 
L 4000 4000 
L 4000 0 
L 800 0 
z
M 900 100 
L 3900 100 
L 3900 3900 
L 900 3900 
L 900 100 
z
" transform="scale(0.015625)"/>
       <path id="ArialMT-ac00" d="M 800 0 
L 800 4000 
L 4000 4000 
L 4000 0 
L 800 0 
z
M 900 100 
L 3900 100 
L 3900 3900 
L 900 3900 
L 900 100 
z
" transform="scale(0.015625)"/>
       <path id="ArialMT-aca9" d="M 800 0 
L 800 4000 
L 4000 4000 
L 4000 0 
L 800 0 
z
M 900 100 
L 3900 100 
L 3900 3900 
L 900 3900 
L 900 100 
z
" transform="scale(0.015625)"/>
       <path id="ArialMT-28" d="M 1497 -1347 
Q 1031 -759 709 28 
Q 388 816 388 1659 
Q 388 2403 628 3084 
Q 909 3875 1497 4659 
L 1900 4659 
Q 1522 4009 1400 3731 
Q 1209 3300 1100 2831 
Q 966 2247 966 1656 
Q 966 153 1900 -1347 
L 1497 -1347 
z
" transform="scale(0.015625)"/>
       <path id="ArialMT-24" d="M 1594 -659 
L 1594 -97 
Q 1172 -44 908 92 
Q 644 228 451 531 
Q 259 834 228 1272 
L 794 1378 
Q 859 925 1025 713 
Q 1263 413 1594 378 
L 1594 2169 
Q 1247 2234 884 2438 
Q 616 2588 470 2853 
Q 325 3119 325 3456 
Q 325 4056 750 4428 
Q 1034 4678 1594 4734 
L 1594 5003 
L 1925 5003 
L 1925 4734 
Q 2416 4688 2703 4447 
Q 3072 4141 3147 3606 
L 2566 3519 
Q 2516 3850 2358 4026 
Q 2200 4203 1925 4259 
L 1925 2638 
Q 2350 2531 2488 2472 
Q 2750 2356 2915 2190 
Q 3081 2025 3170 1797 
Q 3259 1569 3259 1303 
Q 3259 719 2887 328 
Q 2516 -63 1925 -91 
L 1925 -659 
L 1594 -659 
z
M 1594 4266 
Q 1266 4216 1077 4003 
Q 888 3791 888 3500 
Q 888 3213 1048 3019 
Q 1209 2825 1594 2709 
L 1594 4266 
z
M 1925 378 
Q 2253 419 2467 662 
Q 2681 906 2681 1266 
Q 2681 1572 2529 1758 
Q 2378 1944 1925 2091 
L 1925 378 
z
" transform="scale(0.015625)"/>
       <path id="ArialMT-29" d="M 791 -1347 
L 388 -1347 
Q 1322 153 1322 1656 
Q 1322 2244 1188 2822 
Q 1081 3291 891 3722 
Q 769 4003 388 4659 
L 791 4659 
Q 1378 3875 1659 3084 
Q 1900 2403 1900 1659 
Q 1900 816 1576 28 
Q 1253 -759 791 -1347 
z
" transform="scale(0.015625)"/>
      </defs>
      <use xlink:href="#ArialMT-31"/>
      <use xlink:href="#ArialMT-bc15" transform="translate(55.615234 0)"/>
      <use xlink:href="#ArialMT-20" transform="translate(130.615234 0)"/>
      <use xlink:href="#ArialMT-ac00" transform="translate(158.398438 0)"/>
      <use xlink:href="#ArialMT-aca9" transform="translate(233.398438 0)"/>
      <use xlink:href="#ArialMT-20" transform="translate(308.398438 0)"/>
      <use xlink:href="#ArialMT-28" transform="translate(336.181641 0)"/>
      <use xlink:href="#ArialMT-24" transform="translate(369.482422 0)"/>
      <use xlink:href="#ArialMT-29" transform="translate(425.097656 0)"/>
     </g>
    </g>
   </g>
   <g id="patch_3">
    <path d="M 69.557344 262.192928 
L 218.357344 262.192928 
L 218.357344 239.179557 
L 69.557344 239.179557 
L 69.557344 262.192928 
z
" clip-path="url(#paeb3f0af25)" style="fill: #9bb5f0; stroke: #6e6e6e; stroke-linejoin: miter"/>
   </g>
   <g id="line2d_9">
    <path d="M 143.957344 262.192928 
L 143.957344 286.711847 
" clip-path="url(#paeb3f0af25)" style="fill: none; stroke: #6e6e6e"/>
   </g>
   <g id="line2d_10">
    <path d="M 143.957344 239.179557 
L 143.957344 205.84243 
" clip-path="url(#paeb3f0af25)" style="fill: none; stroke: #6e6e6e"/>
   </g>
   <g id="line2d_11">
    <path d="M 106.757344 286.711847 
L 181.157344 286.711847 
" clip-path="url(#paeb3f0af25)" style="fill: none; stroke: #6e6e6e; stroke-linecap: round"/>
   </g>
   <g id="line2d_12">
    <path d="M 106.757344 205.84243 
L 181.157344 205.84243 
" clip-path="url(#paeb3f0af25)" style="fill: none; stroke: #6e6e6e; stroke-linecap: round"/>
   </g>
   <g id="line2d_13">
    <defs>
     <path id="m534179476a" d="M 0 3 
C 0.795609 3 1.55874 2.683901 2.12132 2.12132 
C 2.683901 1.55874 3 0.795609 3 0 
C 3 -0.795609 2.683901 -1.55874 2.12132 -2.12132 
C 1.55874 -2.683901 0.795609 -3 0 -3 
C -0.795609 -3 -1.55874 -2.683901 -2.12132 -2.12132 
C -2.683901 -1.55874 -3 -0.795609 -3 0 
C -3 0.795609 -2.683901 1.55874 -2.12132 2.12132 
C -1.55874 2.683901 -0.795609 3 0 3 
z
" style="stroke: #6e6e6e"/>
    </defs>
    <g clip-path="url(#paeb3f0af25)">
     <use xlink:href="#m534179476a" x="143.957344" y="188.206015" style="fill-opacity: 0; stroke: #6e6e6e"/>
     <use xlink:href="#m534179476a" x="143.957344" y="161.106157" style="fill-opacity: 0; stroke: #6e6e6e"/>
     <use xlink:href="#m534179476a" x="143.957344" y="198.959927" style="fill-opacity: 0; stroke: #6e6e6e"/>
     <use xlink:href="#m534179476a" x="143.957344" y="201.540865" style="fill-opacity: 0; stroke: #6e6e6e"/>
     <use xlink:href="#m534179476a" x="143.957344" y="182.613981" style="fill-opacity: 0; stroke: #6e6e6e"/>
     <use xlink:href="#m534179476a" x="143.957344" y="186.485389" style="fill-opacity: 0; stroke: #6e6e6e"/>
     <use xlink:href="#m534179476a" x="143.957344" y="172.720382" style="fill-opacity: 0; stroke: #6e6e6e"/>
     <use xlink:href="#m534179476a" x="143.957344" y="181.753668" style="fill-opacity: 0; stroke: #6e6e6e"/>
     <use xlink:href="#m534179476a" x="143.957344" y="185.625076" style="fill-opacity: 0; stroke: #6e6e6e"/>
     <use xlink:href="#m534179476a" x="143.957344" y="172.290225" style="fill-opacity: 0; stroke: #6e6e6e"/>
     <use xlink:href="#m534179476a" x="143.957344" y="184.764763" style="fill-opacity: 0; stroke: #6e6e6e"/>
     <use xlink:href="#m534179476a" x="143.957344" y="187.775858" style="fill-opacity: 0; stroke: #6e6e6e"/>
     <use xlink:href="#m534179476a" x="143.957344" y="161.96647" style="fill-opacity: 0; stroke: #6e6e6e"/>
     <use xlink:href="#m534179476a" x="143.957344" y="204.551961" style="fill-opacity: 0; stroke: #6e6e6e"/>
     <use xlink:href="#m534179476a" x="143.957344" y="198.959927" style="fill-opacity: 0; stroke: #6e6e6e"/>
     <use xlink:href="#m534179476a" x="143.957344" y="172.290225" style="fill-opacity: 0; stroke: #6e6e6e"/>
     <use xlink:href="#m534179476a" x="143.957344" y="200.680553" style="fill-opacity: 0; stroke: #6e6e6e"/>
     <use xlink:href="#m534179476a" x="143.957344" y="162.396627" style="fill-opacity: 0; stroke: #6e6e6e"/>
     <use xlink:href="#m534179476a" x="143.957344" y="202.401178" style="fill-opacity: 0; stroke: #6e6e6e"/>
     <use xlink:href="#m534179476a" x="143.957344" y="189.066328" style="fill-opacity: 0; stroke: #6e6e6e"/>
     <use xlink:href="#m534179476a" x="143.957344" y="123.682544" style="fill-opacity: 0; stroke: #6e6e6e"/>
     <use xlink:href="#m534179476a" x="143.957344" y="200.680553" style="fill-opacity: 0; stroke: #6e6e6e"/>
     <use xlink:href="#m534179476a" x="143.957344" y="153.363341" style="fill-opacity: 0; stroke: #6e6e6e"/>
     <use xlink:href="#m534179476a" x="143.957344" y="168.848974" style="fill-opacity: 0; stroke: #6e6e6e"/>
     <use xlink:href="#m534179476a" x="143.957344" y="177.021947" style="fill-opacity: 0; stroke: #6e6e6e"/>
     <use xlink:href="#m534179476a" x="143.957344" y="170.999756" style="fill-opacity: 0; stroke: #6e6e6e"/>
     <use xlink:href="#m534179476a" x="143.957344" y="183.474294" style="fill-opacity: 0; stroke: #6e6e6e"/>
     <use xlink:href="#m534179476a" x="143.957344" y="204.121804" style="fill-opacity: 0; stroke: #6e6e6e"/>
    </g>
   </g>
   <g id="patch_4">
    <path d="M 255.557344 306.499045 
L 404.357344 306.499045 
L 404.357344 285.09876 
L 255.557344 285.09876 
L 255.557344 306.499045 
z
" clip-path="url(#paeb3f0af25)" style="fill: #dddcdc; stroke: #6e6e6e; stroke-linejoin: miter"/>
   </g>
   <g id="line2d_14">
    <path d="M 329.957344 306.499045 
L 329.957344 327.146555 
" clip-path="url(#paeb3f0af25)" style="fill: none; stroke: #6e6e6e"/>
   </g>
   <g id="line2d_15">
    <path d="M 329.957344 285.09876 
L 329.957344 254.019955 
" clip-path="url(#paeb3f0af25)" style="fill: none; stroke: #6e6e6e"/>
   </g>
   <g id="line2d_16">
    <path d="M 292.757344 327.146555 
L 367.157344 327.146555 
" clip-path="url(#paeb3f0af25)" style="fill: none; stroke: #6e6e6e; stroke-linecap: round"/>
   </g>
   <g id="line2d_17">
    <path d="M 292.757344 254.019955 
L 367.157344 254.019955 
" clip-path="url(#paeb3f0af25)" style="fill: none; stroke: #6e6e6e; stroke-linecap: round"/>
   </g>
   <g id="line2d_18">
    <g clip-path="url(#paeb3f0af25)">
     <use xlink:href="#m534179476a" x="329.957344" y="235.953383" style="fill-opacity: 0; stroke: #6e6e6e"/>
     <use xlink:href="#m534179476a" x="329.957344" y="198.099614" style="fill-opacity: 0; stroke: #6e6e6e"/>
     <use xlink:href="#m534179476a" x="329.957344" y="204.551961" style="fill-opacity: 0; stroke: #6e6e6e"/>
     <use xlink:href="#m534179476a" x="329.957344" y="95.292217" style="fill-opacity: 0; stroke: #6e6e6e"/>
     <use xlink:href="#m534179476a" x="329.957344" y="38.511562" style="fill-opacity: 0; stroke: #6e6e6e"/>
     <use xlink:href="#m534179476a" x="329.957344" y="215.305873" style="fill-opacity: 0; stroke: #6e6e6e"/>
     <use xlink:href="#m534179476a" x="329.957344" y="246.277139" style="fill-opacity: 0; stroke: #6e6e6e"/>
     <use xlink:href="#m534179476a" x="329.957344" y="240.254948" style="fill-opacity: 0; stroke: #6e6e6e"/>
     <use xlink:href="#m534179476a" x="329.957344" y="66.041577" style="fill-opacity: 0; stroke: #6e6e6e"/>
     <use xlink:href="#m534179476a" x="329.957344" y="231.651819" style="fill-opacity: 0; stroke: #6e6e6e"/>
     <use xlink:href="#m534179476a" x="329.957344" y="232.512131" style="fill-opacity: 0; stroke: #6e6e6e"/>
     <use xlink:href="#m534179476a" x="329.957344" y="232.081975" style="fill-opacity: 0; stroke: #6e6e6e"/>
     <use xlink:href="#m534179476a" x="329.957344" y="206.272587" style="fill-opacity: 0; stroke: #6e6e6e"/>
     <use xlink:href="#m534179476a" x="329.957344" y="191.21711" style="fill-opacity: 0; stroke: #6e6e6e"/>
     <use xlink:href="#m534179476a" x="329.957344" y="215.736029" style="fill-opacity: 0; stroke: #6e6e6e"/>
     <use xlink:href="#m534179476a" x="329.957344" y="246.707295" style="fill-opacity: 0; stroke: #6e6e6e"/>
     <use xlink:href="#m534179476a" x="329.957344" y="195.088518" style="fill-opacity: 0; stroke: #6e6e6e"/>
     <use xlink:href="#m534179476a" x="329.957344" y="215.305873" style="fill-opacity: 0; stroke: #6e6e6e"/>
     <use xlink:href="#m534179476a" x="329.957344" y="202.831335" style="fill-opacity: 0; stroke: #6e6e6e"/>
     <use xlink:href="#m534179476a" x="329.957344" y="174.010851" style="fill-opacity: 0; stroke: #6e6e6e"/>
    </g>
   </g>
   <g id="patch_5">
    <path d="M 441.557344 324.673156 
L 590.357344 324.673156 
L 590.357344 299.078846 
L 441.557344 299.078846 
L 441.557344 324.673156 
z
" clip-path="url(#paeb3f0af25)" style="fill: #e5a089; stroke: #6e6e6e; stroke-linejoin: miter"/>
   </g>
   <g id="line2d_19">
    <path d="M 515.957344 324.673156 
L 515.957344 340.911562 
" clip-path="url(#paeb3f0af25)" style="fill: none; stroke: #6e6e6e"/>
   </g>
   <g id="line2d_20">
    <path d="M 515.957344 299.078846 
L 515.957344 261.762772 
" clip-path="url(#paeb3f0af25)" style="fill: none; stroke: #6e6e6e"/>
   </g>
   <g id="line2d_21">
    <path d="M 478.757344 340.911562 
L 553.157344 340.911562 
" clip-path="url(#paeb3f0af25)" style="fill: none; stroke: #6e6e6e; stroke-linecap: round"/>
   </g>
   <g id="line2d_22">
    <path d="M 478.757344 261.762772 
L 553.157344 261.762772 
" clip-path="url(#paeb3f0af25)" style="fill: none; stroke: #6e6e6e; stroke-linecap: round"/>
   </g>
   <g id="line2d_23">
    <g clip-path="url(#paeb3f0af25)">
     <use xlink:href="#m534179476a" x="515.957344" y="259.611989" style="fill-opacity: 0; stroke: #6e6e6e"/>
     <use xlink:href="#m534179476a" x="515.957344" y="224.769315" style="fill-opacity: 0; stroke: #6e6e6e"/>
     <use xlink:href="#m534179476a" x="515.957344" y="244.556513" style="fill-opacity: 0; stroke: #6e6e6e"/>
     <use xlink:href="#m534179476a" x="515.957344" y="221.75822" style="fill-opacity: 0; stroke: #6e6e6e"/>
    </g>
   </g>
   <g id="line2d_24">
    <path d="M 69.557344 252.729486 
L 218.357344 252.729486 
" clip-path="url(#paeb3f0af25)" style="fill: none; stroke: #6e6e6e"/>
   </g>
   <g id="line2d_25">
    <path d="M 255.557344 297.465759 
L 404.357344 297.465759 
" clip-path="url(#paeb3f0af25)" style="fill: none; stroke: #6e6e6e"/>
   </g>
   <g id="line2d_26">
    <path d="M 441.557344 312.736314 
L 590.357344 312.736314 
" clip-path="url(#paeb3f0af25)" style="fill: none; stroke: #6e6e6e"/>
   </g>
   <g id="patch_6">
    <path d="M 50.957344 356.031562 
L 50.957344 23.391562 
" style="fill: none; stroke: #cccccc; stroke-width: 1.25; stroke-linejoin: miter; stroke-linecap: square"/>
   </g>
   <g id="patch_7">
    <path d="M 608.957344 356.031562 
L 608.957344 23.391562 
" style="fill: none; stroke: #cccccc; stroke-width: 1.25; stroke-linejoin: miter; stroke-linecap: square"/>
   </g>
   <g id="patch_8">
    <path d="M 50.957344 356.031562 
L 608.957344 356.031562 
" style="fill: none; stroke: #cccccc; stroke-width: 1.25; stroke-linejoin: miter; stroke-linecap: square"/>
   </g>
   <g id="patch_9">
    <path d="M 50.957344 23.391562 
L 608.957344 23.391562 
" style="fill: none; stroke: #cccccc; stroke-width: 1.25; stroke-linejoin: miter; stroke-linecap: square"/>
   </g>
   <g id="text_14">
    <!-- 객실 타입별 1박 대여 가격(Price) 분포 (이상치 포함) -->
    <g style="fill: #262626" transform="translate(196.755 17.391562) scale(0.14 -0.14)">
     <defs>
      <path id="Arial-BoldMT-ac1d" d="M 800 0 
L 800 4000 
L 4000 4000 
L 4000 0 
L 800 0 
z
M 900 100 
L 3900 100 
L 3900 3900 
L 900 3900 
L 900 100 
z
" transform="scale(0.015625)"/>
      <path id="Arial-BoldMT-c2e4" d="M 800 0 
L 800 4000 
L 4000 4000 
L 4000 0 
L 800 0 
z
M 900 100 
L 3900 100 
L 3900 3900 
L 900 3900 
L 900 100 
z
" transform="scale(0.015625)"/>
      <path id="Arial-BoldMT-20" transform="scale(0.015625)"/>
      <path id="Arial-BoldMT-d0c0" d="M 800 0 
L 800 4000 
L 4000 4000 
L 4000 0 
L 800 0 
z
M 900 100 
L 3900 100 
L 3900 3900 
L 900 3900 
L 900 100 
z
" transform="scale(0.015625)"/>
      <path id="Arial-BoldMT-c785" d="M 800 0 
L 800 4000 
L 4000 4000 
L 4000 0 
L 800 0 
z
M 900 100 
L 3900 100 
L 3900 3900 
L 900 3900 
L 900 100 
z
" transform="scale(0.015625)"/>
      <path id="Arial-BoldMT-bcc4" d="M 800 0 
L 800 4000 
L 4000 4000 
L 4000 0 
L 800 0 
z
M 900 100 
L 3900 100 
L 3900 3900 
L 900 3900 
L 900 100 
z
" transform="scale(0.015625)"/>
      <path id="Arial-BoldMT-31" d="M 2519 0 
L 1641 0 
L 1641 3309 
Q 1159 2859 506 2644 
L 506 3441 
Q 850 3553 1253 3867 
Q 1656 4181 1806 4600 
L 2519 4600 
L 2519 0 
z
" transform="scale(0.015625)"/>
      <path id="Arial-BoldMT-bc15" d="M 800 0 
L 800 4000 
L 4000 4000 
L 4000 0 
L 800 0 
z
M 900 100 
L 3900 100 
L 3900 3900 
L 900 3900 
L 900 100 
z
" transform="scale(0.015625)"/>
      <path id="Arial-BoldMT-b300" d="M 800 0 
L 800 4000 
L 4000 4000 
L 4000 0 
L 800 0 
z
M 900 100 
L 3900 100 
L 3900 3900 
L 900 3900 
L 900 100 
z
" transform="scale(0.015625)"/>
      <path id="Arial-BoldMT-c5ec" d="M 800 0 
L 800 4000 
L 4000 4000 
L 4000 0 
L 800 0 
z
M 900 100 
L 3900 100 
L 3900 3900 
L 900 3900 
L 900 100 
z
" transform="scale(0.015625)"/>
      <path id="Arial-BoldMT-ac00" d="M 800 0 
L 800 4000 
L 4000 4000 
L 4000 0 
L 800 0 
z
M 900 100 
L 3900 100 
L 3900 3900 
L 900 3900 
L 900 100 
z
" transform="scale(0.015625)"/>
      <path id="Arial-BoldMT-aca9" d="M 800 0 
L 800 4000 
L 4000 4000 
L 4000 0 
L 800 0 
z
M 900 100 
L 3900 100 
L 3900 3900 
L 900 3900 
L 900 100 
z
" transform="scale(0.015625)"/>
      <path id="Arial-BoldMT-28" d="M 1916 -1347 
L 1313 -1347 
Q 834 -625 584 153 
Q 334 931 334 1659 
Q 334 2563 644 3369 
Q 913 4069 1325 4659 
L 1925 4659 
Q 1497 3713 1336 3048 
Q 1175 2384 1175 1641 
Q 1175 1128 1270 590 
Q 1366 53 1531 -431 
Q 1641 -750 1916 -1347 
z
" transform="scale(0.015625)"/>
      <path id="Arial-BoldMT-50" d="M 466 0 
L 466 4581 
L 1950 4581 
Q 2794 4581 3050 4513 
Q 3444 4409 3709 4064 
Q 3975 3719 3975 3172 
Q 3975 2750 3822 2462 
Q 3669 2175 3433 2011 
Q 3197 1847 2953 1794 
Q 2622 1728 1994 1728 
L 1391 1728 
L 1391 0 
L 466 0 
z
M 1391 3806 
L 1391 2506 
L 1897 2506 
Q 2444 2506 2628 2578 
Q 2813 2650 2917 2803 
Q 3022 2956 3022 3159 
Q 3022 3409 2875 3571 
Q 2728 3734 2503 3775 
Q 2338 3806 1838 3806 
L 1391 3806 
z
" transform="scale(0.015625)"/>
      <path id="Arial-BoldMT-72" d="M 1300 0 
L 422 0 
L 422 3319 
L 1238 3319 
L 1238 2847 
Q 1447 3181 1614 3287 
Q 1781 3394 1994 3394 
Q 2294 3394 2572 3228 
L 2300 2463 
Q 2078 2606 1888 2606 
Q 1703 2606 1575 2504 
Q 1447 2403 1373 2137 
Q 1300 1872 1300 1025 
L 1300 0 
z
" transform="scale(0.015625)"/>
      <path id="Arial-BoldMT-69" d="M 459 3769 
L 459 4581 
L 1338 4581 
L 1338 3769 
L 459 3769 
z
M 459 0 
L 459 3319 
L 1338 3319 
L 1338 0 
L 459 0 
z
" transform="scale(0.015625)"/>
      <path id="Arial-BoldMT-63" d="M 3353 2338 
L 2488 2181 
Q 2444 2441 2289 2572 
Q 2134 2703 1888 2703 
Q 1559 2703 1364 2476 
Q 1169 2250 1169 1719 
Q 1169 1128 1367 884 
Q 1566 641 1900 641 
Q 2150 641 2309 783 
Q 2469 925 2534 1272 
L 3397 1125 
Q 3263 531 2881 228 
Q 2500 -75 1859 -75 
Q 1131 -75 698 384 
Q 266 844 266 1656 
Q 266 2478 700 2936 
Q 1134 3394 1875 3394 
Q 2481 3394 2839 3133 
Q 3197 2872 3353 2338 
z
" transform="scale(0.015625)"/>
      <path id="Arial-BoldMT-65" d="M 2381 1056 
L 3256 909 
Q 3088 428 2723 176 
Q 2359 -75 1813 -75 
Q 947 -75 531 491 
Q 203 944 203 1634 
Q 203 2459 634 2926 
Q 1066 3394 1725 3394 
Q 2466 3394 2894 2905 
Q 3322 2416 3303 1406 
L 1103 1406 
Q 1113 1016 1316 798 
Q 1519 581 1822 581 
Q 2028 581 2168 693 
Q 2309 806 2381 1056 
z
M 2431 1944 
Q 2422 2325 2234 2523 
Q 2047 2722 1778 2722 
Q 1491 2722 1303 2513 
Q 1116 2303 1119 1944 
L 2431 1944 
z
" transform="scale(0.015625)"/>
      <path id="Arial-BoldMT-29" d="M 216 -1347 
Q 475 -791 581 -494 
Q 688 -197 778 190 
Q 869 578 912 926 
Q 956 1275 956 1641 
Q 956 2384 797 3048 
Q 638 3713 209 4659 
L 806 4659 
Q 1278 3988 1539 3234 
Q 1800 2481 1800 1706 
Q 1800 1053 1594 306 
Q 1359 -531 822 -1347 
L 216 -1347 
z
" transform="scale(0.015625)"/>
      <path id="Arial-BoldMT-bd84" d="M 800 0 
L 800 4000 
L 4000 4000 
L 4000 0 
L 800 0 
z
M 900 100 
L 3900 100 
L 3900 3900 
L 900 3900 
L 900 100 
z
" transform="scale(0.015625)"/>
      <path id="Arial-BoldMT-d3ec" d="M 800 0 
L 800 4000 
L 4000 4000 
L 4000 0 
L 800 0 
z
M 900 100 
L 3900 100 
L 3900 3900 
L 900 3900 
L 900 100 
z
" transform="scale(0.015625)"/>
      <path id="Arial-BoldMT-c774" d="M 800 0 
L 800 4000 
L 4000 4000 
L 4000 0 
L 800 0 
z
M 900 100 
L 3900 100 
L 3900 3900 
L 900 3900 
L 900 100 
z
" transform="scale(0.015625)"/>
      <path id="Arial-BoldMT-c0c1" d="M 800 0 
L 800 4000 
L 4000 4000 
L 4000 0 
L 800 0 
z
M 900 100 
L 3900 100 
L 3900 3900 
L 900 3900 
L 900 100 
z
" transform="scale(0.015625)"/>
      <path id="Arial-BoldMT-ce58" d="M 800 0 
L 800 4000 
L 4000 4000 
L 4000 0 
L 800 0 
z
M 900 100 
L 3900 100 
L 3900 3900 
L 900 3900 
L 900 100 
z
" transform="scale(0.015625)"/>
      <path id="Arial-BoldMT-d568" d="M 800 0 
L 800 4000 
L 4000 4000 
L 4000 0 
L 800 0 
z
M 900 100 
L 3900 100 
L 3900 3900 
L 900 3900 
L 900 100 
z
" transform="scale(0.015625)"/>
     </defs>
     <use xlink:href="#Arial-BoldMT-ac1d"/>
     <use xlink:href="#Arial-BoldMT-c2e4" transform="translate(75 0)"/>
     <use xlink:href="#Arial-BoldMT-20" transform="translate(150 0)"/>
     <use xlink:href="#Arial-BoldMT-d0c0" transform="translate(177.783203 0)"/>
     <use xlink:href="#Arial-BoldMT-c785" transform="translate(252.783203 0)"/>
     <use xlink:href="#Arial-BoldMT-bcc4" transform="translate(327.783203 0)"/>
     <use xlink:href="#Arial-BoldMT-20" transform="translate(402.783203 0)"/>
     <use xlink:href="#Arial-BoldMT-31" transform="translate(430.566406 0)"/>
     <use xlink:href="#Arial-BoldMT-bc15" transform="translate(486.181641 0)"/>
     <use xlink:href="#Arial-BoldMT-20" transform="translate(561.181641 0)"/>
     <use xlink:href="#Arial-BoldMT-b300" transform="translate(588.964844 0)"/>
     <use xlink:href="#Arial-BoldMT-c5ec" transform="translate(663.964844 0)"/>
     <use xlink:href="#Arial-BoldMT-20" transform="translate(738.964844 0)"/>
     <use xlink:href="#Arial-BoldMT-ac00" transform="translate(766.748047 0)"/>
     <use xlink:href="#Arial-BoldMT-aca9" transform="translate(841.748047 0)"/>
     <use xlink:href="#Arial-BoldMT-28" transform="translate(916.748047 0)"/>
     <use xlink:href="#Arial-BoldMT-50" transform="translate(950.048828 0)"/>
     <use xlink:href="#Arial-BoldMT-72" transform="translate(1016.748047 0)"/>
     <use xlink:href="#Arial-BoldMT-69" transform="translate(1055.664062 0)"/>
     <use xlink:href="#Arial-BoldMT-63" transform="translate(1083.447266 0)"/>
     <use xlink:href="#Arial-BoldMT-65" transform="translate(1139.0625 0)"/>
     <use xlink:href="#Arial-BoldMT-29" transform="translate(1194.677734 0)"/>
     <use xlink:href="#Arial-BoldMT-20" transform="translate(1227.978516 0)"/>
     <use xlink:href="#Arial-BoldMT-bd84" transform="translate(1255.761719 0)"/>
     <use xlink:href="#Arial-BoldMT-d3ec" transform="translate(1330.761719 0)"/>
     <use xlink:href="#Arial-BoldMT-20" transform="translate(1405.761719 0)"/>
     <use xlink:href="#Arial-BoldMT-28" transform="translate(1433.544922 0)"/>
     <use xlink:href="#Arial-BoldMT-c774" transform="translate(1466.845703 0)"/>
     <use xlink:href="#Arial-BoldMT-c0c1" transform="translate(1541.845703 0)"/>
     <use xlink:href="#Arial-BoldMT-ce58" transform="translate(1616.845703 0)"/>
     <use xlink:href="#Arial-BoldMT-20" transform="translate(1691.845703 0)"/>
     <use xlink:href="#Arial-BoldMT-d3ec" transform="translate(1719.628906 0)"/>
     <use xlink:href="#Arial-BoldMT-d568" transform="translate(1794.628906 0)"/>
     <use xlink:href="#Arial-BoldMT-29" transform="translate(1869.628906 0)"/>
    </g>
   </g>
  </g>
 </g>
 <defs>
  <clipPath id="paeb3f0af25">
   <rect x="50.957344" y="23.391562" width="558" height="332.64"/>
  </clipPath>
 </defs>
</svg>
