<?xml version="1.0" encoding="utf-8" standalone="no"?>
<!DOCTYPE svg PUBLIC "-//W3C//DTD SVG 1.1//EN"
  "http://www.w3.org/Graphics/SVG/1.1/DTD/svg11.dtd">
<svg xmlns:xlink="http://www.w3.org/1999/xlink" width="846.808125pt" height="401.075156pt" viewBox="0 0 846.808125 401.075156" xmlns="http://www.w3.org/2000/svg" version="1.1">
 <metadata>
  <rdf:RDF xmlns:dc="http://purl.org/dc/elements/1.1/" xmlns:cc="http://creativecommons.org/ns#" xmlns:rdf="http://www.w3.org/1999/02/22-rdf-syntax-ns#">
   <cc:Work>
    <dc:type rdf:resource="http://purl.org/dc/dcmitype/StillImage"/>
    <dc:date>2026-05-22T02:33:57.275741</dc:date>
    <dc:format>image/svg+xml</dc:format>
    <dc:creator>
     <cc:Agent>
      <dc:title>Matplotlib v3.10.9, https://matplotlib.org/</dc:title>
     </cc:Agent>
    </dc:creator>
   </cc:Work>
  </rdf:RDF>
 </metadata>
 <defs>
  <style type="text/css">*{stroke-linejoin: round; stroke-linecap: butt}</style>
 </defs>
 <g id="figure_1">
  <g id="patch_1">
   <path d="M 0 401.075156 
L 846.808125 401.075156 
L 846.808125 0 
L 0 0 
z
" style="fill: #ffffff"/>
  </g>
  <g id="axes_1">
   <g id="patch_2">
    <path d="M 58.408125 358.385 
L 839.608125 358.385 
L 839.608125 25.745 
L 58.408125 25.745 
z
" style="fill: #ffffff"/>
   </g>
   <g id="matplotlib.axis_1">
    <g id="xtick_1">
     <g id="line2d_1">
      <path d="M 93.917216 358.385 
L 93.917216 25.745 
" clip-path="url(#pd227e9863d)" style="fill: none; stroke-dasharray: 1,1.65; stroke-dashoffset: 0; stroke: #cccccc; stroke-opacity: 0.7"/>
     </g>
     <g id="line2d_2">
      <defs>
       <path id="m771086753a" d="M 0 0 
L 0 6 
" style="stroke: #262626; stroke-width: 1.25"/>
      </defs>
      <g>
       <use xlink:href="#m771086753a" x="93.917216" y="358.385" style="fill: #262626; stroke: #262626; stroke-width: 1.25"/>
      </g>
     </g>
     <g id="text_1">
      <!-- 1980 -->
      <g style="fill: #262626" transform="translate(78.957216 376.509687) scale(0.11 -0.11)">
       <defs>
        <path id="AppleGothic-31" d="M 2342 4774 
L 2752 4774 
L 2752 0 
L 2285 0 
L 2285 3526 
L 1158 3526 
L 1158 3885 
L 1414 3885 
Q 1990 3885 2214 4205 
Q 2342 4410 2342 4774 
z
" transform="scale(0.015625)"/>
        <path id="AppleGothic-39" d="M 928 211 
L 928 762 
Q 1050 672 1155 601 
Q 1261 531 1363 480 
Q 1702 320 2016 320 
Q 2291 320 2541 435 
Q 2739 525 2908 675 
Q 3078 826 3213 1037 
Q 3456 1408 3552 1843 
Q 3616 2144 3616 2573 
Q 3315 2272 3066 2125 
Q 2605 1850 2093 1850 
Q 1459 1850 1037 2214 
Q 589 2598 589 3270 
Q 589 3987 1082 4416 
Q 1549 4832 2234 4832 
Q 2970 4832 3494 4301 
Q 4122 3661 4122 2528 
Q 4122 1325 3475 582 
Q 2874 -109 2035 -109 
Q 1722 -109 1357 19 
Q 1254 51 1148 102 
Q 1043 154 928 211 
z
M 3578 3066 
Q 3462 3718 3053 4077 
Q 2675 4403 2227 4403 
Q 1715 4403 1402 4083 
Q 1082 3750 1082 3302 
Q 1082 2861 1370 2566 
Q 1658 2278 2125 2278 
Q 2573 2278 2915 2473 
Q 3258 2669 3578 3066 
z
" transform="scale(0.015625)"/>
        <path id="AppleGothic-38" d="M 2957 2605 
Q 3219 2528 3404 2445 
Q 3590 2362 3706 2272 
Q 4192 1926 4192 1370 
Q 4192 749 3642 333 
Q 3098 -83 2285 -83 
Q 1434 -83 947 326 
Q 512 691 512 1229 
Q 512 1798 998 2125 
Q 1146 2227 1341 2304 
Q 1536 2381 1779 2451 
Q 1574 2534 1430 2617 
Q 1286 2701 1197 2784 
Q 819 3104 819 3603 
Q 819 4173 1261 4512 
Q 1702 4858 2381 4858 
Q 3014 4858 3437 4570 
Q 3898 4262 3898 3738 
Q 3898 3373 3670 3081 
Q 3443 2790 2957 2605 
z
M 2406 2752 
Q 2624 2835 2781 2915 
Q 2938 2995 3040 3066 
Q 3398 3322 3398 3667 
Q 3398 3994 3104 4205 
Q 2822 4429 2362 4429 
Q 1894 4429 1613 4205 
Q 1325 3994 1325 3635 
Q 1325 3322 1581 3098 
Q 1696 3002 1901 2912 
Q 2106 2822 2406 2752 
z
M 2368 2304 
Q 2061 2202 1840 2106 
Q 1619 2010 1472 1920 
Q 1011 1626 1011 1235 
Q 1011 845 1376 595 
Q 1728 346 2310 346 
Q 2938 346 3315 640 
Q 3693 934 3693 1338 
Q 3693 1741 3238 1997 
Q 3104 2067 2886 2147 
Q 2669 2227 2368 2304 
z
" transform="scale(0.015625)"/>
        <path id="AppleGothic-30" d="M 2227 -83 
Q 1414 -83 934 576 
Q 461 1229 461 2387 
Q 461 3552 973 4218 
Q 1453 4858 2221 4858 
Q 3027 4858 3482 4173 
Q 3955 3494 3955 2394 
Q 3955 1248 3462 582 
Q 2976 -83 2227 -83 
z
M 2176 346 
Q 2861 346 3200 992 
Q 3462 1536 3462 2400 
Q 3462 3315 3162 3859 
Q 2822 4429 2214 4429 
Q 1574 4429 1248 3821 
Q 960 3283 960 2374 
Q 960 1478 1248 941 
Q 1574 346 2176 346 
z
" transform="scale(0.015625)"/>
       </defs>
       <use xlink:href="#AppleGothic-31"/>
       <use xlink:href="#AppleGothic-39" transform="translate(67.999985 0)"/>
       <use xlink:href="#AppleGothic-38" transform="translate(135.999969 0)"/>
       <use xlink:href="#AppleGothic-30" transform="translate(203.999954 0)"/>
      </g>
     </g>
    </g>
    <g id="xtick_2">
     <g id="line2d_3">
      <path d="M 184.966167 358.385 
L 184.966167 25.745 
" clip-path="url(#pd227e9863d)" style="fill: none; stroke-dasharray: 1,1.65; stroke-dashoffset: 0; stroke: #cccccc; stroke-opacity: 0.7"/>
     </g>
     <g id="line2d_4">
      <g>
       <use xlink:href="#m771086753a" x="184.966167" y="358.385" style="fill: #262626; stroke: #262626; stroke-width: 1.25"/>
      </g>
     </g>
     <g id="text_2">
      <!-- 1985 -->
      <g style="fill: #262626" transform="translate(170.006167 376.509687) scale(0.11 -0.11)">
       <defs>
        <path id="AppleGothic-35" d="M 621 4768 
L 3488 4768 
L 3488 4339 
L 1088 4339 
L 1088 2707 
Q 1184 2771 1293 2819 
Q 1402 2867 1510 2912 
Q 1862 3040 2259 3040 
Q 2989 3040 3424 2605 
Q 3827 2202 3827 1581 
Q 3827 870 3296 397 
Q 2765 -83 2010 -83 
Q 1651 -83 1248 45 
Q 1158 77 1001 137 
Q 845 198 621 301 
L 621 838 
Q 928 640 1203 525 
Q 1408 435 1613 390 
Q 1818 346 2010 346 
Q 2528 346 2906 666 
Q 3322 1011 3322 1536 
Q 3322 1990 3021 2291 
Q 2701 2611 2144 2611 
Q 1856 2611 1587 2528 
Q 1318 2445 1088 2272 
L 621 2272 
L 621 4768 
z
" transform="scale(0.015625)"/>
       </defs>
       <use xlink:href="#AppleGothic-31"/>
       <use xlink:href="#AppleGothic-39" transform="translate(67.999985 0)"/>
       <use xlink:href="#AppleGothic-38" transform="translate(135.999969 0)"/>
       <use xlink:href="#AppleGothic-35" transform="translate(203.999954 0)"/>
      </g>
     </g>
    </g>
    <g id="xtick_3">
     <g id="line2d_5">
      <path d="M 276.015118 358.385 
L 276.015118 25.745 
" clip-path="url(#pd227e9863d)" style="fill: none; stroke-dasharray: 1,1.65; stroke-dashoffset: 0; stroke: #cccccc; stroke-opacity: 0.7"/>
     </g>
     <g id="line2d_6">
      <g>
       <use xlink:href="#m771086753a" x="276.015118" y="358.385" style="fill: #262626; stroke: #262626; stroke-width: 1.25"/>
      </g>
     </g>
     <g id="text_3">
      <!-- 1990 -->
      <g style="fill: #262626" transform="translate(261.055118 376.509687) scale(0.11 -0.11)">
       <use xlink:href="#AppleGothic-31"/>
       <use xlink:href="#AppleGothic-39" transform="translate(67.999985 0)"/>
       <use xlink:href="#AppleGothic-39" transform="translate(135.999969 0)"/>
       <use xlink:href="#AppleGothic-30" transform="translate(203.999954 0)"/>
      </g>
     </g>
    </g>
    <g id="xtick_4">
     <g id="line2d_7">
      <path d="M 367.064069 358.385 
L 367.064069 25.745 
" clip-path="url(#pd227e9863d)" style="fill: none; stroke-dasharray: 1,1.65; stroke-dashoffset: 0; stroke: #cccccc; stroke-opacity: 0.7"/>
     </g>
     <g id="line2d_8">
      <g>
       <use xlink:href="#m771086753a" x="367.064069" y="358.385" style="fill: #262626; stroke: #262626; stroke-width: 1.25"/>
      </g>
     </g>
     <g id="text_4">
      <!-- 1995 -->
      <g style="fill: #262626" transform="translate(352.104069 376.509687) scale(0.11 -0.11)">
       <use xlink:href="#AppleGothic-31"/>
       <use xlink:href="#AppleGothic-39" transform="translate(67.999985 0)"/>
       <use xlink:href="#AppleGothic-39" transform="translate(135.999969 0)"/>
       <use xlink:href="#AppleGothic-35" transform="translate(203.999954 0)"/>
      </g>
     </g>
    </g>
    <g id="xtick_5">
     <g id="line2d_9">
      <path d="M 458.11302 358.385 
L 458.11302 25.745 
" clip-path="url(#pd227e9863d)" style="fill: none; stroke-dasharray: 1,1.65; stroke-dashoffset: 0; stroke: #cccccc; stroke-opacity: 0.7"/>
     </g>
     <g id="line2d_10">
      <g>
       <use xlink:href="#m771086753a" x="458.11302" y="358.385" style="fill: #262626; stroke: #262626; stroke-width: 1.25"/>
      </g>
     </g>
     <g id="text_5">
      <!-- 2000 -->
      <g style="fill: #262626" transform="translate(443.15302 376.509687) scale(0.11 -0.11)">
       <defs>
        <path id="AppleGothic-32" d="M 1101 429 
L 3942 429 
L 3942 0 
L 653 0 
L 653 205 
Q 653 1018 1344 1664 
Q 1670 1894 1990 2124 
Q 2310 2355 2637 2592 
Q 3334 3098 3334 3597 
Q 3334 3994 3014 4218 
Q 2867 4326 2694 4377 
Q 2522 4429 2317 4429 
Q 2016 4429 1741 4352 
Q 1325 4224 883 3910 
L 883 4435 
Q 1325 4659 1667 4758 
Q 2010 4858 2317 4858 
Q 2963 4858 3405 4525 
Q 3840 4198 3840 3622 
Q 3840 2995 3168 2438 
Q 2848 2214 2531 2000 
Q 2214 1786 1894 1562 
Q 1178 1024 1101 429 
z
" transform="scale(0.015625)"/>
       </defs>
       <use xlink:href="#AppleGothic-32"/>
       <use xlink:href="#AppleGothic-30" transform="translate(67.999985 0)"/>
       <use xlink:href="#AppleGothic-30" transform="translate(135.999969 0)"/>
       <use xlink:href="#AppleGothic-30" transform="translate(203.999954 0)"/>
      </g>
     </g>
    </g>
    <g id="xtick_6">
     <g id="line2d_11">
      <path d="M 549.161971 358.385 
L 549.161971 25.745 
" clip-path="url(#pd227e9863d)" style="fill: none; stroke-dasharray: 1,1.65; stroke-dashoffset: 0; stroke: #cccccc; stroke-opacity: 0.7"/>
     </g>
     <g id="line2d_12">
      <g>
       <use xlink:href="#m771086753a" x="549.161971" y="358.385" style="fill: #262626; stroke: #262626; stroke-width: 1.25"/>
      </g>
     </g>
     <g id="text_6">
      <!-- 2005 -->
      <g style="fill: #262626" transform="translate(534.201971 376.509687) scale(0.11 -0.11)">
       <use xlink:href="#AppleGothic-32"/>
       <use xlink:href="#AppleGothic-30" transform="translate(67.999985 0)"/>
       <use xlink:href="#AppleGothic-30" transform="translate(135.999969 0)"/>
       <use xlink:href="#AppleGothic-35" transform="translate(203.999954 0)"/>
      </g>
     </g>
    </g>
    <g id="xtick_7">
     <g id="line2d_13">
      <path d="M 640.210922 358.385 
L 640.210922 25.745 
" clip-path="url(#pd227e9863d)" style="fill: none; stroke-dasharray: 1,1.65; stroke-dashoffset: 0; stroke: #cccccc; stroke-opacity: 0.7"/>
     </g>
     <g id="line2d_14">
      <g>
       <use xlink:href="#m771086753a" x="640.210922" y="358.385" style="fill: #262626; stroke: #262626; stroke-width: 1.25"/>
      </g>
     </g>
     <g id="text_7">
      <!-- 2010 -->
      <g style="fill: #262626" transform="translate(625.250922 376.509687) scale(0.11 -0.11)">
       <use xlink:href="#AppleGothic-32"/>
       <use xlink:href="#AppleGothic-30" transform="translate(67.999985 0)"/>
       <use xlink:href="#AppleGothic-31" transform="translate(135.999969 0)"/>
       <use xlink:href="#AppleGothic-30" transform="translate(203.999954 0)"/>
      </g>
     </g>
    </g>
    <g id="xtick_8">
     <g id="line2d_15">
      <path d="M 731.259873 358.385 
L 731.259873 25.745 
" clip-path="url(#pd227e9863d)" style="fill: none; stroke-dasharray: 1,1.65; stroke-dashoffset: 0; stroke: #cccccc; stroke-opacity: 0.7"/>
     </g>
     <g id="line2d_16">
      <g>
       <use xlink:href="#m771086753a" x="731.259873" y="358.385" style="fill: #262626; stroke: #262626; stroke-width: 1.25"/>
      </g>
     </g>
     <g id="text_8">
      <!-- 2015 -->
      <g style="fill: #262626" transform="translate(716.299873 376.509687) scale(0.11 -0.11)">
       <use xlink:href="#AppleGothic-32"/>
       <use xlink:href="#AppleGothic-30" transform="translate(67.999985 0)"/>
       <use xlink:href="#AppleGothic-31" transform="translate(135.999969 0)"/>
       <use xlink:href="#AppleGothic-35" transform="translate(203.999954 0)"/>
      </g>
     </g>
    </g>
    <g id="xtick_9">
     <g id="line2d_17">
      <path d="M 822.308824 358.385 
L 822.308824 25.745 
" clip-path="url(#pd227e9863d)" style="fill: none; stroke-dasharray: 1,1.65; stroke-dashoffset: 0; stroke: #cccccc; stroke-opacity: 0.7"/>
     </g>
     <g id="line2d_18">
      <g>
       <use xlink:href="#m771086753a" x="822.308824" y="358.385" style="fill: #262626; stroke: #262626; stroke-width: 1.25"/>
      </g>
     </g>
     <g id="text_9">
      <!-- 2020 -->
      <g style="fill: #262626" transform="translate(807.348824 376.509687) scale(0.11 -0.11)">
       <use xlink:href="#AppleGothic-32"/>
       <use xlink:href="#AppleGothic-30" transform="translate(67.999985 0)"/>
       <use xlink:href="#AppleGothic-32" transform="translate(135.999969 0)"/>
       <use xlink:href="#AppleGothic-30" transform="translate(203.999954 0)"/>
      </g>
     </g>
    </g>
    <g id="text_10">
     <!-- 연도 (Year) -->
     <g style="fill: #262626" transform="translate(416.121562 391.810781) scale(0.12 -0.12)">
      <defs>
       <path id="AppleGothic-c5f0" d="M 3200 3149 
Q 3200 3571 2912 3872 
Q 2630 4173 2170 4173 
Q 1715 4173 1434 3930 
Q 1101 3661 1101 3149 
Q 1101 2816 1331 2547 
Q 1619 2214 2170 2214 
Q 2618 2214 2899 2477 
Q 3200 2746 3200 3149 
z
M 5485 -352 
L 3629 -339 
L 1530 -346 
Q 1536 -282 1536 -186 
Q 1536 -90 1542 38 
Q 1549 173 1549 297 
Q 1549 422 1549 538 
L 1549 1274 
Q 1600 1274 1673 1264 
Q 1747 1254 1843 1242 
Q 2035 1216 2035 1165 
Q 2035 1152 2012 1081 
Q 1990 1011 1990 941 
L 1990 45 
L 3622 38 
L 4845 38 
Q 5018 45 5178 48 
Q 5338 51 5485 58 
L 5485 -352 
z
M 5408 5075 
Q 5408 5050 5382 4970 
Q 5357 4890 5357 4838 
L 5382 896 
L 4922 864 
L 4928 2163 
L 4422 2176 
L 3834 2157 
L 3834 2528 
L 4410 2515 
Q 4659 2515 4755 2518 
Q 4851 2522 4928 2534 
L 4928 3565 
L 4403 3578 
L 3840 3558 
L 3840 3942 
Q 3891 3936 3961 3936 
Q 4032 3936 4134 3930 
Q 4230 3923 4300 3923 
Q 4371 3923 4416 3923 
Q 4646 3923 4745 3926 
Q 4845 3930 4934 3942 
L 4915 5190 
Q 5133 5190 5270 5174 
Q 5408 5158 5408 5075 
z
M 3616 3142 
Q 3616 2515 3136 2144 
Q 2720 1824 2176 1824 
Q 1530 1824 1101 2195 
Q 678 2566 678 3142 
Q 678 3680 1050 4083 
Q 1472 4531 2170 4531 
Q 2797 4531 3206 4154 
Q 3616 3782 3616 3142 
z
" transform="scale(0.015625)"/>
       <path id="AppleGothic-b3c4" d="M 6061 -38 
L 3181 -6 
L 2938 -6 
Q 2560 -6 2269 -6 
Q 1978 -6 1766 -13 
Q 1562 -19 1360 -19 
Q 1158 -19 954 -26 
Q 557 -32 352 -45 
L 352 416 
L 1549 397 
L 2963 403 
L 2982 1139 
L 2970 2035 
L 3066 2035 
Q 3238 2035 3369 2012 
Q 3501 1990 3501 1920 
Q 3501 1901 3478 1821 
Q 3456 1741 3456 1709 
Q 3424 1658 3424 1030 
Q 3424 800 3443 531 
Q 3443 506 3446 474 
Q 3450 442 3456 403 
L 4608 397 
Q 4960 397 5347 400 
Q 5734 403 6061 416 
L 6061 -38 
z
M 5299 2202 
L 3744 2208 
L 1146 2195 
L 1165 3379 
L 1152 4640 
Q 1293 4634 1408 4634 
Q 1523 4634 1619 4634 
Q 2266 4621 2701 4614 
Q 3136 4608 3360 4608 
L 5248 4621 
L 5248 4205 
L 3354 4218 
L 1632 4211 
L 1613 3424 
L 1626 2598 
Q 2029 2586 2512 2579 
Q 2995 2573 3443 2573 
Q 3648 2573 3875 2573 
Q 4102 2573 4358 2579 
Q 4858 2586 5299 2598 
L 5299 2202 
z
" transform="scale(0.015625)"/>
       <path id="AppleGothic-20" transform="scale(0.015625)"/>
       <path id="AppleGothic-28" d="M 2227 5261 
L 2650 5261 
Q 2342 4768 2169 4473 
Q 1997 4179 1958 4083 
Q 1606 3283 1606 2272 
Q 1606 1587 1754 1018 
Q 1882 570 2138 102 
Q 2150 70 2275 -131 
Q 2400 -333 2630 -717 
L 2227 -717 
Q 2099 -531 1980 -355 
Q 1862 -179 1734 0 
Q 1581 243 1469 483 
Q 1357 723 1274 954 
Q 1069 1587 1069 2272 
Q 1069 2963 1261 3558 
Q 1338 3789 1450 4022 
Q 1562 4256 1715 4499 
Q 1843 4691 1971 4880 
Q 2099 5069 2227 5261 
z
" transform="scale(0.015625)"/>
       <path id="AppleGothic-59" d="M 115 5018 
L 717 5018 
L 2253 2707 
L 3763 5018 
L 4390 5018 
L 2496 2266 
L 2496 0 
L 1997 0 
L 1997 2266 
L 115 5018 
z
" transform="scale(0.015625)"/>
       <path id="AppleGothic-65" d="M 3296 1850 
L 691 1850 
Q 691 1114 1033 726 
Q 1376 339 1933 339 
Q 2355 339 2746 608 
Q 2854 678 2976 784 
Q 3098 890 3238 1030 
L 3238 474 
Q 3085 358 2953 272 
Q 2822 186 2707 128 
Q 2304 -83 1901 -83 
Q 1203 -83 717 397 
Q 192 902 192 1709 
Q 192 2470 666 2982 
Q 1146 3501 1850 3501 
Q 2534 3501 2938 3002 
Q 3296 2547 3296 1850 
z
M 755 2240 
L 2758 2240 
Q 2682 2675 2429 2889 
Q 2176 3104 1818 3104 
Q 1421 3104 1146 2854 
Q 890 2624 755 2240 
z
" transform="scale(0.015625)"/>
       <path id="AppleGothic-61" d="M 2950 2214 
L 2950 602 
Q 2950 493 2998 413 
Q 3046 333 3174 333 
Q 3213 333 3238 336 
Q 3264 339 3290 346 
Q 3328 358 3357 371 
Q 3386 384 3405 390 
L 3405 32 
Q 3290 -6 3174 -22 
Q 3059 -38 2995 -38 
Q 2669 -38 2566 134 
Q 2483 243 2483 602 
Q 2400 461 2317 355 
Q 2234 250 2150 179 
Q 1818 -83 1376 -83 
Q 909 -83 563 192 
Q 205 486 205 941 
Q 205 1510 781 1779 
Q 992 1882 1341 1958 
Q 1690 2035 2176 2099 
L 2483 2131 
Q 2483 2579 2256 2832 
Q 2029 3085 1587 3085 
Q 1421 3085 1257 3043 
Q 1094 3002 928 2912 
Q 838 2861 729 2790 
Q 621 2720 493 2611 
L 493 3136 
Q 1037 3501 1664 3501 
Q 2304 3501 2650 3098 
Q 2950 2746 2950 2214 
z
M 2483 1542 
L 2483 1747 
L 2266 1722 
Q 1466 1638 1139 1498 
Q 704 1325 704 934 
Q 704 819 755 713 
Q 806 608 896 525 
Q 986 442 1117 390 
Q 1248 339 1408 339 
Q 1843 339 2170 691 
Q 2483 1050 2483 1542 
z
" transform="scale(0.015625)"/>
       <path id="AppleGothic-72" d="M 2125 3424 
L 2125 2963 
Q 2054 2989 2009 3005 
Q 1965 3021 1933 3027 
Q 1901 3034 1865 3037 
Q 1830 3040 1773 3040 
Q 1306 3040 1005 2586 
Q 749 2170 749 1658 
L 749 0 
L 288 0 
L 288 3424 
L 710 3424 
L 742 2835 
Q 902 3104 1043 3219 
Q 1331 3456 1734 3456 
Q 1843 3456 1936 3449 
Q 2029 3443 2125 3424 
z
" transform="scale(0.015625)"/>
       <path id="AppleGothic-29" d="M 2221 2272 
Q 2221 1587 2016 960 
Q 1862 499 1555 6 
Q 1427 -179 1305 -355 
Q 1184 -531 1062 -717 
L 659 -717 
Q 781 -512 902 -310 
Q 1024 -109 1152 96 
Q 1280 333 1376 557 
Q 1472 781 1530 1005 
Q 1683 1562 1683 2272 
Q 1683 2650 1641 2973 
Q 1600 3296 1517 3584 
Q 1459 3802 1356 4029 
Q 1254 4256 1120 4499 
Q 992 4691 873 4880 
Q 755 5069 640 5261 
L 1062 5261 
Q 1190 5069 1315 4880 
Q 1440 4691 1568 4506 
Q 1722 4256 1837 4022 
Q 1952 3789 2022 3565 
Q 2221 2976 2221 2272 
z
" transform="scale(0.015625)"/>
      </defs>
      <use xlink:href="#AppleGothic-c5f0"/>
      <use xlink:href="#AppleGothic-b3c4" transform="translate(99.999985 0)"/>
      <use xlink:href="#AppleGothic-20" transform="translate(199.999969 0)"/>
      <use xlink:href="#AppleGothic-28" transform="translate(231.999954 0)"/>
      <use xlink:href="#AppleGothic-59" transform="translate(281.999939 0)"/>
      <use xlink:href="#AppleGothic-65" transform="translate(351.499924 0)"/>
      <use xlink:href="#AppleGothic-61" transform="translate(406.399918 0)"/>
      <use xlink:href="#AppleGothic-72" transform="translate(462.899902 0)"/>
      <use xlink:href="#AppleGothic-29" transform="translate(498.099899 0)"/>
     </g>
    </g>
   </g>
   <g id="matplotlib.axis_2">
    <g id="ytick_1">
     <g id="line2d_19">
      <path d="M 58.408125 322.720884 
L 839.608125 322.720884 
" clip-path="url(#pd227e9863d)" style="fill: none; stroke-dasharray: 1,1.65; stroke-dashoffset: 0; stroke: #cccccc; stroke-opacity: 0.7"/>
     </g>
     <g id="line2d_20">
      <defs>
       <path id="m088a3632ab" d="M 0 0 
L -6 0 
" style="stroke: #262626; stroke-width: 1.25"/>
      </defs>
      <g>
       <use xlink:href="#m088a3632ab" x="58.408125" y="322.720884" style="fill: #262626; stroke: #262626; stroke-width: 1.25"/>
      </g>
     </g>
     <g id="text_11">
      <!-- 10.0 -->
      <g style="fill: #262626" transform="translate(22.673125 327.033227) scale(0.11 -0.11)">
       <defs>
        <path id="AppleGothic-2e" d="M 915 -19 
Q 762 -19 653 109 
Q 544 237 544 422 
Q 544 614 656 745 
Q 768 877 915 877 
Q 1056 877 1168 758 
Q 1280 640 1280 435 
Q 1280 243 1171 112 
Q 1062 -19 915 -19 
z
" transform="scale(0.015625)"/>
       </defs>
       <use xlink:href="#AppleGothic-31"/>
       <use xlink:href="#AppleGothic-30" transform="translate(67.999985 0)"/>
       <use xlink:href="#AppleGothic-2e" transform="translate(135.999969 0)"/>
       <use xlink:href="#AppleGothic-30" transform="translate(170.499954 0)"/>
      </g>
     </g>
    </g>
    <g id="ytick_2">
     <g id="line2d_21">
      <path d="M 58.408125 273.330457 
L 839.608125 273.330457 
" clip-path="url(#pd227e9863d)" style="fill: none; stroke-dasharray: 1,1.65; stroke-dashoffset: 0; stroke: #cccccc; stroke-opacity: 0.7"/>
     </g>
     <g id="line2d_22">
      <g>
       <use xlink:href="#m088a3632ab" x="58.408125" y="273.330457" style="fill: #262626; stroke: #262626; stroke-width: 1.25"/>
      </g>
     </g>
     <g id="text_12">
      <!-- 10.5 -->
      <g style="fill: #262626" transform="translate(22.673125 277.642801) scale(0.11 -0.11)">
       <use xlink:href="#AppleGothic-31"/>
       <use xlink:href="#AppleGothic-30" transform="translate(67.999985 0)"/>
       <use xlink:href="#AppleGothic-2e" transform="translate(135.999969 0)"/>
       <use xlink:href="#AppleGothic-35" transform="translate(170.499954 0)"/>
      </g>
     </g>
    </g>
    <g id="ytick_3">
     <g id="line2d_23">
      <path d="M 58.408125 223.940031 
L 839.608125 223.940031 
" clip-path="url(#pd227e9863d)" style="fill: none; stroke-dasharray: 1,1.65; stroke-dashoffset: 0; stroke: #cccccc; stroke-opacity: 0.7"/>
     </g>
     <g id="line2d_24">
      <g>
       <use xlink:href="#m088a3632ab" x="58.408125" y="223.940031" style="fill: #262626; stroke: #262626; stroke-width: 1.25"/>
      </g>
     </g>
     <g id="text_13">
      <!-- 11.0 -->
      <g style="fill: #262626" transform="translate(22.673125 228.252375) scale(0.11 -0.11)">
       <use xlink:href="#AppleGothic-31"/>
       <use xlink:href="#AppleGothic-31" transform="translate(67.999985 0)"/>
       <use xlink:href="#AppleGothic-2e" transform="translate(135.999969 0)"/>
       <use xlink:href="#AppleGothic-30" transform="translate(170.499954 0)"/>
      </g>
     </g>
    </g>
    <g id="ytick_4">
     <g id="line2d_25">
      <path d="M 58.408125 174.549605 
L 839.608125 174.549605 
" clip-path="url(#pd227e9863d)" style="fill: none; stroke-dasharray: 1,1.65; stroke-dashoffset: 0; stroke: #cccccc; stroke-opacity: 0.7"/>
     </g>
     <g id="line2d_26">
      <g>
       <use xlink:href="#m088a3632ab" x="58.408125" y="174.549605" style="fill: #262626; stroke: #262626; stroke-width: 1.25"/>
      </g>
     </g>
     <g id="text_14">
      <!-- 11.5 -->
      <g style="fill: #262626" transform="translate(22.673125 178.861949) scale(0.11 -0.11)">
       <use xlink:href="#AppleGothic-31"/>
       <use xlink:href="#AppleGothic-31" transform="translate(67.999985 0)"/>
       <use xlink:href="#AppleGothic-2e" transform="translate(135.999969 0)"/>
       <use xlink:href="#AppleGothic-35" transform="translate(170.499954 0)"/>
      </g>
     </g>
    </g>
    <g id="ytick_5">
     <g id="line2d_27">
      <path d="M 58.408125 125.159179 
L 839.608125 125.159179 
" clip-path="url(#pd227e9863d)" style="fill: none; stroke-dasharray: 1,1.65; stroke-dashoffset: 0; stroke: #cccccc; stroke-opacity: 0.7"/>
     </g>
     <g id="line2d_28">
      <g>
       <use xlink:href="#m088a3632ab" x="58.408125" y="125.159179" style="fill: #262626; stroke: #262626; stroke-width: 1.25"/>
      </g>
     </g>
     <g id="text_15">
      <!-- 12.0 -->
      <g style="fill: #262626" transform="translate(22.673125 129.471523) scale(0.11 -0.11)">
       <use xlink:href="#AppleGothic-31"/>
       <use xlink:href="#AppleGothic-32" transform="translate(67.999985 0)"/>
       <use xlink:href="#AppleGothic-2e" transform="translate(135.999969 0)"/>
       <use xlink:href="#AppleGothic-30" transform="translate(170.499954 0)"/>
      </g>
     </g>
    </g>
    <g id="ytick_6">
     <g id="line2d_29">
      <path d="M 58.408125 75.768753 
L 839.608125 75.768753 
" clip-path="url(#pd227e9863d)" style="fill: none; stroke-dasharray: 1,1.65; stroke-dashoffset: 0; stroke: #cccccc; stroke-opacity: 0.7"/>
     </g>
     <g id="line2d_30">
      <g>
       <use xlink:href="#m088a3632ab" x="58.408125" y="75.768753" style="fill: #262626; stroke: #262626; stroke-width: 1.25"/>
      </g>
     </g>
     <g id="text_16">
      <!-- 12.5 -->
      <g style="fill: #262626" transform="translate(22.673125 80.081097) scale(0.11 -0.11)">
       <use xlink:href="#AppleGothic-31"/>
       <use xlink:href="#AppleGothic-32" transform="translate(67.999985 0)"/>
       <use xlink:href="#AppleGothic-2e" transform="translate(135.999969 0)"/>
       <use xlink:href="#AppleGothic-35" transform="translate(170.499954 0)"/>
      </g>
     </g>
    </g>
    <g id="ytick_7">
     <g id="line2d_31">
      <path d="M 58.408125 26.378327 
L 839.608125 26.378327 
" clip-path="url(#pd227e9863d)" style="fill: none; stroke-dasharray: 1,1.65; stroke-dashoffset: 0; stroke: #cccccc; stroke-opacity: 0.7"/>
     </g>
     <g id="line2d_32">
      <g>
       <use xlink:href="#m088a3632ab" x="58.408125" y="26.378327" style="fill: #262626; stroke: #262626; stroke-width: 1.25"/>
      </g>
     </g>
     <g id="text_17">
      <!-- 13.0 -->
      <g style="fill: #262626" transform="translate(22.673125 30.69067) scale(0.11 -0.11)">
       <defs>
        <path id="AppleGothic-33" d="M 550 333 
L 550 870 
Q 883 621 1235 483 
Q 1587 346 1971 346 
Q 2522 346 2861 666 
Q 3219 992 3219 1421 
Q 3219 1869 2842 2099 
Q 2515 2304 1965 2304 
L 992 2304 
L 992 2701 
L 1658 2701 
Q 2298 2701 2662 2928 
Q 3027 3155 3027 3584 
Q 3027 3936 2752 4173 
Q 2458 4429 1978 4429 
Q 1786 4429 1597 4393 
Q 1408 4358 1222 4282 
Q 890 4141 531 3872 
L 531 4422 
Q 736 4531 912 4608 
Q 1088 4685 1254 4736 
Q 1626 4858 2022 4858 
Q 2650 4858 3066 4531 
Q 3488 4211 3488 3642 
Q 3488 3168 3168 2861 
Q 2976 2675 2643 2554 
Q 2874 2522 3053 2448 
Q 3232 2374 3366 2266 
Q 3718 1971 3718 1434 
Q 3718 813 3219 365 
Q 2714 -83 1965 -83 
Q 1549 -83 1126 70 
Q 1024 102 880 166 
Q 736 230 550 333 
z
" transform="scale(0.015625)"/>
       </defs>
       <use xlink:href="#AppleGothic-31"/>
       <use xlink:href="#AppleGothic-33" transform="translate(67.999985 0)"/>
       <use xlink:href="#AppleGothic-2e" transform="translate(135.999969 0)"/>
       <use xlink:href="#AppleGothic-30" transform="translate(170.499954 0)"/>
      </g>
     </g>
    </g>
    <g id="text_18">
     <!-- 해빙 면적 평균 (Extent) -->
     <g style="fill: #262626" transform="translate(16.60875 257.316875) rotate(-90) scale(0.12 -0.12)">
      <defs>
       <path id="AppleGothic-d574" d="M 2861 1702 
Q 2861 2048 2694 2266 
Q 2490 2528 2131 2528 
Q 1773 2528 1562 2246 
Q 1389 2003 1389 1715 
Q 1389 1389 1587 1139 
Q 1786 902 2131 902 
Q 2509 902 2701 1171 
Q 2861 1389 2861 1702 
z
M 3309 1683 
Q 3309 1178 2938 826 
Q 2592 512 2163 512 
Q 1658 512 1306 851 
Q 960 1184 960 1734 
Q 960 2285 1344 2605 
Q 1664 2880 2125 2880 
Q 2611 2880 2944 2566 
Q 3309 2227 3309 1683 
z
M 5709 5024 
Q 5709 4986 5686 4890 
Q 5664 4794 5664 4742 
L 5664 1824 
Q 5664 1203 5670 598 
Q 5677 -6 5690 -493 
L 5210 -493 
L 5229 1280 
L 5216 2048 
L 4435 2048 
L 4435 1293 
L 4461 -134 
L 3981 -134 
L 3981 531 
Q 3987 749 3987 1024 
Q 3987 1299 3994 1645 
Q 4000 1990 4000 2342 
Q 4000 2694 4006 3078 
L 3987 5024 
Q 4211 5024 4348 4985 
Q 4486 4947 4486 4890 
Q 4486 4851 4460 4764 
Q 4435 4678 4435 4627 
L 4435 2445 
L 5229 2445 
L 5210 4749 
Q 5210 4858 5200 4973 
Q 5190 5088 5178 5184 
Q 5350 5184 5523 5146 
Q 5709 5114 5709 5024 
z
M 3597 3258 
L 2061 3277 
L 608 3264 
L 608 3635 
Q 928 3622 1309 3616 
Q 1690 3610 2042 3610 
Q 2419 3610 2835 3616 
Q 3251 3622 3597 3635 
L 3597 3258 
z
M 2861 4154 
L 2170 4166 
L 1434 4154 
L 1434 4538 
Q 1587 4525 1779 4518 
Q 1971 4512 2144 4512 
L 2861 4531 
L 2861 4154 
z
" transform="scale(0.015625)"/>
       <path id="AppleGothic-be59" d="M 4909 410 
Q 4909 813 4416 941 
Q 4090 1030 3373 1030 
Q 2573 1030 2176 902 
Q 1779 774 1779 416 
Q 1779 122 2172 -6 
Q 2566 -134 3379 -134 
Q 4102 -134 4505 3 
Q 4909 141 4909 410 
z
M 2982 2432 
L 2982 3514 
L 2074 3526 
Q 1850 3526 1606 3520 
Q 1363 3514 1152 3501 
L 1152 2432 
Q 1267 2419 1433 2412 
Q 1600 2406 1850 2406 
L 2982 2432 
z
M 5402 410 
Q 5402 -70 4800 -301 
Q 4282 -493 3373 -493 
Q 2445 -493 1901 -288 
Q 1306 -58 1306 410 
Q 1306 941 1939 1203 
Q 2464 1408 3366 1408 
Q 4186 1408 4678 1235 
Q 5402 998 5402 410 
z
M 3482 4685 
Q 3482 4672 3478 4662 
Q 3475 4653 3469 4627 
Q 3437 4512 3437 4442 
L 3450 2042 
L 2054 2054 
L 717 2042 
Q 723 2182 723 2342 
Q 723 2502 723 2688 
Q 730 2874 730 3034 
Q 730 3194 730 3322 
Q 730 3686 730 3932 
Q 730 4179 723 4320 
Q 717 4454 713 4563 
Q 710 4672 698 4755 
L 870 4755 
Q 1056 4755 1133 4742 
Q 1210 4730 1210 4685 
Q 1210 4666 1181 4589 
Q 1152 4512 1152 4454 
L 1152 3866 
L 2061 3853 
L 2989 3866 
Q 2989 3968 2989 4051 
Q 2989 4134 2982 4198 
Q 2970 4461 2963 4601 
Q 2957 4742 2957 4768 
L 3110 4768 
Q 3270 4768 3376 4752 
Q 3482 4736 3482 4685 
z
M 5440 5075 
Q 5440 5056 5414 4976 
Q 5389 4896 5389 4838 
Q 5389 4742 5385 4614 
Q 5382 4486 5379 4352 
Q 5376 4218 5376 4080 
Q 5376 3942 5376 3827 
L 5376 3418 
L 5376 2291 
Q 5382 2106 5385 1949 
Q 5389 1792 5402 1651 
L 4922 1626 
Q 4928 1754 4928 1936 
Q 4928 2118 4928 2362 
Q 4934 2611 4934 2854 
Q 4934 3098 4934 3341 
Q 4934 3942 4934 4393 
Q 4934 4845 4922 5190 
L 4986 5190 
Q 5178 5190 5309 5171 
Q 5440 5152 5440 5075 
z
" transform="scale(0.015625)"/>
       <path id="AppleGothic-ba74" d="M 3008 3091 
L 2995 4064 
L 2176 4077 
L 1344 4058 
L 1325 3130 
L 1344 2266 
L 2995 2291 
L 3008 3091 
z
M 5587 -435 
L 1453 -454 
L 1459 198 
L 1434 1216 
Q 1677 1216 1827 1200 
Q 1978 1184 1978 1139 
Q 1978 1120 1949 1037 
Q 1920 954 1920 883 
L 1920 -64 
L 3558 -70 
Q 3955 -70 4364 -60 
Q 4774 -51 5203 -38 
Q 5363 -38 5587 -19 
L 5587 -435 
z
M 5459 5094 
Q 5459 5069 5427 4995 
Q 5395 4922 5395 4870 
L 5408 666 
L 4934 653 
L 4947 1491 
L 4947 2189 
L 3757 2170 
L 3757 2573 
L 4378 2560 
L 4947 2579 
L 4947 3456 
L 3718 3450 
L 3718 3866 
L 4378 3853 
L 4947 3866 
Q 4947 3974 4944 4137 
Q 4941 4301 4934 4525 
Q 4915 4966 4915 5190 
L 5030 5190 
Q 5216 5190 5337 5171 
Q 5459 5152 5459 5094 
z
M 3456 1926 
L 890 1901 
L 902 3104 
L 877 4442 
L 2061 4429 
Q 2406 4429 2774 4435 
Q 3142 4442 3456 4454 
L 3443 3123 
L 3456 1926 
z
" transform="scale(0.015625)"/>
       <path id="AppleGothic-c801" d="M 5402 -506 
L 4947 -538 
L 4954 1203 
L 3283 1216 
Q 2803 1216 2281 1213 
Q 1760 1210 1325 1197 
L 1325 1594 
Q 1414 1587 1491 1587 
Q 1568 1587 1632 1587 
Q 2074 1574 2397 1568 
Q 2720 1562 2944 1562 
L 5402 1587 
Q 5395 1440 5392 1213 
Q 5389 986 5389 595 
L 5402 -506 
z
M 3936 2400 
Q 3936 2381 3869 2339 
Q 3802 2298 3763 2259 
L 3603 2106 
Q 3546 2138 3491 2173 
Q 3437 2208 3392 2240 
Q 3117 2438 2810 2771 
Q 2598 2995 2451 3296 
Q 2426 3347 2397 3411 
Q 2368 3475 2336 3558 
Q 2298 3469 2266 3392 
Q 2234 3315 2202 3258 
Q 2010 2912 1702 2586 
Q 1568 2451 1417 2323 
Q 1267 2195 1101 2074 
Q 1043 2029 969 1984 
Q 896 1939 794 1882 
Q 787 1907 582 2029 
Q 390 2150 390 2176 
Q 1056 2458 1574 3072 
Q 2125 3744 2125 4442 
Q 2054 4448 1875 4454 
Q 1696 4461 1485 4461 
L 762 4442 
L 762 4851 
Q 947 4832 1286 4819 
Q 1626 4806 2118 4806 
L 2291 4806 
Q 2618 4806 2858 4809 
Q 3098 4813 3264 4819 
Q 3430 4826 3561 4832 
Q 3693 4838 3802 4845 
L 3802 4442 
L 3219 4454 
L 2566 4435 
Q 2566 4115 2630 3878 
Q 2682 3680 2768 3510 
Q 2854 3341 2982 3194 
Q 3296 2810 3648 2573 
Q 3763 2502 3923 2426 
L 3936 2400 
z
M 5434 5082 
Q 5434 5062 5414 4976 
Q 5395 4890 5395 4826 
Q 5389 4736 5389 4598 
Q 5389 4461 5382 4269 
Q 5376 4077 5376 3881 
Q 5376 3686 5376 3494 
L 5376 2477 
Q 5382 2310 5382 2176 
Q 5382 2042 5389 1939 
L 4947 1914 
L 4947 3283 
L 4346 3302 
L 3706 3283 
L 3706 3667 
L 4947 3667 
L 4947 4762 
L 4915 5190 
L 5101 5190 
Q 5267 5190 5350 5171 
Q 5434 5152 5434 5082 
z
" transform="scale(0.015625)"/>
       <path id="AppleGothic-d3c9" d="M 4915 467 
Q 4915 832 4403 986 
Q 3987 1114 3264 1114 
Q 2477 1114 2093 979 
Q 1651 826 1651 467 
Q 1651 134 2189 -26 
Q 2611 -147 3315 -147 
Q 3738 -147 4051 -102 
Q 4365 -58 4570 38 
Q 4915 192 4915 467 
z
M 5402 467 
Q 5402 -45 4832 -294 
Q 4307 -518 3302 -518 
Q 2362 -518 1824 -307 
Q 1197 -45 1197 474 
Q 1197 1050 1862 1280 
Q 2355 1459 3270 1459 
Q 4269 1459 4806 1235 
Q 5402 986 5402 467 
z
M 4019 2061 
Q 3898 2042 3712 2022 
Q 3526 2003 3289 1990 
Q 3053 1978 2777 1968 
Q 2502 1958 2202 1958 
L 877 1914 
Q 826 1901 771 1888 
Q 717 1875 666 1862 
Q 589 1862 538 2022 
Q 486 2208 486 2304 
L 902 2285 
Q 1075 2285 1206 2291 
Q 1338 2298 1440 2310 
L 1344 3085 
L 1222 3910 
L 1626 3917 
Q 1734 3917 1734 3846 
Q 1734 3821 1721 3750 
Q 1709 3680 1709 3648 
L 1862 2323 
L 2611 2349 
Q 2656 2618 2688 2816 
Q 2720 3014 2739 3142 
Q 2778 3411 2794 3606 
Q 2810 3802 2810 3936 
Q 3034 3936 3184 3904 
Q 3334 3872 3334 3821 
Q 3334 3782 3292 3708 
Q 3251 3635 3245 3603 
L 3053 2368 
Q 3194 2368 3386 2387 
Q 3610 2413 3750 2422 
Q 3891 2432 3949 2432 
L 4019 2061 
z
M 5446 5094 
Q 5446 5069 5420 4982 
Q 5395 4896 5395 4838 
L 5382 3398 
L 5395 1510 
L 4890 1510 
Q 4890 1632 4893 1734 
Q 4896 1837 4902 1933 
Q 4928 2266 4934 2442 
Q 4941 2618 4941 2650 
L 4339 2662 
L 3821 2650 
L 3821 3027 
L 4397 3014 
L 4941 3027 
L 4941 3674 
L 3827 3674 
L 3827 4058 
Q 3942 4045 4092 4038 
Q 4243 4032 4384 4032 
L 4941 4051 
L 4941 4826 
L 4915 5190 
L 5299 5171 
Q 5446 5171 5446 5094 
z
M 3891 4416 
L 2266 4422 
Q 1862 4422 1606 4422 
Q 1350 4422 1222 4416 
Q 1075 4403 924 4400 
Q 774 4397 627 4390 
L 627 4787 
Q 640 4787 800 4787 
Q 960 4787 1286 4781 
Q 1613 4774 1843 4774 
Q 2074 4774 2221 4774 
Q 3814 4813 3891 4813 
L 3891 4416 
z
" transform="scale(0.015625)"/>
       <path id="AppleGothic-ade0" d="M 5325 -403 
L 3226 -403 
Q 2893 -403 2611 -403 
Q 2330 -403 2080 -406 
Q 1830 -410 1606 -416 
Q 1382 -422 1171 -429 
Q 1178 -262 1181 -54 
Q 1184 154 1184 282 
L 1165 1024 
Q 1370 1024 1507 1005 
Q 1645 986 1645 947 
Q 1645 941 1619 861 
Q 1594 781 1594 704 
L 1587 -70 
L 5325 -38 
L 5325 -403 
z
M 6010 2662 
L 5280 2682 
L 4314 2669 
L 4314 1184 
L 4333 749 
L 3910 698 
L 3910 2675 
L 3270 2694 
Q 3053 2694 2784 2675 
Q 2758 2675 2726 2672 
Q 2694 2669 2650 2662 
Q 2650 2605 2643 2397 
Q 2637 2189 2637 1958 
L 2637 1005 
L 2208 973 
L 2234 2054 
Q 2234 2285 2230 2425 
Q 2227 2566 2221 2656 
L 1709 2656 
L 1555 2656 
L 1408 2656 
Q 1376 2662 1353 2665 
Q 1331 2669 1318 2669 
L 390 2650 
L 390 3040 
Q 634 3034 912 3027 
Q 1190 3021 1478 3017 
Q 1766 3014 2057 3014 
Q 2349 3014 2618 3014 
L 4397 3034 
Q 4416 3059 4467 3235 
Q 4518 3411 4589 3744 
Q 4659 4077 4694 4275 
Q 4730 4474 4730 4544 
Q 4582 4538 4368 4538 
Q 4154 4538 3872 4531 
Q 3597 4525 3401 4525 
Q 3206 4525 3085 4525 
L 1114 4512 
L 1114 4883 
L 5229 4902 
Q 5158 4378 5068 3923 
Q 4979 3469 4832 3046 
L 5408 3027 
Q 5574 3027 5737 3036 
Q 5901 3046 6010 3053 
L 6010 2662 
z
" transform="scale(0.015625)"/>
       <path id="AppleGothic-45" d="M 282 5024 
L 3405 5024 
L 3405 4582 
L 787 4582 
L 787 2848 
L 3309 2848 
L 3309 2406 
L 787 2406 
L 787 442 
L 3424 442 
L 3424 0 
L 282 0 
L 282 5024 
z
" transform="scale(0.015625)"/>
       <path id="AppleGothic-78" d="M 352 3424 
L 928 3424 
L 1754 2150 
L 2592 3424 
L 3130 3424 
L 2022 1830 
L 3270 0 
L 2682 0 
L 1722 1504 
L 755 0 
L 211 0 
L 1466 1830 
L 352 3424 
z
" transform="scale(0.015625)"/>
       <path id="AppleGothic-74" d="M 691 4435 
L 1114 4435 
L 1114 3430 
L 2016 3430 
L 2016 3014 
L 1114 3014 
L 1114 838 
Q 1114 570 1213 454 
Q 1312 339 1555 339 
Q 1696 339 1795 371 
Q 1894 403 2016 454 
L 2016 38 
Q 1914 6 1770 -22 
Q 1626 -51 1478 -51 
Q 1094 -51 883 122 
Q 646 301 646 698 
L 646 3014 
L 70 3014 
L 70 3430 
L 646 3430 
L 691 4435 
z
" transform="scale(0.015625)"/>
       <path id="AppleGothic-6e" d="M 3264 2291 
L 3264 0 
L 2803 0 
L 2803 2259 
Q 2803 2618 2541 2848 
Q 2278 3085 1914 3085 
Q 1427 3085 1075 2682 
Q 723 2272 723 1760 
L 723 0 
L 288 0 
L 288 3424 
L 691 3424 
L 710 2784 
Q 883 3046 1114 3219 
Q 1491 3501 1965 3501 
Q 2515 3501 2886 3168 
Q 3264 2842 3264 2291 
z
" transform="scale(0.015625)"/>
      </defs>
      <use xlink:href="#AppleGothic-d574"/>
      <use xlink:href="#AppleGothic-be59" transform="translate(99.999985 0)"/>
      <use xlink:href="#AppleGothic-20" transform="translate(199.999969 0)"/>
      <use xlink:href="#AppleGothic-ba74" transform="translate(231.999954 0)"/>
      <use xlink:href="#AppleGothic-c801" transform="translate(331.999939 0)"/>
      <use xlink:href="#AppleGothic-20" transform="translate(431.999924 0)"/>
      <use xlink:href="#AppleGothic-d3c9" transform="translate(463.999908 0)"/>
      <use xlink:href="#AppleGothic-ade0" transform="translate(563.999893 0)"/>
      <use xlink:href="#AppleGothic-20" transform="translate(663.999878 0)"/>
      <use xlink:href="#AppleGothic-28" transform="translate(695.999863 0)"/>
      <use xlink:href="#AppleGothic-45" transform="translate(745.999847 0)"/>
      <use xlink:href="#AppleGothic-78" transform="translate(803.899841 0)"/>
      <use xlink:href="#AppleGothic-74" transform="translate(858.299835 0)"/>
      <use xlink:href="#AppleGothic-65" transform="translate(892.499832 0)"/>
      <use xlink:href="#AppleGothic-6e" transform="translate(947.399826 0)"/>
      <use xlink:href="#AppleGothic-74" transform="translate(1003.29982 0)"/>
      <use xlink:href="#AppleGothic-29" transform="translate(1037.499817 0)"/>
     </g>
    </g>
   </g>
   <g id="FillBetweenPolyCollection_1">
    <defs>
     <path id="m29a214add8" d="M 93.917216 -349.791289 
L 93.917216 -265.903067 
L 112.127006 -249.647531 
L 130.336796 -275.918365 
L 148.546587 -268.167024 
L 166.756377 -226.009165 
L 184.966167 -227.061776 
L 203.175957 -257.941344 
L 221.385747 -174.920166 
L 239.595538 -256.008085 
L 257.805328 -242.202898 
L 276.015118 -214.012277 
L 294.224908 -218.795023 
L 312.434698 -259.240467 
L 330.644489 -235.996443 
L 348.854279 -245.494641 
L 367.064069 -182.226513 
L 385.273859 -235.888262 
L 403.483649 -210.886296 
L 421.69344 -220.303711 
L 439.90323 -216.781077 
L 458.11302 -197.799533 
L 476.32281 -206.248075 
L 494.532601 -182.710235 
L 512.742391 -184.977709 
L 530.952181 -168.884191 
L 549.161971 -136.305866 
L 567.371761 -125.31655 
L 585.581552 -88.310002 
L 603.791342 -140.500768 
L 622.001132 -135.086322 
L 640.210922 -111.175618 
L 658.420712 -88.881856 
L 676.630503 -77.422184 
L 694.840293 -134.044779 
L 713.050083 -123.322882 
L 731.259873 -102.485231 
L 749.469663 -57.810156 
L 767.679454 -85.677134 
L 785.889244 -80.079453 
L 804.099034 -60.143826 
L 804.099034 -133.304958 
L 804.099034 -133.304958 
L 785.889244 -149.725123 
L 767.679454 -148.9706 
L 749.469663 -129.144992 
L 731.259873 -168.897844 
L 713.050083 -191.850454 
L 694.840293 -201.613196 
L 676.630503 -158.759586 
L 658.420712 -162.11281 
L 640.210922 -184.649966 
L 622.001132 -206.851761 
L 603.791342 -208.760915 
L 585.581552 -161.160725 
L 567.371761 -185.930707 
L 549.161971 -200.5944 
L 530.952181 -231.147186 
L 512.742391 -246.551217 
L 494.532601 -246.797398 
L 476.32281 -270.256978 
L 458.11302 -255.450406 
L 439.90323 -276.129615 
L 421.69344 -284.445095 
L 403.483649 -273.58615 
L 385.273859 -286.2456 
L 367.064069 -251.392352 
L 348.854279 -306.662817 
L 330.644489 -298.07964 
L 312.434698 -314.949366 
L 294.224908 -281.392192 
L 276.015118 -278.815797 
L 257.805328 -302.935971 
L 239.595538 -313.715028 
L 221.385747 -258.832491 
L 203.175957 -337.292704 
L 184.966167 -323.768367 
L 166.756377 -309.434237 
L 148.546587 -351.163627 
L 130.336796 -360.210156 
L 112.127006 -329.531323 
L 93.917216 -349.791289 
z
" style="stroke: #dc143c; stroke-opacity: 0.2"/>
    </defs>
    <g clip-path="url(#pd227e9863d)">
     <use xlink:href="#m29a214add8" x="0" y="401.075156" style="fill: #dc143c; fill-opacity: 0.2; stroke: #dc143c; stroke-opacity: 0.2"/>
    </g>
   </g>
   <g id="line2d_33">
    <path d="M 93.917216 92.1518 
L 112.127006 111.775723 
L 130.336796 81.750422 
L 148.546587 91.979069 
L 166.756377 133.792518 
L 184.966167 126.482951 
L 203.175957 104.59063 
L 221.385747 184.701583 
L 239.595538 115.955817 
L 257.805328 128.433291 
L 276.015118 155.401816 
L 294.224908 149.927733 
L 312.434698 114.245784 
L 330.644489 132.760163 
L 348.854279 124.041196 
L 367.064069 182.935152 
L 385.273859 140.886386 
L 403.483649 157.992581 
L 421.69344 149.125308 
L 439.90323 155.636455 
L 458.11302 173.742085 
L 476.32281 164.669896 
L 494.532601 188.095843 
L 512.742391 184.702112 
L 530.952181 200.189714 
L 549.161971 233.129086 
L 567.371761 246.401444 
L 585.581552 275.889287 
L 603.791342 226.128324 
L 622.001132 230.660106 
L 640.210922 252.448997 
L 658.420712 274.960747 
L 676.630503 282.606141 
L 694.840293 234.103092 
L 713.050083 244.635026 
L 731.259873 266.829054 
L 749.469663 306.572373 
L 767.679454 283.929508 
L 785.889244 287.649622 
L 804.099034 302.867556 
" clip-path="url(#pd227e9863d)" style="fill: none; stroke: #dc143c; stroke-width: 2.5; stroke-linecap: round"/>
   </g>
   <g id="patch_3">
    <path d="M 58.408125 358.385 
L 58.408125 25.745 
" style="fill: none; stroke: #262626; stroke-width: 1.25; stroke-linejoin: miter; stroke-linecap: square"/>
   </g>
   <g id="patch_4">
    <path d="M 839.608125 358.385 
L 839.608125 25.745 
" style="fill: none; stroke: #262626; stroke-width: 1.25; stroke-linejoin: miter; stroke-linecap: square"/>
   </g>
   <g id="patch_5">
    <path d="M 58.408125 358.385 
L 839.608125 358.385 
" style="fill: none; stroke: #262626; stroke-width: 1.25; stroke-linejoin: miter; stroke-linecap: square"/>
   </g>
   <g id="patch_6">
    <path d="M 58.408125 25.745 
L 839.608125 25.745 
" style="fill: none; stroke: #262626; stroke-width: 1.25; stroke-linejoin: miter; stroke-linecap: square"/>
   </g>
   <g id="text_19">
    <!-- 40년간 북극 해빙 면적 장기 추세 (지구 온난화 증명) -->
    <g style="fill: #262626" transform="translate(257.648125 19.745) scale(0.16 -0.16)">
     <defs>
      <path id="AppleGothic-34" d="M 2662 4774 
L 3130 4774 
L 3130 1811 
L 4000 1811 
L 4000 1382 
L 3130 1382 
L 3130 0 
L 2662 0 
L 2662 1382 
L 352 1382 
L 352 1811 
L 2662 4774 
z
M 2662 1811 
L 2662 4166 
L 838 1811 
L 2662 1811 
z
" transform="scale(0.015625)"/>
      <path id="AppleGothic-b144" d="M 5498 -454 
Q 5370 -448 5264 -448 
Q 5158 -448 5069 -448 
Q 4467 -435 4070 -428 
Q 3674 -422 3469 -422 
L 1414 -442 
Q 1421 -333 1421 -201 
Q 1421 -70 1421 77 
Q 1427 224 1427 342 
Q 1427 461 1427 557 
L 1414 1107 
Q 1600 1107 1744 1094 
Q 1888 1082 1888 1024 
Q 1869 960 1853 896 
Q 1837 832 1837 774 
L 1837 -70 
L 3450 -90 
Q 4032 -90 4557 -83 
Q 5082 -77 5498 -64 
L 5498 -454 
z
M 5434 5069 
Q 5434 5043 5389 4915 
Q 5350 4768 5350 4717 
L 5325 1901 
Q 5325 1446 5328 1209 
Q 5331 973 5338 826 
L 4909 794 
Q 4922 902 4928 1052 
Q 4934 1203 4934 1389 
L 4928 2554 
L 4166 2566 
L 3347 2547 
L 3347 2918 
L 4192 2899 
Q 4352 2899 4461 2899 
Q 4570 2899 4650 2902 
Q 4730 2906 4794 2909 
Q 4858 2912 4928 2918 
L 4928 3686 
L 4211 3699 
L 3334 3693 
L 3334 4058 
L 4198 4045 
L 4928 4051 
L 4934 4762 
Q 4934 4877 4934 4947 
Q 4934 5018 4931 5062 
Q 4928 5107 4925 5132 
Q 4922 5158 4915 5190 
Q 5011 5190 5104 5187 
Q 5197 5184 5270 5168 
Q 5344 5152 5389 5129 
Q 5434 5107 5434 5069 
z
M 3379 1869 
Q 3251 1856 3145 1843 
Q 3040 1830 2963 1824 
Q 2682 1798 2451 1785 
Q 2221 1773 2035 1773 
L 749 1734 
L 749 3494 
Q 749 3776 749 3968 
Q 749 4160 742 4262 
Q 742 4371 739 4464 
Q 736 4557 730 4646 
Q 896 4646 1069 4627 
Q 1242 4608 1242 4538 
Q 1242 4499 1222 4412 
Q 1203 4326 1190 4205 
Q 1184 4090 1177 3818 
Q 1171 3546 1171 3174 
L 1190 2099 
Q 1210 2099 1296 2102 
Q 1382 2106 1536 2112 
Q 1690 2118 1846 2121 
Q 2003 2125 2157 2125 
Q 2342 2125 2547 2134 
Q 2752 2144 2976 2170 
Q 3053 2176 3152 2189 
Q 3251 2202 3373 2221 
L 3379 1869 
z
" transform="scale(0.015625)"/>
      <path id="AppleGothic-ac04" d="M 5363 -422 
L 4947 -422 
Q 4819 -422 4630 -425 
Q 4442 -429 4179 -435 
Q 3667 -454 3597 -454 
L 2221 -448 
Q 1875 -448 1641 -451 
Q 1408 -454 1235 -461 
Q 1222 -410 1222 -282 
L 1222 -173 
L 1229 1203 
L 1581 1190 
L 1651 1197 
Q 1702 1197 1702 1158 
L 1677 1075 
Q 1677 1050 1670 1030 
Q 1645 954 1645 896 
L 1670 -90 
L 2086 -77 
L 3302 -83 
Q 3821 -83 4333 -73 
Q 4845 -64 5363 -58 
L 5363 -422 
z
M 6093 2362 
L 5094 2362 
L 5075 710 
L 4666 717 
L 4666 1824 
Q 4672 2266 4675 2614 
Q 4678 2963 4678 3232 
L 4672 4800 
Q 4672 4922 4672 4992 
Q 4672 5062 4672 5100 
Q 4672 5139 4669 5158 
Q 4666 5178 4659 5197 
Q 4864 5197 4985 5174 
Q 5107 5152 5107 5114 
L 5088 4806 
L 5088 2726 
L 6093 2726 
L 6093 2362 
z
M 3258 4634 
Q 3258 4192 3123 3763 
Q 2893 2989 2291 2413 
Q 1843 1978 1242 1664 
Q 787 1427 659 1427 
Q 595 1472 547 1510 
Q 499 1549 461 1581 
Q 314 1709 314 1747 
L 320 1766 
L 339 1754 
Q 518 1754 966 1958 
Q 1267 2093 1526 2272 
Q 1786 2451 2010 2675 
Q 2342 3008 2547 3424 
Q 2624 3578 2678 3728 
Q 2733 3878 2765 4026 
Q 2771 4090 2777 4144 
Q 2784 4198 2797 4262 
L 538 4250 
L 538 4634 
L 1818 4614 
L 3258 4634 
z
" transform="scale(0.015625)"/>
      <path id="AppleGothic-bd81" d="M 4576 3366 
L 4576 4096 
L 3130 4109 
L 1754 4096 
L 1754 3366 
L 3110 3347 
L 4576 3366 
z
M 6022 2010 
Q 5696 2022 5309 2035 
Q 4922 2048 4563 2048 
L 3424 2042 
L 3424 1280 
L 5024 1299 
L 5011 371 
L 5011 -333 
Q 5018 -410 5021 -477 
Q 5024 -544 5030 -608 
L 4544 -614 
Q 4550 -544 4550 -445 
Q 4550 -346 4557 -218 
Q 4563 -90 4563 0 
Q 4563 90 4563 147 
L 4557 902 
L 3014 909 
L 1190 896 
L 1190 1312 
Q 1376 1299 1603 1292 
Q 1830 1286 2042 1286 
L 2976 1286 
L 2976 2042 
L 1651 2048 
Q 1203 2048 899 2041 
Q 595 2035 371 2022 
L 371 2432 
Q 448 2432 1043 2413 
Q 1350 2400 1644 2393 
Q 1939 2387 2240 2381 
Q 2534 2374 2768 2371 
Q 3002 2368 3181 2368 
Q 4077 2368 4758 2381 
Q 5440 2394 6022 2413 
L 6022 2010 
z
M 5088 5050 
Q 5088 5024 5062 4963 
Q 5037 4902 5037 4870 
L 5024 4064 
L 5037 3021 
L 3085 3034 
L 1312 3021 
Q 1318 3085 1318 3187 
Q 1318 3290 1325 3437 
Q 1331 3584 1331 3721 
Q 1331 3859 1331 3994 
Q 1331 4282 1331 4470 
Q 1331 4659 1325 4762 
Q 1325 4870 1321 4960 
Q 1318 5050 1312 5133 
L 1491 5139 
Q 1638 5139 1715 5113 
Q 1792 5088 1792 5011 
Q 1792 4986 1773 4906 
Q 1754 4826 1754 4787 
L 1754 4442 
L 3136 4422 
Q 3290 4422 3469 4422 
Q 3648 4422 3837 4425 
Q 4026 4429 4214 4435 
Q 4403 4442 4576 4448 
L 4563 5158 
Q 4845 5158 4966 5136 
Q 5088 5114 5088 5050 
z
" transform="scale(0.015625)"/>
      <path id="AppleGothic-adf9" d="M 5101 371 
L 5094 -403 
L 4672 -410 
L 4685 352 
Q 4685 563 4685 723 
Q 4685 883 4681 1001 
Q 4678 1120 4675 1206 
Q 4672 1293 4672 1363 
L 3098 1363 
Q 2829 1363 2486 1356 
Q 2144 1350 1734 1338 
Q 1600 1331 1424 1328 
Q 1248 1325 1024 1312 
L 1024 1747 
Q 1395 1734 1862 1724 
Q 2330 1715 2854 1715 
L 5088 1760 
L 5101 371 
z
M 6022 2547 
L 5619 2547 
Q 4090 2566 3821 2566 
Q 3437 2566 3126 2563 
Q 2816 2560 2573 2554 
Q 2112 2547 1427 2534 
Q 1088 2534 829 2531 
Q 570 2528 378 2528 
L 378 2906 
Q 755 2893 1267 2886 
Q 1779 2880 2515 2880 
L 2675 2880 
Q 3123 2880 3520 2889 
Q 3917 2899 4262 2912 
Q 4384 2912 4557 2931 
Q 4570 2995 4582 3043 
Q 4595 3091 4608 3136 
Q 4634 3258 4662 3414 
Q 4691 3571 4720 3740 
Q 4749 3910 4774 4083 
Q 4800 4256 4819 4416 
Q 4819 4442 4822 4467 
Q 4826 4493 4832 4525 
Q 4563 4538 4160 4544 
Q 3757 4550 3117 4550 
L 2995 4550 
Q 2445 4550 1917 4537 
Q 1389 4525 954 4512 
L 954 4909 
Q 1062 4909 1289 4905 
Q 1517 4902 1875 4896 
Q 2234 4890 2470 4890 
Q 2707 4890 2829 4890 
L 5306 4896 
Q 5306 4646 5190 3910 
Q 5126 3539 5078 3296 
Q 5030 3053 4986 2931 
L 5197 2944 
L 5446 2925 
L 6022 2931 
L 6022 2547 
z
" transform="scale(0.015625)"/>
      <path id="AppleGothic-c7a5" d="M 4832 525 
Q 4832 870 4352 1050 
Q 3930 1197 3226 1197 
Q 2394 1197 2000 1027 
Q 1606 858 1606 531 
Q 1606 211 1933 51 
Q 2138 -58 2467 -109 
Q 2797 -160 3258 -160 
Q 3994 -160 4371 -19 
Q 4832 166 4832 525 
z
M 5286 506 
Q 5286 -45 4755 -282 
Q 4256 -506 3302 -506 
L 3085 -518 
Q 2266 -518 1760 -314 
Q 1133 -45 1133 512 
Q 1133 1075 1805 1338 
Q 2349 1542 3238 1542 
Q 4230 1542 4758 1289 
Q 5286 1037 5286 506 
z
M 4096 2336 
Q 4064 2304 4041 2281 
Q 4019 2259 4006 2246 
Q 3904 2144 3853 2089 
Q 3802 2035 3789 2029 
Q 3680 2074 3587 2125 
Q 3494 2176 3405 2234 
Q 3155 2406 2810 2733 
Q 2701 2842 2601 2979 
Q 2502 3117 2413 3283 
Q 2381 3334 2349 3411 
Q 2317 3488 2278 3578 
Q 2240 3443 2189 3331 
Q 2138 3219 2080 3130 
Q 1984 2976 1859 2829 
Q 1734 2682 1587 2534 
Q 1491 2438 1340 2332 
Q 1190 2227 986 2099 
Q 922 2061 832 2013 
Q 742 1965 634 1901 
Q 589 1946 544 1984 
Q 499 2022 448 2074 
Q 422 2099 384 2137 
Q 346 2176 288 2227 
L 307 2253 
Q 454 2304 566 2355 
Q 678 2406 768 2458 
Q 1293 2746 1600 3155 
Q 1728 3322 1821 3488 
Q 1914 3654 1965 3821 
Q 2035 4051 2035 4243 
L 2029 4384 
L 602 4358 
L 602 4800 
Q 666 4800 813 4797 
Q 960 4794 1184 4787 
Q 1408 4781 1549 4781 
Q 1690 4781 1747 4781 
L 2138 4787 
Q 2566 4787 3036 4800 
Q 3507 4813 3904 4826 
L 3904 4390 
L 3213 4403 
L 2496 4390 
Q 2496 4282 2509 4186 
Q 2522 4090 2541 3987 
Q 2579 3840 2649 3689 
Q 2720 3539 2816 3373 
Q 3046 3008 3565 2662 
Q 3648 2605 3766 2541 
Q 3885 2477 4038 2394 
Q 4051 2381 4064 2368 
Q 4077 2355 4090 2342 
Q 4090 2336 4096 2336 
z
M 6042 2950 
L 5139 2950 
L 5139 1664 
L 4678 1664 
L 4678 4698 
Q 4678 4800 4675 4931 
Q 4672 5062 4659 5190 
L 4691 5190 
Q 4960 5190 5072 5168 
Q 5184 5146 5184 5094 
Q 5184 5075 5158 4998 
Q 5133 4922 5133 4864 
L 5133 3347 
L 6042 3347 
L 6042 2950 
z
" transform="scale(0.015625)"/>
      <path id="AppleGothic-ae30" d="M 5427 5094 
Q 5427 5069 5408 4982 
Q 5389 4896 5389 4832 
L 5363 2362 
L 5382 -493 
L 4909 -518 
Q 4915 -371 4915 -195 
Q 4915 -19 4922 198 
Q 4934 646 4941 1299 
Q 4947 1632 4950 1872 
Q 4954 2112 4954 2259 
Q 4954 3808 4934 4346 
Q 4934 4614 4928 4822 
Q 4922 5030 4915 5184 
L 5114 5190 
Q 5261 5190 5344 5174 
Q 5427 5158 5427 5094 
z
M 3578 4486 
Q 3565 4051 3478 3635 
Q 3392 3219 3209 2819 
Q 3027 2419 2729 2041 
Q 2432 1664 1997 1306 
Q 1786 1139 1555 992 
Q 1325 845 1075 717 
Q 698 525 653 525 
Q 627 557 611 579 
Q 595 602 582 614 
Q 544 653 505 688 
Q 467 723 422 749 
Q 410 762 390 778 
Q 371 794 352 819 
Q 346 826 342 832 
Q 339 838 326 851 
Q 326 877 384 893 
Q 442 909 461 922 
Q 480 922 569 957 
Q 659 992 819 1069 
Q 1043 1171 1238 1283 
Q 1434 1395 1613 1523 
Q 2118 1888 2409 2301 
Q 2701 2714 2886 3187 
Q 2950 3354 2995 3514 
Q 3040 3674 3066 3840 
Q 3072 3898 3078 3962 
Q 3085 4026 3098 4090 
L 1766 4083 
Q 1318 4083 1046 4076 
Q 774 4070 589 4058 
L 589 4474 
Q 685 4467 800 4467 
Q 915 4467 1043 4461 
L 1466 4461 
L 3578 4486 
z
" transform="scale(0.015625)"/>
      <path id="AppleGothic-cd94" d="M 5990 1638 
L 4390 1658 
Q 4006 1658 3798 1651 
Q 3590 1645 3462 1632 
L 3462 518 
Q 3462 314 3462 160 
Q 3462 6 3469 -96 
Q 3475 -198 3475 -291 
Q 3475 -384 3482 -461 
Q 3482 -538 3392 -566 
Q 3302 -595 3194 -595 
L 3104 -595 
Q 3002 -595 3002 -550 
L 3008 282 
L 2995 1606 
Q 2912 1613 2800 1613 
Q 2688 1613 2541 1619 
Q 2394 1626 2288 1626 
Q 2182 1626 2112 1626 
Q 1946 1626 1712 1619 
Q 1478 1613 1178 1600 
Q 582 1581 403 1581 
L 403 2003 
L 3360 1990 
Q 3910 1990 4390 2000 
Q 4870 2010 5299 2022 
Q 5446 2029 5619 2041 
Q 5792 2054 5990 2067 
L 5990 1638 
z
M 5504 2854 
Q 5504 2842 5459 2784 
Q 5408 2733 5385 2704 
Q 5363 2675 5357 2669 
L 5229 2496 
Q 5088 2515 4973 2534 
Q 4384 2643 3987 2874 
Q 3834 2970 3702 3062 
Q 3571 3155 3462 3245 
Q 3398 3302 3337 3366 
Q 3277 3430 3213 3514 
Q 3155 3430 3104 3372 
Q 3053 3315 3008 3264 
Q 2694 2963 2266 2752 
Q 1990 2624 1645 2541 
Q 1421 2502 1082 2464 
Q 1075 2470 1075 2483 
Q 1062 2502 1036 2537 
Q 1011 2573 966 2624 
Q 934 2662 876 2726 
Q 819 2790 819 2803 
Q 838 2829 931 2835 
Q 1024 2842 1139 2854 
Q 1792 2938 2234 3174 
Q 2406 3277 2540 3379 
Q 2675 3482 2765 3603 
Q 2867 3750 2925 3974 
L 1050 3949 
L 1050 4346 
Q 1184 4339 1376 4339 
Q 1568 4339 1824 4333 
Q 2080 4326 2265 4326 
Q 2451 4326 2566 4326 
Q 2797 4326 3142 4332 
Q 3488 4339 3955 4352 
Q 4422 4365 4768 4371 
Q 5114 4378 5344 4378 
L 5344 3981 
L 4384 3994 
Q 4115 3994 3948 3994 
Q 3782 3994 3699 3987 
Q 3629 3987 3561 3984 
Q 3494 3981 3437 3974 
Q 3443 3942 3446 3910 
Q 3450 3878 3462 3859 
Q 3610 3539 4128 3258 
Q 4442 3085 4851 2976 
Q 5088 2918 5478 2880 
Q 5498 2880 5504 2854 
z
M 4032 4787 
L 3334 4794 
L 2240 4774 
L 2240 5165 
L 3322 5152 
L 4032 5165 
L 4032 4787 
z
" transform="scale(0.015625)"/>
      <path id="AppleGothic-c138" d="M 5722 5062 
Q 5722 5024 5690 4950 
Q 5658 4877 5658 4845 
L 5658 2381 
Q 5658 1779 5658 1366 
Q 5658 954 5664 710 
Q 5670 474 5670 266 
Q 5670 58 5677 -122 
Q 5683 -467 5696 -467 
L 5197 -499 
L 5197 26 
Q 5203 198 5203 432 
Q 5203 666 5203 966 
Q 5210 1274 5210 1597 
Q 5210 1920 5216 2272 
Q 5216 3072 5213 3590 
Q 5210 4109 5203 4378 
Q 5203 4646 5196 4844 
Q 5190 5043 5178 5190 
L 5203 5190 
Q 5427 5190 5574 5168 
Q 5722 5146 5722 5062 
z
M 4576 4979 
Q 4576 4960 4557 4873 
Q 4538 4787 4538 4704 
L 4538 2630 
L 4538 1376 
Q 4544 1075 4544 828 
Q 4544 582 4550 378 
Q 4563 -32 4563 -32 
L 4083 -70 
L 4096 1242 
L 4096 2637 
L 3136 2637 
L 3136 3046 
L 3654 3027 
L 4096 3046 
L 4096 4634 
L 4070 5075 
L 4179 5075 
Q 4346 5075 4461 5056 
Q 4576 5037 4576 4979 
z
M 3539 1459 
Q 3539 1440 3437 1357 
Q 3366 1293 3305 1238 
Q 3245 1184 3174 1126 
Q 3098 1178 3040 1216 
Q 2982 1254 2938 1299 
Q 2803 1427 2681 1574 
Q 2560 1722 2458 1907 
Q 2387 2022 2323 2160 
Q 2259 2298 2208 2451 
Q 2195 2502 2176 2560 
Q 2157 2618 2131 2694 
Q 2118 2650 2076 2566 
Q 2035 2483 1965 2355 
Q 1760 1990 1533 1702 
Q 1306 1414 1024 1152 
Q 934 1062 813 960 
Q 781 986 742 1024 
Q 704 1062 627 1114 
Q 589 1139 502 1168 
Q 416 1197 416 1216 
L 429 1242 
Q 454 1242 749 1523 
Q 934 1709 1097 1907 
Q 1261 2106 1408 2323 
Q 1792 2925 1939 3565 
Q 1984 3738 2016 4205 
Q 2022 4275 2028 4377 
Q 2035 4480 2048 4614 
Q 2131 4614 2362 4544 
Q 2586 4480 2586 4403 
Q 2586 4384 2534 4294 
Q 2522 4269 2515 4249 
Q 2509 4230 2502 4218 
Q 2490 4166 2483 4124 
Q 2477 4083 2470 4045 
Q 2432 3782 2432 3552 
Q 2445 3322 2483 3082 
Q 2522 2842 2611 2605 
Q 2701 2368 2854 2137 
Q 3008 1907 3245 1690 
Q 3360 1581 3539 1459 
z
" transform="scale(0.015625)"/>
      <path id="AppleGothic-c9c0" d="M 5453 5082 
Q 5453 5069 5427 4982 
Q 5402 4896 5402 4826 
L 5402 2355 
Q 5402 2067 5405 1728 
Q 5408 1389 5414 986 
Q 5421 589 5427 201 
Q 5434 -186 5446 -570 
L 4941 -595 
L 4954 2253 
Q 4954 3808 4934 4346 
Q 4934 4614 4928 4822 
Q 4922 5030 4915 5184 
L 5082 5190 
Q 5235 5190 5344 5168 
Q 5453 5146 5453 5082 
z
M 4211 1190 
Q 4211 1146 4102 1075 
Q 4070 1056 4025 1021 
Q 3981 986 3923 934 
L 3878 890 
Q 3814 915 3683 1008 
Q 3552 1101 3347 1267 
Q 3194 1402 3066 1533 
Q 2938 1664 2835 1792 
Q 2752 1901 2669 2035 
Q 2586 2170 2509 2336 
Q 2483 2387 2451 2457 
Q 2419 2528 2381 2618 
Q 2099 2054 1715 1632 
Q 1331 1210 794 858 
Q 768 883 745 896 
Q 723 909 710 922 
Q 608 986 570 1005 
Q 467 1043 428 1072 
Q 390 1101 390 1120 
L 486 1197 
Q 608 1267 694 1324 
Q 781 1382 851 1434 
Q 1056 1581 1209 1721 
Q 1363 1862 1478 2010 
Q 1658 2227 1789 2441 
Q 1920 2656 2010 2867 
Q 2240 3373 2240 3859 
Q 2240 3891 2240 3926 
Q 2240 3962 2234 3994 
Q 2234 4019 2227 4038 
L 1466 4051 
L 723 4032 
L 723 4467 
L 2317 4454 
L 3910 4474 
L 4064 4467 
L 4064 4032 
L 3942 4026 
Q 3789 4026 3641 4032 
Q 3494 4038 3354 4045 
L 2707 4032 
Q 2694 3949 2688 3891 
Q 2682 3834 2675 3789 
Q 2662 3648 2652 3552 
Q 2643 3456 2643 3386 
Q 2643 3085 2803 2729 
Q 2963 2374 3232 2029 
Q 3354 1882 3488 1750 
Q 3622 1619 3770 1510 
Q 3821 1478 3878 1440 
Q 3936 1402 4013 1357 
Q 4026 1350 4054 1328 
Q 4083 1306 4134 1274 
Q 4211 1222 4211 1190 
z
" transform="scale(0.015625)"/>
      <path id="AppleGothic-ad6c" d="M 6048 2202 
L 4672 2221 
L 3405 2214 
L 3398 915 
L 3411 -486 
L 2925 -518 
Q 2938 -186 2944 214 
Q 2950 614 2950 986 
L 2944 2214 
L 1600 2214 
L 352 2182 
L 352 2618 
Q 794 2605 1328 2592 
Q 1862 2579 2355 2579 
L 2630 2579 
L 3866 2579 
Q 4141 2586 4346 2598 
Q 4371 2701 4390 2774 
Q 4410 2848 4422 2906 
Q 4550 3360 4576 3469 
Q 4640 3738 4730 4160 
Q 4742 4224 4758 4304 
Q 4774 4384 4794 4474 
L 4454 4474 
Q 3232 4493 3149 4493 
L 1005 4461 
L 1005 4890 
Q 1331 4877 1740 4870 
Q 2150 4864 2605 4864 
L 5325 4877 
Q 5312 4781 5299 4697 
Q 5286 4614 5274 4544 
Q 5203 4147 5062 3571 
Q 5030 3430 4992 3280 
Q 4954 3130 4909 2957 
Q 4883 2867 4857 2780 
Q 4832 2694 4806 2605 
L 6048 2618 
L 6048 2202 
z
" transform="scale(0.015625)"/>
      <path id="AppleGothic-c628" d="M 4787 4006 
Q 4787 4403 4320 4582 
Q 4128 4653 3837 4688 
Q 3546 4723 3155 4723 
Q 2502 4723 2099 4595 
Q 1549 4410 1549 4000 
Q 1549 3661 2035 3494 
Q 2438 3354 3162 3354 
Q 3930 3354 4358 3526 
Q 4787 3699 4787 4006 
z
M 5203 -256 
L 4992 -256 
Q 4154 -237 3827 -237 
L 3501 -237 
Q 3200 -237 2857 -243 
Q 2515 -250 2112 -262 
Q 1965 -269 1779 -275 
Q 1594 -282 1350 -294 
Q 1357 -230 1357 -131 
Q 1357 -32 1363 109 
Q 1370 243 1370 368 
Q 1370 493 1370 614 
Q 1370 781 1370 899 
Q 1370 1018 1363 1104 
Q 1357 1190 1350 1257 
Q 1344 1325 1338 1382 
Q 1549 1382 1705 1366 
Q 1862 1350 1862 1286 
Q 1862 1274 1830 1200 
Q 1798 1126 1798 1056 
L 1798 90 
L 3501 102 
Q 3885 102 4163 105 
Q 4442 109 4614 115 
Q 4787 122 4934 128 
Q 5082 134 5203 141 
L 5203 -256 
z
M 5978 1920 
L 3168 1920 
Q 2291 1920 1306 1882 
Q 1133 1875 912 1862 
Q 691 1850 422 1837 
L 422 2266 
L 1747 2246 
L 2490 2246 
Q 2598 2253 2707 2256 
Q 2816 2259 2912 2266 
L 2931 2611 
Q 2931 2784 2924 2867 
Q 2918 2950 2906 3008 
Q 2016 3008 1536 3267 
Q 1056 3526 1056 3994 
Q 1056 4531 1645 4800 
Q 2240 5082 3155 5082 
Q 4090 5082 4608 4870 
Q 5248 4595 5248 4006 
Q 5248 3539 4723 3270 
Q 4467 3136 4137 3072 
Q 3808 3008 3405 3008 
L 3392 2605 
L 3411 2266 
L 4646 2266 
L 5978 2310 
L 5978 1920 
z
" transform="scale(0.015625)"/>
      <path id="AppleGothic-b09c" d="M 5325 -442 
L 3808 -435 
L 1216 -467 
L 1229 851 
L 1216 1395 
L 1293 1395 
Q 1466 1395 1590 1376 
Q 1715 1357 1715 1299 
Q 1696 1229 1677 1168 
Q 1658 1107 1658 1037 
L 1658 -58 
Q 1760 -64 1843 -64 
Q 1926 -64 1997 -64 
Q 2464 -77 2781 -83 
Q 3098 -90 3264 -90 
Q 3648 -90 4057 -80 
Q 4467 -70 4922 -58 
Q 5082 -58 5325 -38 
L 5325 -442 
z
M 6042 2554 
L 5107 2554 
Q 5107 2470 5104 2368 
Q 5101 2266 5097 2157 
Q 5094 2048 5094 1939 
Q 5094 1830 5094 1747 
L 5101 858 
L 4678 851 
L 4678 2906 
Q 4678 3430 4678 3808 
Q 4678 4186 4672 4410 
Q 4672 4640 4669 4835 
Q 4666 5030 4659 5190 
Q 4813 5190 4979 5171 
Q 5152 5152 5152 5094 
Q 5152 5082 5126 4992 
Q 5101 4902 5101 4813 
L 5101 2970 
Q 5197 2957 5315 2944 
Q 5434 2931 5542 2931 
Q 5747 2931 5849 2934 
Q 5952 2938 6042 2950 
L 6042 2554 
z
M 4109 2355 
L 2624 2202 
Q 2317 2170 1981 2141 
Q 1645 2112 1261 2093 
Q 1133 2086 979 2080 
Q 826 2074 634 2067 
L 646 3603 
Q 646 3859 646 4022 
Q 646 4186 640 4262 
Q 640 4339 637 4403 
Q 634 4467 627 4518 
L 806 4525 
Q 960 4525 1049 4509 
Q 1139 4493 1139 4435 
Q 1139 4416 1113 4329 
Q 1088 4243 1088 4179 
L 1082 3302 
L 1094 2464 
Q 1402 2477 1587 2483 
Q 2157 2515 2681 2569 
Q 3206 2624 3699 2688 
Q 3782 2701 3878 2713 
Q 3974 2726 4083 2739 
L 4109 2355 
z
" transform="scale(0.015625)"/>
      <path id="AppleGothic-d654" d="M 3302 2598 
Q 3302 2835 2970 2982 
Q 2835 3040 2675 3065 
Q 2515 3091 2342 3091 
Q 1888 3091 1677 3034 
Q 1261 2906 1261 2573 
Q 1261 2304 1581 2150 
Q 1894 2003 2317 2003 
Q 2803 2003 3052 2179 
Q 3302 2355 3302 2598 
z
M 4422 1062 
Q 4198 1030 4012 1011 
Q 3827 992 3693 979 
Q 2854 902 2342 902 
Q 1978 902 1558 870 
Q 1139 838 685 806 
Q 634 794 586 787 
Q 538 781 486 768 
Q 442 768 413 809 
Q 384 851 371 918 
Q 358 986 352 1066 
Q 346 1146 346 1229 
L 1331 1235 
Q 1504 1235 1766 1254 
Q 1901 1267 1993 1273 
Q 2086 1280 2138 1280 
L 2138 1664 
Q 1914 1690 1750 1718 
Q 1587 1747 1478 1792 
Q 826 2042 826 2618 
Q 826 3021 1325 3251 
Q 1747 3443 2323 3443 
Q 2963 3443 3331 3209 
Q 3699 2976 3699 2566 
Q 3699 2067 3149 1811 
Q 3059 1766 2921 1731 
Q 2784 1696 2598 1658 
L 2598 1306 
Q 2803 1312 3043 1325 
Q 3283 1338 3533 1363 
L 4422 1459 
L 4422 1062 
z
M 6035 2061 
L 5139 2061 
L 5152 -499 
L 4672 -499 
Q 4678 -288 4678 48 
Q 4678 384 4685 845 
Q 4691 1306 4691 1712 
Q 4691 2118 4691 2470 
Q 4691 2618 4691 2877 
Q 4691 3136 4685 3507 
Q 4678 3878 4678 4176 
Q 4678 4474 4678 4698 
Q 4678 4928 4672 5033 
Q 4666 5139 4653 5190 
L 4819 5190 
Q 5005 5190 5097 5171 
Q 5190 5152 5190 5082 
Q 5190 5062 5165 4954 
Q 5139 4858 5139 4800 
L 5139 2470 
L 6035 2483 
L 6035 2061 
z
M 4128 3648 
L 2189 3667 
L 378 3648 
L 378 4090 
Q 838 4070 1302 4057 
Q 1766 4045 2150 4045 
L 2336 4045 
Q 2899 4045 3321 4051 
Q 3744 4058 4128 4077 
L 4128 3648 
z
M 3046 4410 
L 2355 4422 
L 1427 4410 
L 1427 4800 
Q 1466 4800 1584 4797 
Q 1702 4794 1888 4787 
Q 2080 4781 2189 4777 
Q 2298 4774 2330 4774 
Q 2598 4774 2771 4780 
Q 2944 4787 3046 4800 
L 3046 4410 
z
" transform="scale(0.015625)"/>
      <path id="AppleGothic-c99d" d="M 3258 1005 
Q 2912 1005 2640 979 
Q 2368 954 2163 902 
Q 1632 762 1632 454 
Q 1632 -134 3200 -134 
L 3494 -134 
Q 4070 -134 4378 -51 
Q 4877 83 4877 416 
Q 4877 755 4397 902 
Q 4211 954 3926 979 
Q 3642 1005 3258 1005 
z
M 5370 416 
Q 5370 0 4947 -218 
Q 4442 -493 3251 -493 
Q 2336 -493 1818 -320 
Q 1152 -90 1152 422 
Q 1152 922 1779 1171 
Q 2048 1267 2390 1318 
Q 2733 1370 3168 1370 
Q 3994 1370 4493 1242 
Q 5370 1018 5370 416 
z
M 6042 1971 
L 3219 1984 
Q 2982 1984 2748 1984 
Q 2515 1984 2278 1978 
Q 2054 1971 1699 1964 
Q 1344 1958 864 1946 
Q 736 1939 614 1939 
Q 493 1939 371 1933 
L 371 2342 
Q 538 2336 672 2336 
Q 806 2336 915 2336 
Q 1670 2323 2192 2316 
Q 2714 2310 3021 2310 
L 3219 2310 
Q 3539 2310 3811 2310 
Q 4083 2310 4307 2317 
Q 4531 2323 4774 2329 
Q 5018 2336 5274 2342 
Q 5542 2355 5731 2361 
Q 5920 2368 6042 2374 
L 6042 1971 
z
M 5632 3213 
Q 5632 3194 5587 3155 
Q 5453 3040 5440 3014 
Q 5402 2944 5354 2893 
Q 5306 2842 5299 2835 
Q 5203 2848 5123 2867 
Q 5043 2886 4973 2899 
Q 4205 3091 3738 3443 
Q 3450 3674 3283 3885 
Q 3270 3904 3251 3929 
Q 3232 3955 3213 3987 
Q 3187 3949 3168 3917 
Q 3149 3885 3130 3866 
Q 2906 3558 2413 3264 
Q 2106 3072 1555 2931 
Q 1382 2880 1094 2835 
Q 1082 2848 1069 2857 
Q 1056 2867 1043 2880 
Q 1011 2912 988 2937 
Q 966 2963 941 2995 
Q 922 3021 886 3053 
Q 851 3085 816 3113 
Q 781 3142 755 3161 
Q 730 3181 730 3194 
L 762 3213 
Q 851 3219 921 3225 
Q 992 3232 1050 3238 
Q 1722 3334 2150 3578 
Q 2752 3910 2918 4365 
Q 2963 4544 2963 4563 
L 2080 4576 
Q 1830 4576 1561 4563 
Q 1293 4550 1062 4538 
L 1062 4966 
Q 1478 4954 2016 4947 
Q 2554 4941 3232 4941 
Q 3616 4941 3923 4941 
Q 4230 4941 4474 4947 
Q 4717 4954 4941 4957 
Q 5165 4960 5370 4973 
L 5370 4563 
L 4410 4570 
Q 4058 4570 3834 4563 
Q 3610 4557 3405 4538 
Q 3430 4461 3456 4403 
Q 3482 4346 3507 4294 
Q 3661 4013 3942 3802 
Q 4173 3629 4451 3504 
Q 4730 3379 5056 3309 
Q 5280 3258 5613 3232 
L 5632 3213 
z
" transform="scale(0.015625)"/>
      <path id="AppleGothic-ba85" d="M 4998 480 
Q 4998 851 4435 992 
Q 4237 1043 3981 1072 
Q 3725 1101 3398 1101 
L 3245 1101 
Q 2598 1101 2221 992 
Q 1734 858 1734 512 
Q 1734 160 2227 -6 
Q 2432 -77 2704 -109 
Q 2976 -141 3328 -141 
Q 3699 -141 3984 -115 
Q 4269 -90 4474 -26 
Q 4998 128 4998 480 
z
M 2912 2438 
L 2912 4262 
L 1235 4262 
L 1242 2438 
L 2131 2426 
L 2912 2438 
z
M 5434 493 
Q 5434 -19 4838 -275 
Q 4288 -506 3315 -506 
Q 2419 -506 1875 -282 
Q 1254 -19 1254 506 
Q 1254 1011 1914 1248 
Q 2470 1466 3398 1466 
Q 4339 1466 4858 1229 
Q 5434 973 5434 493 
z
M 3386 2054 
L 787 2042 
L 806 3469 
Q 806 3795 800 4102 
Q 794 4410 781 4659 
L 1862 4646 
L 3379 4659 
L 3360 3360 
Q 3360 2989 3366 2656 
Q 3373 2323 3386 2054 
z
M 5440 5082 
Q 5440 5050 5417 4970 
Q 5395 4890 5395 4858 
Q 5395 4768 5395 4614 
Q 5395 4461 5389 4243 
Q 5382 4032 5382 3821 
Q 5382 3610 5376 3398 
Q 5376 2918 5376 2595 
Q 5376 2272 5382 2106 
Q 5389 1939 5392 1814 
Q 5395 1690 5408 1594 
L 4922 1581 
Q 4922 1581 4925 1597 
Q 4928 1613 4928 1657 
Q 4928 1702 4931 1785 
Q 4934 1869 4934 2010 
L 4934 2528 
L 4582 2528 
Q 4371 2528 4140 2521 
Q 3910 2515 3706 2502 
L 3706 2906 
L 4557 2893 
L 4934 2899 
L 4934 3718 
L 4512 3706 
Q 4243 3706 3878 3686 
Q 3846 3686 3801 3683 
Q 3757 3680 3706 3674 
L 3706 4090 
L 4461 4070 
L 4934 4077 
L 4941 4634 
Q 4941 4870 4934 4998 
Q 4928 5126 4915 5190 
L 5030 5190 
Q 5222 5190 5331 5171 
Q 5440 5152 5440 5082 
z
" transform="scale(0.015625)"/>
     </defs>
     <use xlink:href="#AppleGothic-34"/>
     <use xlink:href="#AppleGothic-30" transform="translate(67.999985 0)"/>
     <use xlink:href="#AppleGothic-b144" transform="translate(135.999969 0)"/>
     <use xlink:href="#AppleGothic-ac04" transform="translate(235.999954 0)"/>
     <use xlink:href="#AppleGothic-20" transform="translate(335.999939 0)"/>
     <use xlink:href="#AppleGothic-bd81" transform="translate(367.999924 0)"/>
     <use xlink:href="#AppleGothic-adf9" transform="translate(467.999908 0)"/>
     <use xlink:href="#AppleGothic-20" transform="translate(567.999893 0)"/>
     <use xlink:href="#AppleGothic-d574" transform="translate(599.999878 0)"/>
     <use xlink:href="#AppleGothic-be59" transform="translate(699.999863 0)"/>
     <use xlink:href="#AppleGothic-20" transform="translate(799.999847 0)"/>
     <use xlink:href="#AppleGothic-ba74" transform="translate(831.999832 0)"/>
     <use xlink:href="#AppleGothic-c801" transform="translate(931.999817 0)"/>
     <use xlink:href="#AppleGothic-20" transform="translate(1031.999802 0)"/>
     <use xlink:href="#AppleGothic-c7a5" transform="translate(1063.999786 0)"/>
     <use xlink:href="#AppleGothic-ae30" transform="translate(1163.999771 0)"/>
     <use xlink:href="#AppleGothic-20" transform="translate(1263.999756 0)"/>
     <use xlink:href="#AppleGothic-cd94" transform="translate(1295.999741 0)"/>
     <use xlink:href="#AppleGothic-c138" transform="translate(1395.999725 0)"/>
     <use xlink:href="#AppleGothic-20" transform="translate(1495.99971 0)"/>
     <use xlink:href="#AppleGothic-28" transform="translate(1527.999695 0)"/>
     <use xlink:href="#AppleGothic-c9c0" transform="translate(1577.99968 0)"/>
     <use xlink:href="#AppleGothic-ad6c" transform="translate(1677.999664 0)"/>
     <use xlink:href="#AppleGothic-20" transform="translate(1777.999649 0)"/>
     <use xlink:href="#AppleGothic-c628" transform="translate(1809.999634 0)"/>
     <use xlink:href="#AppleGothic-b09c" transform="translate(1909.999619 0)"/>
     <use xlink:href="#AppleGothic-d654" transform="translate(2009.999603 0)"/>
     <use xlink:href="#AppleGothic-20" transform="translate(2109.999588 0)"/>
     <use xlink:href="#AppleGothic-c99d" transform="translate(2141.999573 0)"/>
     <use xlink:href="#AppleGothic-ba85" transform="translate(2241.999557 0)"/>
     <use xlink:href="#AppleGothic-29" transform="translate(2341.999542 0)"/>
    </g>
   </g>
  </g>
 </g>
 <defs>
  <clipPath id="pd227e9863d">
   <rect x="58.408125" y="25.745" width="781.2" height="332.64"/>
  </clipPath>
 </defs>
</svg>
