<svg width="680" height="200" viewBox="0 0 680 200" xmlns="http://www.w3.org/2000/svg">
    <rect width="680" height="200" fill="#f8fafc" rx="10"/>
    <text x="340" y="30" font-family="sans-serif" font-size="20" font-weight="bold" fill="#334155" text-anchor="middle">배열과 배열의 요소별 연산 (/)</text>
    
    <text x="115" y="60" font-family="sans-serif" font-size="14" font-weight="bold" fill="#475569" text-anchor="middle">배열 a</text>
    <g transform="translate(50, 70)">
        <rect x="0" y="0" width="40" height="40" rx="4" fill="#bae6fd" stroke="#0284c7" stroke-width="2"/>
        <text x="20" y="26" font-family="sans-serif" font-size="16" font-weight="bold" fill="#0369a1" text-anchor="middle">1</text>
        <rect x="45" y="0" width="40" height="40" rx="4" fill="#bae6fd" stroke="#0284c7" stroke-width="2"/>
        <text x="65" y="26" font-family="sans-serif" font-size="16" font-weight="bold" fill="#0369a1" text-anchor="middle">2</text>
        <rect x="90" y="0" width="40" height="40" rx="4" fill="#bae6fd" stroke="#0284c7" stroke-width="2"/>
        <text x="110" y="26" font-family="sans-serif" font-size="16" font-weight="bold" fill="#0369a1" text-anchor="middle">3</text>
        
        <rect x="0" y="45" width="40" height="40" rx="4" fill="#bae6fd" stroke="#0284c7" stroke-width="2"/>
        <text x="20" y="71" font-family="sans-serif" font-size="16" font-weight="bold" fill="#0369a1" text-anchor="middle">4</text>
        <rect x="45" y="45" width="40" height="40" rx="4" fill="#bae6fd" stroke="#0284c7" stroke-width="2"/>
        <text x="65" y="71" font-family="sans-serif" font-size="16" font-weight="bold" fill="#0369a1" text-anchor="middle">5</text>
        <rect x="90" y="45" width="40" height="40" rx="4" fill="#bae6fd" stroke="#0284c7" stroke-width="2"/>
        <text x="110" y="71" font-family="sans-serif" font-size="16" font-weight="bold" fill="#0369a1" text-anchor="middle">6</text>
    </g>

    <text x="225" y="120" font-family="sans-serif" font-size="30" font-weight="bold" fill="#64748b" text-anchor="middle">/</text>

    <text x="325" y="60" font-family="sans-serif" font-size="14" font-weight="bold" fill="#475569" text-anchor="middle">배열 b</text>
    <g transform="translate(260, 70)">
        <rect x="0" y="0" width="40" height="40" rx="4" fill="#fef08a" stroke="#ca8a04" stroke-width="2"/>
        <text x="20" y="26" font-family="sans-serif" font-size="16" font-weight="bold" fill="#a16207" text-anchor="middle">1</text>
        <rect x="45" y="0" width="40" height="40" rx="4" fill="#fef08a" stroke="#ca8a04" stroke-width="2"/>
        <text x="65" y="26" font-family="sans-serif" font-size="16" font-weight="bold" fill="#a16207" text-anchor="middle">2</text>
        <rect x="90" y="0" width="40" height="40" rx="4" fill="#fef08a" stroke="#ca8a04" stroke-width="2"/>
        <text x="110" y="26" font-family="sans-serif" font-size="16" font-weight="bold" fill="#a16207" text-anchor="middle">3</text>
        
        <rect x="0" y="45" width="40" height="40" rx="4" fill="#fef08a" stroke="#ca8a04" stroke-width="2"/>
        <text x="20" y="71" font-family="sans-serif" font-size="16" font-weight="bold" fill="#a16207" text-anchor="middle">1</text>
        <rect x="45" y="45" width="40" height="40" rx="4" fill="#fef08a" stroke="#ca8a04" stroke-width="2"/>
        <text x="65" y="71" font-family="sans-serif" font-size="16" font-weight="bold" fill="#a16207" text-anchor="middle">2</text>
        <rect x="90" y="45" width="40" height="40" rx="4" fill="#fef08a" stroke="#ca8a04" stroke-width="2"/>
        <text x="110" y="71" font-family="sans-serif" font-size="16" font-weight="bold" fill="#a16207" text-anchor="middle">3</text>
    </g>

    <text x="435" y="120" font-family="sans-serif" font-size="30" font-weight="bold" fill="#64748b" text-anchor="middle">=</text>

    <text x="555" y="60" font-family="sans-serif" font-size="14" font-weight="bold" fill="#475569" text-anchor="middle">결과 배열</text>
    <g transform="translate(470, 70)">
        <rect x="0" y="0" width="55" height="40" rx="4" fill="#bbf7d0" stroke="#16a34a" stroke-width="2"/>
        <text x="27" y="26" font-family="sans-serif" font-size="16" font-weight="bold" fill="#15803d" text-anchor="middle">1.0</text>
        <rect x="60" y="0" width="55" height="40" rx="4" fill="#bbf7d0" stroke="#16a34a" stroke-width="2"/>
        <text x="87" y="26" font-family="sans-serif" font-size="16" font-weight="bold" fill="#15803d" text-anchor="middle">1.0</text>
        <rect x="120" y="0" width="55" height="40" rx="4" fill="#bbf7d0" stroke="#16a34a" stroke-width="2"/>
        <text x="147" y="26" font-family="sans-serif" font-size="16" font-weight="bold" fill="#15803d" text-anchor="middle">1.0</text>
        
        <rect x="0" y="45" width="55" height="40" rx="4" fill="#bbf7d0" stroke="#16a34a" stroke-width="2"/>
        <text x="27" y="71" font-family="sans-serif" font-size="16" font-weight="bold" fill="#15803d" text-anchor="middle">4.0</text>
        <rect x="60" y="45" width="55" height="40" rx="4" fill="#bbf7d0" stroke="#16a34a" stroke-width="2"/>
        <text x="87" y="71" font-family="sans-serif" font-size="16" font-weight="bold" fill="#15803d" text-anchor="middle">2.5</text>
        <rect x="120" y="45" width="55" height="40" rx="4" fill="#bbf7d0" stroke="#16a34a" stroke-width="2"/>
        <text x="147" y="71" font-family="sans-serif" font-size="16" font-weight="bold" fill="#15803d" text-anchor="middle">2.0</text>
    </g>
</svg>
