<?xml version="1.0" encoding="utf-8" standalone="no"?>
<!DOCTYPE svg PUBLIC "-//W3C//DTD SVG 1.1//EN"
  "http://www.w3.org/Graphics/SVG/1.1/DTD/svg11.dtd">
<svg xmlns:xlink="http://www.w3.org/1999/xlink" width="517.8925pt" height="342.498906pt" viewBox="0 0 517.8925 342.498906" xmlns="http://www.w3.org/2000/svg" version="1.1">
 <metadata>
  <rdf:RDF xmlns:dc="http://purl.org/dc/elements/1.1/" xmlns:cc="http://creativecommons.org/ns#" xmlns:rdf="http://www.w3.org/1999/02/22-rdf-syntax-ns#">
   <cc:Work>
    <dc:type rdf:resource="http://purl.org/dc/dcmitype/StillImage"/>
    <dc:date>2026-04-26T23:01:33.323869</dc:date>
    <dc:format>image/svg+xml</dc:format>
    <dc:creator>
     <cc:Agent>
      <dc:title>Matplotlib v3.10.9, https://matplotlib.org/</dc:title>
     </cc:Agent>
    </dc:creator>
   </cc:Work>
  </rdf:RDF>
 </metadata>
 <defs>
  <style type="text/css">*{stroke-linejoin: round; stroke-linecap: butt}</style>
 </defs>
 <g id="figure_1">
  <g id="patch_1">
   <path d="M 0 342.498906 
L 517.8925 342.498906 
L 517.8925 0 
L 0 0 
z
" style="fill: #ffffff"/>
  </g>
  <g id="axes_1">
   <g id="patch_2">
    <path d="M 64.2925 299.80875 
L 510.6925 299.80875 
L 510.6925 22.60875 
L 64.2925 22.60875 
z
" style="fill: #eaeaf2"/>
   </g>
   <g id="matplotlib.axis_1">
    <g id="xtick_1">
     <g id="line2d_1">
      <path d="M 84.583409 299.80875 
L 84.583409 22.60875 
" clip-path="url(#pd4152057de)" style="fill: none; stroke: #ffffff; stroke-linecap: round"/>
     </g>
     <g id="text_1">
      <!-- 0.0 -->
      <g style="fill: #262626" transform="translate(75.205909 317.933438) scale(0.11 -0.11)">
       <defs>
        <path id="AppleGothic-30" d="M 2227 -83 
Q 1414 -83 934 576 
Q 461 1229 461 2387 
Q 461 3552 973 4218 
Q 1453 4858 2221 4858 
Q 3027 4858 3482 4173 
Q 3955 3494 3955 2394 
Q 3955 1248 3462 582 
Q 2976 -83 2227 -83 
z
M 2176 346 
Q 2861 346 3200 992 
Q 3462 1536 3462 2400 
Q 3462 3315 3162 3859 
Q 2822 4429 2214 4429 
Q 1574 4429 1248 3821 
Q 960 3283 960 2374 
Q 960 1478 1248 941 
Q 1574 346 2176 346 
z
" transform="scale(0.015625)"/>
        <path id="AppleGothic-2e" d="M 915 -19 
Q 762 -19 653 109 
Q 544 237 544 422 
Q 544 614 656 745 
Q 768 877 915 877 
Q 1056 877 1168 758 
Q 1280 640 1280 435 
Q 1280 243 1171 112 
Q 1062 -19 915 -19 
z
" transform="scale(0.015625)"/>
       </defs>
       <use xlink:href="#AppleGothic-30"/>
       <use xlink:href="#AppleGothic-2e" transform="translate(67.999985 0)"/>
       <use xlink:href="#AppleGothic-30" transform="translate(102.499969 0)"/>
      </g>
     </g>
    </g>
    <g id="xtick_2">
     <g id="line2d_2">
      <path d="M 140.947045 299.80875 
L 140.947045 22.60875 
" clip-path="url(#pd4152057de)" style="fill: none; stroke: #ffffff; stroke-linecap: round"/>
     </g>
     <g id="text_2">
      <!-- 2.5 -->
      <g style="fill: #262626" transform="translate(131.569545 317.933438) scale(0.11 -0.11)">
       <defs>
        <path id="AppleGothic-32" d="M 1101 429 
L 3942 429 
L 3942 0 
L 653 0 
L 653 205 
Q 653 1018 1344 1664 
Q 1670 1894 1990 2124 
Q 2310 2355 2637 2592 
Q 3334 3098 3334 3597 
Q 3334 3994 3014 4218 
Q 2867 4326 2694 4377 
Q 2522 4429 2317 4429 
Q 2016 4429 1741 4352 
Q 1325 4224 883 3910 
L 883 4435 
Q 1325 4659 1667 4758 
Q 2010 4858 2317 4858 
Q 2963 4858 3405 4525 
Q 3840 4198 3840 3622 
Q 3840 2995 3168 2438 
Q 2848 2214 2531 2000 
Q 2214 1786 1894 1562 
Q 1178 1024 1101 429 
z
" transform="scale(0.015625)"/>
        <path id="AppleGothic-35" d="M 621 4768 
L 3488 4768 
L 3488 4339 
L 1088 4339 
L 1088 2707 
Q 1184 2771 1293 2819 
Q 1402 2867 1510 2912 
Q 1862 3040 2259 3040 
Q 2989 3040 3424 2605 
Q 3827 2202 3827 1581 
Q 3827 870 3296 397 
Q 2765 -83 2010 -83 
Q 1651 -83 1248 45 
Q 1158 77 1001 137 
Q 845 198 621 301 
L 621 838 
Q 928 640 1203 525 
Q 1408 435 1613 390 
Q 1818 346 2010 346 
Q 2528 346 2906 666 
Q 3322 1011 3322 1536 
Q 3322 1990 3021 2291 
Q 2701 2611 2144 2611 
Q 1856 2611 1587 2528 
Q 1318 2445 1088 2272 
L 621 2272 
L 621 4768 
z
" transform="scale(0.015625)"/>
       </defs>
       <use xlink:href="#AppleGothic-32"/>
       <use xlink:href="#AppleGothic-2e" transform="translate(67.999985 0)"/>
       <use xlink:href="#AppleGothic-35" transform="translate(102.499969 0)"/>
      </g>
     </g>
    </g>
    <g id="xtick_3">
     <g id="line2d_3">
      <path d="M 197.310682 299.80875 
L 197.310682 22.60875 
" clip-path="url(#pd4152057de)" style="fill: none; stroke: #ffffff; stroke-linecap: round"/>
     </g>
     <g id="text_3">
      <!-- 5.0 -->
      <g style="fill: #262626" transform="translate(187.933182 317.933438) scale(0.11 -0.11)">
       <use xlink:href="#AppleGothic-35"/>
       <use xlink:href="#AppleGothic-2e" transform="translate(67.999985 0)"/>
       <use xlink:href="#AppleGothic-30" transform="translate(102.499969 0)"/>
      </g>
     </g>
    </g>
    <g id="xtick_4">
     <g id="line2d_4">
      <path d="M 253.674318 299.80875 
L 253.674318 22.60875 
" clip-path="url(#pd4152057de)" style="fill: none; stroke: #ffffff; stroke-linecap: round"/>
     </g>
     <g id="text_4">
      <!-- 7.5 -->
      <g style="fill: #262626" transform="translate(244.296818 317.933438) scale(0.11 -0.11)">
       <defs>
        <path id="AppleGothic-37" d="M 595 4774 
L 3802 4774 
L 3802 4410 
L 1734 0 
L 1235 0 
L 3277 4352 
L 595 4352 
L 595 4774 
z
" transform="scale(0.015625)"/>
       </defs>
       <use xlink:href="#AppleGothic-37"/>
       <use xlink:href="#AppleGothic-2e" transform="translate(67.999985 0)"/>
       <use xlink:href="#AppleGothic-35" transform="translate(102.499969 0)"/>
      </g>
     </g>
    </g>
    <g id="xtick_5">
     <g id="line2d_5">
      <path d="M 310.037955 299.80875 
L 310.037955 22.60875 
" clip-path="url(#pd4152057de)" style="fill: none; stroke: #ffffff; stroke-linecap: round"/>
     </g>
     <g id="text_5">
      <!-- 10.0 -->
      <g style="fill: #262626" transform="translate(296.920455 317.933438) scale(0.11 -0.11)">
       <defs>
        <path id="AppleGothic-31" d="M 2342 4774 
L 2752 4774 
L 2752 0 
L 2285 0 
L 2285 3526 
L 1158 3526 
L 1158 3885 
L 1414 3885 
Q 1990 3885 2214 4205 
Q 2342 4410 2342 4774 
z
" transform="scale(0.015625)"/>
       </defs>
       <use xlink:href="#AppleGothic-31"/>
       <use xlink:href="#AppleGothic-30" transform="translate(67.999985 0)"/>
       <use xlink:href="#AppleGothic-2e" transform="translate(135.999969 0)"/>
       <use xlink:href="#AppleGothic-30" transform="translate(170.499954 0)"/>
      </g>
     </g>
    </g>
    <g id="xtick_6">
     <g id="line2d_6">
      <path d="M 366.401591 299.80875 
L 366.401591 22.60875 
" clip-path="url(#pd4152057de)" style="fill: none; stroke: #ffffff; stroke-linecap: round"/>
     </g>
     <g id="text_6">
      <!-- 12.5 -->
      <g style="fill: #262626" transform="translate(353.284091 317.933438) scale(0.11 -0.11)">
       <use xlink:href="#AppleGothic-31"/>
       <use xlink:href="#AppleGothic-32" transform="translate(67.999985 0)"/>
       <use xlink:href="#AppleGothic-2e" transform="translate(135.999969 0)"/>
       <use xlink:href="#AppleGothic-35" transform="translate(170.499954 0)"/>
      </g>
     </g>
    </g>
    <g id="xtick_7">
     <g id="line2d_7">
      <path d="M 422.765227 299.80875 
L 422.765227 22.60875 
" clip-path="url(#pd4152057de)" style="fill: none; stroke: #ffffff; stroke-linecap: round"/>
     </g>
     <g id="text_7">
      <!-- 15.0 -->
      <g style="fill: #262626" transform="translate(409.647727 317.933438) scale(0.11 -0.11)">
       <use xlink:href="#AppleGothic-31"/>
       <use xlink:href="#AppleGothic-35" transform="translate(67.999985 0)"/>
       <use xlink:href="#AppleGothic-2e" transform="translate(135.999969 0)"/>
       <use xlink:href="#AppleGothic-30" transform="translate(170.499954 0)"/>
      </g>
     </g>
    </g>
    <g id="xtick_8">
     <g id="line2d_8">
      <path d="M 479.128864 299.80875 
L 479.128864 22.60875 
" clip-path="url(#pd4152057de)" style="fill: none; stroke: #ffffff; stroke-linecap: round"/>
     </g>
     <g id="text_8">
      <!-- 17.5 -->
      <g style="fill: #262626" transform="translate(466.011364 317.933438) scale(0.11 -0.11)">
       <use xlink:href="#AppleGothic-31"/>
       <use xlink:href="#AppleGothic-37" transform="translate(67.999985 0)"/>
       <use xlink:href="#AppleGothic-2e" transform="translate(135.999969 0)"/>
       <use xlink:href="#AppleGothic-35" transform="translate(170.499954 0)"/>
      </g>
     </g>
    </g>
    <g id="text_9">
     <!-- timepoint -->
     <g style="fill: #262626" transform="translate(262.650625 333.234531) scale(0.12 -0.12)">
      <defs>
       <path id="AppleGothic-74" d="M 691 4435 
L 1114 4435 
L 1114 3430 
L 2016 3430 
L 2016 3014 
L 1114 3014 
L 1114 838 
Q 1114 570 1213 454 
Q 1312 339 1555 339 
Q 1696 339 1795 371 
Q 1894 403 2016 454 
L 2016 38 
Q 1914 6 1770 -22 
Q 1626 -51 1478 -51 
Q 1094 -51 883 122 
Q 646 301 646 698 
L 646 3014 
L 70 3014 
L 70 3430 
L 646 3430 
L 691 4435 
z
" transform="scale(0.015625)"/>
       <path id="AppleGothic-69" d="M 256 3424 
L 717 3424 
L 717 0 
L 256 0 
L 256 3424 
z
M 480 4870 
Q 614 4870 704 4780 
Q 794 4691 794 4525 
Q 794 4358 710 4268 
Q 627 4179 480 4179 
Q 333 4179 253 4281 
Q 173 4384 173 4518 
Q 173 4730 269 4800 
Q 365 4870 480 4870 
z
" transform="scale(0.015625)"/>
       <path id="AppleGothic-6d" d="M 5389 2195 
L 5389 0 
L 4922 0 
L 4922 2304 
Q 4922 2669 4672 2893 
Q 4461 3085 4173 3085 
Q 3744 3085 3405 2688 
Q 3072 2298 3072 1722 
L 3072 0 
L 2605 0 
L 2605 2304 
Q 2605 2650 2368 2861 
Q 2144 3085 1856 3085 
Q 1440 3085 1114 2714 
Q 755 2304 755 1702 
L 755 0 
L 288 0 
L 288 3424 
L 723 3424 
L 742 2880 
Q 928 3181 1274 3354 
Q 1581 3501 1894 3501 
Q 2381 3501 2714 3219 
Q 2957 3008 3021 2797 
Q 3149 3034 3386 3226 
Q 3757 3501 4205 3501 
Q 4749 3501 5050 3174 
Q 5389 2803 5389 2195 
z
" transform="scale(0.015625)"/>
       <path id="AppleGothic-65" d="M 3296 1850 
L 691 1850 
Q 691 1114 1033 726 
Q 1376 339 1933 339 
Q 2355 339 2746 608 
Q 2854 678 2976 784 
Q 3098 890 3238 1030 
L 3238 474 
Q 3085 358 2953 272 
Q 2822 186 2707 128 
Q 2304 -83 1901 -83 
Q 1203 -83 717 397 
Q 192 902 192 1709 
Q 192 2470 666 2982 
Q 1146 3501 1850 3501 
Q 2534 3501 2938 3002 
Q 3296 2547 3296 1850 
z
M 755 2240 
L 2758 2240 
Q 2682 2675 2429 2889 
Q 2176 3104 1818 3104 
Q 1421 3104 1146 2854 
Q 890 2624 755 2240 
z
" transform="scale(0.015625)"/>
       <path id="AppleGothic-70" d="M 736 307 
L 736 -1101 
L 288 -1101 
L 288 3424 
L 704 3424 
L 730 2803 
Q 941 3149 1216 3325 
Q 1491 3501 1882 3501 
Q 2522 3501 2944 3002 
Q 3162 2752 3270 2441 
Q 3379 2131 3379 1747 
Q 3379 954 2899 435 
Q 2419 -83 1754 -83 
Q 1421 -83 1139 58 
Q 1056 90 960 154 
Q 864 218 736 307 
z
M 736 1824 
L 736 800 
Q 838 704 924 637 
Q 1011 570 1082 525 
Q 1395 339 1715 339 
Q 2227 339 2554 742 
Q 2886 1165 2886 1766 
Q 2886 2330 2579 2707 
Q 2278 3085 1811 3085 
Q 1331 3085 1018 2669 
Q 736 2291 736 1824 
z
" transform="scale(0.015625)"/>
       <path id="AppleGothic-6f" d="M 1888 -83 
Q 1229 -83 730 397 
Q 198 902 198 1709 
Q 198 2470 666 2982 
Q 1146 3501 1850 3501 
Q 2547 3501 3027 2982 
Q 3501 2470 3501 1715 
Q 3501 922 2989 403 
Q 2515 -83 1888 -83 
z
M 1843 339 
Q 2304 339 2662 723 
Q 3008 1114 3008 1715 
Q 3008 2336 2637 2726 
Q 2298 3085 1850 3085 
Q 1389 3085 1062 2714 
Q 704 2304 704 1709 
Q 704 1107 1056 704 
Q 1382 339 1843 339 
z
" transform="scale(0.015625)"/>
       <path id="AppleGothic-6e" d="M 3264 2291 
L 3264 0 
L 2803 0 
L 2803 2259 
Q 2803 2618 2541 2848 
Q 2278 3085 1914 3085 
Q 1427 3085 1075 2682 
Q 723 2272 723 1760 
L 723 0 
L 288 0 
L 288 3424 
L 691 3424 
L 710 2784 
Q 883 3046 1114 3219 
Q 1491 3501 1965 3501 
Q 2515 3501 2886 3168 
Q 3264 2842 3264 2291 
z
" transform="scale(0.015625)"/>
      </defs>
      <use xlink:href="#AppleGothic-74"/>
      <use xlink:href="#AppleGothic-69" transform="translate(34.199997 0)"/>
      <use xlink:href="#AppleGothic-6d" transform="translate(50.099991 0)"/>
      <use xlink:href="#AppleGothic-65" transform="translate(139.399979 0)"/>
      <use xlink:href="#AppleGothic-70" transform="translate(194.299973 0)"/>
      <use xlink:href="#AppleGothic-6f" transform="translate(249.699966 0)"/>
      <use xlink:href="#AppleGothic-69" transform="translate(307.999954 0)"/>
      <use xlink:href="#AppleGothic-6e" transform="translate(323.899948 0)"/>
      <use xlink:href="#AppleGothic-74" transform="translate(379.799942 0)"/>
     </g>
    </g>
   </g>
   <g id="matplotlib.axis_2">
    <g id="ytick_1">
     <g id="line2d_9">
      <path d="M 64.2925 281.588522 
L 510.6925 281.588522 
" clip-path="url(#pd4152057de)" style="fill: none; stroke: #ffffff; stroke-linecap: round"/>
     </g>
     <g id="text_10">
      <!-- -0.10 -->
      <g style="fill: #262626" transform="translate(23.0575 285.900866) scale(0.11 -0.11)">
       <defs>
        <path id="AppleGothic-2d" d="M 256 1958 
L 2349 1958 
L 2349 1491 
L 256 1491 
L 256 1958 
z
" transform="scale(0.015625)"/>
       </defs>
       <use xlink:href="#AppleGothic-2d"/>
       <use xlink:href="#AppleGothic-30" transform="translate(49.999985 0)"/>
       <use xlink:href="#AppleGothic-2e" transform="translate(117.999969 0)"/>
       <use xlink:href="#AppleGothic-31" transform="translate(152.499954 0)"/>
       <use xlink:href="#AppleGothic-30" transform="translate(220.499939 0)"/>
      </g>
     </g>
    </g>
    <g id="ytick_2">
     <g id="line2d_10">
      <path d="M 64.2925 248.612397 
L 510.6925 248.612397 
" clip-path="url(#pd4152057de)" style="fill: none; stroke: #ffffff; stroke-linecap: round"/>
     </g>
     <g id="text_11">
      <!-- -0.05 -->
      <g style="fill: #262626" transform="translate(23.0575 252.924741) scale(0.11 -0.11)">
       <use xlink:href="#AppleGothic-2d"/>
       <use xlink:href="#AppleGothic-30" transform="translate(49.999985 0)"/>
       <use xlink:href="#AppleGothic-2e" transform="translate(117.999969 0)"/>
       <use xlink:href="#AppleGothic-30" transform="translate(152.499954 0)"/>
       <use xlink:href="#AppleGothic-35" transform="translate(220.499939 0)"/>
      </g>
     </g>
    </g>
    <g id="ytick_3">
     <g id="line2d_11">
      <path d="M 64.2925 215.636272 
L 510.6925 215.636272 
" clip-path="url(#pd4152057de)" style="fill: none; stroke: #ffffff; stroke-linecap: round"/>
     </g>
     <g id="text_12">
      <!-- 0.00 -->
      <g style="fill: #262626" transform="translate(28.5575 219.948616) scale(0.11 -0.11)">
       <use xlink:href="#AppleGothic-30"/>
       <use xlink:href="#AppleGothic-2e" transform="translate(67.999985 0)"/>
       <use xlink:href="#AppleGothic-30" transform="translate(102.499969 0)"/>
       <use xlink:href="#AppleGothic-30" transform="translate(170.499954 0)"/>
      </g>
     </g>
    </g>
    <g id="ytick_4">
     <g id="line2d_12">
      <path d="M 64.2925 182.660148 
L 510.6925 182.660148 
" clip-path="url(#pd4152057de)" style="fill: none; stroke: #ffffff; stroke-linecap: round"/>
     </g>
     <g id="text_13">
      <!-- 0.05 -->
      <g style="fill: #262626" transform="translate(28.5575 186.972491) scale(0.11 -0.11)">
       <use xlink:href="#AppleGothic-30"/>
       <use xlink:href="#AppleGothic-2e" transform="translate(67.999985 0)"/>
       <use xlink:href="#AppleGothic-30" transform="translate(102.499969 0)"/>
       <use xlink:href="#AppleGothic-35" transform="translate(170.499954 0)"/>
      </g>
     </g>
    </g>
    <g id="ytick_5">
     <g id="line2d_13">
      <path d="M 64.2925 149.684023 
L 510.6925 149.684023 
" clip-path="url(#pd4152057de)" style="fill: none; stroke: #ffffff; stroke-linecap: round"/>
     </g>
     <g id="text_14">
      <!-- 0.10 -->
      <g style="fill: #262626" transform="translate(28.5575 153.996367) scale(0.11 -0.11)">
       <use xlink:href="#AppleGothic-30"/>
       <use xlink:href="#AppleGothic-2e" transform="translate(67.999985 0)"/>
       <use xlink:href="#AppleGothic-31" transform="translate(102.499969 0)"/>
       <use xlink:href="#AppleGothic-30" transform="translate(170.499954 0)"/>
      </g>
     </g>
    </g>
    <g id="ytick_6">
     <g id="line2d_14">
      <path d="M 64.2925 116.707898 
L 510.6925 116.707898 
" clip-path="url(#pd4152057de)" style="fill: none; stroke: #ffffff; stroke-linecap: round"/>
     </g>
     <g id="text_15">
      <!-- 0.15 -->
      <g style="fill: #262626" transform="translate(28.5575 121.020242) scale(0.11 -0.11)">
       <use xlink:href="#AppleGothic-30"/>
       <use xlink:href="#AppleGothic-2e" transform="translate(67.999985 0)"/>
       <use xlink:href="#AppleGothic-31" transform="translate(102.499969 0)"/>
       <use xlink:href="#AppleGothic-35" transform="translate(170.499954 0)"/>
      </g>
     </g>
    </g>
    <g id="ytick_7">
     <g id="line2d_15">
      <path d="M 64.2925 83.731773 
L 510.6925 83.731773 
" clip-path="url(#pd4152057de)" style="fill: none; stroke: #ffffff; stroke-linecap: round"/>
     </g>
     <g id="text_16">
      <!-- 0.20 -->
      <g style="fill: #262626" transform="translate(28.5575 88.044117) scale(0.11 -0.11)">
       <use xlink:href="#AppleGothic-30"/>
       <use xlink:href="#AppleGothic-2e" transform="translate(67.999985 0)"/>
       <use xlink:href="#AppleGothic-32" transform="translate(102.499969 0)"/>
       <use xlink:href="#AppleGothic-30" transform="translate(170.499954 0)"/>
      </g>
     </g>
    </g>
    <g id="ytick_8">
     <g id="line2d_16">
      <path d="M 64.2925 50.755648 
L 510.6925 50.755648 
" clip-path="url(#pd4152057de)" style="fill: none; stroke: #ffffff; stroke-linecap: round"/>
     </g>
     <g id="text_17">
      <!-- 0.25 -->
      <g style="fill: #262626" transform="translate(28.5575 55.067992) scale(0.11 -0.11)">
       <use xlink:href="#AppleGothic-30"/>
       <use xlink:href="#AppleGothic-2e" transform="translate(67.999985 0)"/>
       <use xlink:href="#AppleGothic-32" transform="translate(102.499969 0)"/>
       <use xlink:href="#AppleGothic-35" transform="translate(170.499954 0)"/>
      </g>
     </g>
    </g>
    <g id="text_18">
     <!-- signal -->
     <g style="fill: #262626" transform="translate(16.60875 176.2575) rotate(-90) scale(0.12 -0.12)">
      <defs>
       <path id="AppleGothic-73" d="M 224 294 
L 224 851 
Q 621 531 1030 403 
Q 1152 371 1267 355 
Q 1382 339 1504 339 
Q 1894 339 2150 518 
Q 2413 710 2413 947 
Q 2413 1075 2317 1210 
Q 2182 1376 1600 1510 
Q 909 1683 678 1798 
Q 230 2054 230 2515 
Q 230 2944 602 3219 
Q 979 3501 1542 3501 
Q 1798 3501 2003 3456 
Q 2208 3411 2387 3337 
Q 2566 3264 2720 3155 
L 2720 2598 
Q 2451 2822 2156 2953 
Q 1862 3085 1536 3085 
Q 1210 3085 973 2938 
Q 730 2790 730 2554 
Q 730 2240 1306 2054 
Q 1574 1978 1836 1901 
Q 2099 1824 2368 1747 
Q 2950 1498 2950 992 
Q 2950 563 2547 237 
Q 2138 -83 1530 -83 
Q 1261 -83 1005 -26 
Q 595 64 224 294 
z
" transform="scale(0.015625)"/>
       <path id="AppleGothic-67" d="M 2822 3040 
L 2950 3424 
L 3290 3424 
L 3290 326 
Q 3290 -474 2899 -890 
Q 2509 -1306 1690 -1306 
Q 1357 -1306 1059 -1187 
Q 762 -1069 435 -819 
L 435 -256 
Q 640 -448 838 -579 
Q 1037 -710 1229 -781 
Q 1453 -864 1690 -864 
Q 2195 -864 2477 -634 
Q 2822 -352 2822 269 
L 2822 691 
Q 2579 288 2221 122 
Q 1978 6 1683 6 
Q 1050 6 621 512 
Q 198 1030 198 1709 
Q 198 2387 595 2906 
Q 1056 3501 1773 3501 
Q 2131 3501 2451 3328 
Q 2547 3270 2640 3200 
Q 2733 3130 2822 3040 
z
M 2822 1658 
L 2822 2598 
Q 2714 2720 2602 2803 
Q 2490 2886 2381 2950 
Q 2253 3021 2118 3053 
Q 1984 3085 1843 3085 
Q 1363 3085 1050 2746 
Q 698 2362 698 1734 
Q 698 1165 992 794 
Q 1280 429 1741 429 
Q 2195 429 2509 781 
Q 2822 1120 2822 1658 
z
" transform="scale(0.015625)"/>
       <path id="AppleGothic-61" d="M 2950 2214 
L 2950 602 
Q 2950 493 2998 413 
Q 3046 333 3174 333 
Q 3213 333 3238 336 
Q 3264 339 3290 346 
Q 3328 358 3357 371 
Q 3386 384 3405 390 
L 3405 32 
Q 3290 -6 3174 -22 
Q 3059 -38 2995 -38 
Q 2669 -38 2566 134 
Q 2483 243 2483 602 
Q 2400 461 2317 355 
Q 2234 250 2150 179 
Q 1818 -83 1376 -83 
Q 909 -83 563 192 
Q 205 486 205 941 
Q 205 1510 781 1779 
Q 992 1882 1341 1958 
Q 1690 2035 2176 2099 
L 2483 2131 
Q 2483 2579 2256 2832 
Q 2029 3085 1587 3085 
Q 1421 3085 1257 3043 
Q 1094 3002 928 2912 
Q 838 2861 729 2790 
Q 621 2720 493 2611 
L 493 3136 
Q 1037 3501 1664 3501 
Q 2304 3501 2650 3098 
Q 2950 2746 2950 2214 
z
M 2483 1542 
L 2483 1747 
L 2266 1722 
Q 1466 1638 1139 1498 
Q 704 1325 704 934 
Q 704 819 755 713 
Q 806 608 896 525 
Q 986 442 1117 390 
Q 1248 339 1408 339 
Q 1843 339 2170 691 
Q 2483 1050 2483 1542 
z
" transform="scale(0.015625)"/>
       <path id="AppleGothic-6c" d="M 288 5018 
L 749 5018 
L 749 0 
L 288 0 
L 288 5018 
z
" transform="scale(0.015625)"/>
      </defs>
      <use xlink:href="#AppleGothic-73"/>
      <use xlink:href="#AppleGothic-69" transform="translate(49.599991 0)"/>
      <use xlink:href="#AppleGothic-67" transform="translate(65.499985 0)"/>
      <use xlink:href="#AppleGothic-6e" transform="translate(121.699982 0)"/>
      <use xlink:href="#AppleGothic-61" transform="translate(177.599976 0)"/>
      <use xlink:href="#AppleGothic-6c" transform="translate(234.09996 0)"/>
     </g>
    </g>
   </g>
   <g id="FillBetweenPolyCollection_1">
    <defs>
     <path id="mc8dbef58ef" d="M 84.583409 -125.031536 
L 84.583409 -109.33014 
L 107.128864 -100.31858 
L 129.674318 -106.970469 
L 152.219773 -141.842374 
L 174.765227 -199.808473 
L 197.310682 -245.743357 
L 219.856136 -249.175847 
L 242.401591 -205.942025 
L 264.947045 -150.534112 
L 287.4925 -99.219664 
L 310.037955 -70.193077 
L 332.583409 -56.354371 
L 355.128864 -55.290156 
L 377.674318 -62.750319 
L 400.219773 -75.24985 
L 422.765227 -85.69087 
L 445.310682 -91.643166 
L 467.856136 -93.507148 
L 490.401591 -94.078502 
L 490.401591 -110.204082 
L 490.401591 -110.204082 
L 467.856136 -109.522268 
L 445.310682 -107.489111 
L 422.765227 -102.704753 
L 400.219773 -96.315685 
L 377.674318 -86.290723 
L 355.128864 -80.584013 
L 332.583409 -81.490211 
L 310.037955 -99.349595 
L 287.4925 -141.035933 
L 264.947045 -205.028909 
L 242.401591 -268.352459 
L 219.856136 -307.290156 
L 197.310682 -300.468343 
L 174.765227 -245.85676 
L 152.219773 -175.900891 
L 129.674318 -127.414801 
L 107.128864 -116.918628 
L 84.583409 -125.031536 
z
" style="stroke: #4c72b0; stroke-opacity: 0.2"/>
    </defs>
    <g clip-path="url(#pd4152057de)">
     <use xlink:href="#mc8dbef58ef" x="0" y="342.498906" style="fill: #4c72b0; fill-opacity: 0.2; stroke: #4c72b0; stroke-opacity: 0.2"/>
    </g>
   </g>
   <g id="FillBetweenPolyCollection_2">
    <defs>
     <path id="m289e91fbe5" d="M 84.583409 -120.666031 
L 84.583409 -108.898161 
L 107.128864 -106.876202 
L 129.674318 -112.953717 
L 152.219773 -129.261017 
L 174.765227 -146.167077 
L 197.310682 -149.192687 
L 219.856136 -134.945626 
L 242.401591 -106.851036 
L 264.947045 -84.02739 
L 287.4925 -79.779855 
L 310.037955 -88.714798 
L 332.583409 -98.111527 
L 355.128864 -107.107466 
L 377.674318 -114.222707 
L 400.219773 -118.243224 
L 422.765227 -119.58315 
L 445.310682 -118.249809 
L 467.856136 -117.519745 
L 490.401591 -116.354924 
L 490.401591 -131.631808 
L 490.401591 -131.631808 
L 467.856136 -129.998185 
L 445.310682 -129.922809 
L 422.765227 -130.85101 
L 400.219773 -129.899081 
L 377.674318 -128.527188 
L 355.128864 -124.312063 
L 332.583409 -116.171148 
L 310.037955 -107.846473 
L 287.4925 -103.080361 
L 264.947045 -108.771332 
L 242.401591 -127.390144 
L 219.856136 -156.708739 
L 197.310682 -179.17978 
L 174.765227 -175.395969 
L 152.219773 -150.728721 
L 129.674318 -126.350543 
L 107.128864 -118.267022 
L 84.583409 -120.666031 
z
" style="stroke: #dd8452; stroke-opacity: 0.2"/>
    </defs>
    <g clip-path="url(#pd4152057de)">
     <use xlink:href="#m289e91fbe5" x="0" y="342.498906" style="fill: #dd8452; fill-opacity: 0.2; stroke: #dd8452; stroke-opacity: 0.2"/>
    </g>
   </g>
   <g id="line2d_17">
    <path d="M 84.583409 225.642681 
L 107.128864 234.135 
L 129.674318 225.473629 
L 152.219773 183.446553 
L 174.765227 119.94077 
L 197.310682 70.566395 
L 219.856136 65.674323 
L 242.401591 106.348043 
L 264.947045 168.242779 
L 287.4925 223.215332 
L 310.037955 258.071257 
L 332.583409 273.273137 
L 355.128864 273.90575 
L 377.674318 267.246872 
L 400.219773 257.005574 
L 422.765227 248.055439 
L 445.310682 242.718081 
L 467.856136 240.694215 
L 490.401591 241.152999 
" clip-path="url(#pd4152057de)" style="fill: none; stroke: #4c72b0; stroke-width: 1.5; stroke-linecap: round"/>
   </g>
   <g id="line2d_18">
    <path d="M 84.583409 227.607443 
L 107.128864 230.115858 
L 129.674318 222.779205 
L 152.219773 202.39024 
L 174.765227 181.809142 
L 197.310682 179.040148 
L 219.856136 197.399839 
L 242.401591 225.125751 
L 264.947045 245.328219 
L 287.4925 250.320621 
L 310.037955 244.014133 
L 332.583409 234.76055 
L 355.128864 226.650805 
L 377.674318 221.446563 
L 400.219773 218.666478 
L 422.765227 217.353794 
L 445.310682 218.120059 
L 467.856136 218.763803 
L 490.401591 218.963705 
" clip-path="url(#pd4152057de)" style="fill: none; stroke-dasharray: 6,2.25; stroke-dashoffset: 0; stroke: #dd8452; stroke-width: 1.5"/>
   </g>
   <g id="line2d_19"/>
   <g id="line2d_20"/>
   <g id="patch_3">
    <path d="M 64.2925 299.80875 
L 64.2925 22.60875 
" style="fill: none; stroke: #ffffff; stroke-width: 1.25; stroke-linejoin: miter; stroke-linecap: square"/>
   </g>
   <g id="patch_4">
    <path d="M 510.6925 299.80875 
L 510.6925 22.60875 
" style="fill: none; stroke: #ffffff; stroke-width: 1.25; stroke-linejoin: miter; stroke-linecap: square"/>
   </g>
   <g id="patch_5">
    <path d="M 64.2925 299.80875 
L 510.6925 299.80875 
" style="fill: none; stroke: #ffffff; stroke-width: 1.25; stroke-linejoin: miter; stroke-linecap: square"/>
   </g>
   <g id="patch_6">
    <path d="M 64.2925 22.60875 
L 510.6925 22.60875 
" style="fill: none; stroke: #ffffff; stroke-width: 1.25; stroke-linejoin: miter; stroke-linecap: square"/>
   </g>
   <g id="text_19">
    <!-- 자극(stim) vs 비자극(cue) 환자 그룹별 뇌파 흐름 비교 -->
    <g style="fill: #262626" transform="translate(138.745938 16.60875) scale(0.12 -0.12)">
     <defs>
      <path id="AppleGothic-c790" d="M 6010 2067 
L 5139 2067 
L 5126 1037 
L 5139 -531 
L 4653 -531 
L 4672 4717 
Q 4672 4960 4665 5056 
Q 4659 5152 4646 5190 
L 4832 5197 
Q 4966 5197 5078 5174 
Q 5190 5152 5190 5101 
Q 5190 5075 5164 4998 
Q 5139 4922 5139 4883 
L 5126 3968 
L 5139 2470 
L 6010 2483 
L 6010 2067 
z
M 4218 1158 
Q 4211 1120 4195 1107 
Q 4179 1094 4144 1072 
Q 4109 1050 4057 1008 
Q 4006 966 3930 883 
Q 3923 870 3885 832 
Q 3814 877 3760 909 
Q 3706 941 3661 973 
Q 3392 1158 3174 1369 
Q 2957 1581 2790 1818 
Q 2720 1914 2643 2045 
Q 2566 2176 2477 2349 
Q 2445 2406 2406 2486 
Q 2368 2566 2317 2662 
Q 2285 2592 2259 2534 
Q 2234 2477 2208 2426 
Q 2061 2157 1901 1926 
Q 1741 1696 1568 1510 
Q 1446 1382 1289 1235 
Q 1133 1088 928 922 
Q 858 864 736 768 
Q 685 819 666 832 
Q 582 915 531 934 
Q 326 1011 326 1050 
Q 326 1056 358 1088 
Q 371 1101 387 1110 
Q 403 1120 416 1133 
Q 538 1222 627 1292 
Q 717 1363 787 1414 
Q 1197 1741 1402 2003 
Q 1766 2458 1942 2922 
Q 2118 3386 2118 3936 
L 2106 4218 
L 1568 4224 
L 646 4198 
L 646 4640 
Q 960 4627 1347 4620 
Q 1734 4614 2144 4614 
L 2330 4614 
Q 2803 4614 3212 4627 
Q 3622 4640 4000 4659 
L 4000 4230 
L 3296 4237 
L 2592 4218 
Q 2579 4122 2576 4042 
Q 2573 3962 2566 3898 
Q 2554 3712 2547 3561 
Q 2541 3411 2541 3296 
Q 2592 2995 2778 2656 
Q 2861 2502 2969 2342 
Q 3078 2182 3213 2003 
Q 3334 1850 3472 1715 
Q 3610 1581 3757 1466 
Q 3808 1434 3872 1389 
Q 3936 1344 4019 1293 
Q 4026 1286 4128 1235 
Q 4218 1184 4218 1158 
z
" transform="scale(0.015625)"/>
      <path id="AppleGothic-adf9" d="M 5101 371 
L 5094 -403 
L 4672 -410 
L 4685 352 
Q 4685 563 4685 723 
Q 4685 883 4681 1001 
Q 4678 1120 4675 1206 
Q 4672 1293 4672 1363 
L 3098 1363 
Q 2829 1363 2486 1356 
Q 2144 1350 1734 1338 
Q 1600 1331 1424 1328 
Q 1248 1325 1024 1312 
L 1024 1747 
Q 1395 1734 1862 1724 
Q 2330 1715 2854 1715 
L 5088 1760 
L 5101 371 
z
M 6022 2547 
L 5619 2547 
Q 4090 2566 3821 2566 
Q 3437 2566 3126 2563 
Q 2816 2560 2573 2554 
Q 2112 2547 1427 2534 
Q 1088 2534 829 2531 
Q 570 2528 378 2528 
L 378 2906 
Q 755 2893 1267 2886 
Q 1779 2880 2515 2880 
L 2675 2880 
Q 3123 2880 3520 2889 
Q 3917 2899 4262 2912 
Q 4384 2912 4557 2931 
Q 4570 2995 4582 3043 
Q 4595 3091 4608 3136 
Q 4634 3258 4662 3414 
Q 4691 3571 4720 3740 
Q 4749 3910 4774 4083 
Q 4800 4256 4819 4416 
Q 4819 4442 4822 4467 
Q 4826 4493 4832 4525 
Q 4563 4538 4160 4544 
Q 3757 4550 3117 4550 
L 2995 4550 
Q 2445 4550 1917 4537 
Q 1389 4525 954 4512 
L 954 4909 
Q 1062 4909 1289 4905 
Q 1517 4902 1875 4896 
Q 2234 4890 2470 4890 
Q 2707 4890 2829 4890 
L 5306 4896 
Q 5306 4646 5190 3910 
Q 5126 3539 5078 3296 
Q 5030 3053 4986 2931 
L 5197 2944 
L 5446 2925 
L 6022 2931 
L 6022 2547 
z
" transform="scale(0.015625)"/>
      <path id="AppleGothic-28" d="M 2227 5261 
L 2650 5261 
Q 2342 4768 2169 4473 
Q 1997 4179 1958 4083 
Q 1606 3283 1606 2272 
Q 1606 1587 1754 1018 
Q 1882 570 2138 102 
Q 2150 70 2275 -131 
Q 2400 -333 2630 -717 
L 2227 -717 
Q 2099 -531 1980 -355 
Q 1862 -179 1734 0 
Q 1581 243 1469 483 
Q 1357 723 1274 954 
Q 1069 1587 1069 2272 
Q 1069 2963 1261 3558 
Q 1338 3789 1450 4022 
Q 1562 4256 1715 4499 
Q 1843 4691 1971 4880 
Q 2099 5069 2227 5261 
z
" transform="scale(0.015625)"/>
      <path id="AppleGothic-29" d="M 2221 2272 
Q 2221 1587 2016 960 
Q 1862 499 1555 6 
Q 1427 -179 1305 -355 
Q 1184 -531 1062 -717 
L 659 -717 
Q 781 -512 902 -310 
Q 1024 -109 1152 96 
Q 1280 333 1376 557 
Q 1472 781 1530 1005 
Q 1683 1562 1683 2272 
Q 1683 2650 1641 2973 
Q 1600 3296 1517 3584 
Q 1459 3802 1356 4029 
Q 1254 4256 1120 4499 
Q 992 4691 873 4880 
Q 755 5069 640 5261 
L 1062 5261 
Q 1190 5069 1315 4880 
Q 1440 4691 1568 4506 
Q 1722 4256 1837 4022 
Q 1952 3789 2022 3565 
Q 2221 2976 2221 2272 
z
" transform="scale(0.015625)"/>
      <path id="AppleGothic-20" transform="scale(0.015625)"/>
      <path id="AppleGothic-76" d="M 109 3424 
L 627 3424 
L 1715 486 
L 2829 3424 
L 3290 3424 
L 1920 0 
L 1478 0 
L 109 3424 
z
" transform="scale(0.015625)"/>
      <path id="AppleGothic-be44" d="M 2963 2157 
L 2957 2893 
L 954 2893 
L 973 1453 
L 1952 1434 
L 2957 1453 
L 2963 2157 
z
M 5453 5094 
Q 5453 5069 5433 5005 
Q 5414 4941 5414 4922 
L 5414 4416 
Q 5395 2554 5395 2253 
Q 5395 1357 5408 681 
Q 5421 6 5440 -557 
L 4941 -570 
Q 4947 -390 4947 -124 
Q 4947 141 4954 493 
Q 4960 851 4960 1129 
Q 4960 1408 4960 1613 
L 4960 2266 
Q 4960 2554 4957 2822 
Q 4954 3091 4947 3354 
Q 4941 3622 4937 3884 
Q 4934 4147 4934 4416 
Q 4928 4947 4915 5190 
L 5114 5197 
Q 5248 5197 5350 5174 
Q 5453 5152 5453 5094 
z
M 3450 1043 
L 506 1043 
L 518 2720 
Q 518 3360 512 3757 
Q 506 4154 493 4429 
L 877 4410 
Q 986 4410 986 4333 
Q 986 4307 970 4243 
Q 954 4179 954 4160 
L 954 3296 
Q 1114 3290 1344 3286 
Q 1574 3283 1971 3283 
L 2957 3296 
L 2938 4480 
L 3194 4486 
Q 3322 4486 3386 4467 
Q 3450 4448 3450 4390 
Q 3450 4371 3437 4313 
Q 3424 4256 3424 4230 
L 3418 3085 
Q 3418 2566 3424 2057 
Q 3430 1549 3450 1043 
z
" transform="scale(0.015625)"/>
      <path id="AppleGothic-63" d="M 3085 3123 
L 3085 2522 
Q 2726 2861 2349 3008 
Q 2240 3053 2125 3069 
Q 2010 3085 1894 3085 
Q 1363 3085 1024 2688 
Q 685 2278 685 1715 
Q 685 1139 1037 730 
Q 1389 339 1920 339 
Q 2253 339 2528 483 
Q 2803 627 3085 915 
L 3085 307 
Q 2746 96 2470 6 
Q 2195 -83 1914 -83 
Q 1197 -83 685 429 
Q 186 960 186 1709 
Q 186 2445 678 2976 
Q 1178 3501 1920 3501 
Q 2298 3501 2624 3373 
Q 2816 3302 3085 3123 
z
" transform="scale(0.015625)"/>
      <path id="AppleGothic-75" d="M 262 3424 
L 730 3424 
L 730 1242 
Q 730 877 941 627 
Q 1171 339 1594 339 
Q 2080 339 2426 730 
Q 2784 1139 2784 1632 
L 2784 3424 
L 3245 3424 
L 3245 0 
L 2842 0 
L 2810 582 
Q 2707 442 2592 330 
Q 2477 218 2342 134 
Q 1984 -83 1555 -83 
Q 966 -83 614 282 
Q 262 653 262 1184 
L 262 3424 
z
" transform="scale(0.015625)"/>
      <path id="AppleGothic-d658" d="M 3379 3123 
Q 3379 3309 3193 3408 
Q 3008 3507 2528 3507 
L 2362 3507 
Q 2022 3507 1856 3443 
Q 1619 3354 1619 3123 
Q 1619 2938 1862 2842 
Q 2106 2746 2554 2746 
Q 2694 2746 2816 2762 
Q 2938 2778 3053 2810 
Q 3379 2912 3379 3123 
z
M 5331 -275 
L 4992 -275 
Q 3725 -256 3494 -256 
Q 2816 -256 2272 -262 
Q 1728 -269 1306 -282 
L 1325 538 
L 1312 1274 
L 1414 1274 
Q 1581 1274 1699 1254 
Q 1818 1235 1818 1165 
Q 1818 1139 1792 1062 
Q 1766 986 1766 947 
L 1766 134 
L 5331 134 
L 5331 -275 
z
M 4397 1754 
Q 4243 1734 4112 1715 
Q 3981 1696 3872 1683 
Q 3526 1638 3187 1619 
Q 2848 1600 2502 1600 
Q 2291 1600 2032 1590 
Q 1773 1581 1459 1555 
Q 1306 1542 1158 1529 
Q 1011 1517 864 1504 
Q 819 1504 736 1481 
Q 653 1459 634 1459 
Q 570 1459 534 1574 
Q 499 1690 499 1894 
L 1069 1882 
L 1338 1882 
L 2323 1926 
L 2310 2438 
Q 2093 2451 1910 2502 
Q 1728 2554 1574 2630 
Q 1235 2816 1235 3123 
Q 1235 3533 1734 3699 
Q 2067 3814 2522 3814 
Q 2963 3814 3283 3699 
Q 3763 3526 3763 3123 
Q 3763 2746 3277 2566 
Q 3014 2515 2883 2489 
Q 2752 2464 2739 2458 
L 2733 1946 
Q 2918 1958 3129 1964 
Q 3341 1971 3565 1997 
L 4365 2080 
L 4397 1754 
z
M 6035 2438 
L 5510 2458 
L 5120 2438 
L 5126 1024 
L 4666 998 
Q 4678 1146 4681 1290 
Q 4685 1434 4691 1574 
Q 4698 1722 4701 1917 
Q 4704 2112 4704 2362 
Q 4704 2662 4704 2963 
Q 4704 3264 4698 3590 
Q 4691 3917 4691 4192 
Q 4691 4467 4685 4704 
Q 4685 5190 4678 5190 
L 4800 5190 
Q 4966 5190 5075 5174 
Q 5184 5158 5184 5101 
Q 5184 5075 5155 4998 
Q 5126 4922 5126 4877 
L 5114 4006 
L 5120 2797 
L 5523 2790 
L 6035 2803 
L 6035 2438 
z
M 4256 4038 
Q 3891 4051 3430 4064 
Q 2970 4077 2464 4077 
L 2330 4077 
Q 1926 4077 1529 4064 
Q 1133 4051 813 4038 
L 813 4429 
Q 1114 4416 1491 4406 
Q 1869 4397 2285 4397 
L 2432 4397 
Q 2938 4397 3408 4406 
Q 3878 4416 4256 4429 
L 4256 4038 
z
M 3238 4742 
L 1824 4742 
L 1824 5107 
L 2528 5094 
L 3238 5107 
L 3238 4742 
z
" transform="scale(0.015625)"/>
      <path id="AppleGothic-adf8" d="M 6042 218 
Q 5856 224 5709 224 
Q 5562 224 5446 224 
Q 4614 237 4060 243 
Q 3507 250 3219 250 
Q 2362 250 1677 243 
Q 992 237 365 218 
L 365 666 
L 787 666 
Q 1376 653 1769 646 
Q 2163 640 2368 640 
L 4358 646 
Q 4390 819 4416 956 
Q 4442 1094 4461 1203 
Q 4531 1587 4579 1849 
Q 4627 2112 4653 2266 
Q 4672 2426 4694 2608 
Q 4717 2790 4742 3002 
Q 4787 3354 4806 3562 
Q 4826 3770 4826 3834 
L 3322 3846 
L 909 3814 
L 909 4224 
Q 1011 4224 1235 4221 
Q 1459 4218 1805 4211 
Q 2150 4205 2352 4205 
Q 2554 4205 2605 4205 
L 5325 4218 
Q 5312 4019 5299 3862 
Q 5286 3706 5274 3578 
Q 5242 3232 5206 2928 
Q 5171 2624 5120 2349 
Q 5075 2080 5027 1808 
Q 4979 1536 4928 1248 
Q 4909 1139 4880 992 
Q 4851 845 4806 646 
L 6042 659 
L 6042 218 
z
" transform="scale(0.015625)"/>
      <path id="AppleGothic-b8f9" d="M 4614 64 
L 4614 691 
L 3194 704 
Q 2938 704 2739 704 
Q 2541 704 2394 698 
Q 2246 698 2105 694 
Q 1965 691 1818 685 
L 1818 51 
L 3245 38 
Q 3514 38 3725 38 
Q 3936 38 4099 41 
Q 4262 45 4387 51 
Q 4512 58 4614 64 
z
M 5126 1549 
L 5101 1280 
L 5088 467 
Q 5088 288 5088 150 
Q 5088 13 5094 -96 
Q 5101 -205 5104 -297 
Q 5107 -390 5120 -474 
L 4595 -461 
L 4595 -269 
L 3251 -262 
L 1830 -282 
L 1818 -461 
L 1344 -480 
Q 1357 -294 1363 -57 
Q 1370 179 1370 506 
Q 1370 736 1366 915 
Q 1363 1094 1356 1228 
Q 1350 1363 1344 1465 
Q 1338 1568 1331 1651 
Q 1504 1645 1690 1613 
Q 1869 1594 1869 1523 
Q 1869 1498 1843 1424 
Q 1818 1350 1818 1312 
L 1818 1018 
L 3194 1005 
L 4614 1018 
L 4614 1408 
L 4589 1670 
L 5062 1626 
Q 5126 1626 5126 1549 
z
M 5984 2029 
Q 5875 2035 5785 2038 
Q 5696 2042 5619 2042 
Q 5024 2061 4691 2061 
L 3386 2061 
L 3392 1389 
L 2950 1389 
L 2957 2054 
L 1651 2054 
L 403 2016 
L 403 2413 
Q 531 2400 1062 2394 
Q 1331 2387 1849 2387 
Q 2368 2387 3142 2387 
Q 3360 2387 3574 2387 
Q 3789 2387 4013 2394 
Q 4454 2400 5088 2413 
Q 5408 2426 5632 2429 
Q 5856 2432 5984 2438 
L 5984 2029 
z
M 5107 2970 
Q 4736 2982 4294 2988 
Q 3853 2995 3443 2995 
L 3206 2995 
Q 2694 2995 2198 2988 
Q 1702 2982 1299 2970 
L 1318 3539 
L 1299 4154 
Q 1395 4154 1606 4150 
Q 1818 4147 2150 4141 
Q 2483 4134 2694 4134 
Q 2906 4134 2995 4134 
L 4621 4147 
L 4621 4666 
L 2790 4666 
L 1805 4666 
Q 1651 4659 1513 4656 
Q 1376 4653 1248 4640 
L 1248 4992 
Q 1658 4979 2147 4972 
Q 2637 4966 3085 4966 
L 5050 4986 
L 5030 4358 
L 5050 3840 
L 1741 3853 
L 1741 3296 
L 3469 3290 
Q 3891 3290 4176 3290 
Q 4461 3290 4614 3296 
Q 4768 3302 4889 3305 
Q 5011 3309 5107 3322 
L 5107 2970 
z
" transform="scale(0.015625)"/>
      <path id="AppleGothic-bcc4" d="M 3027 2739 
L 3027 3680 
L 2150 3693 
L 1293 3680 
L 1293 2739 
L 2144 2720 
L 3027 2739 
z
M 5440 -531 
Q 5178 -525 4906 -518 
Q 4634 -512 4339 -506 
Q 4038 -499 3801 -496 
Q 3565 -493 3379 -493 
L 1446 -493 
Q 1453 -422 1456 -336 
Q 1459 -250 1466 -141 
Q 1466 -45 1469 19 
Q 1472 83 1472 115 
L 1459 762 
L 3354 749 
L 4845 774 
L 4845 1382 
L 1446 1370 
L 1446 1734 
Q 1658 1734 1888 1728 
Q 2118 1722 2374 1715 
Q 2630 1709 2864 1705 
Q 3098 1702 3322 1702 
L 5299 1715 
L 5280 1094 
L 5293 410 
L 3373 429 
L 1901 416 
L 1901 -128 
Q 1978 -134 2134 -134 
Q 2291 -134 2522 -134 
Q 2752 -141 2969 -144 
Q 3187 -147 3392 -147 
Q 3846 -147 4380 -137 
Q 4915 -128 5440 -109 
L 5440 -531 
z
M 5440 5062 
Q 5440 5024 5414 4937 
Q 5389 4851 5389 4813 
Q 5382 4589 5372 4224 
Q 5363 3859 5363 3334 
Q 5363 3008 5363 2784 
Q 5363 2560 5370 2445 
Q 5376 2323 5376 2220 
Q 5376 2118 5382 2029 
L 4922 2029 
Q 4941 2189 4941 2394 
L 4941 2822 
L 3878 2803 
L 3878 3174 
L 4941 3162 
L 4941 3917 
L 3859 3904 
L 3859 4269 
L 4941 4256 
L 4941 4685 
Q 4941 4909 4934 5021 
Q 4928 5133 4915 5190 
L 5056 5190 
Q 5222 5190 5331 5164 
Q 5440 5139 5440 5062 
z
M 3488 4877 
L 3469 4710 
L 3456 3462 
L 3469 2362 
L 851 2362 
Q 851 2630 857 2944 
Q 864 3258 870 3578 
Q 870 3853 870 4061 
Q 870 4269 864 4416 
Q 858 4570 858 4704 
Q 858 4838 851 4966 
L 979 4966 
Q 1146 4966 1242 4950 
Q 1338 4934 1338 4864 
Q 1338 4838 1315 4761 
Q 1293 4685 1293 4653 
L 1293 4051 
L 2157 4032 
L 3027 4051 
L 3014 4998 
L 3072 4998 
Q 3264 4998 3376 4976 
Q 3488 4954 3488 4877 
z
" transform="scale(0.015625)"/>
      <path id="AppleGothic-b1cc" d="M 5414 5062 
Q 5414 5050 5402 4986 
Q 5370 4858 5370 4794 
L 5376 4467 
L 5357 2323 
L 5357 -493 
L 4909 -518 
L 4928 1094 
L 2643 960 
L 902 890 
Q 851 877 803 864 
Q 755 851 704 838 
Q 602 838 531 1101 
Q 506 1197 506 1286 
L 2470 1357 
L 2483 2035 
L 2470 2733 
L 1018 2720 
L 1030 3482 
L 1018 4621 
L 1082 4621 
Q 1267 4621 1392 4595 
Q 1517 4570 1517 4480 
Q 1517 4422 1510 4403 
Q 1478 4256 1478 4250 
L 1478 3078 
Q 2042 3078 3053 3098 
Q 3552 3110 3872 3116 
Q 4192 3123 4339 3123 
L 4339 2733 
L 2912 2726 
L 2899 2042 
L 2912 1376 
Q 2976 1382 3024 1382 
Q 3072 1382 3110 1382 
Q 3392 1395 3581 1401 
Q 3770 1408 3872 1408 
L 4928 1472 
L 4928 4499 
L 4915 5190 
Q 5011 5190 5100 5187 
Q 5190 5184 5260 5168 
Q 5331 5152 5372 5126 
Q 5414 5101 5414 5062 
z
" transform="scale(0.015625)"/>
      <path id="AppleGothic-d30c" d="M 4333 1203 
Q 3994 1139 3674 1107 
Q 3405 1082 3113 1069 
Q 2822 1056 2515 1056 
Q 2234 1056 2006 1049 
Q 1779 1043 1594 1030 
Q 1408 1018 1222 1005 
Q 1037 992 845 979 
Q 826 979 678 947 
Q 627 934 589 934 
Q 493 934 435 1107 
Q 384 1293 384 1402 
L 928 1382 
Q 1152 1382 1261 1385 
Q 1370 1389 1466 1402 
L 1370 2349 
Q 1357 2490 1334 2669 
Q 1312 2848 1286 3066 
Q 1280 3136 1267 3235 
Q 1254 3334 1235 3462 
L 1645 3475 
Q 1779 3475 1779 3386 
L 1760 3226 
L 1901 1421 
Q 1997 1421 2086 1424 
Q 2176 1427 2259 1434 
Q 2534 1459 2681 1465 
Q 2829 1472 2848 1472 
L 2957 2406 
Q 3002 2778 3014 3056 
Q 3027 3334 3034 3501 
L 3450 3443 
Q 3565 3424 3565 3366 
Q 3565 3334 3526 3264 
Q 3488 3194 3488 3174 
L 3258 1498 
L 4307 1587 
L 4333 1203 
z
M 6042 2048 
L 5139 2054 
L 5165 -506 
L 4659 -506 
Q 4659 -390 4659 -214 
Q 4659 -38 4666 192 
Q 4666 422 4669 710 
Q 4672 998 4678 1344 
Q 4685 1690 4688 1949 
Q 4691 2208 4691 2381 
Q 4691 3066 4691 3523 
Q 4691 3981 4685 4224 
Q 4678 5190 4659 5190 
L 4755 5190 
Q 4922 5190 5056 5168 
Q 5190 5146 5190 5075 
Q 5190 5043 5168 4950 
Q 5146 4858 5146 4813 
L 5133 4070 
L 5146 2458 
L 6042 2458 
L 6042 2048 
z
M 4026 4026 
L 2438 4045 
Q 2061 4045 1789 4045 
Q 1517 4045 1350 4038 
Q 1184 4038 1027 4035 
Q 870 4032 723 4026 
L 723 4442 
Q 806 4435 873 4435 
Q 941 4435 992 4435 
Q 1434 4422 1786 4412 
Q 2138 4403 2419 4403 
Q 2758 4403 3011 4406 
Q 3264 4410 3430 4416 
Q 3603 4422 3750 4428 
Q 3898 4435 4026 4448 
L 4026 4026 
z
" transform="scale(0.015625)"/>
      <path id="AppleGothic-d750" d="M 4422 2266 
Q 4422 2509 4128 2640 
Q 3834 2771 3194 2771 
Q 2464 2771 2202 2592 
Q 2022 2490 2022 2266 
Q 2022 1984 2387 1843 
Q 2547 1779 2755 1753 
Q 2963 1728 3232 1728 
Q 3853 1728 4137 1872 
Q 4422 2016 4422 2266 
z
M 5997 224 
Q 5472 237 4825 243 
Q 4179 250 3501 250 
L 3187 250 
Q 2944 250 2704 250 
Q 2464 250 2240 243 
Q 2010 237 1667 230 
Q 1325 224 877 211 
Q 755 205 640 205 
Q 525 205 403 198 
L 403 685 
Q 480 685 643 681 
Q 806 678 1069 672 
Q 1331 666 1619 666 
Q 1907 666 2234 659 
Q 2560 653 2793 653 
Q 3027 653 3162 653 
Q 3398 653 3628 653 
Q 3859 653 4090 659 
Q 4320 666 4579 666 
Q 4838 666 5146 672 
Q 5446 685 5657 688 
Q 5869 691 5997 698 
L 5997 224 
z
M 4864 2246 
Q 4864 1818 4493 1581 
Q 4077 1325 3226 1325 
Q 2515 1325 2067 1523 
Q 1542 1773 1542 2291 
Q 1542 2752 1974 2963 
Q 2406 3174 3206 3174 
Q 4864 3174 4864 2246 
z
M 5434 3494 
Q 5274 3501 5152 3501 
Q 5030 3501 4934 3501 
Q 4250 3514 3802 3520 
Q 3354 3526 3142 3526 
Q 2451 3526 1894 3510 
Q 1338 3494 960 3482 
L 960 3955 
Q 1197 3949 1481 3942 
Q 1766 3936 2099 3930 
Q 2432 3923 2681 3923 
Q 2931 3923 3098 3923 
Q 3814 3923 4374 3936 
Q 4934 3949 5434 3968 
L 5434 3494 
z
M 4083 4320 
Q 4038 4320 3920 4323 
Q 3802 4326 3610 4333 
Q 3226 4352 3149 4352 
Q 2899 4352 2688 4336 
Q 2477 4320 2323 4307 
L 2317 4755 
L 3142 4749 
Q 3386 4749 3600 4758 
Q 3814 4768 4083 4781 
L 4083 4320 
z
" transform="scale(0.015625)"/>
      <path id="AppleGothic-b984" d="M 4691 13 
L 4691 1056 
L 3533 1062 
L 1811 1050 
L 1811 6 
L 3290 -13 
Q 3827 -13 4150 -6 
Q 4474 0 4691 13 
z
M 5158 -480 
L 4685 -493 
L 4685 -320 
L 3264 -314 
L 1811 -326 
L 1811 -486 
L 1363 -506 
L 1395 378 
L 1395 1382 
L 3270 1370 
Q 3955 1370 4393 1376 
Q 4832 1382 5133 1395 
L 5126 710 
L 5158 -480 
z
M 5997 1965 
Q 5786 1971 5456 1971 
Q 5126 1971 4685 1978 
Q 4243 1984 3875 1984 
Q 3507 1984 3213 1984 
Q 2771 1984 2444 1984 
Q 2118 1984 1888 1978 
Q 1664 1978 1443 1971 
Q 1222 1965 1024 1961 
Q 826 1958 666 1952 
Q 506 1946 403 1946 
L 403 2291 
Q 410 2291 515 2288 
Q 621 2285 826 2278 
Q 1037 2278 1273 2275 
Q 1510 2272 1798 2269 
Q 2086 2266 2432 2266 
Q 2778 2266 3200 2266 
Q 3718 2266 4214 2272 
Q 4710 2278 5190 2291 
Q 5517 2298 5997 2330 
L 5997 1965 
z
M 5133 2803 
Q 4947 2810 4736 2810 
Q 4525 2810 4282 2810 
Q 4038 2816 3843 2816 
Q 3648 2816 3501 2816 
L 1286 2803 
L 1306 3443 
Q 1306 3578 1306 3670 
Q 1306 3763 1302 3833 
Q 1299 3904 1296 3955 
Q 1293 4006 1286 4064 
Q 1395 4058 1548 4058 
Q 1702 4058 1914 4051 
Q 2125 4045 2304 4045 
Q 2483 4045 2630 4045 
L 4640 4045 
L 4640 4634 
L 3226 4640 
Q 2605 4640 2131 4627 
Q 1658 4614 1299 4602 
L 1299 4947 
L 3590 4941 
L 4518 4941 
Q 4806 4947 5056 4960 
L 5043 4403 
L 5056 3738 
L 4019 3750 
Q 3872 3750 3673 3747 
Q 3475 3744 3232 3738 
L 1760 3738 
L 1760 3117 
L 3507 3117 
Q 3859 3117 4192 3126 
Q 4525 3136 4851 3149 
Q 4960 3149 5133 3168 
L 5133 2803 
z
" transform="scale(0.015625)"/>
      <path id="AppleGothic-ad50" d="M 6048 250 
Q 5958 250 5804 250 
Q 5651 250 5440 256 
Q 5229 262 4950 268 
Q 4672 275 4326 282 
Q 3981 288 3715 291 
Q 3450 294 3258 294 
Q 2976 294 2630 288 
Q 2285 282 1862 269 
Q 1440 256 1177 249 
Q 915 243 806 237 
Q 595 224 346 218 
L 346 666 
Q 493 653 691 643 
Q 890 634 1216 634 
L 1818 640 
L 1830 2464 
Q 1830 2592 1824 2691 
Q 1818 2790 1805 2842 
L 2067 2822 
Q 2291 2797 2291 2752 
Q 2291 2739 2265 2659 
Q 2240 2579 2240 2528 
L 2240 653 
L 3437 653 
L 3430 2451 
Q 3430 2566 3430 2636 
Q 3430 2707 3424 2739 
Q 3424 2771 3421 2796 
Q 3418 2822 3411 2848 
Q 3482 2842 3546 2842 
Q 3610 2842 3680 2835 
Q 3904 2810 3904 2765 
Q 3904 2746 3872 2656 
Q 3840 2566 3840 2515 
L 3840 653 
L 6048 672 
L 6048 250 
z
M 5306 4608 
L 5306 4448 
Q 5306 2970 4992 1459 
L 4563 1523 
Q 4589 1651 4608 1750 
Q 4627 1850 4640 1933 
Q 4678 2189 4713 2409 
Q 4749 2630 4774 2822 
Q 4774 3206 4787 3542 
Q 4800 3878 4819 4179 
L 3642 4192 
L 947 4147 
L 947 4589 
L 2528 4576 
L 5306 4608 
z
" transform="scale(0.015625)"/>
     </defs>
     <use xlink:href="#AppleGothic-c790"/>
     <use xlink:href="#AppleGothic-adf9" transform="translate(99.999985 0)"/>
     <use xlink:href="#AppleGothic-28" transform="translate(199.999969 0)"/>
     <use xlink:href="#AppleGothic-73" transform="translate(249.999954 0)"/>
     <use xlink:href="#AppleGothic-74" transform="translate(299.599945 0)"/>
     <use xlink:href="#AppleGothic-69" transform="translate(333.799942 0)"/>
     <use xlink:href="#AppleGothic-6d" transform="translate(349.699936 0)"/>
     <use xlink:href="#AppleGothic-29" transform="translate(438.999924 0)"/>
     <use xlink:href="#AppleGothic-20" transform="translate(488.999908 0)"/>
     <use xlink:href="#AppleGothic-76" transform="translate(520.999893 0)"/>
     <use xlink:href="#AppleGothic-73" transform="translate(575.19989 0)"/>
     <use xlink:href="#AppleGothic-20" transform="translate(624.799881 0)"/>
     <use xlink:href="#AppleGothic-be44" transform="translate(656.799866 0)"/>
     <use xlink:href="#AppleGothic-c790" transform="translate(756.79985 0)"/>
     <use xlink:href="#AppleGothic-adf9" transform="translate(856.799835 0)"/>
     <use xlink:href="#AppleGothic-28" transform="translate(956.79982 0)"/>
     <use xlink:href="#AppleGothic-63" transform="translate(1006.799805 0)"/>
     <use xlink:href="#AppleGothic-75" transform="translate(1058.699799 0)"/>
     <use xlink:href="#AppleGothic-65" transform="translate(1114.199783 0)"/>
     <use xlink:href="#AppleGothic-29" transform="translate(1169.099777 0)"/>
     <use xlink:href="#AppleGothic-20" transform="translate(1219.099762 0)"/>
     <use xlink:href="#AppleGothic-d658" transform="translate(1251.099747 0)"/>
     <use xlink:href="#AppleGothic-c790" transform="translate(1351.099731 0)"/>
     <use xlink:href="#AppleGothic-20" transform="translate(1451.099716 0)"/>
     <use xlink:href="#AppleGothic-adf8" transform="translate(1483.099701 0)"/>
     <use xlink:href="#AppleGothic-b8f9" transform="translate(1583.099686 0)"/>
     <use xlink:href="#AppleGothic-bcc4" transform="translate(1683.09967 0)"/>
     <use xlink:href="#AppleGothic-20" transform="translate(1783.099655 0)"/>
     <use xlink:href="#AppleGothic-b1cc" transform="translate(1815.09964 0)"/>
     <use xlink:href="#AppleGothic-d30c" transform="translate(1915.099625 0)"/>
     <use xlink:href="#AppleGothic-20" transform="translate(2015.099609 0)"/>
     <use xlink:href="#AppleGothic-d750" transform="translate(2047.099594 0)"/>
     <use xlink:href="#AppleGothic-b984" transform="translate(2147.099579 0)"/>
     <use xlink:href="#AppleGothic-20" transform="translate(2247.099564 0)"/>
     <use xlink:href="#AppleGothic-be44" transform="translate(2279.099548 0)"/>
     <use xlink:href="#AppleGothic-ad50" transform="translate(2379.099533 0)"/>
    </g>
   </g>
   <g id="legend_1">
    <g id="patch_7">
     <path d="M 447.0025 80.415937 
L 502.9925 80.415937 
Q 505.1925 80.415937 505.1925 78.215937 
L 505.1925 30.30875 
Q 505.1925 28.10875 502.9925 28.10875 
L 447.0025 28.10875 
Q 444.8025 28.10875 444.8025 30.30875 
L 444.8025 78.215937 
Q 444.8025 80.415937 447.0025 80.415937 
z
" style="fill: #eaeaf2; opacity: 0.8; stroke: #cccccc; stroke-linejoin: miter"/>
    </g>
    <g id="text_20">
     <!-- event -->
     <g style="fill: #262626" transform="translate(459.75 41.9175) scale(0.12 -0.12)">
      <use xlink:href="#AppleGothic-65"/>
      <use xlink:href="#AppleGothic-76" transform="translate(54.899994 0)"/>
      <use xlink:href="#AppleGothic-65" transform="translate(109.099991 0)"/>
      <use xlink:href="#AppleGothic-6e" transform="translate(163.999985 0)"/>
      <use xlink:href="#AppleGothic-74" transform="translate(219.899979 0)"/>
     </g>
    </g>
    <g id="line2d_21">
     <path d="M 449.2025 54.256562 
L 460.2025 54.256562 
L 471.2025 54.256562 
" style="fill: none; stroke: #4c72b0; stroke-width: 1.5; stroke-linecap: round"/>
    </g>
    <g id="text_21">
     <!-- stim -->
     <g style="fill: #262626" transform="translate(480.0025 58.106562) scale(0.11 -0.11)">
      <use xlink:href="#AppleGothic-73"/>
      <use xlink:href="#AppleGothic-74" transform="translate(49.599991 0)"/>
      <use xlink:href="#AppleGothic-69" transform="translate(83.799988 0)"/>
      <use xlink:href="#AppleGothic-6d" transform="translate(99.699982 0)"/>
     </g>
    </g>
    <g id="line2d_22">
     <path d="M 449.2025 70.273594 
L 460.2025 70.273594 
L 471.2025 70.273594 
" style="fill: none; stroke-dasharray: 6,2.25; stroke-dashoffset: 0; stroke: #dd8452; stroke-width: 1.5"/>
    </g>
    <g id="text_22">
     <!-- cue -->
     <g style="fill: #262626" transform="translate(480.0025 74.123594) scale(0.11 -0.11)">
      <use xlink:href="#AppleGothic-63"/>
      <use xlink:href="#AppleGothic-75" transform="translate(51.899994 0)"/>
      <use xlink:href="#AppleGothic-65" transform="translate(107.399979 0)"/>
     </g>
    </g>
   </g>
  </g>
 </g>
 <defs>
  <clipPath id="pd4152057de">
   <rect x="64.2925" y="22.60875" width="446.4" height="277.2"/>
  </clipPath>
 </defs>
</svg>
