<?xml version="1.0" encoding="utf-8" standalone="no"?>
<!DOCTYPE svg PUBLIC "-//W3C//DTD SVG 1.1//EN"
  "http://www.w3.org/Graphics/SVG/1.1/DTD/svg11.dtd">
<svg xmlns:xlink="http://www.w3.org/1999/xlink" width="620.860937pt" height="393.535625pt" viewBox="0 0 620.860937 393.535625" xmlns="http://www.w3.org/2000/svg" version="1.1">
 <metadata>
  <rdf:RDF xmlns:dc="http://purl.org/dc/elements/1.1/" xmlns:cc="http://creativecommons.org/ns#" xmlns:rdf="http://www.w3.org/1999/02/22-rdf-syntax-ns#">
   <cc:Work>
    <dc:type rdf:resource="http://purl.org/dc/dcmitype/StillImage"/>
    <dc:date>2026-05-22T02:33:53.524338</dc:date>
    <dc:format>image/svg+xml</dc:format>
    <dc:creator>
     <cc:Agent>
      <dc:title>Matplotlib v3.10.9, https://matplotlib.org/</dc:title>
     </cc:Agent>
    </dc:creator>
   </cc:Work>
  </rdf:RDF>
 </metadata>
 <defs>
  <style type="text/css">*{stroke-linejoin: round; stroke-linecap: butt}</style>
 </defs>
 <g id="figure_1">
  <g id="patch_1">
   <path d="M 0 393.535625 
L 620.860937 393.535625 
L 620.860937 0 
L 0 0 
z
" style="fill: #ffffff"/>
  </g>
  <g id="axes_1">
   <g id="patch_2">
    <path d="M 55.660938 355.704375 
L 613.660938 355.704375 
L 613.660938 23.064375 
L 55.660938 23.064375 
z
" style="fill: #ffffff"/>
   </g>
   <g id="FillBetweenPolyCollection_1">
    <defs>
     <path id="md7a68d8efd" d="M 149.591471 -62.900664 
L 147.730404 -62.900664 
L 147.351181 -64.742149 
L 146.855141 -66.583635 
L 146.221173 -68.42512 
L 145.429223 -70.266605 
L 144.461836 -72.108091 
L 143.305699 -73.949576 
L 141.95296 -75.791061 
L 140.402135 -77.632547 
L 138.658431 -79.474032 
L 136.733413 -81.315517 
L 134.644049 -83.157003 
L 132.411243 -84.998488 
L 130.058094 -86.839973 
L 127.608113 -88.681459 
L 125.083655 -90.522944 
L 122.504726 -92.364429 
L 119.888274 -94.205915 
L 117.247942 -96.0474 
L 114.594213 -97.888885 
L 111.934826 -99.730371 
L 109.275365 -101.571856 
L 106.619956 -103.413341 
L 103.972064 -105.254827 
L 101.335414 -107.096312 
L 98.715067 -108.937797 
L 96.118627 -110.779283 
L 93.557482 -112.620768 
L 91.047884 -114.462253 
L 88.611601 -116.303739 
L 86.275864 -118.145224 
L 84.072382 -119.986709 
L 82.035344 -121.828195 
L 80.198518 -123.66968 
L 78.591789 -125.511165 
L 77.237628 -127.352651 
L 76.148136 -129.194136 
L 75.323234 -131.035621 
L 74.750469 -132.877107 
L 74.406615 -134.718592 
L 74.260938 -136.560077 
L 74.279671 -138.401563 
L 74.431016 -140.243048 
L 74.689833 -142.084533 
L 75.041266 -143.926019 
L 75.482683 -145.767504 
L 76.02362 -147.608989 
L 76.683752 -149.450475 
L 77.489202 -151.29196 
L 78.467769 -153.133445 
L 79.64377 -154.974931 
L 81.033233 -156.816416 
L 82.640099 -158.657901 
L 84.453948 -160.499387 
L 86.449536 -162.340872 
L 88.588249 -164.182357 
L 90.821285 -166.023843 
L 93.094204 -167.865328 
L 95.352276 -169.706813 
L 97.545938 -171.548299 
L 99.635653 -173.389784 
L 101.595506 -175.231269 
L 103.415063 -177.072755 
L 105.099246 -178.91424 
L 106.666288 -180.755725 
L 108.14411 -182.59721 
L 109.565686 -184.438696 
L 110.964124 -186.280181 
L 112.368168 -188.121666 
L 113.798749 -189.963152 
L 115.267012 -191.804637 
L 116.773987 -193.646122 
L 118.311807 -195.487608 
L 119.866163 -197.329093 
L 121.419501 -199.170578 
L 122.954405 -201.012064 
L 124.456608 -202.853549 
L 125.917175 -204.695034 
L 127.333548 -206.53652 
L 128.709364 -208.378005 
L 130.05312 -210.21949 
L 131.376002 -212.060976 
L 132.689257 -213.902461 
L 134.001605 -215.743946 
L 135.317114 -217.585432 
L 136.633899 -219.426917 
L 137.943821 -221.268402 
L 139.233191 -223.109888 
L 140.484316 -224.951373 
L 141.677592 -226.792858 
L 142.79378 -228.634344 
L 143.816114 -230.475829 
L 144.731945 -232.317314 
L 145.533753 -234.1588 
L 146.219455 -236.000285 
L 146.792078 -237.84177 
L 147.258938 -239.683256 
L 147.630508 -241.524741 
L 147.919183 -243.366226 
L 148.138104 -245.207712 
L 149.183771 -245.207712 
L 149.183771 -245.207712 
L 149.402692 -243.366226 
L 149.691367 -241.524741 
L 150.062937 -239.683256 
L 150.529797 -237.84177 
L 151.10242 -236.000285 
L 151.788122 -234.1588 
L 152.58993 -232.317314 
L 153.505761 -230.475829 
L 154.528095 -228.634344 
L 155.644283 -226.792858 
L 156.837559 -224.951373 
L 158.088684 -223.109888 
L 159.378054 -221.268402 
L 160.687976 -219.426917 
L 162.004761 -217.585432 
L 163.32027 -215.743946 
L 164.632618 -213.902461 
L 165.945873 -212.060976 
L 167.268755 -210.21949 
L 168.612511 -208.378005 
L 169.988327 -206.53652 
L 171.4047 -204.695034 
L 172.865267 -202.853549 
L 174.36747 -201.012064 
L 175.902374 -199.170578 
L 177.455712 -197.329093 
L 179.010068 -195.487608 
L 180.547888 -193.646122 
L 182.054863 -191.804637 
L 183.523126 -189.963152 
L 184.953707 -188.121666 
L 186.357751 -186.280181 
L 187.756189 -184.438696 
L 189.177765 -182.59721 
L 190.655587 -180.755725 
L 192.222629 -178.91424 
L 193.906812 -177.072755 
L 195.726369 -175.231269 
L 197.686222 -173.389784 
L 199.775937 -171.548299 
L 201.969599 -169.706813 
L 204.227671 -167.865328 
L 206.50059 -166.023843 
L 208.733626 -164.182357 
L 210.872339 -162.340872 
L 212.867927 -160.499387 
L 214.681776 -158.657901 
L 216.288642 -156.816416 
L 217.678105 -154.974931 
L 218.854106 -153.133445 
L 219.832673 -151.29196 
L 220.638123 -149.450475 
L 221.298255 -147.608989 
L 221.839192 -145.767504 
L 222.280609 -143.926019 
L 222.632042 -142.084533 
L 222.890859 -140.243048 
L 223.042204 -138.401563 
L 223.060938 -136.560077 
L 222.91526 -134.718592 
L 222.571406 -132.877107 
L 221.998641 -131.035621 
L 221.173739 -129.194136 
L 220.084247 -127.352651 
L 218.730086 -125.511165 
L 217.123357 -123.66968 
L 215.286531 -121.828195 
L 213.249493 -119.986709 
L 211.046011 -118.145224 
L 208.710274 -116.303739 
L 206.273991 -114.462253 
L 203.764393 -112.620768 
L 201.203248 -110.779283 
L 198.606808 -108.937797 
L 195.986461 -107.096312 
L 193.349811 -105.254827 
L 190.701919 -103.413341 
L 188.04651 -101.571856 
L 185.387049 -99.730371 
L 182.727662 -97.888885 
L 180.073933 -96.0474 
L 177.433601 -94.205915 
L 174.817149 -92.364429 
L 172.23822 -90.522944 
L 169.713762 -88.681459 
L 167.263781 -86.839973 
L 164.910632 -84.998488 
L 162.677826 -83.157003 
L 160.588462 -81.315517 
L 158.663444 -79.474032 
L 156.91974 -77.632547 
L 155.368915 -75.791061 
L 154.016176 -73.949576 
L 152.860039 -72.108091 
L 151.892652 -70.266605 
L 151.100702 -68.42512 
L 150.466734 -66.583635 
L 149.970694 -64.742149 
L 149.591471 -62.900664 
z
" style="stroke: #6f6f6f; stroke-width: 1.25"/>
    </defs>
    <g clip-path="url(#p4bc383165a)">
     <use xlink:href="#md7a68d8efd" x="0" y="393.535625" style="fill: #abc9ea; stroke: #6f6f6f; stroke-width: 1.25"/>
    </g>
   </g>
   <g id="FillBetweenPolyCollection_2">
    <defs>
     <path id="m5526ef6487" d="M 335.01786 -52.95125 
L 334.304015 -52.95125 
L 334.163211 -54.905272 
L 333.984997 -56.859293 
L 333.766594 -58.813315 
L 333.50752 -60.767336 
L 333.210158 -62.721358 
L 332.88005 -64.675379 
L 332.525794 -66.629401 
L 332.158495 -68.583422 
L 331.790786 -70.537444 
L 331.435499 -72.491466 
L 331.104108 -74.445487 
L 330.805083 -76.399509 
L 330.542255 -78.35353 
L 330.313283 -80.307552 
L 330.108253 -82.261573 
L 329.908486 -84.215595 
L 329.685665 -86.169616 
L 329.401468 -88.123638 
L 329.008013 -90.077659 
L 328.449416 -92.031681 
L 327.664721 -93.985703 
L 326.592298 -95.939724 
L 325.175494 -97.893746 
L 323.369036 -99.847767 
L 321.145354 -101.801789 
L 318.499811 -103.75581 
L 315.453829 -105.709832 
L 312.055089 -107.663853 
L 308.374434 -109.617875 
L 304.499619 -111.571897 
L 300.526669 -113.525918 
L 296.550078 -115.47994 
L 292.653406 -117.433961 
L 288.901835 -119.387983 
L 285.337984 -121.342004 
L 281.981734 -123.296026 
L 278.834115 -125.250047 
L 275.884539 -127.204069 
L 273.120018 -129.15809 
L 270.534577 -131.112112 
L 268.136968 -133.066134 
L 265.955086 -135.020155 
L 264.036047 -136.974177 
L 262.441749 -138.928198 
L 261.240634 -140.88222 
L 260.49715 -142.836241 
L 260.260938 -144.790263 
L 260.55786 -146.744284 
L 261.384687 -148.698306 
L 262.708494 -150.652328 
L 264.470881 -152.606349 
L 266.596148 -154.560371 
L 269.001736 -156.514392 
L 271.608811 -158.468414 
L 274.350912 -160.422435 
L 277.179072 -162.376457 
L 280.062648 -164.330478 
L 282.986052 -166.2845 
L 285.942486 -168.238521 
L 288.926363 -170.192543 
L 291.926305 -172.146565 
L 294.920353 -174.100586 
L 297.874454 -176.054608 
L 300.744464 -178.008629 
L 303.481128 -179.962651 
L 306.036876 -181.916672 
L 308.372922 -183.870694 
L 310.465193 -185.824715 
L 312.307943 -187.778737 
L 313.914403 -189.732759 
L 315.314469 -191.68678 
L 316.549933 -193.640802 
L 317.6682 -195.594823 
L 318.715609 -197.548845 
L 319.731456 -199.502866 
L 320.743633 -201.456888 
L 321.766445 -203.410909 
L 322.800776 -205.364931 
L 323.836353 -207.318952 
L 324.855537 -209.272974 
L 325.837824 -211.226996 
L 326.764183 -213.181017 
L 327.620486 -215.135039 
L 328.399472 -217.08906 
L 329.101099 -219.043082 
L 329.731409 -220.997103 
L 330.30038 -222.951125 
L 330.819349 -224.905146 
L 331.298617 -226.859168 
L 331.745724 -228.81319 
L 332.164636 -230.767211 
L 332.555857 -232.721233 
L 332.917279 -234.675254 
L 333.245434 -236.629276 
L 333.536799 -238.583297 
L 333.78888 -240.537319 
L 334.000886 -242.49134 
L 334.173945 -244.445362 
L 334.310934 -246.399383 
L 335.010941 -246.399383 
L 335.010941 -246.399383 
L 335.14793 -244.445362 
L 335.320989 -242.49134 
L 335.532995 -240.537319 
L 335.785076 -238.583297 
L 336.076441 -236.629276 
L 336.404596 -234.675254 
L 336.766018 -232.721233 
L 337.157239 -230.767211 
L 337.576151 -228.81319 
L 338.023258 -226.859168 
L 338.502526 -224.905146 
L 339.021495 -222.951125 
L 339.590466 -220.997103 
L 340.220776 -219.043082 
L 340.922403 -217.08906 
L 341.701389 -215.135039 
L 342.557692 -213.181017 
L 343.484051 -211.226996 
L 344.466338 -209.272974 
L 345.485522 -207.318952 
L 346.521099 -205.364931 
L 347.55543 -203.410909 
L 348.578242 -201.456888 
L 349.590419 -199.502866 
L 350.606266 -197.548845 
L 351.653675 -195.594823 
L 352.771942 -193.640802 
L 354.007406 -191.68678 
L 355.407472 -189.732759 
L 357.013932 -187.778737 
L 358.856682 -185.824715 
L 360.948953 -183.870694 
L 363.284999 -181.916672 
L 365.840747 -179.962651 
L 368.577411 -178.008629 
L 371.447421 -176.054608 
L 374.401522 -174.100586 
L 377.39557 -172.146565 
L 380.395512 -170.192543 
L 383.379389 -168.238521 
L 386.335823 -166.2845 
L 389.259227 -164.330478 
L 392.142803 -162.376457 
L 394.970963 -160.422435 
L 397.713064 -158.468414 
L 400.320139 -156.514392 
L 402.725727 -154.560371 
L 404.850994 -152.606349 
L 406.613381 -150.652328 
L 407.937188 -148.698306 
L 408.764015 -146.744284 
L 409.060938 -144.790263 
L 408.824725 -142.836241 
L 408.081241 -140.88222 
L 406.880126 -138.928198 
L 405.285828 -136.974177 
L 403.366789 -135.020155 
L 401.184907 -133.066134 
L 398.787298 -131.112112 
L 396.201857 -129.15809 
L 393.437336 -127.204069 
L 390.48776 -125.250047 
L 387.340141 -123.296026 
L 383.983891 -121.342004 
L 380.42004 -119.387983 
L 376.668469 -117.433961 
L 372.771797 -115.47994 
L 368.795206 -113.525918 
L 364.822256 -111.571897 
L 360.947441 -109.617875 
L 357.266786 -107.663853 
L 353.868046 -105.709832 
L 350.822064 -103.75581 
L 348.176521 -101.801789 
L 345.952839 -99.847767 
L 344.146381 -97.893746 
L 342.729577 -95.939724 
L 341.657154 -93.985703 
L 340.872459 -92.031681 
L 340.313862 -90.077659 
L 339.920407 -88.123638 
L 339.63621 -86.169616 
L 339.413389 -84.215595 
L 339.213622 -82.261573 
L 339.008592 -80.307552 
L 338.77962 -78.35353 
L 338.516792 -76.399509 
L 338.217767 -74.445487 
L 337.886376 -72.491466 
L 337.531089 -70.537444 
L 337.16338 -68.583422 
L 336.796081 -66.629401 
L 336.441825 -64.675379 
L 336.111717 -62.721358 
L 335.814355 -60.767336 
L 335.555281 -58.813315 
L 335.336878 -56.859293 
L 335.158664 -54.905272 
L 335.01786 -52.95125 
z
" style="stroke: #6f6f6f; stroke-width: 1.25"/>
    </defs>
    <g clip-path="url(#p4bc383165a)">
     <use xlink:href="#m5526ef6487" x="0" y="393.535625" style="fill: #efb792; stroke: #6f6f6f; stroke-width: 1.25"/>
    </g>
   </g>
   <g id="FillBetweenPolyCollection_3">
    <defs>
     <path id="m8abe9d7771" d="M 520.972212 -136.669714 
L 520.349663 -136.669714 
L 520.219697 -138.878619 
L 520.047768 -141.087523 
L 519.824664 -143.296427 
L 519.540201 -145.505332 
L 519.183201 -147.714236 
L 518.74144 -149.923141 
L 518.201604 -152.132045 
L 517.549298 -154.340949 
L 516.769225 -156.549854 
L 515.845619 -158.758758 
L 514.763 -160.967663 
L 513.507281 -163.176567 
L 512.067139 -165.385471 
L 510.435489 -167.594376 
L 508.610815 -169.80328 
L 506.598059 -172.012185 
L 504.408826 -174.221089 
L 502.060712 -176.429994 
L 499.575727 -178.638898 
L 496.977973 -180.847802 
L 494.290891 -183.056707 
L 491.53457 -185.265611 
L 488.723648 -187.474516 
L 485.866322 -189.68342 
L 482.964826 -191.892324 
L 480.017473 -194.101229 
L 477.022056 -196.310133 
L 473.980067 -198.519038 
L 470.900935 -200.727942 
L 467.805416 -202.936846 
L 464.727339 -205.145751 
L 461.713213 -207.354655 
L 458.81961 -209.56356 
L 456.108715 -211.772464 
L 453.642779 -213.981368 
L 451.478402 -216.190273 
L 449.661563 -218.399177 
L 448.224007 -220.608082 
L 447.181312 -222.816986 
L 446.532509 -225.02589 
L 446.260938 -227.234795 
L 446.335856 -229.443699 
L 446.714451 -231.652604 
L 447.344033 -233.861508 
L 448.164423 -236.070412 
L 449.110672 -238.279317 
L 450.116242 -240.488221 
L 451.116695 -242.697126 
L 452.053721 -244.90603 
L 452.879165 -247.114934 
L 453.558607 -249.323839 
L 454.074019 -251.532743 
L 454.425172 -253.741648 
L 454.629617 -255.950552 
L 454.721271 -258.159456 
L 454.74782 -260.368361 
L 454.767196 -262.577265 
L 454.843467 -264.78617 
L 455.042409 -266.995074 
L 455.427026 -269.203978 
L 456.053279 -271.412883 
L 456.966287 -273.621787 
L 458.19727 -275.830692 
L 459.761542 -278.039596 
L 461.657776 -280.2485 
L 463.868665 -282.457405 
L 466.36295 -284.666309 
L 469.098565 -286.875214 
L 472.026488 -289.084118 
L 475.094774 -291.293022 
L 478.252206 -293.501927 
L 481.451116 -295.710831 
L 484.649067 -297.919736 
L 487.809368 -300.12864 
L 490.900609 -302.337544 
L 493.895582 -304.546449 
L 496.770078 -306.755353 
L 499.501993 -308.964258 
L 502.071048 -311.173162 
L 504.459218 -313.382066 
L 506.651745 -315.590971 
L 508.638424 -317.799875 
L 510.414761 -320.00878 
L 511.982651 -322.217684 
L 513.350323 -324.426588 
L 514.531493 -326.635493 
L 515.543886 -328.844397 
L 516.40738 -331.053302 
L 517.142132 -333.262206 
L 517.767004 -335.47111 
L 518.298494 -337.680015 
L 518.750264 -339.888919 
L 519.133199 -342.097824 
L 519.455862 -344.306728 
L 519.725134 -346.515632 
L 519.946875 -348.724537 
L 520.126443 -350.933441 
L 520.269032 -353.142346 
L 520.379793 -355.35125 
L 520.942082 -355.35125 
L 520.942082 -355.35125 
L 521.052843 -353.142346 
L 521.195432 -350.933441 
L 521.375 -348.724537 
L 521.596741 -346.515632 
L 521.866013 -344.306728 
L 522.188676 -342.097824 
L 522.571611 -339.888919 
L 523.023381 -337.680015 
L 523.554871 -335.47111 
L 524.179743 -333.262206 
L 524.914495 -331.053302 
L 525.777989 -328.844397 
L 526.790382 -326.635493 
L 527.971552 -324.426588 
L 529.339224 -322.217684 
L 530.907114 -320.00878 
L 532.683451 -317.799875 
L 534.67013 -315.590971 
L 536.862657 -313.382066 
L 539.250827 -311.173162 
L 541.819882 -308.964258 
L 544.551797 -306.755353 
L 547.426293 -304.546449 
L 550.421266 -302.337544 
L 553.512507 -300.12864 
L 556.672808 -297.919736 
L 559.870759 -295.710831 
L 563.069669 -293.501927 
L 566.227101 -291.293022 
L 569.295387 -289.084118 
L 572.22331 -286.875214 
L 574.958925 -284.666309 
L 577.45321 -282.457405 
L 579.664099 -280.2485 
L 581.560333 -278.039596 
L 583.124605 -275.830692 
L 584.355588 -273.621787 
L 585.268596 -271.412883 
L 585.894849 -269.203978 
L 586.279466 -266.995074 
L 586.478408 -264.78617 
L 586.554679 -262.577265 
L 586.574055 -260.368361 
L 586.600604 -258.159456 
L 586.692258 -255.950552 
L 586.896703 -253.741648 
L 587.247856 -251.532743 
L 587.763268 -249.323839 
L 588.44271 -247.114934 
L 589.268154 -244.90603 
L 590.20518 -242.697126 
L 591.205633 -240.488221 
L 592.211203 -238.279317 
L 593.157452 -236.070412 
L 593.977842 -233.861508 
L 594.607424 -231.652604 
L 594.986019 -229.443699 
L 595.060938 -227.234795 
L 594.789366 -225.02589 
L 594.140563 -222.816986 
L 593.097868 -220.608082 
L 591.660312 -218.399177 
L 589.843473 -216.190273 
L 587.679096 -213.981368 
L 585.21316 -211.772464 
L 582.502265 -209.56356 
L 579.608662 -207.354655 
L 576.594536 -205.145751 
L 573.516459 -202.936846 
L 570.42094 -200.727942 
L 567.341808 -198.519038 
L 564.299819 -196.310133 
L 561.304402 -194.101229 
L 558.357049 -191.892324 
L 555.455553 -189.68342 
L 552.598227 -187.474516 
L 549.787305 -185.265611 
L 547.030984 -183.056707 
L 544.343902 -180.847802 
L 541.746148 -178.638898 
L 539.261163 -176.429994 
L 536.913049 -174.221089 
L 534.723816 -172.012185 
L 532.71106 -169.80328 
L 530.886386 -167.594376 
L 529.254736 -165.385471 
L 527.814594 -163.176567 
L 526.558875 -160.967663 
L 525.476256 -158.758758 
L 524.55265 -156.549854 
L 523.772577 -154.340949 
L 523.120271 -152.132045 
L 522.580435 -149.923141 
L 522.138674 -147.714236 
L 521.781674 -145.505332 
L 521.497211 -143.296427 
L 521.274107 -141.087523 
L 521.102178 -138.878619 
L 520.972212 -136.669714 
z
" style="stroke: #6f6f6f; stroke-width: 1.25"/>
    </defs>
    <g clip-path="url(#p4bc383165a)">
     <use xlink:href="#m8abe9d7771" x="0" y="393.535625" style="fill: #98daa7; stroke: #6f6f6f; stroke-width: 1.25"/>
    </g>
   </g>
   <g id="matplotlib.axis_1">
    <g id="xtick_1">
     <g id="line2d_1">
      <defs>
       <path id="m2d00863f5b" d="M 0 0 
L 0 3.5 
" style="stroke: #000000; stroke-width: 0.8"/>
      </defs>
      <g>
       <use xlink:href="#m2d00863f5b" x="148.660938" y="355.704375" style="stroke: #000000; stroke-width: 0.8"/>
      </g>
     </g>
     <g id="text_1">
      <!-- Adelie -->
      <g transform="translate(135.210156 370.545) scale(0.1 -0.1)">
       <defs>
        <path id="AppleGothic-41" d="M 2086 5018 
L 2579 5018 
L 4448 0 
L 3859 0 
L 3258 1715 
L 1350 1715 
L 723 0 
L 166 0 
L 2086 5018 
z
M 3117 2157 
L 2342 4416 
L 1504 2157 
L 3117 2157 
z
" transform="scale(0.015625)"/>
        <path id="AppleGothic-64" d="M 2682 5018 
L 3174 5018 
L 3174 0 
L 2733 0 
L 2688 557 
Q 2598 429 2508 329 
Q 2419 230 2330 160 
Q 2010 -83 1587 -83 
Q 928 -83 493 429 
Q 64 941 64 1670 
Q 64 2426 518 2957 
Q 979 3501 1670 3501 
Q 1958 3501 2208 3398 
Q 2298 3360 2416 3296 
Q 2534 3232 2682 3142 
L 2682 5018 
z
M 2682 1658 
L 2682 2643 
Q 2381 2906 2157 2995 
Q 1933 3085 1722 3085 
Q 1197 3085 870 2643 
Q 563 2227 563 1677 
Q 563 1088 902 698 
Q 1216 339 1645 339 
Q 2067 339 2374 710 
Q 2682 1082 2682 1658 
z
" transform="scale(0.015625)"/>
        <path id="AppleGothic-65" d="M 3296 1850 
L 691 1850 
Q 691 1114 1033 726 
Q 1376 339 1933 339 
Q 2355 339 2746 608 
Q 2854 678 2976 784 
Q 3098 890 3238 1030 
L 3238 474 
Q 3085 358 2953 272 
Q 2822 186 2707 128 
Q 2304 -83 1901 -83 
Q 1203 -83 717 397 
Q 192 902 192 1709 
Q 192 2470 666 2982 
Q 1146 3501 1850 3501 
Q 2534 3501 2938 3002 
Q 3296 2547 3296 1850 
z
M 755 2240 
L 2758 2240 
Q 2682 2675 2429 2889 
Q 2176 3104 1818 3104 
Q 1421 3104 1146 2854 
Q 890 2624 755 2240 
z
" transform="scale(0.015625)"/>
        <path id="AppleGothic-6c" d="M 288 5018 
L 749 5018 
L 749 0 
L 288 0 
L 288 5018 
z
" transform="scale(0.015625)"/>
        <path id="AppleGothic-69" d="M 256 3424 
L 717 3424 
L 717 0 
L 256 0 
L 256 3424 
z
M 480 4870 
Q 614 4870 704 4780 
Q 794 4691 794 4525 
Q 794 4358 710 4268 
Q 627 4179 480 4179 
Q 333 4179 253 4281 
Q 173 4384 173 4518 
Q 173 4730 269 4800 
Q 365 4870 480 4870 
z
" transform="scale(0.015625)"/>
       </defs>
       <use xlink:href="#AppleGothic-41"/>
       <use xlink:href="#AppleGothic-64" transform="translate(72.599991 0)"/>
       <use xlink:href="#AppleGothic-65" transform="translate(126.599976 0)"/>
       <use xlink:href="#AppleGothic-6c" transform="translate(181.499969 0)"/>
       <use xlink:href="#AppleGothic-69" transform="translate(198.199966 0)"/>
       <use xlink:href="#AppleGothic-65" transform="translate(214.09996 0)"/>
      </g>
     </g>
    </g>
    <g id="xtick_2">
     <g id="line2d_2">
      <g>
       <use xlink:href="#m2d00863f5b" x="334.660938" y="355.704375" style="stroke: #000000; stroke-width: 0.8"/>
      </g>
     </g>
     <g id="text_2">
      <!-- Chinstrap -->
      <g transform="translate(313.489844 370.674688) scale(0.1 -0.1)">
       <defs>
        <path id="AppleGothic-43" d="M 4109 4621 
L 4109 3974 
Q 3872 4205 3565 4371 
Q 3085 4627 2598 4627 
Q 1850 4627 1312 3994 
Q 1043 3680 912 3309 
Q 781 2938 781 2515 
Q 781 1651 1318 1030 
Q 1850 410 2611 410 
Q 2970 410 3344 554 
Q 3718 698 4109 998 
L 4109 378 
Q 3251 -83 2554 -83 
Q 1651 -83 973 614 
Q 243 1363 243 2490 
Q 243 3584 922 4339 
Q 1613 5101 2630 5101 
Q 3027 5101 3392 4979 
Q 3757 4858 4109 4621 
z
" transform="scale(0.015625)"/>
        <path id="AppleGothic-68" d="M 288 5018 
L 749 5018 
L 749 2810 
Q 909 3066 1139 3238 
Q 1491 3501 1926 3501 
Q 2195 3501 2409 3424 
Q 2624 3347 2803 3200 
Q 3181 2867 3181 2266 
L 3181 0 
L 2714 0 
L 2714 2202 
Q 2714 2573 2477 2829 
Q 2240 3085 1901 3085 
Q 1408 3085 1082 2694 
Q 749 2291 749 1773 
L 749 0 
L 288 0 
L 288 5018 
z
" transform="scale(0.015625)"/>
        <path id="AppleGothic-6e" d="M 3264 2291 
L 3264 0 
L 2803 0 
L 2803 2259 
Q 2803 2618 2541 2848 
Q 2278 3085 1914 3085 
Q 1427 3085 1075 2682 
Q 723 2272 723 1760 
L 723 0 
L 288 0 
L 288 3424 
L 691 3424 
L 710 2784 
Q 883 3046 1114 3219 
Q 1491 3501 1965 3501 
Q 2515 3501 2886 3168 
Q 3264 2842 3264 2291 
z
" transform="scale(0.015625)"/>
        <path id="AppleGothic-73" d="M 224 294 
L 224 851 
Q 621 531 1030 403 
Q 1152 371 1267 355 
Q 1382 339 1504 339 
Q 1894 339 2150 518 
Q 2413 710 2413 947 
Q 2413 1075 2317 1210 
Q 2182 1376 1600 1510 
Q 909 1683 678 1798 
Q 230 2054 230 2515 
Q 230 2944 602 3219 
Q 979 3501 1542 3501 
Q 1798 3501 2003 3456 
Q 2208 3411 2387 3337 
Q 2566 3264 2720 3155 
L 2720 2598 
Q 2451 2822 2156 2953 
Q 1862 3085 1536 3085 
Q 1210 3085 973 2938 
Q 730 2790 730 2554 
Q 730 2240 1306 2054 
Q 1574 1978 1836 1901 
Q 2099 1824 2368 1747 
Q 2950 1498 2950 992 
Q 2950 563 2547 237 
Q 2138 -83 1530 -83 
Q 1261 -83 1005 -26 
Q 595 64 224 294 
z
" transform="scale(0.015625)"/>
        <path id="AppleGothic-74" d="M 691 4435 
L 1114 4435 
L 1114 3430 
L 2016 3430 
L 2016 3014 
L 1114 3014 
L 1114 838 
Q 1114 570 1213 454 
Q 1312 339 1555 339 
Q 1696 339 1795 371 
Q 1894 403 2016 454 
L 2016 38 
Q 1914 6 1770 -22 
Q 1626 -51 1478 -51 
Q 1094 -51 883 122 
Q 646 301 646 698 
L 646 3014 
L 70 3014 
L 70 3430 
L 646 3430 
L 691 4435 
z
" transform="scale(0.015625)"/>
        <path id="AppleGothic-72" d="M 2125 3424 
L 2125 2963 
Q 2054 2989 2009 3005 
Q 1965 3021 1933 3027 
Q 1901 3034 1865 3037 
Q 1830 3040 1773 3040 
Q 1306 3040 1005 2586 
Q 749 2170 749 1658 
L 749 0 
L 288 0 
L 288 3424 
L 710 3424 
L 742 2835 
Q 902 3104 1043 3219 
Q 1331 3456 1734 3456 
Q 1843 3456 1936 3449 
Q 2029 3443 2125 3424 
z
" transform="scale(0.015625)"/>
        <path id="AppleGothic-61" d="M 2950 2214 
L 2950 602 
Q 2950 493 2998 413 
Q 3046 333 3174 333 
Q 3213 333 3238 336 
Q 3264 339 3290 346 
Q 3328 358 3357 371 
Q 3386 384 3405 390 
L 3405 32 
Q 3290 -6 3174 -22 
Q 3059 -38 2995 -38 
Q 2669 -38 2566 134 
Q 2483 243 2483 602 
Q 2400 461 2317 355 
Q 2234 250 2150 179 
Q 1818 -83 1376 -83 
Q 909 -83 563 192 
Q 205 486 205 941 
Q 205 1510 781 1779 
Q 992 1882 1341 1958 
Q 1690 2035 2176 2099 
L 2483 2131 
Q 2483 2579 2256 2832 
Q 2029 3085 1587 3085 
Q 1421 3085 1257 3043 
Q 1094 3002 928 2912 
Q 838 2861 729 2790 
Q 621 2720 493 2611 
L 493 3136 
Q 1037 3501 1664 3501 
Q 2304 3501 2650 3098 
Q 2950 2746 2950 2214 
z
M 2483 1542 
L 2483 1747 
L 2266 1722 
Q 1466 1638 1139 1498 
Q 704 1325 704 934 
Q 704 819 755 713 
Q 806 608 896 525 
Q 986 442 1117 390 
Q 1248 339 1408 339 
Q 1843 339 2170 691 
Q 2483 1050 2483 1542 
z
" transform="scale(0.015625)"/>
        <path id="AppleGothic-70" d="M 736 307 
L 736 -1101 
L 288 -1101 
L 288 3424 
L 704 3424 
L 730 2803 
Q 941 3149 1216 3325 
Q 1491 3501 1882 3501 
Q 2522 3501 2944 3002 
Q 3162 2752 3270 2441 
Q 3379 2131 3379 1747 
Q 3379 954 2899 435 
Q 2419 -83 1754 -83 
Q 1421 -83 1139 58 
Q 1056 90 960 154 
Q 864 218 736 307 
z
M 736 1824 
L 736 800 
Q 838 704 924 637 
Q 1011 570 1082 525 
Q 1395 339 1715 339 
Q 2227 339 2554 742 
Q 2886 1165 2886 1766 
Q 2886 2330 2579 2707 
Q 2278 3085 1811 3085 
Q 1331 3085 1018 2669 
Q 736 2291 736 1824 
z
" transform="scale(0.015625)"/>
       </defs>
       <use xlink:href="#AppleGothic-43"/>
       <use xlink:href="#AppleGothic-68" transform="translate(68.499985 0)"/>
       <use xlink:href="#AppleGothic-69" transform="translate(120.699982 0)"/>
       <use xlink:href="#AppleGothic-6e" transform="translate(136.599976 0)"/>
       <use xlink:href="#AppleGothic-73" transform="translate(192.499969 0)"/>
       <use xlink:href="#AppleGothic-74" transform="translate(242.09996 0)"/>
       <use xlink:href="#AppleGothic-72" transform="translate(276.299957 0)"/>
       <use xlink:href="#AppleGothic-61" transform="translate(311.499954 0)"/>
       <use xlink:href="#AppleGothic-70" transform="translate(367.999939 0)"/>
      </g>
     </g>
    </g>
    <g id="xtick_3">
     <g id="line2d_3">
      <g>
       <use xlink:href="#m2d00863f5b" x="520.660938" y="355.704375" style="stroke: #000000; stroke-width: 0.8"/>
      </g>
     </g>
     <g id="text_3">
      <!-- Gentoo -->
      <g transform="translate(503.860156 370.545) scale(0.1 -0.1)">
       <defs>
        <path id="AppleGothic-47" d="M 4134 4634 
L 4134 3968 
Q 3782 4282 3456 4435 
Q 3072 4627 2669 4627 
Q 1856 4627 1318 3955 
Q 806 3341 806 2483 
Q 806 1613 1357 973 
Q 1875 390 2528 390 
Q 3046 390 3398 723 
Q 3782 1088 3782 1683 
L 3782 2067 
L 2131 2067 
L 2131 2509 
L 4294 2509 
L 4294 0 
L 3853 0 
L 3782 608 
Q 3558 326 3302 166 
Q 2906 -83 2432 -83 
Q 1568 -83 928 653 
Q 269 1395 269 2470 
Q 269 3578 954 4339 
Q 1638 5101 2662 5101 
Q 3110 5101 3539 4934 
Q 3763 4851 4134 4634 
z
" transform="scale(0.015625)"/>
        <path id="AppleGothic-6f" d="M 1888 -83 
Q 1229 -83 730 397 
Q 198 902 198 1709 
Q 198 2470 666 2982 
Q 1146 3501 1850 3501 
Q 2547 3501 3027 2982 
Q 3501 2470 3501 1715 
Q 3501 922 2989 403 
Q 2515 -83 1888 -83 
z
M 1843 339 
Q 2304 339 2662 723 
Q 3008 1114 3008 1715 
Q 3008 2336 2637 2726 
Q 2298 3085 1850 3085 
Q 1389 3085 1062 2714 
Q 704 2304 704 1709 
Q 704 1107 1056 704 
Q 1382 339 1843 339 
z
" transform="scale(0.015625)"/>
       </defs>
       <use xlink:href="#AppleGothic-47"/>
       <use xlink:href="#AppleGothic-65" transform="translate(74.399994 0)"/>
       <use xlink:href="#AppleGothic-6e" transform="translate(129.299988 0)"/>
       <use xlink:href="#AppleGothic-74" transform="translate(185.199982 0)"/>
       <use xlink:href="#AppleGothic-6f" transform="translate(219.399979 0)"/>
       <use xlink:href="#AppleGothic-6f" transform="translate(277.699966 0)"/>
      </g>
     </g>
    </g>
    <g id="text_4">
     <!-- 품종 (Species) -->
     <g transform="translate(300.769531 384.615312) scale(0.1 -0.1)">
      <defs>
       <path id="AppleGothic-d488" d="M 4640 358 
L 4627 858 
Q 4301 870 3907 876 
Q 3514 883 3155 883 
Q 2771 883 2524 883 
Q 2278 883 2163 877 
Q 2042 877 1939 873 
Q 1837 870 1747 864 
L 1747 -32 
L 3136 -64 
L 4627 -58 
L 4640 358 
z
M 6016 1939 
L 3418 2003 
L 3418 1210 
L 4141 1203 
L 5114 1210 
L 5114 205 
Q 5114 -128 5117 -291 
Q 5120 -454 5126 -557 
L 4627 -557 
L 4627 -403 
L 3110 -384 
L 1734 -397 
L 1734 -563 
L 1267 -570 
L 1280 134 
L 1274 1222 
L 2138 1210 
L 2970 1210 
L 2970 1997 
L 1779 2003 
Q 1440 2003 1069 1990 
Q 698 1978 384 1965 
L 384 2362 
Q 454 2355 544 2352 
Q 634 2349 742 2342 
Q 858 2336 1104 2333 
Q 1350 2330 1734 2317 
Q 2131 2310 2489 2307 
Q 2848 2304 3181 2304 
Q 3782 2304 4192 2304 
Q 4602 2304 4845 2310 
Q 5318 2317 5600 2326 
Q 5882 2336 6016 2342 
L 6016 1939 
z
M 5363 2976 
Q 5274 2982 5197 2985 
Q 5120 2989 5050 2989 
Q 4627 3002 4179 3011 
Q 3731 3021 3238 3021 
Q 2758 3021 2416 3021 
Q 2074 3021 1850 3014 
Q 1626 3014 1421 3011 
Q 1216 3008 1024 3002 
L 1024 3379 
Q 1152 3366 1299 3353 
Q 1446 3341 1581 3341 
L 2202 3341 
Q 2189 3392 2182 3433 
Q 2176 3475 2170 3507 
Q 2138 3654 2093 3808 
Q 2048 3962 1971 4192 
Q 1920 4346 1920 4371 
Q 1920 4410 1974 4413 
Q 2029 4416 2067 4416 
L 2317 4422 
Q 2477 4422 2477 4365 
Q 2477 4218 2480 4096 
Q 2483 3974 2515 3802 
L 2630 3334 
Q 2746 3322 2880 3318 
Q 3014 3315 3142 3315 
L 3744 3334 
Q 3770 3405 3798 3545 
Q 3827 3686 3866 3904 
Q 3955 4352 3955 4442 
Q 4064 4442 4256 4403 
Q 4448 4358 4448 4294 
Q 4448 4275 4419 4224 
Q 4390 4173 4378 4141 
L 4166 3334 
L 5363 3347 
L 5363 2976 
z
M 5344 4646 
Q 4960 4653 4685 4666 
Q 3725 4685 3149 4685 
Q 2739 4685 2432 4685 
Q 2125 4685 1901 4678 
Q 1677 4678 1465 4675 
Q 1254 4672 1043 4666 
L 1043 5069 
Q 1446 5050 1968 5034 
Q 2490 5018 3130 5018 
Q 3750 5018 4316 5024 
Q 4883 5030 5344 5043 
L 5344 4646 
z
" transform="scale(0.015625)"/>
       <path id="AppleGothic-c885" d="M 4858 410 
Q 4858 794 4378 941 
Q 4013 1056 3238 1056 
L 3053 1056 
Q 2394 1056 2054 934 
Q 1594 781 1594 403 
Q 1626 90 2093 -51 
Q 2298 -115 2586 -144 
Q 2874 -173 3251 -173 
Q 4083 -173 4470 -29 
Q 4858 115 4858 410 
z
M 5338 410 
Q 5338 -128 4653 -390 
Q 4128 -576 3258 -576 
Q 2323 -576 1766 -371 
Q 1107 -115 1107 403 
Q 1107 915 1683 1178 
Q 2272 1434 3245 1434 
Q 4173 1434 4691 1222 
Q 5338 973 5338 410 
z
M 6016 2003 
Q 5907 2010 5814 2010 
Q 5722 2010 5645 2010 
Q 5088 2022 4617 2028 
Q 4147 2035 3750 2035 
L 3187 2035 
Q 2394 2035 1754 2016 
Q 1434 2010 1110 2006 
Q 787 2003 442 1990 
L 397 1990 
L 397 2406 
Q 474 2349 1722 2349 
L 2970 2362 
L 2976 2963 
Q 2976 3053 2969 3133 
Q 2963 3213 2950 3290 
Q 3174 3290 3331 3277 
Q 3488 3264 3488 3187 
Q 3488 3174 3465 3097 
Q 3443 3021 3443 2963 
L 3443 2368 
L 4749 2381 
Q 5197 2381 5494 2397 
Q 5792 2413 6016 2438 
L 6016 2003 
z
M 5645 3270 
L 5370 2906 
Q 5222 2931 5104 2953 
Q 4986 2976 4896 3002 
Q 4346 3142 3936 3437 
Q 3770 3558 3638 3683 
Q 3507 3808 3398 3942 
Q 3366 3987 3334 4041 
Q 3302 4096 3264 4154 
Q 3206 4077 3155 4006 
Q 3104 3936 3059 3885 
Q 2912 3718 2736 3580 
Q 2560 3443 2355 3315 
Q 2048 3117 1510 2982 
Q 1427 2957 1315 2934 
Q 1203 2912 1056 2880 
L 877 3059 
Q 723 3200 723 3226 
Q 749 3258 832 3264 
Q 915 3270 1024 3283 
Q 1331 3328 1593 3417 
Q 1856 3507 2093 3635 
Q 2624 3942 2848 4307 
Q 2925 4429 2970 4614 
Q 2803 4627 2585 4633 
Q 2368 4640 2086 4640 
Q 1856 4640 1581 4633 
Q 1306 4627 1075 4614 
L 1075 4998 
Q 1197 4998 1469 4995 
Q 1741 4992 2163 4986 
Q 2592 4979 2861 4979 
Q 3130 4979 3251 4979 
Q 3610 4979 3907 4982 
Q 4205 4986 4457 4992 
Q 4710 4998 4928 5004 
Q 5146 5011 5344 5024 
L 5344 4634 
L 4333 4646 
Q 4109 4646 3965 4646 
Q 3821 4646 3750 4640 
Q 3680 4640 3625 4637 
Q 3571 4634 3520 4627 
Q 3520 4493 3590 4352 
Q 3699 4122 4013 3878 
Q 4435 3558 5069 3392 
Q 5267 3347 5619 3296 
Q 5638 3296 5645 3270 
z
" transform="scale(0.015625)"/>
       <path id="AppleGothic-20" transform="scale(0.015625)"/>
       <path id="AppleGothic-28" d="M 2227 5261 
L 2650 5261 
Q 2342 4768 2169 4473 
Q 1997 4179 1958 4083 
Q 1606 3283 1606 2272 
Q 1606 1587 1754 1018 
Q 1882 570 2138 102 
Q 2150 70 2275 -131 
Q 2400 -333 2630 -717 
L 2227 -717 
Q 2099 -531 1980 -355 
Q 1862 -179 1734 0 
Q 1581 243 1469 483 
Q 1357 723 1274 954 
Q 1069 1587 1069 2272 
Q 1069 2963 1261 3558 
Q 1338 3789 1450 4022 
Q 1562 4256 1715 4499 
Q 1843 4691 1971 4880 
Q 2099 5069 2227 5261 
z
" transform="scale(0.015625)"/>
       <path id="AppleGothic-53" d="M 3418 4666 
L 3418 4019 
Q 3251 4160 3081 4269 
Q 2912 4378 2746 4448 
Q 2362 4627 1965 4627 
Q 1466 4627 1139 4378 
Q 806 4122 806 3770 
Q 806 3258 1562 3002 
Q 1914 2880 2262 2768 
Q 2611 2656 2970 2541 
Q 3731 2176 3731 1453 
Q 3731 749 3187 320 
Q 2669 -83 1901 -83 
Q 1389 -83 915 115 
Q 640 224 262 474 
L 262 1126 
Q 755 685 1261 506 
Q 1427 442 1587 416 
Q 1747 390 1907 390 
Q 2419 390 2771 646 
Q 3162 928 3162 1382 
Q 3162 1933 2419 2221 
Q 2061 2330 1715 2445 
Q 1370 2560 1024 2669 
Q 275 3014 275 3731 
Q 275 4333 749 4710 
Q 1235 5101 1965 5101 
Q 2413 5101 2861 4934 
Q 3091 4858 3418 4666 
z
" transform="scale(0.015625)"/>
       <path id="AppleGothic-63" d="M 3085 3123 
L 3085 2522 
Q 2726 2861 2349 3008 
Q 2240 3053 2125 3069 
Q 2010 3085 1894 3085 
Q 1363 3085 1024 2688 
Q 685 2278 685 1715 
Q 685 1139 1037 730 
Q 1389 339 1920 339 
Q 2253 339 2528 483 
Q 2803 627 3085 915 
L 3085 307 
Q 2746 96 2470 6 
Q 2195 -83 1914 -83 
Q 1197 -83 685 429 
Q 186 960 186 1709 
Q 186 2445 678 2976 
Q 1178 3501 1920 3501 
Q 2298 3501 2624 3373 
Q 2816 3302 3085 3123 
z
" transform="scale(0.015625)"/>
       <path id="AppleGothic-29" d="M 2221 2272 
Q 2221 1587 2016 960 
Q 1862 499 1555 6 
Q 1427 -179 1305 -355 
Q 1184 -531 1062 -717 
L 659 -717 
Q 781 -512 902 -310 
Q 1024 -109 1152 96 
Q 1280 333 1376 557 
Q 1472 781 1530 1005 
Q 1683 1562 1683 2272 
Q 1683 2650 1641 2973 
Q 1600 3296 1517 3584 
Q 1459 3802 1356 4029 
Q 1254 4256 1120 4499 
Q 992 4691 873 4880 
Q 755 5069 640 5261 
L 1062 5261 
Q 1190 5069 1315 4880 
Q 1440 4691 1568 4506 
Q 1722 4256 1837 4022 
Q 1952 3789 2022 3565 
Q 2221 2976 2221 2272 
z
" transform="scale(0.015625)"/>
      </defs>
      <use xlink:href="#AppleGothic-d488"/>
      <use xlink:href="#AppleGothic-c885" transform="translate(99.999985 0)"/>
      <use xlink:href="#AppleGothic-20" transform="translate(199.999969 0)"/>
      <use xlink:href="#AppleGothic-28" transform="translate(231.999954 0)"/>
      <use xlink:href="#AppleGothic-53" transform="translate(281.999939 0)"/>
      <use xlink:href="#AppleGothic-70" transform="translate(345.199936 0)"/>
      <use xlink:href="#AppleGothic-65" transform="translate(400.59993 0)"/>
      <use xlink:href="#AppleGothic-63" transform="translate(455.499924 0)"/>
      <use xlink:href="#AppleGothic-69" transform="translate(507.399918 0)"/>
      <use xlink:href="#AppleGothic-65" transform="translate(523.299911 0)"/>
      <use xlink:href="#AppleGothic-73" transform="translate(578.199905 0)"/>
      <use xlink:href="#AppleGothic-29" transform="translate(627.799896 0)"/>
     </g>
    </g>
   </g>
   <g id="matplotlib.axis_2">
    <g id="ytick_1">
     <g id="line2d_4">
      <defs>
       <path id="m5f404b06e4" d="M 0 0 
L -3.5 0 
" style="stroke: #000000; stroke-width: 0.8"/>
      </defs>
      <g>
       <use xlink:href="#m5f404b06e4" x="55.660938" y="296.406762" style="stroke: #000000; stroke-width: 0.8"/>
      </g>
     </g>
     <g id="text_5">
      <!-- 3000 -->
      <g transform="translate(21.460938 300.327075) scale(0.1 -0.1)">
       <defs>
        <path id="AppleGothic-33" d="M 550 333 
L 550 870 
Q 883 621 1235 483 
Q 1587 346 1971 346 
Q 2522 346 2861 666 
Q 3219 992 3219 1421 
Q 3219 1869 2842 2099 
Q 2515 2304 1965 2304 
L 992 2304 
L 992 2701 
L 1658 2701 
Q 2298 2701 2662 2928 
Q 3027 3155 3027 3584 
Q 3027 3936 2752 4173 
Q 2458 4429 1978 4429 
Q 1786 4429 1597 4393 
Q 1408 4358 1222 4282 
Q 890 4141 531 3872 
L 531 4422 
Q 736 4531 912 4608 
Q 1088 4685 1254 4736 
Q 1626 4858 2022 4858 
Q 2650 4858 3066 4531 
Q 3488 4211 3488 3642 
Q 3488 3168 3168 2861 
Q 2976 2675 2643 2554 
Q 2874 2522 3053 2448 
Q 3232 2374 3366 2266 
Q 3718 1971 3718 1434 
Q 3718 813 3219 365 
Q 2714 -83 1965 -83 
Q 1549 -83 1126 70 
Q 1024 102 880 166 
Q 736 230 550 333 
z
" transform="scale(0.015625)"/>
        <path id="AppleGothic-30" d="M 2227 -83 
Q 1414 -83 934 576 
Q 461 1229 461 2387 
Q 461 3552 973 4218 
Q 1453 4858 2221 4858 
Q 3027 4858 3482 4173 
Q 3955 3494 3955 2394 
Q 3955 1248 3462 582 
Q 2976 -83 2227 -83 
z
M 2176 346 
Q 2861 346 3200 992 
Q 3462 1536 3462 2400 
Q 3462 3315 3162 3859 
Q 2822 4429 2214 4429 
Q 1574 4429 1248 3821 
Q 960 3283 960 2374 
Q 960 1478 1248 941 
Q 1574 346 2176 346 
z
" transform="scale(0.015625)"/>
       </defs>
       <use xlink:href="#AppleGothic-33"/>
       <use xlink:href="#AppleGothic-30" transform="translate(67.999985 0)"/>
       <use xlink:href="#AppleGothic-30" transform="translate(135.999969 0)"/>
       <use xlink:href="#AppleGothic-30" transform="translate(203.999954 0)"/>
      </g>
     </g>
    </g>
    <g id="ytick_2">
     <g id="line2d_5">
      <g>
       <use xlink:href="#m5f404b06e4" x="55.660938" y="226.344824" style="stroke: #000000; stroke-width: 0.8"/>
      </g>
     </g>
     <g id="text_6">
      <!-- 4000 -->
      <g transform="translate(21.460938 230.265136) scale(0.1 -0.1)">
       <defs>
        <path id="AppleGothic-34" d="M 2662 4774 
L 3130 4774 
L 3130 1811 
L 4000 1811 
L 4000 1382 
L 3130 1382 
L 3130 0 
L 2662 0 
L 2662 1382 
L 352 1382 
L 352 1811 
L 2662 4774 
z
M 2662 1811 
L 2662 4166 
L 838 1811 
L 2662 1811 
z
" transform="scale(0.015625)"/>
       </defs>
       <use xlink:href="#AppleGothic-34"/>
       <use xlink:href="#AppleGothic-30" transform="translate(67.999985 0)"/>
       <use xlink:href="#AppleGothic-30" transform="translate(135.999969 0)"/>
       <use xlink:href="#AppleGothic-30" transform="translate(203.999954 0)"/>
      </g>
     </g>
    </g>
    <g id="ytick_3">
     <g id="line2d_6">
      <g>
       <use xlink:href="#m5f404b06e4" x="55.660938" y="156.282885" style="stroke: #000000; stroke-width: 0.8"/>
      </g>
     </g>
     <g id="text_7">
      <!-- 5000 -->
      <g transform="translate(21.460938 160.203198) scale(0.1 -0.1)">
       <defs>
        <path id="AppleGothic-35" d="M 621 4768 
L 3488 4768 
L 3488 4339 
L 1088 4339 
L 1088 2707 
Q 1184 2771 1293 2819 
Q 1402 2867 1510 2912 
Q 1862 3040 2259 3040 
Q 2989 3040 3424 2605 
Q 3827 2202 3827 1581 
Q 3827 870 3296 397 
Q 2765 -83 2010 -83 
Q 1651 -83 1248 45 
Q 1158 77 1001 137 
Q 845 198 621 301 
L 621 838 
Q 928 640 1203 525 
Q 1408 435 1613 390 
Q 1818 346 2010 346 
Q 2528 346 2906 666 
Q 3322 1011 3322 1536 
Q 3322 1990 3021 2291 
Q 2701 2611 2144 2611 
Q 1856 2611 1587 2528 
Q 1318 2445 1088 2272 
L 621 2272 
L 621 4768 
z
" transform="scale(0.015625)"/>
       </defs>
       <use xlink:href="#AppleGothic-35"/>
       <use xlink:href="#AppleGothic-30" transform="translate(67.999985 0)"/>
       <use xlink:href="#AppleGothic-30" transform="translate(135.999969 0)"/>
       <use xlink:href="#AppleGothic-30" transform="translate(203.999954 0)"/>
      </g>
     </g>
    </g>
    <g id="ytick_4">
     <g id="line2d_7">
      <g>
       <use xlink:href="#m5f404b06e4" x="55.660938" y="86.220947" style="stroke: #000000; stroke-width: 0.8"/>
      </g>
     </g>
     <g id="text_8">
      <!-- 6000 -->
      <g transform="translate(21.460938 90.141259) scale(0.1 -0.1)">
       <defs>
        <path id="AppleGothic-36" d="M 3699 4557 
L 3699 4013 
Q 3584 4102 3475 4163 
Q 3366 4224 3258 4275 
Q 3085 4358 2918 4393 
Q 2752 4429 2586 4429 
Q 2470 4429 2352 4409 
Q 2234 4390 2118 4339 
Q 1670 4154 1395 3738 
Q 1011 3149 1011 2189 
Q 1312 2490 1568 2656 
Q 2022 2931 2534 2931 
Q 3162 2931 3584 2566 
Q 4038 2163 4038 1491 
Q 4038 806 3558 358 
Q 3078 -83 2394 -83 
Q 1670 -83 1146 454 
Q 518 1088 518 2253 
Q 518 3411 1120 4134 
Q 1715 4858 2605 4858 
Q 2938 4858 3226 4762 
Q 3309 4730 3427 4682 
Q 3546 4634 3699 4557 
z
M 1062 1702 
Q 1152 1152 1498 768 
Q 1882 346 2419 346 
Q 2899 346 3213 659 
Q 3539 973 3539 1459 
Q 3539 1920 3226 2214 
Q 2918 2502 2496 2502 
Q 1990 2502 1542 2176 
Q 1414 2080 1292 1965 
Q 1171 1850 1062 1702 
z
" transform="scale(0.015625)"/>
       </defs>
       <use xlink:href="#AppleGothic-36"/>
       <use xlink:href="#AppleGothic-30" transform="translate(67.999985 0)"/>
       <use xlink:href="#AppleGothic-30" transform="translate(135.999969 0)"/>
       <use xlink:href="#AppleGothic-30" transform="translate(203.999954 0)"/>
      </g>
     </g>
    </g>
    <g id="text_9">
     <!-- 몸무게 (g) -->
     <g transform="translate(15.420313 213.794531) rotate(-90) scale(0.1 -0.1)">
      <defs>
       <path id="AppleGothic-bab8" d="M 4659 960 
L 3309 973 
L 1907 960 
L 1914 45 
Q 2221 32 2585 19 
Q 2950 6 3315 6 
Q 3853 6 4150 12 
Q 4448 19 4640 32 
L 4659 960 
z
M 4570 3514 
L 4570 4570 
L 3424 4582 
L 1818 4570 
L 1824 3514 
L 3098 3494 
Q 3430 3494 3667 3494 
Q 3904 3494 4051 3501 
Q 4198 3507 4329 3507 
Q 4461 3507 4570 3514 
z
M 5139 1338 
Q 5126 1242 5123 1168 
Q 5120 1094 5114 1037 
Q 5101 864 5094 723 
Q 5088 582 5088 467 
L 5075 -506 
L 4666 -518 
L 4659 -371 
L 4397 -371 
Q 3424 -352 3315 -352 
L 2470 -352 
Q 2323 -358 2188 -361 
Q 2054 -365 1920 -371 
L 1907 -499 
L 1453 -518 
Q 1466 -333 1469 -96 
Q 1472 141 1472 467 
L 1466 1338 
L 3258 1318 
L 5139 1338 
z
M 6010 1984 
L 3149 1978 
Q 2861 1978 2560 1978 
Q 2259 1978 1946 1971 
Q 1318 1965 953 1961 
Q 589 1958 378 1952 
L 378 2381 
Q 461 2381 649 2377 
Q 838 2374 1146 2368 
Q 1446 2362 1635 2362 
Q 1824 2362 1907 2362 
L 2938 2362 
L 2950 2758 
L 2938 3130 
L 1370 3117 
L 1395 4070 
L 1370 4934 
L 3162 4922 
Q 3731 4922 4163 4925 
Q 4595 4928 5011 4941 
L 4992 4006 
L 5011 3130 
L 3949 3142 
L 3398 3130 
L 3386 2739 
L 3398 2362 
L 4134 2362 
Q 4678 2362 5129 2368 
Q 5581 2374 6010 2394 
L 6010 1984 
z
" transform="scale(0.015625)"/>
       <path id="AppleGothic-bb34" d="M 4563 3962 
L 4550 4602 
Q 4230 4602 3974 4602 
Q 3718 4602 3520 4608 
Q 2733 4621 2304 4627 
Q 1875 4634 1798 4634 
Q 1786 4467 1779 4268 
Q 1773 4070 1773 3878 
L 1786 3270 
L 3213 3258 
L 4550 3277 
L 4563 3962 
z
M 6035 1715 
Q 5888 1722 5776 1725 
Q 5664 1728 5574 1734 
Q 4947 1754 4723 1754 
L 3475 1747 
L 3475 -429 
L 2970 -435 
L 2989 813 
L 2982 1747 
L 1651 1754 
Q 1286 1754 969 1741 
Q 653 1728 365 1715 
L 365 2157 
Q 435 2157 604 2153 
Q 774 2150 1043 2144 
Q 1312 2138 1609 2134 
Q 1907 2131 2246 2125 
Q 2579 2118 2816 2118 
Q 3053 2118 3200 2118 
Q 3501 2118 3795 2118 
Q 4090 2118 4390 2125 
Q 4685 2131 4960 2131 
Q 5235 2131 5485 2138 
Q 5741 2144 5875 2147 
Q 6010 2150 6035 2150 
L 6035 1715 
z
M 5037 4998 
L 5018 3981 
L 5018 2886 
L 2938 2899 
Q 2630 2899 2393 2899 
Q 2157 2899 1984 2893 
Q 1805 2893 1635 2889 
Q 1466 2886 1299 2880 
L 1312 3936 
L 1306 5011 
L 3200 4986 
L 5037 4998 
z
" transform="scale(0.015625)"/>
       <path id="AppleGothic-ac8c" d="M 5677 5075 
Q 5677 5056 5654 4966 
Q 5632 4877 5632 4826 
L 5613 2336 
L 5613 -557 
L 5184 -602 
L 5178 5184 
L 5389 5190 
Q 5517 5190 5597 5168 
Q 5677 5146 5677 5075 
z
M 4371 -179 
L 3910 -205 
L 3923 1306 
L 3910 2426 
L 2803 2406 
L 2803 2790 
L 3923 2790 
L 3898 4506 
L 3872 4947 
L 3968 4947 
Q 4134 4947 4252 4924 
Q 4371 4902 4371 4826 
Q 4371 4787 4355 4704 
Q 4339 4621 4339 4602 
L 4333 2784 
Q 4333 2304 4333 1942 
Q 4333 1581 4339 1338 
Q 4346 1094 4346 844 
Q 4346 595 4352 339 
Q 4358 -179 4371 -179 
z
M 3046 4499 
L 3008 4141 
Q 2976 3917 2931 3702 
Q 2886 3488 2829 3277 
Q 2675 2694 2432 2240 
Q 2298 1978 2118 1734 
Q 1939 1491 1722 1267 
Q 1562 1114 1395 970 
Q 1229 826 1043 691 
Q 774 499 742 499 
Q 698 538 669 566 
Q 640 595 614 608 
Q 538 666 496 694 
Q 454 723 428 742 
Q 403 762 393 771 
Q 384 781 371 794 
Q 365 794 365 800 
Q 378 806 397 806 
Q 429 819 454 858 
Q 474 858 736 1018 
Q 922 1139 1085 1264 
Q 1248 1389 1382 1517 
Q 1805 1926 2048 2406 
Q 2208 2707 2320 3008 
Q 2432 3309 2502 3616 
Q 2528 3725 2544 3849 
Q 2560 3974 2573 4122 
L 1664 4128 
Q 1421 4128 1158 4115 
Q 896 4102 672 4090 
L 672 4486 
L 3046 4499 
z
" transform="scale(0.015625)"/>
       <path id="AppleGothic-67" d="M 2822 3040 
L 2950 3424 
L 3290 3424 
L 3290 326 
Q 3290 -474 2899 -890 
Q 2509 -1306 1690 -1306 
Q 1357 -1306 1059 -1187 
Q 762 -1069 435 -819 
L 435 -256 
Q 640 -448 838 -579 
Q 1037 -710 1229 -781 
Q 1453 -864 1690 -864 
Q 2195 -864 2477 -634 
Q 2822 -352 2822 269 
L 2822 691 
Q 2579 288 2221 122 
Q 1978 6 1683 6 
Q 1050 6 621 512 
Q 198 1030 198 1709 
Q 198 2387 595 2906 
Q 1056 3501 1773 3501 
Q 2131 3501 2451 3328 
Q 2547 3270 2640 3200 
Q 2733 3130 2822 3040 
z
M 2822 1658 
L 2822 2598 
Q 2714 2720 2602 2803 
Q 2490 2886 2381 2950 
Q 2253 3021 2118 3053 
Q 1984 3085 1843 3085 
Q 1363 3085 1050 2746 
Q 698 2362 698 1734 
Q 698 1165 992 794 
Q 1280 429 1741 429 
Q 2195 429 2509 781 
Q 2822 1120 2822 1658 
z
" transform="scale(0.015625)"/>
      </defs>
      <use xlink:href="#AppleGothic-bab8"/>
      <use xlink:href="#AppleGothic-bb34" transform="translate(99.999985 0)"/>
      <use xlink:href="#AppleGothic-ac8c" transform="translate(199.999969 0)"/>
      <use xlink:href="#AppleGothic-20" transform="translate(299.999954 0)"/>
      <use xlink:href="#AppleGothic-28" transform="translate(331.999939 0)"/>
      <use xlink:href="#AppleGothic-67" transform="translate(381.999924 0)"/>
      <use xlink:href="#AppleGothic-29" transform="translate(438.199921 0)"/>
     </g>
    </g>
   </g>
   <g id="line2d_8">
    <path d="M 148.660938 306.916053 
L 148.660938 172.046821 
" clip-path="url(#p4bc383165a)" style="fill: none; stroke: #6f6f6f; stroke-width: 1.875; stroke-linecap: square"/>
   </g>
   <g id="line2d_9">
    <path d="M 148.660938 271.009309 
L 148.660938 226.344824 
" clip-path="url(#p4bc383165a)" style="fill: none; stroke: #6f6f6f; stroke-width: 5.625; stroke-linecap: square"/>
   </g>
   <g id="line2d_10">
    <path d="M 148.660938 247.363405 
" clip-path="url(#p4bc383165a)" style="fill: none; stroke: #6f6f6f; stroke-width: 1.5; stroke-linecap: square"/>
    <defs>
     <path id="m1d77481c45" d="M 2.34375 0 
L -2.34375 -0 
" style="stroke: #ffffff; stroke-width: 1.125"/>
    </defs>
    <g clip-path="url(#p4bc383165a)">
     <use xlink:href="#m1d77481c45" x="148.660938" y="247.363405" style="fill: #ffffff; stroke: #ffffff; stroke-width: 1.125"/>
    </g>
   </g>
   <g id="line2d_11">
    <path d="M 334.660938 303.412956 
L 334.660938 187.810757 
" clip-path="url(#p4bc383165a)" style="fill: none; stroke: #6f6f6f; stroke-width: 1.875; stroke-linecap: square"/>
   </g>
   <g id="line2d_12">
    <path d="M 334.660938 262.251567 
L 334.660938 229.847921 
" clip-path="url(#p4bc383165a)" style="fill: none; stroke: #6f6f6f; stroke-width: 5.625; stroke-linecap: square"/>
   </g>
   <g id="line2d_13">
    <path d="M 334.660938 247.363405 
" clip-path="url(#p4bc383165a)" style="fill: none; stroke: #6f6f6f; stroke-width: 1.5; stroke-linecap: square"/>
    <g clip-path="url(#p4bc383165a)">
     <use xlink:href="#m1d77481c45" x="334.660938" y="247.363405" style="fill: #ffffff; stroke: #ffffff; stroke-width: 1.125"/>
    </g>
   </g>
   <g id="line2d_14">
    <path d="M 520.660938 229.847921 
L 520.660938 65.202365 
" clip-path="url(#p4bc383165a)" style="fill: none; stroke: #6f6f6f; stroke-width: 1.875; stroke-linecap: square"/>
   </g>
   <g id="line2d_15">
    <path d="M 520.660938 177.301467 
L 520.660938 121.251916 
" clip-path="url(#p4bc383165a)" style="fill: none; stroke: #6f6f6f; stroke-width: 5.625; stroke-linecap: square"/>
   </g>
   <g id="line2d_16">
    <path d="M 520.660938 152.779788 
" clip-path="url(#p4bc383165a)" style="fill: none; stroke: #6f6f6f; stroke-width: 1.5; stroke-linecap: square"/>
    <g clip-path="url(#p4bc383165a)">
     <use xlink:href="#m1d77481c45" x="520.660938" y="152.779788" style="fill: #ffffff; stroke: #ffffff; stroke-width: 1.125"/>
    </g>
   </g>
   <g id="patch_3">
    <path d="M 55.660938 355.704375 
L 55.660938 23.064375 
" style="fill: none; stroke: #000000; stroke-width: 0.8; stroke-linejoin: miter; stroke-linecap: square"/>
   </g>
   <g id="patch_4">
    <path d="M 613.660938 355.704375 
L 613.660938 23.064375 
" style="fill: none; stroke: #000000; stroke-width: 0.8; stroke-linejoin: miter; stroke-linecap: square"/>
   </g>
   <g id="patch_5">
    <path d="M 55.660938 355.704375 
L 613.660938 355.704375 
" style="fill: none; stroke: #000000; stroke-width: 0.8; stroke-linejoin: miter; stroke-linecap: square"/>
   </g>
   <g id="patch_6">
    <path d="M 55.660938 23.064375 
L 613.660938 23.064375 
" style="fill: none; stroke: #000000; stroke-width: 0.8; stroke-linejoin: miter; stroke-linecap: square"/>
   </g>
   <g id="text_10">
    <!-- 펭귄 품종별 몸무게(Body Mass) 분포 비교 -->
    <g transform="translate(218.309687 17.064375) scale(0.12 -0.12)">
     <defs>
      <path id="AppleGothic-d3ad" d="M 5261 410 
Q 5261 774 4704 922 
Q 4525 960 4278 982 
Q 4032 1005 3718 1005 
Q 2765 1005 2374 845 
Q 2054 698 2054 442 
Q 2054 109 2573 -38 
Q 2778 -96 3053 -121 
Q 3328 -147 3686 -147 
Q 4109 -147 4419 -102 
Q 4730 -58 4934 38 
Q 5261 179 5261 410 
z
M 5741 442 
Q 5741 -45 5171 -307 
Q 4621 -544 3674 -544 
Q 2765 -544 2259 -371 
Q 1562 -134 1562 410 
Q 1562 941 2202 1190 
Q 2739 1395 3693 1395 
Q 4198 1395 4569 1344 
Q 4941 1293 5184 1197 
Q 5741 954 5741 442 
z
M 3642 2074 
Q 3462 2010 3110 1971 
Q 2944 1958 2697 1948 
Q 2451 1939 2125 1939 
L 832 1837 
Q 781 1824 736 1811 
Q 691 1798 646 1786 
Q 570 1786 518 1952 
Q 467 2125 467 2227 
L 960 2227 
Q 1094 2227 1174 2233 
Q 1254 2240 1318 2253 
Q 1312 2291 1309 2326 
Q 1306 2362 1306 2394 
Q 1293 2560 1273 2701 
Q 1254 2842 1242 2950 
Q 1184 3392 1126 3667 
Q 1114 3718 1101 3769 
Q 1088 3821 1075 3872 
L 1446 3885 
Q 1568 3885 1568 3827 
L 1568 3642 
Q 1581 3616 1603 3456 
Q 1626 3296 1658 2995 
Q 1690 2694 1706 2515 
Q 1722 2336 1722 2272 
L 2355 2317 
Q 2426 2701 2470 2960 
Q 2515 3219 2534 3366 
Q 2547 3514 2556 3651 
Q 2566 3789 2566 3923 
Q 2771 3923 2921 3888 
Q 3072 3853 3072 3802 
Q 3072 3763 3049 3715 
Q 3027 3667 2995 3610 
L 2886 2982 
Q 2874 2906 2858 2803 
Q 2842 2701 2816 2566 
Q 2803 2483 2778 2342 
Q 2848 2342 2957 2355 
Q 3066 2368 3213 2394 
Q 3360 2419 3459 2432 
Q 3558 2445 3610 2445 
L 3642 2074 
z
M 5651 5082 
Q 5651 5050 5628 4957 
Q 5606 4864 5606 4813 
Q 5600 4755 5600 4704 
Q 5600 4653 5600 4614 
Q 5581 3968 5581 3437 
L 5581 3162 
L 5581 1888 
Q 5587 1709 5590 1577 
Q 5594 1446 5606 1357 
L 5165 1325 
L 5178 3078 
L 5171 5190 
L 5235 5190 
Q 5408 5190 5529 5171 
Q 5651 5152 5651 5082 
z
M 4582 4915 
Q 4582 4870 4576 4851 
Q 4544 4704 4544 4666 
L 4544 2765 
L 4544 1971 
Q 4550 1856 4553 1753 
Q 4557 1651 4563 1555 
L 4122 1530 
L 4134 2195 
L 4122 3072 
L 3712 3078 
L 3334 3066 
L 3334 3456 
Q 3373 3450 3430 3450 
Q 3488 3450 3558 3443 
Q 3629 3437 3670 3437 
Q 3712 3437 3725 3437 
L 4122 3450 
L 4128 3936 
Q 4128 3981 4128 4064 
Q 4128 4147 4122 4262 
Q 4115 4384 4115 4483 
Q 4115 4582 4115 4653 
L 4102 4998 
L 4262 5005 
Q 4390 5005 4486 4985 
Q 4582 4966 4582 4915 
z
M 3546 4179 
Q 3418 4186 3251 4186 
Q 3085 4186 2880 4192 
Q 2675 4198 2480 4201 
Q 2285 4205 2099 4205 
Q 1370 4198 982 4195 
Q 595 4192 538 4192 
L 538 4576 
Q 634 4576 1043 4560 
Q 1453 4544 2074 4544 
Q 2419 4544 2659 4544 
Q 2899 4544 3046 4550 
Q 3194 4557 3318 4563 
Q 3443 4570 3546 4576 
L 3546 4179 
z
" transform="scale(0.015625)"/>
      <path id="AppleGothic-adc4" d="M 5498 -307 
Q 5389 -301 5229 -301 
Q 5069 -301 4864 -294 
Q 4659 -288 4518 -288 
Q 4378 -288 4301 -288 
L 2547 -307 
L 1421 -301 
Q 1421 -218 1424 -102 
Q 1427 13 1430 131 
Q 1434 250 1434 365 
Q 1434 480 1434 576 
Q 1434 915 1430 1081 
Q 1427 1248 1421 1344 
L 1510 1344 
Q 1715 1344 1824 1331 
Q 1933 1318 1933 1267 
Q 1933 1242 1904 1158 
Q 1875 1075 1875 1011 
L 1875 77 
L 3789 77 
Q 4134 77 4393 77 
Q 4653 77 4838 83 
Q 5024 90 5187 93 
Q 5350 96 5498 109 
L 5498 -307 
z
M 4410 2861 
L 2682 2778 
L 2682 1318 
L 2227 1293 
L 2240 2746 
Q 2099 2739 1910 2739 
Q 1722 2739 1478 2733 
Q 1235 2726 1072 2726 
Q 909 2726 826 2726 
Q 774 2726 659 2694 
Q 634 2688 618 2685 
Q 602 2682 589 2682 
Q 531 2682 525 2758 
L 474 3123 
Q 563 3117 697 3117 
Q 832 3117 1005 3110 
Q 1184 3104 1325 3104 
Q 1466 3104 1574 3104 
L 1824 3104 
Q 2272 3104 2582 3117 
Q 2893 3130 3117 3142 
Q 3219 3450 3289 3741 
Q 3360 4032 3360 4256 
L 2042 4294 
Q 1766 4294 1593 4294 
Q 1421 4294 1338 4288 
Q 1254 4288 1190 4285 
Q 1126 4282 1062 4275 
L 1062 4666 
L 2470 4646 
L 3859 4646 
Q 3859 4403 3795 4102 
Q 3789 4070 3731 3836 
Q 3674 3603 3565 3162 
L 4410 3226 
L 4410 2861 
z
M 5414 5101 
Q 5414 5088 5385 5008 
Q 5357 4928 5357 4877 
Q 5350 4698 5350 4442 
Q 5350 4186 5344 3853 
Q 5338 3514 5338 3274 
Q 5338 3034 5338 2886 
L 5344 954 
L 4890 947 
Q 4902 1376 4915 1897 
Q 4928 2419 4928 2944 
L 4915 5190 
Q 5120 5190 5267 5177 
Q 5414 5165 5414 5101 
z
" transform="scale(0.015625)"/>
      <path id="AppleGothic-bcc4" d="M 3027 2739 
L 3027 3680 
L 2150 3693 
L 1293 3680 
L 1293 2739 
L 2144 2720 
L 3027 2739 
z
M 5440 -531 
Q 5178 -525 4906 -518 
Q 4634 -512 4339 -506 
Q 4038 -499 3801 -496 
Q 3565 -493 3379 -493 
L 1446 -493 
Q 1453 -422 1456 -336 
Q 1459 -250 1466 -141 
Q 1466 -45 1469 19 
Q 1472 83 1472 115 
L 1459 762 
L 3354 749 
L 4845 774 
L 4845 1382 
L 1446 1370 
L 1446 1734 
Q 1658 1734 1888 1728 
Q 2118 1722 2374 1715 
Q 2630 1709 2864 1705 
Q 3098 1702 3322 1702 
L 5299 1715 
L 5280 1094 
L 5293 410 
L 3373 429 
L 1901 416 
L 1901 -128 
Q 1978 -134 2134 -134 
Q 2291 -134 2522 -134 
Q 2752 -141 2969 -144 
Q 3187 -147 3392 -147 
Q 3846 -147 4380 -137 
Q 4915 -128 5440 -109 
L 5440 -531 
z
M 5440 5062 
Q 5440 5024 5414 4937 
Q 5389 4851 5389 4813 
Q 5382 4589 5372 4224 
Q 5363 3859 5363 3334 
Q 5363 3008 5363 2784 
Q 5363 2560 5370 2445 
Q 5376 2323 5376 2220 
Q 5376 2118 5382 2029 
L 4922 2029 
Q 4941 2189 4941 2394 
L 4941 2822 
L 3878 2803 
L 3878 3174 
L 4941 3162 
L 4941 3917 
L 3859 3904 
L 3859 4269 
L 4941 4256 
L 4941 4685 
Q 4941 4909 4934 5021 
Q 4928 5133 4915 5190 
L 5056 5190 
Q 5222 5190 5331 5164 
Q 5440 5139 5440 5062 
z
M 3488 4877 
L 3469 4710 
L 3456 3462 
L 3469 2362 
L 851 2362 
Q 851 2630 857 2944 
Q 864 3258 870 3578 
Q 870 3853 870 4061 
Q 870 4269 864 4416 
Q 858 4570 858 4704 
Q 858 4838 851 4966 
L 979 4966 
Q 1146 4966 1242 4950 
Q 1338 4934 1338 4864 
Q 1338 4838 1315 4761 
Q 1293 4685 1293 4653 
L 1293 4051 
L 2157 4032 
L 3027 4051 
L 3014 4998 
L 3072 4998 
Q 3264 4998 3376 4976 
Q 3488 4954 3488 4877 
z
" transform="scale(0.015625)"/>
      <path id="AppleGothic-42" d="M 307 5018 
L 2029 5018 
Q 2675 5018 3053 4755 
Q 3494 4442 3494 3859 
Q 3494 3373 3181 3040 
Q 3091 2938 2960 2854 
Q 2829 2771 2662 2694 
Q 3322 2586 3616 2176 
Q 3840 1862 3840 1472 
Q 3840 838 3360 416 
Q 2899 0 2240 0 
L 307 0 
L 307 5018 
z
M 1997 4576 
L 813 4576 
L 813 2854 
L 1766 2854 
Q 2342 2854 2649 3113 
Q 2957 3373 2957 3782 
Q 2957 4102 2739 4333 
Q 2477 4576 1997 4576 
z
M 1907 2413 
L 813 2413 
L 813 442 
L 2029 442 
Q 2579 442 2931 717 
Q 3283 1011 3283 1466 
Q 3283 1926 2928 2169 
Q 2573 2413 1907 2413 
z
" transform="scale(0.015625)"/>
      <path id="AppleGothic-79" d="M 179 3424 
L 691 3424 
L 1869 531 
L 2874 3424 
L 3379 3424 
L 1952 -397 
Q 1798 -806 1555 -979 
Q 1338 -1126 1037 -1126 
Q 883 -1126 780 -1104 
Q 678 -1082 582 -1043 
L 582 -602 
Q 672 -646 784 -678 
Q 896 -710 986 -710 
Q 1210 -710 1334 -595 
Q 1459 -480 1555 -230 
L 1632 32 
L 179 3424 
z
" transform="scale(0.015625)"/>
      <path id="AppleGothic-4d" d="M 288 0 
L 288 5018 
L 947 5018 
L 2893 864 
L 4902 5018 
L 5523 5018 
L 5523 0 
L 5069 0 
L 5069 4358 
L 3002 0 
L 2784 0 
L 749 4352 
L 749 0 
L 288 0 
z
" transform="scale(0.015625)"/>
      <path id="AppleGothic-bd84" d="M 4557 3194 
L 4557 4077 
L 3130 4096 
L 1754 4077 
L 1754 3194 
L 3110 3174 
L 4557 3194 
z
M 5210 -429 
L 3194 -410 
L 1325 -429 
L 1338 474 
L 1325 1197 
L 1549 1203 
Q 1645 1203 1741 1190 
Q 1837 1178 1837 1114 
Q 1837 1094 1817 1030 
Q 1798 966 1798 934 
L 1792 -38 
L 3194 -38 
Q 3539 -38 3820 -38 
Q 4102 -38 4342 -32 
Q 4582 -26 4793 -22 
Q 5005 -19 5210 -6 
L 5210 -429 
z
M 6016 1760 
Q 5504 1760 4614 1779 
Q 4166 1792 3878 1798 
Q 3590 1805 3462 1805 
L 3475 627 
L 2995 621 
L 3002 1805 
L 1670 1792 
Q 1222 1792 915 1779 
Q 608 1766 384 1754 
L 384 2182 
Q 474 2182 621 2179 
Q 768 2176 979 2170 
Q 1190 2163 1472 2160 
Q 1754 2157 2099 2150 
Q 2445 2144 2720 2141 
Q 2995 2138 3200 2138 
Q 3744 2138 4550 2157 
Q 4960 2170 5213 2176 
Q 5466 2182 5568 2189 
Q 5677 2195 5789 2201 
Q 5901 2208 6016 2214 
L 6016 1760 
z
M 5043 5094 
Q 5043 5069 5024 5011 
Q 5005 4954 5005 4934 
L 4992 4122 
L 5011 2803 
L 3104 2822 
L 1306 2803 
Q 1306 2880 1309 3005 
Q 1312 3130 1315 3280 
Q 1318 3430 1321 3593 
Q 1325 3757 1325 3917 
Q 1325 4390 1318 4678 
Q 1312 4966 1299 5158 
L 1472 5165 
Q 1613 5165 1699 5142 
Q 1786 5120 1786 5056 
Q 1786 5024 1770 4957 
Q 1754 4890 1754 4870 
L 1754 4442 
L 3136 4422 
L 4557 4442 
L 4544 5197 
L 4704 5203 
Q 4851 5203 4947 5180 
Q 5043 5158 5043 5094 
z
" transform="scale(0.015625)"/>
      <path id="AppleGothic-d3ec" d="M 6029 83 
Q 5523 96 4883 102 
Q 4243 109 3546 109 
L 3213 109 
Q 2739 109 2259 102 
Q 1779 96 1274 83 
Q 1094 77 870 70 
Q 646 64 371 51 
L 371 525 
Q 634 512 976 499 
Q 1318 486 1734 486 
L 2970 486 
L 2982 1094 
L 2970 1734 
L 2029 1734 
L 1011 1696 
L 1011 2131 
L 1581 2118 
L 2125 2125 
L 2029 2874 
Q 1997 3059 1971 3203 
Q 1946 3347 1920 3437 
Q 1907 3482 1894 3536 
Q 1882 3590 1869 3648 
L 2298 3680 
Q 2362 3680 2400 3654 
Q 2438 3629 2438 3552 
Q 2438 3366 2448 3187 
Q 2458 3008 2483 2835 
Q 2496 2714 2512 2598 
Q 2528 2483 2541 2368 
Q 2547 2317 2560 2256 
Q 2573 2195 2586 2112 
L 3168 2099 
L 3776 2118 
Q 3789 2182 3801 2230 
Q 3814 2278 3821 2317 
Q 3853 2470 3875 2595 
Q 3898 2720 3910 2816 
Q 3968 3245 3987 3603 
Q 3987 3622 3987 3648 
Q 3987 3674 3994 3706 
Q 4096 3706 4195 3699 
Q 4294 3693 4371 3677 
Q 4448 3661 4493 3641 
Q 4538 3622 4538 3603 
Q 4538 3571 4506 3507 
Q 4474 3443 4461 3386 
Q 4454 3354 4451 3322 
Q 4448 3290 4442 3238 
Q 4435 3187 4412 3065 
Q 4390 2944 4358 2739 
L 4243 2125 
L 4704 2125 
Q 4890 2125 5050 2137 
Q 5210 2150 5338 2163 
L 5338 1702 
Q 5235 1709 5161 1712 
Q 5088 1715 5024 1715 
Q 4563 1734 4442 1734 
L 3456 1734 
L 3443 1094 
L 3456 486 
L 4685 493 
L 6029 538 
L 6029 83 
z
M 5344 4026 
Q 5210 4032 5098 4032 
Q 4986 4032 4896 4032 
Q 4275 4045 3859 4051 
Q 3443 4058 3226 4058 
Q 2982 4058 2649 4051 
Q 2317 4045 1875 4032 
Q 1722 4026 1507 4019 
Q 1293 4013 1011 4000 
L 1011 4448 
Q 1459 4435 2022 4422 
Q 2586 4410 3226 4410 
Q 3706 4410 4058 4413 
Q 4410 4416 4627 4422 
Q 4845 4435 5021 4444 
Q 5197 4454 5344 4467 
L 5344 4026 
z
" transform="scale(0.015625)"/>
      <path id="AppleGothic-be44" d="M 2963 2157 
L 2957 2893 
L 954 2893 
L 973 1453 
L 1952 1434 
L 2957 1453 
L 2963 2157 
z
M 5453 5094 
Q 5453 5069 5433 5005 
Q 5414 4941 5414 4922 
L 5414 4416 
Q 5395 2554 5395 2253 
Q 5395 1357 5408 681 
Q 5421 6 5440 -557 
L 4941 -570 
Q 4947 -390 4947 -124 
Q 4947 141 4954 493 
Q 4960 851 4960 1129 
Q 4960 1408 4960 1613 
L 4960 2266 
Q 4960 2554 4957 2822 
Q 4954 3091 4947 3354 
Q 4941 3622 4937 3884 
Q 4934 4147 4934 4416 
Q 4928 4947 4915 5190 
L 5114 5197 
Q 5248 5197 5350 5174 
Q 5453 5152 5453 5094 
z
M 3450 1043 
L 506 1043 
L 518 2720 
Q 518 3360 512 3757 
Q 506 4154 493 4429 
L 877 4410 
Q 986 4410 986 4333 
Q 986 4307 970 4243 
Q 954 4179 954 4160 
L 954 3296 
Q 1114 3290 1344 3286 
Q 1574 3283 1971 3283 
L 2957 3296 
L 2938 4480 
L 3194 4486 
Q 3322 4486 3386 4467 
Q 3450 4448 3450 4390 
Q 3450 4371 3437 4313 
Q 3424 4256 3424 4230 
L 3418 3085 
Q 3418 2566 3424 2057 
Q 3430 1549 3450 1043 
z
" transform="scale(0.015625)"/>
      <path id="AppleGothic-ad50" d="M 6048 250 
Q 5958 250 5804 250 
Q 5651 250 5440 256 
Q 5229 262 4950 268 
Q 4672 275 4326 282 
Q 3981 288 3715 291 
Q 3450 294 3258 294 
Q 2976 294 2630 288 
Q 2285 282 1862 269 
Q 1440 256 1177 249 
Q 915 243 806 237 
Q 595 224 346 218 
L 346 666 
Q 493 653 691 643 
Q 890 634 1216 634 
L 1818 640 
L 1830 2464 
Q 1830 2592 1824 2691 
Q 1818 2790 1805 2842 
L 2067 2822 
Q 2291 2797 2291 2752 
Q 2291 2739 2265 2659 
Q 2240 2579 2240 2528 
L 2240 653 
L 3437 653 
L 3430 2451 
Q 3430 2566 3430 2636 
Q 3430 2707 3424 2739 
Q 3424 2771 3421 2796 
Q 3418 2822 3411 2848 
Q 3482 2842 3546 2842 
Q 3610 2842 3680 2835 
Q 3904 2810 3904 2765 
Q 3904 2746 3872 2656 
Q 3840 2566 3840 2515 
L 3840 653 
L 6048 672 
L 6048 250 
z
M 5306 4608 
L 5306 4448 
Q 5306 2970 4992 1459 
L 4563 1523 
Q 4589 1651 4608 1750 
Q 4627 1850 4640 1933 
Q 4678 2189 4713 2409 
Q 4749 2630 4774 2822 
Q 4774 3206 4787 3542 
Q 4800 3878 4819 4179 
L 3642 4192 
L 947 4147 
L 947 4589 
L 2528 4576 
L 5306 4608 
z
" transform="scale(0.015625)"/>
     </defs>
     <use xlink:href="#AppleGothic-d3ad"/>
     <use xlink:href="#AppleGothic-adc4" transform="translate(99.999985 0)"/>
     <use xlink:href="#AppleGothic-20" transform="translate(199.999969 0)"/>
     <use xlink:href="#AppleGothic-d488" transform="translate(231.999954 0)"/>
     <use xlink:href="#AppleGothic-c885" transform="translate(331.999939 0)"/>
     <use xlink:href="#AppleGothic-bcc4" transform="translate(431.999924 0)"/>
     <use xlink:href="#AppleGothic-20" transform="translate(531.999908 0)"/>
     <use xlink:href="#AppleGothic-bab8" transform="translate(563.999893 0)"/>
     <use xlink:href="#AppleGothic-bb34" transform="translate(663.999878 0)"/>
     <use xlink:href="#AppleGothic-ac8c" transform="translate(763.999863 0)"/>
     <use xlink:href="#AppleGothic-28" transform="translate(863.999847 0)"/>
     <use xlink:href="#AppleGothic-42" transform="translate(913.999832 0)"/>
     <use xlink:href="#AppleGothic-6f" transform="translate(978.399826 0)"/>
     <use xlink:href="#AppleGothic-64" transform="translate(1036.699814 0)"/>
     <use xlink:href="#AppleGothic-79" transform="translate(1090.699799 0)"/>
     <use xlink:href="#AppleGothic-20" transform="translate(1146.399796 0)"/>
     <use xlink:href="#AppleGothic-4d" transform="translate(1178.39978 0)"/>
     <use xlink:href="#AppleGothic-61" transform="translate(1269.499771 0)"/>
     <use xlink:href="#AppleGothic-73" transform="translate(1325.999756 0)"/>
     <use xlink:href="#AppleGothic-73" transform="translate(1375.599747 0)"/>
     <use xlink:href="#AppleGothic-29" transform="translate(1425.199738 0)"/>
     <use xlink:href="#AppleGothic-20" transform="translate(1475.199722 0)"/>
     <use xlink:href="#AppleGothic-bd84" transform="translate(1507.199707 0)"/>
     <use xlink:href="#AppleGothic-d3ec" transform="translate(1607.199692 0)"/>
     <use xlink:href="#AppleGothic-20" transform="translate(1707.199677 0)"/>
     <use xlink:href="#AppleGothic-be44" transform="translate(1739.199661 0)"/>
     <use xlink:href="#AppleGothic-ad50" transform="translate(1839.199646 0)"/>
    </g>
   </g>
  </g>
 </g>
 <defs>
  <clipPath id="p4bc383165a">
   <rect x="55.660938" y="23.064375" width="558" height="332.64"/>
  </clipPath>
 </defs>
</svg>
