<?xml version="1.0" encoding="utf-8" standalone="no"?>
<!DOCTYPE svg PUBLIC "-//W3C//DTD SVG 1.1//EN"
  "http://www.w3.org/Graphics/SVG/1.1/DTD/svg11.dtd">
<svg xmlns:xlink="http://www.w3.org/1999/xlink" width="520.360937pt" height="347.90125pt" viewBox="0 0 520.360937 347.90125" xmlns="http://www.w3.org/2000/svg" version="1.1">
 <metadata>
  <rdf:RDF xmlns:dc="http://purl.org/dc/elements/1.1/" xmlns:cc="http://creativecommons.org/ns#" xmlns:rdf="http://www.w3.org/1999/02/22-rdf-syntax-ns#">
   <cc:Work>
    <dc:type rdf:resource="http://purl.org/dc/dcmitype/StillImage"/>
    <dc:date>2026-05-22T14:25:55.690609</dc:date>
    <dc:format>image/svg+xml</dc:format>
    <dc:creator>
     <cc:Agent>
      <dc:title>Matplotlib v3.10.9, https://matplotlib.org/</dc:title>
     </cc:Agent>
    </dc:creator>
   </cc:Work>
  </rdf:RDF>
 </metadata>
 <defs>
  <style type="text/css">*{stroke-linejoin: round; stroke-linecap: butt}</style>
 </defs>
 <g id="figure_1">
  <g id="patch_1">
   <path d="M 0 347.90125 
L 520.360937 347.90125 
L 520.360937 0 
L 0 0 
z
" style="fill: #ffffff"/>
  </g>
  <g id="axes_1">
   <g id="patch_2">
    <path d="M 66.760937 315.236875 
L 513.160937 315.236875 
L 513.160937 38.036875 
L 66.760937 38.036875 
z
" style="fill: #ffffff"/>
   </g>
   <g id="matplotlib.axis_1">
    <g id="xtick_1">
     <g id="line2d_1">
      <path d="M 145.025873 315.236875 
L 145.025873 38.036875 
" clip-path="url(#p6ffd00efd8)" style="fill: none; stroke: #b0b0b0; stroke-opacity: 0.3; stroke-width: 0.8; stroke-linecap: square"/>
     </g>
     <g id="line2d_2">
      <defs>
       <path id="mf0b78ccddf" d="M 0 0 
L 0 3.5 
" style="stroke: #000000; stroke-width: 0.8"/>
      </defs>
      <g>
       <use xlink:href="#mf0b78ccddf" x="145.025873" y="315.236875" style="stroke: #000000; stroke-width: 0.8"/>
      </g>
     </g>
     <g id="text_1">
      <!-- Technology -->
      <g transform="translate(118.714935 330.0775) scale(0.1 -0.1)">
       <defs>
        <path id="AppleGothic-54" d="M 166 5018 
L 4038 5018 
L 4038 4576 
L 2355 4576 
L 2355 0 
L 1856 0 
L 1856 4576 
L 166 4576 
L 166 5018 
z
" transform="scale(0.015625)"/>
        <path id="AppleGothic-65" d="M 3296 1850 
L 691 1850 
Q 691 1114 1033 726 
Q 1376 339 1933 339 
Q 2355 339 2746 608 
Q 2854 678 2976 784 
Q 3098 890 3238 1030 
L 3238 474 
Q 3085 358 2953 272 
Q 2822 186 2707 128 
Q 2304 -83 1901 -83 
Q 1203 -83 717 397 
Q 192 902 192 1709 
Q 192 2470 666 2982 
Q 1146 3501 1850 3501 
Q 2534 3501 2938 3002 
Q 3296 2547 3296 1850 
z
M 755 2240 
L 2758 2240 
Q 2682 2675 2429 2889 
Q 2176 3104 1818 3104 
Q 1421 3104 1146 2854 
Q 890 2624 755 2240 
z
" transform="scale(0.015625)"/>
        <path id="AppleGothic-63" d="M 3085 3123 
L 3085 2522 
Q 2726 2861 2349 3008 
Q 2240 3053 2125 3069 
Q 2010 3085 1894 3085 
Q 1363 3085 1024 2688 
Q 685 2278 685 1715 
Q 685 1139 1037 730 
Q 1389 339 1920 339 
Q 2253 339 2528 483 
Q 2803 627 3085 915 
L 3085 307 
Q 2746 96 2470 6 
Q 2195 -83 1914 -83 
Q 1197 -83 685 429 
Q 186 960 186 1709 
Q 186 2445 678 2976 
Q 1178 3501 1920 3501 
Q 2298 3501 2624 3373 
Q 2816 3302 3085 3123 
z
" transform="scale(0.015625)"/>
        <path id="AppleGothic-68" d="M 288 5018 
L 749 5018 
L 749 2810 
Q 909 3066 1139 3238 
Q 1491 3501 1926 3501 
Q 2195 3501 2409 3424 
Q 2624 3347 2803 3200 
Q 3181 2867 3181 2266 
L 3181 0 
L 2714 0 
L 2714 2202 
Q 2714 2573 2477 2829 
Q 2240 3085 1901 3085 
Q 1408 3085 1082 2694 
Q 749 2291 749 1773 
L 749 0 
L 288 0 
L 288 5018 
z
" transform="scale(0.015625)"/>
        <path id="AppleGothic-6e" d="M 3264 2291 
L 3264 0 
L 2803 0 
L 2803 2259 
Q 2803 2618 2541 2848 
Q 2278 3085 1914 3085 
Q 1427 3085 1075 2682 
Q 723 2272 723 1760 
L 723 0 
L 288 0 
L 288 3424 
L 691 3424 
L 710 2784 
Q 883 3046 1114 3219 
Q 1491 3501 1965 3501 
Q 2515 3501 2886 3168 
Q 3264 2842 3264 2291 
z
" transform="scale(0.015625)"/>
        <path id="AppleGothic-6f" d="M 1888 -83 
Q 1229 -83 730 397 
Q 198 902 198 1709 
Q 198 2470 666 2982 
Q 1146 3501 1850 3501 
Q 2547 3501 3027 2982 
Q 3501 2470 3501 1715 
Q 3501 922 2989 403 
Q 2515 -83 1888 -83 
z
M 1843 339 
Q 2304 339 2662 723 
Q 3008 1114 3008 1715 
Q 3008 2336 2637 2726 
Q 2298 3085 1850 3085 
Q 1389 3085 1062 2714 
Q 704 2304 704 1709 
Q 704 1107 1056 704 
Q 1382 339 1843 339 
z
" transform="scale(0.015625)"/>
        <path id="AppleGothic-6c" d="M 288 5018 
L 749 5018 
L 749 0 
L 288 0 
L 288 5018 
z
" transform="scale(0.015625)"/>
        <path id="AppleGothic-67" d="M 2822 3040 
L 2950 3424 
L 3290 3424 
L 3290 326 
Q 3290 -474 2899 -890 
Q 2509 -1306 1690 -1306 
Q 1357 -1306 1059 -1187 
Q 762 -1069 435 -819 
L 435 -256 
Q 640 -448 838 -579 
Q 1037 -710 1229 -781 
Q 1453 -864 1690 -864 
Q 2195 -864 2477 -634 
Q 2822 -352 2822 269 
L 2822 691 
Q 2579 288 2221 122 
Q 1978 6 1683 6 
Q 1050 6 621 512 
Q 198 1030 198 1709 
Q 198 2387 595 2906 
Q 1056 3501 1773 3501 
Q 2131 3501 2451 3328 
Q 2547 3270 2640 3200 
Q 2733 3130 2822 3040 
z
M 2822 1658 
L 2822 2598 
Q 2714 2720 2602 2803 
Q 2490 2886 2381 2950 
Q 2253 3021 2118 3053 
Q 1984 3085 1843 3085 
Q 1363 3085 1050 2746 
Q 698 2362 698 1734 
Q 698 1165 992 794 
Q 1280 429 1741 429 
Q 2195 429 2509 781 
Q 2822 1120 2822 1658 
z
" transform="scale(0.015625)"/>
        <path id="AppleGothic-79" d="M 179 3424 
L 691 3424 
L 1869 531 
L 2874 3424 
L 3379 3424 
L 1952 -397 
Q 1798 -806 1555 -979 
Q 1338 -1126 1037 -1126 
Q 883 -1126 780 -1104 
Q 678 -1082 582 -1043 
L 582 -602 
Q 672 -646 784 -678 
Q 896 -710 986 -710 
Q 1210 -710 1334 -595 
Q 1459 -480 1555 -230 
L 1632 32 
L 179 3424 
z
" transform="scale(0.015625)"/>
       </defs>
       <use xlink:href="#AppleGothic-54"/>
       <use xlink:href="#AppleGothic-65" transform="translate(66.099991 0)"/>
       <use xlink:href="#AppleGothic-63" transform="translate(120.999985 0)"/>
       <use xlink:href="#AppleGothic-68" transform="translate(172.899979 0)"/>
       <use xlink:href="#AppleGothic-6e" transform="translate(225.099976 0)"/>
       <use xlink:href="#AppleGothic-6f" transform="translate(280.999969 0)"/>
       <use xlink:href="#AppleGothic-6c" transform="translate(339.299957 0)"/>
       <use xlink:href="#AppleGothic-6f" transform="translate(355.999954 0)"/>
       <use xlink:href="#AppleGothic-67" transform="translate(414.299942 0)"/>
       <use xlink:href="#AppleGothic-79" transform="translate(470.499939 0)"/>
      </g>
     </g>
    </g>
    <g id="xtick_2">
     <g id="line2d_3">
      <path d="M 289.960937 315.236875 
L 289.960937 38.036875 
" clip-path="url(#p6ffd00efd8)" style="fill: none; stroke: #b0b0b0; stroke-opacity: 0.3; stroke-width: 0.8; stroke-linecap: square"/>
     </g>
     <g id="line2d_4">
      <g>
       <use xlink:href="#mf0b78ccddf" x="289.960937" y="315.236875" style="stroke: #000000; stroke-width: 0.8"/>
      </g>
     </g>
     <g id="text_2">
      <!-- Office Supplies -->
      <g transform="translate(256.614062 330.207188) scale(0.1 -0.1)">
       <defs>
        <path id="AppleGothic-4f" d="M 2496 -83 
Q 1626 -83 973 595 
Q 256 1331 256 2496 
Q 256 3610 928 4378 
Q 1581 5101 2477 5101 
Q 3386 5101 4038 4390 
Q 4710 3642 4710 2502 
Q 4710 1318 3981 582 
Q 3334 -83 2496 -83 
z
M 2458 390 
Q 3168 390 3667 986 
Q 4173 1594 4173 2502 
Q 4173 2944 4051 3321 
Q 3930 3699 3686 4006 
Q 3200 4627 2483 4627 
Q 1773 4627 1280 4006 
Q 794 3398 794 2490 
Q 794 1542 1306 947 
Q 1786 390 2458 390 
z
" transform="scale(0.015625)"/>
        <path id="AppleGothic-66" d="M 646 3430 
L 646 4083 
Q 646 4538 819 4774 
Q 1037 5101 1555 5101 
Q 1613 5101 1657 5097 
Q 1702 5094 1750 5088 
Q 1798 5082 1862 5062 
Q 1926 5043 2016 5018 
L 2016 4595 
Q 1997 4621 1837 4653 
Q 1766 4666 1712 4672 
Q 1658 4678 1619 4678 
Q 1350 4678 1228 4524 
Q 1107 4371 1107 4083 
L 1107 3430 
L 2016 3430 
L 2016 3014 
L 1107 3014 
L 1107 0 
L 646 0 
L 646 3014 
L 64 3014 
L 64 3430 
L 646 3430 
z
" transform="scale(0.015625)"/>
        <path id="AppleGothic-69" d="M 256 3424 
L 717 3424 
L 717 0 
L 256 0 
L 256 3424 
z
M 480 4870 
Q 614 4870 704 4780 
Q 794 4691 794 4525 
Q 794 4358 710 4268 
Q 627 4179 480 4179 
Q 333 4179 253 4281 
Q 173 4384 173 4518 
Q 173 4730 269 4800 
Q 365 4870 480 4870 
z
" transform="scale(0.015625)"/>
        <path id="AppleGothic-20" transform="scale(0.015625)"/>
        <path id="AppleGothic-53" d="M 3418 4666 
L 3418 4019 
Q 3251 4160 3081 4269 
Q 2912 4378 2746 4448 
Q 2362 4627 1965 4627 
Q 1466 4627 1139 4378 
Q 806 4122 806 3770 
Q 806 3258 1562 3002 
Q 1914 2880 2262 2768 
Q 2611 2656 2970 2541 
Q 3731 2176 3731 1453 
Q 3731 749 3187 320 
Q 2669 -83 1901 -83 
Q 1389 -83 915 115 
Q 640 224 262 474 
L 262 1126 
Q 755 685 1261 506 
Q 1427 442 1587 416 
Q 1747 390 1907 390 
Q 2419 390 2771 646 
Q 3162 928 3162 1382 
Q 3162 1933 2419 2221 
Q 2061 2330 1715 2445 
Q 1370 2560 1024 2669 
Q 275 3014 275 3731 
Q 275 4333 749 4710 
Q 1235 5101 1965 5101 
Q 2413 5101 2861 4934 
Q 3091 4858 3418 4666 
z
" transform="scale(0.015625)"/>
        <path id="AppleGothic-75" d="M 262 3424 
L 730 3424 
L 730 1242 
Q 730 877 941 627 
Q 1171 339 1594 339 
Q 2080 339 2426 730 
Q 2784 1139 2784 1632 
L 2784 3424 
L 3245 3424 
L 3245 0 
L 2842 0 
L 2810 582 
Q 2707 442 2592 330 
Q 2477 218 2342 134 
Q 1984 -83 1555 -83 
Q 966 -83 614 282 
Q 262 653 262 1184 
L 262 3424 
z
" transform="scale(0.015625)"/>
        <path id="AppleGothic-70" d="M 736 307 
L 736 -1101 
L 288 -1101 
L 288 3424 
L 704 3424 
L 730 2803 
Q 941 3149 1216 3325 
Q 1491 3501 1882 3501 
Q 2522 3501 2944 3002 
Q 3162 2752 3270 2441 
Q 3379 2131 3379 1747 
Q 3379 954 2899 435 
Q 2419 -83 1754 -83 
Q 1421 -83 1139 58 
Q 1056 90 960 154 
Q 864 218 736 307 
z
M 736 1824 
L 736 800 
Q 838 704 924 637 
Q 1011 570 1082 525 
Q 1395 339 1715 339 
Q 2227 339 2554 742 
Q 2886 1165 2886 1766 
Q 2886 2330 2579 2707 
Q 2278 3085 1811 3085 
Q 1331 3085 1018 2669 
Q 736 2291 736 1824 
z
" transform="scale(0.015625)"/>
        <path id="AppleGothic-73" d="M 224 294 
L 224 851 
Q 621 531 1030 403 
Q 1152 371 1267 355 
Q 1382 339 1504 339 
Q 1894 339 2150 518 
Q 2413 710 2413 947 
Q 2413 1075 2317 1210 
Q 2182 1376 1600 1510 
Q 909 1683 678 1798 
Q 230 2054 230 2515 
Q 230 2944 602 3219 
Q 979 3501 1542 3501 
Q 1798 3501 2003 3456 
Q 2208 3411 2387 3337 
Q 2566 3264 2720 3155 
L 2720 2598 
Q 2451 2822 2156 2953 
Q 1862 3085 1536 3085 
Q 1210 3085 973 2938 
Q 730 2790 730 2554 
Q 730 2240 1306 2054 
Q 1574 1978 1836 1901 
Q 2099 1824 2368 1747 
Q 2950 1498 2950 992 
Q 2950 563 2547 237 
Q 2138 -83 1530 -83 
Q 1261 -83 1005 -26 
Q 595 64 224 294 
z
" transform="scale(0.015625)"/>
       </defs>
       <use xlink:href="#AppleGothic-4f"/>
       <use xlink:href="#AppleGothic-66" transform="translate(77.599991 0)"/>
       <use xlink:href="#AppleGothic-66" transform="translate(111.599976 0)"/>
       <use xlink:href="#AppleGothic-69" transform="translate(145.59996 0)"/>
       <use xlink:href="#AppleGothic-63" transform="translate(161.499954 0)"/>
       <use xlink:href="#AppleGothic-65" transform="translate(213.399948 0)"/>
       <use xlink:href="#AppleGothic-20" transform="translate(268.299942 0)"/>
       <use xlink:href="#AppleGothic-53" transform="translate(300.299927 0)"/>
       <use xlink:href="#AppleGothic-75" transform="translate(363.499924 0)"/>
       <use xlink:href="#AppleGothic-70" transform="translate(418.999908 0)"/>
       <use xlink:href="#AppleGothic-70" transform="translate(474.399902 0)"/>
       <use xlink:href="#AppleGothic-6c" transform="translate(529.799896 0)"/>
       <use xlink:href="#AppleGothic-69" transform="translate(546.499893 0)"/>
       <use xlink:href="#AppleGothic-65" transform="translate(562.399887 0)"/>
       <use xlink:href="#AppleGothic-73" transform="translate(617.299881 0)"/>
      </g>
     </g>
    </g>
    <g id="xtick_3">
     <g id="line2d_5">
      <path d="M 434.896002 315.236875 
L 434.896002 38.036875 
" clip-path="url(#p6ffd00efd8)" style="fill: none; stroke: #b0b0b0; stroke-opacity: 0.3; stroke-width: 0.8; stroke-linecap: square"/>
     </g>
     <g id="line2d_6">
      <g>
       <use xlink:href="#mf0b78ccddf" x="434.896002" y="315.236875" style="stroke: #000000; stroke-width: 0.8"/>
      </g>
     </g>
     <g id="text_3">
      <!-- Furniture -->
      <g transform="translate(414.86944 330.0775) scale(0.1 -0.1)">
       <defs>
        <path id="AppleGothic-46" d="M 339 5018 
L 3462 5018 
L 3462 4576 
L 845 4576 
L 845 2714 
L 3354 2714 
L 3354 2304 
L 845 2304 
L 845 0 
L 339 0 
L 339 5018 
z
" transform="scale(0.015625)"/>
        <path id="AppleGothic-72" d="M 2125 3424 
L 2125 2963 
Q 2054 2989 2009 3005 
Q 1965 3021 1933 3027 
Q 1901 3034 1865 3037 
Q 1830 3040 1773 3040 
Q 1306 3040 1005 2586 
Q 749 2170 749 1658 
L 749 0 
L 288 0 
L 288 3424 
L 710 3424 
L 742 2835 
Q 902 3104 1043 3219 
Q 1331 3456 1734 3456 
Q 1843 3456 1936 3449 
Q 2029 3443 2125 3424 
z
" transform="scale(0.015625)"/>
        <path id="AppleGothic-74" d="M 691 4435 
L 1114 4435 
L 1114 3430 
L 2016 3430 
L 2016 3014 
L 1114 3014 
L 1114 838 
Q 1114 570 1213 454 
Q 1312 339 1555 339 
Q 1696 339 1795 371 
Q 1894 403 2016 454 
L 2016 38 
Q 1914 6 1770 -22 
Q 1626 -51 1478 -51 
Q 1094 -51 883 122 
Q 646 301 646 698 
L 646 3014 
L 70 3014 
L 70 3430 
L 646 3430 
L 691 4435 
z
" transform="scale(0.015625)"/>
       </defs>
       <use xlink:href="#AppleGothic-46"/>
       <use xlink:href="#AppleGothic-75" transform="translate(58.199997 0)"/>
       <use xlink:href="#AppleGothic-72" transform="translate(113.699982 0)"/>
       <use xlink:href="#AppleGothic-6e" transform="translate(148.899979 0)"/>
       <use xlink:href="#AppleGothic-69" transform="translate(204.799973 0)"/>
       <use xlink:href="#AppleGothic-74" transform="translate(220.699966 0)"/>
       <use xlink:href="#AppleGothic-75" transform="translate(254.899963 0)"/>
       <use xlink:href="#AppleGothic-72" transform="translate(310.399948 0)"/>
       <use xlink:href="#AppleGothic-65" transform="translate(345.599945 0)"/>
      </g>
     </g>
    </g>
   </g>
   <g id="matplotlib.axis_2">
    <g id="ytick_1">
     <g id="line2d_7">
      <path d="M 66.760937 290.636875 
L 513.160937 290.636875 
" clip-path="url(#p6ffd00efd8)" style="fill: none; stroke: #b0b0b0; stroke-opacity: 0.3; stroke-width: 0.8; stroke-linecap: square"/>
     </g>
     <g id="line2d_8">
      <defs>
       <path id="m1d18d05882" d="M 0 0 
L -3.5 0 
" style="stroke: #000000; stroke-width: 0.8"/>
      </defs>
      <g>
       <use xlink:href="#m1d18d05882" x="66.760937" y="290.636875" style="stroke: #000000; stroke-width: 0.8"/>
      </g>
     </g>
     <g id="text_4">
      <!-- -10000 -->
      <g transform="translate(20.760937 294.557188) scale(0.1 -0.1)">
       <defs>
        <path id="AppleGothic-2d" d="M 256 1958 
L 2349 1958 
L 2349 1491 
L 256 1491 
L 256 1958 
z
" transform="scale(0.015625)"/>
        <path id="AppleGothic-31" d="M 2342 4774 
L 2752 4774 
L 2752 0 
L 2285 0 
L 2285 3526 
L 1158 3526 
L 1158 3885 
L 1414 3885 
Q 1990 3885 2214 4205 
Q 2342 4410 2342 4774 
z
" transform="scale(0.015625)"/>
        <path id="AppleGothic-30" d="M 2227 -83 
Q 1414 -83 934 576 
Q 461 1229 461 2387 
Q 461 3552 973 4218 
Q 1453 4858 2221 4858 
Q 3027 4858 3482 4173 
Q 3955 3494 3955 2394 
Q 3955 1248 3462 582 
Q 2976 -83 2227 -83 
z
M 2176 346 
Q 2861 346 3200 992 
Q 3462 1536 3462 2400 
Q 3462 3315 3162 3859 
Q 2822 4429 2214 4429 
Q 1574 4429 1248 3821 
Q 960 3283 960 2374 
Q 960 1478 1248 941 
Q 1574 346 2176 346 
z
" transform="scale(0.015625)"/>
       </defs>
       <use xlink:href="#AppleGothic-2d"/>
       <use xlink:href="#AppleGothic-31" transform="translate(49.999985 0)"/>
       <use xlink:href="#AppleGothic-30" transform="translate(117.999969 0)"/>
       <use xlink:href="#AppleGothic-30" transform="translate(185.999954 0)"/>
       <use xlink:href="#AppleGothic-30" transform="translate(253.999939 0)"/>
       <use xlink:href="#AppleGothic-30" transform="translate(321.999924 0)"/>
      </g>
     </g>
    </g>
    <g id="ytick_2">
     <g id="line2d_9">
      <path d="M 66.760937 230.636875 
L 513.160937 230.636875 
" clip-path="url(#p6ffd00efd8)" style="fill: none; stroke: #b0b0b0; stroke-opacity: 0.3; stroke-width: 0.8; stroke-linecap: square"/>
     </g>
     <g id="line2d_10">
      <g>
       <use xlink:href="#m1d18d05882" x="66.760937" y="230.636875" style="stroke: #000000; stroke-width: 0.8"/>
      </g>
     </g>
     <g id="text_5">
      <!-- 0 -->
      <g transform="translate(52.960938 234.557188) scale(0.1 -0.1)">
       <use xlink:href="#AppleGothic-30"/>
      </g>
     </g>
    </g>
    <g id="ytick_3">
     <g id="line2d_11">
      <path d="M 66.760937 170.636875 
L 513.160937 170.636875 
" clip-path="url(#p6ffd00efd8)" style="fill: none; stroke: #b0b0b0; stroke-opacity: 0.3; stroke-width: 0.8; stroke-linecap: square"/>
     </g>
     <g id="line2d_12">
      <g>
       <use xlink:href="#m1d18d05882" x="66.760937" y="170.636875" style="stroke: #000000; stroke-width: 0.8"/>
      </g>
     </g>
     <g id="text_6">
      <!-- 10000 -->
      <g transform="translate(25.760937 174.557188) scale(0.1 -0.1)">
       <use xlink:href="#AppleGothic-31"/>
       <use xlink:href="#AppleGothic-30" transform="translate(67.999985 0)"/>
       <use xlink:href="#AppleGothic-30" transform="translate(135.999969 0)"/>
       <use xlink:href="#AppleGothic-30" transform="translate(203.999954 0)"/>
       <use xlink:href="#AppleGothic-30" transform="translate(271.999939 0)"/>
      </g>
     </g>
    </g>
    <g id="ytick_4">
     <g id="line2d_13">
      <path d="M 66.760937 110.636875 
L 513.160937 110.636875 
" clip-path="url(#p6ffd00efd8)" style="fill: none; stroke: #b0b0b0; stroke-opacity: 0.3; stroke-width: 0.8; stroke-linecap: square"/>
     </g>
     <g id="line2d_14">
      <g>
       <use xlink:href="#m1d18d05882" x="66.760937" y="110.636875" style="stroke: #000000; stroke-width: 0.8"/>
      </g>
     </g>
     <g id="text_7">
      <!-- 20000 -->
      <g transform="translate(25.760937 114.557188) scale(0.1 -0.1)">
       <defs>
        <path id="AppleGothic-32" d="M 1101 429 
L 3942 429 
L 3942 0 
L 653 0 
L 653 205 
Q 653 1018 1344 1664 
Q 1670 1894 1990 2124 
Q 2310 2355 2637 2592 
Q 3334 3098 3334 3597 
Q 3334 3994 3014 4218 
Q 2867 4326 2694 4377 
Q 2522 4429 2317 4429 
Q 2016 4429 1741 4352 
Q 1325 4224 883 3910 
L 883 4435 
Q 1325 4659 1667 4758 
Q 2010 4858 2317 4858 
Q 2963 4858 3405 4525 
Q 3840 4198 3840 3622 
Q 3840 2995 3168 2438 
Q 2848 2214 2531 2000 
Q 2214 1786 1894 1562 
Q 1178 1024 1101 429 
z
" transform="scale(0.015625)"/>
       </defs>
       <use xlink:href="#AppleGothic-32"/>
       <use xlink:href="#AppleGothic-30" transform="translate(67.999985 0)"/>
       <use xlink:href="#AppleGothic-30" transform="translate(135.999969 0)"/>
       <use xlink:href="#AppleGothic-30" transform="translate(203.999954 0)"/>
       <use xlink:href="#AppleGothic-30" transform="translate(271.999939 0)"/>
      </g>
     </g>
    </g>
    <g id="ytick_5">
     <g id="line2d_15">
      <path d="M 66.760937 50.636875 
L 513.160937 50.636875 
" clip-path="url(#p6ffd00efd8)" style="fill: none; stroke: #b0b0b0; stroke-opacity: 0.3; stroke-width: 0.8; stroke-linecap: square"/>
     </g>
     <g id="line2d_16">
      <g>
       <use xlink:href="#m1d18d05882" x="66.760937" y="50.636875" style="stroke: #000000; stroke-width: 0.8"/>
      </g>
     </g>
     <g id="text_8">
      <!-- 30000 -->
      <g transform="translate(25.760937 54.557188) scale(0.1 -0.1)">
       <defs>
        <path id="AppleGothic-33" d="M 550 333 
L 550 870 
Q 883 621 1235 483 
Q 1587 346 1971 346 
Q 2522 346 2861 666 
Q 3219 992 3219 1421 
Q 3219 1869 2842 2099 
Q 2515 2304 1965 2304 
L 992 2304 
L 992 2701 
L 1658 2701 
Q 2298 2701 2662 2928 
Q 3027 3155 3027 3584 
Q 3027 3936 2752 4173 
Q 2458 4429 1978 4429 
Q 1786 4429 1597 4393 
Q 1408 4358 1222 4282 
Q 890 4141 531 3872 
L 531 4422 
Q 736 4531 912 4608 
Q 1088 4685 1254 4736 
Q 1626 4858 2022 4858 
Q 2650 4858 3066 4531 
Q 3488 4211 3488 3642 
Q 3488 3168 3168 2861 
Q 2976 2675 2643 2554 
Q 2874 2522 3053 2448 
Q 3232 2374 3366 2266 
Q 3718 1971 3718 1434 
Q 3718 813 3219 365 
Q 2714 -83 1965 -83 
Q 1549 -83 1126 70 
Q 1024 102 880 166 
Q 736 230 550 333 
z
" transform="scale(0.015625)"/>
       </defs>
       <use xlink:href="#AppleGothic-33"/>
       <use xlink:href="#AppleGothic-30" transform="translate(67.999985 0)"/>
       <use xlink:href="#AppleGothic-30" transform="translate(135.999969 0)"/>
       <use xlink:href="#AppleGothic-30" transform="translate(203.999954 0)"/>
       <use xlink:href="#AppleGothic-30" transform="translate(271.999939 0)"/>
      </g>
     </g>
    </g>
    <g id="text_9">
     <!-- 총 순이익 (Total Profit) -->
     <g transform="translate(15.040625 229.922031) rotate(-90) scale(0.1 -0.1)">
      <defs>
       <path id="AppleGothic-cd1d" d="M 4883 333 
Q 4883 646 4422 794 
Q 4198 870 3913 905 
Q 3629 941 3277 941 
L 3142 941 
Q 2810 941 2554 915 
Q 2298 890 2112 832 
Q 1632 678 1632 339 
Q 1632 70 2131 -64 
Q 2349 -115 2640 -144 
Q 2931 -173 3309 -173 
Q 4122 -173 4502 -35 
Q 4883 102 4883 333 
z
M 5338 339 
Q 5338 -147 4678 -365 
Q 4166 -538 3322 -538 
Q 2368 -538 1811 -346 
Q 1165 -115 1165 339 
Q 1165 570 1309 746 
Q 1453 922 1728 1040 
Q 2003 1158 2393 1216 
Q 2784 1274 3283 1274 
Q 4179 1274 4717 1056 
Q 5338 806 5338 339 
z
M 5997 1805 
Q 5888 1811 5798 1811 
Q 5709 1811 5638 1811 
Q 5056 1824 4595 1833 
Q 4134 1843 3782 1843 
L 3283 1843 
Q 2778 1843 2288 1833 
Q 1798 1824 1299 1811 
Q 966 1805 442 1773 
L 442 2182 
Q 512 2176 569 2173 
Q 627 2170 678 2170 
Q 986 2157 1280 2147 
Q 1574 2138 1862 2138 
Q 2246 2138 2518 2144 
Q 2790 2150 3034 2170 
L 3040 2592 
L 3027 2854 
Q 3027 2906 3066 2906 
Q 3123 2899 3206 2889 
Q 3290 2880 3418 2880 
Q 3520 2880 3520 2810 
Q 3520 2790 3504 2704 
Q 3488 2618 3488 2579 
L 3488 2157 
L 4883 2157 
Q 5120 2157 5293 2157 
Q 5466 2157 5581 2163 
Q 5696 2170 5801 2173 
Q 5907 2176 5997 2189 
L 5997 1805 
z
M 5542 2976 
L 5286 2637 
Q 5222 2643 5168 2649 
Q 5114 2656 5062 2669 
Q 4794 2720 4538 2819 
Q 4282 2918 4019 3066 
Q 3686 3270 3360 3597 
Q 3309 3648 3232 3744 
Q 3181 3674 3139 3619 
Q 3098 3565 3059 3520 
Q 2931 3379 2780 3257 
Q 2630 3136 2445 3027 
Q 2131 2835 1587 2688 
Q 1498 2662 1386 2640 
Q 1274 2618 1126 2592 
Q 1120 2605 1113 2617 
Q 1107 2630 1101 2643 
Q 1088 2662 1062 2694 
Q 1037 2726 998 2778 
L 934 2842 
Q 864 2912 864 2938 
Q 890 2976 902 2976 
Q 1498 2976 2061 3213 
Q 2707 3482 2950 3981 
L 2125 3987 
L 1120 3974 
L 1120 4333 
Q 1325 4326 1584 4320 
Q 1843 4314 2170 4307 
Q 2496 4301 2774 4301 
Q 3053 4301 3277 4301 
Q 3930 4301 4435 4313 
Q 4941 4326 5331 4339 
L 5331 3981 
L 4454 4006 
L 4282 4006 
Q 3981 4006 3814 4003 
Q 3648 4000 3488 3987 
Q 3539 3917 3584 3859 
Q 3629 3802 3680 3750 
Q 3770 3667 3866 3590 
Q 3962 3514 4083 3437 
Q 4461 3200 5018 3078 
Q 5114 3066 5235 3046 
Q 5357 3027 5504 3014 
Q 5510 3008 5516 3005 
Q 5523 3002 5530 2995 
Q 5536 2989 5536 2985 
Q 5536 2982 5542 2976 
z
M 3910 4845 
L 3206 4851 
L 2496 4838 
L 2496 5171 
L 3174 5158 
Q 3328 5158 3533 5164 
Q 3738 5171 3910 5184 
L 3910 4845 
z
" transform="scale(0.015625)"/>
       <path id="AppleGothic-c21c" d="M 5178 -486 
Q 5088 -480 5011 -480 
Q 4934 -480 4877 -480 
Q 3962 -461 3469 -461 
Q 3078 -461 2761 -461 
Q 2445 -461 2202 -467 
Q 1958 -474 1734 -477 
Q 1510 -480 1306 -493 
L 1318 128 
L 1299 998 
Q 1478 998 1664 979 
Q 1850 960 1850 902 
Q 1805 787 1805 691 
L 1792 320 
L 1811 -77 
L 3379 -83 
Q 3744 -83 4025 -80 
Q 4307 -77 4499 -70 
Q 4691 -64 4860 -57 
Q 5030 -51 5178 -38 
L 5178 -486 
z
M 6010 1997 
Q 5734 2010 5408 2013 
Q 5082 2016 4774 2016 
L 3456 2003 
L 3443 1152 
Q 3443 851 3449 713 
Q 3456 576 3469 493 
L 2970 480 
L 2982 1203 
L 2970 1990 
L 1696 1978 
L 390 1926 
L 390 2381 
L 2291 2368 
L 3187 2374 
Q 3706 2374 4112 2377 
Q 4518 2381 4826 2387 
Q 5427 2406 5658 2426 
Q 5773 2438 5862 2444 
Q 5952 2451 6010 2458 
L 6010 1997 
z
M 5542 3616 
Q 5498 3565 5469 3526 
Q 5440 3488 5414 3456 
Q 5344 3366 5305 3324 
Q 5267 3283 5254 3270 
Q 5088 3290 4992 3309 
Q 4371 3418 3961 3648 
Q 3552 3878 3315 4160 
Q 3232 4250 3142 4403 
Q 3110 4352 3084 4313 
Q 3059 4275 3034 4243 
Q 2707 3853 2195 3565 
Q 1818 3347 1363 3251 
Q 1293 3238 1200 3225 
Q 1107 3213 992 3200 
Q 941 3309 870 3392 
Q 800 3475 755 3526 
Q 736 3546 717 3584 
Q 755 3603 851 3606 
Q 947 3610 1056 3622 
Q 1702 3706 2195 4032 
Q 2624 4314 2822 4762 
Q 2854 4838 2886 4937 
Q 2918 5037 2950 5165 
Q 2995 5165 3068 5152 
Q 3142 5139 3251 5114 
Q 3462 5062 3462 5005 
Q 3462 4973 3437 4941 
L 3411 4915 
Q 3392 4845 3392 4826 
Q 3392 4691 3667 4416 
Q 3776 4314 3869 4237 
Q 3962 4160 4051 4109 
Q 4442 3846 5011 3725 
Q 5203 3686 5510 3648 
Q 5523 3648 5542 3616 
z
" transform="scale(0.015625)"/>
       <path id="AppleGothic-c774" d="M 3226 2534 
Q 3226 3309 2899 3725 
Q 2611 4090 2157 4090 
Q 1683 4090 1414 3690 
Q 1146 3290 1146 2534 
Q 1146 1811 1440 1382 
Q 1741 954 2240 954 
Q 2758 954 3021 1446 
Q 3226 1856 3226 2534 
z
M 5446 5082 
Q 5446 5062 5427 4982 
Q 5408 4902 5408 4832 
L 5434 -538 
L 4941 -589 
L 4960 2259 
Q 4960 3552 4941 4070 
Q 4934 4326 4931 4604 
Q 4928 4883 4915 5190 
L 5094 5197 
Q 5242 5197 5344 5174 
Q 5446 5152 5446 5082 
z
M 3686 2547 
Q 3686 2125 3612 1785 
Q 3539 1446 3379 1203 
Q 2995 582 2176 582 
Q 1408 582 1018 1203 
Q 678 1734 678 2560 
Q 678 3379 1050 3898 
Q 1453 4461 2170 4461 
Q 2912 4461 3309 3910 
Q 3686 3411 3686 2547 
z
" transform="scale(0.015625)"/>
       <path id="AppleGothic-c775" d="M 3334 3501 
Q 3334 3898 3043 4144 
Q 2752 4390 2259 4390 
Q 1760 4390 1446 4109 
Q 1171 3853 1171 3488 
Q 1171 3136 1434 2899 
Q 1728 2630 2259 2630 
Q 2490 2630 2688 2691 
Q 2886 2752 3030 2867 
Q 3174 2982 3254 3142 
Q 3334 3302 3334 3501 
z
M 5370 -467 
L 4890 -474 
Q 4896 -403 4896 -310 
Q 4896 -218 4902 -102 
Q 4909 19 4909 83 
Q 4909 147 4909 173 
L 4909 1203 
Q 4608 1216 4233 1222 
Q 3859 1229 3430 1229 
L 1427 1216 
L 1427 1600 
Q 1747 1587 2160 1580 
Q 2573 1574 3066 1574 
L 5357 1587 
L 5357 218 
Q 5357 -77 5360 -227 
Q 5363 -378 5370 -467 
z
M 3731 3507 
Q 3731 2950 3309 2605 
Q 2893 2266 2259 2266 
Q 1600 2266 1190 2592 
Q 768 2925 768 3482 
Q 768 4038 1184 4403 
Q 1594 4755 2259 4755 
Q 2950 4755 3347 4403 
Q 3731 4058 3731 3507 
z
M 5427 5094 
Q 5427 5082 5398 5002 
Q 5370 4922 5370 4870 
L 5376 1946 
L 4909 1952 
L 4909 5190 
Q 5120 5190 5273 5174 
Q 5427 5158 5427 5094 
z
" transform="scale(0.015625)"/>
       <path id="AppleGothic-28" d="M 2227 5261 
L 2650 5261 
Q 2342 4768 2169 4473 
Q 1997 4179 1958 4083 
Q 1606 3283 1606 2272 
Q 1606 1587 1754 1018 
Q 1882 570 2138 102 
Q 2150 70 2275 -131 
Q 2400 -333 2630 -717 
L 2227 -717 
Q 2099 -531 1980 -355 
Q 1862 -179 1734 0 
Q 1581 243 1469 483 
Q 1357 723 1274 954 
Q 1069 1587 1069 2272 
Q 1069 2963 1261 3558 
Q 1338 3789 1450 4022 
Q 1562 4256 1715 4499 
Q 1843 4691 1971 4880 
Q 2099 5069 2227 5261 
z
" transform="scale(0.015625)"/>
       <path id="AppleGothic-61" d="M 2950 2214 
L 2950 602 
Q 2950 493 2998 413 
Q 3046 333 3174 333 
Q 3213 333 3238 336 
Q 3264 339 3290 346 
Q 3328 358 3357 371 
Q 3386 384 3405 390 
L 3405 32 
Q 3290 -6 3174 -22 
Q 3059 -38 2995 -38 
Q 2669 -38 2566 134 
Q 2483 243 2483 602 
Q 2400 461 2317 355 
Q 2234 250 2150 179 
Q 1818 -83 1376 -83 
Q 909 -83 563 192 
Q 205 486 205 941 
Q 205 1510 781 1779 
Q 992 1882 1341 1958 
Q 1690 2035 2176 2099 
L 2483 2131 
Q 2483 2579 2256 2832 
Q 2029 3085 1587 3085 
Q 1421 3085 1257 3043 
Q 1094 3002 928 2912 
Q 838 2861 729 2790 
Q 621 2720 493 2611 
L 493 3136 
Q 1037 3501 1664 3501 
Q 2304 3501 2650 3098 
Q 2950 2746 2950 2214 
z
M 2483 1542 
L 2483 1747 
L 2266 1722 
Q 1466 1638 1139 1498 
Q 704 1325 704 934 
Q 704 819 755 713 
Q 806 608 896 525 
Q 986 442 1117 390 
Q 1248 339 1408 339 
Q 1843 339 2170 691 
Q 2483 1050 2483 1542 
z
" transform="scale(0.015625)"/>
       <path id="AppleGothic-50" d="M 262 5018 
L 1869 5018 
Q 2560 5018 3002 4781 
Q 3597 4448 3597 3718 
Q 3597 3014 3104 2630 
Q 2656 2272 1952 2272 
L 768 2272 
L 768 0 
L 262 0 
L 262 5018 
z
M 1862 4576 
L 768 4576 
L 768 2714 
L 1901 2714 
Q 2349 2714 2675 2950 
Q 3040 3219 3040 3674 
Q 3040 4186 2611 4410 
Q 2298 4576 1862 4576 
z
" transform="scale(0.015625)"/>
       <path id="AppleGothic-29" d="M 2221 2272 
Q 2221 1587 2016 960 
Q 1862 499 1555 6 
Q 1427 -179 1305 -355 
Q 1184 -531 1062 -717 
L 659 -717 
Q 781 -512 902 -310 
Q 1024 -109 1152 96 
Q 1280 333 1376 557 
Q 1472 781 1530 1005 
Q 1683 1562 1683 2272 
Q 1683 2650 1641 2973 
Q 1600 3296 1517 3584 
Q 1459 3802 1356 4029 
Q 1254 4256 1120 4499 
Q 992 4691 873 4880 
Q 755 5069 640 5261 
L 1062 5261 
Q 1190 5069 1315 4880 
Q 1440 4691 1568 4506 
Q 1722 4256 1837 4022 
Q 1952 3789 2022 3565 
Q 2221 2976 2221 2272 
z
" transform="scale(0.015625)"/>
      </defs>
      <use xlink:href="#AppleGothic-cd1d"/>
      <use xlink:href="#AppleGothic-20" transform="translate(99.999985 0)"/>
      <use xlink:href="#AppleGothic-c21c" transform="translate(131.999969 0)"/>
      <use xlink:href="#AppleGothic-c774" transform="translate(231.999954 0)"/>
      <use xlink:href="#AppleGothic-c775" transform="translate(331.999939 0)"/>
      <use xlink:href="#AppleGothic-20" transform="translate(431.999924 0)"/>
      <use xlink:href="#AppleGothic-28" transform="translate(463.999908 0)"/>
      <use xlink:href="#AppleGothic-54" transform="translate(513.999893 0)"/>
      <use xlink:href="#AppleGothic-6f" transform="translate(580.099884 0)"/>
      <use xlink:href="#AppleGothic-74" transform="translate(638.399872 0)"/>
      <use xlink:href="#AppleGothic-61" transform="translate(672.599869 0)"/>
      <use xlink:href="#AppleGothic-6c" transform="translate(729.099854 0)"/>
      <use xlink:href="#AppleGothic-20" transform="translate(745.79985 0)"/>
      <use xlink:href="#AppleGothic-50" transform="translate(777.799835 0)"/>
      <use xlink:href="#AppleGothic-72" transform="translate(838.099823 0)"/>
      <use xlink:href="#AppleGothic-6f" transform="translate(873.29982 0)"/>
      <use xlink:href="#AppleGothic-66" transform="translate(931.599808 0)"/>
      <use xlink:href="#AppleGothic-69" transform="translate(965.599792 0)"/>
      <use xlink:href="#AppleGothic-74" transform="translate(981.499786 0)"/>
      <use xlink:href="#AppleGothic-29" transform="translate(1015.699783 0)"/>
     </g>
    </g>
   </g>
   <g id="line2d_17">
    <path d="M 66.760937 230.636875 
L 513.160937 230.636875 
" clip-path="url(#p6ffd00efd8)" style="fill: none; stroke: #ff0000; stroke-width: 2; stroke-linecap: square"/>
   </g>
   <g id="patch_3">
    <path d="M 66.760937 315.236875 
L 66.760937 38.036875 
" style="fill: none; stroke: #000000; stroke-width: 0.8; stroke-linejoin: miter; stroke-linecap: square"/>
   </g>
   <g id="patch_4">
    <path d="M 513.160937 315.236875 
L 513.160937 38.036875 
" style="fill: none; stroke: #000000; stroke-width: 0.8; stroke-linejoin: miter; stroke-linecap: square"/>
   </g>
   <g id="patch_5">
    <path d="M 66.760938 315.236875 
L 513.160937 315.236875 
" style="fill: none; stroke: #000000; stroke-width: 0.8; stroke-linejoin: miter; stroke-linecap: square"/>
   </g>
   <g id="patch_6">
    <path d="M 66.760938 38.036875 
L 513.160937 38.036875 
" style="fill: none; stroke: #000000; stroke-width: 0.8; stroke-linejoin: miter; stroke-linecap: square"/>
   </g>
   <g id="patch_7">
    <path d="M 87.051847 230.636875 
L 202.999899 230.636875 
L 202.999899 50.636875 
L 87.051847 50.636875 
z
" clip-path="url(#p6ffd00efd8)" style="fill: #2ecc71; stroke: #000000; stroke-linejoin: miter"/>
   </g>
   <g id="patch_8">
    <path d="M 231.986912 230.636875 
L 347.934963 230.636875 
L 347.934963 140.636875 
L 231.986912 140.636875 
z
" clip-path="url(#p6ffd00efd8)" style="fill: #3498db; stroke: #000000; stroke-linejoin: miter"/>
   </g>
   <g id="patch_9">
    <path d="M 376.921976 230.636875 
L 492.870028 230.636875 
L 492.870028 302.636875 
L 376.921976 302.636875 
z
" clip-path="url(#p6ffd00efd8)" style="fill: #e74c3c; stroke: #000000; stroke-linejoin: miter"/>
   </g>
   <g id="patch_10">
    <path d="M 138.386806 28.888113 
Q 141.836674 61.490991 145.286543 94.093869 
L 149.264335 93.67296 
Q 146.912474 99.956459 144.560613 106.239958 
Q 140.945785 100.587823 137.330957 94.935688 
L 141.30875 94.514779 
Q 137.858881 61.911901 134.409013 29.309023 
L 138.386806 28.888113 
z
" style="stroke: #000000; stroke-linecap: round"/>
   </g>
   <g id="text_10">
    <!-- 이익 극대화! -->
    <g transform="translate(101.545353 20.636875) scale(0.12 -0.12)">
     <defs>
      <path id="AppleGothic-adf9" d="M 5101 371 
L 5094 -403 
L 4672 -410 
L 4685 352 
Q 4685 563 4685 723 
Q 4685 883 4681 1001 
Q 4678 1120 4675 1206 
Q 4672 1293 4672 1363 
L 3098 1363 
Q 2829 1363 2486 1356 
Q 2144 1350 1734 1338 
Q 1600 1331 1424 1328 
Q 1248 1325 1024 1312 
L 1024 1747 
Q 1395 1734 1862 1724 
Q 2330 1715 2854 1715 
L 5088 1760 
L 5101 371 
z
M 6022 2547 
L 5619 2547 
Q 4090 2566 3821 2566 
Q 3437 2566 3126 2563 
Q 2816 2560 2573 2554 
Q 2112 2547 1427 2534 
Q 1088 2534 829 2531 
Q 570 2528 378 2528 
L 378 2906 
Q 755 2893 1267 2886 
Q 1779 2880 2515 2880 
L 2675 2880 
Q 3123 2880 3520 2889 
Q 3917 2899 4262 2912 
Q 4384 2912 4557 2931 
Q 4570 2995 4582 3043 
Q 4595 3091 4608 3136 
Q 4634 3258 4662 3414 
Q 4691 3571 4720 3740 
Q 4749 3910 4774 4083 
Q 4800 4256 4819 4416 
Q 4819 4442 4822 4467 
Q 4826 4493 4832 4525 
Q 4563 4538 4160 4544 
Q 3757 4550 3117 4550 
L 2995 4550 
Q 2445 4550 1917 4537 
Q 1389 4525 954 4512 
L 954 4909 
Q 1062 4909 1289 4905 
Q 1517 4902 1875 4896 
Q 2234 4890 2470 4890 
Q 2707 4890 2829 4890 
L 5306 4896 
Q 5306 4646 5190 3910 
Q 5126 3539 5078 3296 
Q 5030 3053 4986 2931 
L 5197 2944 
L 5446 2925 
L 6022 2931 
L 6022 2547 
z
" transform="scale(0.015625)"/>
      <path id="AppleGothic-b300" d="M 5702 -486 
L 5210 -506 
Q 5203 -416 5203 -294 
Q 5203 -173 5203 -6 
Q 5197 154 5197 269 
Q 5197 384 5197 454 
Q 5197 646 5200 838 
Q 5203 1030 5210 1216 
L 5210 1370 
Q 5210 1574 5210 1699 
Q 5210 1824 5203 1882 
Q 5203 1946 5203 1994 
Q 5203 2042 5197 2086 
L 4314 2086 
L 4301 1190 
L 4320 -134 
L 3866 -154 
L 3866 627 
Q 3866 870 3866 1232 
Q 3866 1594 3872 2074 
Q 3878 2554 3878 2906 
Q 3878 3258 3878 3482 
L 3878 4595 
L 3866 5050 
L 4013 5050 
Q 4160 5050 4262 5027 
Q 4365 5005 4365 4934 
Q 4365 4915 4355 4873 
Q 4346 4832 4336 4787 
Q 4326 4742 4316 4707 
Q 4307 4672 4307 4653 
L 4307 2490 
L 5210 2490 
L 5210 4730 
Q 5197 4813 5197 4934 
Q 5197 5056 5190 5152 
Q 5210 5171 5318 5171 
L 5376 5171 
Q 5523 5171 5606 5152 
Q 5690 5133 5690 5056 
Q 5670 4973 5657 4902 
Q 5645 4832 5645 4762 
L 5645 1984 
Q 5645 1626 5651 1226 
Q 5658 826 5670 371 
Q 5677 205 5683 -6 
Q 5690 -218 5702 -486 
z
M 3597 1152 
Q 3462 1126 3356 1113 
Q 3251 1101 3168 1088 
Q 2925 1056 2726 1027 
Q 2528 998 2374 986 
Q 2074 954 1782 928 
Q 1491 902 1203 883 
Q 1114 877 1011 870 
Q 909 864 794 858 
L 806 2592 
L 787 4442 
L 1914 4429 
L 2637 4429 
Q 2835 4435 3008 4448 
L 3008 4051 
L 2131 4051 
L 1267 4032 
L 1254 2656 
L 1274 1280 
Q 1402 1293 1504 1299 
Q 1606 1306 1690 1312 
Q 2112 1350 2528 1398 
Q 2944 1446 3379 1517 
Q 3418 1523 3466 1529 
Q 3514 1536 3578 1549 
L 3597 1152 
z
" transform="scale(0.015625)"/>
      <path id="AppleGothic-d654" d="M 3302 2598 
Q 3302 2835 2970 2982 
Q 2835 3040 2675 3065 
Q 2515 3091 2342 3091 
Q 1888 3091 1677 3034 
Q 1261 2906 1261 2573 
Q 1261 2304 1581 2150 
Q 1894 2003 2317 2003 
Q 2803 2003 3052 2179 
Q 3302 2355 3302 2598 
z
M 4422 1062 
Q 4198 1030 4012 1011 
Q 3827 992 3693 979 
Q 2854 902 2342 902 
Q 1978 902 1558 870 
Q 1139 838 685 806 
Q 634 794 586 787 
Q 538 781 486 768 
Q 442 768 413 809 
Q 384 851 371 918 
Q 358 986 352 1066 
Q 346 1146 346 1229 
L 1331 1235 
Q 1504 1235 1766 1254 
Q 1901 1267 1993 1273 
Q 2086 1280 2138 1280 
L 2138 1664 
Q 1914 1690 1750 1718 
Q 1587 1747 1478 1792 
Q 826 2042 826 2618 
Q 826 3021 1325 3251 
Q 1747 3443 2323 3443 
Q 2963 3443 3331 3209 
Q 3699 2976 3699 2566 
Q 3699 2067 3149 1811 
Q 3059 1766 2921 1731 
Q 2784 1696 2598 1658 
L 2598 1306 
Q 2803 1312 3043 1325 
Q 3283 1338 3533 1363 
L 4422 1459 
L 4422 1062 
z
M 6035 2061 
L 5139 2061 
L 5152 -499 
L 4672 -499 
Q 4678 -288 4678 48 
Q 4678 384 4685 845 
Q 4691 1306 4691 1712 
Q 4691 2118 4691 2470 
Q 4691 2618 4691 2877 
Q 4691 3136 4685 3507 
Q 4678 3878 4678 4176 
Q 4678 4474 4678 4698 
Q 4678 4928 4672 5033 
Q 4666 5139 4653 5190 
L 4819 5190 
Q 5005 5190 5097 5171 
Q 5190 5152 5190 5082 
Q 5190 5062 5165 4954 
Q 5139 4858 5139 4800 
L 5139 2470 
L 6035 2483 
L 6035 2061 
z
M 4128 3648 
L 2189 3667 
L 378 3648 
L 378 4090 
Q 838 4070 1302 4057 
Q 1766 4045 2150 4045 
L 2336 4045 
Q 2899 4045 3321 4051 
Q 3744 4058 4128 4077 
L 4128 3648 
z
M 3046 4410 
L 2355 4422 
L 1427 4410 
L 1427 4800 
Q 1466 4800 1584 4797 
Q 1702 4794 1888 4787 
Q 2080 4781 2189 4777 
Q 2298 4774 2330 4774 
Q 2598 4774 2771 4780 
Q 2944 4787 3046 4800 
L 3046 4410 
z
" transform="scale(0.015625)"/>
      <path id="AppleGothic-21" d="M 902 5018 
L 1446 5018 
L 1382 1267 
L 960 1267 
L 902 5018 
z
M 1158 -19 
Q 1005 -19 925 112 
Q 845 243 845 410 
Q 845 602 928 742 
Q 1011 883 1178 883 
Q 1325 883 1398 745 
Q 1472 608 1472 442 
Q 1472 250 1389 115 
Q 1306 -19 1158 -19 
z
" transform="scale(0.015625)"/>
     </defs>
     <use xlink:href="#AppleGothic-c774"/>
     <use xlink:href="#AppleGothic-c775" transform="translate(99.999985 0)"/>
     <use xlink:href="#AppleGothic-20" transform="translate(199.999969 0)"/>
     <use xlink:href="#AppleGothic-adf9" transform="translate(231.999954 0)"/>
     <use xlink:href="#AppleGothic-b300" transform="translate(331.999939 0)"/>
     <use xlink:href="#AppleGothic-d654" transform="translate(431.999924 0)"/>
     <use xlink:href="#AppleGothic-21" transform="translate(531.999908 0)"/>
    </g>
   </g>
   <g id="patch_11">
    <path d="M 437.150711 323.938988 
Q 435.543639 300.054153 433.936568 276.169319 
L 429.945592 276.437848 
Q 432.536105 270.251113 435.126619 264.064378 
Q 438.52257 269.848319 441.918521 275.63226 
L 437.927544 275.900789 
Q 439.534616 299.785624 441.141687 323.670458 
L 437.150711 323.938988 
z
" style="stroke: #000000; stroke-linecap: round"/>
   </g>
   <g id="text_11">
    <!-- 심각한 적자 발생! -->
    <g style="fill: #ff0000" transform="translate(391.415483 338.636875) scale(0.12 -0.12)">
     <defs>
      <path id="AppleGothic-c2ec" d="M 4979 454 
L 4973 1094 
Q 4794 1088 4560 1088 
Q 4326 1088 4032 1082 
Q 3731 1075 3577 1075 
Q 3424 1075 3405 1075 
L 2074 1062 
L 2061 499 
L 2074 0 
Q 2342 -13 2714 -19 
Q 2906 -26 3059 -29 
Q 3213 -32 3328 -32 
L 4973 -13 
L 4979 454 
z
M 5466 -531 
L 4986 -544 
L 4960 -410 
L 3174 -397 
L 2381 -397 
Q 2291 -403 2217 -403 
Q 2144 -403 2074 -410 
L 2035 -550 
L 1600 -550 
L 1613 269 
L 1594 1434 
L 3366 1434 
Q 3603 1434 3859 1437 
Q 4115 1440 4403 1446 
Q 4685 1453 4941 1459 
Q 5197 1466 5434 1466 
L 5434 442 
Q 5434 -19 5453 -371 
Q 5453 -403 5456 -441 
Q 5459 -480 5466 -531 
z
M 4109 2253 
Q 4058 2202 4022 2170 
Q 3987 2138 3962 2112 
Q 3891 2042 3846 2000 
Q 3802 1958 3789 1946 
Q 3744 1971 3712 1990 
Q 3680 2010 3648 2022 
Q 3302 2259 2963 2618 
Q 2790 2803 2652 2988 
Q 2515 3174 2426 3366 
Q 2413 3398 2393 3440 
Q 2374 3482 2355 3533 
Q 2310 3430 2272 3350 
Q 2234 3270 2195 3206 
Q 1971 2822 1677 2522 
Q 1427 2253 1094 2003 
Q 1037 1965 966 1917 
Q 896 1869 806 1805 
Q 781 1805 672 1888 
Q 531 2003 486 2016 
L 397 2074 
Q 422 2086 422 2086 
Q 429 2093 445 2102 
Q 461 2112 486 2138 
Q 634 2221 755 2297 
Q 877 2374 973 2458 
Q 1146 2592 1302 2752 
Q 1459 2912 1606 3098 
Q 1933 3501 2054 4070 
Q 2144 4467 2144 4883 
Q 2387 4883 2547 4851 
Q 2707 4819 2707 4768 
Q 2707 4730 2675 4685 
Q 2643 4640 2605 4589 
Q 2605 4538 2566 4384 
Q 2547 4301 2540 4253 
Q 2534 4205 2534 4192 
Q 2534 4102 2572 3977 
Q 2611 3853 2701 3693 
Q 2771 3558 2883 3401 
Q 2995 3245 3132 3085 
Q 3270 2925 3433 2771 
Q 3597 2618 3776 2490 
Q 3840 2445 3913 2393 
Q 3987 2342 4083 2285 
Q 4102 2266 4109 2253 
z
M 5466 5094 
Q 5466 5094 5459 5065 
Q 5453 5037 5443 5001 
Q 5434 4966 5427 4928 
Q 5421 4890 5421 4864 
L 5408 3174 
L 5408 2176 
Q 5414 1958 5427 1786 
L 4947 1766 
L 4973 3418 
Q 4973 4250 4954 4608 
Q 4947 4787 4940 4931 
Q 4934 5075 4922 5190 
L 5094 5197 
Q 5242 5197 5354 5174 
Q 5466 5152 5466 5094 
z
" transform="scale(0.015625)"/>
      <path id="AppleGothic-ac01" d="M 5114 -499 
L 4672 -518 
L 4685 339 
L 4672 1178 
L 1325 1152 
L 1325 1517 
L 5094 1530 
L 5114 -499 
z
M 3373 4774 
Q 3347 4614 3334 4442 
Q 3251 4045 3053 3642 
Q 2778 3098 2310 2662 
Q 1926 2304 1466 2022 
Q 1126 1818 918 1722 
Q 710 1626 634 1626 
Q 576 1677 518 1731 
Q 461 1786 410 1843 
Q 397 1856 377 1881 
Q 358 1907 326 1939 
L 346 1965 
Q 371 1965 444 1990 
Q 518 2016 653 2067 
Q 826 2138 998 2224 
Q 1171 2310 1350 2419 
Q 1818 2701 2138 3040 
Q 2458 3379 2662 3782 
Q 2790 4038 2893 4429 
L 582 4403 
L 582 4774 
L 3373 4774 
z
M 6118 2970 
L 5581 2976 
Q 5229 2976 5101 2950 
L 5088 2432 
L 5094 1875 
L 4666 1856 
Q 4666 1965 4675 2352 
Q 4685 2739 4685 3526 
L 4678 4787 
Q 4678 4922 4675 5018 
Q 4672 5114 4659 5190 
L 5011 5190 
Q 5120 5178 5120 5126 
Q 5120 5101 5101 5008 
Q 5082 4915 5082 4877 
L 5101 3334 
L 6118 3354 
L 6118 2970 
z
" transform="scale(0.015625)"/>
      <path id="AppleGothic-d55c" d="M 3187 2413 
Q 3187 2701 2976 2874 
Q 2733 3072 2278 3072 
Q 1811 3072 1571 2899 
Q 1331 2726 1331 2464 
Q 1331 2163 1584 2009 
Q 1837 1856 2285 1856 
Q 2752 1856 2995 2048 
Q 3187 2208 3187 2413 
z
M 5466 -435 
L 3315 -403 
L 1293 -416 
L 1299 224 
L 1274 1120 
L 1350 1120 
Q 1542 1120 1670 1101 
Q 1798 1082 1798 1011 
Q 1798 992 1779 918 
Q 1760 845 1760 787 
L 1760 -26 
Q 1888 -26 2070 -26 
Q 2253 -26 2496 -32 
Q 2733 -38 2960 -38 
Q 3187 -38 3411 -45 
Q 4019 -45 4537 -38 
Q 5056 -32 5466 -19 
L 5466 -435 
z
M 3629 2458 
Q 3629 2042 3289 1789 
Q 2950 1536 2291 1536 
Q 1594 1536 1251 1801 
Q 909 2067 909 2496 
Q 909 2970 1331 3200 
Q 1504 3302 1734 3347 
Q 1965 3392 2253 3392 
Q 2893 3392 3261 3136 
Q 3629 2880 3629 2458 
z
M 6003 2483 
L 5126 2483 
L 5114 1203 
Q 5114 1094 5114 1001 
Q 5114 909 5133 794 
L 4666 768 
L 4672 5158 
Q 4838 5158 5005 5139 
Q 5184 5120 5184 5056 
Q 5184 5037 5158 4963 
Q 5133 4890 5133 4826 
L 5114 4122 
L 5120 2899 
L 6003 2886 
L 6003 2483 
z
M 4147 3744 
Q 3930 3757 3757 3760 
Q 3584 3763 3456 3770 
Q 3059 3782 2748 3788 
Q 2438 3795 2208 3795 
Q 1779 3795 1318 3788 
Q 858 3782 474 3770 
L 474 4141 
Q 659 4134 883 4131 
Q 1107 4128 1376 4115 
Q 1645 4109 1843 4105 
Q 2042 4102 2182 4102 
Q 2803 4102 3289 4108 
Q 3776 4115 4147 4128 
L 4147 3744 
z
M 3034 4544 
Q 2874 4557 2685 4563 
Q 2496 4570 2310 4570 
L 1504 4550 
L 1504 4922 
L 2317 4909 
L 3034 4922 
L 3034 4544 
z
" transform="scale(0.015625)"/>
      <path id="AppleGothic-c801" d="M 5402 -506 
L 4947 -538 
L 4954 1203 
L 3283 1216 
Q 2803 1216 2281 1213 
Q 1760 1210 1325 1197 
L 1325 1594 
Q 1414 1587 1491 1587 
Q 1568 1587 1632 1587 
Q 2074 1574 2397 1568 
Q 2720 1562 2944 1562 
L 5402 1587 
Q 5395 1440 5392 1213 
Q 5389 986 5389 595 
L 5402 -506 
z
M 3936 2400 
Q 3936 2381 3869 2339 
Q 3802 2298 3763 2259 
L 3603 2106 
Q 3546 2138 3491 2173 
Q 3437 2208 3392 2240 
Q 3117 2438 2810 2771 
Q 2598 2995 2451 3296 
Q 2426 3347 2397 3411 
Q 2368 3475 2336 3558 
Q 2298 3469 2266 3392 
Q 2234 3315 2202 3258 
Q 2010 2912 1702 2586 
Q 1568 2451 1417 2323 
Q 1267 2195 1101 2074 
Q 1043 2029 969 1984 
Q 896 1939 794 1882 
Q 787 1907 582 2029 
Q 390 2150 390 2176 
Q 1056 2458 1574 3072 
Q 2125 3744 2125 4442 
Q 2054 4448 1875 4454 
Q 1696 4461 1485 4461 
L 762 4442 
L 762 4851 
Q 947 4832 1286 4819 
Q 1626 4806 2118 4806 
L 2291 4806 
Q 2618 4806 2858 4809 
Q 3098 4813 3264 4819 
Q 3430 4826 3561 4832 
Q 3693 4838 3802 4845 
L 3802 4442 
L 3219 4454 
L 2566 4435 
Q 2566 4115 2630 3878 
Q 2682 3680 2768 3510 
Q 2854 3341 2982 3194 
Q 3296 2810 3648 2573 
Q 3763 2502 3923 2426 
L 3936 2400 
z
M 5434 5082 
Q 5434 5062 5414 4976 
Q 5395 4890 5395 4826 
Q 5389 4736 5389 4598 
Q 5389 4461 5382 4269 
Q 5376 4077 5376 3881 
Q 5376 3686 5376 3494 
L 5376 2477 
Q 5382 2310 5382 2176 
Q 5382 2042 5389 1939 
L 4947 1914 
L 4947 3283 
L 4346 3302 
L 3706 3283 
L 3706 3667 
L 4947 3667 
L 4947 4762 
L 4915 5190 
L 5101 5190 
Q 5267 5190 5350 5171 
Q 5434 5152 5434 5082 
z
" transform="scale(0.015625)"/>
      <path id="AppleGothic-c790" d="M 6010 2067 
L 5139 2067 
L 5126 1037 
L 5139 -531 
L 4653 -531 
L 4672 4717 
Q 4672 4960 4665 5056 
Q 4659 5152 4646 5190 
L 4832 5197 
Q 4966 5197 5078 5174 
Q 5190 5152 5190 5101 
Q 5190 5075 5164 4998 
Q 5139 4922 5139 4883 
L 5126 3968 
L 5139 2470 
L 6010 2483 
L 6010 2067 
z
M 4218 1158 
Q 4211 1120 4195 1107 
Q 4179 1094 4144 1072 
Q 4109 1050 4057 1008 
Q 4006 966 3930 883 
Q 3923 870 3885 832 
Q 3814 877 3760 909 
Q 3706 941 3661 973 
Q 3392 1158 3174 1369 
Q 2957 1581 2790 1818 
Q 2720 1914 2643 2045 
Q 2566 2176 2477 2349 
Q 2445 2406 2406 2486 
Q 2368 2566 2317 2662 
Q 2285 2592 2259 2534 
Q 2234 2477 2208 2426 
Q 2061 2157 1901 1926 
Q 1741 1696 1568 1510 
Q 1446 1382 1289 1235 
Q 1133 1088 928 922 
Q 858 864 736 768 
Q 685 819 666 832 
Q 582 915 531 934 
Q 326 1011 326 1050 
Q 326 1056 358 1088 
Q 371 1101 387 1110 
Q 403 1120 416 1133 
Q 538 1222 627 1292 
Q 717 1363 787 1414 
Q 1197 1741 1402 2003 
Q 1766 2458 1942 2922 
Q 2118 3386 2118 3936 
L 2106 4218 
L 1568 4224 
L 646 4198 
L 646 4640 
Q 960 4627 1347 4620 
Q 1734 4614 2144 4614 
L 2330 4614 
Q 2803 4614 3212 4627 
Q 3622 4640 4000 4659 
L 4000 4230 
L 3296 4237 
L 2592 4218 
Q 2579 4122 2576 4042 
Q 2573 3962 2566 3898 
Q 2554 3712 2547 3561 
Q 2541 3411 2541 3296 
Q 2592 2995 2778 2656 
Q 2861 2502 2969 2342 
Q 3078 2182 3213 2003 
Q 3334 1850 3472 1715 
Q 3610 1581 3757 1466 
Q 3808 1434 3872 1389 
Q 3936 1344 4019 1293 
Q 4026 1286 4128 1235 
Q 4218 1184 4218 1158 
z
" transform="scale(0.015625)"/>
      <path id="AppleGothic-bc1c" d="M 2867 2784 
L 2867 3667 
L 1120 3667 
L 1120 2784 
L 2029 2771 
L 2867 2784 
z
M 5267 -352 
L 2938 -339 
L 2003 -339 
Q 1658 -352 1331 -358 
L 1344 256 
L 1331 915 
L 4646 902 
L 4646 1459 
L 3130 1459 
Q 2682 1459 2198 1446 
Q 1715 1434 1312 1421 
L 1312 1805 
Q 1427 1805 1667 1801 
Q 1907 1798 2291 1792 
Q 2675 1786 2883 1786 
Q 3091 1786 3130 1786 
L 5114 1805 
L 5107 1261 
L 5120 570 
L 1773 570 
L 1773 0 
L 3200 6 
Q 3718 6 4265 19 
Q 4813 32 5267 45 
L 5267 -352 
z
M 3360 4710 
Q 3360 4678 3341 4592 
Q 3322 4506 3322 4467 
L 3309 3507 
L 3322 2387 
L 672 2387 
Q 678 2490 678 2637 
Q 678 2784 685 2976 
Q 691 3174 691 3328 
Q 691 3482 691 3590 
Q 691 4051 681 4339 
Q 672 4627 659 4819 
L 858 4826 
Q 986 4826 1082 4803 
Q 1178 4781 1178 4723 
Q 1178 4678 1149 4595 
Q 1120 4512 1120 4480 
L 1120 4026 
L 1862 4019 
L 2874 4032 
L 2874 4339 
L 2848 4819 
L 3059 4826 
Q 3194 4826 3277 4803 
Q 3360 4781 3360 4710 
z
M 6022 3110 
L 5126 3117 
L 5158 2125 
L 4666 2106 
L 4691 3878 
Q 4691 4198 4688 4422 
Q 4685 4646 4678 4794 
Q 4672 4941 4669 5056 
Q 4666 5171 4659 5254 
L 4781 5254 
Q 4947 5254 5065 5228 
Q 5184 5203 5184 5133 
Q 5184 5094 5155 5008 
Q 5126 4922 5126 4890 
L 5126 3494 
L 6022 3520 
L 6022 3110 
z
" transform="scale(0.015625)"/>
      <path id="AppleGothic-c0dd" d="M 5651 480 
Q 5651 -6 5164 -246 
Q 4678 -486 3738 -486 
L 3546 -493 
Q 2707 -493 2163 -288 
Q 1485 -38 1485 493 
Q 1485 1043 2163 1274 
Q 2688 1459 3590 1459 
Q 4070 1459 4451 1392 
Q 4832 1325 5097 1200 
Q 5363 1075 5507 892 
Q 5651 710 5651 480 
z
M 3552 2266 
Q 3539 2240 3539 2240 
Q 3514 2195 3482 2176 
L 3264 1978 
Q 3110 2074 3021 2163 
Q 2720 2406 2496 2701 
Q 2355 2880 2214 3162 
Q 2189 3213 2163 3273 
Q 2138 3334 2106 3405 
Q 2074 3328 2042 3264 
Q 2010 3200 1990 3149 
Q 1907 2995 1811 2848 
Q 1715 2701 1606 2554 
Q 1523 2451 1401 2326 
Q 1280 2202 1114 2048 
Q 1062 1997 982 1933 
Q 902 1869 806 1786 
Q 742 1818 557 1984 
Q 448 2074 448 2093 
Q 448 2112 480 2131 
Q 531 2163 538 2176 
Q 1171 2566 1600 3334 
Q 2029 4096 2029 4851 
Q 2131 4851 2310 4806 
Q 2515 4768 2515 4723 
Q 2502 4691 2489 4668 
Q 2477 4646 2470 4627 
L 2387 4262 
Q 2387 4154 2393 4054 
Q 2400 3955 2413 3872 
Q 2464 3565 2598 3309 
Q 2688 3142 2816 2976 
Q 2944 2810 3110 2643 
Q 3226 2534 3418 2374 
L 3552 2266 
z
M 5670 5069 
Q 5670 5043 5651 4944 
Q 5632 4845 5632 4762 
L 5626 3142 
L 5638 1542 
L 5184 1517 
L 5184 2848 
L 4378 2842 
L 4371 2490 
L 4390 1760 
L 3923 1734 
Q 3930 1875 3930 2083 
Q 3930 2291 3936 2573 
Q 3942 2861 3942 3085 
Q 3942 3309 3942 3475 
Q 3942 3558 3942 3689 
Q 3942 3821 3936 4006 
Q 3930 4192 3930 4339 
Q 3930 4486 3930 4595 
L 3910 5043 
Q 4077 5043 4243 5024 
Q 4416 5005 4416 4941 
Q 4403 4870 4390 4812 
Q 4378 4755 4378 4678 
L 4365 3891 
L 4378 3206 
L 5184 3206 
L 5197 3808 
Q 5197 3923 5193 4118 
Q 5190 4314 5184 4595 
Q 5178 4870 5174 5020 
Q 5171 5171 5171 5190 
L 5203 5190 
Q 5402 5190 5536 5168 
Q 5670 5146 5670 5069 
z
M 5184 506 
Q 5184 813 4723 960 
Q 4269 1114 3578 1114 
Q 2758 1114 2352 976 
Q 1946 838 1946 512 
Q 1946 198 2458 26 
Q 2912 -134 3590 -134 
Q 3917 -134 4189 -99 
Q 4461 -64 4678 19 
Q 5184 192 5184 506 
z
" transform="scale(0.015625)"/>
     </defs>
     <use xlink:href="#AppleGothic-c2ec"/>
     <use xlink:href="#AppleGothic-ac01" transform="translate(99.999985 0)"/>
     <use xlink:href="#AppleGothic-d55c" transform="translate(199.999969 0)"/>
     <use xlink:href="#AppleGothic-20" transform="translate(299.999954 0)"/>
     <use xlink:href="#AppleGothic-c801" transform="translate(331.999939 0)"/>
     <use xlink:href="#AppleGothic-c790" transform="translate(431.999924 0)"/>
     <use xlink:href="#AppleGothic-20" transform="translate(531.999908 0)"/>
     <use xlink:href="#AppleGothic-bc1c" transform="translate(563.999893 0)"/>
     <use xlink:href="#AppleGothic-c0dd" transform="translate(663.999878 0)"/>
     <use xlink:href="#AppleGothic-21" transform="translate(763.999863 0)"/>
    </g>
   </g>
   <g id="text_12">
    <!-- 0달러 기준선(손익분기점)을 통한 부서별 성과 명확화 -->
    <g transform="translate(120.000937 18.176875) scale(0.14 -0.14)">
     <defs>
      <path id="AppleGothic-b2ec" d="M 5286 -410 
L 3251 -390 
L 1357 -397 
L 1370 262 
L 1357 890 
L 4685 883 
L 4685 1414 
L 3283 1427 
L 1344 1414 
L 1344 1766 
Q 1536 1754 1929 1744 
Q 2323 1734 2867 1734 
L 5152 1754 
L 5146 1126 
L 5158 531 
L 1830 531 
L 1830 -45 
L 3379 -58 
Q 3782 -58 4076 -58 
Q 4371 -58 4570 -51 
Q 4960 -51 5286 -32 
L 5286 -410 
z
M 4102 2650 
Q 3981 2618 3881 2595 
Q 3782 2573 3693 2560 
Q 3424 2515 3158 2492 
Q 2893 2470 2630 2470 
Q 2202 2432 1139 2374 
Q 1056 2368 953 2365 
Q 851 2362 723 2349 
L 742 3494 
L 723 4755 
L 2221 4742 
L 3642 4762 
L 3642 4378 
L 2355 4390 
L 1184 4378 
L 1171 3539 
L 1178 2790 
Q 1459 2803 1795 2812 
Q 2131 2822 2451 2822 
Q 3098 2822 3648 2918 
Q 3744 2931 3849 2960 
Q 3955 2989 4083 3021 
L 4102 2650 
z
M 6061 3072 
L 5120 3072 
L 5133 2074 
L 4672 2074 
Q 4672 2093 4672 2160 
Q 4672 2227 4678 2336 
Q 4685 2451 4685 2678 
Q 4685 2906 4685 3251 
L 4685 4666 
Q 4685 4813 4678 4960 
Q 4672 5107 4659 5190 
L 4851 5197 
Q 4986 5197 5078 5174 
Q 5171 5152 5171 5082 
Q 5171 5062 5152 4982 
Q 5133 4902 5133 4845 
L 5120 4134 
L 5126 3482 
L 6061 3494 
L 6061 3072 
z
" transform="scale(0.015625)"/>
      <path id="AppleGothic-b7ec" d="M 5414 5062 
Q 5414 5024 5398 4947 
Q 5382 4870 5382 4851 
L 5363 2502 
Q 5363 2182 5363 1868 
Q 5363 1555 5370 1235 
Q 5376 608 5382 192 
Q 5389 -224 5395 -493 
L 4915 -518 
L 4928 2291 
L 3642 2266 
L 3642 2682 
L 4928 2675 
L 4915 5190 
L 4973 5190 
Q 5165 5190 5289 5168 
Q 5414 5146 5414 5062 
z
M 3776 992 
Q 3648 947 3523 921 
Q 3398 896 3277 883 
Q 2854 826 2336 826 
Q 1862 781 1468 768 
Q 1075 755 787 749 
L 781 3046 
L 1818 3046 
Q 2227 3046 2460 3059 
Q 2694 3072 2867 3085 
L 2867 4173 
L 1843 4179 
Q 1574 4179 1388 4176 
Q 1203 4173 1094 4166 
Q 979 4160 886 4153 
Q 794 4147 717 4134 
L 717 4563 
Q 787 4563 937 4560 
Q 1088 4557 1318 4550 
Q 1549 4544 1686 4544 
Q 1824 4544 1875 4544 
L 2054 4544 
Q 2419 4544 2729 4557 
Q 3040 4570 3328 4589 
L 3315 3789 
L 3334 2694 
L 2381 2682 
Q 2093 2682 1894 2682 
Q 1696 2682 1587 2675 
Q 1478 2669 1385 2665 
Q 1293 2662 1216 2650 
Q 1203 2477 1200 2269 
Q 1197 2061 1197 1875 
Q 1197 1709 1200 1526 
Q 1203 1344 1216 1190 
Q 1242 1190 1318 1184 
Q 1395 1178 1523 1178 
L 1594 1178 
Q 1709 1178 1891 1187 
Q 2074 1197 2310 1210 
Q 2733 1242 3049 1280 
Q 3366 1318 3584 1357 
Q 3616 1363 3657 1369 
Q 3699 1376 3744 1389 
L 3776 992 
z
" transform="scale(0.015625)"/>
      <path id="AppleGothic-ae30" d="M 5427 5094 
Q 5427 5069 5408 4982 
Q 5389 4896 5389 4832 
L 5363 2362 
L 5382 -493 
L 4909 -518 
Q 4915 -371 4915 -195 
Q 4915 -19 4922 198 
Q 4934 646 4941 1299 
Q 4947 1632 4950 1872 
Q 4954 2112 4954 2259 
Q 4954 3808 4934 4346 
Q 4934 4614 4928 4822 
Q 4922 5030 4915 5184 
L 5114 5190 
Q 5261 5190 5344 5174 
Q 5427 5158 5427 5094 
z
M 3578 4486 
Q 3565 4051 3478 3635 
Q 3392 3219 3209 2819 
Q 3027 2419 2729 2041 
Q 2432 1664 1997 1306 
Q 1786 1139 1555 992 
Q 1325 845 1075 717 
Q 698 525 653 525 
Q 627 557 611 579 
Q 595 602 582 614 
Q 544 653 505 688 
Q 467 723 422 749 
Q 410 762 390 778 
Q 371 794 352 819 
Q 346 826 342 832 
Q 339 838 326 851 
Q 326 877 384 893 
Q 442 909 461 922 
Q 480 922 569 957 
Q 659 992 819 1069 
Q 1043 1171 1238 1283 
Q 1434 1395 1613 1523 
Q 2118 1888 2409 2301 
Q 2701 2714 2886 3187 
Q 2950 3354 2995 3514 
Q 3040 3674 3066 3840 
Q 3072 3898 3078 3962 
Q 3085 4026 3098 4090 
L 1766 4083 
Q 1318 4083 1046 4076 
Q 774 4070 589 4058 
L 589 4474 
Q 685 4467 800 4467 
Q 915 4467 1043 4461 
L 1466 4461 
L 3578 4486 
z
" transform="scale(0.015625)"/>
      <path id="AppleGothic-c900" d="M 5440 -454 
Q 5011 -442 4339 -435 
Q 3994 -429 3696 -429 
Q 3398 -429 3130 -429 
L 1261 -448 
L 1274 410 
L 1261 1069 
L 1478 1075 
Q 1581 1075 1677 1062 
Q 1773 1050 1773 986 
Q 1773 966 1753 905 
Q 1734 845 1734 813 
L 1722 397 
L 1722 -19 
L 3110 -32 
Q 3642 -32 4237 -22 
Q 4832 -13 5440 -6 
L 5440 -454 
z
M 5971 1952 
Q 5555 1952 4730 1971 
Q 3904 1990 3494 1990 
L 3501 666 
Q 3501 563 3366 557 
Q 3309 550 3264 547 
Q 3219 544 3194 544 
Q 3008 544 3008 621 
L 3014 1990 
L 1677 1978 
Q 1414 1978 1222 1978 
Q 1030 1978 896 1971 
Q 755 1965 636 1961 
Q 518 1958 410 1946 
L 410 2387 
Q 480 2387 643 2384 
Q 806 2381 1069 2374 
Q 1331 2368 1619 2365 
Q 1907 2362 2240 2355 
Q 2573 2349 2813 2349 
Q 3053 2349 3206 2349 
Q 4051 2349 4720 2361 
Q 5389 2374 5971 2394 
L 5971 1952 
z
M 5485 3213 
Q 5478 3200 5478 3187 
Q 5472 3162 5440 3123 
L 5197 2816 
Q 5069 2848 4966 2873 
Q 4864 2899 4781 2925 
Q 4294 3091 3910 3340 
Q 3526 3590 3302 3936 
Q 3258 4006 3213 4083 
Q 3149 3994 3101 3930 
Q 3053 3866 3008 3814 
Q 2451 3181 1562 2886 
Q 1414 2835 1197 2790 
L 1088 2899 
Q 954 3046 902 3085 
Q 864 3123 858 3142 
Q 851 3149 851 3155 
Q 851 3162 966 3200 
Q 1088 3219 1184 3238 
Q 1280 3258 1363 3277 
Q 1594 3334 1805 3433 
Q 2016 3533 2208 3661 
Q 2656 3962 2854 4333 
Q 2886 4390 2912 4467 
Q 2938 4544 2963 4634 
L 2080 4634 
L 1024 4614 
L 1024 5030 
Q 1459 5018 2019 5011 
Q 2579 5005 3238 5005 
Q 3885 5005 4419 5011 
Q 4954 5018 5370 5030 
L 5370 4614 
L 4429 4634 
L 3488 4627 
Q 3488 4544 3520 4429 
Q 3635 4064 4045 3776 
Q 4435 3501 4947 3347 
Q 5037 3328 5142 3305 
Q 5248 3283 5389 3258 
Q 5414 3251 5427 3248 
Q 5440 3245 5453 3245 
Q 5485 3232 5485 3213 
z
" transform="scale(0.015625)"/>
      <path id="AppleGothic-c120" d="M 5594 -403 
L 1645 -410 
L 1651 941 
L 1632 1235 
Q 1824 1235 1984 1209 
Q 2144 1184 2144 1139 
Q 2144 1139 2134 1107 
Q 2125 1075 2112 1036 
Q 2099 998 2089 960 
Q 2080 922 2080 896 
L 2080 -64 
L 3693 -77 
Q 4275 -77 4752 -64 
Q 5229 -51 5594 -38 
L 5594 -403 
z
M 5427 5082 
Q 5427 5062 5398 4985 
Q 5370 4909 5370 4845 
L 5363 3360 
L 5382 781 
L 4941 755 
L 4966 1536 
L 4966 3213 
L 3571 3206 
L 3571 3571 
L 4416 3558 
L 4947 3565 
L 4947 3782 
Q 4947 3821 4944 3936 
Q 4941 4051 4934 4250 
Q 4934 4448 4931 4611 
Q 4928 4774 4928 4909 
L 4915 5184 
L 5069 5190 
Q 5222 5190 5324 5168 
Q 5427 5146 5427 5082 
z
M 4032 2118 
Q 4032 2099 3898 1984 
Q 3859 1946 3820 1907 
Q 3782 1869 3738 1830 
Q 3642 1882 3565 1923 
Q 3488 1965 3424 2003 
Q 3059 2253 2752 2618 
Q 2662 2726 2582 2848 
Q 2502 2970 2419 3117 
Q 2394 3168 2362 3235 
Q 2330 3302 2291 3386 
Q 2272 3347 2253 3312 
Q 2234 3277 2221 3245 
Q 2112 3066 1968 2874 
Q 1824 2682 1632 2477 
Q 1498 2330 1341 2186 
Q 1184 2042 1005 1894 
Q 954 1850 880 1795 
Q 806 1741 717 1677 
Q 698 1690 685 1696 
Q 672 1702 659 1709 
Q 602 1741 518 1811 
Q 480 1843 397 1878 
Q 314 1914 314 1926 
L 326 1946 
Q 474 2035 595 2115 
Q 717 2195 806 2266 
Q 1350 2682 1651 3120 
Q 1952 3558 2080 4070 
Q 2125 4237 2144 4406 
Q 2163 4576 2163 4749 
Q 2272 4749 2464 4710 
Q 2656 4672 2656 4614 
Q 2656 4595 2624 4534 
Q 2592 4474 2592 4448 
Q 2579 4410 2572 4374 
Q 2566 4339 2560 4314 
Q 2534 4166 2534 4032 
Q 2534 3917 2547 3885 
Q 2618 3610 2739 3373 
Q 2867 3142 3084 2873 
Q 3302 2605 3565 2419 
Q 3674 2349 3789 2281 
Q 3904 2214 4019 2144 
L 4032 2118 
z
" transform="scale(0.015625)"/>
      <path id="AppleGothic-c190" d="M 5363 -352 
L 3514 -346 
Q 3136 -346 2825 -349 
Q 2515 -352 2246 -358 
Q 1978 -365 1747 -374 
Q 1517 -384 1299 -390 
L 1318 461 
L 1299 1466 
L 1446 1466 
Q 1632 1466 1731 1446 
Q 1830 1427 1830 1363 
Q 1830 1338 1820 1261 
Q 1811 1184 1811 1158 
L 1798 659 
L 1811 64 
L 3501 58 
Q 3866 58 4147 61 
Q 4429 64 4634 70 
Q 4845 83 5027 92 
Q 5210 102 5363 115 
L 5363 -352 
z
M 6016 1754 
Q 5965 1760 5913 1760 
Q 5862 1760 5811 1760 
Q 5107 1779 4301 1779 
L 3194 1773 
Q 2426 1773 1709 1754 
Q 1344 1741 1113 1737 
Q 883 1734 774 1728 
Q 672 1722 579 1715 
Q 486 1709 397 1702 
L 397 2157 
Q 544 2150 717 2144 
Q 890 2138 1094 2131 
Q 1299 2125 1404 2125 
Q 1510 2125 1536 2125 
L 2950 2138 
L 2957 2541 
L 2938 3168 
L 3104 3168 
Q 3290 3168 3370 3155 
Q 3450 3142 3450 3091 
Q 3418 3008 3418 2970 
L 3411 2534 
L 3430 2144 
L 4576 2157 
Q 4736 2157 4963 2166 
Q 5190 2176 5485 2189 
Q 5587 2195 5718 2201 
Q 5850 2208 6016 2221 
L 6016 1754 
z
M 5734 3379 
L 5702 3347 
Q 5670 3322 5648 3299 
Q 5626 3277 5606 3264 
Q 5594 3251 5565 3219 
Q 5536 3187 5504 3136 
Q 5472 3085 5453 3062 
Q 5434 3040 5427 3034 
Q 5280 3059 5165 3084 
Q 5050 3110 4960 3136 
Q 4691 3219 4454 3321 
Q 4218 3424 4006 3552 
Q 3616 3782 3347 4102 
Q 3309 4154 3257 4221 
Q 3206 4288 3155 4378 
Q 3117 4314 3088 4266 
Q 3059 4218 3027 4179 
Q 2662 3706 2202 3424 
Q 1824 3194 1350 3066 
Q 1267 3040 1171 3017 
Q 1075 2995 947 2970 
Q 934 2982 918 3001 
Q 902 3021 890 3034 
Q 762 3181 710 3213 
Q 614 3277 614 3322 
Q 614 3354 716 3354 
Q 819 3354 986 3386 
Q 1638 3507 2246 3962 
Q 2630 4250 2842 4730 
Q 2874 4813 2909 4915 
Q 2944 5018 2976 5152 
Q 3206 5152 3344 5120 
Q 3482 5088 3482 5018 
Q 3482 4992 3456 4947 
Q 3443 4934 3430 4915 
Q 3430 4646 3693 4346 
Q 3891 4128 4179 3936 
Q 4358 3821 4595 3721 
Q 4832 3622 5139 3546 
Q 5235 3520 5369 3488 
Q 5504 3456 5670 3424 
Q 5683 3418 5696 3411 
Q 5709 3405 5722 3392 
L 5734 3379 
z
" transform="scale(0.015625)"/>
      <path id="AppleGothic-bd84" d="M 4557 3194 
L 4557 4077 
L 3130 4096 
L 1754 4077 
L 1754 3194 
L 3110 3174 
L 4557 3194 
z
M 5210 -429 
L 3194 -410 
L 1325 -429 
L 1338 474 
L 1325 1197 
L 1549 1203 
Q 1645 1203 1741 1190 
Q 1837 1178 1837 1114 
Q 1837 1094 1817 1030 
Q 1798 966 1798 934 
L 1792 -38 
L 3194 -38 
Q 3539 -38 3820 -38 
Q 4102 -38 4342 -32 
Q 4582 -26 4793 -22 
Q 5005 -19 5210 -6 
L 5210 -429 
z
M 6016 1760 
Q 5504 1760 4614 1779 
Q 4166 1792 3878 1798 
Q 3590 1805 3462 1805 
L 3475 627 
L 2995 621 
L 3002 1805 
L 1670 1792 
Q 1222 1792 915 1779 
Q 608 1766 384 1754 
L 384 2182 
Q 474 2182 621 2179 
Q 768 2176 979 2170 
Q 1190 2163 1472 2160 
Q 1754 2157 2099 2150 
Q 2445 2144 2720 2141 
Q 2995 2138 3200 2138 
Q 3744 2138 4550 2157 
Q 4960 2170 5213 2176 
Q 5466 2182 5568 2189 
Q 5677 2195 5789 2201 
Q 5901 2208 6016 2214 
L 6016 1760 
z
M 5043 5094 
Q 5043 5069 5024 5011 
Q 5005 4954 5005 4934 
L 4992 4122 
L 5011 2803 
L 3104 2822 
L 1306 2803 
Q 1306 2880 1309 3005 
Q 1312 3130 1315 3280 
Q 1318 3430 1321 3593 
Q 1325 3757 1325 3917 
Q 1325 4390 1318 4678 
Q 1312 4966 1299 5158 
L 1472 5165 
Q 1613 5165 1699 5142 
Q 1786 5120 1786 5056 
Q 1786 5024 1770 4957 
Q 1754 4890 1754 4870 
L 1754 4442 
L 3136 4422 
L 4557 4442 
L 4544 5197 
L 4704 5203 
Q 4851 5203 4947 5180 
Q 5043 5158 5043 5094 
z
" transform="scale(0.015625)"/>
      <path id="AppleGothic-c810" d="M 4941 -6 
L 4941 1094 
Q 4800 1101 4601 1107 
Q 4403 1114 4141 1120 
Q 3885 1126 3661 1129 
Q 3437 1133 3245 1133 
Q 2963 1133 2748 1133 
Q 2534 1133 2374 1126 
Q 2214 1126 2057 1123 
Q 1901 1120 1741 1114 
L 1741 6 
Q 1830 6 2009 6 
Q 2189 6 2470 0 
Q 2746 -6 2915 -9 
Q 3085 -13 3142 -13 
L 4941 -6 
z
M 5395 -486 
L 4941 -499 
L 4915 -365 
L 1766 -352 
L 1747 -474 
L 1280 -480 
L 1293 570 
L 1280 1478 
Q 1702 1466 2217 1462 
Q 2733 1459 3258 1459 
L 5382 1459 
L 5376 205 
L 5376 -243 
Q 5382 -314 5385 -371 
Q 5389 -429 5395 -486 
z
M 4006 2259 
L 3859 2106 
Q 3808 2054 3760 2012 
Q 3712 1971 3661 1920 
Q 3571 1965 3497 2003 
Q 3424 2042 3360 2074 
Q 3181 2182 3024 2310 
Q 2867 2438 2726 2592 
Q 2515 2810 2362 3162 
Q 2336 3219 2310 3296 
Q 2285 3373 2253 3475 
Q 2221 3379 2195 3328 
Q 2022 2931 1670 2573 
Q 1542 2445 1379 2313 
Q 1216 2182 1005 2035 
Q 934 1997 844 1939 
Q 755 1882 646 1811 
L 314 2112 
L 326 2131 
Q 1030 2419 1485 2982 
Q 1997 3603 1997 4314 
L 1990 4429 
Q 1875 4442 1718 4448 
Q 1562 4454 1312 4454 
L 640 4448 
L 640 4845 
Q 742 4838 892 4832 
Q 1043 4826 1222 4822 
Q 1402 4819 1600 4816 
Q 1798 4813 2003 4813 
L 2234 4813 
Q 2579 4813 2828 4816 
Q 3078 4819 3232 4826 
Q 3386 4832 3510 4838 
Q 3635 4845 3744 4858 
L 3744 4422 
L 3142 4435 
L 2490 4422 
Q 2490 4102 2534 3885 
Q 2592 3558 2778 3245 
Q 3040 2797 3552 2483 
Q 3725 2374 4006 2259 
z
M 5446 5107 
Q 5446 5094 5408 4995 
Q 5370 4896 5370 4806 
L 5395 1830 
L 4928 1805 
L 4941 2381 
L 4941 3232 
L 4333 3245 
L 3642 3226 
L 3642 3603 
Q 3674 3603 3754 3603 
Q 3834 3603 3962 3597 
Q 4090 3590 4179 3590 
Q 4269 3590 4320 3590 
L 4941 3603 
L 4941 4742 
Q 4941 4954 4934 5053 
Q 4928 5152 4915 5190 
L 4998 5190 
Q 5171 5190 5308 5174 
Q 5446 5158 5446 5107 
z
" transform="scale(0.015625)"/>
      <path id="AppleGothic-c744" d="M 4794 4013 
Q 4794 4365 4365 4525 
Q 3942 4685 3232 4685 
Q 2400 4685 1997 4521 
Q 1594 4358 1594 4058 
Q 1594 3642 2189 3462 
Q 2579 3341 3226 3341 
Q 3936 3341 4339 3488 
Q 4794 3661 4794 4013 
z
M 5222 -467 
L 3238 -448 
L 1280 -454 
L 1293 109 
L 1280 800 
L 2938 787 
L 4621 800 
L 4621 1382 
L 1286 1357 
L 1286 1715 
Q 1421 1709 1849 1699 
Q 2278 1690 3040 1690 
Q 3411 1690 3715 1693 
Q 4019 1696 4265 1699 
Q 4512 1702 4713 1705 
Q 4915 1709 5094 1709 
L 5094 474 
L 3635 480 
L 1754 461 
L 1754 -128 
L 3187 -128 
Q 3629 -128 3955 -125 
Q 4282 -122 4493 -115 
Q 4710 -109 4892 -102 
Q 5075 -96 5222 -83 
L 5222 -467 
z
M 5990 2144 
Q 5811 2150 5667 2150 
Q 5523 2150 5414 2150 
Q 4621 2163 4093 2169 
Q 3565 2176 3290 2176 
Q 2746 2176 2323 2176 
Q 1901 2176 1581 2170 
Q 1261 2163 973 2160 
Q 685 2157 416 2144 
L 416 2534 
Q 467 2534 598 2534 
Q 730 2534 934 2528 
Q 1331 2522 2042 2509 
Q 2400 2502 2701 2502 
Q 3002 2502 3251 2502 
Q 3616 2502 3901 2502 
Q 4186 2502 4397 2509 
Q 4602 2515 4826 2515 
Q 5050 2515 5280 2522 
Q 5517 2528 5693 2531 
Q 5869 2534 5990 2534 
L 5990 2144 
z
M 5261 3994 
Q 5261 3469 4723 3219 
Q 4211 2982 3264 2982 
Q 2822 2982 2470 3033 
Q 2118 3085 1850 3181 
Q 1152 3437 1152 4013 
Q 1152 4582 1798 4845 
Q 2054 4941 2403 4992 
Q 2752 5043 3213 5043 
Q 4109 5043 4659 4794 
Q 5261 4518 5261 3994 
z
" transform="scale(0.015625)"/>
      <path id="AppleGothic-d1b5" d="M 4851 365 
Q 4851 614 4531 762 
Q 4147 934 3258 934 
Q 2502 934 2108 793 
Q 1715 653 1715 358 
Q 1715 115 2016 -26 
Q 2400 -198 3213 -198 
L 3334 -198 
Q 4070 -198 4435 -83 
Q 4851 64 4851 365 
z
M 5331 358 
Q 5331 -134 4832 -358 
Q 4333 -582 3386 -582 
L 3226 -582 
Q 2784 -582 2445 -531 
Q 2106 -480 1850 -384 
Q 1248 -141 1248 352 
Q 1248 851 1882 1088 
Q 2131 1178 2473 1222 
Q 2816 1267 3258 1267 
Q 4256 1267 4755 1069 
Q 5331 845 5331 358 
z
M 6022 1722 
Q 5933 1722 5789 1722 
Q 5645 1722 5440 1728 
Q 5043 1734 4358 1747 
Q 4013 1754 3741 1757 
Q 3469 1760 3258 1760 
Q 2938 1760 2579 1753 
Q 2221 1747 1818 1734 
Q 1414 1728 1164 1721 
Q 915 1715 806 1709 
L 384 1690 
L 384 2099 
Q 640 2086 969 2080 
Q 1299 2074 1715 2074 
L 2995 2086 
L 2995 2726 
L 1338 2720 
L 1350 3821 
L 1338 4922 
L 3334 4915 
Q 3840 4915 4281 4928 
Q 4723 4941 5120 4954 
L 5120 4602 
L 3430 4614 
Q 3008 4614 2582 4608 
Q 2157 4602 1811 4589 
L 1811 4026 
L 3277 4013 
Q 3738 4013 4160 4029 
Q 4582 4045 4960 4070 
L 4960 3699 
L 3258 3718 
Q 2906 3718 2522 3712 
Q 2138 3706 1811 3693 
L 1811 3046 
L 3232 3053 
Q 3514 3053 3843 3059 
Q 4173 3066 4563 3078 
Q 4691 3085 4854 3091 
Q 5018 3098 5222 3110 
L 5222 2739 
L 4333 2746 
L 3443 2726 
L 3443 2080 
Q 3654 2080 3974 2086 
Q 4294 2093 4730 2106 
Q 5165 2118 5485 2124 
Q 5805 2131 6022 2131 
L 6022 1722 
z
" transform="scale(0.015625)"/>
      <path id="AppleGothic-bd80" d="M 4563 3130 
L 4563 4038 
L 1760 4045 
L 1760 3123 
L 4563 3130 
z
M 6010 1613 
Q 5798 1613 5472 1619 
Q 5146 1626 4704 1638 
Q 4269 1651 3942 1657 
Q 3616 1664 3392 1664 
L 3392 -589 
L 2931 -589 
Q 2938 -538 2947 -355 
Q 2957 -173 2957 224 
L 2950 1664 
L 1914 1670 
Q 1549 1670 1145 1664 
Q 742 1658 397 1645 
L 397 2042 
Q 512 2035 611 2035 
Q 710 2035 800 2029 
Q 2016 1990 2957 1990 
L 3187 1990 
Q 3654 1990 4000 1990 
Q 4346 1990 4576 1997 
Q 5037 2003 5421 2009 
Q 5805 2016 6010 2022 
L 6010 1613 
z
M 5043 5011 
Q 4992 4890 4992 4794 
L 4986 4109 
L 5005 2816 
L 3878 2829 
L 1318 2816 
L 1325 4749 
Q 1325 4902 1321 4976 
Q 1318 5050 1306 5114 
L 1677 5082 
Q 1792 5082 1792 5011 
Q 1792 4986 1776 4925 
Q 1760 4864 1760 4851 
L 1760 4352 
L 3130 4333 
L 4563 4352 
L 4557 5082 
L 4902 5075 
Q 5043 5075 5043 5011 
z
" transform="scale(0.015625)"/>
      <path id="AppleGothic-c11c" d="M 5434 5062 
Q 5434 5037 5414 4969 
Q 5395 4902 5395 4851 
L 5376 2790 
L 5395 -518 
L 4909 -544 
L 4934 2618 
L 3539 2579 
L 3539 3034 
L 4928 3034 
L 4934 4614 
Q 4934 4781 4934 4883 
Q 4934 4986 4928 5037 
Q 4928 5088 4925 5123 
Q 4922 5158 4915 5190 
Q 4986 5190 5069 5184 
Q 5152 5178 5242 5165 
Q 5434 5133 5434 5062 
z
M 3859 1178 
Q 3859 1152 3808 1120 
Q 3712 1056 3712 1056 
Q 3661 1005 3565 928 
Q 3565 928 3514 890 
Q 3411 979 3315 1062 
Q 3219 1146 3117 1235 
Q 3008 1357 2899 1501 
Q 2790 1645 2682 1818 
Q 2618 1920 2557 2051 
Q 2496 2182 2426 2349 
Q 2355 2515 2307 2668 
Q 2259 2822 2227 2963 
Q 2195 2848 2170 2771 
Q 1984 2291 1587 1754 
Q 1485 1619 1369 1491 
Q 1254 1363 1126 1235 
Q 1018 1146 915 1056 
Q 813 966 704 877 
L 467 1037 
L 358 1114 
Q 358 1114 320 1139 
L 346 1178 
Q 378 1178 602 1357 
Q 902 1600 1184 1952 
Q 1376 2195 1533 2467 
Q 1690 2739 1805 3040 
Q 1978 3462 2054 4109 
Q 2067 4218 2080 4352 
Q 2093 4486 2106 4666 
Q 2157 4666 2233 4653 
Q 2310 4640 2419 4614 
Q 2637 4563 2637 4506 
Q 2637 4480 2601 4429 
Q 2566 4378 2560 4352 
Q 2541 4243 2531 4169 
Q 2522 4096 2509 4045 
Q 2445 3725 2445 3699 
L 2554 3213 
Q 2598 3040 2668 2838 
Q 2739 2637 2844 2422 
Q 2950 2208 3104 1981 
Q 3258 1754 3469 1536 
Q 3539 1466 3632 1382 
Q 3725 1299 3846 1203 
L 3859 1178 
z
" transform="scale(0.015625)"/>
      <path id="AppleGothic-bcc4" d="M 3027 2739 
L 3027 3680 
L 2150 3693 
L 1293 3680 
L 1293 2739 
L 2144 2720 
L 3027 2739 
z
M 5440 -531 
Q 5178 -525 4906 -518 
Q 4634 -512 4339 -506 
Q 4038 -499 3801 -496 
Q 3565 -493 3379 -493 
L 1446 -493 
Q 1453 -422 1456 -336 
Q 1459 -250 1466 -141 
Q 1466 -45 1469 19 
Q 1472 83 1472 115 
L 1459 762 
L 3354 749 
L 4845 774 
L 4845 1382 
L 1446 1370 
L 1446 1734 
Q 1658 1734 1888 1728 
Q 2118 1722 2374 1715 
Q 2630 1709 2864 1705 
Q 3098 1702 3322 1702 
L 5299 1715 
L 5280 1094 
L 5293 410 
L 3373 429 
L 1901 416 
L 1901 -128 
Q 1978 -134 2134 -134 
Q 2291 -134 2522 -134 
Q 2752 -141 2969 -144 
Q 3187 -147 3392 -147 
Q 3846 -147 4380 -137 
Q 4915 -128 5440 -109 
L 5440 -531 
z
M 5440 5062 
Q 5440 5024 5414 4937 
Q 5389 4851 5389 4813 
Q 5382 4589 5372 4224 
Q 5363 3859 5363 3334 
Q 5363 3008 5363 2784 
Q 5363 2560 5370 2445 
Q 5376 2323 5376 2220 
Q 5376 2118 5382 2029 
L 4922 2029 
Q 4941 2189 4941 2394 
L 4941 2822 
L 3878 2803 
L 3878 3174 
L 4941 3162 
L 4941 3917 
L 3859 3904 
L 3859 4269 
L 4941 4256 
L 4941 4685 
Q 4941 4909 4934 5021 
Q 4928 5133 4915 5190 
L 5056 5190 
Q 5222 5190 5331 5164 
Q 5440 5139 5440 5062 
z
M 3488 4877 
L 3469 4710 
L 3456 3462 
L 3469 2362 
L 851 2362 
Q 851 2630 857 2944 
Q 864 3258 870 3578 
Q 870 3853 870 4061 
Q 870 4269 864 4416 
Q 858 4570 858 4704 
Q 858 4838 851 4966 
L 979 4966 
Q 1146 4966 1242 4950 
Q 1338 4934 1338 4864 
Q 1338 4838 1315 4761 
Q 1293 4685 1293 4653 
L 1293 4051 
L 2157 4032 
L 3027 4051 
L 3014 4998 
L 3072 4998 
Q 3264 4998 3376 4976 
Q 3488 4954 3488 4877 
z
" transform="scale(0.015625)"/>
      <path id="AppleGothic-c131" d="M 5459 486 
Q 5459 -38 4838 -269 
Q 4294 -474 3347 -474 
Q 2445 -474 1907 -262 
Q 1293 -26 1293 442 
Q 1293 1030 1946 1280 
Q 2189 1382 2544 1427 
Q 2899 1472 3354 1472 
Q 3795 1472 4147 1427 
Q 4499 1382 4768 1280 
Q 5459 1024 5459 486 
z
M 5446 5082 
Q 5446 5062 5420 4992 
Q 5395 4922 5395 4870 
L 5382 3981 
L 5395 1664 
L 4922 1587 
L 4922 3315 
L 4333 3334 
L 3725 3315 
L 3725 3706 
L 4352 3686 
L 4928 3706 
L 4915 5190 
L 5094 5197 
Q 5242 5197 5344 5174 
Q 5446 5152 5446 5082 
z
M 3962 2381 
Q 3949 2362 3930 2342 
Q 3898 2310 3878 2284 
Q 3859 2259 3834 2240 
L 3661 2035 
Q 3558 2106 3475 2163 
Q 3392 2221 3334 2266 
Q 3136 2413 2989 2557 
Q 2842 2701 2733 2838 
Q 2624 2976 2541 3113 
Q 2458 3251 2394 3386 
Q 2349 3482 2304 3603 
Q 2285 3565 2269 3533 
Q 2253 3501 2240 3469 
Q 2042 3117 1690 2707 
Q 1568 2573 1421 2425 
Q 1274 2278 1094 2125 
Q 1030 2074 953 2010 
Q 877 1946 768 1862 
L 557 2035 
Q 525 2067 461 2105 
Q 397 2144 397 2163 
Q 403 2189 410 2195 
Q 474 2234 528 2262 
Q 582 2291 627 2323 
Q 883 2502 1123 2736 
Q 1363 2970 1587 3258 
Q 1856 3610 2009 4048 
Q 2163 4486 2163 4928 
L 2202 4928 
Q 2387 4928 2534 4909 
Q 2682 4890 2682 4826 
Q 2682 4774 2637 4723 
Q 2630 4710 2592 4672 
Q 2579 4634 2576 4605 
Q 2573 4576 2566 4550 
Q 2541 4422 2541 4333 
Q 2541 4250 2563 4147 
Q 2586 4045 2630 3910 
Q 2758 3539 3001 3193 
Q 3245 2848 3610 2605 
Q 3674 2560 3754 2518 
Q 3834 2477 3930 2426 
L 3962 2381 
z
M 4979 474 
Q 4979 826 4474 979 
Q 4058 1114 3354 1114 
Q 2624 1114 2266 992 
Q 1773 838 1773 448 
Q 1850 -102 3366 -102 
Q 4154 -102 4525 19 
Q 4979 160 4979 474 
z
" transform="scale(0.015625)"/>
      <path id="AppleGothic-acfc" d="M 4339 1184 
Q 4198 1165 4086 1152 
Q 3974 1139 3885 1126 
Q 3373 1062 2973 1014 
Q 2573 966 2266 934 
Q 1965 909 1680 883 
Q 1395 858 1120 826 
Q 966 813 876 803 
Q 787 794 762 794 
Q 710 781 668 774 
Q 627 768 582 755 
Q 499 755 454 934 
Q 429 1024 419 1091 
Q 410 1158 410 1210 
L 1030 1229 
L 1638 1274 
L 1651 2381 
L 1638 3302 
L 1677 3302 
Q 1850 3302 1990 3283 
Q 2131 3264 2131 3206 
Q 2131 3174 2099 3100 
Q 2067 3027 2067 2982 
L 2080 2189 
L 2067 1293 
L 3174 1408 
L 4320 1536 
L 4339 1184 
z
M 6061 2035 
L 5126 2042 
L 5114 1050 
L 5126 -486 
L 4653 -506 
Q 4653 -397 4653 -233 
Q 4653 -70 4659 141 
Q 4666 365 4666 659 
Q 4666 954 4666 1331 
Q 4672 1715 4675 2214 
Q 4678 2714 4678 3347 
L 4678 4691 
Q 4678 4870 4675 4985 
Q 4672 5101 4659 5184 
L 4800 5184 
Q 5011 5184 5100 5158 
Q 5190 5133 5190 5082 
Q 5190 5082 5180 5050 
Q 5171 5018 5161 4973 
Q 5152 4928 5142 4880 
Q 5133 4832 5133 4794 
L 5120 4051 
L 5126 2445 
L 6061 2451 
L 6061 2035 
z
M 3718 4499 
Q 3718 4371 3715 4262 
Q 3712 4154 3706 4064 
Q 3699 3974 3686 3779 
Q 3674 3584 3642 3283 
Q 3610 2982 3597 2793 
Q 3584 2605 3571 2515 
Q 3546 2330 3533 2211 
Q 3520 2093 3507 2042 
L 3078 2054 
Q 3085 2157 3098 2227 
Q 3130 2483 3155 2710 
Q 3181 2938 3200 3142 
L 3264 4109 
L 2042 4109 
Q 1562 4109 1267 4102 
Q 973 4096 768 4083 
L 768 4480 
L 3718 4499 
z
" transform="scale(0.015625)"/>
      <path id="AppleGothic-ba85" d="M 4998 480 
Q 4998 851 4435 992 
Q 4237 1043 3981 1072 
Q 3725 1101 3398 1101 
L 3245 1101 
Q 2598 1101 2221 992 
Q 1734 858 1734 512 
Q 1734 160 2227 -6 
Q 2432 -77 2704 -109 
Q 2976 -141 3328 -141 
Q 3699 -141 3984 -115 
Q 4269 -90 4474 -26 
Q 4998 128 4998 480 
z
M 2912 2438 
L 2912 4262 
L 1235 4262 
L 1242 2438 
L 2131 2426 
L 2912 2438 
z
M 5434 493 
Q 5434 -19 4838 -275 
Q 4288 -506 3315 -506 
Q 2419 -506 1875 -282 
Q 1254 -19 1254 506 
Q 1254 1011 1914 1248 
Q 2470 1466 3398 1466 
Q 4339 1466 4858 1229 
Q 5434 973 5434 493 
z
M 3386 2054 
L 787 2042 
L 806 3469 
Q 806 3795 800 4102 
Q 794 4410 781 4659 
L 1862 4646 
L 3379 4659 
L 3360 3360 
Q 3360 2989 3366 2656 
Q 3373 2323 3386 2054 
z
M 5440 5082 
Q 5440 5050 5417 4970 
Q 5395 4890 5395 4858 
Q 5395 4768 5395 4614 
Q 5395 4461 5389 4243 
Q 5382 4032 5382 3821 
Q 5382 3610 5376 3398 
Q 5376 2918 5376 2595 
Q 5376 2272 5382 2106 
Q 5389 1939 5392 1814 
Q 5395 1690 5408 1594 
L 4922 1581 
Q 4922 1581 4925 1597 
Q 4928 1613 4928 1657 
Q 4928 1702 4931 1785 
Q 4934 1869 4934 2010 
L 4934 2528 
L 4582 2528 
Q 4371 2528 4140 2521 
Q 3910 2515 3706 2502 
L 3706 2906 
L 4557 2893 
L 4934 2899 
L 4934 3718 
L 4512 3706 
Q 4243 3706 3878 3686 
Q 3846 3686 3801 3683 
Q 3757 3680 3706 3674 
L 3706 4090 
L 4461 4070 
L 4934 4077 
L 4941 4634 
Q 4941 4870 4934 4998 
Q 4928 5126 4915 5190 
L 5030 5190 
Q 5222 5190 5331 5171 
Q 5440 5152 5440 5082 
z
" transform="scale(0.015625)"/>
      <path id="AppleGothic-d655" d="M 3200 3066 
Q 3200 3302 2854 3392 
Q 2650 3443 2349 3443 
Q 1990 3443 1818 3398 
Q 1459 3315 1459 3066 
Q 1459 2867 1728 2790 
Q 1901 2739 2208 2739 
L 2496 2739 
Q 2778 2739 2950 2790 
Q 3200 2854 3200 3066 
z
M 5126 -518 
L 4666 -531 
L 4698 992 
Q 4570 998 4390 998 
Q 4211 998 3974 1005 
Q 3744 1011 3590 1011 
Q 3437 1011 3366 1011 
L 1216 966 
L 1216 1363 
Q 1344 1357 1446 1357 
Q 1549 1357 1632 1357 
Q 2202 1344 2566 1337 
Q 2931 1331 3098 1331 
Q 3686 1331 4176 1337 
Q 4666 1344 5126 1363 
L 5114 672 
L 5126 -518 
z
M 4301 1811 
Q 3974 1754 3744 1734 
Q 3373 1690 3024 1667 
Q 2675 1645 2330 1645 
Q 1805 1645 1050 1587 
Q 979 1581 892 1574 
Q 806 1568 698 1555 
Q 659 1555 576 1529 
Q 493 1504 454 1504 
Q 378 1504 352 1645 
Q 326 1786 326 1939 
L 2144 1971 
L 2138 2432 
Q 1920 2445 1737 2483 
Q 1555 2522 1402 2592 
Q 1062 2758 1062 3066 
Q 1062 3507 1568 3648 
Q 1824 3731 2349 3731 
Q 2874 3731 3123 3648 
Q 3610 3507 3610 3066 
Q 3610 2675 3110 2522 
Q 2976 2496 2841 2477 
Q 2707 2458 2566 2432 
L 2560 1997 
L 4250 2157 
L 4301 1811 
z
M 6010 2682 
L 5530 2701 
L 5126 2694 
L 5126 1549 
L 4685 1517 
L 4698 3149 
Q 4698 3770 4698 4150 
Q 4698 4531 4691 4685 
Q 4691 4845 4688 4966 
Q 4685 5088 4678 5178 
L 4826 5178 
Q 4960 5178 5056 5155 
Q 5152 5133 5152 5062 
Q 5152 5037 5129 4963 
Q 5107 4890 5107 4858 
L 5107 4141 
L 5107 3398 
Q 5114 3302 5117 3219 
Q 5120 3136 5126 3066 
L 5523 3059 
Q 5875 3059 6010 3078 
L 6010 2682 
z
M 4083 3949 
Q 3974 3955 3888 3955 
Q 3802 3955 3731 3955 
Q 3232 3968 2877 3974 
Q 2522 3981 2291 3981 
L 2163 3981 
Q 1664 3981 1312 3974 
Q 960 3968 640 3949 
L 640 4333 
Q 909 4320 1254 4307 
Q 1600 4294 2016 4294 
L 2259 4294 
Q 2771 4294 3238 4307 
Q 3706 4320 4083 4333 
L 4083 3949 
z
M 3053 4646 
L 2298 4659 
L 1606 4646 
L 1606 4998 
L 2272 4986 
L 3053 4998 
L 3053 4646 
z
" transform="scale(0.015625)"/>
     </defs>
     <use xlink:href="#AppleGothic-30"/>
     <use xlink:href="#AppleGothic-b2ec" transform="translate(67.999985 0)"/>
     <use xlink:href="#AppleGothic-b7ec" transform="translate(167.999969 0)"/>
     <use xlink:href="#AppleGothic-20" transform="translate(267.999954 0)"/>
     <use xlink:href="#AppleGothic-ae30" transform="translate(299.999939 0)"/>
     <use xlink:href="#AppleGothic-c900" transform="translate(399.999924 0)"/>
     <use xlink:href="#AppleGothic-c120" transform="translate(499.999908 0)"/>
     <use xlink:href="#AppleGothic-28" transform="translate(599.999893 0)"/>
     <use xlink:href="#AppleGothic-c190" transform="translate(649.999878 0)"/>
     <use xlink:href="#AppleGothic-c775" transform="translate(749.999863 0)"/>
     <use xlink:href="#AppleGothic-bd84" transform="translate(849.999847 0)"/>
     <use xlink:href="#AppleGothic-ae30" transform="translate(949.999832 0)"/>
     <use xlink:href="#AppleGothic-c810" transform="translate(1049.999817 0)"/>
     <use xlink:href="#AppleGothic-29" transform="translate(1149.999802 0)"/>
     <use xlink:href="#AppleGothic-c744" transform="translate(1199.999786 0)"/>
     <use xlink:href="#AppleGothic-20" transform="translate(1299.999771 0)"/>
     <use xlink:href="#AppleGothic-d1b5" transform="translate(1331.999756 0)"/>
     <use xlink:href="#AppleGothic-d55c" transform="translate(1431.999741 0)"/>
     <use xlink:href="#AppleGothic-20" transform="translate(1531.999725 0)"/>
     <use xlink:href="#AppleGothic-bd80" transform="translate(1563.99971 0)"/>
     <use xlink:href="#AppleGothic-c11c" transform="translate(1663.999695 0)"/>
     <use xlink:href="#AppleGothic-bcc4" transform="translate(1763.99968 0)"/>
     <use xlink:href="#AppleGothic-20" transform="translate(1863.999664 0)"/>
     <use xlink:href="#AppleGothic-c131" transform="translate(1895.999649 0)"/>
     <use xlink:href="#AppleGothic-acfc" transform="translate(1995.999634 0)"/>
     <use xlink:href="#AppleGothic-20" transform="translate(2095.999619 0)"/>
     <use xlink:href="#AppleGothic-ba85" transform="translate(2127.999603 0)"/>
     <use xlink:href="#AppleGothic-d655" transform="translate(2227.999588 0)"/>
     <use xlink:href="#AppleGothic-d654" transform="translate(2327.999573 0)"/>
    </g>
   </g>
  </g>
 </g>
 <defs>
  <clipPath id="p6ffd00efd8">
   <rect x="66.760937" y="38.036875" width="446.4" height="277.2"/>
  </clipPath>
 </defs>
</svg>
