<?xml version="1.0" encoding="utf-8" standalone="no"?>
<!DOCTYPE svg PUBLIC "-//W3C//DTD SVG 1.1//EN"
  "http://www.w3.org/Graphics/SVG/1.1/DTD/svg11.dtd">
<svg xmlns:xlink="http://www.w3.org/1999/xlink" width="516.6pt" height="291.6pt" viewBox="0 0 516.6 291.6" xmlns="http://www.w3.org/2000/svg" version="1.1">
 <metadata>
  <rdf:RDF xmlns:dc="http://purl.org/dc/elements/1.1/" xmlns:cc="http://creativecommons.org/ns#" xmlns:rdf="http://www.w3.org/1999/02/22-rdf-syntax-ns#">
   <cc:Work>
    <dc:type rdf:resource="http://purl.org/dc/dcmitype/StillImage"/>
    <dc:date>2026-05-22T14:25:55.552253</dc:date>
    <dc:format>image/svg+xml</dc:format>
    <dc:creator>
     <cc:Agent>
      <dc:title>Matplotlib v3.10.9, https://matplotlib.org/</dc:title>
     </cc:Agent>
    </dc:creator>
   </cc:Work>
  </rdf:RDF>
 </metadata>
 <defs>
  <style type="text/css">*{stroke-linejoin: round; stroke-linecap: butt}</style>
 </defs>
 <g id="figure_1">
  <g id="patch_1">
   <path d="M 0 291.6 
L 516.6 291.6 
L 516.6 0 
L 0 0 
z
" style="fill: #ffffff"/>
  </g>
  <g id="axes_1">
   <g id="patch_2">
    <path d="M 57.42 118.08 
L 157.86 118.08 
L 157.86 76.5 
L 57.42 76.5 
z
" clip-path="url(#p89c91b80ac)" style="fill: #e74c3c; opacity: 0.5; stroke: #e74c3c; stroke-linejoin: miter"/>
   </g>
   <g id="patch_3">
    <path d="M 57.42 173.52 
L 157.86 173.52 
L 157.86 131.94 
L 57.42 131.94 
z
" clip-path="url(#p89c91b80ac)" style="fill: #2ecc71; opacity: 0.5; stroke: #2ecc71; stroke-linejoin: miter"/>
   </g>
   <g id="patch_4">
    <path d="M 57.42 228.96 
L 157.86 228.96 
L 157.86 187.38 
L 57.42 187.38 
z
" clip-path="url(#p89c91b80ac)" style="fill: #e74c3c; opacity: 0.5; stroke: #e74c3c; stroke-linejoin: miter"/>
   </g>
   <g id="patch_5">
    <path d="M 258.3 173.52 
L 408.96 173.52 
L 408.96 90.36 
L 258.3 90.36 
z
" clip-path="url(#p89c91b80ac)" style="fill: #e74c3c; stroke: #000000; stroke-width: 2; stroke-linejoin: miter"/>
   </g>
   <g id="patch_6">
    <path d="M 258.3 270.54 
L 408.96 270.54 
L 408.96 187.38 
L 258.3 187.38 
z
" clip-path="url(#p89c91b80ac)" style="fill: #2ecc71; stroke: #000000; stroke-width: 2; stroke-linejoin: miter"/>
   </g>
   <g id="text_1">
    <!-- Furniture -->
    <g transform="translate(87.613438 94.785625) scale(0.1 -0.1)">
     <defs>
      <path id="AppleGothic-46" d="M 339 5018 
L 3462 5018 
L 3462 4576 
L 845 4576 
L 845 2714 
L 3354 2714 
L 3354 2304 
L 845 2304 
L 845 0 
L 339 0 
L 339 5018 
z
" transform="scale(0.015625)"/>
      <path id="AppleGothic-75" d="M 262 3424 
L 730 3424 
L 730 1242 
Q 730 877 941 627 
Q 1171 339 1594 339 
Q 2080 339 2426 730 
Q 2784 1139 2784 1632 
L 2784 3424 
L 3245 3424 
L 3245 0 
L 2842 0 
L 2810 582 
Q 2707 442 2592 330 
Q 2477 218 2342 134 
Q 1984 -83 1555 -83 
Q 966 -83 614 282 
Q 262 653 262 1184 
L 262 3424 
z
" transform="scale(0.015625)"/>
      <path id="AppleGothic-72" d="M 2125 3424 
L 2125 2963 
Q 2054 2989 2009 3005 
Q 1965 3021 1933 3027 
Q 1901 3034 1865 3037 
Q 1830 3040 1773 3040 
Q 1306 3040 1005 2586 
Q 749 2170 749 1658 
L 749 0 
L 288 0 
L 288 3424 
L 710 3424 
L 742 2835 
Q 902 3104 1043 3219 
Q 1331 3456 1734 3456 
Q 1843 3456 1936 3449 
Q 2029 3443 2125 3424 
z
" transform="scale(0.015625)"/>
      <path id="AppleGothic-6e" d="M 3264 2291 
L 3264 0 
L 2803 0 
L 2803 2259 
Q 2803 2618 2541 2848 
Q 2278 3085 1914 3085 
Q 1427 3085 1075 2682 
Q 723 2272 723 1760 
L 723 0 
L 288 0 
L 288 3424 
L 691 3424 
L 710 2784 
Q 883 3046 1114 3219 
Q 1491 3501 1965 3501 
Q 2515 3501 2886 3168 
Q 3264 2842 3264 2291 
z
" transform="scale(0.015625)"/>
      <path id="AppleGothic-69" d="M 256 3424 
L 717 3424 
L 717 0 
L 256 0 
L 256 3424 
z
M 480 4870 
Q 614 4870 704 4780 
Q 794 4691 794 4525 
Q 794 4358 710 4268 
Q 627 4179 480 4179 
Q 333 4179 253 4281 
Q 173 4384 173 4518 
Q 173 4730 269 4800 
Q 365 4870 480 4870 
z
" transform="scale(0.015625)"/>
      <path id="AppleGothic-74" d="M 691 4435 
L 1114 4435 
L 1114 3430 
L 2016 3430 
L 2016 3014 
L 1114 3014 
L 1114 838 
Q 1114 570 1213 454 
Q 1312 339 1555 339 
Q 1696 339 1795 371 
Q 1894 403 2016 454 
L 2016 38 
Q 1914 6 1770 -22 
Q 1626 -51 1478 -51 
Q 1094 -51 883 122 
Q 646 301 646 698 
L 646 3014 
L 70 3014 
L 70 3430 
L 646 3430 
L 691 4435 
z
" transform="scale(0.015625)"/>
      <path id="AppleGothic-65" d="M 3296 1850 
L 691 1850 
Q 691 1114 1033 726 
Q 1376 339 1933 339 
Q 2355 339 2746 608 
Q 2854 678 2976 784 
Q 3098 890 3238 1030 
L 3238 474 
Q 3085 358 2953 272 
Q 2822 186 2707 128 
Q 2304 -83 1901 -83 
Q 1203 -83 717 397 
Q 192 902 192 1709 
Q 192 2470 666 2982 
Q 1146 3501 1850 3501 
Q 2534 3501 2938 3002 
Q 3296 2547 3296 1850 
z
M 755 2240 
L 2758 2240 
Q 2682 2675 2429 2889 
Q 2176 3104 1818 3104 
Q 1421 3104 1146 2854 
Q 890 2624 755 2240 
z
" transform="scale(0.015625)"/>
     </defs>
     <use xlink:href="#AppleGothic-46"/>
     <use xlink:href="#AppleGothic-75" transform="translate(58.199997 0)"/>
     <use xlink:href="#AppleGothic-72" transform="translate(113.699982 0)"/>
     <use xlink:href="#AppleGothic-6e" transform="translate(148.899979 0)"/>
     <use xlink:href="#AppleGothic-69" transform="translate(204.799973 0)"/>
     <use xlink:href="#AppleGothic-74" transform="translate(220.699966 0)"/>
     <use xlink:href="#AppleGothic-75" transform="translate(254.899963 0)"/>
     <use xlink:href="#AppleGothic-72" transform="translate(310.399948 0)"/>
     <use xlink:href="#AppleGothic-65" transform="translate(345.599945 0)"/>
    </g>
    <!-- Sales: 10 -->
    <g transform="translate(84.694688 105.914687) scale(0.1 -0.1)">
     <defs>
      <path id="AppleGothic-53" d="M 3418 4666 
L 3418 4019 
Q 3251 4160 3081 4269 
Q 2912 4378 2746 4448 
Q 2362 4627 1965 4627 
Q 1466 4627 1139 4378 
Q 806 4122 806 3770 
Q 806 3258 1562 3002 
Q 1914 2880 2262 2768 
Q 2611 2656 2970 2541 
Q 3731 2176 3731 1453 
Q 3731 749 3187 320 
Q 2669 -83 1901 -83 
Q 1389 -83 915 115 
Q 640 224 262 474 
L 262 1126 
Q 755 685 1261 506 
Q 1427 442 1587 416 
Q 1747 390 1907 390 
Q 2419 390 2771 646 
Q 3162 928 3162 1382 
Q 3162 1933 2419 2221 
Q 2061 2330 1715 2445 
Q 1370 2560 1024 2669 
Q 275 3014 275 3731 
Q 275 4333 749 4710 
Q 1235 5101 1965 5101 
Q 2413 5101 2861 4934 
Q 3091 4858 3418 4666 
z
" transform="scale(0.015625)"/>
      <path id="AppleGothic-61" d="M 2950 2214 
L 2950 602 
Q 2950 493 2998 413 
Q 3046 333 3174 333 
Q 3213 333 3238 336 
Q 3264 339 3290 346 
Q 3328 358 3357 371 
Q 3386 384 3405 390 
L 3405 32 
Q 3290 -6 3174 -22 
Q 3059 -38 2995 -38 
Q 2669 -38 2566 134 
Q 2483 243 2483 602 
Q 2400 461 2317 355 
Q 2234 250 2150 179 
Q 1818 -83 1376 -83 
Q 909 -83 563 192 
Q 205 486 205 941 
Q 205 1510 781 1779 
Q 992 1882 1341 1958 
Q 1690 2035 2176 2099 
L 2483 2131 
Q 2483 2579 2256 2832 
Q 2029 3085 1587 3085 
Q 1421 3085 1257 3043 
Q 1094 3002 928 2912 
Q 838 2861 729 2790 
Q 621 2720 493 2611 
L 493 3136 
Q 1037 3501 1664 3501 
Q 2304 3501 2650 3098 
Q 2950 2746 2950 2214 
z
M 2483 1542 
L 2483 1747 
L 2266 1722 
Q 1466 1638 1139 1498 
Q 704 1325 704 934 
Q 704 819 755 713 
Q 806 608 896 525 
Q 986 442 1117 390 
Q 1248 339 1408 339 
Q 1843 339 2170 691 
Q 2483 1050 2483 1542 
z
" transform="scale(0.015625)"/>
      <path id="AppleGothic-6c" d="M 288 5018 
L 749 5018 
L 749 0 
L 288 0 
L 288 5018 
z
" transform="scale(0.015625)"/>
      <path id="AppleGothic-73" d="M 224 294 
L 224 851 
Q 621 531 1030 403 
Q 1152 371 1267 355 
Q 1382 339 1504 339 
Q 1894 339 2150 518 
Q 2413 710 2413 947 
Q 2413 1075 2317 1210 
Q 2182 1376 1600 1510 
Q 909 1683 678 1798 
Q 230 2054 230 2515 
Q 230 2944 602 3219 
Q 979 3501 1542 3501 
Q 1798 3501 2003 3456 
Q 2208 3411 2387 3337 
Q 2566 3264 2720 3155 
L 2720 2598 
Q 2451 2822 2156 2953 
Q 1862 3085 1536 3085 
Q 1210 3085 973 2938 
Q 730 2790 730 2554 
Q 730 2240 1306 2054 
Q 1574 1978 1836 1901 
Q 2099 1824 2368 1747 
Q 2950 1498 2950 992 
Q 2950 563 2547 237 
Q 2138 -83 1530 -83 
Q 1261 -83 1005 -26 
Q 595 64 224 294 
z
" transform="scale(0.015625)"/>
      <path id="AppleGothic-3a" d="M 1587 2554 
Q 1434 2554 1357 2682 
Q 1280 2810 1280 2995 
Q 1280 3187 1360 3318 
Q 1440 3450 1587 3450 
Q 1722 3450 1805 3331 
Q 1888 3213 1888 3008 
Q 1888 2816 1811 2685 
Q 1734 2554 1587 2554 
z
M 1587 -19 
Q 1434 -19 1357 109 
Q 1280 237 1280 422 
Q 1280 614 1360 745 
Q 1440 877 1587 877 
Q 1722 877 1805 758 
Q 1888 640 1888 435 
Q 1888 243 1811 112 
Q 1734 -19 1587 -19 
z
" transform="scale(0.015625)"/>
      <path id="AppleGothic-20" transform="scale(0.015625)"/>
      <path id="AppleGothic-31" d="M 2342 4774 
L 2752 4774 
L 2752 0 
L 2285 0 
L 2285 3526 
L 1158 3526 
L 1158 3885 
L 1414 3885 
Q 1990 3885 2214 4205 
Q 2342 4410 2342 4774 
z
" transform="scale(0.015625)"/>
      <path id="AppleGothic-30" d="M 2227 -83 
Q 1414 -83 934 576 
Q 461 1229 461 2387 
Q 461 3552 973 4218 
Q 1453 4858 2221 4858 
Q 3027 4858 3482 4173 
Q 3955 3494 3955 2394 
Q 3955 1248 3462 582 
Q 2976 -83 2227 -83 
z
M 2176 346 
Q 2861 346 3200 992 
Q 3462 1536 3462 2400 
Q 3462 3315 3162 3859 
Q 2822 4429 2214 4429 
Q 1574 4429 1248 3821 
Q 960 3283 960 2374 
Q 960 1478 1248 941 
Q 1574 346 2176 346 
z
" transform="scale(0.015625)"/>
     </defs>
     <use xlink:href="#AppleGothic-53"/>
     <use xlink:href="#AppleGothic-61" transform="translate(63.199997 0)"/>
     <use xlink:href="#AppleGothic-6c" transform="translate(119.699982 0)"/>
     <use xlink:href="#AppleGothic-65" transform="translate(136.399979 0)"/>
     <use xlink:href="#AppleGothic-73" transform="translate(191.299973 0)"/>
     <use xlink:href="#AppleGothic-3a" transform="translate(240.899963 0)"/>
     <use xlink:href="#AppleGothic-20" transform="translate(290.899948 0)"/>
     <use xlink:href="#AppleGothic-31" transform="translate(322.899933 0)"/>
     <use xlink:href="#AppleGothic-30" transform="translate(390.899918 0)"/>
    </g>
   </g>
   <g id="text_2">
    <!-- Technology -->
    <g transform="translate(81.329063 150.065469) scale(0.1 -0.1)">
     <defs>
      <path id="AppleGothic-54" d="M 166 5018 
L 4038 5018 
L 4038 4576 
L 2355 4576 
L 2355 0 
L 1856 0 
L 1856 4576 
L 166 4576 
L 166 5018 
z
" transform="scale(0.015625)"/>
      <path id="AppleGothic-63" d="M 3085 3123 
L 3085 2522 
Q 2726 2861 2349 3008 
Q 2240 3053 2125 3069 
Q 2010 3085 1894 3085 
Q 1363 3085 1024 2688 
Q 685 2278 685 1715 
Q 685 1139 1037 730 
Q 1389 339 1920 339 
Q 2253 339 2528 483 
Q 2803 627 3085 915 
L 3085 307 
Q 2746 96 2470 6 
Q 2195 -83 1914 -83 
Q 1197 -83 685 429 
Q 186 960 186 1709 
Q 186 2445 678 2976 
Q 1178 3501 1920 3501 
Q 2298 3501 2624 3373 
Q 2816 3302 3085 3123 
z
" transform="scale(0.015625)"/>
      <path id="AppleGothic-68" d="M 288 5018 
L 749 5018 
L 749 2810 
Q 909 3066 1139 3238 
Q 1491 3501 1926 3501 
Q 2195 3501 2409 3424 
Q 2624 3347 2803 3200 
Q 3181 2867 3181 2266 
L 3181 0 
L 2714 0 
L 2714 2202 
Q 2714 2573 2477 2829 
Q 2240 3085 1901 3085 
Q 1408 3085 1082 2694 
Q 749 2291 749 1773 
L 749 0 
L 288 0 
L 288 5018 
z
" transform="scale(0.015625)"/>
      <path id="AppleGothic-6f" d="M 1888 -83 
Q 1229 -83 730 397 
Q 198 902 198 1709 
Q 198 2470 666 2982 
Q 1146 3501 1850 3501 
Q 2547 3501 3027 2982 
Q 3501 2470 3501 1715 
Q 3501 922 2989 403 
Q 2515 -83 1888 -83 
z
M 1843 339 
Q 2304 339 2662 723 
Q 3008 1114 3008 1715 
Q 3008 2336 2637 2726 
Q 2298 3085 1850 3085 
Q 1389 3085 1062 2714 
Q 704 2304 704 1709 
Q 704 1107 1056 704 
Q 1382 339 1843 339 
z
" transform="scale(0.015625)"/>
      <path id="AppleGothic-67" d="M 2822 3040 
L 2950 3424 
L 3290 3424 
L 3290 326 
Q 3290 -474 2899 -890 
Q 2509 -1306 1690 -1306 
Q 1357 -1306 1059 -1187 
Q 762 -1069 435 -819 
L 435 -256 
Q 640 -448 838 -579 
Q 1037 -710 1229 -781 
Q 1453 -864 1690 -864 
Q 2195 -864 2477 -634 
Q 2822 -352 2822 269 
L 2822 691 
Q 2579 288 2221 122 
Q 1978 6 1683 6 
Q 1050 6 621 512 
Q 198 1030 198 1709 
Q 198 2387 595 2906 
Q 1056 3501 1773 3501 
Q 2131 3501 2451 3328 
Q 2547 3270 2640 3200 
Q 2733 3130 2822 3040 
z
M 2822 1658 
L 2822 2598 
Q 2714 2720 2602 2803 
Q 2490 2886 2381 2950 
Q 2253 3021 2118 3053 
Q 1984 3085 1843 3085 
Q 1363 3085 1050 2746 
Q 698 2362 698 1734 
Q 698 1165 992 794 
Q 1280 429 1741 429 
Q 2195 429 2509 781 
Q 2822 1120 2822 1658 
z
" transform="scale(0.015625)"/>
      <path id="AppleGothic-79" d="M 179 3424 
L 691 3424 
L 1869 531 
L 2874 3424 
L 3379 3424 
L 1952 -397 
Q 1798 -806 1555 -979 
Q 1338 -1126 1037 -1126 
Q 883 -1126 780 -1104 
Q 678 -1082 582 -1043 
L 582 -602 
Q 672 -646 784 -678 
Q 896 -710 986 -710 
Q 1210 -710 1334 -595 
Q 1459 -480 1555 -230 
L 1632 32 
L 179 3424 
z
" transform="scale(0.015625)"/>
     </defs>
     <use xlink:href="#AppleGothic-54"/>
     <use xlink:href="#AppleGothic-65" transform="translate(66.099991 0)"/>
     <use xlink:href="#AppleGothic-63" transform="translate(120.999985 0)"/>
     <use xlink:href="#AppleGothic-68" transform="translate(172.899979 0)"/>
     <use xlink:href="#AppleGothic-6e" transform="translate(225.099976 0)"/>
     <use xlink:href="#AppleGothic-6f" transform="translate(280.999969 0)"/>
     <use xlink:href="#AppleGothic-6c" transform="translate(339.299957 0)"/>
     <use xlink:href="#AppleGothic-6f" transform="translate(355.999954 0)"/>
     <use xlink:href="#AppleGothic-67" transform="translate(414.299942 0)"/>
     <use xlink:href="#AppleGothic-79" transform="translate(470.499939 0)"/>
    </g>
    <!-- Sales: 30 -->
    <g transform="translate(84.694688 161.514844) scale(0.1 -0.1)">
     <defs>
      <path id="AppleGothic-33" d="M 550 333 
L 550 870 
Q 883 621 1235 483 
Q 1587 346 1971 346 
Q 2522 346 2861 666 
Q 3219 992 3219 1421 
Q 3219 1869 2842 2099 
Q 2515 2304 1965 2304 
L 992 2304 
L 992 2701 
L 1658 2701 
Q 2298 2701 2662 2928 
Q 3027 3155 3027 3584 
Q 3027 3936 2752 4173 
Q 2458 4429 1978 4429 
Q 1786 4429 1597 4393 
Q 1408 4358 1222 4282 
Q 890 4141 531 3872 
L 531 4422 
Q 736 4531 912 4608 
Q 1088 4685 1254 4736 
Q 1626 4858 2022 4858 
Q 2650 4858 3066 4531 
Q 3488 4211 3488 3642 
Q 3488 3168 3168 2861 
Q 2976 2675 2643 2554 
Q 2874 2522 3053 2448 
Q 3232 2374 3366 2266 
Q 3718 1971 3718 1434 
Q 3718 813 3219 365 
Q 2714 -83 1965 -83 
Q 1549 -83 1126 70 
Q 1024 102 880 166 
Q 736 230 550 333 
z
" transform="scale(0.015625)"/>
     </defs>
     <use xlink:href="#AppleGothic-53"/>
     <use xlink:href="#AppleGothic-61" transform="translate(63.199997 0)"/>
     <use xlink:href="#AppleGothic-6c" transform="translate(119.699982 0)"/>
     <use xlink:href="#AppleGothic-65" transform="translate(136.399979 0)"/>
     <use xlink:href="#AppleGothic-73" transform="translate(191.299973 0)"/>
     <use xlink:href="#AppleGothic-3a" transform="translate(240.899963 0)"/>
     <use xlink:href="#AppleGothic-20" transform="translate(290.899948 0)"/>
     <use xlink:href="#AppleGothic-33" transform="translate(322.899933 0)"/>
     <use xlink:href="#AppleGothic-30" transform="translate(390.899918 0)"/>
    </g>
   </g>
   <g id="text_3">
    <!-- Furniture -->
    <g transform="translate(87.613438 205.665625) scale(0.1 -0.1)">
     <use xlink:href="#AppleGothic-46"/>
     <use xlink:href="#AppleGothic-75" transform="translate(58.199997 0)"/>
     <use xlink:href="#AppleGothic-72" transform="translate(113.699982 0)"/>
     <use xlink:href="#AppleGothic-6e" transform="translate(148.899979 0)"/>
     <use xlink:href="#AppleGothic-69" transform="translate(204.799973 0)"/>
     <use xlink:href="#AppleGothic-74" transform="translate(220.699966 0)"/>
     <use xlink:href="#AppleGothic-75" transform="translate(254.899963 0)"/>
     <use xlink:href="#AppleGothic-72" transform="translate(310.399948 0)"/>
     <use xlink:href="#AppleGothic-65" transform="translate(345.599945 0)"/>
    </g>
    <!-- Sales: 20 -->
    <g transform="translate(84.694688 216.794687) scale(0.1 -0.1)">
     <defs>
      <path id="AppleGothic-32" d="M 1101 429 
L 3942 429 
L 3942 0 
L 653 0 
L 653 205 
Q 653 1018 1344 1664 
Q 1670 1894 1990 2124 
Q 2310 2355 2637 2592 
Q 3334 3098 3334 3597 
Q 3334 3994 3014 4218 
Q 2867 4326 2694 4377 
Q 2522 4429 2317 4429 
Q 2016 4429 1741 4352 
Q 1325 4224 883 3910 
L 883 4435 
Q 1325 4659 1667 4758 
Q 2010 4858 2317 4858 
Q 2963 4858 3405 4525 
Q 3840 4198 3840 3622 
Q 3840 2995 3168 2438 
Q 2848 2214 2531 2000 
Q 2214 1786 1894 1562 
Q 1178 1024 1101 429 
z
" transform="scale(0.015625)"/>
     </defs>
     <use xlink:href="#AppleGothic-53"/>
     <use xlink:href="#AppleGothic-61" transform="translate(63.199997 0)"/>
     <use xlink:href="#AppleGothic-6c" transform="translate(119.699982 0)"/>
     <use xlink:href="#AppleGothic-65" transform="translate(136.399979 0)"/>
     <use xlink:href="#AppleGothic-73" transform="translate(191.299973 0)"/>
     <use xlink:href="#AppleGothic-3a" transform="translate(240.899963 0)"/>
     <use xlink:href="#AppleGothic-20" transform="translate(290.899948 0)"/>
     <use xlink:href="#AppleGothic-32" transform="translate(322.899933 0)"/>
     <use xlink:href="#AppleGothic-30" transform="translate(390.899918 0)"/>
    </g>
   </g>
   <g id="patch_7">
    <path d="M 168.207431 96.337147 
Q 195.13432 104.91188 222.061209 113.486613 
L 222.971503 110.628053 
Q 228.080751 114.354026 233.19 118.08 
Q 226.867026 118.16544 220.544052 118.250879 
L 221.454346 115.392319 
Q 194.527457 106.817586 167.600569 98.242853 
L 168.207431 96.337147 
z
" style="fill: #808080; stroke: #000000; stroke-linecap: round"/>
   </g>
   <g id="patch_8">
    <path d="M 167.435195 207.286698 
Q 194.776497 192.77553 222.117799 178.264362 
L 220.711384 175.614457 
Q 226.950692 174.567229 233.19 173.52 
Q 228.825912 178.100435 224.461824 182.680871 
L 223.055409 180.030966 
Q 195.714107 194.542134 168.372805 209.053302 
L 167.435195 207.286698 
z
" style="fill: #808080; stroke: #000000; stroke-linecap: round"/>
   </g>
   <g id="patch_9">
    <path d="M 167.798445 151.735587 
Q 194.474295 148.90399 221.150145 146.072393 
L 220.833479 143.089152 
Q 227.011739 144.444576 233.19 145.8 
Q 227.433961 148.42223 221.677921 151.04446 
L 221.361255 148.061219 
Q 194.685405 150.892816 168.009555 153.724413 
L 167.798445 151.735587 
z
" style="fill: #808080; stroke: #000000; stroke-linecap: round"/>
   </g>
   <g id="text_4">
    <!-- Furniture (Group) -->
    <g style="fill: #ffffff" transform="translate(293.062813 129.625469) scale(0.1 -0.1)">
     <defs>
      <path id="AppleGothic-28" d="M 2227 5261 
L 2650 5261 
Q 2342 4768 2169 4473 
Q 1997 4179 1958 4083 
Q 1606 3283 1606 2272 
Q 1606 1587 1754 1018 
Q 1882 570 2138 102 
Q 2150 70 2275 -131 
Q 2400 -333 2630 -717 
L 2227 -717 
Q 2099 -531 1980 -355 
Q 1862 -179 1734 0 
Q 1581 243 1469 483 
Q 1357 723 1274 954 
Q 1069 1587 1069 2272 
Q 1069 2963 1261 3558 
Q 1338 3789 1450 4022 
Q 1562 4256 1715 4499 
Q 1843 4691 1971 4880 
Q 2099 5069 2227 5261 
z
" transform="scale(0.015625)"/>
      <path id="AppleGothic-47" d="M 4134 4634 
L 4134 3968 
Q 3782 4282 3456 4435 
Q 3072 4627 2669 4627 
Q 1856 4627 1318 3955 
Q 806 3341 806 2483 
Q 806 1613 1357 973 
Q 1875 390 2528 390 
Q 3046 390 3398 723 
Q 3782 1088 3782 1683 
L 3782 2067 
L 2131 2067 
L 2131 2509 
L 4294 2509 
L 4294 0 
L 3853 0 
L 3782 608 
Q 3558 326 3302 166 
Q 2906 -83 2432 -83 
Q 1568 -83 928 653 
Q 269 1395 269 2470 
Q 269 3578 954 4339 
Q 1638 5101 2662 5101 
Q 3110 5101 3539 4934 
Q 3763 4851 4134 4634 
z
" transform="scale(0.015625)"/>
      <path id="AppleGothic-70" d="M 736 307 
L 736 -1101 
L 288 -1101 
L 288 3424 
L 704 3424 
L 730 2803 
Q 941 3149 1216 3325 
Q 1491 3501 1882 3501 
Q 2522 3501 2944 3002 
Q 3162 2752 3270 2441 
Q 3379 2131 3379 1747 
Q 3379 954 2899 435 
Q 2419 -83 1754 -83 
Q 1421 -83 1139 58 
Q 1056 90 960 154 
Q 864 218 736 307 
z
M 736 1824 
L 736 800 
Q 838 704 924 637 
Q 1011 570 1082 525 
Q 1395 339 1715 339 
Q 2227 339 2554 742 
Q 2886 1165 2886 1766 
Q 2886 2330 2579 2707 
Q 2278 3085 1811 3085 
Q 1331 3085 1018 2669 
Q 736 2291 736 1824 
z
" transform="scale(0.015625)"/>
      <path id="AppleGothic-29" d="M 2221 2272 
Q 2221 1587 2016 960 
Q 1862 499 1555 6 
Q 1427 -179 1305 -355 
Q 1184 -531 1062 -717 
L 659 -717 
Q 781 -512 902 -310 
Q 1024 -109 1152 96 
Q 1280 333 1376 557 
Q 1472 781 1530 1005 
Q 1683 1562 1683 2272 
Q 1683 2650 1641 2973 
Q 1600 3296 1517 3584 
Q 1459 3802 1356 4029 
Q 1254 4256 1120 4499 
Q 992 4691 873 4880 
Q 755 5069 640 5261 
L 1062 5261 
Q 1190 5069 1315 4880 
Q 1440 4691 1568 4506 
Q 1722 4256 1837 4022 
Q 1952 3789 2022 3565 
Q 2221 2976 2221 2272 
z
" transform="scale(0.015625)"/>
     </defs>
     <use xlink:href="#AppleGothic-46"/>
     <use xlink:href="#AppleGothic-75" transform="translate(58.199997 0)"/>
     <use xlink:href="#AppleGothic-72" transform="translate(113.699982 0)"/>
     <use xlink:href="#AppleGothic-6e" transform="translate(148.899979 0)"/>
     <use xlink:href="#AppleGothic-69" transform="translate(204.799973 0)"/>
     <use xlink:href="#AppleGothic-74" transform="translate(220.699966 0)"/>
     <use xlink:href="#AppleGothic-75" transform="translate(254.899963 0)"/>
     <use xlink:href="#AppleGothic-72" transform="translate(310.399948 0)"/>
     <use xlink:href="#AppleGothic-65" transform="translate(345.599945 0)"/>
     <use xlink:href="#AppleGothic-20" transform="translate(400.499939 0)"/>
     <use xlink:href="#AppleGothic-28" transform="translate(432.499924 0)"/>
     <use xlink:href="#AppleGothic-47" transform="translate(482.499908 0)"/>
     <use xlink:href="#AppleGothic-72" transform="translate(556.899902 0)"/>
     <use xlink:href="#AppleGothic-6f" transform="translate(592.099899 0)"/>
     <use xlink:href="#AppleGothic-75" transform="translate(650.399887 0)"/>
     <use xlink:href="#AppleGothic-70" transform="translate(705.899872 0)"/>
     <use xlink:href="#AppleGothic-29" transform="translate(761.299866 0)"/>
    </g>
    <!-- Total Sales: 30 -->
    <g style="fill: #ffffff" transform="translate(297.494844 140.754531) scale(0.1 -0.1)">
     <use xlink:href="#AppleGothic-54"/>
     <use xlink:href="#AppleGothic-6f" transform="translate(66.099991 0)"/>
     <use xlink:href="#AppleGothic-74" transform="translate(124.399979 0)"/>
     <use xlink:href="#AppleGothic-61" transform="translate(158.599976 0)"/>
     <use xlink:href="#AppleGothic-6c" transform="translate(215.09996 0)"/>
     <use xlink:href="#AppleGothic-20" transform="translate(231.799957 0)"/>
     <use xlink:href="#AppleGothic-53" transform="translate(263.799942 0)"/>
     <use xlink:href="#AppleGothic-61" transform="translate(326.999939 0)"/>
     <use xlink:href="#AppleGothic-6c" transform="translate(383.499924 0)"/>
     <use xlink:href="#AppleGothic-65" transform="translate(400.199921 0)"/>
     <use xlink:href="#AppleGothic-73" transform="translate(455.099915 0)"/>
     <use xlink:href="#AppleGothic-3a" transform="translate(504.699905 0)"/>
     <use xlink:href="#AppleGothic-20" transform="translate(554.69989 0)"/>
     <use xlink:href="#AppleGothic-33" transform="translate(586.699875 0)"/>
     <use xlink:href="#AppleGothic-30" transform="translate(654.69986 0)"/>
    </g>
   </g>
   <g id="text_5">
    <!-- Technology (Group) -->
    <g style="fill: #ffffff" transform="translate(286.778438 226.485312) scale(0.1 -0.1)">
     <use xlink:href="#AppleGothic-54"/>
     <use xlink:href="#AppleGothic-65" transform="translate(66.099991 0)"/>
     <use xlink:href="#AppleGothic-63" transform="translate(120.999985 0)"/>
     <use xlink:href="#AppleGothic-68" transform="translate(172.899979 0)"/>
     <use xlink:href="#AppleGothic-6e" transform="translate(225.099976 0)"/>
     <use xlink:href="#AppleGothic-6f" transform="translate(280.999969 0)"/>
     <use xlink:href="#AppleGothic-6c" transform="translate(339.299957 0)"/>
     <use xlink:href="#AppleGothic-6f" transform="translate(355.999954 0)"/>
     <use xlink:href="#AppleGothic-67" transform="translate(414.299942 0)"/>
     <use xlink:href="#AppleGothic-79" transform="translate(470.499939 0)"/>
     <use xlink:href="#AppleGothic-20" transform="translate(526.199936 0)"/>
     <use xlink:href="#AppleGothic-28" transform="translate(558.199921 0)"/>
     <use xlink:href="#AppleGothic-47" transform="translate(608.199905 0)"/>
     <use xlink:href="#AppleGothic-72" transform="translate(682.599899 0)"/>
     <use xlink:href="#AppleGothic-6f" transform="translate(717.799896 0)"/>
     <use xlink:href="#AppleGothic-75" transform="translate(776.099884 0)"/>
     <use xlink:href="#AppleGothic-70" transform="translate(831.599869 0)"/>
     <use xlink:href="#AppleGothic-29" transform="translate(886.999863 0)"/>
    </g>
    <!-- Total Sales: 30 -->
    <g style="fill: #ffffff" transform="translate(297.494844 237.934687) scale(0.1 -0.1)">
     <use xlink:href="#AppleGothic-54"/>
     <use xlink:href="#AppleGothic-6f" transform="translate(66.099991 0)"/>
     <use xlink:href="#AppleGothic-74" transform="translate(124.399979 0)"/>
     <use xlink:href="#AppleGothic-61" transform="translate(158.599976 0)"/>
     <use xlink:href="#AppleGothic-6c" transform="translate(215.09996 0)"/>
     <use xlink:href="#AppleGothic-20" transform="translate(231.799957 0)"/>
     <use xlink:href="#AppleGothic-53" transform="translate(263.799942 0)"/>
     <use xlink:href="#AppleGothic-61" transform="translate(326.999939 0)"/>
     <use xlink:href="#AppleGothic-6c" transform="translate(383.499924 0)"/>
     <use xlink:href="#AppleGothic-65" transform="translate(400.199921 0)"/>
     <use xlink:href="#AppleGothic-73" transform="translate(455.099915 0)"/>
     <use xlink:href="#AppleGothic-3a" transform="translate(504.699905 0)"/>
     <use xlink:href="#AppleGothic-20" transform="translate(554.69989 0)"/>
     <use xlink:href="#AppleGothic-33" transform="translate(586.699875 0)"/>
     <use xlink:href="#AppleGothic-30" transform="translate(654.69986 0)"/>
    </g>
   </g>
   <g id="text_6">
    <g id="patch_10">
     <path d="M 112.955469 69.556875 
L 303.204531 69.556875 
L 303.204531 47.071562 
L 112.955469 47.071562 
z
" style="fill: #f1c40f; opacity: 0.3"/>
    </g>
    <!-- groupby("Category").sum() -->
    <g style="fill: #2c3e50" transform="translate(117.015469 62.64) scale(0.14 -0.14)">
     <defs>
      <path id="AppleGothic-62" d="M 288 5018 
L 755 5018 
L 755 2848 
Q 845 2982 931 3078 
Q 1018 3174 1107 3245 
Q 1440 3501 1882 3501 
Q 2547 3501 2976 2995 
Q 3418 2483 3418 1754 
Q 3418 1005 2976 480 
Q 2502 -83 1792 -83 
Q 1402 -83 1114 90 
Q 928 192 755 384 
L 634 0 
L 288 0 
L 288 5018 
z
M 755 1862 
L 755 870 
Q 845 762 934 678 
Q 1024 595 1101 538 
Q 1382 339 1741 339 
Q 2234 339 2554 742 
Q 2874 1158 2874 1747 
Q 2874 2362 2515 2752 
Q 2208 3085 1805 3085 
Q 1370 3085 1056 2714 
Q 755 2355 755 1862 
z
" transform="scale(0.015625)"/>
      <path id="AppleGothic-22" d="M 774 4986 
L 1350 4986 
L 429 3366 
L 160 3366 
L 774 4986 
z
M 1837 4986 
L 2413 4986 
L 1491 3366 
L 1216 3366 
L 1837 4986 
z
" transform="scale(0.015625)"/>
      <path id="AppleGothic-43" d="M 4109 4621 
L 4109 3974 
Q 3872 4205 3565 4371 
Q 3085 4627 2598 4627 
Q 1850 4627 1312 3994 
Q 1043 3680 912 3309 
Q 781 2938 781 2515 
Q 781 1651 1318 1030 
Q 1850 410 2611 410 
Q 2970 410 3344 554 
Q 3718 698 4109 998 
L 4109 378 
Q 3251 -83 2554 -83 
Q 1651 -83 973 614 
Q 243 1363 243 2490 
Q 243 3584 922 4339 
Q 1613 5101 2630 5101 
Q 3027 5101 3392 4979 
Q 3757 4858 4109 4621 
z
" transform="scale(0.015625)"/>
      <path id="AppleGothic-2e" d="M 915 -19 
Q 762 -19 653 109 
Q 544 237 544 422 
Q 544 614 656 745 
Q 768 877 915 877 
Q 1056 877 1168 758 
Q 1280 640 1280 435 
Q 1280 243 1171 112 
Q 1062 -19 915 -19 
z
" transform="scale(0.015625)"/>
      <path id="AppleGothic-6d" d="M 5389 2195 
L 5389 0 
L 4922 0 
L 4922 2304 
Q 4922 2669 4672 2893 
Q 4461 3085 4173 3085 
Q 3744 3085 3405 2688 
Q 3072 2298 3072 1722 
L 3072 0 
L 2605 0 
L 2605 2304 
Q 2605 2650 2368 2861 
Q 2144 3085 1856 3085 
Q 1440 3085 1114 2714 
Q 755 2304 755 1702 
L 755 0 
L 288 0 
L 288 3424 
L 723 3424 
L 742 2880 
Q 928 3181 1274 3354 
Q 1581 3501 1894 3501 
Q 2381 3501 2714 3219 
Q 2957 3008 3021 2797 
Q 3149 3034 3386 3226 
Q 3757 3501 4205 3501 
Q 4749 3501 5050 3174 
Q 5389 2803 5389 2195 
z
" transform="scale(0.015625)"/>
     </defs>
     <use xlink:href="#AppleGothic-67"/>
     <use xlink:href="#AppleGothic-72" transform="translate(56.199997 0)"/>
     <use xlink:href="#AppleGothic-6f" transform="translate(91.399994 0)"/>
     <use xlink:href="#AppleGothic-75" transform="translate(149.699982 0)"/>
     <use xlink:href="#AppleGothic-70" transform="translate(205.199966 0)"/>
     <use xlink:href="#AppleGothic-62" transform="translate(260.59996 0)"/>
     <use xlink:href="#AppleGothic-79" transform="translate(316.799957 0)"/>
     <use xlink:href="#AppleGothic-28" transform="translate(372.499954 0)"/>
     <use xlink:href="#AppleGothic-22" transform="translate(422.499939 0)"/>
     <use xlink:href="#AppleGothic-43" transform="translate(462.499924 0)"/>
     <use xlink:href="#AppleGothic-61" transform="translate(530.999908 0)"/>
     <use xlink:href="#AppleGothic-74" transform="translate(587.499893 0)"/>
     <use xlink:href="#AppleGothic-65" transform="translate(621.69989 0)"/>
     <use xlink:href="#AppleGothic-67" transform="translate(676.599884 0)"/>
     <use xlink:href="#AppleGothic-6f" transform="translate(732.799881 0)"/>
     <use xlink:href="#AppleGothic-72" transform="translate(791.099869 0)"/>
     <use xlink:href="#AppleGothic-79" transform="translate(826.299866 0)"/>
     <use xlink:href="#AppleGothic-22" transform="translate(881.999863 0)"/>
     <use xlink:href="#AppleGothic-29" transform="translate(921.999847 0)"/>
     <use xlink:href="#AppleGothic-2e" transform="translate(971.999832 0)"/>
     <use xlink:href="#AppleGothic-73" transform="translate(1006.499817 0)"/>
     <use xlink:href="#AppleGothic-75" transform="translate(1056.099808 0)"/>
     <use xlink:href="#AppleGothic-6d" transform="translate(1111.599792 0)"/>
     <use xlink:href="#AppleGothic-28" transform="translate(1200.89978 0)"/>
     <use xlink:href="#AppleGothic-29" transform="translate(1250.899765 0)"/>
    </g>
   </g>
  </g>
 </g>
 <defs>
  <clipPath id="p89c91b80ac">
   <rect x="7.2" y="7.2" width="502.2" height="277.2"/>
  </clipPath>
 </defs>
</svg>
