<svg width="600" height="240" viewBox="0 0 600 240" xmlns="http://www.w3.org/2000/svg">
    <rect width="600" height="240" fill="#f8fafc" rx="10"/>
    <text x="300" y="30" font-family="sans-serif" font-size="20" font-weight="bold" fill="#334155" text-anchor="middle">아파트 1개 단지 추출: a[1]</text>
    <g transform="translate(100, 70)">
        <g stroke="#cbd5e1" stroke-width="1" opacity="0.4">
            <rect x="0" y="0" width="160" height="90" fill="#f1f5f9"/>
        </g>
        <g font-family="monospace" font-size="14" font-weight="bold" fill="#64748b" text-anchor="middle" opacity="0.4">
             <text x="80" y="50">0번 동 (무시)</text>
        </g>

        <g transform="translate(240, 0)">
            <animateTransform attributeName="transform" type="translate" values="240,0; 120,-10; 120,-10; 240,0" dur="4s" repeatCount="indefinite" keyTimes="0;0.3;0.8;1"/>
            <rect x="-10" y="-10" width="180" height="110" fill="none" stroke="#22c55e" stroke-width="3" stroke-dasharray="4"/>
            <text x="80" y="-15" font-family="sans-serif" font-size="14" font-weight="bold" fill="#22c55e" text-anchor="middle">통째로 도려낸 1번 동!</text>

            <g stroke="#16a34a" stroke-width="2">
                 <rect x="0" y="0" width="40" height="30" fill="#dcfce7"/> <rect x="40" y="0" width="40" height="30" fill="#dcfce7"/> <rect x="80" y="0" width="40" height="30" fill="#dcfce7"/> <rect x="120" y="0" width="40" height="30" fill="#dcfce7"/>
                <rect x="0" y="30" width="40" height="30" fill="#bbf7d0"/> <rect x="40" y="30" width="40" height="30" fill="#bbf7d0"/> <rect x="80" y="30" width="40" height="30" fill="#bbf7d0"/> <rect x="120" y="30" width="40" height="30" fill="#bbf7d0"/>
                <rect x="0" y="60" width="40" height="30" fill="#dcfce7"/> <rect x="40" y="60" width="40" height="30" fill="#dcfce7"/> <rect x="80" y="60" width="40" height="30" fill="#dcfce7"/> <rect x="120" y="60" width="40" height="30" fill="#dcfce7"/>
            </g>
            <g font-family="monospace" font-size="14" font-weight="bold" fill="#064e3b" text-anchor="middle">
                <text x="20" y="20">12</text><text x="60" y="20">13</text><text x="100" y="20">14</text><text x="140" y="20">15</text>
                <text x="20" y="50">16</text><text x="60" y="50">17</text><text x="100" y="50">18</text><text x="140" y="50">19</text>
                <text x="20" y="80">20</text><text x="60" y="80">21</text><text x="100" y="80">22</text><text x="140" y="80">23</text>
            </g>
        </g>
    </g>
    <text x="300" y="210" font-family="sans-serif" font-size="14" font-weight="bold" fill="#475569" text-anchor="middle">가장 상위 개념(Depth)에 숫자 하나를 주면, 해당하는 동 전체를 2차원 형태로 그대로 추출해냅니다.</text>
</svg>
