<?xml version="1.0" encoding="utf-8" standalone="no"?>
<!DOCTYPE svg PUBLIC "-//W3C//DTD SVG 1.1//EN"
  "http://www.w3.org/Graphics/SVG/1.1/DTD/svg11.dtd">
<svg xmlns:xlink="http://www.w3.org/1999/xlink" width="843.013125pt" height="364.318924pt" viewBox="0 0 843.013125 364.318924" xmlns="http://www.w3.org/2000/svg" version="1.1">
 <metadata>
  <rdf:RDF xmlns:dc="http://purl.org/dc/elements/1.1/" xmlns:cc="http://creativecommons.org/ns#" xmlns:rdf="http://www.w3.org/1999/02/22-rdf-syntax-ns#">
   <cc:Work>
    <dc:type rdf:resource="http://purl.org/dc/dcmitype/StillImage"/>
    <dc:date>2026-05-22T02:33:56.580588</dc:date>
    <dc:format>image/svg+xml</dc:format>
    <dc:creator>
     <cc:Agent>
      <dc:title>Matplotlib v3.10.9, https://matplotlib.org/</dc:title>
     </cc:Agent>
    </dc:creator>
   </cc:Work>
  </rdf:RDF>
 </metadata>
 <defs>
  <style type="text/css">*{stroke-linejoin: round; stroke-linecap: butt}</style>
 </defs>
 <g id="figure_1">
  <g id="patch_1">
   <path d="M 0 364.318924 
L 843.013125 364.318924 
L 843.013125 0 
L 0 0 
z
" style="fill: #ffffff"/>
  </g>
  <g id="axes_1">
   <g id="patch_2">
    <path d="M 54.613125 303.5525 
L 835.813125 303.5525 
L 835.813125 26.3525 
L 54.613125 26.3525 
z
" style="fill: #ffffff"/>
   </g>
   <g id="matplotlib.axis_1">
    <g id="xtick_1">
     <g id="line2d_1">
      <defs>
       <path id="m1a72f37b9d" d="M 0 0 
L 0 6 
" style="stroke: #262626; stroke-width: 1.25"/>
      </defs>
      <g>
       <use xlink:href="#m1a72f37b9d" x="71.595734" y="303.5525" style="fill: #262626; stroke: #262626; stroke-width: 1.25"/>
      </g>
     </g>
     <g id="text_1">
      <!-- 1989 -->
      <g style="fill: #262626" transform="translate(63.397659 340.30771) rotate(-45) scale(0.11 -0.11)">
       <defs>
        <path id="AppleGothic-31" d="M 2342 4774 
L 2752 4774 
L 2752 0 
L 2285 0 
L 2285 3526 
L 1158 3526 
L 1158 3885 
L 1414 3885 
Q 1990 3885 2214 4205 
Q 2342 4410 2342 4774 
z
" transform="scale(0.015625)"/>
        <path id="AppleGothic-39" d="M 928 211 
L 928 762 
Q 1050 672 1155 601 
Q 1261 531 1363 480 
Q 1702 320 2016 320 
Q 2291 320 2541 435 
Q 2739 525 2908 675 
Q 3078 826 3213 1037 
Q 3456 1408 3552 1843 
Q 3616 2144 3616 2573 
Q 3315 2272 3066 2125 
Q 2605 1850 2093 1850 
Q 1459 1850 1037 2214 
Q 589 2598 589 3270 
Q 589 3987 1082 4416 
Q 1549 4832 2234 4832 
Q 2970 4832 3494 4301 
Q 4122 3661 4122 2528 
Q 4122 1325 3475 582 
Q 2874 -109 2035 -109 
Q 1722 -109 1357 19 
Q 1254 51 1148 102 
Q 1043 154 928 211 
z
M 3578 3066 
Q 3462 3718 3053 4077 
Q 2675 4403 2227 4403 
Q 1715 4403 1402 4083 
Q 1082 3750 1082 3302 
Q 1082 2861 1370 2566 
Q 1658 2278 2125 2278 
Q 2573 2278 2915 2473 
Q 3258 2669 3578 3066 
z
" transform="scale(0.015625)"/>
        <path id="AppleGothic-38" d="M 2957 2605 
Q 3219 2528 3404 2445 
Q 3590 2362 3706 2272 
Q 4192 1926 4192 1370 
Q 4192 749 3642 333 
Q 3098 -83 2285 -83 
Q 1434 -83 947 326 
Q 512 691 512 1229 
Q 512 1798 998 2125 
Q 1146 2227 1341 2304 
Q 1536 2381 1779 2451 
Q 1574 2534 1430 2617 
Q 1286 2701 1197 2784 
Q 819 3104 819 3603 
Q 819 4173 1261 4512 
Q 1702 4858 2381 4858 
Q 3014 4858 3437 4570 
Q 3898 4262 3898 3738 
Q 3898 3373 3670 3081 
Q 3443 2790 2957 2605 
z
M 2406 2752 
Q 2624 2835 2781 2915 
Q 2938 2995 3040 3066 
Q 3398 3322 3398 3667 
Q 3398 3994 3104 4205 
Q 2822 4429 2362 4429 
Q 1894 4429 1613 4205 
Q 1325 3994 1325 3635 
Q 1325 3322 1581 3098 
Q 1696 3002 1901 2912 
Q 2106 2822 2406 2752 
z
M 2368 2304 
Q 2061 2202 1840 2106 
Q 1619 2010 1472 1920 
Q 1011 1626 1011 1235 
Q 1011 845 1376 595 
Q 1728 346 2310 346 
Q 2938 346 3315 640 
Q 3693 934 3693 1338 
Q 3693 1741 3238 1997 
Q 3104 2067 2886 2147 
Q 2669 2227 2368 2304 
z
" transform="scale(0.015625)"/>
       </defs>
       <use xlink:href="#AppleGothic-31"/>
       <use xlink:href="#AppleGothic-39" transform="translate(67.999985 0)"/>
       <use xlink:href="#AppleGothic-38" transform="translate(135.999969 0)"/>
       <use xlink:href="#AppleGothic-39" transform="translate(203.999954 0)"/>
      </g>
     </g>
    </g>
    <g id="xtick_2">
     <g id="line2d_2">
      <g>
       <use xlink:href="#m1a72f37b9d" x="105.560951" y="303.5525" style="fill: #262626; stroke: #262626; stroke-width: 1.25"/>
      </g>
     </g>
     <g id="text_2">
      <!-- 1992 -->
      <g style="fill: #262626" transform="translate(97.362877 340.30771) rotate(-45) scale(0.11 -0.11)">
       <defs>
        <path id="AppleGothic-32" d="M 1101 429 
L 3942 429 
L 3942 0 
L 653 0 
L 653 205 
Q 653 1018 1344 1664 
Q 1670 1894 1990 2124 
Q 2310 2355 2637 2592 
Q 3334 3098 3334 3597 
Q 3334 3994 3014 4218 
Q 2867 4326 2694 4377 
Q 2522 4429 2317 4429 
Q 2016 4429 1741 4352 
Q 1325 4224 883 3910 
L 883 4435 
Q 1325 4659 1667 4758 
Q 2010 4858 2317 4858 
Q 2963 4858 3405 4525 
Q 3840 4198 3840 3622 
Q 3840 2995 3168 2438 
Q 2848 2214 2531 2000 
Q 2214 1786 1894 1562 
Q 1178 1024 1101 429 
z
" transform="scale(0.015625)"/>
       </defs>
       <use xlink:href="#AppleGothic-31"/>
       <use xlink:href="#AppleGothic-39" transform="translate(67.999985 0)"/>
       <use xlink:href="#AppleGothic-39" transform="translate(135.999969 0)"/>
       <use xlink:href="#AppleGothic-32" transform="translate(203.999954 0)"/>
      </g>
     </g>
    </g>
    <g id="xtick_3">
     <g id="line2d_3">
      <g>
       <use xlink:href="#m1a72f37b9d" x="139.526168" y="303.5525" style="fill: #262626; stroke: #262626; stroke-width: 1.25"/>
      </g>
     </g>
     <g id="text_3">
      <!-- 1994 -->
      <g style="fill: #262626" transform="translate(131.328094 340.30771) rotate(-45) scale(0.11 -0.11)">
       <defs>
        <path id="AppleGothic-34" d="M 2662 4774 
L 3130 4774 
L 3130 1811 
L 4000 1811 
L 4000 1382 
L 3130 1382 
L 3130 0 
L 2662 0 
L 2662 1382 
L 352 1382 
L 352 1811 
L 2662 4774 
z
M 2662 1811 
L 2662 4166 
L 838 1811 
L 2662 1811 
z
" transform="scale(0.015625)"/>
       </defs>
       <use xlink:href="#AppleGothic-31"/>
       <use xlink:href="#AppleGothic-39" transform="translate(67.999985 0)"/>
       <use xlink:href="#AppleGothic-39" transform="translate(135.999969 0)"/>
       <use xlink:href="#AppleGothic-34" transform="translate(203.999954 0)"/>
      </g>
     </g>
    </g>
    <g id="xtick_4">
     <g id="line2d_4">
      <g>
       <use xlink:href="#m1a72f37b9d" x="173.491386" y="303.5525" style="fill: #262626; stroke: #262626; stroke-width: 1.25"/>
      </g>
     </g>
     <g id="text_4">
      <!-- 1995 -->
      <g style="fill: #262626" transform="translate(165.293311 340.30771) rotate(-45) scale(0.11 -0.11)">
       <defs>
        <path id="AppleGothic-35" d="M 621 4768 
L 3488 4768 
L 3488 4339 
L 1088 4339 
L 1088 2707 
Q 1184 2771 1293 2819 
Q 1402 2867 1510 2912 
Q 1862 3040 2259 3040 
Q 2989 3040 3424 2605 
Q 3827 2202 3827 1581 
Q 3827 870 3296 397 
Q 2765 -83 2010 -83 
Q 1651 -83 1248 45 
Q 1158 77 1001 137 
Q 845 198 621 301 
L 621 838 
Q 928 640 1203 525 
Q 1408 435 1613 390 
Q 1818 346 2010 346 
Q 2528 346 2906 666 
Q 3322 1011 3322 1536 
Q 3322 1990 3021 2291 
Q 2701 2611 2144 2611 
Q 1856 2611 1587 2528 
Q 1318 2445 1088 2272 
L 621 2272 
L 621 4768 
z
" transform="scale(0.015625)"/>
       </defs>
       <use xlink:href="#AppleGothic-31"/>
       <use xlink:href="#AppleGothic-39" transform="translate(67.999985 0)"/>
       <use xlink:href="#AppleGothic-39" transform="translate(135.999969 0)"/>
       <use xlink:href="#AppleGothic-35" transform="translate(203.999954 0)"/>
      </g>
     </g>
    </g>
    <g id="xtick_5">
     <g id="line2d_5">
      <g>
       <use xlink:href="#m1a72f37b9d" x="207.456603" y="303.5525" style="fill: #262626; stroke: #262626; stroke-width: 1.25"/>
      </g>
     </g>
     <g id="text_5">
      <!-- 1996 -->
      <g style="fill: #262626" transform="translate(199.258529 340.30771) rotate(-45) scale(0.11 -0.11)">
       <defs>
        <path id="AppleGothic-36" d="M 3699 4557 
L 3699 4013 
Q 3584 4102 3475 4163 
Q 3366 4224 3258 4275 
Q 3085 4358 2918 4393 
Q 2752 4429 2586 4429 
Q 2470 4429 2352 4409 
Q 2234 4390 2118 4339 
Q 1670 4154 1395 3738 
Q 1011 3149 1011 2189 
Q 1312 2490 1568 2656 
Q 2022 2931 2534 2931 
Q 3162 2931 3584 2566 
Q 4038 2163 4038 1491 
Q 4038 806 3558 358 
Q 3078 -83 2394 -83 
Q 1670 -83 1146 454 
Q 518 1088 518 2253 
Q 518 3411 1120 4134 
Q 1715 4858 2605 4858 
Q 2938 4858 3226 4762 
Q 3309 4730 3427 4682 
Q 3546 4634 3699 4557 
z
M 1062 1702 
Q 1152 1152 1498 768 
Q 1882 346 2419 346 
Q 2899 346 3213 659 
Q 3539 973 3539 1459 
Q 3539 1920 3226 2214 
Q 2918 2502 2496 2502 
Q 1990 2502 1542 2176 
Q 1414 2080 1292 1965 
Q 1171 1850 1062 1702 
z
" transform="scale(0.015625)"/>
       </defs>
       <use xlink:href="#AppleGothic-31"/>
       <use xlink:href="#AppleGothic-39" transform="translate(67.999985 0)"/>
       <use xlink:href="#AppleGothic-39" transform="translate(135.999969 0)"/>
       <use xlink:href="#AppleGothic-36" transform="translate(203.999954 0)"/>
      </g>
     </g>
    </g>
    <g id="xtick_6">
     <g id="line2d_6">
      <g>
       <use xlink:href="#m1a72f37b9d" x="241.421821" y="303.5525" style="fill: #262626; stroke: #262626; stroke-width: 1.25"/>
      </g>
     </g>
     <g id="text_6">
      <!-- 1997 -->
      <g style="fill: #262626" transform="translate(233.223746 340.30771) rotate(-45) scale(0.11 -0.11)">
       <defs>
        <path id="AppleGothic-37" d="M 595 4774 
L 3802 4774 
L 3802 4410 
L 1734 0 
L 1235 0 
L 3277 4352 
L 595 4352 
L 595 4774 
z
" transform="scale(0.015625)"/>
       </defs>
       <use xlink:href="#AppleGothic-31"/>
       <use xlink:href="#AppleGothic-39" transform="translate(67.999985 0)"/>
       <use xlink:href="#AppleGothic-39" transform="translate(135.999969 0)"/>
       <use xlink:href="#AppleGothic-37" transform="translate(203.999954 0)"/>
      </g>
     </g>
    </g>
    <g id="xtick_7">
     <g id="line2d_7">
      <g>
       <use xlink:href="#m1a72f37b9d" x="275.387038" y="303.5525" style="fill: #262626; stroke: #262626; stroke-width: 1.25"/>
      </g>
     </g>
     <g id="text_7">
      <!-- 1998 -->
      <g style="fill: #262626" transform="translate(267.188964 340.30771) rotate(-45) scale(0.11 -0.11)">
       <use xlink:href="#AppleGothic-31"/>
       <use xlink:href="#AppleGothic-39" transform="translate(67.999985 0)"/>
       <use xlink:href="#AppleGothic-39" transform="translate(135.999969 0)"/>
       <use xlink:href="#AppleGothic-38" transform="translate(203.999954 0)"/>
      </g>
     </g>
    </g>
    <g id="xtick_8">
     <g id="line2d_8">
      <g>
       <use xlink:href="#m1a72f37b9d" x="309.352255" y="303.5525" style="fill: #262626; stroke: #262626; stroke-width: 1.25"/>
      </g>
     </g>
     <g id="text_8">
      <!-- 1999 -->
      <g style="fill: #262626" transform="translate(301.154181 340.30771) rotate(-45) scale(0.11 -0.11)">
       <use xlink:href="#AppleGothic-31"/>
       <use xlink:href="#AppleGothic-39" transform="translate(67.999985 0)"/>
       <use xlink:href="#AppleGothic-39" transform="translate(135.999969 0)"/>
       <use xlink:href="#AppleGothic-39" transform="translate(203.999954 0)"/>
      </g>
     </g>
    </g>
    <g id="xtick_9">
     <g id="line2d_9">
      <g>
       <use xlink:href="#m1a72f37b9d" x="343.317473" y="303.5525" style="fill: #262626; stroke: #262626; stroke-width: 1.25"/>
      </g>
     </g>
     <g id="text_9">
      <!-- 2000 -->
      <g style="fill: #262626" transform="translate(335.119398 340.30771) rotate(-45) scale(0.11 -0.11)">
       <defs>
        <path id="AppleGothic-30" d="M 2227 -83 
Q 1414 -83 934 576 
Q 461 1229 461 2387 
Q 461 3552 973 4218 
Q 1453 4858 2221 4858 
Q 3027 4858 3482 4173 
Q 3955 3494 3955 2394 
Q 3955 1248 3462 582 
Q 2976 -83 2227 -83 
z
M 2176 346 
Q 2861 346 3200 992 
Q 3462 1536 3462 2400 
Q 3462 3315 3162 3859 
Q 2822 4429 2214 4429 
Q 1574 4429 1248 3821 
Q 960 3283 960 2374 
Q 960 1478 1248 941 
Q 1574 346 2176 346 
z
" transform="scale(0.015625)"/>
       </defs>
       <use xlink:href="#AppleGothic-32"/>
       <use xlink:href="#AppleGothic-30" transform="translate(67.999985 0)"/>
       <use xlink:href="#AppleGothic-30" transform="translate(135.999969 0)"/>
       <use xlink:href="#AppleGothic-30" transform="translate(203.999954 0)"/>
      </g>
     </g>
    </g>
    <g id="xtick_10">
     <g id="line2d_10">
      <g>
       <use xlink:href="#m1a72f37b9d" x="377.28269" y="303.5525" style="fill: #262626; stroke: #262626; stroke-width: 1.25"/>
      </g>
     </g>
     <g id="text_10">
      <!-- 2001 -->
      <g style="fill: #262626" transform="translate(369.084616 340.30771) rotate(-45) scale(0.11 -0.11)">
       <use xlink:href="#AppleGothic-32"/>
       <use xlink:href="#AppleGothic-30" transform="translate(67.999985 0)"/>
       <use xlink:href="#AppleGothic-30" transform="translate(135.999969 0)"/>
       <use xlink:href="#AppleGothic-31" transform="translate(203.999954 0)"/>
      </g>
     </g>
    </g>
    <g id="xtick_11">
     <g id="line2d_11">
      <g>
       <use xlink:href="#m1a72f37b9d" x="411.247908" y="303.5525" style="fill: #262626; stroke: #262626; stroke-width: 1.25"/>
      </g>
     </g>
     <g id="text_11">
      <!-- 2002 -->
      <g style="fill: #262626" transform="translate(403.049833 340.30771) rotate(-45) scale(0.11 -0.11)">
       <use xlink:href="#AppleGothic-32"/>
       <use xlink:href="#AppleGothic-30" transform="translate(67.999985 0)"/>
       <use xlink:href="#AppleGothic-30" transform="translate(135.999969 0)"/>
       <use xlink:href="#AppleGothic-32" transform="translate(203.999954 0)"/>
      </g>
     </g>
    </g>
    <g id="xtick_12">
     <g id="line2d_12">
      <g>
       <use xlink:href="#m1a72f37b9d" x="445.213125" y="303.5525" style="fill: #262626; stroke: #262626; stroke-width: 1.25"/>
      </g>
     </g>
     <g id="text_12">
      <!-- 2003 -->
      <g style="fill: #262626" transform="translate(437.015051 340.30771) rotate(-45) scale(0.11 -0.11)">
       <defs>
        <path id="AppleGothic-33" d="M 550 333 
L 550 870 
Q 883 621 1235 483 
Q 1587 346 1971 346 
Q 2522 346 2861 666 
Q 3219 992 3219 1421 
Q 3219 1869 2842 2099 
Q 2515 2304 1965 2304 
L 992 2304 
L 992 2701 
L 1658 2701 
Q 2298 2701 2662 2928 
Q 3027 3155 3027 3584 
Q 3027 3936 2752 4173 
Q 2458 4429 1978 4429 
Q 1786 4429 1597 4393 
Q 1408 4358 1222 4282 
Q 890 4141 531 3872 
L 531 4422 
Q 736 4531 912 4608 
Q 1088 4685 1254 4736 
Q 1626 4858 2022 4858 
Q 2650 4858 3066 4531 
Q 3488 4211 3488 3642 
Q 3488 3168 3168 2861 
Q 2976 2675 2643 2554 
Q 2874 2522 3053 2448 
Q 3232 2374 3366 2266 
Q 3718 1971 3718 1434 
Q 3718 813 3219 365 
Q 2714 -83 1965 -83 
Q 1549 -83 1126 70 
Q 1024 102 880 166 
Q 736 230 550 333 
z
" transform="scale(0.015625)"/>
       </defs>
       <use xlink:href="#AppleGothic-32"/>
       <use xlink:href="#AppleGothic-30" transform="translate(67.999985 0)"/>
       <use xlink:href="#AppleGothic-30" transform="translate(135.999969 0)"/>
       <use xlink:href="#AppleGothic-33" transform="translate(203.999954 0)"/>
      </g>
     </g>
    </g>
    <g id="xtick_13">
     <g id="line2d_13">
      <g>
       <use xlink:href="#m1a72f37b9d" x="479.178342" y="303.5525" style="fill: #262626; stroke: #262626; stroke-width: 1.25"/>
      </g>
     </g>
     <g id="text_13">
      <!-- 2004 -->
      <g style="fill: #262626" transform="translate(470.980268 340.30771) rotate(-45) scale(0.11 -0.11)">
       <use xlink:href="#AppleGothic-32"/>
       <use xlink:href="#AppleGothic-30" transform="translate(67.999985 0)"/>
       <use xlink:href="#AppleGothic-30" transform="translate(135.999969 0)"/>
       <use xlink:href="#AppleGothic-34" transform="translate(203.999954 0)"/>
      </g>
     </g>
    </g>
    <g id="xtick_14">
     <g id="line2d_14">
      <g>
       <use xlink:href="#m1a72f37b9d" x="513.14356" y="303.5525" style="fill: #262626; stroke: #262626; stroke-width: 1.25"/>
      </g>
     </g>
     <g id="text_14">
      <!-- 2005 -->
      <g style="fill: #262626" transform="translate(504.945485 340.30771) rotate(-45) scale(0.11 -0.11)">
       <use xlink:href="#AppleGothic-32"/>
       <use xlink:href="#AppleGothic-30" transform="translate(67.999985 0)"/>
       <use xlink:href="#AppleGothic-30" transform="translate(135.999969 0)"/>
       <use xlink:href="#AppleGothic-35" transform="translate(203.999954 0)"/>
      </g>
     </g>
    </g>
    <g id="xtick_15">
     <g id="line2d_15">
      <g>
       <use xlink:href="#m1a72f37b9d" x="547.108777" y="303.5525" style="fill: #262626; stroke: #262626; stroke-width: 1.25"/>
      </g>
     </g>
     <g id="text_15">
      <!-- 2006 -->
      <g style="fill: #262626" transform="translate(538.910703 340.30771) rotate(-45) scale(0.11 -0.11)">
       <use xlink:href="#AppleGothic-32"/>
       <use xlink:href="#AppleGothic-30" transform="translate(67.999985 0)"/>
       <use xlink:href="#AppleGothic-30" transform="translate(135.999969 0)"/>
       <use xlink:href="#AppleGothic-36" transform="translate(203.999954 0)"/>
      </g>
     </g>
    </g>
    <g id="xtick_16">
     <g id="line2d_16">
      <g>
       <use xlink:href="#m1a72f37b9d" x="581.073995" y="303.5525" style="fill: #262626; stroke: #262626; stroke-width: 1.25"/>
      </g>
     </g>
     <g id="text_16">
      <!-- 2007 -->
      <g style="fill: #262626" transform="translate(572.87592 340.30771) rotate(-45) scale(0.11 -0.11)">
       <use xlink:href="#AppleGothic-32"/>
       <use xlink:href="#AppleGothic-30" transform="translate(67.999985 0)"/>
       <use xlink:href="#AppleGothic-30" transform="translate(135.999969 0)"/>
       <use xlink:href="#AppleGothic-37" transform="translate(203.999954 0)"/>
      </g>
     </g>
    </g>
    <g id="xtick_17">
     <g id="line2d_17">
      <g>
       <use xlink:href="#m1a72f37b9d" x="615.039212" y="303.5525" style="fill: #262626; stroke: #262626; stroke-width: 1.25"/>
      </g>
     </g>
     <g id="text_17">
      <!-- 2008 -->
      <g style="fill: #262626" transform="translate(606.841137 340.30771) rotate(-45) scale(0.11 -0.11)">
       <use xlink:href="#AppleGothic-32"/>
       <use xlink:href="#AppleGothic-30" transform="translate(67.999985 0)"/>
       <use xlink:href="#AppleGothic-30" transform="translate(135.999969 0)"/>
       <use xlink:href="#AppleGothic-38" transform="translate(203.999954 0)"/>
      </g>
     </g>
    </g>
    <g id="xtick_18">
     <g id="line2d_18">
      <g>
       <use xlink:href="#m1a72f37b9d" x="649.004429" y="303.5525" style="fill: #262626; stroke: #262626; stroke-width: 1.25"/>
      </g>
     </g>
     <g id="text_18">
      <!-- 2009 -->
      <g style="fill: #262626" transform="translate(640.806355 340.30771) rotate(-45) scale(0.11 -0.11)">
       <use xlink:href="#AppleGothic-32"/>
       <use xlink:href="#AppleGothic-30" transform="translate(67.999985 0)"/>
       <use xlink:href="#AppleGothic-30" transform="translate(135.999969 0)"/>
       <use xlink:href="#AppleGothic-39" transform="translate(203.999954 0)"/>
      </g>
     </g>
    </g>
    <g id="xtick_19">
     <g id="line2d_19">
      <g>
       <use xlink:href="#m1a72f37b9d" x="682.969647" y="303.5525" style="fill: #262626; stroke: #262626; stroke-width: 1.25"/>
      </g>
     </g>
     <g id="text_19">
      <!-- 2010 -->
      <g style="fill: #262626" transform="translate(674.771572 340.30771) rotate(-45) scale(0.11 -0.11)">
       <use xlink:href="#AppleGothic-32"/>
       <use xlink:href="#AppleGothic-30" transform="translate(67.999985 0)"/>
       <use xlink:href="#AppleGothic-31" transform="translate(135.999969 0)"/>
       <use xlink:href="#AppleGothic-30" transform="translate(203.999954 0)"/>
      </g>
     </g>
    </g>
    <g id="xtick_20">
     <g id="line2d_20">
      <g>
       <use xlink:href="#m1a72f37b9d" x="716.934864" y="303.5525" style="fill: #262626; stroke: #262626; stroke-width: 1.25"/>
      </g>
     </g>
     <g id="text_20">
      <!-- 2011 -->
      <g style="fill: #262626" transform="translate(708.73679 340.30771) rotate(-45) scale(0.11 -0.11)">
       <use xlink:href="#AppleGothic-32"/>
       <use xlink:href="#AppleGothic-30" transform="translate(67.999985 0)"/>
       <use xlink:href="#AppleGothic-31" transform="translate(135.999969 0)"/>
       <use xlink:href="#AppleGothic-31" transform="translate(203.999954 0)"/>
      </g>
     </g>
    </g>
    <g id="xtick_21">
     <g id="line2d_21">
      <g>
       <use xlink:href="#m1a72f37b9d" x="750.900082" y="303.5525" style="fill: #262626; stroke: #262626; stroke-width: 1.25"/>
      </g>
     </g>
     <g id="text_21">
      <!-- 2012 -->
      <g style="fill: #262626" transform="translate(742.702007 340.30771) rotate(-45) scale(0.11 -0.11)">
       <use xlink:href="#AppleGothic-32"/>
       <use xlink:href="#AppleGothic-30" transform="translate(67.999985 0)"/>
       <use xlink:href="#AppleGothic-31" transform="translate(135.999969 0)"/>
       <use xlink:href="#AppleGothic-32" transform="translate(203.999954 0)"/>
      </g>
     </g>
    </g>
    <g id="xtick_22">
     <g id="line2d_22">
      <g>
       <use xlink:href="#m1a72f37b9d" x="784.865299" y="303.5525" style="fill: #262626; stroke: #262626; stroke-width: 1.25"/>
      </g>
     </g>
     <g id="text_22">
      <!-- 2013 -->
      <g style="fill: #262626" transform="translate(776.667224 340.30771) rotate(-45) scale(0.11 -0.11)">
       <use xlink:href="#AppleGothic-32"/>
       <use xlink:href="#AppleGothic-30" transform="translate(67.999985 0)"/>
       <use xlink:href="#AppleGothic-31" transform="translate(135.999969 0)"/>
       <use xlink:href="#AppleGothic-33" transform="translate(203.999954 0)"/>
      </g>
     </g>
    </g>
    <g id="xtick_23">
     <g id="line2d_23">
      <g>
       <use xlink:href="#m1a72f37b9d" x="818.830516" y="303.5525" style="fill: #262626; stroke: #262626; stroke-width: 1.25"/>
      </g>
     </g>
     <g id="text_23">
      <!-- 2014 -->
      <g style="fill: #262626" transform="translate(810.632442 340.30771) rotate(-45) scale(0.11 -0.11)">
       <use xlink:href="#AppleGothic-32"/>
       <use xlink:href="#AppleGothic-30" transform="translate(67.999985 0)"/>
       <use xlink:href="#AppleGothic-31" transform="translate(135.999969 0)"/>
       <use xlink:href="#AppleGothic-34" transform="translate(203.999954 0)"/>
      </g>
     </g>
    </g>
    <g id="text_24">
     <!-- 발견 연도 -->
     <g style="fill: #262626" transform="translate(419.293125 355.054549) scale(0.12 -0.12)">
      <defs>
       <path id="AppleGothic-bc1c" d="M 2867 2784 
L 2867 3667 
L 1120 3667 
L 1120 2784 
L 2029 2771 
L 2867 2784 
z
M 5267 -352 
L 2938 -339 
L 2003 -339 
Q 1658 -352 1331 -358 
L 1344 256 
L 1331 915 
L 4646 902 
L 4646 1459 
L 3130 1459 
Q 2682 1459 2198 1446 
Q 1715 1434 1312 1421 
L 1312 1805 
Q 1427 1805 1667 1801 
Q 1907 1798 2291 1792 
Q 2675 1786 2883 1786 
Q 3091 1786 3130 1786 
L 5114 1805 
L 5107 1261 
L 5120 570 
L 1773 570 
L 1773 0 
L 3200 6 
Q 3718 6 4265 19 
Q 4813 32 5267 45 
L 5267 -352 
z
M 3360 4710 
Q 3360 4678 3341 4592 
Q 3322 4506 3322 4467 
L 3309 3507 
L 3322 2387 
L 672 2387 
Q 678 2490 678 2637 
Q 678 2784 685 2976 
Q 691 3174 691 3328 
Q 691 3482 691 3590 
Q 691 4051 681 4339 
Q 672 4627 659 4819 
L 858 4826 
Q 986 4826 1082 4803 
Q 1178 4781 1178 4723 
Q 1178 4678 1149 4595 
Q 1120 4512 1120 4480 
L 1120 4026 
L 1862 4019 
L 2874 4032 
L 2874 4339 
L 2848 4819 
L 3059 4826 
Q 3194 4826 3277 4803 
Q 3360 4781 3360 4710 
z
M 6022 3110 
L 5126 3117 
L 5158 2125 
L 4666 2106 
L 4691 3878 
Q 4691 4198 4688 4422 
Q 4685 4646 4678 4794 
Q 4672 4941 4669 5056 
Q 4666 5171 4659 5254 
L 4781 5254 
Q 4947 5254 5065 5228 
Q 5184 5203 5184 5133 
Q 5184 5094 5155 5008 
Q 5126 4922 5126 4890 
L 5126 3494 
L 6022 3520 
L 6022 3110 
z
" transform="scale(0.015625)"/>
       <path id="AppleGothic-acac" d="M 5485 -352 
Q 5050 -352 4682 -352 
Q 4314 -352 4006 -358 
Q 3699 -365 3328 -368 
Q 2957 -371 2522 -378 
Q 2080 -384 1776 -387 
Q 1472 -390 1299 -390 
L 1306 954 
Q 1306 1062 1306 1129 
Q 1306 1197 1302 1235 
Q 1299 1274 1296 1296 
Q 1293 1318 1286 1344 
L 1446 1350 
Q 1594 1350 1683 1328 
Q 1773 1306 1773 1242 
Q 1773 1216 1753 1129 
Q 1734 1043 1734 986 
L 1734 -26 
L 5485 13 
L 5485 -352 
z
M 5395 5107 
Q 5395 5056 5389 5037 
Q 5376 4966 5366 4918 
Q 5357 4870 5357 4838 
L 5357 781 
L 4934 749 
L 4928 2157 
Q 4621 2157 4141 2138 
Q 3910 2131 3772 2128 
Q 3635 2125 3603 2125 
L 3603 2490 
L 4928 2496 
L 4928 3475 
L 4333 3462 
L 3590 3475 
L 3590 3821 
L 4269 3808 
L 4928 3814 
L 4922 5178 
L 5274 5171 
Q 5395 5171 5395 5107 
z
M 3571 4794 
Q 3558 4704 3548 4617 
Q 3539 4531 3526 4442 
Q 3482 4218 3408 4010 
Q 3334 3802 3238 3603 
Q 2957 3027 2477 2573 
Q 2291 2400 2080 2243 
Q 1869 2086 1638 1952 
Q 1478 1856 1302 1769 
Q 1126 1683 934 1600 
Q 653 1485 640 1485 
Q 627 1510 621 1517 
Q 595 1562 563 1600 
Q 531 1638 499 1677 
Q 480 1702 416 1750 
Q 352 1798 352 1818 
L 371 1837 
Q 397 1837 457 1856 
Q 518 1875 627 1907 
Q 781 1958 941 2022 
Q 1101 2086 1267 2176 
Q 1478 2285 1676 2416 
Q 1875 2547 2061 2694 
Q 2458 3014 2739 3482 
Q 2931 3795 3046 4166 
Q 3059 4237 3078 4313 
Q 3098 4390 3117 4461 
L 2029 4454 
Q 1606 4454 1267 4448 
Q 928 4442 608 4422 
L 608 4800 
Q 659 4794 748 4794 
Q 838 4794 954 4787 
Q 1075 4781 1180 4781 
Q 1286 4781 1382 4781 
L 2854 4800 
L 3571 4794 
z
" transform="scale(0.015625)"/>
       <path id="AppleGothic-20" transform="scale(0.015625)"/>
       <path id="AppleGothic-c5f0" d="M 3200 3149 
Q 3200 3571 2912 3872 
Q 2630 4173 2170 4173 
Q 1715 4173 1434 3930 
Q 1101 3661 1101 3149 
Q 1101 2816 1331 2547 
Q 1619 2214 2170 2214 
Q 2618 2214 2899 2477 
Q 3200 2746 3200 3149 
z
M 5485 -352 
L 3629 -339 
L 1530 -346 
Q 1536 -282 1536 -186 
Q 1536 -90 1542 38 
Q 1549 173 1549 297 
Q 1549 422 1549 538 
L 1549 1274 
Q 1600 1274 1673 1264 
Q 1747 1254 1843 1242 
Q 2035 1216 2035 1165 
Q 2035 1152 2012 1081 
Q 1990 1011 1990 941 
L 1990 45 
L 3622 38 
L 4845 38 
Q 5018 45 5178 48 
Q 5338 51 5485 58 
L 5485 -352 
z
M 5408 5075 
Q 5408 5050 5382 4970 
Q 5357 4890 5357 4838 
L 5382 896 
L 4922 864 
L 4928 2163 
L 4422 2176 
L 3834 2157 
L 3834 2528 
L 4410 2515 
Q 4659 2515 4755 2518 
Q 4851 2522 4928 2534 
L 4928 3565 
L 4403 3578 
L 3840 3558 
L 3840 3942 
Q 3891 3936 3961 3936 
Q 4032 3936 4134 3930 
Q 4230 3923 4300 3923 
Q 4371 3923 4416 3923 
Q 4646 3923 4745 3926 
Q 4845 3930 4934 3942 
L 4915 5190 
Q 5133 5190 5270 5174 
Q 5408 5158 5408 5075 
z
M 3616 3142 
Q 3616 2515 3136 2144 
Q 2720 1824 2176 1824 
Q 1530 1824 1101 2195 
Q 678 2566 678 3142 
Q 678 3680 1050 4083 
Q 1472 4531 2170 4531 
Q 2797 4531 3206 4154 
Q 3616 3782 3616 3142 
z
" transform="scale(0.015625)"/>
       <path id="AppleGothic-b3c4" d="M 6061 -38 
L 3181 -6 
L 2938 -6 
Q 2560 -6 2269 -6 
Q 1978 -6 1766 -13 
Q 1562 -19 1360 -19 
Q 1158 -19 954 -26 
Q 557 -32 352 -45 
L 352 416 
L 1549 397 
L 2963 403 
L 2982 1139 
L 2970 2035 
L 3066 2035 
Q 3238 2035 3369 2012 
Q 3501 1990 3501 1920 
Q 3501 1901 3478 1821 
Q 3456 1741 3456 1709 
Q 3424 1658 3424 1030 
Q 3424 800 3443 531 
Q 3443 506 3446 474 
Q 3450 442 3456 403 
L 4608 397 
Q 4960 397 5347 400 
Q 5734 403 6061 416 
L 6061 -38 
z
M 5299 2202 
L 3744 2208 
L 1146 2195 
L 1165 3379 
L 1152 4640 
Q 1293 4634 1408 4634 
Q 1523 4634 1619 4634 
Q 2266 4621 2701 4614 
Q 3136 4608 3360 4608 
L 5248 4621 
L 5248 4205 
L 3354 4218 
L 1632 4211 
L 1613 3424 
L 1626 2598 
Q 2029 2586 2512 2579 
Q 2995 2573 3443 2573 
Q 3648 2573 3875 2573 
Q 4102 2573 4358 2579 
Q 4858 2586 5299 2598 
L 5299 2202 
z
" transform="scale(0.015625)"/>
      </defs>
      <use xlink:href="#AppleGothic-bc1c"/>
      <use xlink:href="#AppleGothic-acac" transform="translate(99.999985 0)"/>
      <use xlink:href="#AppleGothic-20" transform="translate(199.999969 0)"/>
      <use xlink:href="#AppleGothic-c5f0" transform="translate(231.999954 0)"/>
      <use xlink:href="#AppleGothic-b3c4" transform="translate(331.999939 0)"/>
     </g>
    </g>
   </g>
   <g id="matplotlib.axis_2">
    <g id="ytick_1">
     <g id="line2d_24">
      <defs>
       <path id="meab03eae52" d="M 0 0 
L -6 0 
" style="stroke: #262626; stroke-width: 1.25"/>
      </defs>
      <g>
       <use xlink:href="#meab03eae52" x="54.613125" y="303.5525" style="fill: #262626; stroke: #262626; stroke-width: 1.25"/>
      </g>
     </g>
     <g id="text_25">
      <!-- 0 -->
      <g style="fill: #262626" transform="translate(37.633125 307.864844) scale(0.11 -0.11)">
       <use xlink:href="#AppleGothic-30"/>
      </g>
     </g>
    </g>
    <g id="ytick_2">
     <g id="line2d_25">
      <g>
       <use xlink:href="#meab03eae52" x="54.613125" y="267.876824" style="fill: #262626; stroke: #262626; stroke-width: 1.25"/>
      </g>
     </g>
     <g id="text_26">
      <!-- 25 -->
      <g style="fill: #262626" transform="translate(30.153125 272.189168) scale(0.11 -0.11)">
       <use xlink:href="#AppleGothic-32"/>
       <use xlink:href="#AppleGothic-35" transform="translate(67.999985 0)"/>
      </g>
     </g>
    </g>
    <g id="ytick_3">
     <g id="line2d_26">
      <g>
       <use xlink:href="#meab03eae52" x="54.613125" y="232.201149" style="fill: #262626; stroke: #262626; stroke-width: 1.25"/>
      </g>
     </g>
     <g id="text_27">
      <!-- 50 -->
      <g style="fill: #262626" transform="translate(30.153125 236.513492) scale(0.11 -0.11)">
       <use xlink:href="#AppleGothic-35"/>
       <use xlink:href="#AppleGothic-30" transform="translate(67.999985 0)"/>
      </g>
     </g>
    </g>
    <g id="ytick_4">
     <g id="line2d_27">
      <g>
       <use xlink:href="#meab03eae52" x="54.613125" y="196.525473" style="fill: #262626; stroke: #262626; stroke-width: 1.25"/>
      </g>
     </g>
     <g id="text_28">
      <!-- 75 -->
      <g style="fill: #262626" transform="translate(30.153125 200.837817) scale(0.11 -0.11)">
       <use xlink:href="#AppleGothic-37"/>
       <use xlink:href="#AppleGothic-35" transform="translate(67.999985 0)"/>
      </g>
     </g>
    </g>
    <g id="ytick_5">
     <g id="line2d_28">
      <g>
       <use xlink:href="#meab03eae52" x="54.613125" y="160.849797" style="fill: #262626; stroke: #262626; stroke-width: 1.25"/>
      </g>
     </g>
     <g id="text_29">
      <!-- 100 -->
      <g style="fill: #262626" transform="translate(22.673125 165.162141) scale(0.11 -0.11)">
       <use xlink:href="#AppleGothic-31"/>
       <use xlink:href="#AppleGothic-30" transform="translate(67.999985 0)"/>
       <use xlink:href="#AppleGothic-30" transform="translate(135.999969 0)"/>
      </g>
     </g>
    </g>
    <g id="ytick_6">
     <g id="line2d_29">
      <g>
       <use xlink:href="#meab03eae52" x="54.613125" y="125.174122" style="fill: #262626; stroke: #262626; stroke-width: 1.25"/>
      </g>
     </g>
     <g id="text_30">
      <!-- 125 -->
      <g style="fill: #262626" transform="translate(22.673125 129.486465) scale(0.11 -0.11)">
       <use xlink:href="#AppleGothic-31"/>
       <use xlink:href="#AppleGothic-32" transform="translate(67.999985 0)"/>
       <use xlink:href="#AppleGothic-35" transform="translate(135.999969 0)"/>
      </g>
     </g>
    </g>
    <g id="ytick_7">
     <g id="line2d_30">
      <g>
       <use xlink:href="#meab03eae52" x="54.613125" y="89.498446" style="fill: #262626; stroke: #262626; stroke-width: 1.25"/>
      </g>
     </g>
     <g id="text_31">
      <!-- 150 -->
      <g style="fill: #262626" transform="translate(22.673125 93.81079) scale(0.11 -0.11)">
       <use xlink:href="#AppleGothic-31"/>
       <use xlink:href="#AppleGothic-35" transform="translate(67.999985 0)"/>
       <use xlink:href="#AppleGothic-30" transform="translate(135.999969 0)"/>
      </g>
     </g>
    </g>
    <g id="ytick_8">
     <g id="line2d_31">
      <g>
       <use xlink:href="#meab03eae52" x="54.613125" y="53.82277" style="fill: #262626; stroke: #262626; stroke-width: 1.25"/>
      </g>
     </g>
     <g id="text_32">
      <!-- 175 -->
      <g style="fill: #262626" transform="translate(22.673125 58.135114) scale(0.11 -0.11)">
       <use xlink:href="#AppleGothic-31"/>
       <use xlink:href="#AppleGothic-37" transform="translate(67.999985 0)"/>
       <use xlink:href="#AppleGothic-35" transform="translate(135.999969 0)"/>
      </g>
     </g>
    </g>
    <g id="text_33">
     <!-- 발견된 행성 수 (Count) -->
     <g style="fill: #262626" transform="translate(16.60875 229.056875) rotate(-90) scale(0.12 -0.12)">
      <defs>
       <path id="AppleGothic-b41c" d="M 5568 -365 
Q 5459 -358 5257 -358 
Q 5056 -358 4768 -352 
Q 4480 -346 4182 -346 
Q 3885 -346 3558 -346 
L 1517 -358 
L 1530 390 
L 1510 1171 
Q 1734 1171 1884 1155 
Q 2035 1139 2035 1075 
Q 2035 1069 2016 1005 
Q 1997 941 1997 909 
L 1978 422 
Q 1978 320 1978 259 
Q 1978 198 1981 160 
Q 1984 122 1987 96 
Q 1990 70 1997 45 
L 3629 45 
Q 4019 45 4323 48 
Q 4627 51 4851 58 
Q 5075 64 5251 70 
Q 5427 77 5568 83 
L 5568 -365 
z
M 5427 5030 
Q 5427 4998 5414 4931 
Q 5402 4864 5402 4826 
L 5389 3366 
L 5402 704 
L 4922 678 
Q 4928 966 4931 1273 
Q 4934 1581 4941 1914 
Q 4947 2240 4950 2512 
Q 4954 2784 4954 2995 
Q 4954 4115 4934 4531 
Q 4934 4736 4928 4899 
Q 4922 5062 4915 5184 
L 4998 5184 
Q 5184 5184 5305 5155 
Q 5427 5126 5427 5030 
z
M 4576 1824 
L 2822 1728 
L 870 1638 
L 646 1606 
Q 563 1606 512 1754 
Q 467 1907 467 2035 
L 1376 2022 
Q 1709 2022 1929 2028 
Q 2150 2035 2355 2054 
L 2374 2509 
L 2355 3040 
L 1018 3053 
L 1030 3840 
L 1018 4723 
L 2522 4710 
L 4058 4723 
L 4058 4339 
L 3770 4339 
Q 2714 4358 2643 4358 
L 1478 4352 
L 1466 3821 
L 1478 3386 
L 2816 3379 
L 4147 3392 
L 4147 3021 
L 3411 3034 
L 2790 3034 
L 2778 2528 
L 2790 2074 
Q 2893 2080 2973 2083 
Q 3053 2086 3110 2086 
Q 3590 2106 3699 2106 
L 4563 2170 
L 4576 1824 
z
" transform="scale(0.015625)"/>
       <path id="AppleGothic-d589" d="M 5190 435 
Q 5190 710 4755 877 
Q 4333 1030 3680 1030 
Q 3341 1030 3065 992 
Q 2790 954 2592 880 
Q 2394 806 2285 694 
Q 2176 582 2176 435 
Q 2176 288 2285 176 
Q 2394 64 2589 -9 
Q 2784 -83 3062 -118 
Q 3341 -154 3680 -154 
Q 3949 -154 4163 -138 
Q 4378 -122 4544 -83 
Q 5190 64 5190 435 
z
M 2976 2624 
Q 2976 2995 2656 3130 
Q 2470 3206 2170 3206 
Q 1325 3206 1325 2624 
Q 1325 2067 2163 2067 
Q 2470 2067 2650 2138 
Q 2976 2272 2976 2624 
z
M 5670 429 
Q 5670 -32 5114 -294 
Q 4550 -557 3680 -557 
Q 3072 -557 2560 -410 
Q 1702 -160 1702 429 
Q 1702 890 2253 1158 
Q 2810 1421 3680 1421 
Q 4307 1421 4794 1280 
Q 5670 1037 5670 429 
z
M 3373 2624 
Q 3373 2163 3046 1936 
Q 2720 1709 2170 1709 
Q 1613 1709 1286 1933 
Q 928 2170 928 2618 
Q 928 3104 1270 3344 
Q 1613 3584 2170 3584 
Q 2714 3584 3043 3344 
Q 3373 3104 3373 2624 
z
M 5670 5075 
Q 5670 5043 5651 4985 
Q 5632 4928 5632 4909 
L 5632 1402 
L 5178 1376 
L 5197 2893 
L 4403 2893 
L 4416 1562 
L 3962 1536 
L 3981 3891 
Q 3981 4198 3981 4400 
Q 3981 4602 3974 4698 
Q 3974 4800 3971 4886 
Q 3968 4973 3962 5050 
L 4134 5056 
Q 4282 5056 4365 5037 
Q 4448 5018 4448 4947 
Q 4448 4928 4429 4857 
Q 4410 4787 4410 4736 
L 4403 3290 
L 5197 3290 
L 5197 4269 
L 5171 5190 
L 5235 5190 
Q 5427 5190 5548 5171 
Q 5670 5152 5670 5075 
z
M 3546 3782 
L 2150 3814 
L 608 3795 
L 602 4179 
Q 774 4173 963 4166 
Q 1152 4160 1357 4154 
Q 1568 4147 1728 4147 
Q 1888 4147 1997 4147 
L 2157 4147 
Q 2445 4147 2662 4147 
Q 2880 4147 3027 4154 
Q 3174 4160 3302 4163 
Q 3430 4166 3546 4179 
L 3546 3782 
z
M 2880 4448 
L 2170 4467 
L 1370 4448 
L 1370 4838 
Q 1402 4838 1491 4835 
Q 1581 4832 1734 4826 
Q 1882 4819 1994 4816 
Q 2106 4813 2176 4813 
Q 2349 4813 2537 4819 
Q 2726 4826 2880 4838 
L 2880 4448 
z
" transform="scale(0.015625)"/>
       <path id="AppleGothic-c131" d="M 5459 486 
Q 5459 -38 4838 -269 
Q 4294 -474 3347 -474 
Q 2445 -474 1907 -262 
Q 1293 -26 1293 442 
Q 1293 1030 1946 1280 
Q 2189 1382 2544 1427 
Q 2899 1472 3354 1472 
Q 3795 1472 4147 1427 
Q 4499 1382 4768 1280 
Q 5459 1024 5459 486 
z
M 5446 5082 
Q 5446 5062 5420 4992 
Q 5395 4922 5395 4870 
L 5382 3981 
L 5395 1664 
L 4922 1587 
L 4922 3315 
L 4333 3334 
L 3725 3315 
L 3725 3706 
L 4352 3686 
L 4928 3706 
L 4915 5190 
L 5094 5197 
Q 5242 5197 5344 5174 
Q 5446 5152 5446 5082 
z
M 3962 2381 
Q 3949 2362 3930 2342 
Q 3898 2310 3878 2284 
Q 3859 2259 3834 2240 
L 3661 2035 
Q 3558 2106 3475 2163 
Q 3392 2221 3334 2266 
Q 3136 2413 2989 2557 
Q 2842 2701 2733 2838 
Q 2624 2976 2541 3113 
Q 2458 3251 2394 3386 
Q 2349 3482 2304 3603 
Q 2285 3565 2269 3533 
Q 2253 3501 2240 3469 
Q 2042 3117 1690 2707 
Q 1568 2573 1421 2425 
Q 1274 2278 1094 2125 
Q 1030 2074 953 2010 
Q 877 1946 768 1862 
L 557 2035 
Q 525 2067 461 2105 
Q 397 2144 397 2163 
Q 403 2189 410 2195 
Q 474 2234 528 2262 
Q 582 2291 627 2323 
Q 883 2502 1123 2736 
Q 1363 2970 1587 3258 
Q 1856 3610 2009 4048 
Q 2163 4486 2163 4928 
L 2202 4928 
Q 2387 4928 2534 4909 
Q 2682 4890 2682 4826 
Q 2682 4774 2637 4723 
Q 2630 4710 2592 4672 
Q 2579 4634 2576 4605 
Q 2573 4576 2566 4550 
Q 2541 4422 2541 4333 
Q 2541 4250 2563 4147 
Q 2586 4045 2630 3910 
Q 2758 3539 3001 3193 
Q 3245 2848 3610 2605 
Q 3674 2560 3754 2518 
Q 3834 2477 3930 2426 
L 3962 2381 
z
M 4979 474 
Q 4979 826 4474 979 
Q 4058 1114 3354 1114 
Q 2624 1114 2266 992 
Q 1773 838 1773 448 
Q 1850 -102 3366 -102 
Q 4154 -102 4525 19 
Q 4979 160 4979 474 
z
" transform="scale(0.015625)"/>
       <path id="AppleGothic-c218" d="M 6022 1952 
L 3411 1952 
L 3424 896 
L 3462 -582 
L 2982 -582 
L 2982 1952 
Q 2912 1952 2774 1949 
Q 2637 1946 2419 1939 
Q 2208 1933 2086 1933 
Q 1965 1933 1933 1933 
L 378 1894 
L 378 2304 
L 3206 2298 
Q 3706 2298 4202 2307 
Q 4698 2317 5184 2330 
Q 5536 2342 6022 2368 
L 6022 1952 
z
M 5792 3482 
Q 5792 3450 5747 3402 
Q 5702 3354 5658 3315 
L 5523 3117 
Q 5453 3123 5395 3126 
Q 5338 3130 5286 3142 
Q 4685 3251 4090 3610 
Q 3699 3846 3411 4250 
Q 3360 4320 3312 4409 
Q 3264 4499 3206 4621 
Q 3149 4512 3097 4422 
Q 3046 4333 2995 4262 
Q 2688 3846 2208 3552 
Q 2054 3450 1875 3370 
Q 1696 3290 1498 3219 
Q 1382 3181 1232 3142 
Q 1082 3104 896 3072 
Q 896 3072 873 3101 
Q 851 3130 828 3162 
Q 806 3194 780 3226 
Q 755 3258 749 3270 
Q 736 3290 678 3347 
Q 621 3405 621 3424 
L 640 3443 
Q 730 3450 810 3453 
Q 890 3456 954 3469 
Q 1338 3526 1674 3676 
Q 2010 3827 2298 4077 
Q 2605 4326 2790 4659 
Q 2842 4755 2886 4880 
Q 2931 5005 2970 5171 
L 3411 5133 
Q 3475 5133 3475 5075 
Q 3475 5056 3472 5037 
Q 3469 5018 3462 4992 
Q 3462 4973 3443 4947 
Q 3482 4832 3520 4755 
Q 3738 4301 4230 3974 
Q 4659 3686 5261 3571 
Q 5363 3552 5488 3536 
Q 5613 3520 5766 3507 
Q 5786 3507 5792 3482 
z
" transform="scale(0.015625)"/>
       <path id="AppleGothic-28" d="M 2227 5261 
L 2650 5261 
Q 2342 4768 2169 4473 
Q 1997 4179 1958 4083 
Q 1606 3283 1606 2272 
Q 1606 1587 1754 1018 
Q 1882 570 2138 102 
Q 2150 70 2275 -131 
Q 2400 -333 2630 -717 
L 2227 -717 
Q 2099 -531 1980 -355 
Q 1862 -179 1734 0 
Q 1581 243 1469 483 
Q 1357 723 1274 954 
Q 1069 1587 1069 2272 
Q 1069 2963 1261 3558 
Q 1338 3789 1450 4022 
Q 1562 4256 1715 4499 
Q 1843 4691 1971 4880 
Q 2099 5069 2227 5261 
z
" transform="scale(0.015625)"/>
       <path id="AppleGothic-43" d="M 4109 4621 
L 4109 3974 
Q 3872 4205 3565 4371 
Q 3085 4627 2598 4627 
Q 1850 4627 1312 3994 
Q 1043 3680 912 3309 
Q 781 2938 781 2515 
Q 781 1651 1318 1030 
Q 1850 410 2611 410 
Q 2970 410 3344 554 
Q 3718 698 4109 998 
L 4109 378 
Q 3251 -83 2554 -83 
Q 1651 -83 973 614 
Q 243 1363 243 2490 
Q 243 3584 922 4339 
Q 1613 5101 2630 5101 
Q 3027 5101 3392 4979 
Q 3757 4858 4109 4621 
z
" transform="scale(0.015625)"/>
       <path id="AppleGothic-6f" d="M 1888 -83 
Q 1229 -83 730 397 
Q 198 902 198 1709 
Q 198 2470 666 2982 
Q 1146 3501 1850 3501 
Q 2547 3501 3027 2982 
Q 3501 2470 3501 1715 
Q 3501 922 2989 403 
Q 2515 -83 1888 -83 
z
M 1843 339 
Q 2304 339 2662 723 
Q 3008 1114 3008 1715 
Q 3008 2336 2637 2726 
Q 2298 3085 1850 3085 
Q 1389 3085 1062 2714 
Q 704 2304 704 1709 
Q 704 1107 1056 704 
Q 1382 339 1843 339 
z
" transform="scale(0.015625)"/>
       <path id="AppleGothic-75" d="M 262 3424 
L 730 3424 
L 730 1242 
Q 730 877 941 627 
Q 1171 339 1594 339 
Q 2080 339 2426 730 
Q 2784 1139 2784 1632 
L 2784 3424 
L 3245 3424 
L 3245 0 
L 2842 0 
L 2810 582 
Q 2707 442 2592 330 
Q 2477 218 2342 134 
Q 1984 -83 1555 -83 
Q 966 -83 614 282 
Q 262 653 262 1184 
L 262 3424 
z
" transform="scale(0.015625)"/>
       <path id="AppleGothic-6e" d="M 3264 2291 
L 3264 0 
L 2803 0 
L 2803 2259 
Q 2803 2618 2541 2848 
Q 2278 3085 1914 3085 
Q 1427 3085 1075 2682 
Q 723 2272 723 1760 
L 723 0 
L 288 0 
L 288 3424 
L 691 3424 
L 710 2784 
Q 883 3046 1114 3219 
Q 1491 3501 1965 3501 
Q 2515 3501 2886 3168 
Q 3264 2842 3264 2291 
z
" transform="scale(0.015625)"/>
       <path id="AppleGothic-74" d="M 691 4435 
L 1114 4435 
L 1114 3430 
L 2016 3430 
L 2016 3014 
L 1114 3014 
L 1114 838 
Q 1114 570 1213 454 
Q 1312 339 1555 339 
Q 1696 339 1795 371 
Q 1894 403 2016 454 
L 2016 38 
Q 1914 6 1770 -22 
Q 1626 -51 1478 -51 
Q 1094 -51 883 122 
Q 646 301 646 698 
L 646 3014 
L 70 3014 
L 70 3430 
L 646 3430 
L 691 4435 
z
" transform="scale(0.015625)"/>
       <path id="AppleGothic-29" d="M 2221 2272 
Q 2221 1587 2016 960 
Q 1862 499 1555 6 
Q 1427 -179 1305 -355 
Q 1184 -531 1062 -717 
L 659 -717 
Q 781 -512 902 -310 
Q 1024 -109 1152 96 
Q 1280 333 1376 557 
Q 1472 781 1530 1005 
Q 1683 1562 1683 2272 
Q 1683 2650 1641 2973 
Q 1600 3296 1517 3584 
Q 1459 3802 1356 4029 
Q 1254 4256 1120 4499 
Q 992 4691 873 4880 
Q 755 5069 640 5261 
L 1062 5261 
Q 1190 5069 1315 4880 
Q 1440 4691 1568 4506 
Q 1722 4256 1837 4022 
Q 1952 3789 2022 3565 
Q 2221 2976 2221 2272 
z
" transform="scale(0.015625)"/>
      </defs>
      <use xlink:href="#AppleGothic-bc1c"/>
      <use xlink:href="#AppleGothic-acac" transform="translate(99.999985 0)"/>
      <use xlink:href="#AppleGothic-b41c" transform="translate(199.999969 0)"/>
      <use xlink:href="#AppleGothic-20" transform="translate(299.999954 0)"/>
      <use xlink:href="#AppleGothic-d589" transform="translate(331.999939 0)"/>
      <use xlink:href="#AppleGothic-c131" transform="translate(431.999924 0)"/>
      <use xlink:href="#AppleGothic-20" transform="translate(531.999908 0)"/>
      <use xlink:href="#AppleGothic-c218" transform="translate(563.999893 0)"/>
      <use xlink:href="#AppleGothic-20" transform="translate(663.999878 0)"/>
      <use xlink:href="#AppleGothic-28" transform="translate(695.999863 0)"/>
      <use xlink:href="#AppleGothic-43" transform="translate(745.999847 0)"/>
      <use xlink:href="#AppleGothic-6f" transform="translate(814.499832 0)"/>
      <use xlink:href="#AppleGothic-75" transform="translate(872.79982 0)"/>
      <use xlink:href="#AppleGothic-6e" transform="translate(928.299805 0)"/>
      <use xlink:href="#AppleGothic-74" transform="translate(984.199799 0)"/>
      <use xlink:href="#AppleGothic-29" transform="translate(1018.399796 0)"/>
     </g>
    </g>
   </g>
   <g id="patch_3">
    <path d="M 58.009647 303.5525 
L 85.181821 303.5525 
L 85.181821 302.125473 
L 58.009647 302.125473 
z
" clip-path="url(#p530518308e)" style="fill: #441a58; stroke: #ffffff; stroke-linejoin: miter"/>
   </g>
   <g id="patch_4">
    <path d="M 91.974864 303.5525 
L 119.147038 303.5525 
L 119.147038 300.698446 
L 91.974864 300.698446 
z
" clip-path="url(#p530518308e)" style="fill: #482966; stroke: #ffffff; stroke-linejoin: miter"/>
   </g>
   <g id="patch_5">
    <path d="M 125.940082 303.5525 
L 153.112255 303.5525 
L 153.112255 302.125473 
L 125.940082 302.125473 
z
" clip-path="url(#p530518308e)" style="fill: #4a3771; stroke: #ffffff; stroke-linejoin: miter"/>
   </g>
   <g id="patch_6">
    <path d="M 159.905299 303.5525 
L 187.077473 303.5525 
L 187.077473 302.125473 
L 159.905299 302.125473 
z
" clip-path="url(#p530518308e)" style="fill: #4b4279; stroke: #ffffff; stroke-linejoin: miter"/>
   </g>
   <g id="patch_7">
    <path d="M 193.870516 303.5525 
L 221.04269 303.5525 
L 221.04269 294.990338 
L 193.870516 294.990338 
z
" clip-path="url(#p530518308e)" style="fill: #494d7f; stroke: #ffffff; stroke-linejoin: miter"/>
   </g>
   <g id="patch_8">
    <path d="M 227.835734 303.5525 
L 255.007908 303.5525 
L 255.007908 302.125473 
L 227.835734 302.125473 
z
" clip-path="url(#p530518308e)" style="fill: #455681; stroke: #ffffff; stroke-linejoin: miter"/>
   </g>
   <g id="patch_9">
    <path d="M 261.800951 303.5525 
L 288.973125 303.5525 
L 288.973125 296.417365 
L 261.800951 296.417365 
z
" clip-path="url(#p530518308e)" style="fill: #415e82; stroke: #ffffff; stroke-linejoin: miter"/>
   </g>
   <g id="patch_10">
    <path d="M 295.766168 303.5525 
L 322.938342 303.5525 
L 322.938342 282.147095 
L 295.766168 282.147095 
z
" clip-path="url(#p530518308e)" style="fill: #3c6682; stroke: #ffffff; stroke-linejoin: miter"/>
   </g>
   <g id="patch_11">
    <path d="M 329.731386 303.5525 
L 356.90356 303.5525 
L 356.90356 280.720068 
L 329.731386 280.720068 
z
" clip-path="url(#p530518308e)" style="fill: #386d82; stroke: #ffffff; stroke-linejoin: miter"/>
   </g>
   <g id="patch_12">
    <path d="M 363.696603 303.5525 
L 390.868777 303.5525 
L 390.868777 286.428176 
L 363.696603 286.428176 
z
" clip-path="url(#p530518308e)" style="fill: #357482; stroke: #ffffff; stroke-linejoin: miter"/>
   </g>
   <g id="patch_13">
    <path d="M 397.661821 303.5525 
L 424.833995 303.5525 
L 424.833995 257.887635 
L 397.661821 257.887635 
z
" clip-path="url(#p530518308e)" style="fill: #317b81; stroke: #ffffff; stroke-linejoin: miter"/>
   </g>
   <g id="patch_14">
    <path d="M 431.627038 303.5525 
L 458.799212 303.5525 
L 458.799212 267.876824 
L 431.627038 267.876824 
z
" clip-path="url(#p530518308e)" style="fill: #2f837f; stroke: #ffffff; stroke-linejoin: miter"/>
   </g>
   <g id="patch_15">
    <path d="M 465.592255 303.5525 
L 492.764429 303.5525 
L 492.764429 266.449797 
L 465.592255 266.449797 
z
" clip-path="url(#p530518308e)" style="fill: #2e8b7f; stroke: #ffffff; stroke-linejoin: miter"/>
   </g>
   <g id="patch_16">
    <path d="M 499.557473 303.5525 
L 526.729647 303.5525 
L 526.729647 247.898446 
L 499.557473 247.898446 
z
" clip-path="url(#p530518308e)" style="fill: #31947d; stroke: #ffffff; stroke-linejoin: miter"/>
   </g>
   <g id="patch_17">
    <path d="M 533.52269 303.5525 
L 560.694864 303.5525 
L 560.694864 259.314662 
L 533.52269 259.314662 
z
" clip-path="url(#p530518308e)" style="fill: #399e7b; stroke: #ffffff; stroke-linejoin: miter"/>
   </g>
   <g id="patch_18">
    <path d="M 567.487908 303.5525 
L 594.660082 303.5525 
L 594.660082 227.920068 
L 567.487908 227.920068 
z
" clip-path="url(#p530518308e)" style="fill: #45a778; stroke: #ffffff; stroke-linejoin: miter"/>
   </g>
   <g id="patch_19">
    <path d="M 601.453125 303.5525 
L 628.625299 303.5525 
L 628.625299 197.9525 
L 601.453125 197.9525 
z
" clip-path="url(#p530518308e)" style="fill: #57b174; stroke: #ffffff; stroke-linejoin: miter"/>
   </g>
   <g id="patch_20">
    <path d="M 635.418342 303.5525 
L 662.590516 303.5525 
L 662.590516 163.703851 
L 635.418342 163.703851 
z
" clip-path="url(#p530518308e)" style="fill: #6cbc6e; stroke: #ffffff; stroke-linejoin: miter"/>
   </g>
   <g id="patch_21">
    <path d="M 669.38356 303.5525 
L 696.555734 303.5525 
L 696.555734 157.995743 
L 669.38356 157.995743 
z
" clip-path="url(#p530518308e)" style="fill: #7cc164; stroke: #ffffff; stroke-linejoin: miter"/>
   </g>
   <g id="patch_22">
    <path d="M 703.348777 303.5525 
L 730.520951 303.5525 
L 730.520951 39.5525 
L 703.348777 39.5525 
z
" clip-path="url(#p530518308e)" style="fill: #8fc456; stroke: #ffffff; stroke-linejoin: miter"/>
   </g>
   <g id="patch_23">
    <path d="M 737.313995 303.5525 
L 764.486168 303.5525 
L 764.486168 103.768716 
L 737.313995 103.768716 
z
" clip-path="url(#p530518308e)" style="fill: #a3c746; stroke: #ffffff; stroke-linejoin: miter"/>
   </g>
   <g id="patch_24">
    <path d="M 771.279212 303.5525 
L 798.451386 303.5525 
L 798.451386 135.163311 
L 771.279212 135.163311 
z
" clip-path="url(#p530518308e)" style="fill: #b6c838; stroke: #ffffff; stroke-linejoin: miter"/>
   </g>
   <g id="patch_25">
    <path d="M 805.244429 303.5525 
L 832.416603 303.5525 
L 832.416603 229.347095 
L 805.244429 229.347095 
z
" clip-path="url(#p530518308e)" style="fill: #cbcb32; stroke: #ffffff; stroke-linejoin: miter"/>
   </g>
   <g id="patch_26">
    <path d="M 54.613125 303.5525 
L 54.613125 26.3525 
" style="fill: none; stroke: #262626; stroke-width: 1.25; stroke-linejoin: miter; stroke-linecap: square"/>
   </g>
   <g id="patch_27">
    <path d="M 835.813125 303.5525 
L 835.813125 26.3525 
" style="fill: none; stroke: #262626; stroke-width: 1.25; stroke-linejoin: miter; stroke-linecap: square"/>
   </g>
   <g id="patch_28">
    <path d="M 54.613125 303.5525 
L 835.813125 303.5525 
" style="fill: none; stroke: #262626; stroke-width: 1.25; stroke-linejoin: miter; stroke-linecap: square"/>
   </g>
   <g id="patch_29">
    <path d="M 54.613125 26.3525 
L 835.813125 26.3525 
" style="fill: none; stroke: #262626; stroke-width: 1.25; stroke-linejoin: miter; stroke-linecap: square"/>
   </g>
   <g id="text_34">
    <!-- 연도별 외계 행성(Exoplanets) 발견 개수 추이 -->
    <g style="fill: #262626" transform="translate(280.906875 20.3525) scale(0.16 -0.16)">
     <defs>
      <path id="AppleGothic-bcc4" d="M 3027 2739 
L 3027 3680 
L 2150 3693 
L 1293 3680 
L 1293 2739 
L 2144 2720 
L 3027 2739 
z
M 5440 -531 
Q 5178 -525 4906 -518 
Q 4634 -512 4339 -506 
Q 4038 -499 3801 -496 
Q 3565 -493 3379 -493 
L 1446 -493 
Q 1453 -422 1456 -336 
Q 1459 -250 1466 -141 
Q 1466 -45 1469 19 
Q 1472 83 1472 115 
L 1459 762 
L 3354 749 
L 4845 774 
L 4845 1382 
L 1446 1370 
L 1446 1734 
Q 1658 1734 1888 1728 
Q 2118 1722 2374 1715 
Q 2630 1709 2864 1705 
Q 3098 1702 3322 1702 
L 5299 1715 
L 5280 1094 
L 5293 410 
L 3373 429 
L 1901 416 
L 1901 -128 
Q 1978 -134 2134 -134 
Q 2291 -134 2522 -134 
Q 2752 -141 2969 -144 
Q 3187 -147 3392 -147 
Q 3846 -147 4380 -137 
Q 4915 -128 5440 -109 
L 5440 -531 
z
M 5440 5062 
Q 5440 5024 5414 4937 
Q 5389 4851 5389 4813 
Q 5382 4589 5372 4224 
Q 5363 3859 5363 3334 
Q 5363 3008 5363 2784 
Q 5363 2560 5370 2445 
Q 5376 2323 5376 2220 
Q 5376 2118 5382 2029 
L 4922 2029 
Q 4941 2189 4941 2394 
L 4941 2822 
L 3878 2803 
L 3878 3174 
L 4941 3162 
L 4941 3917 
L 3859 3904 
L 3859 4269 
L 4941 4256 
L 4941 4685 
Q 4941 4909 4934 5021 
Q 4928 5133 4915 5190 
L 5056 5190 
Q 5222 5190 5331 5164 
Q 5440 5139 5440 5062 
z
M 3488 4877 
L 3469 4710 
L 3456 3462 
L 3469 2362 
L 851 2362 
Q 851 2630 857 2944 
Q 864 3258 870 3578 
Q 870 3853 870 4061 
Q 870 4269 864 4416 
Q 858 4570 858 4704 
Q 858 4838 851 4966 
L 979 4966 
Q 1146 4966 1242 4950 
Q 1338 4934 1338 4864 
Q 1338 4838 1315 4761 
Q 1293 4685 1293 4653 
L 1293 4051 
L 2157 4032 
L 3027 4051 
L 3014 4998 
L 3072 4998 
Q 3264 4998 3376 4976 
Q 3488 4954 3488 4877 
z
" transform="scale(0.015625)"/>
      <path id="AppleGothic-c678" d="M 3552 3552 
Q 3552 3955 3226 4186 
Q 2944 4403 2515 4403 
Q 2067 4403 1766 4186 
Q 1434 3955 1434 3552 
Q 1434 3181 1658 2957 
Q 1926 2669 2483 2669 
Q 2963 2669 3257 2902 
Q 3552 3136 3552 3552 
z
M 5466 5101 
Q 5466 5088 5440 4982 
Q 5414 4877 5414 4781 
L 5395 736 
Q 5395 237 5388 -32 
Q 5382 -301 5370 -474 
L 4909 -499 
Q 4928 -83 4941 582 
Q 4954 1248 4954 2202 
L 4954 3053 
Q 4954 3622 4954 3987 
Q 4954 4352 4947 4518 
Q 4941 4691 4937 4857 
Q 4934 5024 4922 5190 
L 5107 5197 
Q 5242 5197 5354 5174 
Q 5466 5152 5466 5101 
z
M 4672 1203 
Q 4525 1184 4377 1165 
Q 4230 1146 4083 1126 
Q 3341 1030 2669 973 
Q 1696 896 986 896 
Q 947 896 899 886 
Q 851 877 803 864 
Q 755 851 713 841 
Q 672 832 659 832 
Q 589 832 576 902 
L 512 1254 
Q 774 1254 1030 1260 
Q 1286 1267 1542 1280 
Q 1805 1293 2000 1315 
Q 2195 1338 2330 1370 
L 2349 1824 
Q 2349 1990 2342 2108 
Q 2336 2227 2323 2285 
Q 2182 2285 1990 2342 
Q 1600 2445 1350 2688 
Q 1005 3014 1005 3552 
Q 1005 4013 1350 4371 
Q 1754 4774 2483 4774 
Q 3200 4774 3616 4397 
Q 4000 4038 4000 3539 
Q 4000 2861 3405 2515 
Q 3309 2458 3158 2403 
Q 3008 2349 2803 2298 
L 2797 1830 
L 2803 1414 
Q 2950 1414 3184 1433 
Q 3418 1453 3731 1485 
Q 4352 1562 4646 1562 
L 4672 1203 
z
" transform="scale(0.015625)"/>
      <path id="AppleGothic-acc4" d="M 5670 5075 
Q 5670 5062 5638 4963 
Q 5606 4864 5606 4762 
Q 5600 4653 5600 4505 
Q 5600 4358 5594 4173 
Q 5594 3987 5594 3747 
Q 5594 3507 5587 3200 
Q 5587 2899 5587 2582 
Q 5587 2266 5581 1926 
Q 5581 1658 5584 1322 
Q 5587 986 5594 570 
Q 5613 -256 5613 -384 
L 5171 -410 
L 5171 422 
Q 5178 691 5178 1075 
Q 5178 1459 5184 1978 
Q 5190 2496 5190 2877 
Q 5190 3258 5190 3514 
L 5171 5190 
Q 5254 5190 5344 5187 
Q 5434 5184 5507 5171 
Q 5581 5158 5625 5136 
Q 5670 5114 5670 5075 
z
M 4326 4832 
Q 4326 4819 4297 4726 
Q 4269 4634 4269 4576 
L 4256 659 
Q 4256 499 4256 390 
Q 4256 282 4259 198 
Q 4262 115 4265 51 
Q 4269 -13 4275 -77 
L 3840 -115 
L 3846 1670 
L 3354 1690 
L 2810 1683 
L 2810 2067 
L 3354 2054 
L 3846 2061 
L 3846 2886 
L 2861 2874 
L 2861 3296 
Q 2970 3290 3110 3286 
Q 3251 3283 3334 3283 
L 3846 3277 
L 3853 4627 
L 3840 4947 
Q 4026 4947 4176 4928 
Q 4326 4909 4326 4832 
z
M 2938 4461 
Q 2931 4384 2928 4301 
Q 2925 4218 2918 4134 
Q 2867 3718 2765 3315 
Q 2611 2765 2326 2259 
Q 2042 1754 1626 1325 
Q 1338 1024 998 787 
Q 762 614 723 614 
Q 710 627 678 649 
Q 646 672 582 704 
Q 320 864 320 877 
L 339 909 
Q 1178 1235 1824 2214 
Q 2490 3200 2490 4109 
L 1843 4115 
L 717 4090 
L 717 4493 
Q 1222 4493 2022 4474 
Q 2426 4467 2650 4464 
Q 2874 4461 2938 4461 
z
" transform="scale(0.015625)"/>
      <path id="AppleGothic-45" d="M 282 5024 
L 3405 5024 
L 3405 4582 
L 787 4582 
L 787 2848 
L 3309 2848 
L 3309 2406 
L 787 2406 
L 787 442 
L 3424 442 
L 3424 0 
L 282 0 
L 282 5024 
z
" transform="scale(0.015625)"/>
      <path id="AppleGothic-78" d="M 352 3424 
L 928 3424 
L 1754 2150 
L 2592 3424 
L 3130 3424 
L 2022 1830 
L 3270 0 
L 2682 0 
L 1722 1504 
L 755 0 
L 211 0 
L 1466 1830 
L 352 3424 
z
" transform="scale(0.015625)"/>
      <path id="AppleGothic-70" d="M 736 307 
L 736 -1101 
L 288 -1101 
L 288 3424 
L 704 3424 
L 730 2803 
Q 941 3149 1216 3325 
Q 1491 3501 1882 3501 
Q 2522 3501 2944 3002 
Q 3162 2752 3270 2441 
Q 3379 2131 3379 1747 
Q 3379 954 2899 435 
Q 2419 -83 1754 -83 
Q 1421 -83 1139 58 
Q 1056 90 960 154 
Q 864 218 736 307 
z
M 736 1824 
L 736 800 
Q 838 704 924 637 
Q 1011 570 1082 525 
Q 1395 339 1715 339 
Q 2227 339 2554 742 
Q 2886 1165 2886 1766 
Q 2886 2330 2579 2707 
Q 2278 3085 1811 3085 
Q 1331 3085 1018 2669 
Q 736 2291 736 1824 
z
" transform="scale(0.015625)"/>
      <path id="AppleGothic-6c" d="M 288 5018 
L 749 5018 
L 749 0 
L 288 0 
L 288 5018 
z
" transform="scale(0.015625)"/>
      <path id="AppleGothic-61" d="M 2950 2214 
L 2950 602 
Q 2950 493 2998 413 
Q 3046 333 3174 333 
Q 3213 333 3238 336 
Q 3264 339 3290 346 
Q 3328 358 3357 371 
Q 3386 384 3405 390 
L 3405 32 
Q 3290 -6 3174 -22 
Q 3059 -38 2995 -38 
Q 2669 -38 2566 134 
Q 2483 243 2483 602 
Q 2400 461 2317 355 
Q 2234 250 2150 179 
Q 1818 -83 1376 -83 
Q 909 -83 563 192 
Q 205 486 205 941 
Q 205 1510 781 1779 
Q 992 1882 1341 1958 
Q 1690 2035 2176 2099 
L 2483 2131 
Q 2483 2579 2256 2832 
Q 2029 3085 1587 3085 
Q 1421 3085 1257 3043 
Q 1094 3002 928 2912 
Q 838 2861 729 2790 
Q 621 2720 493 2611 
L 493 3136 
Q 1037 3501 1664 3501 
Q 2304 3501 2650 3098 
Q 2950 2746 2950 2214 
z
M 2483 1542 
L 2483 1747 
L 2266 1722 
Q 1466 1638 1139 1498 
Q 704 1325 704 934 
Q 704 819 755 713 
Q 806 608 896 525 
Q 986 442 1117 390 
Q 1248 339 1408 339 
Q 1843 339 2170 691 
Q 2483 1050 2483 1542 
z
" transform="scale(0.015625)"/>
      <path id="AppleGothic-65" d="M 3296 1850 
L 691 1850 
Q 691 1114 1033 726 
Q 1376 339 1933 339 
Q 2355 339 2746 608 
Q 2854 678 2976 784 
Q 3098 890 3238 1030 
L 3238 474 
Q 3085 358 2953 272 
Q 2822 186 2707 128 
Q 2304 -83 1901 -83 
Q 1203 -83 717 397 
Q 192 902 192 1709 
Q 192 2470 666 2982 
Q 1146 3501 1850 3501 
Q 2534 3501 2938 3002 
Q 3296 2547 3296 1850 
z
M 755 2240 
L 2758 2240 
Q 2682 2675 2429 2889 
Q 2176 3104 1818 3104 
Q 1421 3104 1146 2854 
Q 890 2624 755 2240 
z
" transform="scale(0.015625)"/>
      <path id="AppleGothic-73" d="M 224 294 
L 224 851 
Q 621 531 1030 403 
Q 1152 371 1267 355 
Q 1382 339 1504 339 
Q 1894 339 2150 518 
Q 2413 710 2413 947 
Q 2413 1075 2317 1210 
Q 2182 1376 1600 1510 
Q 909 1683 678 1798 
Q 230 2054 230 2515 
Q 230 2944 602 3219 
Q 979 3501 1542 3501 
Q 1798 3501 2003 3456 
Q 2208 3411 2387 3337 
Q 2566 3264 2720 3155 
L 2720 2598 
Q 2451 2822 2156 2953 
Q 1862 3085 1536 3085 
Q 1210 3085 973 2938 
Q 730 2790 730 2554 
Q 730 2240 1306 2054 
Q 1574 1978 1836 1901 
Q 2099 1824 2368 1747 
Q 2950 1498 2950 992 
Q 2950 563 2547 237 
Q 2138 -83 1530 -83 
Q 1261 -83 1005 -26 
Q 595 64 224 294 
z
" transform="scale(0.015625)"/>
      <path id="AppleGothic-ac1c" d="M 5658 5101 
Q 5658 5094 5648 5065 
Q 5638 5037 5626 4973 
Q 5594 4845 5594 4806 
L 5587 -467 
L 5158 -506 
L 5171 2163 
L 4256 2138 
L 4256 -186 
L 3853 -224 
Q 3853 19 3853 393 
Q 3853 768 3859 1274 
Q 3866 1786 3866 2301 
Q 3866 2816 3872 3354 
Q 3878 3898 3881 4211 
Q 3885 4525 3885 4634 
Q 3885 4883 3866 5050 
L 3898 5050 
Q 4051 5050 4188 5034 
Q 4326 5018 4326 4966 
Q 4326 4954 4294 4874 
Q 4262 4794 4262 4717 
Q 4262 4704 4262 4592 
Q 4262 4480 4256 4275 
Q 4250 4070 4250 3910 
Q 4250 3750 4250 3642 
L 4256 2483 
L 5178 2502 
L 5190 4250 
L 5190 4717 
Q 5190 4902 5187 4998 
Q 5184 5094 5171 5190 
L 5248 5190 
Q 5478 5190 5568 5171 
Q 5658 5152 5658 5101 
z
M 2989 4410 
Q 2989 4205 2966 4009 
Q 2944 3814 2899 3610 
Q 2829 3264 2691 2931 
Q 2554 2598 2362 2266 
Q 2074 1760 1651 1350 
Q 1338 1056 1011 845 
Q 774 685 730 685 
Q 704 698 691 707 
Q 678 717 666 723 
Q 634 749 608 771 
Q 582 794 563 819 
Q 525 870 457 905 
Q 390 941 390 954 
L 403 986 
Q 448 986 666 1114 
Q 992 1293 1280 1549 
Q 1485 1722 1657 1930 
Q 1830 2138 1978 2381 
Q 2291 2893 2464 3526 
Q 2490 3629 2515 3760 
Q 2541 3891 2560 4051 
L 1696 4058 
L 627 4026 
L 627 4403 
Q 723 4397 838 4397 
Q 954 4397 1082 4390 
L 1491 4390 
L 2989 4410 
z
" transform="scale(0.015625)"/>
      <path id="AppleGothic-cd94" d="M 5990 1638 
L 4390 1658 
Q 4006 1658 3798 1651 
Q 3590 1645 3462 1632 
L 3462 518 
Q 3462 314 3462 160 
Q 3462 6 3469 -96 
Q 3475 -198 3475 -291 
Q 3475 -384 3482 -461 
Q 3482 -538 3392 -566 
Q 3302 -595 3194 -595 
L 3104 -595 
Q 3002 -595 3002 -550 
L 3008 282 
L 2995 1606 
Q 2912 1613 2800 1613 
Q 2688 1613 2541 1619 
Q 2394 1626 2288 1626 
Q 2182 1626 2112 1626 
Q 1946 1626 1712 1619 
Q 1478 1613 1178 1600 
Q 582 1581 403 1581 
L 403 2003 
L 3360 1990 
Q 3910 1990 4390 2000 
Q 4870 2010 5299 2022 
Q 5446 2029 5619 2041 
Q 5792 2054 5990 2067 
L 5990 1638 
z
M 5504 2854 
Q 5504 2842 5459 2784 
Q 5408 2733 5385 2704 
Q 5363 2675 5357 2669 
L 5229 2496 
Q 5088 2515 4973 2534 
Q 4384 2643 3987 2874 
Q 3834 2970 3702 3062 
Q 3571 3155 3462 3245 
Q 3398 3302 3337 3366 
Q 3277 3430 3213 3514 
Q 3155 3430 3104 3372 
Q 3053 3315 3008 3264 
Q 2694 2963 2266 2752 
Q 1990 2624 1645 2541 
Q 1421 2502 1082 2464 
Q 1075 2470 1075 2483 
Q 1062 2502 1036 2537 
Q 1011 2573 966 2624 
Q 934 2662 876 2726 
Q 819 2790 819 2803 
Q 838 2829 931 2835 
Q 1024 2842 1139 2854 
Q 1792 2938 2234 3174 
Q 2406 3277 2540 3379 
Q 2675 3482 2765 3603 
Q 2867 3750 2925 3974 
L 1050 3949 
L 1050 4346 
Q 1184 4339 1376 4339 
Q 1568 4339 1824 4333 
Q 2080 4326 2265 4326 
Q 2451 4326 2566 4326 
Q 2797 4326 3142 4332 
Q 3488 4339 3955 4352 
Q 4422 4365 4768 4371 
Q 5114 4378 5344 4378 
L 5344 3981 
L 4384 3994 
Q 4115 3994 3948 3994 
Q 3782 3994 3699 3987 
Q 3629 3987 3561 3984 
Q 3494 3981 3437 3974 
Q 3443 3942 3446 3910 
Q 3450 3878 3462 3859 
Q 3610 3539 4128 3258 
Q 4442 3085 4851 2976 
Q 5088 2918 5478 2880 
Q 5498 2880 5504 2854 
z
M 4032 4787 
L 3334 4794 
L 2240 4774 
L 2240 5165 
L 3322 5152 
L 4032 5165 
L 4032 4787 
z
" transform="scale(0.015625)"/>
      <path id="AppleGothic-c774" d="M 3226 2534 
Q 3226 3309 2899 3725 
Q 2611 4090 2157 4090 
Q 1683 4090 1414 3690 
Q 1146 3290 1146 2534 
Q 1146 1811 1440 1382 
Q 1741 954 2240 954 
Q 2758 954 3021 1446 
Q 3226 1856 3226 2534 
z
M 5446 5082 
Q 5446 5062 5427 4982 
Q 5408 4902 5408 4832 
L 5434 -538 
L 4941 -589 
L 4960 2259 
Q 4960 3552 4941 4070 
Q 4934 4326 4931 4604 
Q 4928 4883 4915 5190 
L 5094 5197 
Q 5242 5197 5344 5174 
Q 5446 5152 5446 5082 
z
M 3686 2547 
Q 3686 2125 3612 1785 
Q 3539 1446 3379 1203 
Q 2995 582 2176 582 
Q 1408 582 1018 1203 
Q 678 1734 678 2560 
Q 678 3379 1050 3898 
Q 1453 4461 2170 4461 
Q 2912 4461 3309 3910 
Q 3686 3411 3686 2547 
z
" transform="scale(0.015625)"/>
     </defs>
     <use xlink:href="#AppleGothic-c5f0"/>
     <use xlink:href="#AppleGothic-b3c4" transform="translate(99.999985 0)"/>
     <use xlink:href="#AppleGothic-bcc4" transform="translate(199.999969 0)"/>
     <use xlink:href="#AppleGothic-20" transform="translate(299.999954 0)"/>
     <use xlink:href="#AppleGothic-c678" transform="translate(331.999939 0)"/>
     <use xlink:href="#AppleGothic-acc4" transform="translate(431.999924 0)"/>
     <use xlink:href="#AppleGothic-20" transform="translate(531.999908 0)"/>
     <use xlink:href="#AppleGothic-d589" transform="translate(563.999893 0)"/>
     <use xlink:href="#AppleGothic-c131" transform="translate(663.999878 0)"/>
     <use xlink:href="#AppleGothic-28" transform="translate(763.999863 0)"/>
     <use xlink:href="#AppleGothic-45" transform="translate(813.999847 0)"/>
     <use xlink:href="#AppleGothic-78" transform="translate(871.899841 0)"/>
     <use xlink:href="#AppleGothic-6f" transform="translate(926.299835 0)"/>
     <use xlink:href="#AppleGothic-70" transform="translate(984.599823 0)"/>
     <use xlink:href="#AppleGothic-6c" transform="translate(1039.999817 0)"/>
     <use xlink:href="#AppleGothic-61" transform="translate(1056.699814 0)"/>
     <use xlink:href="#AppleGothic-6e" transform="translate(1113.199799 0)"/>
     <use xlink:href="#AppleGothic-65" transform="translate(1169.099792 0)"/>
     <use xlink:href="#AppleGothic-74" transform="translate(1223.999786 0)"/>
     <use xlink:href="#AppleGothic-73" transform="translate(1258.199783 0)"/>
     <use xlink:href="#AppleGothic-29" transform="translate(1307.799774 0)"/>
     <use xlink:href="#AppleGothic-20" transform="translate(1357.799759 0)"/>
     <use xlink:href="#AppleGothic-bc1c" transform="translate(1389.799744 0)"/>
     <use xlink:href="#AppleGothic-acac" transform="translate(1489.799728 0)"/>
     <use xlink:href="#AppleGothic-20" transform="translate(1589.799713 0)"/>
     <use xlink:href="#AppleGothic-ac1c" transform="translate(1621.799698 0)"/>
     <use xlink:href="#AppleGothic-c218" transform="translate(1721.799683 0)"/>
     <use xlink:href="#AppleGothic-20" transform="translate(1821.799667 0)"/>
     <use xlink:href="#AppleGothic-cd94" transform="translate(1853.799652 0)"/>
     <use xlink:href="#AppleGothic-c774" transform="translate(1953.799637 0)"/>
    </g>
   </g>
  </g>
 </g>
 <defs>
  <clipPath id="p530518308e">
   <rect x="54.613125" y="26.3525" width="781.2" height="277.2"/>
  </clipPath>
 </defs>
</svg>
