<?xml version="1.0" encoding="utf-8" standalone="no"?>
<!DOCTYPE svg PUBLIC "-//W3C//DTD SVG 1.1//EN"
  "http://www.w3.org/Graphics/SVG/1.1/DTD/svg11.dtd">
<svg xmlns:xlink="http://www.w3.org/1999/xlink" width="852.723469pt" height="492.674531pt" viewBox="0 0 852.723469 492.674531" xmlns="http://www.w3.org/2000/svg" version="1.1">
 <metadata>
  <rdf:RDF xmlns:dc="http://purl.org/dc/elements/1.1/" xmlns:cc="http://creativecommons.org/ns#" xmlns:rdf="http://www.w3.org/1999/02/22-rdf-syntax-ns#">
   <cc:Work>
    <dc:type rdf:resource="http://purl.org/dc/dcmitype/StillImage"/>
    <dc:date>2026-05-22T02:33:54.933675</dc:date>
    <dc:format>image/svg+xml</dc:format>
    <dc:creator>
     <cc:Agent>
      <dc:title>Matplotlib v3.10.9, https://matplotlib.org/</dc:title>
     </cc:Agent>
    </dc:creator>
   </cc:Work>
  </rdf:RDF>
 </metadata>
 <defs>
  <style type="text/css">*{stroke-linejoin: round; stroke-linecap: butt}</style>
 </defs>
 <g id="figure_1">
  <g id="patch_1">
   <path d="M 0 492.674531 
L 852.723469 492.674531 
L 852.723469 0 
L 0 0 
z
" style="fill: #ffffff"/>
  </g>
  <g id="axes_1">
   <g id="patch_2">
    <path d="M 57.268125 449.52875 
L 730.953125 449.52875 
L 730.953125 26.3525 
L 57.268125 26.3525 
z
" style="fill: #ffffff"/>
   </g>
   <g id="matplotlib.axis_1">
    <g id="xtick_1">
     <g id="line2d_1">
      <defs>
       <path id="m1510cdf772" d="M 0 0 
L 0 6 
" style="stroke: #262626; stroke-width: 1.25"/>
      </defs>
      <g>
       <use xlink:href="#m1510cdf772" x="87.89017" y="449.52875" style="fill: #262626; stroke: #262626; stroke-width: 1.25"/>
      </g>
     </g>
     <g id="text_1">
      <!-- 0.0 -->
      <g style="fill: #262626" transform="translate(78.51267 467.653438) scale(0.11 -0.11)">
       <defs>
        <path id="AppleGothic-30" d="M 2227 -83 
Q 1414 -83 934 576 
Q 461 1229 461 2387 
Q 461 3552 973 4218 
Q 1453 4858 2221 4858 
Q 3027 4858 3482 4173 
Q 3955 3494 3955 2394 
Q 3955 1248 3462 582 
Q 2976 -83 2227 -83 
z
M 2176 346 
Q 2861 346 3200 992 
Q 3462 1536 3462 2400 
Q 3462 3315 3162 3859 
Q 2822 4429 2214 4429 
Q 1574 4429 1248 3821 
Q 960 3283 960 2374 
Q 960 1478 1248 941 
Q 1574 346 2176 346 
z
" transform="scale(0.015625)"/>
        <path id="AppleGothic-2e" d="M 915 -19 
Q 762 -19 653 109 
Q 544 237 544 422 
Q 544 614 656 745 
Q 768 877 915 877 
Q 1056 877 1168 758 
Q 1280 640 1280 435 
Q 1280 243 1171 112 
Q 1062 -19 915 -19 
z
" transform="scale(0.015625)"/>
       </defs>
       <use xlink:href="#AppleGothic-30"/>
       <use xlink:href="#AppleGothic-2e" transform="translate(67.999985 0)"/>
       <use xlink:href="#AppleGothic-30" transform="translate(102.499969 0)"/>
      </g>
     </g>
    </g>
    <g id="xtick_2">
     <g id="line2d_2">
      <g>
       <use xlink:href="#m1510cdf772" x="172.951408" y="449.52875" style="fill: #262626; stroke: #262626; stroke-width: 1.25"/>
      </g>
     </g>
     <g id="text_2">
      <!-- 2.5 -->
      <g style="fill: #262626" transform="translate(163.573908 467.653438) scale(0.11 -0.11)">
       <defs>
        <path id="AppleGothic-32" d="M 1101 429 
L 3942 429 
L 3942 0 
L 653 0 
L 653 205 
Q 653 1018 1344 1664 
Q 1670 1894 1990 2124 
Q 2310 2355 2637 2592 
Q 3334 3098 3334 3597 
Q 3334 3994 3014 4218 
Q 2867 4326 2694 4377 
Q 2522 4429 2317 4429 
Q 2016 4429 1741 4352 
Q 1325 4224 883 3910 
L 883 4435 
Q 1325 4659 1667 4758 
Q 2010 4858 2317 4858 
Q 2963 4858 3405 4525 
Q 3840 4198 3840 3622 
Q 3840 2995 3168 2438 
Q 2848 2214 2531 2000 
Q 2214 1786 1894 1562 
Q 1178 1024 1101 429 
z
" transform="scale(0.015625)"/>
        <path id="AppleGothic-35" d="M 621 4768 
L 3488 4768 
L 3488 4339 
L 1088 4339 
L 1088 2707 
Q 1184 2771 1293 2819 
Q 1402 2867 1510 2912 
Q 1862 3040 2259 3040 
Q 2989 3040 3424 2605 
Q 3827 2202 3827 1581 
Q 3827 870 3296 397 
Q 2765 -83 2010 -83 
Q 1651 -83 1248 45 
Q 1158 77 1001 137 
Q 845 198 621 301 
L 621 838 
Q 928 640 1203 525 
Q 1408 435 1613 390 
Q 1818 346 2010 346 
Q 2528 346 2906 666 
Q 3322 1011 3322 1536 
Q 3322 1990 3021 2291 
Q 2701 2611 2144 2611 
Q 1856 2611 1587 2528 
Q 1318 2445 1088 2272 
L 621 2272 
L 621 4768 
z
" transform="scale(0.015625)"/>
       </defs>
       <use xlink:href="#AppleGothic-32"/>
       <use xlink:href="#AppleGothic-2e" transform="translate(67.999985 0)"/>
       <use xlink:href="#AppleGothic-35" transform="translate(102.499969 0)"/>
      </g>
     </g>
    </g>
    <g id="xtick_3">
     <g id="line2d_3">
      <g>
       <use xlink:href="#m1510cdf772" x="258.012645" y="449.52875" style="fill: #262626; stroke: #262626; stroke-width: 1.25"/>
      </g>
     </g>
     <g id="text_3">
      <!-- 5.0 -->
      <g style="fill: #262626" transform="translate(248.635145 467.653438) scale(0.11 -0.11)">
       <use xlink:href="#AppleGothic-35"/>
       <use xlink:href="#AppleGothic-2e" transform="translate(67.999985 0)"/>
       <use xlink:href="#AppleGothic-30" transform="translate(102.499969 0)"/>
      </g>
     </g>
    </g>
    <g id="xtick_4">
     <g id="line2d_4">
      <g>
       <use xlink:href="#m1510cdf772" x="343.073883" y="449.52875" style="fill: #262626; stroke: #262626; stroke-width: 1.25"/>
      </g>
     </g>
     <g id="text_4">
      <!-- 7.5 -->
      <g style="fill: #262626" transform="translate(333.696383 467.653438) scale(0.11 -0.11)">
       <defs>
        <path id="AppleGothic-37" d="M 595 4774 
L 3802 4774 
L 3802 4410 
L 1734 0 
L 1235 0 
L 3277 4352 
L 595 4352 
L 595 4774 
z
" transform="scale(0.015625)"/>
       </defs>
       <use xlink:href="#AppleGothic-37"/>
       <use xlink:href="#AppleGothic-2e" transform="translate(67.999985 0)"/>
       <use xlink:href="#AppleGothic-35" transform="translate(102.499969 0)"/>
      </g>
     </g>
    </g>
    <g id="xtick_5">
     <g id="line2d_5">
      <g>
       <use xlink:href="#m1510cdf772" x="428.13512" y="449.52875" style="fill: #262626; stroke: #262626; stroke-width: 1.25"/>
      </g>
     </g>
     <g id="text_5">
      <!-- 10.0 -->
      <g style="fill: #262626" transform="translate(415.01762 467.653438) scale(0.11 -0.11)">
       <defs>
        <path id="AppleGothic-31" d="M 2342 4774 
L 2752 4774 
L 2752 0 
L 2285 0 
L 2285 3526 
L 1158 3526 
L 1158 3885 
L 1414 3885 
Q 1990 3885 2214 4205 
Q 2342 4410 2342 4774 
z
" transform="scale(0.015625)"/>
       </defs>
       <use xlink:href="#AppleGothic-31"/>
       <use xlink:href="#AppleGothic-30" transform="translate(67.999985 0)"/>
       <use xlink:href="#AppleGothic-2e" transform="translate(135.999969 0)"/>
       <use xlink:href="#AppleGothic-30" transform="translate(170.499954 0)"/>
      </g>
     </g>
    </g>
    <g id="xtick_6">
     <g id="line2d_6">
      <g>
       <use xlink:href="#m1510cdf772" x="513.196357" y="449.52875" style="fill: #262626; stroke: #262626; stroke-width: 1.25"/>
      </g>
     </g>
     <g id="text_6">
      <!-- 12.5 -->
      <g style="fill: #262626" transform="translate(500.078857 467.653438) scale(0.11 -0.11)">
       <use xlink:href="#AppleGothic-31"/>
       <use xlink:href="#AppleGothic-32" transform="translate(67.999985 0)"/>
       <use xlink:href="#AppleGothic-2e" transform="translate(135.999969 0)"/>
       <use xlink:href="#AppleGothic-35" transform="translate(170.499954 0)"/>
      </g>
     </g>
    </g>
    <g id="xtick_7">
     <g id="line2d_7">
      <g>
       <use xlink:href="#m1510cdf772" x="598.257595" y="449.52875" style="fill: #262626; stroke: #262626; stroke-width: 1.25"/>
      </g>
     </g>
     <g id="text_7">
      <!-- 15.0 -->
      <g style="fill: #262626" transform="translate(585.140095 467.653438) scale(0.11 -0.11)">
       <use xlink:href="#AppleGothic-31"/>
       <use xlink:href="#AppleGothic-35" transform="translate(67.999985 0)"/>
       <use xlink:href="#AppleGothic-2e" transform="translate(135.999969 0)"/>
       <use xlink:href="#AppleGothic-30" transform="translate(170.499954 0)"/>
      </g>
     </g>
    </g>
    <g id="xtick_8">
     <g id="line2d_8">
      <g>
       <use xlink:href="#m1510cdf772" x="683.318832" y="449.52875" style="fill: #262626; stroke: #262626; stroke-width: 1.25"/>
      </g>
     </g>
     <g id="text_8">
      <!-- 17.5 -->
      <g style="fill: #262626" transform="translate(670.201332 467.653438) scale(0.11 -0.11)">
       <use xlink:href="#AppleGothic-31"/>
       <use xlink:href="#AppleGothic-37" transform="translate(67.999985 0)"/>
       <use xlink:href="#AppleGothic-2e" transform="translate(135.999969 0)"/>
       <use xlink:href="#AppleGothic-35" transform="translate(170.499954 0)"/>
      </g>
     </g>
    </g>
    <g id="text_9">
     <!-- 시간 (Timepoint) -->
     <g style="fill: #262626" transform="translate(347.435312 483.410156) scale(0.12 -0.12)">
      <defs>
       <path id="AppleGothic-c2dc" d="M 5459 5062 
Q 5459 5043 5440 4969 
Q 5421 4896 5421 4826 
L 5402 2349 
L 5414 -531 
L 4909 -557 
Q 4915 -410 4915 -278 
Q 4915 -147 4922 -19 
Q 4928 218 4941 1190 
Q 4960 2150 4960 2253 
Q 4960 3923 4941 4416 
Q 4934 4915 4922 5190 
Q 5146 5190 5302 5158 
Q 5459 5126 5459 5062 
z
M 4250 1478 
Q 4250 1459 4224 1434 
Q 4211 1421 4179 1395 
Q 4147 1370 4109 1338 
L 3917 1178 
Q 3866 1210 3821 1242 
Q 3776 1274 3738 1306 
Q 3290 1658 2899 2227 
Q 2707 2496 2534 2918 
Q 2515 2976 2483 3072 
Q 2451 3168 2400 3309 
Q 2221 2688 1754 2054 
Q 1267 1389 710 1114 
Q 698 1120 653 1155 
Q 608 1190 518 1254 
Q 486 1280 444 1312 
Q 403 1344 346 1395 
Q 346 1421 371 1427 
Q 397 1440 406 1449 
Q 416 1459 422 1466 
Q 467 1466 710 1645 
Q 896 1773 1056 1920 
Q 1216 2067 1350 2234 
Q 1549 2464 1696 2729 
Q 1843 2995 1952 3296 
Q 2061 3610 2125 4000 
Q 2157 4205 2173 4381 
Q 2189 4557 2189 4717 
Q 2323 4717 2534 4678 
Q 2752 4653 2752 4576 
Q 2752 4544 2710 4470 
Q 2669 4397 2669 4378 
L 2630 4032 
Q 2656 3923 2681 3814 
Q 2707 3706 2739 3597 
Q 2790 3430 2857 3248 
Q 2925 3066 3021 2867 
Q 3264 2349 3757 1894 
Q 3840 1818 3949 1728 
Q 4058 1638 4198 1530 
L 4237 1491 
L 4250 1478 
z
" transform="scale(0.015625)"/>
       <path id="AppleGothic-ac04" d="M 5363 -422 
L 4947 -422 
Q 4819 -422 4630 -425 
Q 4442 -429 4179 -435 
Q 3667 -454 3597 -454 
L 2221 -448 
Q 1875 -448 1641 -451 
Q 1408 -454 1235 -461 
Q 1222 -410 1222 -282 
L 1222 -173 
L 1229 1203 
L 1581 1190 
L 1651 1197 
Q 1702 1197 1702 1158 
L 1677 1075 
Q 1677 1050 1670 1030 
Q 1645 954 1645 896 
L 1670 -90 
L 2086 -77 
L 3302 -83 
Q 3821 -83 4333 -73 
Q 4845 -64 5363 -58 
L 5363 -422 
z
M 6093 2362 
L 5094 2362 
L 5075 710 
L 4666 717 
L 4666 1824 
Q 4672 2266 4675 2614 
Q 4678 2963 4678 3232 
L 4672 4800 
Q 4672 4922 4672 4992 
Q 4672 5062 4672 5100 
Q 4672 5139 4669 5158 
Q 4666 5178 4659 5197 
Q 4864 5197 4985 5174 
Q 5107 5152 5107 5114 
L 5088 4806 
L 5088 2726 
L 6093 2726 
L 6093 2362 
z
M 3258 4634 
Q 3258 4192 3123 3763 
Q 2893 2989 2291 2413 
Q 1843 1978 1242 1664 
Q 787 1427 659 1427 
Q 595 1472 547 1510 
Q 499 1549 461 1581 
Q 314 1709 314 1747 
L 320 1766 
L 339 1754 
Q 518 1754 966 1958 
Q 1267 2093 1526 2272 
Q 1786 2451 2010 2675 
Q 2342 3008 2547 3424 
Q 2624 3578 2678 3728 
Q 2733 3878 2765 4026 
Q 2771 4090 2777 4144 
Q 2784 4198 2797 4262 
L 538 4250 
L 538 4634 
L 1818 4614 
L 3258 4634 
z
" transform="scale(0.015625)"/>
       <path id="AppleGothic-20" transform="scale(0.015625)"/>
       <path id="AppleGothic-28" d="M 2227 5261 
L 2650 5261 
Q 2342 4768 2169 4473 
Q 1997 4179 1958 4083 
Q 1606 3283 1606 2272 
Q 1606 1587 1754 1018 
Q 1882 570 2138 102 
Q 2150 70 2275 -131 
Q 2400 -333 2630 -717 
L 2227 -717 
Q 2099 -531 1980 -355 
Q 1862 -179 1734 0 
Q 1581 243 1469 483 
Q 1357 723 1274 954 
Q 1069 1587 1069 2272 
Q 1069 2963 1261 3558 
Q 1338 3789 1450 4022 
Q 1562 4256 1715 4499 
Q 1843 4691 1971 4880 
Q 2099 5069 2227 5261 
z
" transform="scale(0.015625)"/>
       <path id="AppleGothic-54" d="M 166 5018 
L 4038 5018 
L 4038 4576 
L 2355 4576 
L 2355 0 
L 1856 0 
L 1856 4576 
L 166 4576 
L 166 5018 
z
" transform="scale(0.015625)"/>
       <path id="AppleGothic-69" d="M 256 3424 
L 717 3424 
L 717 0 
L 256 0 
L 256 3424 
z
M 480 4870 
Q 614 4870 704 4780 
Q 794 4691 794 4525 
Q 794 4358 710 4268 
Q 627 4179 480 4179 
Q 333 4179 253 4281 
Q 173 4384 173 4518 
Q 173 4730 269 4800 
Q 365 4870 480 4870 
z
" transform="scale(0.015625)"/>
       <path id="AppleGothic-6d" d="M 5389 2195 
L 5389 0 
L 4922 0 
L 4922 2304 
Q 4922 2669 4672 2893 
Q 4461 3085 4173 3085 
Q 3744 3085 3405 2688 
Q 3072 2298 3072 1722 
L 3072 0 
L 2605 0 
L 2605 2304 
Q 2605 2650 2368 2861 
Q 2144 3085 1856 3085 
Q 1440 3085 1114 2714 
Q 755 2304 755 1702 
L 755 0 
L 288 0 
L 288 3424 
L 723 3424 
L 742 2880 
Q 928 3181 1274 3354 
Q 1581 3501 1894 3501 
Q 2381 3501 2714 3219 
Q 2957 3008 3021 2797 
Q 3149 3034 3386 3226 
Q 3757 3501 4205 3501 
Q 4749 3501 5050 3174 
Q 5389 2803 5389 2195 
z
" transform="scale(0.015625)"/>
       <path id="AppleGothic-65" d="M 3296 1850 
L 691 1850 
Q 691 1114 1033 726 
Q 1376 339 1933 339 
Q 2355 339 2746 608 
Q 2854 678 2976 784 
Q 3098 890 3238 1030 
L 3238 474 
Q 3085 358 2953 272 
Q 2822 186 2707 128 
Q 2304 -83 1901 -83 
Q 1203 -83 717 397 
Q 192 902 192 1709 
Q 192 2470 666 2982 
Q 1146 3501 1850 3501 
Q 2534 3501 2938 3002 
Q 3296 2547 3296 1850 
z
M 755 2240 
L 2758 2240 
Q 2682 2675 2429 2889 
Q 2176 3104 1818 3104 
Q 1421 3104 1146 2854 
Q 890 2624 755 2240 
z
" transform="scale(0.015625)"/>
       <path id="AppleGothic-70" d="M 736 307 
L 736 -1101 
L 288 -1101 
L 288 3424 
L 704 3424 
L 730 2803 
Q 941 3149 1216 3325 
Q 1491 3501 1882 3501 
Q 2522 3501 2944 3002 
Q 3162 2752 3270 2441 
Q 3379 2131 3379 1747 
Q 3379 954 2899 435 
Q 2419 -83 1754 -83 
Q 1421 -83 1139 58 
Q 1056 90 960 154 
Q 864 218 736 307 
z
M 736 1824 
L 736 800 
Q 838 704 924 637 
Q 1011 570 1082 525 
Q 1395 339 1715 339 
Q 2227 339 2554 742 
Q 2886 1165 2886 1766 
Q 2886 2330 2579 2707 
Q 2278 3085 1811 3085 
Q 1331 3085 1018 2669 
Q 736 2291 736 1824 
z
" transform="scale(0.015625)"/>
       <path id="AppleGothic-6f" d="M 1888 -83 
Q 1229 -83 730 397 
Q 198 902 198 1709 
Q 198 2470 666 2982 
Q 1146 3501 1850 3501 
Q 2547 3501 3027 2982 
Q 3501 2470 3501 1715 
Q 3501 922 2989 403 
Q 2515 -83 1888 -83 
z
M 1843 339 
Q 2304 339 2662 723 
Q 3008 1114 3008 1715 
Q 3008 2336 2637 2726 
Q 2298 3085 1850 3085 
Q 1389 3085 1062 2714 
Q 704 2304 704 1709 
Q 704 1107 1056 704 
Q 1382 339 1843 339 
z
" transform="scale(0.015625)"/>
       <path id="AppleGothic-6e" d="M 3264 2291 
L 3264 0 
L 2803 0 
L 2803 2259 
Q 2803 2618 2541 2848 
Q 2278 3085 1914 3085 
Q 1427 3085 1075 2682 
Q 723 2272 723 1760 
L 723 0 
L 288 0 
L 288 3424 
L 691 3424 
L 710 2784 
Q 883 3046 1114 3219 
Q 1491 3501 1965 3501 
Q 2515 3501 2886 3168 
Q 3264 2842 3264 2291 
z
" transform="scale(0.015625)"/>
       <path id="AppleGothic-74" d="M 691 4435 
L 1114 4435 
L 1114 3430 
L 2016 3430 
L 2016 3014 
L 1114 3014 
L 1114 838 
Q 1114 570 1213 454 
Q 1312 339 1555 339 
Q 1696 339 1795 371 
Q 1894 403 2016 454 
L 2016 38 
Q 1914 6 1770 -22 
Q 1626 -51 1478 -51 
Q 1094 -51 883 122 
Q 646 301 646 698 
L 646 3014 
L 70 3014 
L 70 3430 
L 646 3430 
L 691 4435 
z
" transform="scale(0.015625)"/>
       <path id="AppleGothic-29" d="M 2221 2272 
Q 2221 1587 2016 960 
Q 1862 499 1555 6 
Q 1427 -179 1305 -355 
Q 1184 -531 1062 -717 
L 659 -717 
Q 781 -512 902 -310 
Q 1024 -109 1152 96 
Q 1280 333 1376 557 
Q 1472 781 1530 1005 
Q 1683 1562 1683 2272 
Q 1683 2650 1641 2973 
Q 1600 3296 1517 3584 
Q 1459 3802 1356 4029 
Q 1254 4256 1120 4499 
Q 992 4691 873 4880 
Q 755 5069 640 5261 
L 1062 5261 
Q 1190 5069 1315 4880 
Q 1440 4691 1568 4506 
Q 1722 4256 1837 4022 
Q 1952 3789 2022 3565 
Q 2221 2976 2221 2272 
z
" transform="scale(0.015625)"/>
      </defs>
      <use xlink:href="#AppleGothic-c2dc"/>
      <use xlink:href="#AppleGothic-ac04" transform="translate(99.999985 0)"/>
      <use xlink:href="#AppleGothic-20" transform="translate(199.999969 0)"/>
      <use xlink:href="#AppleGothic-28" transform="translate(231.999954 0)"/>
      <use xlink:href="#AppleGothic-54" transform="translate(281.999939 0)"/>
      <use xlink:href="#AppleGothic-69" transform="translate(348.09993 0)"/>
      <use xlink:href="#AppleGothic-6d" transform="translate(363.999924 0)"/>
      <use xlink:href="#AppleGothic-65" transform="translate(453.299911 0)"/>
      <use xlink:href="#AppleGothic-70" transform="translate(508.199905 0)"/>
      <use xlink:href="#AppleGothic-6f" transform="translate(563.599899 0)"/>
      <use xlink:href="#AppleGothic-69" transform="translate(621.899887 0)"/>
      <use xlink:href="#AppleGothic-6e" transform="translate(637.799881 0)"/>
      <use xlink:href="#AppleGothic-74" transform="translate(693.699875 0)"/>
      <use xlink:href="#AppleGothic-29" transform="translate(727.899872 0)"/>
     </g>
    </g>
   </g>
   <g id="matplotlib.axis_2">
    <g id="ytick_1">
     <g id="line2d_9">
      <defs>
       <path id="ma76d216606" d="M 0 0 
L -6 0 
" style="stroke: #262626; stroke-width: 1.25"/>
      </defs>
      <g>
       <use xlink:href="#ma76d216606" x="57.268125" y="401.425334" style="fill: #262626; stroke: #262626; stroke-width: 1.25"/>
      </g>
     </g>
     <g id="text_10">
      <!-- -0.1 -->
      <g style="fill: #262626" transform="translate(23.513125 405.737678) scale(0.11 -0.11)">
       <defs>
        <path id="AppleGothic-2d" d="M 256 1958 
L 2349 1958 
L 2349 1491 
L 256 1491 
L 256 1958 
z
" transform="scale(0.015625)"/>
       </defs>
       <use xlink:href="#AppleGothic-2d"/>
       <use xlink:href="#AppleGothic-30" transform="translate(49.999985 0)"/>
       <use xlink:href="#AppleGothic-2e" transform="translate(117.999969 0)"/>
       <use xlink:href="#AppleGothic-31" transform="translate(152.499954 0)"/>
      </g>
     </g>
    </g>
    <g id="ytick_2">
     <g id="line2d_10">
      <g>
       <use xlink:href="#ma76d216606" x="57.268125" y="321.779655" style="fill: #262626; stroke: #262626; stroke-width: 1.25"/>
      </g>
     </g>
     <g id="text_11">
      <!-- 0.0 -->
      <g style="fill: #262626" transform="translate(29.013125 326.091999) scale(0.11 -0.11)">
       <use xlink:href="#AppleGothic-30"/>
       <use xlink:href="#AppleGothic-2e" transform="translate(67.999985 0)"/>
       <use xlink:href="#AppleGothic-30" transform="translate(102.499969 0)"/>
      </g>
     </g>
    </g>
    <g id="ytick_3">
     <g id="line2d_11">
      <g>
       <use xlink:href="#ma76d216606" x="57.268125" y="242.133977" style="fill: #262626; stroke: #262626; stroke-width: 1.25"/>
      </g>
     </g>
     <g id="text_12">
      <!-- 0.1 -->
      <g style="fill: #262626" transform="translate(29.013125 246.44632) scale(0.11 -0.11)">
       <use xlink:href="#AppleGothic-30"/>
       <use xlink:href="#AppleGothic-2e" transform="translate(67.999985 0)"/>
       <use xlink:href="#AppleGothic-31" transform="translate(102.499969 0)"/>
      </g>
     </g>
    </g>
    <g id="ytick_4">
     <g id="line2d_12">
      <g>
       <use xlink:href="#ma76d216606" x="57.268125" y="162.488298" style="fill: #262626; stroke: #262626; stroke-width: 1.25"/>
      </g>
     </g>
     <g id="text_13">
      <!-- 0.2 -->
      <g style="fill: #262626" transform="translate(29.013125 166.800641) scale(0.11 -0.11)">
       <use xlink:href="#AppleGothic-30"/>
       <use xlink:href="#AppleGothic-2e" transform="translate(67.999985 0)"/>
       <use xlink:href="#AppleGothic-32" transform="translate(102.499969 0)"/>
      </g>
     </g>
    </g>
    <g id="ytick_5">
     <g id="line2d_13">
      <g>
       <use xlink:href="#ma76d216606" x="57.268125" y="82.842619" style="fill: #262626; stroke: #262626; stroke-width: 1.25"/>
      </g>
     </g>
     <g id="text_14">
      <!-- 0.3 -->
      <g style="fill: #262626" transform="translate(29.013125 87.154962) scale(0.11 -0.11)">
       <defs>
        <path id="AppleGothic-33" d="M 550 333 
L 550 870 
Q 883 621 1235 483 
Q 1587 346 1971 346 
Q 2522 346 2861 666 
Q 3219 992 3219 1421 
Q 3219 1869 2842 2099 
Q 2515 2304 1965 2304 
L 992 2304 
L 992 2701 
L 1658 2701 
Q 2298 2701 2662 2928 
Q 3027 3155 3027 3584 
Q 3027 3936 2752 4173 
Q 2458 4429 1978 4429 
Q 1786 4429 1597 4393 
Q 1408 4358 1222 4282 
Q 890 4141 531 3872 
L 531 4422 
Q 736 4531 912 4608 
Q 1088 4685 1254 4736 
Q 1626 4858 2022 4858 
Q 2650 4858 3066 4531 
Q 3488 4211 3488 3642 
Q 3488 3168 3168 2861 
Q 2976 2675 2643 2554 
Q 2874 2522 3053 2448 
Q 3232 2374 3366 2266 
Q 3718 1971 3718 1434 
Q 3718 813 3219 365 
Q 2714 -83 1965 -83 
Q 1549 -83 1126 70 
Q 1024 102 880 166 
Q 736 230 550 333 
z
" transform="scale(0.015625)"/>
       </defs>
       <use xlink:href="#AppleGothic-30"/>
       <use xlink:href="#AppleGothic-2e" transform="translate(67.999985 0)"/>
       <use xlink:href="#AppleGothic-33" transform="translate(102.499969 0)"/>
      </g>
     </g>
    </g>
    <g id="text_15">
     <!-- 신호 강도 (Signal) -->
     <g style="fill: #262626" transform="translate(17.064375 287.645937) rotate(-90) scale(0.12 -0.12)">
      <defs>
       <path id="AppleGothic-c2e0" d="M 5574 -448 
L 5203 -448 
Q 3840 -429 3642 -429 
L 2362 -429 
Q 1939 -442 1555 -448 
L 1568 358 
L 1555 1075 
L 1594 1075 
Q 1786 1075 1949 1056 
Q 2112 1037 2112 973 
Q 2112 947 2080 876 
Q 2048 806 2048 781 
L 2035 403 
L 2054 -32 
Q 2182 -38 2374 -38 
Q 2566 -38 2816 -45 
Q 3072 -51 3273 -51 
Q 3475 -51 3622 -51 
Q 4006 -51 4304 -51 
Q 4602 -51 4813 -45 
Q 5024 -38 5213 -35 
Q 5402 -32 5574 -19 
L 5574 -448 
z
M 5466 5056 
Q 5466 5030 5437 4956 
Q 5408 4883 5408 4845 
L 5395 2822 
L 5408 717 
L 4928 685 
Q 4934 986 4937 1296 
Q 4941 1606 4947 1939 
Q 4954 2266 4957 2515 
Q 4960 2765 4960 2931 
Q 4960 3450 4957 3824 
Q 4954 4198 4947 4422 
Q 4941 4653 4937 4841 
Q 4934 5030 4922 5190 
L 4979 5190 
Q 5165 5190 5315 5164 
Q 5466 5139 5466 5056 
z
M 4198 2202 
Q 4147 2150 4108 2112 
Q 4070 2074 4045 2048 
Q 3878 1894 3872 1894 
Q 3802 1946 3741 1984 
Q 3680 2022 3629 2054 
Q 3328 2278 3062 2563 
Q 2797 2848 2592 3258 
Q 2560 3322 2525 3411 
Q 2490 3501 2445 3610 
Q 2406 3520 2368 3440 
Q 2330 3360 2291 3296 
Q 2067 2893 1709 2528 
Q 1421 2221 1056 1958 
Q 992 1914 918 1859 
Q 845 1805 742 1741 
L 518 1914 
Q 486 1933 460 1952 
Q 435 1971 416 1984 
Q 410 1990 403 1996 
Q 397 2003 384 2010 
Q 390 2029 403 2042 
Q 403 2048 442 2080 
Q 448 2080 666 2227 
Q 806 2323 931 2422 
Q 1056 2522 1178 2630 
Q 1344 2784 1481 2937 
Q 1619 3091 1728 3245 
Q 1984 3610 2128 4029 
Q 2272 4448 2272 4838 
Q 2445 4813 2566 4781 
Q 2803 4723 2803 4666 
Q 2803 4653 2787 4624 
Q 2771 4595 2752 4566 
Q 2733 4538 2717 4509 
Q 2701 4480 2701 4474 
Q 2701 4250 2790 3930 
Q 2925 3450 3245 3040 
Q 3366 2886 3516 2742 
Q 3667 2598 3853 2464 
Q 3910 2419 3990 2364 
Q 4070 2310 4166 2253 
Q 4179 2240 4198 2202 
z
" transform="scale(0.015625)"/>
       <path id="AppleGothic-d638" d="M 4365 2547 
Q 4365 2771 4067 2896 
Q 3770 3021 3142 3021 
Q 2406 3021 2144 2861 
Q 1965 2765 1965 2554 
Q 1965 2285 2330 2163 
Q 2643 2054 3181 2054 
Q 3802 2054 4083 2188 
Q 4365 2323 4365 2547 
z
M 6029 179 
Q 5869 186 5737 186 
Q 5606 186 5498 186 
Q 4755 198 4233 204 
Q 3712 211 3398 211 
L 390 179 
L 390 659 
L 1338 621 
L 2931 614 
L 2912 1542 
L 2944 1542 
Q 3149 1542 3302 1526 
Q 3456 1510 3456 1440 
Q 3456 1414 3430 1337 
Q 3405 1261 3405 1203 
L 3405 614 
L 4627 614 
Q 4966 614 5340 620 
Q 5715 627 6029 640 
L 6029 179 
z
M 4813 2534 
Q 4813 2144 4442 1926 
Q 4032 1690 3174 1690 
Q 2432 1690 2016 1869 
Q 1491 2093 1491 2579 
Q 1491 3014 1923 3206 
Q 2355 3398 3155 3398 
Q 4006 3398 4409 3184 
Q 4813 2970 4813 2534 
z
M 5382 3693 
Q 4851 3706 4243 3712 
Q 3936 3718 3648 3718 
Q 3360 3718 3091 3718 
Q 2470 3718 1932 3705 
Q 1395 3693 960 3680 
L 960 4128 
Q 1082 4122 1178 4122 
Q 1274 4122 1357 4122 
Q 1914 4109 2333 4102 
Q 2752 4096 3046 4096 
Q 3757 4096 4320 4109 
Q 4883 4122 5382 4134 
L 5382 3693 
z
M 3942 4454 
L 3104 4480 
Q 2880 4480 2681 4467 
Q 2483 4454 2330 4442 
L 2330 4890 
Q 2496 4877 2701 4870 
Q 2906 4864 3098 4864 
Q 3283 4864 3500 4870 
Q 3718 4877 3942 4890 
L 3942 4454 
z
" transform="scale(0.015625)"/>
       <path id="AppleGothic-ac15" d="M 4787 518 
Q 4787 915 4256 1094 
Q 4051 1165 3792 1197 
Q 3533 1229 3219 1229 
Q 2874 1229 2598 1206 
Q 2323 1184 2112 1133 
Q 1453 966 1427 595 
Q 1427 256 1792 83 
Q 2227 -134 3264 -134 
Q 3667 -134 3964 -89 
Q 4262 -45 4454 58 
Q 4787 224 4787 518 
z
M 5235 525 
Q 5235 -58 4576 -314 
Q 4077 -499 3264 -499 
L 3091 -499 
Q 2221 -499 1658 -262 
Q 998 13 998 576 
Q 998 1120 1760 1370 
Q 2342 1562 3200 1562 
Q 4000 1562 4563 1338 
Q 5235 1069 5235 525 
z
M 3334 4749 
Q 3334 4582 3296 4403 
Q 3206 3987 3021 3603 
Q 2733 3066 2266 2611 
Q 2080 2438 1885 2291 
Q 1690 2144 1472 2016 
Q 1325 1933 1168 1859 
Q 1011 1786 826 1722 
Q 576 1632 557 1632 
L 403 1786 
Q 390 1805 358 1827 
Q 326 1850 294 1872 
Q 262 1894 236 1910 
Q 211 1926 211 1939 
L 230 1958 
Q 333 1978 416 1994 
Q 499 2010 570 2035 
Q 1357 2291 1971 2848 
Q 2368 3219 2598 3661 
Q 2746 3949 2861 4384 
L 1715 4403 
L 506 4397 
L 506 4762 
L 1504 4749 
L 3334 4749 
z
M 6048 2784 
L 5094 2771 
L 5088 1690 
L 4666 1638 
L 4666 2048 
Q 4666 2202 4666 2541 
Q 4666 2880 4672 3418 
Q 4678 3962 4681 4294 
Q 4685 4627 4685 4762 
Q 4685 4947 4678 5046 
Q 4672 5146 4659 5190 
L 4787 5190 
Q 4973 5190 5065 5171 
Q 5158 5152 5158 5082 
Q 5158 5050 5126 4963 
Q 5094 4877 5094 4832 
L 5069 4045 
L 5075 3130 
L 5504 3123 
L 6048 3142 
L 6048 2784 
z
" transform="scale(0.015625)"/>
       <path id="AppleGothic-b3c4" d="M 6061 -38 
L 3181 -6 
L 2938 -6 
Q 2560 -6 2269 -6 
Q 1978 -6 1766 -13 
Q 1562 -19 1360 -19 
Q 1158 -19 954 -26 
Q 557 -32 352 -45 
L 352 416 
L 1549 397 
L 2963 403 
L 2982 1139 
L 2970 2035 
L 3066 2035 
Q 3238 2035 3369 2012 
Q 3501 1990 3501 1920 
Q 3501 1901 3478 1821 
Q 3456 1741 3456 1709 
Q 3424 1658 3424 1030 
Q 3424 800 3443 531 
Q 3443 506 3446 474 
Q 3450 442 3456 403 
L 4608 397 
Q 4960 397 5347 400 
Q 5734 403 6061 416 
L 6061 -38 
z
M 5299 2202 
L 3744 2208 
L 1146 2195 
L 1165 3379 
L 1152 4640 
Q 1293 4634 1408 4634 
Q 1523 4634 1619 4634 
Q 2266 4621 2701 4614 
Q 3136 4608 3360 4608 
L 5248 4621 
L 5248 4205 
L 3354 4218 
L 1632 4211 
L 1613 3424 
L 1626 2598 
Q 2029 2586 2512 2579 
Q 2995 2573 3443 2573 
Q 3648 2573 3875 2573 
Q 4102 2573 4358 2579 
Q 4858 2586 5299 2598 
L 5299 2202 
z
" transform="scale(0.015625)"/>
       <path id="AppleGothic-53" d="M 3418 4666 
L 3418 4019 
Q 3251 4160 3081 4269 
Q 2912 4378 2746 4448 
Q 2362 4627 1965 4627 
Q 1466 4627 1139 4378 
Q 806 4122 806 3770 
Q 806 3258 1562 3002 
Q 1914 2880 2262 2768 
Q 2611 2656 2970 2541 
Q 3731 2176 3731 1453 
Q 3731 749 3187 320 
Q 2669 -83 1901 -83 
Q 1389 -83 915 115 
Q 640 224 262 474 
L 262 1126 
Q 755 685 1261 506 
Q 1427 442 1587 416 
Q 1747 390 1907 390 
Q 2419 390 2771 646 
Q 3162 928 3162 1382 
Q 3162 1933 2419 2221 
Q 2061 2330 1715 2445 
Q 1370 2560 1024 2669 
Q 275 3014 275 3731 
Q 275 4333 749 4710 
Q 1235 5101 1965 5101 
Q 2413 5101 2861 4934 
Q 3091 4858 3418 4666 
z
" transform="scale(0.015625)"/>
       <path id="AppleGothic-67" d="M 2822 3040 
L 2950 3424 
L 3290 3424 
L 3290 326 
Q 3290 -474 2899 -890 
Q 2509 -1306 1690 -1306 
Q 1357 -1306 1059 -1187 
Q 762 -1069 435 -819 
L 435 -256 
Q 640 -448 838 -579 
Q 1037 -710 1229 -781 
Q 1453 -864 1690 -864 
Q 2195 -864 2477 -634 
Q 2822 -352 2822 269 
L 2822 691 
Q 2579 288 2221 122 
Q 1978 6 1683 6 
Q 1050 6 621 512 
Q 198 1030 198 1709 
Q 198 2387 595 2906 
Q 1056 3501 1773 3501 
Q 2131 3501 2451 3328 
Q 2547 3270 2640 3200 
Q 2733 3130 2822 3040 
z
M 2822 1658 
L 2822 2598 
Q 2714 2720 2602 2803 
Q 2490 2886 2381 2950 
Q 2253 3021 2118 3053 
Q 1984 3085 1843 3085 
Q 1363 3085 1050 2746 
Q 698 2362 698 1734 
Q 698 1165 992 794 
Q 1280 429 1741 429 
Q 2195 429 2509 781 
Q 2822 1120 2822 1658 
z
" transform="scale(0.015625)"/>
       <path id="AppleGothic-61" d="M 2950 2214 
L 2950 602 
Q 2950 493 2998 413 
Q 3046 333 3174 333 
Q 3213 333 3238 336 
Q 3264 339 3290 346 
Q 3328 358 3357 371 
Q 3386 384 3405 390 
L 3405 32 
Q 3290 -6 3174 -22 
Q 3059 -38 2995 -38 
Q 2669 -38 2566 134 
Q 2483 243 2483 602 
Q 2400 461 2317 355 
Q 2234 250 2150 179 
Q 1818 -83 1376 -83 
Q 909 -83 563 192 
Q 205 486 205 941 
Q 205 1510 781 1779 
Q 992 1882 1341 1958 
Q 1690 2035 2176 2099 
L 2483 2131 
Q 2483 2579 2256 2832 
Q 2029 3085 1587 3085 
Q 1421 3085 1257 3043 
Q 1094 3002 928 2912 
Q 838 2861 729 2790 
Q 621 2720 493 2611 
L 493 3136 
Q 1037 3501 1664 3501 
Q 2304 3501 2650 3098 
Q 2950 2746 2950 2214 
z
M 2483 1542 
L 2483 1747 
L 2266 1722 
Q 1466 1638 1139 1498 
Q 704 1325 704 934 
Q 704 819 755 713 
Q 806 608 896 525 
Q 986 442 1117 390 
Q 1248 339 1408 339 
Q 1843 339 2170 691 
Q 2483 1050 2483 1542 
z
" transform="scale(0.015625)"/>
       <path id="AppleGothic-6c" d="M 288 5018 
L 749 5018 
L 749 0 
L 288 0 
L 288 5018 
z
" transform="scale(0.015625)"/>
      </defs>
      <use xlink:href="#AppleGothic-c2e0"/>
      <use xlink:href="#AppleGothic-d638" transform="translate(99.999985 0)"/>
      <use xlink:href="#AppleGothic-20" transform="translate(199.999969 0)"/>
      <use xlink:href="#AppleGothic-ac15" transform="translate(231.999954 0)"/>
      <use xlink:href="#AppleGothic-b3c4" transform="translate(331.999939 0)"/>
      <use xlink:href="#AppleGothic-20" transform="translate(431.999924 0)"/>
      <use xlink:href="#AppleGothic-28" transform="translate(463.999908 0)"/>
      <use xlink:href="#AppleGothic-53" transform="translate(513.999893 0)"/>
      <use xlink:href="#AppleGothic-69" transform="translate(577.19989 0)"/>
      <use xlink:href="#AppleGothic-67" transform="translate(593.099884 0)"/>
      <use xlink:href="#AppleGothic-6e" transform="translate(649.299881 0)"/>
      <use xlink:href="#AppleGothic-61" transform="translate(705.199875 0)"/>
      <use xlink:href="#AppleGothic-6c" transform="translate(761.69986 0)"/>
      <use xlink:href="#AppleGothic-29" transform="translate(778.399857 0)"/>
     </g>
    </g>
   </g>
   <g id="FillBetweenPolyCollection_1">
    <defs>
     <path id="m4f72bf5362" d="M 87.89017 -163.55549 
L 87.89017 -139.892119 
L 121.914665 -126.365572 
L 155.93916 -136.235808 
L 189.963655 -188.114101 
L 223.98815 -276.060451 
L 258.012645 -348.579303 
L 292.03714 -353.592929 
L 326.061635 -298.363237 
L 360.08613 -217.81377 
L 394.110625 -149.270042 
L 428.13512 -102.182297 
L 462.159615 -72.372748 
L 496.18411 -62.381065 
L 530.208605 -69.223586 
L 564.2331 -86.90648 
L 598.257595 -102.619397 
L 632.28209 -110.729415 
L 666.306585 -116.127989 
L 700.33108 -117.279531 
L 700.33108 -137.5701 
L 700.33108 -137.5701 
L 666.306585 -140.548809 
L 632.28209 -138.095002 
L 598.257595 -130.908601 
L 564.2331 -120.605448 
L 530.208605 -111.468753 
L 496.18411 -109.702908 
L 462.159615 -118.077929 
L 428.13512 -156.381052 
L 394.110625 -228.797624 
L 360.08613 -317.93212 
L 326.061635 -395.889489 
L 292.03714 -447.086747 
L 258.012645 -429.82569 
L 223.98815 -351.784908 
L 189.963655 -250.713404 
L 155.93916 -172.920861 
L 121.914665 -152.645422 
L 87.89017 -163.55549 
z
" style="stroke: #4878d0; stroke-opacity: 0.2"/>
    </defs>
    <g clip-path="url(#pacb459daa1)">
     <use xlink:href="#m4f72bf5362" x="0" y="492.674531" style="fill: #4878d0; fill-opacity: 0.2; stroke: #4878d0; stroke-opacity: 0.2"/>
    </g>
   </g>
   <g id="FillBetweenPolyCollection_2">
    <defs>
     <path id="m09378d3db1" d="M 87.89017 -179.790635 
L 87.89017 -155.244785 
L 121.914665 -145.720867 
L 155.93916 -150.387674 
L 189.963655 -177.503982 
L 223.98815 -225.958113 
L 258.012645 -264.519991 
L 292.03714 -266.675832 
L 326.061635 -218.736914 
L 360.08613 -160.299048 
L 394.110625 -109.684457 
L 428.13512 -89.554088 
L 462.159615 -88.064396 
L 496.18411 -96.529069 
L 530.208605 -108.105968 
L 564.2331 -122.435812 
L 598.257595 -134.075207 
L 632.28209 -141.106965 
L 666.306585 -141.891086 
L 700.33108 -140.010193 
L 700.33108 -166.160693 
L 700.33108 -166.160693 
L 666.306585 -165.233557 
L 632.28209 -161.822501 
L 598.257595 -158.065312 
L 564.2331 -151.21626 
L 530.208605 -140.615228 
L 496.18411 -130.314133 
L 462.159615 -122.99223 
L 428.13512 -130.423342 
L 394.110625 -168.38248 
L 360.08613 -224.244198 
L 326.061635 -300.718066 
L 292.03714 -353.472039 
L 258.012645 -352.656279 
L 223.98815 -297.129492 
L 189.963655 -222.649814 
L 155.93916 -179.053453 
L 121.914665 -174.4164 
L 87.89017 -179.790635 
z
" style="stroke: #4878d0; stroke-opacity: 0.2"/>
    </defs>
    <g clip-path="url(#pacb459daa1)">
     <use xlink:href="#m09378d3db1" x="0" y="492.674531" style="fill: #4878d0; fill-opacity: 0.2; stroke: #4878d0; stroke-opacity: 0.2"/>
    </g>
   </g>
   <g id="FillBetweenPolyCollection_3">
    <defs>
     <path id="m4920336cd0" d="M 87.89017 -162.062437 
L 87.89017 -143.107961 
L 121.914665 -138.346967 
L 155.93916 -145.463041 
L 189.963655 -167.504358 
L 223.98815 -194.71991 
L 258.012645 -203.646135 
L 292.03714 -183.372923 
L 326.061635 -144.058813 
L 360.08613 -111.60125 
L 394.110625 -106.044007 
L 428.13512 -109.296993 
L 462.159615 -121.744735 
L 496.18411 -134.042707 
L 530.208605 -146.941724 
L 564.2331 -153.701563 
L 598.257595 -157.024051 
L 632.28209 -155.432066 
L 666.306585 -152.887658 
L 700.33108 -149.030423 
L 700.33108 -173.438604 
L 700.33108 -173.438604 
L 666.306585 -173.128802 
L 632.28209 -173.956827 
L 598.257595 -176.035489 
L 564.2331 -173.736719 
L 530.208605 -168.58259 
L 496.18411 -159.794338 
L 462.159615 -150.95986 
L 428.13512 -141.181145 
L 394.110625 -141.223528 
L 360.08613 -152.820641 
L 326.061635 -183.952564 
L 292.03714 -222.549234 
L 258.012645 -252.821466 
L 223.98815 -245.92997 
L 189.963655 -208.99599 
L 155.93916 -171.109684 
L 121.914665 -158.500745 
L 87.89017 -162.062437 
z
" style="stroke: #ee854a; stroke-opacity: 0.2"/>
    </defs>
    <g clip-path="url(#pacb459daa1)">
     <use xlink:href="#m4920336cd0" x="0" y="492.674531" style="fill: #ee854a; fill-opacity: 0.2; stroke: #ee854a; stroke-opacity: 0.2"/>
    </g>
   </g>
   <g id="FillBetweenPolyCollection_4">
    <defs>
     <path id="m5788a8521a" d="M 87.89017 -169.626765 
L 87.89017 -150.9848 
L 121.914665 -149.036254 
L 155.93916 -156.569659 
L 189.963655 -170.483342 
L 223.98815 -181.748195 
L 258.012645 -182.117119 
L 292.03714 -168.078937 
L 326.061635 -138.68004 
L 360.08613 -111.508988 
L 394.110625 -112.418561 
L 428.13512 -130.101638 
L 462.159615 -145.615221 
L 496.18411 -154.659444 
L 530.208605 -158.605976 
L 564.2331 -160.852782 
L 598.257595 -162.41035 
L 632.28209 -161.439863 
L 666.306585 -160.276007 
L 700.33108 -160.742711 
L 700.33108 -188.769036 
L 700.33108 -188.769036 
L 666.306585 -183.747051 
L 632.28209 -182.131451 
L 598.257595 -180.487946 
L 564.2331 -182.539468 
L 530.208605 -182.924177 
L 496.18411 -181.117617 
L 462.159615 -171.552816 
L 428.13512 -160.710814 
L 394.110625 -153.045232 
L 360.08613 -154.027195 
L 326.061635 -169.034212 
L 292.03714 -198.6685 
L 258.012645 -229.864037 
L 223.98815 -228.692875 
L 189.963655 -201.82362 
L 155.93916 -175.446025 
L 121.914665 -167.12469 
L 87.89017 -169.626765 
z
" style="stroke: #ee854a; stroke-opacity: 0.2"/>
    </defs>
    <g clip-path="url(#pacb459daa1)">
     <use xlink:href="#m5788a8521a" x="0" y="492.674531" style="fill: #ee854a; fill-opacity: 0.2; stroke: #ee854a; stroke-opacity: 0.2"/>
    </g>
   </g>
   <g id="line2d_14">
    <path d="M 87.89017 341.687154 
L 121.914665 354.00394 
L 155.93916 337.758194 
L 189.963655 273.017719 
L 223.98815 180.702672 
L 258.012645 108.949903 
L 292.03714 96.400204 
L 326.061635 145.428235 
L 360.08613 227.154625 
L 394.110625 306.598517 
L 428.13512 364.091365 
L 462.159615 395.731874 
L 496.18411 404.668476 
L 530.208605 400.387296 
L 564.2331 388.396722 
L 598.257595 376.092939 
L 632.28209 367.810798 
L 666.306585 364.640071 
L 700.33108 365.216954 
" clip-path="url(#pacb459daa1)" style="fill: none; stroke: #4878d0; stroke-width: 2.5; stroke-linecap: round"/>
    <defs>
     <path id="m148b2af0ab" d="M 0 3 
C 0.795609 3 1.55874 2.683901 2.12132 2.12132 
C 2.683901 1.55874 3 0.795609 3 0 
C 3 -0.795609 2.683901 -1.55874 2.12132 -2.12132 
C 1.55874 -2.683901 0.795609 -3 0 -3 
C -0.795609 -3 -1.55874 -2.683901 -2.12132 -2.12132 
C -2.683901 -1.55874 -3 -0.795609 -3 0 
C -3 0.795609 -2.683901 1.55874 -2.12132 2.12132 
C -1.55874 2.683901 -0.795609 3 0 3 
z
" style="stroke: #ffffff; stroke-width: 0.75"/>
    </defs>
    <g clip-path="url(#pacb459daa1)">
     <use xlink:href="#m148b2af0ab" x="87.89017" y="341.687154" style="fill: #4878d0; stroke: #ffffff; stroke-width: 0.75"/>
     <use xlink:href="#m148b2af0ab" x="121.914665" y="354.00394" style="fill: #4878d0; stroke: #ffffff; stroke-width: 0.75"/>
     <use xlink:href="#m148b2af0ab" x="155.93916" y="337.758194" style="fill: #4878d0; stroke: #ffffff; stroke-width: 0.75"/>
     <use xlink:href="#m148b2af0ab" x="189.963655" y="273.017719" style="fill: #4878d0; stroke: #ffffff; stroke-width: 0.75"/>
     <use xlink:href="#m148b2af0ab" x="223.98815" y="180.702672" style="fill: #4878d0; stroke: #ffffff; stroke-width: 0.75"/>
     <use xlink:href="#m148b2af0ab" x="258.012645" y="108.949903" style="fill: #4878d0; stroke: #ffffff; stroke-width: 0.75"/>
     <use xlink:href="#m148b2af0ab" x="292.03714" y="96.400204" style="fill: #4878d0; stroke: #ffffff; stroke-width: 0.75"/>
     <use xlink:href="#m148b2af0ab" x="326.061635" y="145.428235" style="fill: #4878d0; stroke: #ffffff; stroke-width: 0.75"/>
     <use xlink:href="#m148b2af0ab" x="360.08613" y="227.154625" style="fill: #4878d0; stroke: #ffffff; stroke-width: 0.75"/>
     <use xlink:href="#m148b2af0ab" x="394.110625" y="306.598517" style="fill: #4878d0; stroke: #ffffff; stroke-width: 0.75"/>
     <use xlink:href="#m148b2af0ab" x="428.13512" y="364.091365" style="fill: #4878d0; stroke: #ffffff; stroke-width: 0.75"/>
     <use xlink:href="#m148b2af0ab" x="462.159615" y="395.731874" style="fill: #4878d0; stroke: #ffffff; stroke-width: 0.75"/>
     <use xlink:href="#m148b2af0ab" x="496.18411" y="404.668476" style="fill: #4878d0; stroke: #ffffff; stroke-width: 0.75"/>
     <use xlink:href="#m148b2af0ab" x="530.208605" y="400.387296" style="fill: #4878d0; stroke: #ffffff; stroke-width: 0.75"/>
     <use xlink:href="#m148b2af0ab" x="564.2331" y="388.396722" style="fill: #4878d0; stroke: #ffffff; stroke-width: 0.75"/>
     <use xlink:href="#m148b2af0ab" x="598.257595" y="376.092939" style="fill: #4878d0; stroke: #ffffff; stroke-width: 0.75"/>
     <use xlink:href="#m148b2af0ab" x="632.28209" y="367.810798" style="fill: #4878d0; stroke: #ffffff; stroke-width: 0.75"/>
     <use xlink:href="#m148b2af0ab" x="666.306585" y="364.640071" style="fill: #4878d0; stroke: #ffffff; stroke-width: 0.75"/>
     <use xlink:href="#m148b2af0ab" x="700.33108" y="365.216954" style="fill: #4878d0; stroke: #ffffff; stroke-width: 0.75"/>
    </g>
   </g>
   <g id="line2d_15">
    <path d="M 87.89017 326.040163 
L 121.914665 334.234475 
L 155.93916 329.560821 
L 189.963655 292.795281 
L 223.98815 231.727805 
L 258.012645 184.228975 
L 292.03714 184.963085 
L 326.061635 234.172371 
L 360.08613 301.937418 
L 394.110625 355.266139 
L 428.13512 381.959163 
L 462.159615 387.035037 
L 496.18411 379.626355 
L 530.208605 367.824662 
L 564.2331 355.079912 
L 598.257595 345.766856 
L 632.28209 341.157927 
L 666.306585 339.440507 
L 700.33108 339.971703 
" clip-path="url(#pacb459daa1)" style="fill: none; stroke-dasharray: 10,3.75; stroke-dashoffset: 0; stroke: #4878d0; stroke-width: 2.5"/>
    <defs>
     <path id="mc03ab12869" d="M -1.5 3 
L 0 1.5 
L 1.5 3 
L 3 1.5 
L 1.5 0 
L 3 -1.5 
L 1.5 -3 
L 0 -1.5 
L -1.5 -3 
L -3 -1.5 
L -1.5 0 
L -3 1.5 
z
" style="stroke: #ffffff; stroke-width: 0.75; stroke-linejoin: miter"/>
    </defs>
    <g clip-path="url(#pacb459daa1)">
     <use xlink:href="#mc03ab12869" x="87.89017" y="326.040163" style="fill: #4878d0; stroke: #ffffff; stroke-width: 0.75; stroke-linejoin: miter"/>
     <use xlink:href="#mc03ab12869" x="121.914665" y="334.234475" style="fill: #4878d0; stroke: #ffffff; stroke-width: 0.75; stroke-linejoin: miter"/>
     <use xlink:href="#mc03ab12869" x="155.93916" y="329.560821" style="fill: #4878d0; stroke: #ffffff; stroke-width: 0.75; stroke-linejoin: miter"/>
     <use xlink:href="#mc03ab12869" x="189.963655" y="292.795281" style="fill: #4878d0; stroke: #ffffff; stroke-width: 0.75; stroke-linejoin: miter"/>
     <use xlink:href="#mc03ab12869" x="223.98815" y="231.727805" style="fill: #4878d0; stroke: #ffffff; stroke-width: 0.75; stroke-linejoin: miter"/>
     <use xlink:href="#mc03ab12869" x="258.012645" y="184.228975" style="fill: #4878d0; stroke: #ffffff; stroke-width: 0.75; stroke-linejoin: miter"/>
     <use xlink:href="#mc03ab12869" x="292.03714" y="184.963085" style="fill: #4878d0; stroke: #ffffff; stroke-width: 0.75; stroke-linejoin: miter"/>
     <use xlink:href="#mc03ab12869" x="326.061635" y="234.172371" style="fill: #4878d0; stroke: #ffffff; stroke-width: 0.75; stroke-linejoin: miter"/>
     <use xlink:href="#mc03ab12869" x="360.08613" y="301.937418" style="fill: #4878d0; stroke: #ffffff; stroke-width: 0.75; stroke-linejoin: miter"/>
     <use xlink:href="#mc03ab12869" x="394.110625" y="355.266139" style="fill: #4878d0; stroke: #ffffff; stroke-width: 0.75; stroke-linejoin: miter"/>
     <use xlink:href="#mc03ab12869" x="428.13512" y="381.959163" style="fill: #4878d0; stroke: #ffffff; stroke-width: 0.75; stroke-linejoin: miter"/>
     <use xlink:href="#mc03ab12869" x="462.159615" y="387.035037" style="fill: #4878d0; stroke: #ffffff; stroke-width: 0.75; stroke-linejoin: miter"/>
     <use xlink:href="#mc03ab12869" x="496.18411" y="379.626355" style="fill: #4878d0; stroke: #ffffff; stroke-width: 0.75; stroke-linejoin: miter"/>
     <use xlink:href="#mc03ab12869" x="530.208605" y="367.824662" style="fill: #4878d0; stroke: #ffffff; stroke-width: 0.75; stroke-linejoin: miter"/>
     <use xlink:href="#mc03ab12869" x="564.2331" y="355.079912" style="fill: #4878d0; stroke: #ffffff; stroke-width: 0.75; stroke-linejoin: miter"/>
     <use xlink:href="#mc03ab12869" x="598.257595" y="345.766856" style="fill: #4878d0; stroke: #ffffff; stroke-width: 0.75; stroke-linejoin: miter"/>
     <use xlink:href="#mc03ab12869" x="632.28209" y="341.157927" style="fill: #4878d0; stroke: #ffffff; stroke-width: 0.75; stroke-linejoin: miter"/>
     <use xlink:href="#mc03ab12869" x="666.306585" y="339.440507" style="fill: #4878d0; stroke: #ffffff; stroke-width: 0.75; stroke-linejoin: miter"/>
     <use xlink:href="#mc03ab12869" x="700.33108" y="339.971703" style="fill: #4878d0; stroke: #ffffff; stroke-width: 0.75; stroke-linejoin: miter"/>
    </g>
   </g>
   <g id="line2d_16">
    <path d="M 87.89017 340.230161 
L 121.914665 344.31715 
L 155.93916 334.11148 
L 189.963655 304.308122 
L 223.98815 272.955249 
L 258.012645 266.555048 
L 292.03714 290.331233 
L 326.061635 328.23472 
L 360.08613 357.551279 
L 394.110625 368.681247 
L 428.13512 365.550704 
L 462.159615 356.084725 
L 496.18411 344.887349 
L 530.208605 335.461951 
L 564.2331 329.127022 
L 598.257595 326.168781 
L 632.28209 327.838013 
L 666.306585 329.888124 
L 700.33108 331.629083 
" clip-path="url(#pacb459daa1)" style="fill: none; stroke: #ee854a; stroke-width: 2.5; stroke-linecap: round"/>
    <defs>
     <path id="mb5ad1be24c" d="M 0 3 
C 0.795609 3 1.55874 2.683901 2.12132 2.12132 
C 2.683901 1.55874 3 0.795609 3 0 
C 3 -0.795609 2.683901 -1.55874 2.12132 -2.12132 
C 1.55874 -2.683901 0.795609 -3 0 -3 
C -0.795609 -3 -1.55874 -2.683901 -2.12132 -2.12132 
C -2.683901 -1.55874 -3 -0.795609 -3 0 
C -3 0.795609 -2.683901 1.55874 -2.12132 2.12132 
C -1.55874 2.683901 -0.795609 3 0 3 
z
" style="stroke: #ffffff; stroke-width: 0.75"/>
    </defs>
    <g clip-path="url(#pacb459daa1)">
     <use xlink:href="#mb5ad1be24c" x="87.89017" y="340.230161" style="fill: #ee854a; stroke: #ffffff; stroke-width: 0.75"/>
     <use xlink:href="#mb5ad1be24c" x="121.914665" y="344.31715" style="fill: #ee854a; stroke: #ffffff; stroke-width: 0.75"/>
     <use xlink:href="#mb5ad1be24c" x="155.93916" y="334.11148" style="fill: #ee854a; stroke: #ffffff; stroke-width: 0.75"/>
     <use xlink:href="#mb5ad1be24c" x="189.963655" y="304.308122" style="fill: #ee854a; stroke: #ffffff; stroke-width: 0.75"/>
     <use xlink:href="#mb5ad1be24c" x="223.98815" y="272.955249" style="fill: #ee854a; stroke: #ffffff; stroke-width: 0.75"/>
     <use xlink:href="#mb5ad1be24c" x="258.012645" y="266.555048" style="fill: #ee854a; stroke: #ffffff; stroke-width: 0.75"/>
     <use xlink:href="#mb5ad1be24c" x="292.03714" y="290.331233" style="fill: #ee854a; stroke: #ffffff; stroke-width: 0.75"/>
     <use xlink:href="#mb5ad1be24c" x="326.061635" y="328.23472" style="fill: #ee854a; stroke: #ffffff; stroke-width: 0.75"/>
     <use xlink:href="#mb5ad1be24c" x="360.08613" y="357.551279" style="fill: #ee854a; stroke: #ffffff; stroke-width: 0.75"/>
     <use xlink:href="#mb5ad1be24c" x="394.110625" y="368.681247" style="fill: #ee854a; stroke: #ffffff; stroke-width: 0.75"/>
     <use xlink:href="#mb5ad1be24c" x="428.13512" y="365.550704" style="fill: #ee854a; stroke: #ffffff; stroke-width: 0.75"/>
     <use xlink:href="#mb5ad1be24c" x="462.159615" y="356.084725" style="fill: #ee854a; stroke: #ffffff; stroke-width: 0.75"/>
     <use xlink:href="#mb5ad1be24c" x="496.18411" y="344.887349" style="fill: #ee854a; stroke: #ffffff; stroke-width: 0.75"/>
     <use xlink:href="#mb5ad1be24c" x="530.208605" y="335.461951" style="fill: #ee854a; stroke: #ffffff; stroke-width: 0.75"/>
     <use xlink:href="#mb5ad1be24c" x="564.2331" y="329.127022" style="fill: #ee854a; stroke: #ffffff; stroke-width: 0.75"/>
     <use xlink:href="#mb5ad1be24c" x="598.257595" y="326.168781" style="fill: #ee854a; stroke: #ffffff; stroke-width: 0.75"/>
     <use xlink:href="#mb5ad1be24c" x="632.28209" y="327.838013" style="fill: #ee854a; stroke: #ffffff; stroke-width: 0.75"/>
     <use xlink:href="#mb5ad1be24c" x="666.306585" y="329.888124" style="fill: #ee854a; stroke: #ffffff; stroke-width: 0.75"/>
     <use xlink:href="#mb5ad1be24c" x="700.33108" y="331.629083" style="fill: #ee854a; stroke: #ffffff; stroke-width: 0.75"/>
    </g>
   </g>
   <g id="line2d_17">
    <path d="M 87.89017 332.242553 
L 121.914665 334.214021 
L 155.93916 326.699817 
L 189.963655 307.258673 
L 223.98815 288.902988 
L 258.012645 288.61537 
L 292.03714 309.18248 
L 326.061635 338.24408 
L 360.08613 357.721591 
L 394.110625 358.649534 
L 428.13512 346.548315 
L 462.159615 333.664551 
L 496.18411 325.274843 
L 530.208605 322.130681 
L 564.2331 321.751001 
L 598.257595 321.53878 
L 632.28209 321.72027 
L 666.306585 321.224965 
L 700.33108 319.966819 
" clip-path="url(#pacb459daa1)" style="fill: none; stroke-dasharray: 10,3.75; stroke-dashoffset: 0; stroke: #ee854a; stroke-width: 2.5"/>
    <defs>
     <path id="mcc011d66f9" d="M -1.5 3 
L 0 1.5 
L 1.5 3 
L 3 1.5 
L 1.5 0 
L 3 -1.5 
L 1.5 -3 
L 0 -1.5 
L -1.5 -3 
L -3 -1.5 
L -1.5 0 
L -3 1.5 
z
" style="stroke: #ffffff; stroke-width: 0.75; stroke-linejoin: miter"/>
    </defs>
    <g clip-path="url(#pacb459daa1)">
     <use xlink:href="#mcc011d66f9" x="87.89017" y="332.242553" style="fill: #ee854a; stroke: #ffffff; stroke-width: 0.75; stroke-linejoin: miter"/>
     <use xlink:href="#mcc011d66f9" x="121.914665" y="334.214021" style="fill: #ee854a; stroke: #ffffff; stroke-width: 0.75; stroke-linejoin: miter"/>
     <use xlink:href="#mcc011d66f9" x="155.93916" y="326.699817" style="fill: #ee854a; stroke: #ffffff; stroke-width: 0.75; stroke-linejoin: miter"/>
     <use xlink:href="#mcc011d66f9" x="189.963655" y="307.258673" style="fill: #ee854a; stroke: #ffffff; stroke-width: 0.75; stroke-linejoin: miter"/>
     <use xlink:href="#mcc011d66f9" x="223.98815" y="288.902988" style="fill: #ee854a; stroke: #ffffff; stroke-width: 0.75; stroke-linejoin: miter"/>
     <use xlink:href="#mcc011d66f9" x="258.012645" y="288.61537" style="fill: #ee854a; stroke: #ffffff; stroke-width: 0.75; stroke-linejoin: miter"/>
     <use xlink:href="#mcc011d66f9" x="292.03714" y="309.18248" style="fill: #ee854a; stroke: #ffffff; stroke-width: 0.75; stroke-linejoin: miter"/>
     <use xlink:href="#mcc011d66f9" x="326.061635" y="338.24408" style="fill: #ee854a; stroke: #ffffff; stroke-width: 0.75; stroke-linejoin: miter"/>
     <use xlink:href="#mcc011d66f9" x="360.08613" y="357.721591" style="fill: #ee854a; stroke: #ffffff; stroke-width: 0.75; stroke-linejoin: miter"/>
     <use xlink:href="#mcc011d66f9" x="394.110625" y="358.649534" style="fill: #ee854a; stroke: #ffffff; stroke-width: 0.75; stroke-linejoin: miter"/>
     <use xlink:href="#mcc011d66f9" x="428.13512" y="346.548315" style="fill: #ee854a; stroke: #ffffff; stroke-width: 0.75; stroke-linejoin: miter"/>
     <use xlink:href="#mcc011d66f9" x="462.159615" y="333.664551" style="fill: #ee854a; stroke: #ffffff; stroke-width: 0.75; stroke-linejoin: miter"/>
     <use xlink:href="#mcc011d66f9" x="496.18411" y="325.274843" style="fill: #ee854a; stroke: #ffffff; stroke-width: 0.75; stroke-linejoin: miter"/>
     <use xlink:href="#mcc011d66f9" x="530.208605" y="322.130681" style="fill: #ee854a; stroke: #ffffff; stroke-width: 0.75; stroke-linejoin: miter"/>
     <use xlink:href="#mcc011d66f9" x="564.2331" y="321.751001" style="fill: #ee854a; stroke: #ffffff; stroke-width: 0.75; stroke-linejoin: miter"/>
     <use xlink:href="#mcc011d66f9" x="598.257595" y="321.53878" style="fill: #ee854a; stroke: #ffffff; stroke-width: 0.75; stroke-linejoin: miter"/>
     <use xlink:href="#mcc011d66f9" x="632.28209" y="321.72027" style="fill: #ee854a; stroke: #ffffff; stroke-width: 0.75; stroke-linejoin: miter"/>
     <use xlink:href="#mcc011d66f9" x="666.306585" y="321.224965" style="fill: #ee854a; stroke: #ffffff; stroke-width: 0.75; stroke-linejoin: miter"/>
     <use xlink:href="#mcc011d66f9" x="700.33108" y="319.966819" style="fill: #ee854a; stroke: #ffffff; stroke-width: 0.75; stroke-linejoin: miter"/>
    </g>
   </g>
   <g id="line2d_18"/>
   <g id="line2d_19"/>
   <g id="line2d_20"/>
   <g id="line2d_21"/>
   <g id="line2d_22"/>
   <g id="line2d_23"/>
   <g id="line2d_24">
    <path d="M 57.268125 321.779655 
L 730.953125 321.779655 
" clip-path="url(#pacb459daa1)" style="fill: none; stroke-dasharray: 3.7,1.6; stroke-dashoffset: 0; stroke: #000000"/>
   </g>
   <g id="patch_3">
    <path d="M 57.268125 449.52875 
L 57.268125 26.3525 
" style="fill: none; stroke: #262626; stroke-width: 1.25; stroke-linejoin: miter; stroke-linecap: square"/>
   </g>
   <g id="patch_4">
    <path d="M 730.953125 449.52875 
L 730.953125 26.3525 
" style="fill: none; stroke: #262626; stroke-width: 1.25; stroke-linejoin: miter; stroke-linecap: square"/>
   </g>
   <g id="patch_5">
    <path d="M 57.268125 449.52875 
L 730.953125 449.52875 
" style="fill: none; stroke: #262626; stroke-width: 1.25; stroke-linejoin: miter; stroke-linecap: square"/>
   </g>
   <g id="patch_6">
    <path d="M 57.268125 26.3525 
L 730.953125 26.3525 
" style="fill: none; stroke: #262626; stroke-width: 1.25; stroke-linejoin: miter; stroke-linecap: square"/>
   </g>
   <g id="text_16">
    <!-- 자극 종류(Event) 및 뇌 부위(Region)에 따른 뇌파 변화 비교 -->
    <g style="fill: #262626" transform="translate(176.643125 20.3525) scale(0.16 -0.16)">
     <defs>
      <path id="AppleGothic-c790" d="M 6010 2067 
L 5139 2067 
L 5126 1037 
L 5139 -531 
L 4653 -531 
L 4672 4717 
Q 4672 4960 4665 5056 
Q 4659 5152 4646 5190 
L 4832 5197 
Q 4966 5197 5078 5174 
Q 5190 5152 5190 5101 
Q 5190 5075 5164 4998 
Q 5139 4922 5139 4883 
L 5126 3968 
L 5139 2470 
L 6010 2483 
L 6010 2067 
z
M 4218 1158 
Q 4211 1120 4195 1107 
Q 4179 1094 4144 1072 
Q 4109 1050 4057 1008 
Q 4006 966 3930 883 
Q 3923 870 3885 832 
Q 3814 877 3760 909 
Q 3706 941 3661 973 
Q 3392 1158 3174 1369 
Q 2957 1581 2790 1818 
Q 2720 1914 2643 2045 
Q 2566 2176 2477 2349 
Q 2445 2406 2406 2486 
Q 2368 2566 2317 2662 
Q 2285 2592 2259 2534 
Q 2234 2477 2208 2426 
Q 2061 2157 1901 1926 
Q 1741 1696 1568 1510 
Q 1446 1382 1289 1235 
Q 1133 1088 928 922 
Q 858 864 736 768 
Q 685 819 666 832 
Q 582 915 531 934 
Q 326 1011 326 1050 
Q 326 1056 358 1088 
Q 371 1101 387 1110 
Q 403 1120 416 1133 
Q 538 1222 627 1292 
Q 717 1363 787 1414 
Q 1197 1741 1402 2003 
Q 1766 2458 1942 2922 
Q 2118 3386 2118 3936 
L 2106 4218 
L 1568 4224 
L 646 4198 
L 646 4640 
Q 960 4627 1347 4620 
Q 1734 4614 2144 4614 
L 2330 4614 
Q 2803 4614 3212 4627 
Q 3622 4640 4000 4659 
L 4000 4230 
L 3296 4237 
L 2592 4218 
Q 2579 4122 2576 4042 
Q 2573 3962 2566 3898 
Q 2554 3712 2547 3561 
Q 2541 3411 2541 3296 
Q 2592 2995 2778 2656 
Q 2861 2502 2969 2342 
Q 3078 2182 3213 2003 
Q 3334 1850 3472 1715 
Q 3610 1581 3757 1466 
Q 3808 1434 3872 1389 
Q 3936 1344 4019 1293 
Q 4026 1286 4128 1235 
Q 4218 1184 4218 1158 
z
" transform="scale(0.015625)"/>
      <path id="AppleGothic-adf9" d="M 5101 371 
L 5094 -403 
L 4672 -410 
L 4685 352 
Q 4685 563 4685 723 
Q 4685 883 4681 1001 
Q 4678 1120 4675 1206 
Q 4672 1293 4672 1363 
L 3098 1363 
Q 2829 1363 2486 1356 
Q 2144 1350 1734 1338 
Q 1600 1331 1424 1328 
Q 1248 1325 1024 1312 
L 1024 1747 
Q 1395 1734 1862 1724 
Q 2330 1715 2854 1715 
L 5088 1760 
L 5101 371 
z
M 6022 2547 
L 5619 2547 
Q 4090 2566 3821 2566 
Q 3437 2566 3126 2563 
Q 2816 2560 2573 2554 
Q 2112 2547 1427 2534 
Q 1088 2534 829 2531 
Q 570 2528 378 2528 
L 378 2906 
Q 755 2893 1267 2886 
Q 1779 2880 2515 2880 
L 2675 2880 
Q 3123 2880 3520 2889 
Q 3917 2899 4262 2912 
Q 4384 2912 4557 2931 
Q 4570 2995 4582 3043 
Q 4595 3091 4608 3136 
Q 4634 3258 4662 3414 
Q 4691 3571 4720 3740 
Q 4749 3910 4774 4083 
Q 4800 4256 4819 4416 
Q 4819 4442 4822 4467 
Q 4826 4493 4832 4525 
Q 4563 4538 4160 4544 
Q 3757 4550 3117 4550 
L 2995 4550 
Q 2445 4550 1917 4537 
Q 1389 4525 954 4512 
L 954 4909 
Q 1062 4909 1289 4905 
Q 1517 4902 1875 4896 
Q 2234 4890 2470 4890 
Q 2707 4890 2829 4890 
L 5306 4896 
Q 5306 4646 5190 3910 
Q 5126 3539 5078 3296 
Q 5030 3053 4986 2931 
L 5197 2944 
L 5446 2925 
L 6022 2931 
L 6022 2547 
z
" transform="scale(0.015625)"/>
      <path id="AppleGothic-c885" d="M 4858 410 
Q 4858 794 4378 941 
Q 4013 1056 3238 1056 
L 3053 1056 
Q 2394 1056 2054 934 
Q 1594 781 1594 403 
Q 1626 90 2093 -51 
Q 2298 -115 2586 -144 
Q 2874 -173 3251 -173 
Q 4083 -173 4470 -29 
Q 4858 115 4858 410 
z
M 5338 410 
Q 5338 -128 4653 -390 
Q 4128 -576 3258 -576 
Q 2323 -576 1766 -371 
Q 1107 -115 1107 403 
Q 1107 915 1683 1178 
Q 2272 1434 3245 1434 
Q 4173 1434 4691 1222 
Q 5338 973 5338 410 
z
M 6016 2003 
Q 5907 2010 5814 2010 
Q 5722 2010 5645 2010 
Q 5088 2022 4617 2028 
Q 4147 2035 3750 2035 
L 3187 2035 
Q 2394 2035 1754 2016 
Q 1434 2010 1110 2006 
Q 787 2003 442 1990 
L 397 1990 
L 397 2406 
Q 474 2349 1722 2349 
L 2970 2362 
L 2976 2963 
Q 2976 3053 2969 3133 
Q 2963 3213 2950 3290 
Q 3174 3290 3331 3277 
Q 3488 3264 3488 3187 
Q 3488 3174 3465 3097 
Q 3443 3021 3443 2963 
L 3443 2368 
L 4749 2381 
Q 5197 2381 5494 2397 
Q 5792 2413 6016 2438 
L 6016 2003 
z
M 5645 3270 
L 5370 2906 
Q 5222 2931 5104 2953 
Q 4986 2976 4896 3002 
Q 4346 3142 3936 3437 
Q 3770 3558 3638 3683 
Q 3507 3808 3398 3942 
Q 3366 3987 3334 4041 
Q 3302 4096 3264 4154 
Q 3206 4077 3155 4006 
Q 3104 3936 3059 3885 
Q 2912 3718 2736 3580 
Q 2560 3443 2355 3315 
Q 2048 3117 1510 2982 
Q 1427 2957 1315 2934 
Q 1203 2912 1056 2880 
L 877 3059 
Q 723 3200 723 3226 
Q 749 3258 832 3264 
Q 915 3270 1024 3283 
Q 1331 3328 1593 3417 
Q 1856 3507 2093 3635 
Q 2624 3942 2848 4307 
Q 2925 4429 2970 4614 
Q 2803 4627 2585 4633 
Q 2368 4640 2086 4640 
Q 1856 4640 1581 4633 
Q 1306 4627 1075 4614 
L 1075 4998 
Q 1197 4998 1469 4995 
Q 1741 4992 2163 4986 
Q 2592 4979 2861 4979 
Q 3130 4979 3251 4979 
Q 3610 4979 3907 4982 
Q 4205 4986 4457 4992 
Q 4710 4998 4928 5004 
Q 5146 5011 5344 5024 
L 5344 4634 
L 4333 4646 
Q 4109 4646 3965 4646 
Q 3821 4646 3750 4640 
Q 3680 4640 3625 4637 
Q 3571 4634 3520 4627 
Q 3520 4493 3590 4352 
Q 3699 4122 4013 3878 
Q 4435 3558 5069 3392 
Q 5267 3347 5619 3296 
Q 5638 3296 5645 3270 
z
" transform="scale(0.015625)"/>
      <path id="AppleGothic-b958" d="M 6054 1779 
L 4390 1805 
L 4390 966 
Q 4390 141 4429 -499 
L 3968 -518 
L 3994 1805 
L 2451 1805 
L 2477 -480 
L 2003 -499 
Q 2016 -230 2022 134 
Q 2029 499 2029 992 
L 2029 1805 
Q 1747 1805 1190 1786 
Q 621 1766 339 1766 
L 339 2195 
Q 397 2195 537 2192 
Q 678 2189 902 2182 
Q 1350 2170 2035 2163 
Q 2381 2157 2656 2157 
Q 2931 2157 3136 2157 
Q 3546 2157 3866 2157 
Q 4186 2157 4410 2163 
Q 4640 2170 4873 2170 
Q 5107 2170 5344 2176 
Q 5811 2182 6054 2195 
L 6054 1779 
z
M 5184 2720 
L 3488 2739 
L 1350 2720 
Q 1357 2797 1357 2902 
Q 1357 3008 1363 3136 
Q 1370 3277 1370 3353 
Q 1370 3430 1370 3456 
L 1357 4064 
Q 1722 4051 2186 4044 
Q 2650 4038 3174 4038 
L 4614 4038 
L 4614 4608 
L 3226 4614 
Q 2867 4614 2585 4614 
Q 2304 4614 2099 4608 
Q 1894 4602 1705 4598 
Q 1517 4595 1350 4582 
L 1350 4954 
Q 1498 4947 1715 4947 
Q 1933 4947 2234 4941 
Q 2534 4934 2796 4934 
Q 3059 4934 3283 4934 
L 5088 4947 
L 5075 4339 
L 5088 3680 
L 3232 3699 
L 1824 3693 
L 1824 3078 
L 3514 3072 
Q 3942 3072 4230 3072 
Q 4518 3072 4672 3078 
Q 4832 3085 4957 3088 
Q 5082 3091 5184 3104 
L 5184 2720 
z
" transform="scale(0.015625)"/>
      <path id="AppleGothic-45" d="M 282 5024 
L 3405 5024 
L 3405 4582 
L 787 4582 
L 787 2848 
L 3309 2848 
L 3309 2406 
L 787 2406 
L 787 442 
L 3424 442 
L 3424 0 
L 282 0 
L 282 5024 
z
" transform="scale(0.015625)"/>
      <path id="AppleGothic-76" d="M 109 3424 
L 627 3424 
L 1715 486 
L 2829 3424 
L 3290 3424 
L 1920 0 
L 1478 0 
L 109 3424 
z
" transform="scale(0.015625)"/>
      <path id="AppleGothic-bc0f" d="M 3046 2893 
L 3046 4442 
L 2285 4454 
L 1363 4442 
L 1363 2893 
Q 1453 2886 1571 2886 
Q 1690 2886 1837 2880 
Q 1990 2874 2086 2874 
Q 2182 2874 2227 2874 
L 2797 2874 
Q 2931 2880 3046 2893 
z
M 5664 -70 
Q 5664 -83 5581 -141 
Q 5523 -192 5449 -297 
Q 5376 -403 5344 -467 
Q 5267 -448 5203 -429 
Q 5139 -410 5082 -397 
Q 4934 -346 4752 -262 
Q 4570 -179 4346 -70 
Q 4179 19 4022 131 
Q 3866 243 3718 384 
Q 3667 422 3616 483 
Q 3565 544 3501 627 
Q 3462 506 3254 310 
Q 3046 115 2752 -70 
Q 2618 -147 2432 -220 
Q 2246 -294 2003 -365 
Q 1926 -390 1820 -409 
Q 1715 -429 1581 -461 
Q 1568 -435 1565 -422 
Q 1562 -410 1555 -397 
Q 1542 -352 1500 -301 
Q 1459 -250 1414 -205 
Q 1370 -160 1331 -128 
Q 1293 -96 1286 -77 
Q 1312 -51 1395 -48 
Q 1478 -45 1574 -32 
Q 2157 51 2557 278 
Q 2957 506 3149 794 
Q 3213 890 3270 1037 
Q 2976 1037 2374 1018 
Q 1779 998 1472 998 
L 1466 1363 
Q 1555 1363 1760 1360 
Q 1965 1357 2291 1350 
Q 2618 1344 2851 1344 
Q 3085 1344 3219 1344 
L 3565 1344 
Q 3923 1344 4208 1347 
Q 4493 1350 4717 1357 
Q 4941 1363 5142 1369 
Q 5344 1376 5530 1389 
L 5530 1018 
L 5402 1018 
Q 5171 1018 4918 1024 
Q 4666 1030 4435 1037 
L 3744 1030 
Q 3757 998 3769 969 
Q 3782 941 3795 922 
Q 3878 781 4028 649 
Q 4179 518 4397 384 
Q 4582 269 4790 185 
Q 4998 102 5222 45 
Q 5299 32 5395 13 
Q 5491 -6 5600 -26 
Q 5626 -38 5651 -58 
L 5664 -70 
z
M 4294 1664 
Q 4237 1664 4141 1664 
Q 4045 1664 3898 1670 
Q 3629 1677 3456 1690 
Q 3290 1690 3062 1680 
Q 2835 1670 2592 1664 
L 2592 2035 
Q 2605 2035 2688 2032 
Q 2771 2029 2931 2022 
Q 3091 2016 3219 2013 
Q 3347 2010 3443 2010 
Q 3539 2010 3660 2013 
Q 3782 2016 3930 2022 
Q 4083 2029 4172 2032 
Q 4262 2035 4294 2035 
L 4294 1664 
z
M 3501 2522 
L 2362 2534 
L 890 2515 
L 909 3686 
L 890 4787 
L 2118 4768 
L 3501 4787 
L 3482 3686 
L 3501 2522 
z
M 5427 5120 
Q 5427 5056 5421 5030 
Q 5408 4954 5401 4902 
Q 5395 4851 5395 4819 
Q 5382 4646 5376 4406 
Q 5370 4166 5370 3802 
Q 5370 3462 5370 3212 
Q 5370 2963 5376 2790 
Q 5382 2611 5385 2454 
Q 5389 2298 5402 2163 
L 4915 2138 
Q 4922 2259 4931 2412 
Q 4941 2566 4947 2764 
Q 4954 2963 4957 3216 
Q 4960 3469 4960 3795 
Q 4960 4038 4953 4294 
Q 4947 4550 4934 4819 
Q 4928 4909 4921 5017 
Q 4915 5126 4902 5254 
L 5088 5261 
Q 5235 5261 5331 5235 
Q 5427 5210 5427 5120 
z
" transform="scale(0.015625)"/>
      <path id="AppleGothic-b1cc" d="M 5414 5062 
Q 5414 5050 5402 4986 
Q 5370 4858 5370 4794 
L 5376 4467 
L 5357 2323 
L 5357 -493 
L 4909 -518 
L 4928 1094 
L 2643 960 
L 902 890 
Q 851 877 803 864 
Q 755 851 704 838 
Q 602 838 531 1101 
Q 506 1197 506 1286 
L 2470 1357 
L 2483 2035 
L 2470 2733 
L 1018 2720 
L 1030 3482 
L 1018 4621 
L 1082 4621 
Q 1267 4621 1392 4595 
Q 1517 4570 1517 4480 
Q 1517 4422 1510 4403 
Q 1478 4256 1478 4250 
L 1478 3078 
Q 2042 3078 3053 3098 
Q 3552 3110 3872 3116 
Q 4192 3123 4339 3123 
L 4339 2733 
L 2912 2726 
L 2899 2042 
L 2912 1376 
Q 2976 1382 3024 1382 
Q 3072 1382 3110 1382 
Q 3392 1395 3581 1401 
Q 3770 1408 3872 1408 
L 4928 1472 
L 4928 4499 
L 4915 5190 
Q 5011 5190 5100 5187 
Q 5190 5184 5260 5168 
Q 5331 5152 5372 5126 
Q 5414 5101 5414 5062 
z
" transform="scale(0.015625)"/>
      <path id="AppleGothic-bd80" d="M 4563 3130 
L 4563 4038 
L 1760 4045 
L 1760 3123 
L 4563 3130 
z
M 6010 1613 
Q 5798 1613 5472 1619 
Q 5146 1626 4704 1638 
Q 4269 1651 3942 1657 
Q 3616 1664 3392 1664 
L 3392 -589 
L 2931 -589 
Q 2938 -538 2947 -355 
Q 2957 -173 2957 224 
L 2950 1664 
L 1914 1670 
Q 1549 1670 1145 1664 
Q 742 1658 397 1645 
L 397 2042 
Q 512 2035 611 2035 
Q 710 2035 800 2029 
Q 2016 1990 2957 1990 
L 3187 1990 
Q 3654 1990 4000 1990 
Q 4346 1990 4576 1997 
Q 5037 2003 5421 2009 
Q 5805 2016 6010 2022 
L 6010 1613 
z
M 5043 5011 
Q 4992 4890 4992 4794 
L 4986 4109 
L 5005 2816 
L 3878 2829 
L 1318 2816 
L 1325 4749 
Q 1325 4902 1321 4976 
Q 1318 5050 1306 5114 
L 1677 5082 
Q 1792 5082 1792 5011 
Q 1792 4986 1776 4925 
Q 1760 4864 1760 4851 
L 1760 4352 
L 3130 4333 
L 4563 4352 
L 4557 5082 
L 4902 5075 
Q 5043 5075 5043 5011 
z
" transform="scale(0.015625)"/>
      <path id="AppleGothic-c704" d="M 3667 3725 
Q 3667 4038 3430 4250 
Q 3155 4486 2682 4486 
Q 2266 4486 1984 4326 
Q 1645 4128 1645 3731 
Q 1645 3354 1965 3136 
Q 2246 2950 2675 2950 
Q 3130 2950 3398 3164 
Q 3667 3379 3667 3725 
z
M 4794 1850 
Q 4691 1837 4608 1824 
Q 4525 1811 4454 1805 
Q 4237 1779 4061 1766 
Q 3885 1754 3750 1754 
L 2861 1702 
Q 2861 1645 2854 1421 
Q 2848 1197 2848 883 
L 2861 -230 
L 2400 -262 
Q 2406 -186 2406 -80 
Q 2406 26 2413 173 
Q 2419 320 2419 432 
Q 2419 544 2419 634 
Q 2419 922 2419 1110 
Q 2419 1299 2413 1389 
Q 2413 1478 2409 1548 
Q 2406 1619 2400 1683 
L 928 1587 
Q 902 1587 794 1555 
Q 742 1542 730 1542 
Q 678 1542 659 1638 
L 595 1997 
L 678 1997 
Q 1267 2016 1772 2032 
Q 2278 2048 2682 2048 
Q 3046 2048 3414 2070 
Q 3782 2093 4166 2138 
Q 4294 2150 4444 2172 
Q 4595 2195 4774 2227 
L 4794 1850 
z
M 5523 5101 
Q 5523 5088 5497 4998 
Q 5472 4909 5472 4838 
Q 5466 4640 5466 4377 
Q 5466 4115 5466 3782 
L 5466 2534 
L 5466 1203 
Q 5466 858 5466 566 
Q 5466 275 5472 26 
Q 5478 -474 5485 -474 
L 5011 -506 
L 5030 3200 
Q 5030 3699 5030 4025 
Q 5030 4352 5024 4512 
Q 5018 4678 5011 4844 
Q 5005 5011 4992 5190 
Q 5203 5190 5363 5177 
Q 5523 5165 5523 5101 
z
M 4096 3731 
Q 4096 3238 3693 2912 
Q 3290 2586 2688 2586 
Q 2010 2586 1616 2880 
Q 1222 3174 1222 3718 
Q 1222 4250 1683 4570 
Q 2093 4858 2682 4858 
Q 3245 4858 3648 4582 
Q 4096 4269 4096 3731 
z
" transform="scale(0.015625)"/>
      <path id="AppleGothic-52" d="M 314 5018 
L 1971 5018 
Q 2637 5018 3072 4800 
Q 3680 4493 3680 3776 
Q 3680 3283 3405 2969 
Q 3130 2656 2522 2470 
Q 2630 2426 2713 2384 
Q 2797 2342 2848 2291 
Q 3072 2099 3200 1728 
L 3840 0 
L 3270 0 
L 2938 1050 
Q 2675 1837 2387 2080 
Q 2138 2310 1562 2310 
L 819 2310 
L 819 0 
L 314 0 
L 314 5018 
z
M 2067 4576 
L 819 4576 
L 819 2707 
L 1587 2707 
Q 2048 2707 2365 2793 
Q 2682 2880 2880 3072 
Q 3014 3194 3100 3373 
Q 3187 3552 3187 3738 
Q 3187 4090 2899 4320 
Q 2586 4576 2067 4576 
z
" transform="scale(0.015625)"/>
      <path id="AppleGothic-c5d0" d="M 2707 2669 
Q 2707 3430 2419 3750 
Q 2208 3981 1856 3981 
Q 1491 3981 1267 3686 
Q 1018 3341 1018 2624 
Q 1018 1235 1862 1235 
Q 2336 1235 2541 1696 
Q 2707 2061 2707 2669 
z
M 5670 5050 
Q 5670 4986 5664 4966 
Q 5632 4806 5632 4806 
L 5619 2336 
L 5626 -544 
L 5158 -544 
L 5184 2240 
L 5178 5184 
L 5286 5184 
Q 5453 5184 5561 5158 
Q 5670 5133 5670 5050 
z
M 4499 4966 
Q 4499 4954 4480 4886 
Q 4461 4819 4461 4768 
Q 4454 4506 4451 4230 
Q 4448 3955 4442 3648 
Q 4435 3341 4435 3069 
Q 4435 2797 4435 2554 
L 4448 -64 
L 3968 -64 
L 3994 2349 
L 3136 2349 
Q 3123 2253 3104 2157 
Q 3085 2061 3072 1965 
Q 2970 1523 2720 1235 
Q 2374 845 1818 845 
Q 1133 845 826 1389 
Q 576 1830 576 2675 
Q 576 3456 909 3910 
Q 1248 4384 1862 4384 
Q 2458 4384 2803 3930 
Q 3142 3488 3142 2752 
L 3987 2752 
L 4000 3968 
Q 4000 4230 4000 4416 
Q 4000 4602 3994 4710 
Q 3994 4832 3994 4918 
Q 3994 5005 3987 5069 
L 4064 5069 
Q 4250 5069 4374 5049 
Q 4499 5030 4499 4966 
z
" transform="scale(0.015625)"/>
      <path id="AppleGothic-b530" d="M 6080 1990 
L 5146 1990 
L 5139 1018 
Q 5139 672 5152 262 
Q 5165 -147 5178 -493 
L 4704 -506 
L 4723 1926 
Q 4723 2150 4713 2384 
Q 4704 2618 4698 2880 
L 4698 3136 
Q 4698 3699 4694 4070 
Q 4691 4442 4685 4627 
Q 4678 4813 4672 4950 
Q 4666 5088 4659 5184 
L 4794 5184 
Q 4979 5184 5088 5165 
Q 5197 5146 5197 5075 
Q 5197 5050 5177 4982 
Q 5158 4915 5158 4864 
L 5139 3949 
L 5146 2432 
L 6080 2438 
L 6080 1990 
z
M 4582 1254 
Q 4474 1222 4390 1206 
Q 4307 1190 4243 1178 
Q 3872 1094 3622 1094 
Q 3488 1069 3347 1049 
Q 3206 1030 3059 1011 
Q 2758 973 2669 973 
L 2669 2682 
L 2650 4339 
L 4211 4320 
L 4211 3898 
L 3110 3917 
L 3098 2918 
L 3117 1453 
L 3149 1446 
Q 3264 1446 3421 1462 
Q 3578 1478 3725 1517 
Q 3859 1530 4000 1552 
Q 4141 1574 4275 1600 
Q 4333 1613 4406 1625 
Q 4480 1638 4582 1664 
L 4582 1254 
z
M 2362 1267 
Q 2182 1229 2042 1210 
Q 1862 1184 1721 1161 
Q 1581 1139 1472 1126 
Q 1370 1114 1203 1098 
Q 1037 1082 800 1062 
Q 768 1062 720 1059 
Q 672 1056 621 1050 
L 640 2624 
L 627 4320 
L 2278 4326 
L 2278 3898 
L 1075 3898 
L 1069 2989 
L 1082 1504 
Q 1146 1510 1190 1513 
Q 1235 1517 1267 1517 
Q 1459 1536 1600 1555 
L 2336 1670 
L 2362 1267 
z
" transform="scale(0.015625)"/>
      <path id="AppleGothic-b978" d="M 5299 -269 
Q 5184 -262 5085 -262 
Q 4986 -262 4915 -262 
Q 4378 -250 4019 -243 
Q 3661 -237 3475 -237 
Q 2867 -237 2380 -243 
Q 1894 -250 1440 -269 
L 1453 403 
L 1427 1242 
L 1638 1248 
Q 1683 1248 1737 1245 
Q 1792 1242 1840 1235 
Q 1888 1229 1920 1209 
Q 1952 1190 1952 1165 
Q 1952 1120 1946 1101 
Q 1933 1037 1923 998 
Q 1914 960 1914 941 
L 1888 589 
L 1894 134 
L 3514 128 
Q 4058 128 4480 134 
Q 4902 141 5299 154 
L 5299 -269 
z
M 6061 1638 
Q 6016 1638 5894 1638 
Q 5773 1638 5574 1645 
Q 5190 1651 4474 1664 
Q 4122 1670 3811 1673 
Q 3501 1677 3219 1677 
Q 2733 1677 2329 1673 
Q 1926 1670 1594 1664 
Q 1261 1658 960 1651 
Q 659 1645 384 1632 
L 384 2029 
Q 634 2022 1434 2010 
Q 1837 2003 2272 2003 
Q 2707 2003 3206 2003 
L 4518 2003 
Q 4838 2003 5081 2006 
Q 5325 2010 5507 2016 
Q 5690 2022 5824 2025 
Q 5958 2029 6061 2029 
L 6061 1638 
z
M 5133 2547 
L 1280 2547 
L 1299 3251 
L 1293 3891 
Q 1440 3885 1638 3878 
Q 1837 3872 2080 3866 
L 2918 3866 
L 4640 3872 
L 4640 4486 
L 3213 4486 
Q 2816 4486 2521 4486 
Q 2227 4486 2035 4480 
Q 1843 4480 1657 4477 
Q 1472 4474 1293 4467 
L 1293 4845 
Q 1440 4838 1667 4838 
Q 1894 4838 2208 4832 
Q 2522 4826 2784 4826 
Q 3046 4826 3270 4826 
L 5075 4838 
L 5062 4275 
L 5075 3571 
L 3782 3584 
L 1747 3565 
L 1747 2886 
L 3494 2874 
Q 4058 2874 4442 2886 
Q 4826 2899 5114 2912 
L 5133 2547 
z
" transform="scale(0.015625)"/>
      <path id="AppleGothic-d30c" d="M 4333 1203 
Q 3994 1139 3674 1107 
Q 3405 1082 3113 1069 
Q 2822 1056 2515 1056 
Q 2234 1056 2006 1049 
Q 1779 1043 1594 1030 
Q 1408 1018 1222 1005 
Q 1037 992 845 979 
Q 826 979 678 947 
Q 627 934 589 934 
Q 493 934 435 1107 
Q 384 1293 384 1402 
L 928 1382 
Q 1152 1382 1261 1385 
Q 1370 1389 1466 1402 
L 1370 2349 
Q 1357 2490 1334 2669 
Q 1312 2848 1286 3066 
Q 1280 3136 1267 3235 
Q 1254 3334 1235 3462 
L 1645 3475 
Q 1779 3475 1779 3386 
L 1760 3226 
L 1901 1421 
Q 1997 1421 2086 1424 
Q 2176 1427 2259 1434 
Q 2534 1459 2681 1465 
Q 2829 1472 2848 1472 
L 2957 2406 
Q 3002 2778 3014 3056 
Q 3027 3334 3034 3501 
L 3450 3443 
Q 3565 3424 3565 3366 
Q 3565 3334 3526 3264 
Q 3488 3194 3488 3174 
L 3258 1498 
L 4307 1587 
L 4333 1203 
z
M 6042 2048 
L 5139 2054 
L 5165 -506 
L 4659 -506 
Q 4659 -390 4659 -214 
Q 4659 -38 4666 192 
Q 4666 422 4669 710 
Q 4672 998 4678 1344 
Q 4685 1690 4688 1949 
Q 4691 2208 4691 2381 
Q 4691 3066 4691 3523 
Q 4691 3981 4685 4224 
Q 4678 5190 4659 5190 
L 4755 5190 
Q 4922 5190 5056 5168 
Q 5190 5146 5190 5075 
Q 5190 5043 5168 4950 
Q 5146 4858 5146 4813 
L 5133 4070 
L 5146 2458 
L 6042 2458 
L 6042 2048 
z
M 4026 4026 
L 2438 4045 
Q 2061 4045 1789 4045 
Q 1517 4045 1350 4038 
Q 1184 4038 1027 4035 
Q 870 4032 723 4026 
L 723 4442 
Q 806 4435 873 4435 
Q 941 4435 992 4435 
Q 1434 4422 1786 4412 
Q 2138 4403 2419 4403 
Q 2758 4403 3011 4406 
Q 3264 4410 3430 4416 
Q 3603 4422 3750 4428 
Q 3898 4435 4026 4448 
L 4026 4026 
z
" transform="scale(0.015625)"/>
      <path id="AppleGothic-bcc0" d="M 3059 1939 
L 3059 3123 
L 2163 3136 
L 1248 3123 
L 1248 1939 
L 2118 1926 
L 3059 1939 
z
M 5446 -538 
L 3373 -518 
Q 2912 -518 2400 -524 
Q 1888 -531 1466 -544 
L 1478 371 
Q 1478 595 1478 732 
Q 1478 870 1472 934 
Q 1472 998 1469 1052 
Q 1466 1107 1466 1158 
L 1626 1158 
Q 1811 1158 1904 1139 
Q 1997 1120 1997 1050 
Q 1997 1030 1974 956 
Q 1952 883 1952 851 
L 1939 352 
L 1939 -128 
L 3334 -134 
Q 3917 -134 4461 -128 
Q 5005 -122 5446 -109 
L 5446 -538 
z
M 5440 5043 
Q 5440 5018 5421 4944 
Q 5402 4870 5402 4832 
L 5389 2714 
L 5389 1472 
Q 5395 1254 5398 1036 
Q 5402 819 5408 602 
L 4902 602 
L 4922 1466 
L 4922 2195 
L 3885 2176 
L 3885 2586 
L 4922 2566 
L 4922 3539 
L 3872 3526 
L 3872 3917 
L 4922 3904 
L 4928 4602 
L 4915 5184 
Q 5120 5184 5280 5161 
Q 5440 5139 5440 5043 
z
M 3546 4576 
L 3526 4410 
L 3507 2950 
L 3520 1562 
L 787 1562 
Q 794 1696 794 1885 
Q 794 2074 800 2317 
Q 806 2560 806 2723 
Q 806 2886 806 2976 
Q 806 3578 800 3990 
Q 794 4403 787 4723 
Q 966 4723 1139 4704 
Q 1312 4685 1312 4614 
Q 1312 4582 1286 4505 
Q 1261 4429 1261 4403 
L 1248 3501 
L 1850 3488 
L 3059 3501 
L 3066 4147 
L 3046 4698 
L 3136 4698 
Q 3302 4698 3424 4672 
Q 3546 4646 3546 4576 
z
" transform="scale(0.015625)"/>
      <path id="AppleGothic-d654" d="M 3302 2598 
Q 3302 2835 2970 2982 
Q 2835 3040 2675 3065 
Q 2515 3091 2342 3091 
Q 1888 3091 1677 3034 
Q 1261 2906 1261 2573 
Q 1261 2304 1581 2150 
Q 1894 2003 2317 2003 
Q 2803 2003 3052 2179 
Q 3302 2355 3302 2598 
z
M 4422 1062 
Q 4198 1030 4012 1011 
Q 3827 992 3693 979 
Q 2854 902 2342 902 
Q 1978 902 1558 870 
Q 1139 838 685 806 
Q 634 794 586 787 
Q 538 781 486 768 
Q 442 768 413 809 
Q 384 851 371 918 
Q 358 986 352 1066 
Q 346 1146 346 1229 
L 1331 1235 
Q 1504 1235 1766 1254 
Q 1901 1267 1993 1273 
Q 2086 1280 2138 1280 
L 2138 1664 
Q 1914 1690 1750 1718 
Q 1587 1747 1478 1792 
Q 826 2042 826 2618 
Q 826 3021 1325 3251 
Q 1747 3443 2323 3443 
Q 2963 3443 3331 3209 
Q 3699 2976 3699 2566 
Q 3699 2067 3149 1811 
Q 3059 1766 2921 1731 
Q 2784 1696 2598 1658 
L 2598 1306 
Q 2803 1312 3043 1325 
Q 3283 1338 3533 1363 
L 4422 1459 
L 4422 1062 
z
M 6035 2061 
L 5139 2061 
L 5152 -499 
L 4672 -499 
Q 4678 -288 4678 48 
Q 4678 384 4685 845 
Q 4691 1306 4691 1712 
Q 4691 2118 4691 2470 
Q 4691 2618 4691 2877 
Q 4691 3136 4685 3507 
Q 4678 3878 4678 4176 
Q 4678 4474 4678 4698 
Q 4678 4928 4672 5033 
Q 4666 5139 4653 5190 
L 4819 5190 
Q 5005 5190 5097 5171 
Q 5190 5152 5190 5082 
Q 5190 5062 5165 4954 
Q 5139 4858 5139 4800 
L 5139 2470 
L 6035 2483 
L 6035 2061 
z
M 4128 3648 
L 2189 3667 
L 378 3648 
L 378 4090 
Q 838 4070 1302 4057 
Q 1766 4045 2150 4045 
L 2336 4045 
Q 2899 4045 3321 4051 
Q 3744 4058 4128 4077 
L 4128 3648 
z
M 3046 4410 
L 2355 4422 
L 1427 4410 
L 1427 4800 
Q 1466 4800 1584 4797 
Q 1702 4794 1888 4787 
Q 2080 4781 2189 4777 
Q 2298 4774 2330 4774 
Q 2598 4774 2771 4780 
Q 2944 4787 3046 4800 
L 3046 4410 
z
" transform="scale(0.015625)"/>
      <path id="AppleGothic-be44" d="M 2963 2157 
L 2957 2893 
L 954 2893 
L 973 1453 
L 1952 1434 
L 2957 1453 
L 2963 2157 
z
M 5453 5094 
Q 5453 5069 5433 5005 
Q 5414 4941 5414 4922 
L 5414 4416 
Q 5395 2554 5395 2253 
Q 5395 1357 5408 681 
Q 5421 6 5440 -557 
L 4941 -570 
Q 4947 -390 4947 -124 
Q 4947 141 4954 493 
Q 4960 851 4960 1129 
Q 4960 1408 4960 1613 
L 4960 2266 
Q 4960 2554 4957 2822 
Q 4954 3091 4947 3354 
Q 4941 3622 4937 3884 
Q 4934 4147 4934 4416 
Q 4928 4947 4915 5190 
L 5114 5197 
Q 5248 5197 5350 5174 
Q 5453 5152 5453 5094 
z
M 3450 1043 
L 506 1043 
L 518 2720 
Q 518 3360 512 3757 
Q 506 4154 493 4429 
L 877 4410 
Q 986 4410 986 4333 
Q 986 4307 970 4243 
Q 954 4179 954 4160 
L 954 3296 
Q 1114 3290 1344 3286 
Q 1574 3283 1971 3283 
L 2957 3296 
L 2938 4480 
L 3194 4486 
Q 3322 4486 3386 4467 
Q 3450 4448 3450 4390 
Q 3450 4371 3437 4313 
Q 3424 4256 3424 4230 
L 3418 3085 
Q 3418 2566 3424 2057 
Q 3430 1549 3450 1043 
z
" transform="scale(0.015625)"/>
      <path id="AppleGothic-ad50" d="M 6048 250 
Q 5958 250 5804 250 
Q 5651 250 5440 256 
Q 5229 262 4950 268 
Q 4672 275 4326 282 
Q 3981 288 3715 291 
Q 3450 294 3258 294 
Q 2976 294 2630 288 
Q 2285 282 1862 269 
Q 1440 256 1177 249 
Q 915 243 806 237 
Q 595 224 346 218 
L 346 666 
Q 493 653 691 643 
Q 890 634 1216 634 
L 1818 640 
L 1830 2464 
Q 1830 2592 1824 2691 
Q 1818 2790 1805 2842 
L 2067 2822 
Q 2291 2797 2291 2752 
Q 2291 2739 2265 2659 
Q 2240 2579 2240 2528 
L 2240 653 
L 3437 653 
L 3430 2451 
Q 3430 2566 3430 2636 
Q 3430 2707 3424 2739 
Q 3424 2771 3421 2796 
Q 3418 2822 3411 2848 
Q 3482 2842 3546 2842 
Q 3610 2842 3680 2835 
Q 3904 2810 3904 2765 
Q 3904 2746 3872 2656 
Q 3840 2566 3840 2515 
L 3840 653 
L 6048 672 
L 6048 250 
z
M 5306 4608 
L 5306 4448 
Q 5306 2970 4992 1459 
L 4563 1523 
Q 4589 1651 4608 1750 
Q 4627 1850 4640 1933 
Q 4678 2189 4713 2409 
Q 4749 2630 4774 2822 
Q 4774 3206 4787 3542 
Q 4800 3878 4819 4179 
L 3642 4192 
L 947 4147 
L 947 4589 
L 2528 4576 
L 5306 4608 
z
" transform="scale(0.015625)"/>
     </defs>
     <use xlink:href="#AppleGothic-c790"/>
     <use xlink:href="#AppleGothic-adf9" transform="translate(99.999985 0)"/>
     <use xlink:href="#AppleGothic-20" transform="translate(199.999969 0)"/>
     <use xlink:href="#AppleGothic-c885" transform="translate(231.999954 0)"/>
     <use xlink:href="#AppleGothic-b958" transform="translate(331.999939 0)"/>
     <use xlink:href="#AppleGothic-28" transform="translate(431.999924 0)"/>
     <use xlink:href="#AppleGothic-45" transform="translate(481.999908 0)"/>
     <use xlink:href="#AppleGothic-76" transform="translate(539.899902 0)"/>
     <use xlink:href="#AppleGothic-65" transform="translate(594.099899 0)"/>
     <use xlink:href="#AppleGothic-6e" transform="translate(648.999893 0)"/>
     <use xlink:href="#AppleGothic-74" transform="translate(704.899887 0)"/>
     <use xlink:href="#AppleGothic-29" transform="translate(739.099884 0)"/>
     <use xlink:href="#AppleGothic-20" transform="translate(789.099869 0)"/>
     <use xlink:href="#AppleGothic-bc0f" transform="translate(821.099854 0)"/>
     <use xlink:href="#AppleGothic-20" transform="translate(921.099838 0)"/>
     <use xlink:href="#AppleGothic-b1cc" transform="translate(953.099823 0)"/>
     <use xlink:href="#AppleGothic-20" transform="translate(1053.099808 0)"/>
     <use xlink:href="#AppleGothic-bd80" transform="translate(1085.099792 0)"/>
     <use xlink:href="#AppleGothic-c704" transform="translate(1185.099777 0)"/>
     <use xlink:href="#AppleGothic-28" transform="translate(1285.099762 0)"/>
     <use xlink:href="#AppleGothic-52" transform="translate(1335.099747 0)"/>
     <use xlink:href="#AppleGothic-65" transform="translate(1399.099731 0)"/>
     <use xlink:href="#AppleGothic-67" transform="translate(1453.999725 0)"/>
     <use xlink:href="#AppleGothic-69" transform="translate(1510.199722 0)"/>
     <use xlink:href="#AppleGothic-6f" transform="translate(1526.099716 0)"/>
     <use xlink:href="#AppleGothic-6e" transform="translate(1584.399704 0)"/>
     <use xlink:href="#AppleGothic-29" transform="translate(1640.299698 0)"/>
     <use xlink:href="#AppleGothic-c5d0" transform="translate(1690.299683 0)"/>
     <use xlink:href="#AppleGothic-20" transform="translate(1790.299667 0)"/>
     <use xlink:href="#AppleGothic-b530" transform="translate(1822.299652 0)"/>
     <use xlink:href="#AppleGothic-b978" transform="translate(1922.299637 0)"/>
     <use xlink:href="#AppleGothic-20" transform="translate(2022.299622 0)"/>
     <use xlink:href="#AppleGothic-b1cc" transform="translate(2054.299606 0)"/>
     <use xlink:href="#AppleGothic-d30c" transform="translate(2154.299591 0)"/>
     <use xlink:href="#AppleGothic-20" transform="translate(2254.299576 0)"/>
     <use xlink:href="#AppleGothic-bcc0" transform="translate(2286.299561 0)"/>
     <use xlink:href="#AppleGothic-d654" transform="translate(2386.299545 0)"/>
     <use xlink:href="#AppleGothic-20" transform="translate(2486.29953 0)"/>
     <use xlink:href="#AppleGothic-be44" transform="translate(2518.299515 0)"/>
     <use xlink:href="#AppleGothic-ad50" transform="translate(2618.2995 0)"/>
    </g>
   </g>
   <g id="legend_1">
    <g id="patch_7">
     <path d="M 772.337375 131.607031 
L 843.323469 131.607031 
Q 845.523469 131.607031 845.523469 129.407031 
L 845.523469 34.0525 
Q 845.523469 31.8525 843.323469 31.8525 
L 772.337375 31.8525 
Q 770.137375 31.8525 770.137375 34.0525 
L 770.137375 129.407031 
Q 770.137375 131.607031 772.337375 131.607031 
z
" style="fill: #ffffff; opacity: 0.8; stroke: #cccccc; stroke-linejoin: miter"/>
    </g>
    <g id="line2d_25">
     <path d="M 774.537375 41.027187 
L 785.537375 41.027187 
L 796.537375 41.027187 
" style="fill: none"/>
    </g>
    <g id="text_17">
     <!-- event -->
     <g style="fill: #262626" transform="translate(805.337375 44.877187) scale(0.11 -0.11)">
      <use xlink:href="#AppleGothic-65"/>
      <use xlink:href="#AppleGothic-76" transform="translate(54.899994 0)"/>
      <use xlink:href="#AppleGothic-65" transform="translate(109.099991 0)"/>
      <use xlink:href="#AppleGothic-6e" transform="translate(163.999985 0)"/>
      <use xlink:href="#AppleGothic-74" transform="translate(219.899979 0)"/>
     </g>
    </g>
    <g id="line2d_26">
     <path d="M 774.537375 57.044219 
L 785.537375 57.044219 
L 796.537375 57.044219 
" style="fill: none; stroke: #4878d0; stroke-width: 2.5; stroke-linecap: round"/>
    </g>
    <g id="text_18">
     <!-- stim -->
     <g style="fill: #262626" transform="translate(805.337375 60.894219) scale(0.11 -0.11)">
      <defs>
       <path id="AppleGothic-73" d="M 224 294 
L 224 851 
Q 621 531 1030 403 
Q 1152 371 1267 355 
Q 1382 339 1504 339 
Q 1894 339 2150 518 
Q 2413 710 2413 947 
Q 2413 1075 2317 1210 
Q 2182 1376 1600 1510 
Q 909 1683 678 1798 
Q 230 2054 230 2515 
Q 230 2944 602 3219 
Q 979 3501 1542 3501 
Q 1798 3501 2003 3456 
Q 2208 3411 2387 3337 
Q 2566 3264 2720 3155 
L 2720 2598 
Q 2451 2822 2156 2953 
Q 1862 3085 1536 3085 
Q 1210 3085 973 2938 
Q 730 2790 730 2554 
Q 730 2240 1306 2054 
Q 1574 1978 1836 1901 
Q 2099 1824 2368 1747 
Q 2950 1498 2950 992 
Q 2950 563 2547 237 
Q 2138 -83 1530 -83 
Q 1261 -83 1005 -26 
Q 595 64 224 294 
z
" transform="scale(0.015625)"/>
      </defs>
      <use xlink:href="#AppleGothic-73"/>
      <use xlink:href="#AppleGothic-74" transform="translate(49.599991 0)"/>
      <use xlink:href="#AppleGothic-69" transform="translate(83.799988 0)"/>
      <use xlink:href="#AppleGothic-6d" transform="translate(99.699982 0)"/>
     </g>
    </g>
    <g id="line2d_27">
     <path d="M 774.537375 73.06125 
L 785.537375 73.06125 
L 796.537375 73.06125 
" style="fill: none; stroke: #ee854a; stroke-width: 2.5; stroke-linecap: round"/>
    </g>
    <g id="text_19">
     <!-- cue -->
     <g style="fill: #262626" transform="translate(805.337375 76.91125) scale(0.11 -0.11)">
      <defs>
       <path id="AppleGothic-63" d="M 3085 3123 
L 3085 2522 
Q 2726 2861 2349 3008 
Q 2240 3053 2125 3069 
Q 2010 3085 1894 3085 
Q 1363 3085 1024 2688 
Q 685 2278 685 1715 
Q 685 1139 1037 730 
Q 1389 339 1920 339 
Q 2253 339 2528 483 
Q 2803 627 3085 915 
L 3085 307 
Q 2746 96 2470 6 
Q 2195 -83 1914 -83 
Q 1197 -83 685 429 
Q 186 960 186 1709 
Q 186 2445 678 2976 
Q 1178 3501 1920 3501 
Q 2298 3501 2624 3373 
Q 2816 3302 3085 3123 
z
" transform="scale(0.015625)"/>
       <path id="AppleGothic-75" d="M 262 3424 
L 730 3424 
L 730 1242 
Q 730 877 941 627 
Q 1171 339 1594 339 
Q 2080 339 2426 730 
Q 2784 1139 2784 1632 
L 2784 3424 
L 3245 3424 
L 3245 0 
L 2842 0 
L 2810 582 
Q 2707 442 2592 330 
Q 2477 218 2342 134 
Q 1984 -83 1555 -83 
Q 966 -83 614 282 
Q 262 653 262 1184 
L 262 3424 
z
" transform="scale(0.015625)"/>
      </defs>
      <use xlink:href="#AppleGothic-63"/>
      <use xlink:href="#AppleGothic-75" transform="translate(51.899994 0)"/>
      <use xlink:href="#AppleGothic-65" transform="translate(107.399979 0)"/>
     </g>
    </g>
    <g id="line2d_28">
     <path d="M 774.537375 89.078281 
L 785.537375 89.078281 
L 796.537375 89.078281 
" style="fill: none"/>
    </g>
    <g id="text_20">
     <!-- region -->
     <g style="fill: #262626" transform="translate(805.337375 92.928281) scale(0.11 -0.11)">
      <defs>
       <path id="AppleGothic-72" d="M 2125 3424 
L 2125 2963 
Q 2054 2989 2009 3005 
Q 1965 3021 1933 3027 
Q 1901 3034 1865 3037 
Q 1830 3040 1773 3040 
Q 1306 3040 1005 2586 
Q 749 2170 749 1658 
L 749 0 
L 288 0 
L 288 3424 
L 710 3424 
L 742 2835 
Q 902 3104 1043 3219 
Q 1331 3456 1734 3456 
Q 1843 3456 1936 3449 
Q 2029 3443 2125 3424 
z
" transform="scale(0.015625)"/>
      </defs>
      <use xlink:href="#AppleGothic-72"/>
      <use xlink:href="#AppleGothic-65" transform="translate(35.199997 0)"/>
      <use xlink:href="#AppleGothic-67" transform="translate(90.099991 0)"/>
      <use xlink:href="#AppleGothic-69" transform="translate(146.299988 0)"/>
      <use xlink:href="#AppleGothic-6f" transform="translate(162.199982 0)"/>
      <use xlink:href="#AppleGothic-6e" transform="translate(220.499969 0)"/>
     </g>
    </g>
    <g id="line2d_29">
     <path d="M 774.537375 105.447656 
L 785.537375 105.447656 
L 796.537375 105.447656 
" style="fill: none; stroke: #333333; stroke-width: 2.5; stroke-linecap: round"/>
     <defs>
      <path id="m3932a902bd" d="M 0 3 
C 0.795609 3 1.55874 2.683901 2.12132 2.12132 
C 2.683901 1.55874 3 0.795609 3 0 
C 3 -0.795609 2.683901 -1.55874 2.12132 -2.12132 
C 1.55874 -2.683901 0.795609 -3 0 -3 
C -0.795609 -3 -1.55874 -2.683901 -2.12132 -2.12132 
C -2.683901 -1.55874 -3 -0.795609 -3 0 
C -3 0.795609 -2.683901 1.55874 -2.12132 2.12132 
C -1.55874 2.683901 -0.795609 3 0 3 
z
" style="stroke: #ffffff; stroke-width: 0.75"/>
     </defs>
     <g>
      <use xlink:href="#m3932a902bd" x="785.537375" y="105.447656" style="fill: #333333; stroke: #ffffff; stroke-width: 0.75"/>
     </g>
    </g>
    <g id="text_21">
     <!-- parietal -->
     <g style="fill: #262626" transform="translate(805.337375 109.297656) scale(0.11 -0.11)">
      <use xlink:href="#AppleGothic-70"/>
      <use xlink:href="#AppleGothic-61" transform="translate(55.399994 0)"/>
      <use xlink:href="#AppleGothic-72" transform="translate(111.899979 0)"/>
      <use xlink:href="#AppleGothic-69" transform="translate(147.099976 0)"/>
      <use xlink:href="#AppleGothic-65" transform="translate(162.999969 0)"/>
      <use xlink:href="#AppleGothic-74" transform="translate(217.899963 0)"/>
      <use xlink:href="#AppleGothic-61" transform="translate(252.09996 0)"/>
      <use xlink:href="#AppleGothic-6c" transform="translate(308.599945 0)"/>
     </g>
    </g>
    <g id="line2d_30">
     <path d="M 774.537375 121.464687 
L 785.537375 121.464687 
L 796.537375 121.464687 
" style="fill: none; stroke-dasharray: 10,3.75; stroke-dashoffset: 0; stroke: #333333; stroke-width: 2.5"/>
     <defs>
      <path id="ma22dcde472" d="M -1.5 3 
L 0 1.5 
L 1.5 3 
L 3 1.5 
L 1.5 0 
L 3 -1.5 
L 1.5 -3 
L 0 -1.5 
L -1.5 -3 
L -3 -1.5 
L -1.5 0 
L -3 1.5 
z
" style="stroke: #ffffff; stroke-width: 0.75; stroke-linejoin: miter"/>
     </defs>
     <g>
      <use xlink:href="#ma22dcde472" x="785.537375" y="121.464687" style="fill: #333333; stroke: #ffffff; stroke-width: 0.75; stroke-linejoin: miter"/>
     </g>
    </g>
    <g id="text_22">
     <!-- frontal -->
     <g style="fill: #262626" transform="translate(805.337375 125.314687) scale(0.11 -0.11)">
      <defs>
       <path id="AppleGothic-66" d="M 646 3430 
L 646 4083 
Q 646 4538 819 4774 
Q 1037 5101 1555 5101 
Q 1613 5101 1657 5097 
Q 1702 5094 1750 5088 
Q 1798 5082 1862 5062 
Q 1926 5043 2016 5018 
L 2016 4595 
Q 1997 4621 1837 4653 
Q 1766 4666 1712 4672 
Q 1658 4678 1619 4678 
Q 1350 4678 1228 4524 
Q 1107 4371 1107 4083 
L 1107 3430 
L 2016 3430 
L 2016 3014 
L 1107 3014 
L 1107 0 
L 646 0 
L 646 3014 
L 64 3014 
L 64 3430 
L 646 3430 
z
" transform="scale(0.015625)"/>
      </defs>
      <use xlink:href="#AppleGothic-66"/>
      <use xlink:href="#AppleGothic-72" transform="translate(33.999985 0)"/>
      <use xlink:href="#AppleGothic-6f" transform="translate(69.199982 0)"/>
      <use xlink:href="#AppleGothic-6e" transform="translate(127.499969 0)"/>
      <use xlink:href="#AppleGothic-74" transform="translate(183.399963 0)"/>
      <use xlink:href="#AppleGothic-61" transform="translate(217.59996 0)"/>
      <use xlink:href="#AppleGothic-6c" transform="translate(274.099945 0)"/>
     </g>
    </g>
   </g>
  </g>
 </g>
 <defs>
  <clipPath id="pacb459daa1">
   <rect x="57.268125" y="26.3525" width="673.685" height="423.17625"/>
  </clipPath>
 </defs>
</svg>
