<?xml version="1.0" encoding="utf-8" standalone="no"?>
<!DOCTYPE svg PUBLIC "-//W3C//DTD SVG 1.1//EN"
  "http://www.w3.org/Graphics/SVG/1.1/DTD/svg11.dtd">
<svg xmlns:xlink="http://www.w3.org/1999/xlink" width="629.948125pt" height="398.850156pt" viewBox="0 0 629.948125 398.850156" xmlns="http://www.w3.org/2000/svg" version="1.1">
 <metadata>
  <rdf:RDF xmlns:dc="http://purl.org/dc/elements/1.1/" xmlns:cc="http://creativecommons.org/ns#" xmlns:rdf="http://www.w3.org/1999/02/22-rdf-syntax-ns#">
   <cc:Work>
    <dc:type rdf:resource="http://purl.org/dc/dcmitype/StillImage"/>
    <dc:date>2026-05-22T02:33:54.620455</dc:date>
    <dc:format>image/svg+xml</dc:format>
    <dc:creator>
     <cc:Agent>
      <dc:title>Matplotlib v3.10.9, https://matplotlib.org/</dc:title>
     </cc:Agent>
    </dc:creator>
   </cc:Work>
  </rdf:RDF>
 </metadata>
 <defs>
  <style type="text/css">*{stroke-linejoin: round; stroke-linecap: butt}</style>
 </defs>
 <g id="figure_1">
  <g id="patch_1">
   <path d="M 0 398.850156 
L 629.948125 398.850156 
L 629.948125 0 
L 0 0 
z
" style="fill: #ffffff"/>
  </g>
  <g id="axes_1">
   <g id="patch_2">
    <path d="M 64.748125 355.704375 
L 622.748125 355.704375 
L 622.748125 23.064375 
L 64.748125 23.064375 
z
" style="fill: #ffffff"/>
   </g>
   <g id="matplotlib.axis_1">
    <g id="xtick_1">
     <g id="line2d_1">
      <defs>
       <path id="mcc40a3b51e" d="M 0 0 
L 0 6 
" style="stroke: #262626; stroke-width: 1.25"/>
      </defs>
      <g>
       <use xlink:href="#mcc40a3b51e" x="90.111761" y="355.704375" style="fill: #262626; stroke: #262626; stroke-width: 1.25"/>
      </g>
     </g>
     <g id="text_1">
      <!-- 0.0 -->
      <g style="fill: #262626" transform="translate(80.734261 373.829063) scale(0.11 -0.11)">
       <defs>
        <path id="AppleGothic-30" d="M 2227 -83 
Q 1414 -83 934 576 
Q 461 1229 461 2387 
Q 461 3552 973 4218 
Q 1453 4858 2221 4858 
Q 3027 4858 3482 4173 
Q 3955 3494 3955 2394 
Q 3955 1248 3462 582 
Q 2976 -83 2227 -83 
z
M 2176 346 
Q 2861 346 3200 992 
Q 3462 1536 3462 2400 
Q 3462 3315 3162 3859 
Q 2822 4429 2214 4429 
Q 1574 4429 1248 3821 
Q 960 3283 960 2374 
Q 960 1478 1248 941 
Q 1574 346 2176 346 
z
" transform="scale(0.015625)"/>
        <path id="AppleGothic-2e" d="M 915 -19 
Q 762 -19 653 109 
Q 544 237 544 422 
Q 544 614 656 745 
Q 768 877 915 877 
Q 1056 877 1168 758 
Q 1280 640 1280 435 
Q 1280 243 1171 112 
Q 1062 -19 915 -19 
z
" transform="scale(0.015625)"/>
       </defs>
       <use xlink:href="#AppleGothic-30"/>
       <use xlink:href="#AppleGothic-2e" transform="translate(67.999985 0)"/>
       <use xlink:href="#AppleGothic-30" transform="translate(102.499969 0)"/>
      </g>
     </g>
    </g>
    <g id="xtick_2">
     <g id="line2d_2">
      <g>
       <use xlink:href="#mcc40a3b51e" x="160.566307" y="355.704375" style="fill: #262626; stroke: #262626; stroke-width: 1.25"/>
      </g>
     </g>
     <g id="text_2">
      <!-- 2.5 -->
      <g style="fill: #262626" transform="translate(151.188807 373.829063) scale(0.11 -0.11)">
       <defs>
        <path id="AppleGothic-32" d="M 1101 429 
L 3942 429 
L 3942 0 
L 653 0 
L 653 205 
Q 653 1018 1344 1664 
Q 1670 1894 1990 2124 
Q 2310 2355 2637 2592 
Q 3334 3098 3334 3597 
Q 3334 3994 3014 4218 
Q 2867 4326 2694 4377 
Q 2522 4429 2317 4429 
Q 2016 4429 1741 4352 
Q 1325 4224 883 3910 
L 883 4435 
Q 1325 4659 1667 4758 
Q 2010 4858 2317 4858 
Q 2963 4858 3405 4525 
Q 3840 4198 3840 3622 
Q 3840 2995 3168 2438 
Q 2848 2214 2531 2000 
Q 2214 1786 1894 1562 
Q 1178 1024 1101 429 
z
" transform="scale(0.015625)"/>
        <path id="AppleGothic-35" d="M 621 4768 
L 3488 4768 
L 3488 4339 
L 1088 4339 
L 1088 2707 
Q 1184 2771 1293 2819 
Q 1402 2867 1510 2912 
Q 1862 3040 2259 3040 
Q 2989 3040 3424 2605 
Q 3827 2202 3827 1581 
Q 3827 870 3296 397 
Q 2765 -83 2010 -83 
Q 1651 -83 1248 45 
Q 1158 77 1001 137 
Q 845 198 621 301 
L 621 838 
Q 928 640 1203 525 
Q 1408 435 1613 390 
Q 1818 346 2010 346 
Q 2528 346 2906 666 
Q 3322 1011 3322 1536 
Q 3322 1990 3021 2291 
Q 2701 2611 2144 2611 
Q 1856 2611 1587 2528 
Q 1318 2445 1088 2272 
L 621 2272 
L 621 4768 
z
" transform="scale(0.015625)"/>
       </defs>
       <use xlink:href="#AppleGothic-32"/>
       <use xlink:href="#AppleGothic-2e" transform="translate(67.999985 0)"/>
       <use xlink:href="#AppleGothic-35" transform="translate(102.499969 0)"/>
      </g>
     </g>
    </g>
    <g id="xtick_3">
     <g id="line2d_3">
      <g>
       <use xlink:href="#mcc40a3b51e" x="231.020852" y="355.704375" style="fill: #262626; stroke: #262626; stroke-width: 1.25"/>
      </g>
     </g>
     <g id="text_3">
      <!-- 5.0 -->
      <g style="fill: #262626" transform="translate(221.643352 373.829063) scale(0.11 -0.11)">
       <use xlink:href="#AppleGothic-35"/>
       <use xlink:href="#AppleGothic-2e" transform="translate(67.999985 0)"/>
       <use xlink:href="#AppleGothic-30" transform="translate(102.499969 0)"/>
      </g>
     </g>
    </g>
    <g id="xtick_4">
     <g id="line2d_4">
      <g>
       <use xlink:href="#mcc40a3b51e" x="301.475398" y="355.704375" style="fill: #262626; stroke: #262626; stroke-width: 1.25"/>
      </g>
     </g>
     <g id="text_4">
      <!-- 7.5 -->
      <g style="fill: #262626" transform="translate(292.097898 373.829063) scale(0.11 -0.11)">
       <defs>
        <path id="AppleGothic-37" d="M 595 4774 
L 3802 4774 
L 3802 4410 
L 1734 0 
L 1235 0 
L 3277 4352 
L 595 4352 
L 595 4774 
z
" transform="scale(0.015625)"/>
       </defs>
       <use xlink:href="#AppleGothic-37"/>
       <use xlink:href="#AppleGothic-2e" transform="translate(67.999985 0)"/>
       <use xlink:href="#AppleGothic-35" transform="translate(102.499969 0)"/>
      </g>
     </g>
    </g>
    <g id="xtick_5">
     <g id="line2d_5">
      <g>
       <use xlink:href="#mcc40a3b51e" x="371.929943" y="355.704375" style="fill: #262626; stroke: #262626; stroke-width: 1.25"/>
      </g>
     </g>
     <g id="text_5">
      <!-- 10.0 -->
      <g style="fill: #262626" transform="translate(358.812443 373.829063) scale(0.11 -0.11)">
       <defs>
        <path id="AppleGothic-31" d="M 2342 4774 
L 2752 4774 
L 2752 0 
L 2285 0 
L 2285 3526 
L 1158 3526 
L 1158 3885 
L 1414 3885 
Q 1990 3885 2214 4205 
Q 2342 4410 2342 4774 
z
" transform="scale(0.015625)"/>
       </defs>
       <use xlink:href="#AppleGothic-31"/>
       <use xlink:href="#AppleGothic-30" transform="translate(67.999985 0)"/>
       <use xlink:href="#AppleGothic-2e" transform="translate(135.999969 0)"/>
       <use xlink:href="#AppleGothic-30" transform="translate(170.499954 0)"/>
      </g>
     </g>
    </g>
    <g id="xtick_6">
     <g id="line2d_6">
      <g>
       <use xlink:href="#mcc40a3b51e" x="442.384489" y="355.704375" style="fill: #262626; stroke: #262626; stroke-width: 1.25"/>
      </g>
     </g>
     <g id="text_6">
      <!-- 12.5 -->
      <g style="fill: #262626" transform="translate(429.266989 373.829063) scale(0.11 -0.11)">
       <use xlink:href="#AppleGothic-31"/>
       <use xlink:href="#AppleGothic-32" transform="translate(67.999985 0)"/>
       <use xlink:href="#AppleGothic-2e" transform="translate(135.999969 0)"/>
       <use xlink:href="#AppleGothic-35" transform="translate(170.499954 0)"/>
      </g>
     </g>
    </g>
    <g id="xtick_7">
     <g id="line2d_7">
      <g>
       <use xlink:href="#mcc40a3b51e" x="512.839034" y="355.704375" style="fill: #262626; stroke: #262626; stroke-width: 1.25"/>
      </g>
     </g>
     <g id="text_7">
      <!-- 15.0 -->
      <g style="fill: #262626" transform="translate(499.721534 373.829063) scale(0.11 -0.11)">
       <use xlink:href="#AppleGothic-31"/>
       <use xlink:href="#AppleGothic-35" transform="translate(67.999985 0)"/>
       <use xlink:href="#AppleGothic-2e" transform="translate(135.999969 0)"/>
       <use xlink:href="#AppleGothic-30" transform="translate(170.499954 0)"/>
      </g>
     </g>
    </g>
    <g id="xtick_8">
     <g id="line2d_8">
      <g>
       <use xlink:href="#mcc40a3b51e" x="583.29358" y="355.704375" style="fill: #262626; stroke: #262626; stroke-width: 1.25"/>
      </g>
     </g>
     <g id="text_8">
      <!-- 17.5 -->
      <g style="fill: #262626" transform="translate(570.17608 373.829063) scale(0.11 -0.11)">
       <use xlink:href="#AppleGothic-31"/>
       <use xlink:href="#AppleGothic-37" transform="translate(67.999985 0)"/>
       <use xlink:href="#AppleGothic-2e" transform="translate(135.999969 0)"/>
       <use xlink:href="#AppleGothic-35" transform="translate(170.499954 0)"/>
      </g>
     </g>
    </g>
    <g id="text_9">
     <!-- 시간 (Timepoint) -->
     <g style="fill: #262626" transform="translate(297.072812 389.585781) scale(0.12 -0.12)">
      <defs>
       <path id="AppleGothic-c2dc" d="M 5459 5062 
Q 5459 5043 5440 4969 
Q 5421 4896 5421 4826 
L 5402 2349 
L 5414 -531 
L 4909 -557 
Q 4915 -410 4915 -278 
Q 4915 -147 4922 -19 
Q 4928 218 4941 1190 
Q 4960 2150 4960 2253 
Q 4960 3923 4941 4416 
Q 4934 4915 4922 5190 
Q 5146 5190 5302 5158 
Q 5459 5126 5459 5062 
z
M 4250 1478 
Q 4250 1459 4224 1434 
Q 4211 1421 4179 1395 
Q 4147 1370 4109 1338 
L 3917 1178 
Q 3866 1210 3821 1242 
Q 3776 1274 3738 1306 
Q 3290 1658 2899 2227 
Q 2707 2496 2534 2918 
Q 2515 2976 2483 3072 
Q 2451 3168 2400 3309 
Q 2221 2688 1754 2054 
Q 1267 1389 710 1114 
Q 698 1120 653 1155 
Q 608 1190 518 1254 
Q 486 1280 444 1312 
Q 403 1344 346 1395 
Q 346 1421 371 1427 
Q 397 1440 406 1449 
Q 416 1459 422 1466 
Q 467 1466 710 1645 
Q 896 1773 1056 1920 
Q 1216 2067 1350 2234 
Q 1549 2464 1696 2729 
Q 1843 2995 1952 3296 
Q 2061 3610 2125 4000 
Q 2157 4205 2173 4381 
Q 2189 4557 2189 4717 
Q 2323 4717 2534 4678 
Q 2752 4653 2752 4576 
Q 2752 4544 2710 4470 
Q 2669 4397 2669 4378 
L 2630 4032 
Q 2656 3923 2681 3814 
Q 2707 3706 2739 3597 
Q 2790 3430 2857 3248 
Q 2925 3066 3021 2867 
Q 3264 2349 3757 1894 
Q 3840 1818 3949 1728 
Q 4058 1638 4198 1530 
L 4237 1491 
L 4250 1478 
z
" transform="scale(0.015625)"/>
       <path id="AppleGothic-ac04" d="M 5363 -422 
L 4947 -422 
Q 4819 -422 4630 -425 
Q 4442 -429 4179 -435 
Q 3667 -454 3597 -454 
L 2221 -448 
Q 1875 -448 1641 -451 
Q 1408 -454 1235 -461 
Q 1222 -410 1222 -282 
L 1222 -173 
L 1229 1203 
L 1581 1190 
L 1651 1197 
Q 1702 1197 1702 1158 
L 1677 1075 
Q 1677 1050 1670 1030 
Q 1645 954 1645 896 
L 1670 -90 
L 2086 -77 
L 3302 -83 
Q 3821 -83 4333 -73 
Q 4845 -64 5363 -58 
L 5363 -422 
z
M 6093 2362 
L 5094 2362 
L 5075 710 
L 4666 717 
L 4666 1824 
Q 4672 2266 4675 2614 
Q 4678 2963 4678 3232 
L 4672 4800 
Q 4672 4922 4672 4992 
Q 4672 5062 4672 5100 
Q 4672 5139 4669 5158 
Q 4666 5178 4659 5197 
Q 4864 5197 4985 5174 
Q 5107 5152 5107 5114 
L 5088 4806 
L 5088 2726 
L 6093 2726 
L 6093 2362 
z
M 3258 4634 
Q 3258 4192 3123 3763 
Q 2893 2989 2291 2413 
Q 1843 1978 1242 1664 
Q 787 1427 659 1427 
Q 595 1472 547 1510 
Q 499 1549 461 1581 
Q 314 1709 314 1747 
L 320 1766 
L 339 1754 
Q 518 1754 966 1958 
Q 1267 2093 1526 2272 
Q 1786 2451 2010 2675 
Q 2342 3008 2547 3424 
Q 2624 3578 2678 3728 
Q 2733 3878 2765 4026 
Q 2771 4090 2777 4144 
Q 2784 4198 2797 4262 
L 538 4250 
L 538 4634 
L 1818 4614 
L 3258 4634 
z
" transform="scale(0.015625)"/>
       <path id="AppleGothic-20" transform="scale(0.015625)"/>
       <path id="AppleGothic-28" d="M 2227 5261 
L 2650 5261 
Q 2342 4768 2169 4473 
Q 1997 4179 1958 4083 
Q 1606 3283 1606 2272 
Q 1606 1587 1754 1018 
Q 1882 570 2138 102 
Q 2150 70 2275 -131 
Q 2400 -333 2630 -717 
L 2227 -717 
Q 2099 -531 1980 -355 
Q 1862 -179 1734 0 
Q 1581 243 1469 483 
Q 1357 723 1274 954 
Q 1069 1587 1069 2272 
Q 1069 2963 1261 3558 
Q 1338 3789 1450 4022 
Q 1562 4256 1715 4499 
Q 1843 4691 1971 4880 
Q 2099 5069 2227 5261 
z
" transform="scale(0.015625)"/>
       <path id="AppleGothic-54" d="M 166 5018 
L 4038 5018 
L 4038 4576 
L 2355 4576 
L 2355 0 
L 1856 0 
L 1856 4576 
L 166 4576 
L 166 5018 
z
" transform="scale(0.015625)"/>
       <path id="AppleGothic-69" d="M 256 3424 
L 717 3424 
L 717 0 
L 256 0 
L 256 3424 
z
M 480 4870 
Q 614 4870 704 4780 
Q 794 4691 794 4525 
Q 794 4358 710 4268 
Q 627 4179 480 4179 
Q 333 4179 253 4281 
Q 173 4384 173 4518 
Q 173 4730 269 4800 
Q 365 4870 480 4870 
z
" transform="scale(0.015625)"/>
       <path id="AppleGothic-6d" d="M 5389 2195 
L 5389 0 
L 4922 0 
L 4922 2304 
Q 4922 2669 4672 2893 
Q 4461 3085 4173 3085 
Q 3744 3085 3405 2688 
Q 3072 2298 3072 1722 
L 3072 0 
L 2605 0 
L 2605 2304 
Q 2605 2650 2368 2861 
Q 2144 3085 1856 3085 
Q 1440 3085 1114 2714 
Q 755 2304 755 1702 
L 755 0 
L 288 0 
L 288 3424 
L 723 3424 
L 742 2880 
Q 928 3181 1274 3354 
Q 1581 3501 1894 3501 
Q 2381 3501 2714 3219 
Q 2957 3008 3021 2797 
Q 3149 3034 3386 3226 
Q 3757 3501 4205 3501 
Q 4749 3501 5050 3174 
Q 5389 2803 5389 2195 
z
" transform="scale(0.015625)"/>
       <path id="AppleGothic-65" d="M 3296 1850 
L 691 1850 
Q 691 1114 1033 726 
Q 1376 339 1933 339 
Q 2355 339 2746 608 
Q 2854 678 2976 784 
Q 3098 890 3238 1030 
L 3238 474 
Q 3085 358 2953 272 
Q 2822 186 2707 128 
Q 2304 -83 1901 -83 
Q 1203 -83 717 397 
Q 192 902 192 1709 
Q 192 2470 666 2982 
Q 1146 3501 1850 3501 
Q 2534 3501 2938 3002 
Q 3296 2547 3296 1850 
z
M 755 2240 
L 2758 2240 
Q 2682 2675 2429 2889 
Q 2176 3104 1818 3104 
Q 1421 3104 1146 2854 
Q 890 2624 755 2240 
z
" transform="scale(0.015625)"/>
       <path id="AppleGothic-70" d="M 736 307 
L 736 -1101 
L 288 -1101 
L 288 3424 
L 704 3424 
L 730 2803 
Q 941 3149 1216 3325 
Q 1491 3501 1882 3501 
Q 2522 3501 2944 3002 
Q 3162 2752 3270 2441 
Q 3379 2131 3379 1747 
Q 3379 954 2899 435 
Q 2419 -83 1754 -83 
Q 1421 -83 1139 58 
Q 1056 90 960 154 
Q 864 218 736 307 
z
M 736 1824 
L 736 800 
Q 838 704 924 637 
Q 1011 570 1082 525 
Q 1395 339 1715 339 
Q 2227 339 2554 742 
Q 2886 1165 2886 1766 
Q 2886 2330 2579 2707 
Q 2278 3085 1811 3085 
Q 1331 3085 1018 2669 
Q 736 2291 736 1824 
z
" transform="scale(0.015625)"/>
       <path id="AppleGothic-6f" d="M 1888 -83 
Q 1229 -83 730 397 
Q 198 902 198 1709 
Q 198 2470 666 2982 
Q 1146 3501 1850 3501 
Q 2547 3501 3027 2982 
Q 3501 2470 3501 1715 
Q 3501 922 2989 403 
Q 2515 -83 1888 -83 
z
M 1843 339 
Q 2304 339 2662 723 
Q 3008 1114 3008 1715 
Q 3008 2336 2637 2726 
Q 2298 3085 1850 3085 
Q 1389 3085 1062 2714 
Q 704 2304 704 1709 
Q 704 1107 1056 704 
Q 1382 339 1843 339 
z
" transform="scale(0.015625)"/>
       <path id="AppleGothic-6e" d="M 3264 2291 
L 3264 0 
L 2803 0 
L 2803 2259 
Q 2803 2618 2541 2848 
Q 2278 3085 1914 3085 
Q 1427 3085 1075 2682 
Q 723 2272 723 1760 
L 723 0 
L 288 0 
L 288 3424 
L 691 3424 
L 710 2784 
Q 883 3046 1114 3219 
Q 1491 3501 1965 3501 
Q 2515 3501 2886 3168 
Q 3264 2842 3264 2291 
z
" transform="scale(0.015625)"/>
       <path id="AppleGothic-74" d="M 691 4435 
L 1114 4435 
L 1114 3430 
L 2016 3430 
L 2016 3014 
L 1114 3014 
L 1114 838 
Q 1114 570 1213 454 
Q 1312 339 1555 339 
Q 1696 339 1795 371 
Q 1894 403 2016 454 
L 2016 38 
Q 1914 6 1770 -22 
Q 1626 -51 1478 -51 
Q 1094 -51 883 122 
Q 646 301 646 698 
L 646 3014 
L 70 3014 
L 70 3430 
L 646 3430 
L 691 4435 
z
" transform="scale(0.015625)"/>
       <path id="AppleGothic-29" d="M 2221 2272 
Q 2221 1587 2016 960 
Q 1862 499 1555 6 
Q 1427 -179 1305 -355 
Q 1184 -531 1062 -717 
L 659 -717 
Q 781 -512 902 -310 
Q 1024 -109 1152 96 
Q 1280 333 1376 557 
Q 1472 781 1530 1005 
Q 1683 1562 1683 2272 
Q 1683 2650 1641 2973 
Q 1600 3296 1517 3584 
Q 1459 3802 1356 4029 
Q 1254 4256 1120 4499 
Q 992 4691 873 4880 
Q 755 5069 640 5261 
L 1062 5261 
Q 1190 5069 1315 4880 
Q 1440 4691 1568 4506 
Q 1722 4256 1837 4022 
Q 1952 3789 2022 3565 
Q 2221 2976 2221 2272 
z
" transform="scale(0.015625)"/>
      </defs>
      <use xlink:href="#AppleGothic-c2dc"/>
      <use xlink:href="#AppleGothic-ac04" transform="translate(99.999985 0)"/>
      <use xlink:href="#AppleGothic-20" transform="translate(199.999969 0)"/>
      <use xlink:href="#AppleGothic-28" transform="translate(231.999954 0)"/>
      <use xlink:href="#AppleGothic-54" transform="translate(281.999939 0)"/>
      <use xlink:href="#AppleGothic-69" transform="translate(348.09993 0)"/>
      <use xlink:href="#AppleGothic-6d" transform="translate(363.999924 0)"/>
      <use xlink:href="#AppleGothic-65" transform="translate(453.299911 0)"/>
      <use xlink:href="#AppleGothic-70" transform="translate(508.199905 0)"/>
      <use xlink:href="#AppleGothic-6f" transform="translate(563.599899 0)"/>
      <use xlink:href="#AppleGothic-69" transform="translate(621.899887 0)"/>
      <use xlink:href="#AppleGothic-6e" transform="translate(637.799881 0)"/>
      <use xlink:href="#AppleGothic-74" transform="translate(693.699875 0)"/>
      <use xlink:href="#AppleGothic-29" transform="translate(727.899872 0)"/>
     </g>
    </g>
   </g>
   <g id="matplotlib.axis_2">
    <g id="ytick_1">
     <g id="line2d_9">
      <defs>
       <path id="mda9786fab0" d="M 0 0 
L -6 0 
" style="stroke: #262626; stroke-width: 1.25"/>
      </defs>
      <g>
       <use xlink:href="#mda9786fab0" x="64.748125" y="313.142034" style="fill: #262626; stroke: #262626; stroke-width: 1.25"/>
      </g>
     </g>
     <g id="text_10">
      <!-- -0.05 -->
      <g style="fill: #262626" transform="translate(23.513125 317.454378) scale(0.11 -0.11)">
       <defs>
        <path id="AppleGothic-2d" d="M 256 1958 
L 2349 1958 
L 2349 1491 
L 256 1491 
L 256 1958 
z
" transform="scale(0.015625)"/>
       </defs>
       <use xlink:href="#AppleGothic-2d"/>
       <use xlink:href="#AppleGothic-30" transform="translate(49.999985 0)"/>
       <use xlink:href="#AppleGothic-2e" transform="translate(117.999969 0)"/>
       <use xlink:href="#AppleGothic-30" transform="translate(152.499954 0)"/>
       <use xlink:href="#AppleGothic-35" transform="translate(220.499939 0)"/>
      </g>
     </g>
    </g>
    <g id="ytick_2">
     <g id="line2d_10">
      <g>
       <use xlink:href="#mda9786fab0" x="64.748125" y="250.164073" style="fill: #262626; stroke: #262626; stroke-width: 1.25"/>
      </g>
     </g>
     <g id="text_11">
      <!-- 0.00 -->
      <g style="fill: #262626" transform="translate(29.013125 254.476417) scale(0.11 -0.11)">
       <use xlink:href="#AppleGothic-30"/>
       <use xlink:href="#AppleGothic-2e" transform="translate(67.999985 0)"/>
       <use xlink:href="#AppleGothic-30" transform="translate(102.499969 0)"/>
       <use xlink:href="#AppleGothic-30" transform="translate(170.499954 0)"/>
      </g>
     </g>
    </g>
    <g id="ytick_3">
     <g id="line2d_11">
      <g>
       <use xlink:href="#mda9786fab0" x="64.748125" y="187.186112" style="fill: #262626; stroke: #262626; stroke-width: 1.25"/>
      </g>
     </g>
     <g id="text_12">
      <!-- 0.05 -->
      <g style="fill: #262626" transform="translate(29.013125 191.498456) scale(0.11 -0.11)">
       <use xlink:href="#AppleGothic-30"/>
       <use xlink:href="#AppleGothic-2e" transform="translate(67.999985 0)"/>
       <use xlink:href="#AppleGothic-30" transform="translate(102.499969 0)"/>
       <use xlink:href="#AppleGothic-35" transform="translate(170.499954 0)"/>
      </g>
     </g>
    </g>
    <g id="ytick_4">
     <g id="line2d_12">
      <g>
       <use xlink:href="#mda9786fab0" x="64.748125" y="124.208151" style="fill: #262626; stroke: #262626; stroke-width: 1.25"/>
      </g>
     </g>
     <g id="text_13">
      <!-- 0.10 -->
      <g style="fill: #262626" transform="translate(29.013125 128.520495) scale(0.11 -0.11)">
       <use xlink:href="#AppleGothic-30"/>
       <use xlink:href="#AppleGothic-2e" transform="translate(67.999985 0)"/>
       <use xlink:href="#AppleGothic-31" transform="translate(102.499969 0)"/>
       <use xlink:href="#AppleGothic-30" transform="translate(170.499954 0)"/>
      </g>
     </g>
    </g>
    <g id="ytick_5">
     <g id="line2d_13">
      <g>
       <use xlink:href="#mda9786fab0" x="64.748125" y="61.23019" style="fill: #262626; stroke: #262626; stroke-width: 1.25"/>
      </g>
     </g>
     <g id="text_14">
      <!-- 0.15 -->
      <g style="fill: #262626" transform="translate(29.013125 65.542534) scale(0.11 -0.11)">
       <use xlink:href="#AppleGothic-30"/>
       <use xlink:href="#AppleGothic-2e" transform="translate(67.999985 0)"/>
       <use xlink:href="#AppleGothic-31" transform="translate(102.499969 0)"/>
       <use xlink:href="#AppleGothic-35" transform="translate(170.499954 0)"/>
      </g>
     </g>
    </g>
    <g id="text_15">
     <!-- 신호 강도 (Signal) -->
     <g style="fill: #262626" transform="translate(17.064375 239.089687) rotate(-90) scale(0.12 -0.12)">
      <defs>
       <path id="AppleGothic-c2e0" d="M 5574 -448 
L 5203 -448 
Q 3840 -429 3642 -429 
L 2362 -429 
Q 1939 -442 1555 -448 
L 1568 358 
L 1555 1075 
L 1594 1075 
Q 1786 1075 1949 1056 
Q 2112 1037 2112 973 
Q 2112 947 2080 876 
Q 2048 806 2048 781 
L 2035 403 
L 2054 -32 
Q 2182 -38 2374 -38 
Q 2566 -38 2816 -45 
Q 3072 -51 3273 -51 
Q 3475 -51 3622 -51 
Q 4006 -51 4304 -51 
Q 4602 -51 4813 -45 
Q 5024 -38 5213 -35 
Q 5402 -32 5574 -19 
L 5574 -448 
z
M 5466 5056 
Q 5466 5030 5437 4956 
Q 5408 4883 5408 4845 
L 5395 2822 
L 5408 717 
L 4928 685 
Q 4934 986 4937 1296 
Q 4941 1606 4947 1939 
Q 4954 2266 4957 2515 
Q 4960 2765 4960 2931 
Q 4960 3450 4957 3824 
Q 4954 4198 4947 4422 
Q 4941 4653 4937 4841 
Q 4934 5030 4922 5190 
L 4979 5190 
Q 5165 5190 5315 5164 
Q 5466 5139 5466 5056 
z
M 4198 2202 
Q 4147 2150 4108 2112 
Q 4070 2074 4045 2048 
Q 3878 1894 3872 1894 
Q 3802 1946 3741 1984 
Q 3680 2022 3629 2054 
Q 3328 2278 3062 2563 
Q 2797 2848 2592 3258 
Q 2560 3322 2525 3411 
Q 2490 3501 2445 3610 
Q 2406 3520 2368 3440 
Q 2330 3360 2291 3296 
Q 2067 2893 1709 2528 
Q 1421 2221 1056 1958 
Q 992 1914 918 1859 
Q 845 1805 742 1741 
L 518 1914 
Q 486 1933 460 1952 
Q 435 1971 416 1984 
Q 410 1990 403 1996 
Q 397 2003 384 2010 
Q 390 2029 403 2042 
Q 403 2048 442 2080 
Q 448 2080 666 2227 
Q 806 2323 931 2422 
Q 1056 2522 1178 2630 
Q 1344 2784 1481 2937 
Q 1619 3091 1728 3245 
Q 1984 3610 2128 4029 
Q 2272 4448 2272 4838 
Q 2445 4813 2566 4781 
Q 2803 4723 2803 4666 
Q 2803 4653 2787 4624 
Q 2771 4595 2752 4566 
Q 2733 4538 2717 4509 
Q 2701 4480 2701 4474 
Q 2701 4250 2790 3930 
Q 2925 3450 3245 3040 
Q 3366 2886 3516 2742 
Q 3667 2598 3853 2464 
Q 3910 2419 3990 2364 
Q 4070 2310 4166 2253 
Q 4179 2240 4198 2202 
z
" transform="scale(0.015625)"/>
       <path id="AppleGothic-d638" d="M 4365 2547 
Q 4365 2771 4067 2896 
Q 3770 3021 3142 3021 
Q 2406 3021 2144 2861 
Q 1965 2765 1965 2554 
Q 1965 2285 2330 2163 
Q 2643 2054 3181 2054 
Q 3802 2054 4083 2188 
Q 4365 2323 4365 2547 
z
M 6029 179 
Q 5869 186 5737 186 
Q 5606 186 5498 186 
Q 4755 198 4233 204 
Q 3712 211 3398 211 
L 390 179 
L 390 659 
L 1338 621 
L 2931 614 
L 2912 1542 
L 2944 1542 
Q 3149 1542 3302 1526 
Q 3456 1510 3456 1440 
Q 3456 1414 3430 1337 
Q 3405 1261 3405 1203 
L 3405 614 
L 4627 614 
Q 4966 614 5340 620 
Q 5715 627 6029 640 
L 6029 179 
z
M 4813 2534 
Q 4813 2144 4442 1926 
Q 4032 1690 3174 1690 
Q 2432 1690 2016 1869 
Q 1491 2093 1491 2579 
Q 1491 3014 1923 3206 
Q 2355 3398 3155 3398 
Q 4006 3398 4409 3184 
Q 4813 2970 4813 2534 
z
M 5382 3693 
Q 4851 3706 4243 3712 
Q 3936 3718 3648 3718 
Q 3360 3718 3091 3718 
Q 2470 3718 1932 3705 
Q 1395 3693 960 3680 
L 960 4128 
Q 1082 4122 1178 4122 
Q 1274 4122 1357 4122 
Q 1914 4109 2333 4102 
Q 2752 4096 3046 4096 
Q 3757 4096 4320 4109 
Q 4883 4122 5382 4134 
L 5382 3693 
z
M 3942 4454 
L 3104 4480 
Q 2880 4480 2681 4467 
Q 2483 4454 2330 4442 
L 2330 4890 
Q 2496 4877 2701 4870 
Q 2906 4864 3098 4864 
Q 3283 4864 3500 4870 
Q 3718 4877 3942 4890 
L 3942 4454 
z
" transform="scale(0.015625)"/>
       <path id="AppleGothic-ac15" d="M 4787 518 
Q 4787 915 4256 1094 
Q 4051 1165 3792 1197 
Q 3533 1229 3219 1229 
Q 2874 1229 2598 1206 
Q 2323 1184 2112 1133 
Q 1453 966 1427 595 
Q 1427 256 1792 83 
Q 2227 -134 3264 -134 
Q 3667 -134 3964 -89 
Q 4262 -45 4454 58 
Q 4787 224 4787 518 
z
M 5235 525 
Q 5235 -58 4576 -314 
Q 4077 -499 3264 -499 
L 3091 -499 
Q 2221 -499 1658 -262 
Q 998 13 998 576 
Q 998 1120 1760 1370 
Q 2342 1562 3200 1562 
Q 4000 1562 4563 1338 
Q 5235 1069 5235 525 
z
M 3334 4749 
Q 3334 4582 3296 4403 
Q 3206 3987 3021 3603 
Q 2733 3066 2266 2611 
Q 2080 2438 1885 2291 
Q 1690 2144 1472 2016 
Q 1325 1933 1168 1859 
Q 1011 1786 826 1722 
Q 576 1632 557 1632 
L 403 1786 
Q 390 1805 358 1827 
Q 326 1850 294 1872 
Q 262 1894 236 1910 
Q 211 1926 211 1939 
L 230 1958 
Q 333 1978 416 1994 
Q 499 2010 570 2035 
Q 1357 2291 1971 2848 
Q 2368 3219 2598 3661 
Q 2746 3949 2861 4384 
L 1715 4403 
L 506 4397 
L 506 4762 
L 1504 4749 
L 3334 4749 
z
M 6048 2784 
L 5094 2771 
L 5088 1690 
L 4666 1638 
L 4666 2048 
Q 4666 2202 4666 2541 
Q 4666 2880 4672 3418 
Q 4678 3962 4681 4294 
Q 4685 4627 4685 4762 
Q 4685 4947 4678 5046 
Q 4672 5146 4659 5190 
L 4787 5190 
Q 4973 5190 5065 5171 
Q 5158 5152 5158 5082 
Q 5158 5050 5126 4963 
Q 5094 4877 5094 4832 
L 5069 4045 
L 5075 3130 
L 5504 3123 
L 6048 3142 
L 6048 2784 
z
" transform="scale(0.015625)"/>
       <path id="AppleGothic-b3c4" d="M 6061 -38 
L 3181 -6 
L 2938 -6 
Q 2560 -6 2269 -6 
Q 1978 -6 1766 -13 
Q 1562 -19 1360 -19 
Q 1158 -19 954 -26 
Q 557 -32 352 -45 
L 352 416 
L 1549 397 
L 2963 403 
L 2982 1139 
L 2970 2035 
L 3066 2035 
Q 3238 2035 3369 2012 
Q 3501 1990 3501 1920 
Q 3501 1901 3478 1821 
Q 3456 1741 3456 1709 
Q 3424 1658 3424 1030 
Q 3424 800 3443 531 
Q 3443 506 3446 474 
Q 3450 442 3456 403 
L 4608 397 
Q 4960 397 5347 400 
Q 5734 403 6061 416 
L 6061 -38 
z
M 5299 2202 
L 3744 2208 
L 1146 2195 
L 1165 3379 
L 1152 4640 
Q 1293 4634 1408 4634 
Q 1523 4634 1619 4634 
Q 2266 4621 2701 4614 
Q 3136 4608 3360 4608 
L 5248 4621 
L 5248 4205 
L 3354 4218 
L 1632 4211 
L 1613 3424 
L 1626 2598 
Q 2029 2586 2512 2579 
Q 2995 2573 3443 2573 
Q 3648 2573 3875 2573 
Q 4102 2573 4358 2579 
Q 4858 2586 5299 2598 
L 5299 2202 
z
" transform="scale(0.015625)"/>
       <path id="AppleGothic-53" d="M 3418 4666 
L 3418 4019 
Q 3251 4160 3081 4269 
Q 2912 4378 2746 4448 
Q 2362 4627 1965 4627 
Q 1466 4627 1139 4378 
Q 806 4122 806 3770 
Q 806 3258 1562 3002 
Q 1914 2880 2262 2768 
Q 2611 2656 2970 2541 
Q 3731 2176 3731 1453 
Q 3731 749 3187 320 
Q 2669 -83 1901 -83 
Q 1389 -83 915 115 
Q 640 224 262 474 
L 262 1126 
Q 755 685 1261 506 
Q 1427 442 1587 416 
Q 1747 390 1907 390 
Q 2419 390 2771 646 
Q 3162 928 3162 1382 
Q 3162 1933 2419 2221 
Q 2061 2330 1715 2445 
Q 1370 2560 1024 2669 
Q 275 3014 275 3731 
Q 275 4333 749 4710 
Q 1235 5101 1965 5101 
Q 2413 5101 2861 4934 
Q 3091 4858 3418 4666 
z
" transform="scale(0.015625)"/>
       <path id="AppleGothic-67" d="M 2822 3040 
L 2950 3424 
L 3290 3424 
L 3290 326 
Q 3290 -474 2899 -890 
Q 2509 -1306 1690 -1306 
Q 1357 -1306 1059 -1187 
Q 762 -1069 435 -819 
L 435 -256 
Q 640 -448 838 -579 
Q 1037 -710 1229 -781 
Q 1453 -864 1690 -864 
Q 2195 -864 2477 -634 
Q 2822 -352 2822 269 
L 2822 691 
Q 2579 288 2221 122 
Q 1978 6 1683 6 
Q 1050 6 621 512 
Q 198 1030 198 1709 
Q 198 2387 595 2906 
Q 1056 3501 1773 3501 
Q 2131 3501 2451 3328 
Q 2547 3270 2640 3200 
Q 2733 3130 2822 3040 
z
M 2822 1658 
L 2822 2598 
Q 2714 2720 2602 2803 
Q 2490 2886 2381 2950 
Q 2253 3021 2118 3053 
Q 1984 3085 1843 3085 
Q 1363 3085 1050 2746 
Q 698 2362 698 1734 
Q 698 1165 992 794 
Q 1280 429 1741 429 
Q 2195 429 2509 781 
Q 2822 1120 2822 1658 
z
" transform="scale(0.015625)"/>
       <path id="AppleGothic-61" d="M 2950 2214 
L 2950 602 
Q 2950 493 2998 413 
Q 3046 333 3174 333 
Q 3213 333 3238 336 
Q 3264 339 3290 346 
Q 3328 358 3357 371 
Q 3386 384 3405 390 
L 3405 32 
Q 3290 -6 3174 -22 
Q 3059 -38 2995 -38 
Q 2669 -38 2566 134 
Q 2483 243 2483 602 
Q 2400 461 2317 355 
Q 2234 250 2150 179 
Q 1818 -83 1376 -83 
Q 909 -83 563 192 
Q 205 486 205 941 
Q 205 1510 781 1779 
Q 992 1882 1341 1958 
Q 1690 2035 2176 2099 
L 2483 2131 
Q 2483 2579 2256 2832 
Q 2029 3085 1587 3085 
Q 1421 3085 1257 3043 
Q 1094 3002 928 2912 
Q 838 2861 729 2790 
Q 621 2720 493 2611 
L 493 3136 
Q 1037 3501 1664 3501 
Q 2304 3501 2650 3098 
Q 2950 2746 2950 2214 
z
M 2483 1542 
L 2483 1747 
L 2266 1722 
Q 1466 1638 1139 1498 
Q 704 1325 704 934 
Q 704 819 755 713 
Q 806 608 896 525 
Q 986 442 1117 390 
Q 1248 339 1408 339 
Q 1843 339 2170 691 
Q 2483 1050 2483 1542 
z
" transform="scale(0.015625)"/>
       <path id="AppleGothic-6c" d="M 288 5018 
L 749 5018 
L 749 0 
L 288 0 
L 288 5018 
z
" transform="scale(0.015625)"/>
      </defs>
      <use xlink:href="#AppleGothic-c2e0"/>
      <use xlink:href="#AppleGothic-d638" transform="translate(99.999985 0)"/>
      <use xlink:href="#AppleGothic-20" transform="translate(199.999969 0)"/>
      <use xlink:href="#AppleGothic-ac15" transform="translate(231.999954 0)"/>
      <use xlink:href="#AppleGothic-b3c4" transform="translate(331.999939 0)"/>
      <use xlink:href="#AppleGothic-20" transform="translate(431.999924 0)"/>
      <use xlink:href="#AppleGothic-28" transform="translate(463.999908 0)"/>
      <use xlink:href="#AppleGothic-53" transform="translate(513.999893 0)"/>
      <use xlink:href="#AppleGothic-69" transform="translate(577.19989 0)"/>
      <use xlink:href="#AppleGothic-67" transform="translate(593.099884 0)"/>
      <use xlink:href="#AppleGothic-6e" transform="translate(649.299881 0)"/>
      <use xlink:href="#AppleGothic-61" transform="translate(705.199875 0)"/>
      <use xlink:href="#AppleGothic-6c" transform="translate(761.69986 0)"/>
      <use xlink:href="#AppleGothic-29" transform="translate(778.399857 0)"/>
     </g>
    </g>
   </g>
   <g id="FillBetweenPolyCollection_1">
    <defs>
     <path id="mca6b72beba" d="M 90.111761 -137.28283 
L 90.111761 -119.240933 
L 118.29358 -106.760284 
L 146.475398 -120.779256 
L 174.657216 -174.211822 
L 202.839034 -243.586394 
L 231.020852 -279.892504 
L 259.20267 -265.751074 
L 287.384489 -204.095791 
L 315.566307 -132.278837 
L 343.748125 -83.960324 
L 371.929943 -64.078118 
L 400.111761 -58.265781 
L 428.29358 -62.877013 
L 456.475398 -75.319243 
L 484.657216 -90.991375 
L 512.839034 -102.991282 
L 541.020852 -108.513496 
L 569.20267 -110.94995 
L 597.384489 -109.567961 
L 597.384489 -133.270977 
L 597.384489 -133.270977 
L 569.20267 -134.388086 
L 541.020852 -131.551873 
L 512.839034 -128.175157 
L 484.657216 -120.883357 
L 456.475398 -112.311129 
L 428.29358 -100.531518 
L 400.111761 -91.540488 
L 371.929943 -97.791613 
L 343.748125 -132.229053 
L 315.566307 -201.450587 
L 287.384489 -287.344152 
L 259.20267 -354.462891 
L 231.020852 -360.665781 
L 202.839034 -301.63238 
L 174.657216 -210.06747 
L 146.475398 -143.863416 
L 118.29358 -126.957009 
L 90.111761 -137.28283 
z
" style="stroke: #4b0082; stroke-opacity: 0.2"/>
    </defs>
    <g clip-path="url(#p9833e26ba5)">
     <use xlink:href="#mca6b72beba" x="0" y="398.850156" style="fill: #4b0082; fill-opacity: 0.2; stroke: #4b0082; stroke-opacity: 0.2"/>
    </g>
   </g>
   <g id="line2d_14">
    <path d="M 90.111761 271.150516 
L 118.29358 281.655144 
L 146.475398 266.378592 
L 174.657216 206.777366 
L 202.839034 126.482601 
L 231.020852 76.690773 
L 259.20267 89.551035 
L 287.384489 154.866008 
L 315.566307 233.260825 
L 343.748125 290.521503 
L 371.929943 317.783429 
L 400.111761 323.463472 
L 428.29358 316.323541 
L 456.475398 304.995419 
L 484.657216 292.561269 
L 512.839034 282.761279 
L 541.020852 278.396331 
L 569.20267 277.078449 
L 597.384489 277.70743 
" clip-path="url(#p9833e26ba5)" style="fill: none; stroke: #4b0082; stroke-width: 3; stroke-linecap: round"/>
   </g>
   <g id="line2d_15">
    <path d="M 64.748125 250.164073 
L 622.748125 250.164073 
" clip-path="url(#p9833e26ba5)" style="fill: none; stroke-dasharray: 5.55,2.4; stroke-dashoffset: 0; stroke: #808080; stroke-width: 1.5"/>
   </g>
   <g id="patch_3">
    <path d="M 64.748125 355.704375 
L 64.748125 23.064375 
" style="fill: none; stroke: #262626; stroke-width: 1.25; stroke-linejoin: miter; stroke-linecap: square"/>
   </g>
   <g id="patch_4">
    <path d="M 622.748125 355.704375 
L 622.748125 23.064375 
" style="fill: none; stroke: #262626; stroke-width: 1.25; stroke-linejoin: miter; stroke-linecap: square"/>
   </g>
   <g id="patch_5">
    <path d="M 64.748125 355.704375 
L 622.748125 355.704375 
" style="fill: none; stroke: #262626; stroke-width: 1.25; stroke-linejoin: miter; stroke-linecap: square"/>
   </g>
   <g id="patch_6">
    <path d="M 64.748125 23.064375 
L 622.748125 23.064375 
" style="fill: none; stroke: #262626; stroke-width: 1.25; stroke-linejoin: miter; stroke-linecap: square"/>
   </g>
   <g id="text_16">
    <!-- 시간 흐름에 따른 뇌파 신호(Signal)의 변화와 신뢰구간 -->
    <g style="fill: #262626" transform="translate(196.362813 17.064375) scale(0.12 -0.12)">
     <defs>
      <path id="AppleGothic-d750" d="M 4422 2266 
Q 4422 2509 4128 2640 
Q 3834 2771 3194 2771 
Q 2464 2771 2202 2592 
Q 2022 2490 2022 2266 
Q 2022 1984 2387 1843 
Q 2547 1779 2755 1753 
Q 2963 1728 3232 1728 
Q 3853 1728 4137 1872 
Q 4422 2016 4422 2266 
z
M 5997 224 
Q 5472 237 4825 243 
Q 4179 250 3501 250 
L 3187 250 
Q 2944 250 2704 250 
Q 2464 250 2240 243 
Q 2010 237 1667 230 
Q 1325 224 877 211 
Q 755 205 640 205 
Q 525 205 403 198 
L 403 685 
Q 480 685 643 681 
Q 806 678 1069 672 
Q 1331 666 1619 666 
Q 1907 666 2234 659 
Q 2560 653 2793 653 
Q 3027 653 3162 653 
Q 3398 653 3628 653 
Q 3859 653 4090 659 
Q 4320 666 4579 666 
Q 4838 666 5146 672 
Q 5446 685 5657 688 
Q 5869 691 5997 698 
L 5997 224 
z
M 4864 2246 
Q 4864 1818 4493 1581 
Q 4077 1325 3226 1325 
Q 2515 1325 2067 1523 
Q 1542 1773 1542 2291 
Q 1542 2752 1974 2963 
Q 2406 3174 3206 3174 
Q 4864 3174 4864 2246 
z
M 5434 3494 
Q 5274 3501 5152 3501 
Q 5030 3501 4934 3501 
Q 4250 3514 3802 3520 
Q 3354 3526 3142 3526 
Q 2451 3526 1894 3510 
Q 1338 3494 960 3482 
L 960 3955 
Q 1197 3949 1481 3942 
Q 1766 3936 2099 3930 
Q 2432 3923 2681 3923 
Q 2931 3923 3098 3923 
Q 3814 3923 4374 3936 
Q 4934 3949 5434 3968 
L 5434 3494 
z
M 4083 4320 
Q 4038 4320 3920 4323 
Q 3802 4326 3610 4333 
Q 3226 4352 3149 4352 
Q 2899 4352 2688 4336 
Q 2477 4320 2323 4307 
L 2317 4755 
L 3142 4749 
Q 3386 4749 3600 4758 
Q 3814 4768 4083 4781 
L 4083 4320 
z
" transform="scale(0.015625)"/>
      <path id="AppleGothic-b984" d="M 4691 13 
L 4691 1056 
L 3533 1062 
L 1811 1050 
L 1811 6 
L 3290 -13 
Q 3827 -13 4150 -6 
Q 4474 0 4691 13 
z
M 5158 -480 
L 4685 -493 
L 4685 -320 
L 3264 -314 
L 1811 -326 
L 1811 -486 
L 1363 -506 
L 1395 378 
L 1395 1382 
L 3270 1370 
Q 3955 1370 4393 1376 
Q 4832 1382 5133 1395 
L 5126 710 
L 5158 -480 
z
M 5997 1965 
Q 5786 1971 5456 1971 
Q 5126 1971 4685 1978 
Q 4243 1984 3875 1984 
Q 3507 1984 3213 1984 
Q 2771 1984 2444 1984 
Q 2118 1984 1888 1978 
Q 1664 1978 1443 1971 
Q 1222 1965 1024 1961 
Q 826 1958 666 1952 
Q 506 1946 403 1946 
L 403 2291 
Q 410 2291 515 2288 
Q 621 2285 826 2278 
Q 1037 2278 1273 2275 
Q 1510 2272 1798 2269 
Q 2086 2266 2432 2266 
Q 2778 2266 3200 2266 
Q 3718 2266 4214 2272 
Q 4710 2278 5190 2291 
Q 5517 2298 5997 2330 
L 5997 1965 
z
M 5133 2803 
Q 4947 2810 4736 2810 
Q 4525 2810 4282 2810 
Q 4038 2816 3843 2816 
Q 3648 2816 3501 2816 
L 1286 2803 
L 1306 3443 
Q 1306 3578 1306 3670 
Q 1306 3763 1302 3833 
Q 1299 3904 1296 3955 
Q 1293 4006 1286 4064 
Q 1395 4058 1548 4058 
Q 1702 4058 1914 4051 
Q 2125 4045 2304 4045 
Q 2483 4045 2630 4045 
L 4640 4045 
L 4640 4634 
L 3226 4640 
Q 2605 4640 2131 4627 
Q 1658 4614 1299 4602 
L 1299 4947 
L 3590 4941 
L 4518 4941 
Q 4806 4947 5056 4960 
L 5043 4403 
L 5056 3738 
L 4019 3750 
Q 3872 3750 3673 3747 
Q 3475 3744 3232 3738 
L 1760 3738 
L 1760 3117 
L 3507 3117 
Q 3859 3117 4192 3126 
Q 4525 3136 4851 3149 
Q 4960 3149 5133 3168 
L 5133 2803 
z
" transform="scale(0.015625)"/>
      <path id="AppleGothic-c5d0" d="M 2707 2669 
Q 2707 3430 2419 3750 
Q 2208 3981 1856 3981 
Q 1491 3981 1267 3686 
Q 1018 3341 1018 2624 
Q 1018 1235 1862 1235 
Q 2336 1235 2541 1696 
Q 2707 2061 2707 2669 
z
M 5670 5050 
Q 5670 4986 5664 4966 
Q 5632 4806 5632 4806 
L 5619 2336 
L 5626 -544 
L 5158 -544 
L 5184 2240 
L 5178 5184 
L 5286 5184 
Q 5453 5184 5561 5158 
Q 5670 5133 5670 5050 
z
M 4499 4966 
Q 4499 4954 4480 4886 
Q 4461 4819 4461 4768 
Q 4454 4506 4451 4230 
Q 4448 3955 4442 3648 
Q 4435 3341 4435 3069 
Q 4435 2797 4435 2554 
L 4448 -64 
L 3968 -64 
L 3994 2349 
L 3136 2349 
Q 3123 2253 3104 2157 
Q 3085 2061 3072 1965 
Q 2970 1523 2720 1235 
Q 2374 845 1818 845 
Q 1133 845 826 1389 
Q 576 1830 576 2675 
Q 576 3456 909 3910 
Q 1248 4384 1862 4384 
Q 2458 4384 2803 3930 
Q 3142 3488 3142 2752 
L 3987 2752 
L 4000 3968 
Q 4000 4230 4000 4416 
Q 4000 4602 3994 4710 
Q 3994 4832 3994 4918 
Q 3994 5005 3987 5069 
L 4064 5069 
Q 4250 5069 4374 5049 
Q 4499 5030 4499 4966 
z
" transform="scale(0.015625)"/>
      <path id="AppleGothic-b530" d="M 6080 1990 
L 5146 1990 
L 5139 1018 
Q 5139 672 5152 262 
Q 5165 -147 5178 -493 
L 4704 -506 
L 4723 1926 
Q 4723 2150 4713 2384 
Q 4704 2618 4698 2880 
L 4698 3136 
Q 4698 3699 4694 4070 
Q 4691 4442 4685 4627 
Q 4678 4813 4672 4950 
Q 4666 5088 4659 5184 
L 4794 5184 
Q 4979 5184 5088 5165 
Q 5197 5146 5197 5075 
Q 5197 5050 5177 4982 
Q 5158 4915 5158 4864 
L 5139 3949 
L 5146 2432 
L 6080 2438 
L 6080 1990 
z
M 4582 1254 
Q 4474 1222 4390 1206 
Q 4307 1190 4243 1178 
Q 3872 1094 3622 1094 
Q 3488 1069 3347 1049 
Q 3206 1030 3059 1011 
Q 2758 973 2669 973 
L 2669 2682 
L 2650 4339 
L 4211 4320 
L 4211 3898 
L 3110 3917 
L 3098 2918 
L 3117 1453 
L 3149 1446 
Q 3264 1446 3421 1462 
Q 3578 1478 3725 1517 
Q 3859 1530 4000 1552 
Q 4141 1574 4275 1600 
Q 4333 1613 4406 1625 
Q 4480 1638 4582 1664 
L 4582 1254 
z
M 2362 1267 
Q 2182 1229 2042 1210 
Q 1862 1184 1721 1161 
Q 1581 1139 1472 1126 
Q 1370 1114 1203 1098 
Q 1037 1082 800 1062 
Q 768 1062 720 1059 
Q 672 1056 621 1050 
L 640 2624 
L 627 4320 
L 2278 4326 
L 2278 3898 
L 1075 3898 
L 1069 2989 
L 1082 1504 
Q 1146 1510 1190 1513 
Q 1235 1517 1267 1517 
Q 1459 1536 1600 1555 
L 2336 1670 
L 2362 1267 
z
" transform="scale(0.015625)"/>
      <path id="AppleGothic-b978" d="M 5299 -269 
Q 5184 -262 5085 -262 
Q 4986 -262 4915 -262 
Q 4378 -250 4019 -243 
Q 3661 -237 3475 -237 
Q 2867 -237 2380 -243 
Q 1894 -250 1440 -269 
L 1453 403 
L 1427 1242 
L 1638 1248 
Q 1683 1248 1737 1245 
Q 1792 1242 1840 1235 
Q 1888 1229 1920 1209 
Q 1952 1190 1952 1165 
Q 1952 1120 1946 1101 
Q 1933 1037 1923 998 
Q 1914 960 1914 941 
L 1888 589 
L 1894 134 
L 3514 128 
Q 4058 128 4480 134 
Q 4902 141 5299 154 
L 5299 -269 
z
M 6061 1638 
Q 6016 1638 5894 1638 
Q 5773 1638 5574 1645 
Q 5190 1651 4474 1664 
Q 4122 1670 3811 1673 
Q 3501 1677 3219 1677 
Q 2733 1677 2329 1673 
Q 1926 1670 1594 1664 
Q 1261 1658 960 1651 
Q 659 1645 384 1632 
L 384 2029 
Q 634 2022 1434 2010 
Q 1837 2003 2272 2003 
Q 2707 2003 3206 2003 
L 4518 2003 
Q 4838 2003 5081 2006 
Q 5325 2010 5507 2016 
Q 5690 2022 5824 2025 
Q 5958 2029 6061 2029 
L 6061 1638 
z
M 5133 2547 
L 1280 2547 
L 1299 3251 
L 1293 3891 
Q 1440 3885 1638 3878 
Q 1837 3872 2080 3866 
L 2918 3866 
L 4640 3872 
L 4640 4486 
L 3213 4486 
Q 2816 4486 2521 4486 
Q 2227 4486 2035 4480 
Q 1843 4480 1657 4477 
Q 1472 4474 1293 4467 
L 1293 4845 
Q 1440 4838 1667 4838 
Q 1894 4838 2208 4832 
Q 2522 4826 2784 4826 
Q 3046 4826 3270 4826 
L 5075 4838 
L 5062 4275 
L 5075 3571 
L 3782 3584 
L 1747 3565 
L 1747 2886 
L 3494 2874 
Q 4058 2874 4442 2886 
Q 4826 2899 5114 2912 
L 5133 2547 
z
" transform="scale(0.015625)"/>
      <path id="AppleGothic-b1cc" d="M 5414 5062 
Q 5414 5050 5402 4986 
Q 5370 4858 5370 4794 
L 5376 4467 
L 5357 2323 
L 5357 -493 
L 4909 -518 
L 4928 1094 
L 2643 960 
L 902 890 
Q 851 877 803 864 
Q 755 851 704 838 
Q 602 838 531 1101 
Q 506 1197 506 1286 
L 2470 1357 
L 2483 2035 
L 2470 2733 
L 1018 2720 
L 1030 3482 
L 1018 4621 
L 1082 4621 
Q 1267 4621 1392 4595 
Q 1517 4570 1517 4480 
Q 1517 4422 1510 4403 
Q 1478 4256 1478 4250 
L 1478 3078 
Q 2042 3078 3053 3098 
Q 3552 3110 3872 3116 
Q 4192 3123 4339 3123 
L 4339 2733 
L 2912 2726 
L 2899 2042 
L 2912 1376 
Q 2976 1382 3024 1382 
Q 3072 1382 3110 1382 
Q 3392 1395 3581 1401 
Q 3770 1408 3872 1408 
L 4928 1472 
L 4928 4499 
L 4915 5190 
Q 5011 5190 5100 5187 
Q 5190 5184 5260 5168 
Q 5331 5152 5372 5126 
Q 5414 5101 5414 5062 
z
" transform="scale(0.015625)"/>
      <path id="AppleGothic-d30c" d="M 4333 1203 
Q 3994 1139 3674 1107 
Q 3405 1082 3113 1069 
Q 2822 1056 2515 1056 
Q 2234 1056 2006 1049 
Q 1779 1043 1594 1030 
Q 1408 1018 1222 1005 
Q 1037 992 845 979 
Q 826 979 678 947 
Q 627 934 589 934 
Q 493 934 435 1107 
Q 384 1293 384 1402 
L 928 1382 
Q 1152 1382 1261 1385 
Q 1370 1389 1466 1402 
L 1370 2349 
Q 1357 2490 1334 2669 
Q 1312 2848 1286 3066 
Q 1280 3136 1267 3235 
Q 1254 3334 1235 3462 
L 1645 3475 
Q 1779 3475 1779 3386 
L 1760 3226 
L 1901 1421 
Q 1997 1421 2086 1424 
Q 2176 1427 2259 1434 
Q 2534 1459 2681 1465 
Q 2829 1472 2848 1472 
L 2957 2406 
Q 3002 2778 3014 3056 
Q 3027 3334 3034 3501 
L 3450 3443 
Q 3565 3424 3565 3366 
Q 3565 3334 3526 3264 
Q 3488 3194 3488 3174 
L 3258 1498 
L 4307 1587 
L 4333 1203 
z
M 6042 2048 
L 5139 2054 
L 5165 -506 
L 4659 -506 
Q 4659 -390 4659 -214 
Q 4659 -38 4666 192 
Q 4666 422 4669 710 
Q 4672 998 4678 1344 
Q 4685 1690 4688 1949 
Q 4691 2208 4691 2381 
Q 4691 3066 4691 3523 
Q 4691 3981 4685 4224 
Q 4678 5190 4659 5190 
L 4755 5190 
Q 4922 5190 5056 5168 
Q 5190 5146 5190 5075 
Q 5190 5043 5168 4950 
Q 5146 4858 5146 4813 
L 5133 4070 
L 5146 2458 
L 6042 2458 
L 6042 2048 
z
M 4026 4026 
L 2438 4045 
Q 2061 4045 1789 4045 
Q 1517 4045 1350 4038 
Q 1184 4038 1027 4035 
Q 870 4032 723 4026 
L 723 4442 
Q 806 4435 873 4435 
Q 941 4435 992 4435 
Q 1434 4422 1786 4412 
Q 2138 4403 2419 4403 
Q 2758 4403 3011 4406 
Q 3264 4410 3430 4416 
Q 3603 4422 3750 4428 
Q 3898 4435 4026 4448 
L 4026 4026 
z
" transform="scale(0.015625)"/>
      <path id="AppleGothic-c758" d="M 3571 3379 
Q 3571 4218 2573 4218 
Q 2061 4218 1776 3987 
Q 1491 3757 1491 3386 
Q 1491 2970 1786 2733 
Q 2054 2522 2509 2522 
Q 3059 2522 3328 2765 
Q 3571 2976 3571 3379 
z
M 4608 1094 
Q 4134 1018 3872 979 
Q 3456 928 3120 899 
Q 2784 870 2528 870 
L 902 813 
Q 858 800 816 790 
Q 774 781 730 768 
Q 653 768 608 941 
Q 563 1114 563 1242 
L 2477 1248 
Q 2938 1248 3334 1273 
Q 3731 1299 4070 1350 
Q 4282 1376 4576 1459 
L 4608 1094 
z
M 5466 5069 
Q 5466 5037 5437 4944 
Q 5408 4851 5408 4813 
L 5408 2298 
Q 5408 2010 5411 1683 
Q 5414 1357 5421 973 
Q 5427 595 5433 230 
Q 5440 -134 5453 -499 
L 4973 -557 
L 4973 45 
Q 4979 237 4979 512 
Q 4979 787 4986 1158 
Q 4992 1523 4992 1788 
Q 4992 2054 4992 2221 
Q 4992 2880 4985 3357 
Q 4979 3834 4966 4122 
Q 4954 4410 4944 4675 
Q 4934 4941 4922 5184 
L 5024 5184 
Q 5190 5184 5328 5158 
Q 5466 5133 5466 5069 
z
M 4006 3328 
Q 4006 2790 3578 2464 
Q 3155 2138 2528 2138 
Q 1894 2138 1504 2445 
Q 1088 2765 1088 3341 
Q 1088 3955 1517 4288 
Q 1920 4602 2541 4602 
Q 3174 4602 3597 4269 
Q 4006 3936 4006 3354 
L 4006 3328 
z
" transform="scale(0.015625)"/>
      <path id="AppleGothic-bcc0" d="M 3059 1939 
L 3059 3123 
L 2163 3136 
L 1248 3123 
L 1248 1939 
L 2118 1926 
L 3059 1939 
z
M 5446 -538 
L 3373 -518 
Q 2912 -518 2400 -524 
Q 1888 -531 1466 -544 
L 1478 371 
Q 1478 595 1478 732 
Q 1478 870 1472 934 
Q 1472 998 1469 1052 
Q 1466 1107 1466 1158 
L 1626 1158 
Q 1811 1158 1904 1139 
Q 1997 1120 1997 1050 
Q 1997 1030 1974 956 
Q 1952 883 1952 851 
L 1939 352 
L 1939 -128 
L 3334 -134 
Q 3917 -134 4461 -128 
Q 5005 -122 5446 -109 
L 5446 -538 
z
M 5440 5043 
Q 5440 5018 5421 4944 
Q 5402 4870 5402 4832 
L 5389 2714 
L 5389 1472 
Q 5395 1254 5398 1036 
Q 5402 819 5408 602 
L 4902 602 
L 4922 1466 
L 4922 2195 
L 3885 2176 
L 3885 2586 
L 4922 2566 
L 4922 3539 
L 3872 3526 
L 3872 3917 
L 4922 3904 
L 4928 4602 
L 4915 5184 
Q 5120 5184 5280 5161 
Q 5440 5139 5440 5043 
z
M 3546 4576 
L 3526 4410 
L 3507 2950 
L 3520 1562 
L 787 1562 
Q 794 1696 794 1885 
Q 794 2074 800 2317 
Q 806 2560 806 2723 
Q 806 2886 806 2976 
Q 806 3578 800 3990 
Q 794 4403 787 4723 
Q 966 4723 1139 4704 
Q 1312 4685 1312 4614 
Q 1312 4582 1286 4505 
Q 1261 4429 1261 4403 
L 1248 3501 
L 1850 3488 
L 3059 3501 
L 3066 4147 
L 3046 4698 
L 3136 4698 
Q 3302 4698 3424 4672 
Q 3546 4646 3546 4576 
z
" transform="scale(0.015625)"/>
      <path id="AppleGothic-d654" d="M 3302 2598 
Q 3302 2835 2970 2982 
Q 2835 3040 2675 3065 
Q 2515 3091 2342 3091 
Q 1888 3091 1677 3034 
Q 1261 2906 1261 2573 
Q 1261 2304 1581 2150 
Q 1894 2003 2317 2003 
Q 2803 2003 3052 2179 
Q 3302 2355 3302 2598 
z
M 4422 1062 
Q 4198 1030 4012 1011 
Q 3827 992 3693 979 
Q 2854 902 2342 902 
Q 1978 902 1558 870 
Q 1139 838 685 806 
Q 634 794 586 787 
Q 538 781 486 768 
Q 442 768 413 809 
Q 384 851 371 918 
Q 358 986 352 1066 
Q 346 1146 346 1229 
L 1331 1235 
Q 1504 1235 1766 1254 
Q 1901 1267 1993 1273 
Q 2086 1280 2138 1280 
L 2138 1664 
Q 1914 1690 1750 1718 
Q 1587 1747 1478 1792 
Q 826 2042 826 2618 
Q 826 3021 1325 3251 
Q 1747 3443 2323 3443 
Q 2963 3443 3331 3209 
Q 3699 2976 3699 2566 
Q 3699 2067 3149 1811 
Q 3059 1766 2921 1731 
Q 2784 1696 2598 1658 
L 2598 1306 
Q 2803 1312 3043 1325 
Q 3283 1338 3533 1363 
L 4422 1459 
L 4422 1062 
z
M 6035 2061 
L 5139 2061 
L 5152 -499 
L 4672 -499 
Q 4678 -288 4678 48 
Q 4678 384 4685 845 
Q 4691 1306 4691 1712 
Q 4691 2118 4691 2470 
Q 4691 2618 4691 2877 
Q 4691 3136 4685 3507 
Q 4678 3878 4678 4176 
Q 4678 4474 4678 4698 
Q 4678 4928 4672 5033 
Q 4666 5139 4653 5190 
L 4819 5190 
Q 5005 5190 5097 5171 
Q 5190 5152 5190 5082 
Q 5190 5062 5165 4954 
Q 5139 4858 5139 4800 
L 5139 2470 
L 6035 2483 
L 6035 2061 
z
M 4128 3648 
L 2189 3667 
L 378 3648 
L 378 4090 
Q 838 4070 1302 4057 
Q 1766 4045 2150 4045 
L 2336 4045 
Q 2899 4045 3321 4051 
Q 3744 4058 4128 4077 
L 4128 3648 
z
M 3046 4410 
L 2355 4422 
L 1427 4410 
L 1427 4800 
Q 1466 4800 1584 4797 
Q 1702 4794 1888 4787 
Q 2080 4781 2189 4777 
Q 2298 4774 2330 4774 
Q 2598 4774 2771 4780 
Q 2944 4787 3046 4800 
L 3046 4410 
z
" transform="scale(0.015625)"/>
      <path id="AppleGothic-c640" d="M 3354 3398 
Q 3354 3789 3072 4045 
Q 2784 4301 2349 4301 
Q 1843 4301 1549 4045 
Q 1286 3802 1286 3424 
Q 1286 2982 1587 2752 
Q 1850 2534 2323 2534 
Q 2848 2534 3123 2829 
Q 3354 3078 3354 3398 
z
M 6042 2054 
L 5146 2054 
L 5158 -506 
L 4678 -506 
Q 4685 -294 4685 42 
Q 4685 378 4691 838 
Q 4698 1299 4698 1705 
Q 4698 2112 4698 2464 
L 4685 4691 
Q 4685 4922 4678 5027 
Q 4672 5133 4659 5184 
L 4800 5184 
Q 4986 5184 5091 5165 
Q 5197 5146 5197 5082 
Q 5197 5056 5171 4947 
Q 5146 4851 5146 4794 
L 5133 3891 
L 5146 2464 
L 6042 2477 
L 6042 2054 
z
M 4429 1120 
Q 4205 1088 4019 1069 
Q 3834 1050 3699 1037 
Q 3258 992 2922 969 
Q 2586 947 2349 947 
Q 2022 947 1584 921 
Q 1146 896 691 864 
Q 640 851 589 838 
Q 538 826 486 813 
Q 429 813 390 944 
Q 352 1075 352 1280 
L 1338 1286 
Q 1510 1286 1773 1306 
Q 1907 1318 2000 1324 
Q 2093 1331 2144 1331 
L 2144 2176 
Q 2003 2176 1805 2234 
Q 1613 2285 1456 2371 
Q 1299 2458 1178 2573 
Q 832 2912 832 3456 
Q 832 4032 1293 4378 
Q 1709 4678 2310 4678 
Q 2957 4678 3373 4326 
Q 3802 3974 3802 3373 
Q 3802 2675 3206 2368 
Q 3104 2317 2957 2275 
Q 2810 2234 2605 2189 
L 2605 1363 
Q 2707 1370 2787 1373 
Q 2867 1376 2931 1376 
Q 3110 1389 3260 1395 
Q 3411 1402 3539 1414 
L 4429 1504 
L 4429 1120 
z
" transform="scale(0.015625)"/>
      <path id="AppleGothic-b8b0" d="M 5434 5082 
Q 5414 5005 5395 4934 
Q 5376 4864 5376 4794 
L 5363 2534 
L 5376 -480 
L 4922 -499 
Q 4934 -275 4937 -25 
Q 4941 224 4947 499 
Q 4954 787 4957 1209 
Q 4960 1632 4960 2214 
Q 4960 2970 4957 3478 
Q 4954 3987 4947 4275 
Q 4941 4563 4934 4787 
Q 4928 5011 4915 5190 
L 5050 5190 
Q 5235 5190 5334 5171 
Q 5434 5152 5434 5082 
z
M 4698 915 
Q 4698 870 3706 806 
Q 3398 787 2969 764 
Q 2541 742 1971 717 
Q 832 666 787 653 
Q 723 640 646 614 
Q 576 614 576 736 
L 544 1062 
L 1126 1056 
L 2336 1082 
L 2355 1600 
L 2336 1990 
L 1043 1978 
L 1062 2669 
L 1043 3418 
L 1882 3411 
L 3565 3424 
L 3565 4134 
L 2458 4134 
Q 2003 4134 1676 4131 
Q 1350 4128 1056 4109 
L 1056 4480 
L 4000 4493 
L 3987 3763 
L 4006 3085 
L 1485 3059 
L 1485 2342 
L 4160 2374 
L 4160 1978 
L 3251 1997 
L 2771 1990 
L 2758 1574 
L 2771 1107 
Q 2957 1120 3174 1133 
Q 3392 1146 3597 1146 
Q 3731 1146 3904 1158 
Q 4077 1171 4282 1197 
Q 4352 1203 4445 1212 
Q 4538 1222 4666 1248 
L 4698 915 
z
" transform="scale(0.015625)"/>
      <path id="AppleGothic-ad6c" d="M 6048 2202 
L 4672 2221 
L 3405 2214 
L 3398 915 
L 3411 -486 
L 2925 -518 
Q 2938 -186 2944 214 
Q 2950 614 2950 986 
L 2944 2214 
L 1600 2214 
L 352 2182 
L 352 2618 
Q 794 2605 1328 2592 
Q 1862 2579 2355 2579 
L 2630 2579 
L 3866 2579 
Q 4141 2586 4346 2598 
Q 4371 2701 4390 2774 
Q 4410 2848 4422 2906 
Q 4550 3360 4576 3469 
Q 4640 3738 4730 4160 
Q 4742 4224 4758 4304 
Q 4774 4384 4794 4474 
L 4454 4474 
Q 3232 4493 3149 4493 
L 1005 4461 
L 1005 4890 
Q 1331 4877 1740 4870 
Q 2150 4864 2605 4864 
L 5325 4877 
Q 5312 4781 5299 4697 
Q 5286 4614 5274 4544 
Q 5203 4147 5062 3571 
Q 5030 3430 4992 3280 
Q 4954 3130 4909 2957 
Q 4883 2867 4857 2780 
Q 4832 2694 4806 2605 
L 6048 2618 
L 6048 2202 
z
" transform="scale(0.015625)"/>
     </defs>
     <use xlink:href="#AppleGothic-c2dc"/>
     <use xlink:href="#AppleGothic-ac04" transform="translate(99.999985 0)"/>
     <use xlink:href="#AppleGothic-20" transform="translate(199.999969 0)"/>
     <use xlink:href="#AppleGothic-d750" transform="translate(231.999954 0)"/>
     <use xlink:href="#AppleGothic-b984" transform="translate(331.999939 0)"/>
     <use xlink:href="#AppleGothic-c5d0" transform="translate(431.999924 0)"/>
     <use xlink:href="#AppleGothic-20" transform="translate(531.999908 0)"/>
     <use xlink:href="#AppleGothic-b530" transform="translate(563.999893 0)"/>
     <use xlink:href="#AppleGothic-b978" transform="translate(663.999878 0)"/>
     <use xlink:href="#AppleGothic-20" transform="translate(763.999863 0)"/>
     <use xlink:href="#AppleGothic-b1cc" transform="translate(795.999847 0)"/>
     <use xlink:href="#AppleGothic-d30c" transform="translate(895.999832 0)"/>
     <use xlink:href="#AppleGothic-20" transform="translate(995.999817 0)"/>
     <use xlink:href="#AppleGothic-c2e0" transform="translate(1027.999802 0)"/>
     <use xlink:href="#AppleGothic-d638" transform="translate(1127.999786 0)"/>
     <use xlink:href="#AppleGothic-28" transform="translate(1227.999771 0)"/>
     <use xlink:href="#AppleGothic-53" transform="translate(1277.999756 0)"/>
     <use xlink:href="#AppleGothic-69" transform="translate(1341.199753 0)"/>
     <use xlink:href="#AppleGothic-67" transform="translate(1357.099747 0)"/>
     <use xlink:href="#AppleGothic-6e" transform="translate(1413.299744 0)"/>
     <use xlink:href="#AppleGothic-61" transform="translate(1469.199738 0)"/>
     <use xlink:href="#AppleGothic-6c" transform="translate(1525.699722 0)"/>
     <use xlink:href="#AppleGothic-29" transform="translate(1542.399719 0)"/>
     <use xlink:href="#AppleGothic-c758" transform="translate(1592.399704 0)"/>
     <use xlink:href="#AppleGothic-20" transform="translate(1692.399689 0)"/>
     <use xlink:href="#AppleGothic-bcc0" transform="translate(1724.399673 0)"/>
     <use xlink:href="#AppleGothic-d654" transform="translate(1824.399658 0)"/>
     <use xlink:href="#AppleGothic-c640" transform="translate(1924.399643 0)"/>
     <use xlink:href="#AppleGothic-20" transform="translate(2024.399628 0)"/>
     <use xlink:href="#AppleGothic-c2e0" transform="translate(2056.399612 0)"/>
     <use xlink:href="#AppleGothic-b8b0" transform="translate(2156.399597 0)"/>
     <use xlink:href="#AppleGothic-ad6c" transform="translate(2256.399582 0)"/>
     <use xlink:href="#AppleGothic-ac04" transform="translate(2356.399567 0)"/>
    </g>
   </g>
  </g>
 </g>
 <defs>
  <clipPath id="p9833e26ba5">
   <rect x="64.748125" y="23.064375" width="558" height="332.64"/>
  </clipPath>
 </defs>
</svg>
