<?xml version="1.0" encoding="utf-8" standalone="no"?>
<!DOCTYPE svg PUBLIC "-//W3C//DTD SVG 1.1//EN"
  "http://www.w3.org/Graphics/SVG/1.1/DTD/svg11.dtd">
<svg xmlns:xlink="http://www.w3.org/1999/xlink" width="553.595312pt" height="342.325781pt" viewBox="0 0 553.595312 342.325781" xmlns="http://www.w3.org/2000/svg" version="1.1">
 <metadata>
  <rdf:RDF xmlns:dc="http://purl.org/dc/elements/1.1/" xmlns:cc="http://creativecommons.org/ns#" xmlns:rdf="http://www.w3.org/1999/02/22-rdf-syntax-ns#">
   <cc:Work>
    <dc:type rdf:resource="http://purl.org/dc/dcmitype/StillImage"/>
    <dc:date>2026-05-25T18:32:47.684610</dc:date>
    <dc:format>image/svg+xml</dc:format>
    <dc:creator>
     <cc:Agent>
      <dc:title>Matplotlib v3.10.9, https://matplotlib.org/</dc:title>
     </cc:Agent>
    </dc:creator>
   </cc:Work>
  </rdf:RDF>
 </metadata>
 <defs>
  <style type="text/css">*{stroke-linejoin: round; stroke-linecap: butt}</style>
 </defs>
 <g id="figure_1">
  <g id="patch_1">
   <path d="M 0 342.325781 
L 553.595312 342.325781 
L 553.595312 -0 
L 0 -0 
z
" style="fill: #ffffff"/>
  </g>
  <g id="axes_1">
   <g id="patch_2">
    <path d="M 44.195313 300.591563 
L 546.395313 300.591563 
L 546.395313 23.391562 
L 44.195313 23.391562 
z
" style="fill: #ffffff"/>
   </g>
   <g id="matplotlib.axis_1">
    <g id="xtick_1">
     <g id="text_1">
      <!-- 1 -->
      <g style="fill: #262626" transform="translate(91.356797 317.965156) scale(0.11 -0.11)">
       <defs>
        <path id="ArialMT-31" d="M 2384 0 
L 1822 0 
L 1822 3584 
Q 1619 3391 1289 3197 
Q 959 3003 697 2906 
L 697 3450 
Q 1169 3672 1522 3987 
Q 1875 4303 2022 4600 
L 2384 4600 
L 2384 0 
z
" transform="scale(0.015625)"/>
       </defs>
       <use xlink:href="#ArialMT-31"/>
      </g>
     </g>
    </g>
    <g id="xtick_2">
     <g id="text_2">
      <!-- 2 -->
      <g style="fill: #262626" transform="translate(191.796797 317.965156) scale(0.11 -0.11)">
       <defs>
        <path id="ArialMT-32" d="M 3222 541 
L 3222 0 
L 194 0 
Q 188 203 259 391 
Q 375 700 629 1000 
Q 884 1300 1366 1694 
Q 2113 2306 2375 2664 
Q 2638 3022 2638 3341 
Q 2638 3675 2398 3904 
Q 2159 4134 1775 4134 
Q 1369 4134 1125 3890 
Q 881 3647 878 3216 
L 300 3275 
Q 359 3922 746 4261 
Q 1134 4600 1788 4600 
Q 2447 4600 2831 4234 
Q 3216 3869 3216 3328 
Q 3216 3053 3103 2787 
Q 2991 2522 2730 2228 
Q 2469 1934 1863 1422 
Q 1356 997 1212 845 
Q 1069 694 975 541 
L 3222 541 
z
" transform="scale(0.015625)"/>
       </defs>
       <use xlink:href="#ArialMT-32"/>
      </g>
     </g>
    </g>
    <g id="xtick_3">
     <g id="text_3">
      <!-- 3 -->
      <g style="fill: #262626" transform="translate(292.236797 317.965156) scale(0.11 -0.11)">
       <defs>
        <path id="ArialMT-33" d="M 269 1209 
L 831 1284 
Q 928 806 1161 595 
Q 1394 384 1728 384 
Q 2125 384 2398 659 
Q 2672 934 2672 1341 
Q 2672 1728 2419 1979 
Q 2166 2231 1775 2231 
Q 1616 2231 1378 2169 
L 1441 2663 
Q 1497 2656 1531 2656 
Q 1891 2656 2178 2843 
Q 2466 3031 2466 3422 
Q 2466 3731 2256 3934 
Q 2047 4138 1716 4138 
Q 1388 4138 1169 3931 
Q 950 3725 888 3313 
L 325 3413 
Q 428 3978 793 4289 
Q 1159 4600 1703 4600 
Q 2078 4600 2393 4439 
Q 2709 4278 2876 4000 
Q 3044 3722 3044 3409 
Q 3044 3113 2884 2869 
Q 2725 2625 2413 2481 
Q 2819 2388 3044 2092 
Q 3269 1797 3269 1353 
Q 3269 753 2831 336 
Q 2394 -81 1725 -81 
Q 1122 -81 723 278 
Q 325 638 269 1209 
z
" transform="scale(0.015625)"/>
       </defs>
       <use xlink:href="#ArialMT-33"/>
      </g>
     </g>
    </g>
    <g id="xtick_4">
     <g id="text_4">
      <!-- 4 -->
      <g style="fill: #262626" transform="translate(392.676797 317.965156) scale(0.11 -0.11)">
       <defs>
        <path id="ArialMT-34" d="M 2069 0 
L 2069 1097 
L 81 1097 
L 81 1613 
L 2172 4581 
L 2631 4581 
L 2631 1613 
L 3250 1613 
L 3250 1097 
L 2631 1097 
L 2631 0 
L 2069 0 
z
M 2069 1613 
L 2069 3678 
L 634 1613 
L 2069 1613 
z
" transform="scale(0.015625)"/>
       </defs>
       <use xlink:href="#ArialMT-34"/>
      </g>
     </g>
    </g>
    <g id="xtick_5">
     <g id="text_5">
      <!-- 5 -->
      <g style="fill: #262626" transform="translate(493.116797 317.965156) scale(0.11 -0.11)">
       <defs>
        <path id="ArialMT-35" d="M 266 1200 
L 856 1250 
Q 922 819 1161 601 
Q 1400 384 1738 384 
Q 2144 384 2425 690 
Q 2706 997 2706 1503 
Q 2706 1984 2436 2262 
Q 2166 2541 1728 2541 
Q 1456 2541 1237 2417 
Q 1019 2294 894 2097 
L 366 2166 
L 809 4519 
L 3088 4519 
L 3088 3981 
L 1259 3981 
L 1013 2750 
Q 1425 3038 1878 3038 
Q 2478 3038 2890 2622 
Q 3303 2206 3303 1553 
Q 3303 931 2941 478 
Q 2500 -78 1738 -78 
Q 1113 -78 717 272 
Q 322 622 266 1200 
z
" transform="scale(0.015625)"/>
       </defs>
       <use xlink:href="#ArialMT-35"/>
      </g>
     </g>
    </g>
    <g id="text_6">
     <!-- 고객 만족도 별점 평점 -->
     <g style="fill: #262626" transform="translate(249.794688 332.740781) scale(0.12 -0.12)">
      <defs>
       <path id="ArialMT-ace0" d="M 800 0 
L 800 4000 
L 4000 4000 
L 4000 0 
L 800 0 
z
M 900 100 
L 3900 100 
L 3900 3900 
L 900 3900 
L 900 100 
z
" transform="scale(0.015625)"/>
       <path id="ArialMT-ac1d" d="M 800 0 
L 800 4000 
L 4000 4000 
L 4000 0 
L 800 0 
z
M 900 100 
L 3900 100 
L 3900 3900 
L 900 3900 
L 900 100 
z
" transform="scale(0.015625)"/>
       <path id="ArialMT-20" transform="scale(0.015625)"/>
       <path id="ArialMT-b9cc" d="M 800 0 
L 800 4000 
L 4000 4000 
L 4000 0 
L 800 0 
z
M 900 100 
L 3900 100 
L 3900 3900 
L 900 3900 
L 900 100 
z
" transform="scale(0.015625)"/>
       <path id="ArialMT-c871" d="M 800 0 
L 800 4000 
L 4000 4000 
L 4000 0 
L 800 0 
z
M 900 100 
L 3900 100 
L 3900 3900 
L 900 3900 
L 900 100 
z
" transform="scale(0.015625)"/>
       <path id="ArialMT-b3c4" d="M 800 0 
L 800 4000 
L 4000 4000 
L 4000 0 
L 800 0 
z
M 900 100 
L 3900 100 
L 3900 3900 
L 900 3900 
L 900 100 
z
" transform="scale(0.015625)"/>
       <path id="ArialMT-bcc4" d="M 800 0 
L 800 4000 
L 4000 4000 
L 4000 0 
L 800 0 
z
M 900 100 
L 3900 100 
L 3900 3900 
L 900 3900 
L 900 100 
z
" transform="scale(0.015625)"/>
       <path id="ArialMT-c810" d="M 800 0 
L 800 4000 
L 4000 4000 
L 4000 0 
L 800 0 
z
M 900 100 
L 3900 100 
L 3900 3900 
L 900 3900 
L 900 100 
z
" transform="scale(0.015625)"/>
       <path id="ArialMT-d3c9" d="M 800 0 
L 800 4000 
L 4000 4000 
L 4000 0 
L 800 0 
z
M 900 100 
L 3900 100 
L 3900 3900 
L 900 3900 
L 900 100 
z
" transform="scale(0.015625)"/>
      </defs>
      <use xlink:href="#ArialMT-ace0"/>
      <use xlink:href="#ArialMT-ac1d" transform="translate(75 0)"/>
      <use xlink:href="#ArialMT-20" transform="translate(150 0)"/>
      <use xlink:href="#ArialMT-b9cc" transform="translate(177.783203 0)"/>
      <use xlink:href="#ArialMT-c871" transform="translate(252.783203 0)"/>
      <use xlink:href="#ArialMT-b3c4" transform="translate(327.783203 0)"/>
      <use xlink:href="#ArialMT-20" transform="translate(402.783203 0)"/>
      <use xlink:href="#ArialMT-bcc4" transform="translate(430.566406 0)"/>
      <use xlink:href="#ArialMT-c810" transform="translate(505.566406 0)"/>
      <use xlink:href="#ArialMT-20" transform="translate(580.566406 0)"/>
      <use xlink:href="#ArialMT-d3c9" transform="translate(608.349609 0)"/>
      <use xlink:href="#ArialMT-c810" transform="translate(683.349609 0)"/>
     </g>
    </g>
   </g>
   <g id="matplotlib.axis_2">
    <g id="ytick_1">
     <g id="line2d_1">
      <path d="M 44.195313 294.895672 
L 546.395313 294.895672 
" clip-path="url(#pd92b90a3f6)" style="fill: none; stroke: #cccccc; stroke-linecap: round"/>
     </g>
     <g id="text_7">
      <!-- 10 -->
      <g style="fill: #262626" transform="translate(22.46125 298.832469) scale(0.11 -0.11)">
       <defs>
        <path id="ArialMT-30" d="M 266 2259 
Q 266 3072 433 3567 
Q 600 4063 929 4331 
Q 1259 4600 1759 4600 
Q 2128 4600 2406 4451 
Q 2684 4303 2865 4023 
Q 3047 3744 3150 3342 
Q 3253 2941 3253 2259 
Q 3253 1453 3087 958 
Q 2922 463 2592 192 
Q 2263 -78 1759 -78 
Q 1097 -78 719 397 
Q 266 969 266 2259 
z
M 844 2259 
Q 844 1131 1108 757 
Q 1372 384 1759 384 
Q 2147 384 2411 759 
Q 2675 1134 2675 2259 
Q 2675 3391 2411 3762 
Q 2147 4134 1753 4134 
Q 1366 4134 1134 3806 
Q 844 3388 844 2259 
z
" transform="scale(0.015625)"/>
       </defs>
       <use xlink:href="#ArialMT-31"/>
       <use xlink:href="#ArialMT-30" transform="translate(55.615234 0)"/>
      </g>
     </g>
    </g>
    <g id="ytick_2">
     <g id="line2d_2">
      <path d="M 44.195313 260.375124 
L 546.395313 260.375124 
" clip-path="url(#pd92b90a3f6)" style="fill: none; stroke: #cccccc; stroke-linecap: round"/>
     </g>
     <g id="text_8">
      <!-- 20 -->
      <g style="fill: #262626" transform="translate(22.46125 264.311921) scale(0.11 -0.11)">
       <use xlink:href="#ArialMT-32"/>
       <use xlink:href="#ArialMT-30" transform="translate(55.615234 0)"/>
      </g>
     </g>
    </g>
    <g id="ytick_3">
     <g id="line2d_3">
      <path d="M 44.195313 225.854576 
L 546.395313 225.854576 
" clip-path="url(#pd92b90a3f6)" style="fill: none; stroke: #cccccc; stroke-linecap: round"/>
     </g>
     <g id="text_9">
      <!-- 30 -->
      <g style="fill: #262626" transform="translate(22.46125 229.791373) scale(0.11 -0.11)">
       <use xlink:href="#ArialMT-33"/>
       <use xlink:href="#ArialMT-30" transform="translate(55.615234 0)"/>
      </g>
     </g>
    </g>
    <g id="ytick_4">
     <g id="line2d_4">
      <path d="M 44.195313 191.334028 
L 546.395313 191.334028 
" clip-path="url(#pd92b90a3f6)" style="fill: none; stroke: #cccccc; stroke-linecap: round"/>
     </g>
     <g id="text_10">
      <!-- 40 -->
      <g style="fill: #262626" transform="translate(22.46125 195.270825) scale(0.11 -0.11)">
       <use xlink:href="#ArialMT-34"/>
       <use xlink:href="#ArialMT-30" transform="translate(55.615234 0)"/>
      </g>
     </g>
    </g>
    <g id="ytick_5">
     <g id="line2d_5">
      <path d="M 44.195313 156.81348 
L 546.395313 156.81348 
" clip-path="url(#pd92b90a3f6)" style="fill: none; stroke: #cccccc; stroke-linecap: round"/>
     </g>
     <g id="text_11">
      <!-- 50 -->
      <g style="fill: #262626" transform="translate(22.46125 160.750277) scale(0.11 -0.11)">
       <use xlink:href="#ArialMT-35"/>
       <use xlink:href="#ArialMT-30" transform="translate(55.615234 0)"/>
      </g>
     </g>
    </g>
    <g id="ytick_6">
     <g id="line2d_6">
      <path d="M 44.195313 122.292932 
L 546.395313 122.292932 
" clip-path="url(#pd92b90a3f6)" style="fill: none; stroke: #cccccc; stroke-linecap: round"/>
     </g>
     <g id="text_12">
      <!-- 60 -->
      <g style="fill: #262626" transform="translate(22.46125 126.229729) scale(0.11 -0.11)">
       <defs>
        <path id="ArialMT-36" d="M 3184 3459 
L 2625 3416 
Q 2550 3747 2413 3897 
Q 2184 4138 1850 4138 
Q 1581 4138 1378 3988 
Q 1113 3794 959 3422 
Q 806 3050 800 2363 
Q 1003 2672 1297 2822 
Q 1591 2972 1913 2972 
Q 2475 2972 2870 2558 
Q 3266 2144 3266 1488 
Q 3266 1056 3080 686 
Q 2894 316 2569 119 
Q 2244 -78 1831 -78 
Q 1128 -78 684 439 
Q 241 956 241 2144 
Q 241 3472 731 4075 
Q 1159 4600 1884 4600 
Q 2425 4600 2770 4297 
Q 3116 3994 3184 3459 
z
M 888 1484 
Q 888 1194 1011 928 
Q 1134 663 1356 523 
Q 1578 384 1822 384 
Q 2178 384 2434 671 
Q 2691 959 2691 1453 
Q 2691 1928 2437 2201 
Q 2184 2475 1800 2475 
Q 1419 2475 1153 2201 
Q 888 1928 888 1484 
z
" transform="scale(0.015625)"/>
       </defs>
       <use xlink:href="#ArialMT-36"/>
       <use xlink:href="#ArialMT-30" transform="translate(55.615234 0)"/>
      </g>
     </g>
    </g>
    <g id="ytick_7">
     <g id="line2d_7">
      <path d="M 44.195313 87.772384 
L 546.395313 87.772384 
" clip-path="url(#pd92b90a3f6)" style="fill: none; stroke: #cccccc; stroke-linecap: round"/>
     </g>
     <g id="text_13">
      <!-- 70 -->
      <g style="fill: #262626" transform="translate(22.46125 91.709181) scale(0.11 -0.11)">
       <defs>
        <path id="ArialMT-37" d="M 303 3981 
L 303 4522 
L 3269 4522 
L 3269 4084 
Q 2831 3619 2401 2847 
Q 1972 2075 1738 1259 
Q 1569 684 1522 0 
L 944 0 
Q 953 541 1156 1306 
Q 1359 2072 1739 2783 
Q 2119 3494 2547 3981 
L 303 3981 
z
" transform="scale(0.015625)"/>
       </defs>
       <use xlink:href="#ArialMT-37"/>
       <use xlink:href="#ArialMT-30" transform="translate(55.615234 0)"/>
      </g>
     </g>
    </g>
    <g id="ytick_8">
     <g id="line2d_8">
      <path d="M 44.195313 53.251836 
L 546.395313 53.251836 
" clip-path="url(#pd92b90a3f6)" style="fill: none; stroke: #cccccc; stroke-linecap: round"/>
     </g>
     <g id="text_14">
      <!-- 80 -->
      <g style="fill: #262626" transform="translate(22.46125 57.188633) scale(0.11 -0.11)">
       <defs>
        <path id="ArialMT-38" d="M 1131 2484 
Q 781 2613 612 2850 
Q 444 3088 444 3419 
Q 444 3919 803 4259 
Q 1163 4600 1759 4600 
Q 2359 4600 2725 4251 
Q 3091 3903 3091 3403 
Q 3091 3084 2923 2848 
Q 2756 2613 2416 2484 
Q 2838 2347 3058 2040 
Q 3278 1734 3278 1309 
Q 3278 722 2862 322 
Q 2447 -78 1769 -78 
Q 1091 -78 675 323 
Q 259 725 259 1325 
Q 259 1772 486 2073 
Q 713 2375 1131 2484 
z
M 1019 3438 
Q 1019 3113 1228 2906 
Q 1438 2700 1772 2700 
Q 2097 2700 2305 2904 
Q 2513 3109 2513 3406 
Q 2513 3716 2298 3927 
Q 2084 4138 1766 4138 
Q 1444 4138 1231 3931 
Q 1019 3725 1019 3438 
z
M 838 1322 
Q 838 1081 952 856 
Q 1066 631 1291 507 
Q 1516 384 1775 384 
Q 2178 384 2440 643 
Q 2703 903 2703 1303 
Q 2703 1709 2433 1975 
Q 2163 2241 1756 2241 
Q 1359 2241 1098 1978 
Q 838 1716 838 1322 
z
" transform="scale(0.015625)"/>
       </defs>
       <use xlink:href="#ArialMT-38"/>
       <use xlink:href="#ArialMT-30" transform="translate(55.615234 0)"/>
      </g>
     </g>
    </g>
    <g id="text_15">
     <!-- 배달 소요 시간 (분) -->
     <g style="fill: #262626" transform="translate(15.935625 202.487812) rotate(-90) scale(0.12 -0.12)">
      <defs>
       <path id="ArialMT-bc30" d="M 800 0 
L 800 4000 
L 4000 4000 
L 4000 0 
L 800 0 
z
M 900 100 
L 3900 100 
L 3900 3900 
L 900 3900 
L 900 100 
z
" transform="scale(0.015625)"/>
       <path id="ArialMT-b2ec" d="M 800 0 
L 800 4000 
L 4000 4000 
L 4000 0 
L 800 0 
z
M 900 100 
L 3900 100 
L 3900 3900 
L 900 3900 
L 900 100 
z
" transform="scale(0.015625)"/>
       <path id="ArialMT-c18c" d="M 800 0 
L 800 4000 
L 4000 4000 
L 4000 0 
L 800 0 
z
M 900 100 
L 3900 100 
L 3900 3900 
L 900 3900 
L 900 100 
z
" transform="scale(0.015625)"/>
       <path id="ArialMT-c694" d="M 800 0 
L 800 4000 
L 4000 4000 
L 4000 0 
L 800 0 
z
M 900 100 
L 3900 100 
L 3900 3900 
L 900 3900 
L 900 100 
z
" transform="scale(0.015625)"/>
       <path id="ArialMT-c2dc" d="M 800 0 
L 800 4000 
L 4000 4000 
L 4000 0 
L 800 0 
z
M 900 100 
L 3900 100 
L 3900 3900 
L 900 3900 
L 900 100 
z
" transform="scale(0.015625)"/>
       <path id="ArialMT-ac04" d="M 800 0 
L 800 4000 
L 4000 4000 
L 4000 0 
L 800 0 
z
M 900 100 
L 3900 100 
L 3900 3900 
L 900 3900 
L 900 100 
z
" transform="scale(0.015625)"/>
       <path id="ArialMT-28" d="M 1497 -1347 
Q 1031 -759 709 28 
Q 388 816 388 1659 
Q 388 2403 628 3084 
Q 909 3875 1497 4659 
L 1900 4659 
Q 1522 4009 1400 3731 
Q 1209 3300 1100 2831 
Q 966 2247 966 1656 
Q 966 153 1900 -1347 
L 1497 -1347 
z
" transform="scale(0.015625)"/>
       <path id="ArialMT-bd84" d="M 800 0 
L 800 4000 
L 4000 4000 
L 4000 0 
L 800 0 
z
M 900 100 
L 3900 100 
L 3900 3900 
L 900 3900 
L 900 100 
z
" transform="scale(0.015625)"/>
       <path id="ArialMT-29" d="M 791 -1347 
L 388 -1347 
Q 1322 153 1322 1656 
Q 1322 2244 1188 2822 
Q 1081 3291 891 3722 
Q 769 4003 388 4659 
L 791 4659 
Q 1378 3875 1659 3084 
Q 1900 2403 1900 1659 
Q 1900 816 1576 28 
Q 1253 -759 791 -1347 
z
" transform="scale(0.015625)"/>
      </defs>
      <use xlink:href="#ArialMT-bc30"/>
      <use xlink:href="#ArialMT-b2ec" transform="translate(75 0)"/>
      <use xlink:href="#ArialMT-20" transform="translate(150 0)"/>
      <use xlink:href="#ArialMT-c18c" transform="translate(177.783203 0)"/>
      <use xlink:href="#ArialMT-c694" transform="translate(252.783203 0)"/>
      <use xlink:href="#ArialMT-20" transform="translate(327.783203 0)"/>
      <use xlink:href="#ArialMT-c2dc" transform="translate(355.566406 0)"/>
      <use xlink:href="#ArialMT-ac04" transform="translate(430.566406 0)"/>
      <use xlink:href="#ArialMT-20" transform="translate(505.566406 0)"/>
      <use xlink:href="#ArialMT-28" transform="translate(533.349609 0)"/>
      <use xlink:href="#ArialMT-bd84" transform="translate(566.650391 0)"/>
      <use xlink:href="#ArialMT-29" transform="translate(641.650391 0)"/>
     </g>
    </g>
   </g>
   <g id="patch_3">
    <path d="M 54.239313 106.758686 
L 134.591313 106.758686 
L 134.591313 68.786083 
L 54.239313 68.786083 
L 54.239313 106.758686 
z
" clip-path="url(#pd92b90a3f6)" style="fill: #f6dfc8; stroke: #373737; stroke-linejoin: miter"/>
   </g>
   <g id="line2d_9">
    <path d="M 94.415313 106.758686 
L 94.415313 139.553206 
" clip-path="url(#pd92b90a3f6)" style="fill: none; stroke: #373737"/>
   </g>
   <g id="line2d_10">
    <path d="M 94.415313 68.786083 
L 94.415313 35.991562 
" clip-path="url(#pd92b90a3f6)" style="fill: none; stroke: #373737"/>
   </g>
   <g id="line2d_11">
    <path d="M 74.327313 139.553206 
L 114.503313 139.553206 
" clip-path="url(#pd92b90a3f6)" style="fill: none; stroke: #373737; stroke-linecap: round"/>
   </g>
   <g id="line2d_12">
    <path d="M 74.327313 35.991562 
L 114.503313 35.991562 
" clip-path="url(#pd92b90a3f6)" style="fill: none; stroke: #373737; stroke-linecap: round"/>
   </g>
   <g id="line2d_13"/>
   <g id="patch_4">
    <path d="M 154.679313 160.265535 
L 235.031313 160.265535 
L 235.031313 124.01896 
L 154.679313 124.01896 
L 154.679313 160.265535 
z
" clip-path="url(#pd92b90a3f6)" style="fill: #edba8d; stroke: #373737; stroke-linejoin: miter"/>
   </g>
   <g id="line2d_14">
    <path d="M 194.855313 160.265535 
L 194.855313 187.881973 
" clip-path="url(#pd92b90a3f6)" style="fill: none; stroke: #373737"/>
   </g>
   <g id="line2d_15">
    <path d="M 194.855313 124.01896 
L 194.855313 70.51211 
" clip-path="url(#pd92b90a3f6)" style="fill: none; stroke: #373737"/>
   </g>
   <g id="line2d_16">
    <path d="M 174.767313 187.881973 
L 214.943313 187.881973 
" clip-path="url(#pd92b90a3f6)" style="fill: none; stroke: #373737; stroke-linecap: round"/>
   </g>
   <g id="line2d_17">
    <path d="M 174.767313 70.51211 
L 214.943313 70.51211 
" clip-path="url(#pd92b90a3f6)" style="fill: none; stroke: #373737; stroke-linecap: round"/>
   </g>
   <g id="line2d_18"/>
   <g id="patch_5">
    <path d="M 255.119313 194.786083 
L 335.471313 194.786083 
L 335.471313 156.81348 
L 255.119313 156.81348 
L 255.119313 194.786083 
z
" clip-path="url(#pd92b90a3f6)" style="fill: #e59054; stroke: #373737; stroke-linejoin: miter"/>
   </g>
   <g id="line2d_19">
    <path d="M 295.295313 194.786083 
L 295.295313 250.01896 
" clip-path="url(#pd92b90a3f6)" style="fill: none; stroke: #373737"/>
   </g>
   <g id="line2d_20">
    <path d="M 295.295313 156.81348 
L 295.295313 101.580604 
" clip-path="url(#pd92b90a3f6)" style="fill: none; stroke: #373737"/>
   </g>
   <g id="line2d_21">
    <path d="M 275.207313 250.01896 
L 315.383313 250.01896 
" clip-path="url(#pd92b90a3f6)" style="fill: none; stroke: #373737; stroke-linecap: round"/>
   </g>
   <g id="line2d_22">
    <path d="M 275.207313 101.580604 
L 315.383313 101.580604 
" clip-path="url(#pd92b90a3f6)" style="fill: none; stroke: #373737; stroke-linecap: round"/>
   </g>
   <g id="line2d_23">
    <defs>
     <path id="m73e83cfb3f" d="M 0 3 
C 0.795609 3 1.55874 2.683901 2.12132 2.12132 
C 2.683901 1.55874 3 0.795609 3 0 
C 3 -0.795609 2.683901 -1.55874 2.12132 -2.12132 
C 1.55874 -2.683901 0.795609 -3 0 -3 
C -0.795609 -3 -1.55874 -2.683901 -2.12132 -2.12132 
C -2.683901 -1.55874 -3 -0.795609 -3 0 
C -3 0.795609 -2.683901 1.55874 -2.12132 2.12132 
C -1.55874 2.683901 -0.795609 3 0 3 
z
" style="stroke: #373737"/>
    </defs>
    <g clip-path="url(#pd92b90a3f6)">
     <use xlink:href="#m73e83cfb3f" x="295.295313" y="267.279234" style="fill-opacity: 0; stroke: #373737"/>
     <use xlink:href="#m73e83cfb3f" x="295.295313" y="260.375124" style="fill-opacity: 0; stroke: #373737"/>
     <use xlink:href="#m73e83cfb3f" x="295.295313" y="98.128549" style="fill-opacity: 0; stroke: #373737"/>
    </g>
   </g>
   <g id="patch_6">
    <path d="M 355.559313 225.854576 
L 435.911313 225.854576 
L 435.911313 191.334028 
L 355.559313 191.334028 
L 355.559313 225.854576 
z
" clip-path="url(#pd92b90a3f6)" style="fill: #ce6528; stroke: #373737; stroke-linejoin: miter"/>
   </g>
   <g id="line2d_24">
    <path d="M 395.735313 225.854576 
L 395.735313 267.279234 
" clip-path="url(#pd92b90a3f6)" style="fill: none; stroke: #373737"/>
   </g>
   <g id="line2d_25">
    <path d="M 395.735313 191.334028 
L 395.735313 139.553206 
" clip-path="url(#pd92b90a3f6)" style="fill: none; stroke: #373737"/>
   </g>
   <g id="line2d_26">
    <path d="M 375.647313 267.279234 
L 415.823313 267.279234 
" clip-path="url(#pd92b90a3f6)" style="fill: none; stroke: #373737; stroke-linecap: round"/>
   </g>
   <g id="line2d_27">
    <path d="M 375.647313 139.553206 
L 415.823313 139.553206 
" clip-path="url(#pd92b90a3f6)" style="fill: none; stroke: #373737; stroke-linecap: round"/>
   </g>
   <g id="line2d_28">
    <g clip-path="url(#pd92b90a3f6)">
     <use xlink:href="#m73e83cfb3f" x="395.735313" y="287.991562" style="fill-opacity: 0; stroke: #373737"/>
     <use xlink:href="#m73e83cfb3f" x="395.735313" y="132.649097" style="fill-opacity: 0; stroke: #373737"/>
    </g>
   </g>
   <g id="patch_7">
    <path d="M 455.999313 260.375124 
L 536.351313 260.375124 
L 536.351313 225.854576 
L 455.999313 225.854576 
L 455.999313 260.375124 
z
" clip-path="url(#pd92b90a3f6)" style="fill: #a04419; stroke: #373737; stroke-linejoin: miter"/>
   </g>
   <g id="line2d_29">
    <path d="M 496.175313 260.375124 
L 496.175313 287.991562 
" clip-path="url(#pd92b90a3f6)" style="fill: none; stroke: #373737"/>
   </g>
   <g id="line2d_30">
    <path d="M 496.175313 225.854576 
L 496.175313 180.977864 
" clip-path="url(#pd92b90a3f6)" style="fill: none; stroke: #373737"/>
   </g>
   <g id="line2d_31">
    <path d="M 476.087313 287.991562 
L 516.263313 287.991562 
" clip-path="url(#pd92b90a3f6)" style="fill: none; stroke: #373737; stroke-linecap: round"/>
   </g>
   <g id="line2d_32">
    <path d="M 476.087313 180.977864 
L 516.263313 180.977864 
" clip-path="url(#pd92b90a3f6)" style="fill: none; stroke: #373737; stroke-linecap: round"/>
   </g>
   <g id="line2d_33">
    <g clip-path="url(#pd92b90a3f6)">
     <use xlink:href="#m73e83cfb3f" x="496.175313" y="167.169645" style="fill-opacity: 0; stroke: #373737"/>
     <use xlink:href="#m73e83cfb3f" x="496.175313" y="125.744987" style="fill-opacity: 0; stroke: #373737"/>
    </g>
   </g>
   <g id="line2d_34">
    <path d="M 54.239313 87.772384 
L 134.591313 87.772384 
" clip-path="url(#pd92b90a3f6)" style="fill: none; stroke: #373737"/>
   </g>
   <g id="line2d_35">
    <path d="M 154.679313 143.005261 
L 235.031313 143.005261 
" clip-path="url(#pd92b90a3f6)" style="fill: none; stroke: #373737"/>
   </g>
   <g id="line2d_36">
    <path d="M 255.119313 177.525809 
L 335.471313 177.525809 
" clip-path="url(#pd92b90a3f6)" style="fill: none; stroke: #373737"/>
   </g>
   <g id="line2d_37">
    <path d="M 355.559313 208.594302 
L 435.911313 208.594302 
" clip-path="url(#pd92b90a3f6)" style="fill: none; stroke: #373737"/>
   </g>
   <g id="line2d_38">
    <path d="M 455.999313 243.11485 
L 536.351313 243.11485 
" clip-path="url(#pd92b90a3f6)" style="fill: none; stroke: #373737"/>
   </g>
   <g id="patch_8">
    <path d="M 44.195313 300.591563 
L 44.195313 23.391562 
" style="fill: none; stroke: #cccccc; stroke-width: 1.25; stroke-linejoin: miter; stroke-linecap: square"/>
   </g>
   <g id="patch_9">
    <path d="M 546.395313 300.591563 
L 546.395313 23.391562 
" style="fill: none; stroke: #cccccc; stroke-width: 1.25; stroke-linejoin: miter; stroke-linecap: square"/>
   </g>
   <g id="patch_10">
    <path d="M 44.195313 300.591563 
L 546.395313 300.591563 
" style="fill: none; stroke: #cccccc; stroke-width: 1.25; stroke-linejoin: miter; stroke-linecap: square"/>
   </g>
   <g id="patch_11">
    <path d="M 44.195313 23.391562 
L 546.395313 23.391562 
" style="fill: none; stroke: #cccccc; stroke-width: 1.25; stroke-linejoin: miter; stroke-linecap: square"/>
   </g>
   <g id="text_16">
    <!-- 배달 소요 시간(Delivery Time)과 고객 별점 평점(Rating) 상관 관계 -->
    <g style="fill: #262626" transform="translate(115.935625 17.391562) scale(0.14 -0.14)">
     <defs>
      <path id="Arial-BoldMT-bc30" d="M 800 0 
L 800 4000 
L 4000 4000 
L 4000 0 
L 800 0 
z
M 900 100 
L 3900 100 
L 3900 3900 
L 900 3900 
L 900 100 
z
" transform="scale(0.015625)"/>
      <path id="Arial-BoldMT-b2ec" d="M 800 0 
L 800 4000 
L 4000 4000 
L 4000 0 
L 800 0 
z
M 900 100 
L 3900 100 
L 3900 3900 
L 900 3900 
L 900 100 
z
" transform="scale(0.015625)"/>
      <path id="Arial-BoldMT-20" transform="scale(0.015625)"/>
      <path id="Arial-BoldMT-c18c" d="M 800 0 
L 800 4000 
L 4000 4000 
L 4000 0 
L 800 0 
z
M 900 100 
L 3900 100 
L 3900 3900 
L 900 3900 
L 900 100 
z
" transform="scale(0.015625)"/>
      <path id="Arial-BoldMT-c694" d="M 800 0 
L 800 4000 
L 4000 4000 
L 4000 0 
L 800 0 
z
M 900 100 
L 3900 100 
L 3900 3900 
L 900 3900 
L 900 100 
z
" transform="scale(0.015625)"/>
      <path id="Arial-BoldMT-c2dc" d="M 800 0 
L 800 4000 
L 4000 4000 
L 4000 0 
L 800 0 
z
M 900 100 
L 3900 100 
L 3900 3900 
L 900 3900 
L 900 100 
z
" transform="scale(0.015625)"/>
      <path id="Arial-BoldMT-ac04" d="M 800 0 
L 800 4000 
L 4000 4000 
L 4000 0 
L 800 0 
z
M 900 100 
L 3900 100 
L 3900 3900 
L 900 3900 
L 900 100 
z
" transform="scale(0.015625)"/>
      <path id="Arial-BoldMT-28" d="M 1916 -1347 
L 1313 -1347 
Q 834 -625 584 153 
Q 334 931 334 1659 
Q 334 2563 644 3369 
Q 913 4069 1325 4659 
L 1925 4659 
Q 1497 3713 1336 3048 
Q 1175 2384 1175 1641 
Q 1175 1128 1270 590 
Q 1366 53 1531 -431 
Q 1641 -750 1916 -1347 
z
" transform="scale(0.015625)"/>
      <path id="Arial-BoldMT-44" d="M 463 4581 
L 2153 4581 
Q 2725 4581 3025 4494 
Q 3428 4375 3715 4072 
Q 4003 3769 4153 3330 
Q 4303 2891 4303 2247 
Q 4303 1681 4163 1272 
Q 3991 772 3672 463 
Q 3431 228 3022 97 
Q 2716 0 2203 0 
L 463 0 
L 463 4581 
z
M 1388 3806 
L 1388 772 
L 2078 772 
Q 2466 772 2638 816 
Q 2863 872 3011 1006 
Q 3159 1141 3253 1448 
Q 3347 1756 3347 2288 
Q 3347 2819 3253 3103 
Q 3159 3388 2990 3547 
Q 2822 3706 2563 3763 
Q 2369 3806 1803 3806 
L 1388 3806 
z
" transform="scale(0.015625)"/>
      <path id="Arial-BoldMT-65" d="M 2381 1056 
L 3256 909 
Q 3088 428 2723 176 
Q 2359 -75 1813 -75 
Q 947 -75 531 491 
Q 203 944 203 1634 
Q 203 2459 634 2926 
Q 1066 3394 1725 3394 
Q 2466 3394 2894 2905 
Q 3322 2416 3303 1406 
L 1103 1406 
Q 1113 1016 1316 798 
Q 1519 581 1822 581 
Q 2028 581 2168 693 
Q 2309 806 2381 1056 
z
M 2431 1944 
Q 2422 2325 2234 2523 
Q 2047 2722 1778 2722 
Q 1491 2722 1303 2513 
Q 1116 2303 1119 1944 
L 2431 1944 
z
" transform="scale(0.015625)"/>
      <path id="Arial-BoldMT-6c" d="M 459 0 
L 459 4581 
L 1338 4581 
L 1338 0 
L 459 0 
z
" transform="scale(0.015625)"/>
      <path id="Arial-BoldMT-69" d="M 459 3769 
L 459 4581 
L 1338 4581 
L 1338 3769 
L 459 3769 
z
M 459 0 
L 459 3319 
L 1338 3319 
L 1338 0 
L 459 0 
z
" transform="scale(0.015625)"/>
      <path id="Arial-BoldMT-76" d="M 1372 0 
L 34 3319 
L 956 3319 
L 1581 1625 
L 1763 1059 
Q 1834 1275 1853 1344 
Q 1897 1484 1947 1625 
L 2578 3319 
L 3481 3319 
L 2163 0 
L 1372 0 
z
" transform="scale(0.015625)"/>
      <path id="Arial-BoldMT-72" d="M 1300 0 
L 422 0 
L 422 3319 
L 1238 3319 
L 1238 2847 
Q 1447 3181 1614 3287 
Q 1781 3394 1994 3394 
Q 2294 3394 2572 3228 
L 2300 2463 
Q 2078 2606 1888 2606 
Q 1703 2606 1575 2504 
Q 1447 2403 1373 2137 
Q 1300 1872 1300 1025 
L 1300 0 
z
" transform="scale(0.015625)"/>
      <path id="Arial-BoldMT-79" d="M 44 3319 
L 978 3319 
L 1772 963 
L 2547 3319 
L 3456 3319 
L 2284 125 
L 2075 -453 
Q 1959 -744 1854 -897 
Q 1750 -1050 1614 -1145 
Q 1478 -1241 1279 -1294 
Q 1081 -1347 831 -1347 
Q 578 -1347 334 -1294 
L 256 -606 
Q 463 -647 628 -647 
Q 934 -647 1081 -467 
Q 1228 -288 1306 -9 
L 44 3319 
z
" transform="scale(0.015625)"/>
      <path id="Arial-BoldMT-54" d="M 1497 0 
L 1497 3806 
L 138 3806 
L 138 4581 
L 3778 4581 
L 3778 3806 
L 2422 3806 
L 2422 0 
L 1497 0 
z
" transform="scale(0.015625)"/>
      <path id="Arial-BoldMT-6d" d="M 394 3319 
L 1203 3319 
L 1203 2866 
Q 1638 3394 2238 3394 
Q 2556 3394 2790 3262 
Q 3025 3131 3175 2866 
Q 3394 3131 3647 3262 
Q 3900 3394 4188 3394 
Q 4553 3394 4806 3245 
Q 5059 3097 5184 2809 
Q 5275 2597 5275 2122 
L 5275 0 
L 4397 0 
L 4397 1897 
Q 4397 2391 4306 2534 
Q 4184 2722 3931 2722 
Q 3747 2722 3584 2609 
Q 3422 2497 3350 2280 
Q 3278 2063 3278 1594 
L 3278 0 
L 2400 0 
L 2400 1819 
Q 2400 2303 2353 2443 
Q 2306 2584 2207 2653 
Q 2109 2722 1941 2722 
Q 1738 2722 1575 2612 
Q 1413 2503 1342 2297 
Q 1272 2091 1272 1613 
L 1272 0 
L 394 0 
L 394 3319 
z
" transform="scale(0.015625)"/>
      <path id="Arial-BoldMT-29" d="M 216 -1347 
Q 475 -791 581 -494 
Q 688 -197 778 190 
Q 869 578 912 926 
Q 956 1275 956 1641 
Q 956 2384 797 3048 
Q 638 3713 209 4659 
L 806 4659 
Q 1278 3988 1539 3234 
Q 1800 2481 1800 1706 
Q 1800 1053 1594 306 
Q 1359 -531 822 -1347 
L 216 -1347 
z
" transform="scale(0.015625)"/>
      <path id="Arial-BoldMT-acfc" d="M 800 0 
L 800 4000 
L 4000 4000 
L 4000 0 
L 800 0 
z
M 900 100 
L 3900 100 
L 3900 3900 
L 900 3900 
L 900 100 
z
" transform="scale(0.015625)"/>
      <path id="Arial-BoldMT-ace0" d="M 800 0 
L 800 4000 
L 4000 4000 
L 4000 0 
L 800 0 
z
M 900 100 
L 3900 100 
L 3900 3900 
L 900 3900 
L 900 100 
z
" transform="scale(0.015625)"/>
      <path id="Arial-BoldMT-ac1d" d="M 800 0 
L 800 4000 
L 4000 4000 
L 4000 0 
L 800 0 
z
M 900 100 
L 3900 100 
L 3900 3900 
L 900 3900 
L 900 100 
z
" transform="scale(0.015625)"/>
      <path id="Arial-BoldMT-bcc4" d="M 800 0 
L 800 4000 
L 4000 4000 
L 4000 0 
L 800 0 
z
M 900 100 
L 3900 100 
L 3900 3900 
L 900 3900 
L 900 100 
z
" transform="scale(0.015625)"/>
      <path id="Arial-BoldMT-c810" d="M 800 0 
L 800 4000 
L 4000 4000 
L 4000 0 
L 800 0 
z
M 900 100 
L 3900 100 
L 3900 3900 
L 900 3900 
L 900 100 
z
" transform="scale(0.015625)"/>
      <path id="Arial-BoldMT-d3c9" d="M 800 0 
L 800 4000 
L 4000 4000 
L 4000 0 
L 800 0 
z
M 900 100 
L 3900 100 
L 3900 3900 
L 900 3900 
L 900 100 
z
" transform="scale(0.015625)"/>
      <path id="Arial-BoldMT-52" d="M 469 0 
L 469 4581 
L 2416 4581 
Q 3150 4581 3483 4457 
Q 3816 4334 4016 4018 
Q 4216 3703 4216 3297 
Q 4216 2781 3912 2445 
Q 3609 2109 3006 2022 
Q 3306 1847 3501 1637 
Q 3697 1428 4028 894 
L 4588 0 
L 3481 0 
L 2813 997 
Q 2456 1531 2325 1670 
Q 2194 1809 2047 1861 
Q 1900 1913 1581 1913 
L 1394 1913 
L 1394 0 
L 469 0 
z
M 1394 2644 
L 2078 2644 
Q 2744 2644 2909 2700 
Q 3075 2756 3169 2893 
Q 3263 3031 3263 3238 
Q 3263 3469 3139 3611 
Q 3016 3753 2791 3791 
Q 2678 3806 2116 3806 
L 1394 3806 
L 1394 2644 
z
" transform="scale(0.015625)"/>
      <path id="Arial-BoldMT-61" d="M 1116 2306 
L 319 2450 
Q 453 2931 781 3162 
Q 1109 3394 1756 3394 
Q 2344 3394 2631 3255 
Q 2919 3116 3036 2902 
Q 3153 2688 3153 2116 
L 3144 1091 
Q 3144 653 3186 445 
Q 3228 238 3344 0 
L 2475 0 
Q 2441 88 2391 259 
Q 2369 338 2359 363 
Q 2134 144 1878 34 
Q 1622 -75 1331 -75 
Q 819 -75 523 203 
Q 228 481 228 906 
Q 228 1188 362 1408 
Q 497 1628 739 1745 
Q 981 1863 1438 1950 
Q 2053 2066 2291 2166 
L 2291 2253 
Q 2291 2506 2166 2614 
Q 2041 2722 1694 2722 
Q 1459 2722 1328 2630 
Q 1197 2538 1116 2306 
z
M 2291 1594 
Q 2122 1538 1756 1459 
Q 1391 1381 1278 1306 
Q 1106 1184 1106 997 
Q 1106 813 1243 678 
Q 1381 544 1594 544 
Q 1831 544 2047 700 
Q 2206 819 2256 991 
Q 2291 1103 2291 1419 
L 2291 1594 
z
" transform="scale(0.015625)"/>
      <path id="Arial-BoldMT-74" d="M 1981 3319 
L 1981 2619 
L 1381 2619 
L 1381 1281 
Q 1381 875 1398 808 
Q 1416 741 1477 697 
Q 1538 653 1625 653 
Q 1747 653 1978 738 
L 2053 56 
Q 1747 -75 1359 -75 
Q 1122 -75 931 4 
Q 741 84 652 211 
Q 563 338 528 553 
Q 500 706 500 1172 
L 500 2619 
L 97 2619 
L 97 3319 
L 500 3319 
L 500 3978 
L 1381 4491 
L 1381 3319 
L 1981 3319 
z
" transform="scale(0.015625)"/>
      <path id="Arial-BoldMT-6e" d="M 3478 0 
L 2600 0 
L 2600 1694 
Q 2600 2231 2544 2389 
Q 2488 2547 2361 2634 
Q 2234 2722 2056 2722 
Q 1828 2722 1647 2597 
Q 1466 2472 1398 2265 
Q 1331 2059 1331 1503 
L 1331 0 
L 453 0 
L 453 3319 
L 1269 3319 
L 1269 2831 
Q 1703 3394 2363 3394 
Q 2653 3394 2893 3289 
Q 3134 3184 3257 3021 
Q 3381 2859 3429 2653 
Q 3478 2447 3478 2063 
L 3478 0 
z
" transform="scale(0.015625)"/>
      <path id="Arial-BoldMT-67" d="M 378 -219 
L 1381 -341 
Q 1406 -516 1497 -581 
Q 1622 -675 1891 -675 
Q 2234 -675 2406 -572 
Q 2522 -503 2581 -350 
Q 2622 -241 2622 53 
L 2622 538 
Q 2228 0 1628 0 
Q 959 0 569 566 
Q 263 1013 263 1678 
Q 263 2513 664 2953 
Q 1066 3394 1663 3394 
Q 2278 3394 2678 2853 
L 2678 3319 
L 3500 3319 
L 3500 341 
Q 3500 -247 3403 -537 
Q 3306 -828 3131 -993 
Q 2956 -1159 2664 -1253 
Q 2372 -1347 1925 -1347 
Q 1081 -1347 728 -1058 
Q 375 -769 375 -325 
Q 375 -281 378 -219 
z
M 1163 1728 
Q 1163 1200 1367 954 
Q 1572 709 1872 709 
Q 2194 709 2416 961 
Q 2638 1213 2638 1706 
Q 2638 2222 2425 2472 
Q 2213 2722 1888 2722 
Q 1572 2722 1367 2476 
Q 1163 2231 1163 1728 
z
" transform="scale(0.015625)"/>
      <path id="Arial-BoldMT-c0c1" d="M 800 0 
L 800 4000 
L 4000 4000 
L 4000 0 
L 800 0 
z
M 900 100 
L 3900 100 
L 3900 3900 
L 900 3900 
L 900 100 
z
" transform="scale(0.015625)"/>
      <path id="Arial-BoldMT-ad00" d="M 800 0 
L 800 4000 
L 4000 4000 
L 4000 0 
L 800 0 
z
M 900 100 
L 3900 100 
L 3900 3900 
L 900 3900 
L 900 100 
z
" transform="scale(0.015625)"/>
      <path id="Arial-BoldMT-acc4" d="M 800 0 
L 800 4000 
L 4000 4000 
L 4000 0 
L 800 0 
z
M 900 100 
L 3900 100 
L 3900 3900 
L 900 3900 
L 900 100 
z
" transform="scale(0.015625)"/>
     </defs>
     <use xlink:href="#Arial-BoldMT-bc30"/>
     <use xlink:href="#Arial-BoldMT-b2ec" transform="translate(75 0)"/>
     <use xlink:href="#Arial-BoldMT-20" transform="translate(150 0)"/>
     <use xlink:href="#Arial-BoldMT-c18c" transform="translate(177.783203 0)"/>
     <use xlink:href="#Arial-BoldMT-c694" transform="translate(252.783203 0)"/>
     <use xlink:href="#Arial-BoldMT-20" transform="translate(327.783203 0)"/>
     <use xlink:href="#Arial-BoldMT-c2dc" transform="translate(355.566406 0)"/>
     <use xlink:href="#Arial-BoldMT-ac04" transform="translate(430.566406 0)"/>
     <use xlink:href="#Arial-BoldMT-28" transform="translate(505.566406 0)"/>
     <use xlink:href="#Arial-BoldMT-44" transform="translate(538.867188 0)"/>
     <use xlink:href="#Arial-BoldMT-65" transform="translate(611.083984 0)"/>
     <use xlink:href="#Arial-BoldMT-6c" transform="translate(666.699219 0)"/>
     <use xlink:href="#Arial-BoldMT-69" transform="translate(694.482422 0)"/>
     <use xlink:href="#Arial-BoldMT-76" transform="translate(722.265625 0)"/>
     <use xlink:href="#Arial-BoldMT-65" transform="translate(777.880859 0)"/>
     <use xlink:href="#Arial-BoldMT-72" transform="translate(833.496094 0)"/>
     <use xlink:href="#Arial-BoldMT-79" transform="translate(872.412109 0)"/>
     <use xlink:href="#Arial-BoldMT-20" transform="translate(928.027344 0)"/>
     <use xlink:href="#Arial-BoldMT-54" transform="translate(955.810547 0)"/>
     <use xlink:href="#Arial-BoldMT-69" transform="translate(1015.144531 0)"/>
     <use xlink:href="#Arial-BoldMT-6d" transform="translate(1042.927734 0)"/>
     <use xlink:href="#Arial-BoldMT-65" transform="translate(1131.84375 0)"/>
     <use xlink:href="#Arial-BoldMT-29" transform="translate(1187.458984 0)"/>
     <use xlink:href="#Arial-BoldMT-acfc" transform="translate(1220.759766 0)"/>
     <use xlink:href="#Arial-BoldMT-20" transform="translate(1295.759766 0)"/>
     <use xlink:href="#Arial-BoldMT-ace0" transform="translate(1323.542969 0)"/>
     <use xlink:href="#Arial-BoldMT-ac1d" transform="translate(1398.542969 0)"/>
     <use xlink:href="#Arial-BoldMT-20" transform="translate(1473.542969 0)"/>
     <use xlink:href="#Arial-BoldMT-bcc4" transform="translate(1501.326172 0)"/>
     <use xlink:href="#Arial-BoldMT-c810" transform="translate(1576.326172 0)"/>
     <use xlink:href="#Arial-BoldMT-20" transform="translate(1651.326172 0)"/>
     <use xlink:href="#Arial-BoldMT-d3c9" transform="translate(1679.109375 0)"/>
     <use xlink:href="#Arial-BoldMT-c810" transform="translate(1754.109375 0)"/>
     <use xlink:href="#Arial-BoldMT-28" transform="translate(1829.109375 0)"/>
     <use xlink:href="#Arial-BoldMT-52" transform="translate(1862.410156 0)"/>
     <use xlink:href="#Arial-BoldMT-61" transform="translate(1934.626953 0)"/>
     <use xlink:href="#Arial-BoldMT-74" transform="translate(1990.242188 0)"/>
     <use xlink:href="#Arial-BoldMT-69" transform="translate(2023.542969 0)"/>
     <use xlink:href="#Arial-BoldMT-6e" transform="translate(2051.326172 0)"/>
     <use xlink:href="#Arial-BoldMT-67" transform="translate(2112.410156 0)"/>
     <use xlink:href="#Arial-BoldMT-29" transform="translate(2173.494141 0)"/>
     <use xlink:href="#Arial-BoldMT-20" transform="translate(2206.794922 0)"/>
     <use xlink:href="#Arial-BoldMT-c0c1" transform="translate(2234.578125 0)"/>
     <use xlink:href="#Arial-BoldMT-ad00" transform="translate(2309.578125 0)"/>
     <use xlink:href="#Arial-BoldMT-20" transform="translate(2384.578125 0)"/>
     <use xlink:href="#Arial-BoldMT-ad00" transform="translate(2412.361328 0)"/>
     <use xlink:href="#Arial-BoldMT-acc4" transform="translate(2487.361328 0)"/>
    </g>
   </g>
  </g>
 </g>
 <defs>
  <clipPath id="pd92b90a3f6">
   <rect x="44.195313" y="23.391562" width="502.2" height="277.2"/>
  </clipPath>
 </defs>
</svg>
