<svg xmlns="http://www.w3.org/2000/svg" viewBox="0 0 500 300">
    <rect width="500" height="300" fill="#ffffff" rx="10" stroke="#e9ecef" stroke-width="2"/>
    <ellipse cx="150" cy="150" rx="80" ry="120" fill="#e3fafc" stroke="#15aabf" stroke-width="3"/>
    <text x="150" y="50" font-family="sans-serif" font-size="20" font-weight="bold" text-anchor="middle" fill="#0b7285">Domain (정의역)</text>
    <circle cx="150" cy="100" r="15" fill="#3bc9db"/>
    <text x="150" y="105" font-family="sans-serif" font-size="16" font-weight="bold" text-anchor="middle" fill="#fff">A</text>
    <circle cx="150" cy="150" r="15" fill="#3bc9db"/>
    <text x="150" y="155" font-family="sans-serif" font-size="16" font-weight="bold" text-anchor="middle" fill="#fff">B</text>
    <circle cx="150" cy="200" r="15" fill="#3bc9db"/>
    <text x="150" y="205" font-family="sans-serif" font-size="16" font-weight="bold" text-anchor="middle" fill="#fff">C</text>
    
    <ellipse cx="350" cy="150" rx="80" ry="120" fill="#fff0f6" stroke="#f06595" stroke-width="3"/>
    <text x="350" y="50" font-family="sans-serif" font-size="20" font-weight="bold" text-anchor="middle" fill="#a61e4d">Codomain (공역)</text>
    <circle cx="350" cy="80" r="15" fill="#f06595"/>
    <text x="350" y="85" font-family="sans-serif" font-size="16" font-weight="bold" text-anchor="middle" fill="#fff">1</text>
    <circle cx="350" cy="130" r="15" fill="#f06595"/>
    <text x="350" y="135" font-family="sans-serif" font-size="16" font-weight="bold" text-anchor="middle" fill="#fff">2</text>
    <circle cx="350" cy="180" r="15" fill="#f06595"/>
    <text x="350" y="185" font-family="sans-serif" font-size="16" font-weight="bold" text-anchor="middle" fill="#fff">3</text>
    <circle cx="350" cy="230" r="15" fill="#f06595"/>
    <text x="350" y="235" font-family="sans-serif" font-size="16" font-weight="bold" text-anchor="middle" fill="#fff">4</text>
    
    <path d="M 175 100 Q 262 90 325 80" stroke="#868e96" fill="transparent" stroke-width="2" marker-end="url(#arrow_svg)"/>
    <path d="M 175 150 Q 262 140 325 130" stroke="#868e96" fill="transparent" stroke-width="2" marker-end="url(#arrow_svg)"/>
    <path d="M 175 200 Q 262 190 325 180" stroke="#868e96" fill="transparent" stroke-width="2" marker-end="url(#arrow_svg)"/>
    
    <defs>
        <marker id="arrow_svg" markerWidth="10" markerHeight="10" refX="9" refY="3" orient="auto" markerUnits="strokeWidth">
            <path d="M0,0 L0,6 L9,3 z" fill="#868e96" />
        </marker>
    </defs>
</svg>