<?xml version="1.0" encoding="utf-8" standalone="no"?>
<!DOCTYPE svg PUBLIC "-//W3C//DTD SVG 1.1//EN"
  "http://www.w3.org/Graphics/SVG/1.1/DTD/svg11.dtd">
<svg xmlns:xlink="http://www.w3.org/1999/xlink" width="564.243437pt" height="605.674219pt" viewBox="0 0 564.243437 605.674219" xmlns="http://www.w3.org/2000/svg" version="1.1">
 <metadata>
  <rdf:RDF xmlns:dc="http://purl.org/dc/elements/1.1/" xmlns:cc="http://creativecommons.org/ns#" xmlns:rdf="http://www.w3.org/1999/02/22-rdf-syntax-ns#">
   <cc:Work>
    <dc:type rdf:resource="http://purl.org/dc/dcmitype/StillImage"/>
    <dc:date>2026-05-22T02:33:54.462789</dc:date>
    <dc:format>image/svg+xml</dc:format>
    <dc:creator>
     <cc:Agent>
      <dc:title>Matplotlib v3.10.9, https://matplotlib.org/</dc:title>
     </cc:Agent>
    </dc:creator>
   </cc:Work>
  </rdf:RDF>
 </metadata>
 <defs>
  <style type="text/css">*{stroke-linejoin: round; stroke-linecap: butt}</style>
 </defs>
 <g id="figure_1">
  <g id="patch_1">
   <path d="M 0 605.674219 
L 564.243437 605.674219 
L 564.243437 0 
L 0 0 
z
" style="fill: #ffffff"/>
  </g>
  <g id="axes_1">
   <g id="patch_2">
    <path d="M 43.908438 296.97 
L 290.995938 296.97 
L 290.995938 63.6 
L 43.908438 63.6 
z
" style="fill: #ffffff"/>
   </g>
   <g id="matplotlib.axis_1">
    <g id="xtick_1">
     <g id="line2d_1">
      <defs>
       <path id="m6db950d04f" d="M 0 0 
L 0 6 
" style="stroke: #262626; stroke-width: 1.25"/>
      </defs>
      <g>
       <use xlink:href="#m6db950d04f" x="70.114688" y="296.97" style="fill: #262626; stroke: #262626; stroke-width: 1.25"/>
      </g>
     </g>
    </g>
    <g id="xtick_2">
     <g id="line2d_2">
      <g>
       <use xlink:href="#m6db950d04f" x="107.552188" y="296.97" style="fill: #262626; stroke: #262626; stroke-width: 1.25"/>
      </g>
     </g>
    </g>
    <g id="xtick_3">
     <g id="line2d_3">
      <g>
       <use xlink:href="#m6db950d04f" x="144.989688" y="296.97" style="fill: #262626; stroke: #262626; stroke-width: 1.25"/>
      </g>
     </g>
    </g>
    <g id="xtick_4">
     <g id="line2d_4">
      <g>
       <use xlink:href="#m6db950d04f" x="182.427188" y="296.97" style="fill: #262626; stroke: #262626; stroke-width: 1.25"/>
      </g>
     </g>
    </g>
    <g id="xtick_5">
     <g id="line2d_5">
      <g>
       <use xlink:href="#m6db950d04f" x="219.864688" y="296.97" style="fill: #262626; stroke: #262626; stroke-width: 1.25"/>
      </g>
     </g>
    </g>
    <g id="xtick_6">
     <g id="line2d_6">
      <g>
       <use xlink:href="#m6db950d04f" x="257.302188" y="296.97" style="fill: #262626; stroke: #262626; stroke-width: 1.25"/>
      </g>
     </g>
    </g>
   </g>
   <g id="matplotlib.axis_2">
    <g id="ytick_1">
     <g id="line2d_7">
      <defs>
       <path id="mfe9a4457cb" d="M 0 0 
L -6 0 
" style="stroke: #262626; stroke-width: 1.25"/>
      </defs>
      <g>
       <use xlink:href="#mfe9a4457cb" x="43.908438" y="266.555313" style="fill: #262626; stroke: #262626; stroke-width: 1.25"/>
      </g>
     </g>
     <g id="text_1">
      <!-- 4 -->
      <g style="fill: #262626" transform="translate(28.291406 270.49211) scale(0.11 -0.11)">
       <defs>
        <path id="ArialMT-34" d="M 2069 0 
L 2069 1097 
L 81 1097 
L 81 1613 
L 2172 4581 
L 2631 4581 
L 2631 1613 
L 3250 1613 
L 3250 1097 
L 2631 1097 
L 2631 0 
L 2069 0 
z
M 2069 1613 
L 2069 3678 
L 634 1613 
L 2069 1613 
z
" transform="scale(0.015625)"/>
       </defs>
       <use xlink:href="#ArialMT-34"/>
      </g>
     </g>
    </g>
    <g id="ytick_2">
     <g id="line2d_8">
      <g>
       <use xlink:href="#mfe9a4457cb" x="43.908438" y="222.539847" style="fill: #262626; stroke: #262626; stroke-width: 1.25"/>
      </g>
     </g>
     <g id="text_2">
      <!-- 6 -->
      <g style="fill: #262626" transform="translate(28.291406 226.476644) scale(0.11 -0.11)">
       <defs>
        <path id="ArialMT-36" d="M 3184 3459 
L 2625 3416 
Q 2550 3747 2413 3897 
Q 2184 4138 1850 4138 
Q 1581 4138 1378 3988 
Q 1113 3794 959 3422 
Q 806 3050 800 2363 
Q 1003 2672 1297 2822 
Q 1591 2972 1913 2972 
Q 2475 2972 2870 2558 
Q 3266 2144 3266 1488 
Q 3266 1056 3080 686 
Q 2894 316 2569 119 
Q 2244 -78 1831 -78 
Q 1128 -78 684 439 
Q 241 956 241 2144 
Q 241 3472 731 4075 
Q 1159 4600 1884 4600 
Q 2425 4600 2770 4297 
Q 3116 3994 3184 3459 
z
M 888 1484 
Q 888 1194 1011 928 
Q 1134 663 1356 523 
Q 1578 384 1822 384 
Q 2178 384 2434 671 
Q 2691 959 2691 1453 
Q 2691 1928 2437 2201 
Q 2184 2475 1800 2475 
Q 1419 2475 1153 2201 
Q 888 1928 888 1484 
z
" transform="scale(0.015625)"/>
       </defs>
       <use xlink:href="#ArialMT-36"/>
      </g>
     </g>
    </g>
    <g id="ytick_3">
     <g id="line2d_9">
      <g>
       <use xlink:href="#mfe9a4457cb" x="43.908438" y="178.524381" style="fill: #262626; stroke: #262626; stroke-width: 1.25"/>
      </g>
     </g>
     <g id="text_3">
      <!-- 8 -->
      <g style="fill: #262626" transform="translate(28.291406 182.461178) scale(0.11 -0.11)">
       <defs>
        <path id="ArialMT-38" d="M 1131 2484 
Q 781 2613 612 2850 
Q 444 3088 444 3419 
Q 444 3919 803 4259 
Q 1163 4600 1759 4600 
Q 2359 4600 2725 4251 
Q 3091 3903 3091 3403 
Q 3091 3084 2923 2848 
Q 2756 2613 2416 2484 
Q 2838 2347 3058 2040 
Q 3278 1734 3278 1309 
Q 3278 722 2862 322 
Q 2447 -78 1769 -78 
Q 1091 -78 675 323 
Q 259 725 259 1325 
Q 259 1772 486 2073 
Q 713 2375 1131 2484 
z
M 1019 3438 
Q 1019 3113 1228 2906 
Q 1438 2700 1772 2700 
Q 2097 2700 2305 2904 
Q 2513 3109 2513 3406 
Q 2513 3716 2298 3927 
Q 2084 4138 1766 4138 
Q 1444 4138 1231 3931 
Q 1019 3725 1019 3438 
z
M 838 1322 
Q 838 1081 952 856 
Q 1066 631 1291 507 
Q 1516 384 1775 384 
Q 2178 384 2440 643 
Q 2703 903 2703 1303 
Q 2703 1709 2433 1975 
Q 2163 2241 1756 2241 
Q 1359 2241 1098 1978 
Q 838 1716 838 1322 
z
" transform="scale(0.015625)"/>
       </defs>
       <use xlink:href="#ArialMT-38"/>
      </g>
     </g>
    </g>
    <g id="ytick_4">
     <g id="line2d_10">
      <g>
       <use xlink:href="#mfe9a4457cb" x="43.908438" y="134.508916" style="fill: #262626; stroke: #262626; stroke-width: 1.25"/>
      </g>
     </g>
     <g id="text_4">
      <!-- 10 -->
      <g style="fill: #262626" transform="translate(22.174375 138.445712) scale(0.11 -0.11)">
       <defs>
        <path id="ArialMT-31" d="M 2384 0 
L 1822 0 
L 1822 3584 
Q 1619 3391 1289 3197 
Q 959 3003 697 2906 
L 697 3450 
Q 1169 3672 1522 3987 
Q 1875 4303 2022 4600 
L 2384 4600 
L 2384 0 
z
" transform="scale(0.015625)"/>
        <path id="ArialMT-30" d="M 266 2259 
Q 266 3072 433 3567 
Q 600 4063 929 4331 
Q 1259 4600 1759 4600 
Q 2128 4600 2406 4451 
Q 2684 4303 2865 4023 
Q 3047 3744 3150 3342 
Q 3253 2941 3253 2259 
Q 3253 1453 3087 958 
Q 2922 463 2592 192 
Q 2263 -78 1759 -78 
Q 1097 -78 719 397 
Q 266 969 266 2259 
z
M 844 2259 
Q 844 1131 1108 757 
Q 1372 384 1759 384 
Q 2147 384 2411 759 
Q 2675 1134 2675 2259 
Q 2675 3391 2411 3762 
Q 2147 4134 1753 4134 
Q 1366 4134 1134 3806 
Q 844 3388 844 2259 
z
" transform="scale(0.015625)"/>
       </defs>
       <use xlink:href="#ArialMT-31"/>
       <use xlink:href="#ArialMT-30" transform="translate(55.615234 0)"/>
      </g>
     </g>
    </g>
    <g id="ytick_5">
     <g id="line2d_11">
      <g>
       <use xlink:href="#mfe9a4457cb" x="43.908438" y="90.49345" style="fill: #262626; stroke: #262626; stroke-width: 1.25"/>
      </g>
     </g>
     <g id="text_5">
      <!-- 12 -->
      <g style="fill: #262626" transform="translate(22.174375 94.430247) scale(0.11 -0.11)">
       <defs>
        <path id="ArialMT-32" d="M 3222 541 
L 3222 0 
L 194 0 
Q 188 203 259 391 
Q 375 700 629 1000 
Q 884 1300 1366 1694 
Q 2113 2306 2375 2664 
Q 2638 3022 2638 3341 
Q 2638 3675 2398 3904 
Q 2159 4134 1775 4134 
Q 1369 4134 1125 3890 
Q 881 3647 878 3216 
L 300 3275 
Q 359 3922 746 4261 
Q 1134 4600 1788 4600 
Q 2447 4600 2831 4234 
Q 3216 3869 3216 3328 
Q 3216 3053 3103 2787 
Q 2991 2522 2730 2228 
Q 2469 1934 1863 1422 
Q 1356 997 1212 845 
Q 1069 694 975 541 
L 3222 541 
z
" transform="scale(0.015625)"/>
       </defs>
       <use xlink:href="#ArialMT-31"/>
       <use xlink:href="#ArialMT-32" transform="translate(55.615234 0)"/>
      </g>
     </g>
    </g>
    <g id="text_6">
     <!-- y -->
     <g style="fill: #262626" transform="translate(15.64875 183.285) rotate(-90) scale(0.12 -0.12)">
      <defs>
       <path id="ArialMT-79" d="M 397 -1278 
L 334 -750 
Q 519 -800 656 -800 
Q 844 -800 956 -737 
Q 1069 -675 1141 -563 
Q 1194 -478 1313 -144 
Q 1328 -97 1363 -6 
L 103 3319 
L 709 3319 
L 1400 1397 
Q 1534 1031 1641 628 
Q 1738 1016 1872 1384 
L 2581 3319 
L 3144 3319 
L 1881 -56 
Q 1678 -603 1566 -809 
Q 1416 -1088 1222 -1217 
Q 1028 -1347 759 -1347 
Q 597 -1347 397 -1278 
z
" transform="scale(0.015625)"/>
      </defs>
      <use xlink:href="#ArialMT-79"/>
     </g>
    </g>
   </g>
   <g id="PathCollection_1">
    <defs>
     <path id="mb6fb39967d" d="M 0 3.535534 
C 0.937635 3.535534 1.836992 3.163008 2.5 2.5 
C 3.163008 1.836992 3.535534 0.937635 3.535534 0 
C 3.535534 -0.937635 3.163008 -1.836992 2.5 -2.5 
C 1.836992 -3.163008 0.937635 -3.535534 0 -3.535534 
C -0.937635 -3.535534 -1.836992 -3.163008 -2.5 -2.5 
C -3.163008 -1.836992 -3.535534 -0.937635 -3.535534 0 
C -3.535534 0.937635 -3.163008 1.836992 -2.5 2.5 
C -1.836992 3.163008 -0.937635 3.535534 0 3.535534 
z
" style="stroke: #4878d0"/>
    </defs>
    <g clip-path="url(#pfe5ca0e635)">
     <use xlink:href="#mb6fb39967d" x="144.989688" y="177.644072" style="fill: #4878d0; stroke: #4878d0"/>
     <use xlink:href="#mb6fb39967d" x="115.039688" y="201.632501" style="fill: #4878d0; stroke: #4878d0"/>
     <use xlink:href="#mb6fb39967d" x="189.914688" y="187.767629" style="fill: #4878d0; stroke: #4878d0"/>
     <use xlink:href="#mb6fb39967d" x="130.014688" y="160.698118" style="fill: #4878d0; stroke: #4878d0"/>
     <use xlink:href="#mb6fb39967d" x="159.964688" y="171.261829" style="fill: #4878d0; stroke: #4878d0"/>
     <use xlink:href="#mb6fb39967d" x="204.889688" y="135.389225" style="fill: #4878d0; stroke: #4878d0"/>
     <use xlink:href="#mb6fb39967d" x="85.089688" y="195.250258" style="fill: #4878d0; stroke: #4878d0"/>
     <use xlink:href="#mb6fb39967d" x="55.139688" y="260.833303" style="fill: #4878d0; stroke: #4878d0"/>
     <use xlink:href="#mb6fb39967d" x="174.939688" y="116.02242" style="fill: #4878d0; stroke: #4878d0"/>
     <use xlink:href="#mb6fb39967d" x="100.064688" y="248.508972" style="fill: #4878d0; stroke: #4878d0"/>
     <use xlink:href="#mb6fb39967d" x="70.114688" y="229.582322" style="fill: #4878d0; stroke: #4878d0"/>
    </g>
   </g>
   <g id="line2d_12">
    <path d="M 55.139688 244.537577 
L 56.652314 243.425873 
L 58.16494 242.314169 
L 59.677566 241.202465 
L 61.190193 240.090762 
L 62.702819 238.979058 
L 64.215445 237.867354 
L 65.728071 236.75565 
L 67.240698 235.643947 
L 68.753324 234.532243 
L 70.26595 233.420539 
L 71.778576 232.308835 
L 73.291203 231.197132 
L 74.803829 230.085428 
L 76.316455 228.973724 
L 77.829081 227.86202 
L 79.341708 226.750317 
L 80.854334 225.638613 
L 82.36696 224.526909 
L 83.879586 223.415205 
L 85.392213 222.303502 
L 86.904839 221.191798 
L 88.417465 220.080094 
L 89.930092 218.96839 
L 91.442718 217.856687 
L 92.955344 216.744983 
L 94.46797 215.633279 
L 95.980597 214.521575 
L 97.493223 213.409872 
L 99.005849 212.298168 
L 100.518475 211.186464 
L 102.031102 210.07476 
L 103.543728 208.963057 
L 105.056354 207.851353 
L 106.56898 206.739649 
L 108.081607 205.627945 
L 109.594233 204.516241 
L 111.106859 203.404538 
L 112.619485 202.292834 
L 114.132112 201.18113 
L 115.644738 200.069426 
L 117.157364 198.957723 
L 118.669991 197.846019 
L 120.182617 196.734315 
L 121.695243 195.622611 
L 123.207869 194.510908 
L 124.720496 193.399204 
L 126.233122 192.2875 
L 127.745748 191.175796 
L 129.258374 190.064093 
L 130.771001 188.952389 
L 132.283627 187.840685 
L 133.796253 186.728981 
L 135.308879 185.617278 
L 136.821506 184.505574 
L 138.334132 183.39387 
L 139.846758 182.282166 
L 141.359384 181.170463 
L 142.872011 180.058759 
L 144.384637 178.947055 
L 145.897263 177.835351 
L 147.40989 176.723648 
L 148.922516 175.611944 
L 150.435142 174.50024 
L 151.947768 173.388536 
L 153.460395 172.276833 
L 154.973021 171.165129 
L 156.485647 170.053425 
L 157.998273 168.941721 
L 159.5109 167.830018 
L 161.023526 166.718314 
L 162.536152 165.60661 
L 164.048778 164.494906 
L 165.561405 163.383203 
L 167.074031 162.271499 
L 168.586657 161.159795 
L 170.099283 160.048091 
L 171.61191 158.936388 
L 173.124536 157.824684 
L 174.637162 156.71298 
L 176.149789 155.601276 
L 177.662415 154.489573 
L 179.175041 153.377869 
L 180.687667 152.266165 
L 182.200294 151.154461 
L 183.71292 150.042758 
L 185.225546 148.931054 
L 186.738172 147.81935 
L 188.250799 146.707646 
L 189.763425 145.595943 
L 191.276051 144.484239 
L 192.788677 143.372535 
L 194.301304 142.260831 
L 195.81393 141.149127 
L 197.326556 140.037424 
L 198.839182 138.92572 
L 200.351809 137.814016 
L 201.864435 136.702312 
L 203.377061 135.590609 
L 204.889688 134.478905 
" clip-path="url(#pfe5ca0e635)" style="fill: none; stroke: #4878d0; stroke-width: 2.25; stroke-linecap: round"/>
   </g>
   <g id="patch_3">
    <path d="M 43.908438 296.97 
L 43.908438 63.6 
" style="fill: none; stroke: #262626; stroke-width: 1.25; stroke-linejoin: miter; stroke-linecap: square"/>
   </g>
   <g id="patch_4">
    <path d="M 43.908438 296.97 
L 290.995938 296.97 
" style="fill: none; stroke: #262626; stroke-width: 1.25; stroke-linejoin: miter; stroke-linecap: square"/>
   </g>
   <g id="text_7">
    <!-- dataset = I -->
    <g style="fill: #262626" transform="translate(139.267188 57.6) scale(0.12 -0.12)">
     <defs>
      <path id="ArialMT-64" d="M 2575 0 
L 2575 419 
Q 2259 -75 1647 -75 
Q 1250 -75 917 144 
Q 584 363 401 755 
Q 219 1147 219 1656 
Q 219 2153 384 2558 
Q 550 2963 881 3178 
Q 1213 3394 1622 3394 
Q 1922 3394 2156 3267 
Q 2391 3141 2538 2938 
L 2538 4581 
L 3097 4581 
L 3097 0 
L 2575 0 
z
M 797 1656 
Q 797 1019 1065 703 
Q 1334 388 1700 388 
Q 2069 388 2326 689 
Q 2584 991 2584 1609 
Q 2584 2291 2321 2609 
Q 2059 2928 1675 2928 
Q 1300 2928 1048 2622 
Q 797 2316 797 1656 
z
" transform="scale(0.015625)"/>
      <path id="ArialMT-61" d="M 2588 409 
Q 2275 144 1986 34 
Q 1697 -75 1366 -75 
Q 819 -75 525 192 
Q 231 459 231 875 
Q 231 1119 342 1320 
Q 453 1522 633 1644 
Q 813 1766 1038 1828 
Q 1203 1872 1538 1913 
Q 2219 1994 2541 2106 
Q 2544 2222 2544 2253 
Q 2544 2597 2384 2738 
Q 2169 2928 1744 2928 
Q 1347 2928 1158 2789 
Q 969 2650 878 2297 
L 328 2372 
Q 403 2725 575 2942 
Q 747 3159 1072 3276 
Q 1397 3394 1825 3394 
Q 2250 3394 2515 3294 
Q 2781 3194 2906 3042 
Q 3031 2891 3081 2659 
Q 3109 2516 3109 2141 
L 3109 1391 
Q 3109 606 3145 398 
Q 3181 191 3288 0 
L 2700 0 
Q 2613 175 2588 409 
z
M 2541 1666 
Q 2234 1541 1622 1453 
Q 1275 1403 1131 1340 
Q 988 1278 909 1158 
Q 831 1038 831 891 
Q 831 666 1001 516 
Q 1172 366 1500 366 
Q 1825 366 2078 508 
Q 2331 650 2450 897 
Q 2541 1088 2541 1459 
L 2541 1666 
z
" transform="scale(0.015625)"/>
      <path id="ArialMT-74" d="M 1650 503 
L 1731 6 
Q 1494 -44 1306 -44 
Q 1000 -44 831 53 
Q 663 150 594 308 
Q 525 466 525 972 
L 525 2881 
L 113 2881 
L 113 3319 
L 525 3319 
L 525 4141 
L 1084 4478 
L 1084 3319 
L 1650 3319 
L 1650 2881 
L 1084 2881 
L 1084 941 
Q 1084 700 1114 631 
Q 1144 563 1211 522 
Q 1278 481 1403 481 
Q 1497 481 1650 503 
z
" transform="scale(0.015625)"/>
      <path id="ArialMT-73" d="M 197 991 
L 753 1078 
Q 800 744 1014 566 
Q 1228 388 1613 388 
Q 2000 388 2187 545 
Q 2375 703 2375 916 
Q 2375 1106 2209 1216 
Q 2094 1291 1634 1406 
Q 1016 1563 777 1677 
Q 538 1791 414 1992 
Q 291 2194 291 2438 
Q 291 2659 392 2848 
Q 494 3038 669 3163 
Q 800 3259 1026 3326 
Q 1253 3394 1513 3394 
Q 1903 3394 2198 3281 
Q 2494 3169 2634 2976 
Q 2775 2784 2828 2463 
L 2278 2388 
Q 2241 2644 2061 2787 
Q 1881 2931 1553 2931 
Q 1166 2931 1000 2803 
Q 834 2675 834 2503 
Q 834 2394 903 2306 
Q 972 2216 1119 2156 
Q 1203 2125 1616 2013 
Q 2213 1853 2448 1751 
Q 2684 1650 2818 1456 
Q 2953 1263 2953 975 
Q 2953 694 2789 445 
Q 2625 197 2315 61 
Q 2006 -75 1616 -75 
Q 969 -75 630 194 
Q 291 463 197 991 
z
" transform="scale(0.015625)"/>
      <path id="ArialMT-65" d="M 2694 1069 
L 3275 997 
Q 3138 488 2766 206 
Q 2394 -75 1816 -75 
Q 1088 -75 661 373 
Q 234 822 234 1631 
Q 234 2469 665 2931 
Q 1097 3394 1784 3394 
Q 2450 3394 2872 2941 
Q 3294 2488 3294 1666 
Q 3294 1616 3291 1516 
L 816 1516 
Q 847 969 1125 678 
Q 1403 388 1819 388 
Q 2128 388 2347 550 
Q 2566 713 2694 1069 
z
M 847 1978 
L 2700 1978 
Q 2663 2397 2488 2606 
Q 2219 2931 1791 2931 
Q 1403 2931 1139 2672 
Q 875 2413 847 1978 
z
" transform="scale(0.015625)"/>
      <path id="ArialMT-20" transform="scale(0.015625)"/>
      <path id="ArialMT-3d" d="M 3381 2694 
L 356 2694 
L 356 3219 
L 3381 3219 
L 3381 2694 
z
M 3381 1303 
L 356 1303 
L 356 1828 
L 3381 1828 
L 3381 1303 
z
" transform="scale(0.015625)"/>
      <path id="ArialMT-49" d="M 597 0 
L 597 4581 
L 1203 4581 
L 1203 0 
L 597 0 
z
" transform="scale(0.015625)"/>
     </defs>
     <use xlink:href="#ArialMT-64"/>
     <use xlink:href="#ArialMT-61" transform="translate(55.615234 0)"/>
     <use xlink:href="#ArialMT-74" transform="translate(111.230469 0)"/>
     <use xlink:href="#ArialMT-61" transform="translate(139.013672 0)"/>
     <use xlink:href="#ArialMT-73" transform="translate(194.628906 0)"/>
     <use xlink:href="#ArialMT-65" transform="translate(244.628906 0)"/>
     <use xlink:href="#ArialMT-74" transform="translate(300.244141 0)"/>
     <use xlink:href="#ArialMT-20" transform="translate(328.027344 0)"/>
     <use xlink:href="#ArialMT-3d" transform="translate(355.810547 0)"/>
     <use xlink:href="#ArialMT-20" transform="translate(414.208984 0)"/>
     <use xlink:href="#ArialMT-49" transform="translate(441.992188 0)"/>
    </g>
   </g>
  </g>
  <g id="axes_2">
   <g id="patch_5">
    <path d="M 309.955938 296.97 
L 557.043437 296.97 
L 557.043437 63.6 
L 309.955938 63.6 
z
" style="fill: #ffffff"/>
   </g>
   <g id="matplotlib.axis_3">
    <g id="xtick_7">
     <g id="line2d_13">
      <g>
       <use xlink:href="#m6db950d04f" x="336.162188" y="296.97" style="fill: #262626; stroke: #262626; stroke-width: 1.25"/>
      </g>
     </g>
    </g>
    <g id="xtick_8">
     <g id="line2d_14">
      <g>
       <use xlink:href="#m6db950d04f" x="373.599688" y="296.97" style="fill: #262626; stroke: #262626; stroke-width: 1.25"/>
      </g>
     </g>
    </g>
    <g id="xtick_9">
     <g id="line2d_15">
      <g>
       <use xlink:href="#m6db950d04f" x="411.037188" y="296.97" style="fill: #262626; stroke: #262626; stroke-width: 1.25"/>
      </g>
     </g>
    </g>
    <g id="xtick_10">
     <g id="line2d_16">
      <g>
       <use xlink:href="#m6db950d04f" x="448.474688" y="296.97" style="fill: #262626; stroke: #262626; stroke-width: 1.25"/>
      </g>
     </g>
    </g>
    <g id="xtick_11">
     <g id="line2d_17">
      <g>
       <use xlink:href="#m6db950d04f" x="485.912188" y="296.97" style="fill: #262626; stroke: #262626; stroke-width: 1.25"/>
      </g>
     </g>
    </g>
    <g id="xtick_12">
     <g id="line2d_18">
      <g>
       <use xlink:href="#m6db950d04f" x="523.349688" y="296.97" style="fill: #262626; stroke: #262626; stroke-width: 1.25"/>
      </g>
     </g>
    </g>
   </g>
   <g id="matplotlib.axis_4">
    <g id="ytick_6">
     <g id="line2d_19">
      <g>
       <use xlink:href="#mfe9a4457cb" x="309.955938" y="266.555313" style="fill: #262626; stroke: #262626; stroke-width: 1.25"/>
      </g>
     </g>
    </g>
    <g id="ytick_7">
     <g id="line2d_20">
      <g>
       <use xlink:href="#mfe9a4457cb" x="309.955938" y="222.539847" style="fill: #262626; stroke: #262626; stroke-width: 1.25"/>
      </g>
     </g>
    </g>
    <g id="ytick_8">
     <g id="line2d_21">
      <g>
       <use xlink:href="#mfe9a4457cb" x="309.955938" y="178.524381" style="fill: #262626; stroke: #262626; stroke-width: 1.25"/>
      </g>
     </g>
    </g>
    <g id="ytick_9">
     <g id="line2d_22">
      <g>
       <use xlink:href="#mfe9a4457cb" x="309.955938" y="134.508916" style="fill: #262626; stroke: #262626; stroke-width: 1.25"/>
      </g>
     </g>
    </g>
    <g id="ytick_10">
     <g id="line2d_23">
      <g>
       <use xlink:href="#mfe9a4457cb" x="309.955938" y="90.49345" style="fill: #262626; stroke: #262626; stroke-width: 1.25"/>
      </g>
     </g>
    </g>
   </g>
   <g id="PathCollection_2">
    <defs>
     <path id="ma81e16eb31" d="M 0 3.535534 
C 0.937635 3.535534 1.836992 3.163008 2.5 2.5 
C 3.163008 1.836992 3.535534 0.937635 3.535534 0 
C 3.535534 -0.937635 3.163008 -1.836992 2.5 -2.5 
C 1.836992 -3.163008 0.937635 -3.535534 0 -3.535534 
C -0.937635 -3.535534 -1.836992 -3.163008 -2.5 -2.5 
C -3.163008 -1.836992 -3.535534 -0.937635 -3.535534 0 
C -3.535534 0.937635 -3.163008 1.836992 -2.5 2.5 
C -1.836992 3.163008 -0.937635 3.535534 0 3.535534 
z
" style="stroke: #ee854a"/>
    </defs>
    <g clip-path="url(#p832c8ac2e0)">
     <use xlink:href="#ma81e16eb31" x="411.037188" y="153.435566" style="fill: #ee854a; stroke: #ee854a"/>
     <use xlink:href="#ma81e16eb31" x="381.087188" y="175.443299" style="fill: #ee854a; stroke: #ee854a"/>
     <use xlink:href="#ma81e16eb31" x="455.962188" y="162.238659" style="fill: #ee854a; stroke: #ee854a"/>
     <use xlink:href="#ma81e16eb31" x="396.062188" y="161.578427" style="fill: #ee854a; stroke: #ee854a"/>
     <use xlink:href="#ma81e16eb31" x="426.012188" y="150.794638" style="fill: #ee854a; stroke: #ee854a"/>
     <use xlink:href="#ma81e16eb31" x="470.937188" y="176.323608" style="fill: #ee854a; stroke: #ee854a"/>
     <use xlink:href="#ma81e16eb31" x="351.137188" y="219.678842" style="fill: #ee854a; stroke: #ee854a"/>
     <use xlink:href="#ma81e16eb31" x="321.187188" y="286.362273" style="fill: #ee854a; stroke: #ee854a"/>
     <use xlink:href="#ma81e16eb31" x="440.987188" y="153.655643" style="fill: #ee854a; stroke: #ee854a"/>
     <use xlink:href="#ma81e16eb31" x="366.112188" y="194.810104" style="fill: #ee854a; stroke: #ee854a"/>
     <use xlink:href="#ma81e16eb31" x="336.162188" y="250.269591" style="fill: #ee854a; stroke: #ee854a"/>
    </g>
   </g>
   <g id="line2d_24">
    <path d="M 321.187188 244.527573 
L 322.699814 243.416071 
L 324.21244 242.30457 
L 325.725066 241.193068 
L 327.237693 240.081566 
L 328.750319 238.970065 
L 330.262945 237.858563 
L 331.775571 236.747061 
L 333.288198 235.63556 
L 334.800824 234.524058 
L 336.31345 233.412556 
L 337.826076 232.301055 
L 339.338703 231.189553 
L 340.851329 230.078052 
L 342.363955 228.96655 
L 343.876581 227.855048 
L 345.389208 226.743547 
L 346.901834 225.632045 
L 348.41446 224.520543 
L 349.927086 223.409042 
L 351.439713 222.29754 
L 352.952339 221.186038 
L 354.464965 220.074537 
L 355.977592 218.963035 
L 357.490218 217.851533 
L 359.002844 216.740032 
L 360.51547 215.62853 
L 362.028097 214.517028 
L 363.540723 213.405527 
L 365.053349 212.294025 
L 366.565975 211.182523 
L 368.078602 210.071022 
L 369.591228 208.95952 
L 371.103854 207.848018 
L 372.61648 206.736517 
L 374.129107 205.625015 
L 375.641733 204.513513 
L 377.154359 203.402012 
L 378.666985 202.29051 
L 380.179612 201.179008 
L 381.692238 200.067507 
L 383.204864 198.956005 
L 384.717491 197.844503 
L 386.230117 196.733002 
L 387.742743 195.6215 
L 389.255369 194.509998 
L 390.767996 193.398497 
L 392.280622 192.286995 
L 393.793248 191.175493 
L 395.305874 190.063992 
L 396.818501 188.95249 
L 398.331127 187.840988 
L 399.843753 186.729487 
L 401.356379 185.617985 
L 402.869006 184.506483 
L 404.381632 183.394982 
L 405.894258 182.28348 
L 407.406884 181.171978 
L 408.919511 180.060477 
L 410.432137 178.948975 
L 411.944763 177.837473 
L 413.45739 176.725972 
L 414.970016 175.61447 
L 416.482642 174.502968 
L 417.995268 173.391467 
L 419.507895 172.279965 
L 421.020521 171.168463 
L 422.533147 170.056962 
L 424.045773 168.94546 
L 425.5584 167.833958 
L 427.071026 166.722457 
L 428.583652 165.610955 
L 430.096278 164.499453 
L 431.608905 163.387952 
L 433.121531 162.27645 
L 434.634157 161.164948 
L 436.146783 160.053447 
L 437.65941 158.941945 
L 439.172036 157.830443 
L 440.684662 156.718942 
L 442.197289 155.60744 
L 443.709915 154.495938 
L 445.222541 153.384437 
L 446.735167 152.272935 
L 448.247794 151.161433 
L 449.76042 150.049932 
L 451.273046 148.93843 
L 452.785672 147.826928 
L 454.298299 146.715427 
L 455.810925 145.603925 
L 457.323551 144.492423 
L 458.836177 143.380922 
L 460.348804 142.26942 
L 461.86143 141.157918 
L 463.374056 140.046417 
L 464.886682 138.934915 
L 466.399309 137.823413 
L 467.911935 136.711912 
L 469.424561 135.60041 
L 470.937188 134.488908 
" clip-path="url(#p832c8ac2e0)" style="fill: none; stroke: #ee854a; stroke-width: 2.25; stroke-linecap: round"/>
   </g>
   <g id="patch_6">
    <path d="M 309.955938 296.97 
L 309.955938 63.6 
" style="fill: none; stroke: #262626; stroke-width: 1.25; stroke-linejoin: miter; stroke-linecap: square"/>
   </g>
   <g id="patch_7">
    <path d="M 309.955938 296.97 
L 557.043437 296.97 
" style="fill: none; stroke: #262626; stroke-width: 1.25; stroke-linejoin: miter; stroke-linecap: square"/>
   </g>
   <g id="text_8">
    <!-- dataset = II -->
    <g style="fill: #262626" transform="translate(403.647813 57.6) scale(0.12 -0.12)">
     <use xlink:href="#ArialMT-64"/>
     <use xlink:href="#ArialMT-61" transform="translate(55.615234 0)"/>
     <use xlink:href="#ArialMT-74" transform="translate(111.230469 0)"/>
     <use xlink:href="#ArialMT-61" transform="translate(139.013672 0)"/>
     <use xlink:href="#ArialMT-73" transform="translate(194.628906 0)"/>
     <use xlink:href="#ArialMT-65" transform="translate(244.628906 0)"/>
     <use xlink:href="#ArialMT-74" transform="translate(300.244141 0)"/>
     <use xlink:href="#ArialMT-20" transform="translate(328.027344 0)"/>
     <use xlink:href="#ArialMT-3d" transform="translate(355.810547 0)"/>
     <use xlink:href="#ArialMT-20" transform="translate(414.208984 0)"/>
     <use xlink:href="#ArialMT-49" transform="translate(441.992188 0)"/>
     <use xlink:href="#ArialMT-49" transform="translate(469.775391 0)"/>
    </g>
   </g>
  </g>
  <g id="axes_3">
   <g id="patch_8">
    <path d="M 43.908438 563.94 
L 290.995938 563.94 
L 290.995938 330.57 
L 43.908438 330.57 
z
" style="fill: #ffffff"/>
   </g>
   <g id="matplotlib.axis_5">
    <g id="xtick_13">
     <g id="line2d_25">
      <g>
       <use xlink:href="#m6db950d04f" x="70.114688" y="563.94" style="fill: #262626; stroke: #262626; stroke-width: 1.25"/>
      </g>
     </g>
     <g id="text_9">
      <!-- 5.0 -->
      <g style="fill: #262626" transform="translate(62.469688 581.313594) scale(0.11 -0.11)">
       <defs>
        <path id="ArialMT-35" d="M 266 1200 
L 856 1250 
Q 922 819 1161 601 
Q 1400 384 1738 384 
Q 2144 384 2425 690 
Q 2706 997 2706 1503 
Q 2706 1984 2436 2262 
Q 2166 2541 1728 2541 
Q 1456 2541 1237 2417 
Q 1019 2294 894 2097 
L 366 2166 
L 809 4519 
L 3088 4519 
L 3088 3981 
L 1259 3981 
L 1013 2750 
Q 1425 3038 1878 3038 
Q 2478 3038 2890 2622 
Q 3303 2206 3303 1553 
Q 3303 931 2941 478 
Q 2500 -78 1738 -78 
Q 1113 -78 717 272 
Q 322 622 266 1200 
z
" transform="scale(0.015625)"/>
        <path id="ArialMT-2e" d="M 581 0 
L 581 641 
L 1222 641 
L 1222 0 
L 581 0 
z
" transform="scale(0.015625)"/>
       </defs>
       <use xlink:href="#ArialMT-35"/>
       <use xlink:href="#ArialMT-2e" transform="translate(55.615234 0)"/>
       <use xlink:href="#ArialMT-30" transform="translate(83.398438 0)"/>
      </g>
     </g>
    </g>
    <g id="xtick_14">
     <g id="line2d_26">
      <g>
       <use xlink:href="#m6db950d04f" x="107.552188" y="563.94" style="fill: #262626; stroke: #262626; stroke-width: 1.25"/>
      </g>
     </g>
     <g id="text_10">
      <!-- 7.5 -->
      <g style="fill: #262626" transform="translate(99.907188 581.313594) scale(0.11 -0.11)">
       <defs>
        <path id="ArialMT-37" d="M 303 3981 
L 303 4522 
L 3269 4522 
L 3269 4084 
Q 2831 3619 2401 2847 
Q 1972 2075 1738 1259 
Q 1569 684 1522 0 
L 944 0 
Q 953 541 1156 1306 
Q 1359 2072 1739 2783 
Q 2119 3494 2547 3981 
L 303 3981 
z
" transform="scale(0.015625)"/>
       </defs>
       <use xlink:href="#ArialMT-37"/>
       <use xlink:href="#ArialMT-2e" transform="translate(55.615234 0)"/>
       <use xlink:href="#ArialMT-35" transform="translate(83.398438 0)"/>
      </g>
     </g>
    </g>
    <g id="xtick_15">
     <g id="line2d_27">
      <g>
       <use xlink:href="#m6db950d04f" x="144.989688" y="563.94" style="fill: #262626; stroke: #262626; stroke-width: 1.25"/>
      </g>
     </g>
     <g id="text_11">
      <!-- 10.0 -->
      <g style="fill: #262626" transform="translate(134.286172 581.313594) scale(0.11 -0.11)">
       <use xlink:href="#ArialMT-31"/>
       <use xlink:href="#ArialMT-30" transform="translate(55.615234 0)"/>
       <use xlink:href="#ArialMT-2e" transform="translate(111.230469 0)"/>
       <use xlink:href="#ArialMT-30" transform="translate(139.013672 0)"/>
      </g>
     </g>
    </g>
    <g id="xtick_16">
     <g id="line2d_28">
      <g>
       <use xlink:href="#m6db950d04f" x="182.427188" y="563.94" style="fill: #262626; stroke: #262626; stroke-width: 1.25"/>
      </g>
     </g>
     <g id="text_12">
      <!-- 12.5 -->
      <g style="fill: #262626" transform="translate(171.723672 581.313594) scale(0.11 -0.11)">
       <use xlink:href="#ArialMT-31"/>
       <use xlink:href="#ArialMT-32" transform="translate(55.615234 0)"/>
       <use xlink:href="#ArialMT-2e" transform="translate(111.230469 0)"/>
       <use xlink:href="#ArialMT-35" transform="translate(139.013672 0)"/>
      </g>
     </g>
    </g>
    <g id="xtick_17">
     <g id="line2d_29">
      <g>
       <use xlink:href="#m6db950d04f" x="219.864688" y="563.94" style="fill: #262626; stroke: #262626; stroke-width: 1.25"/>
      </g>
     </g>
     <g id="text_13">
      <!-- 15.0 -->
      <g style="fill: #262626" transform="translate(209.161172 581.313594) scale(0.11 -0.11)">
       <use xlink:href="#ArialMT-31"/>
       <use xlink:href="#ArialMT-35" transform="translate(55.615234 0)"/>
       <use xlink:href="#ArialMT-2e" transform="translate(111.230469 0)"/>
       <use xlink:href="#ArialMT-30" transform="translate(139.013672 0)"/>
      </g>
     </g>
    </g>
    <g id="xtick_18">
     <g id="line2d_30">
      <g>
       <use xlink:href="#m6db950d04f" x="257.302188" y="563.94" style="fill: #262626; stroke: #262626; stroke-width: 1.25"/>
      </g>
     </g>
     <g id="text_14">
      <!-- 17.5 -->
      <g style="fill: #262626" transform="translate(246.598672 581.313594) scale(0.11 -0.11)">
       <use xlink:href="#ArialMT-31"/>
       <use xlink:href="#ArialMT-37" transform="translate(55.615234 0)"/>
       <use xlink:href="#ArialMT-2e" transform="translate(111.230469 0)"/>
       <use xlink:href="#ArialMT-35" transform="translate(139.013672 0)"/>
      </g>
     </g>
    </g>
    <g id="text_15">
     <!-- x -->
     <g style="fill: #262626" transform="translate(164.452188 596.089219) scale(0.12 -0.12)">
      <defs>
       <path id="ArialMT-78" d="M 47 0 
L 1259 1725 
L 138 3319 
L 841 3319 
L 1350 2541 
Q 1494 2319 1581 2169 
Q 1719 2375 1834 2534 
L 2394 3319 
L 3066 3319 
L 1919 1756 
L 3153 0 
L 2463 0 
L 1781 1031 
L 1600 1309 
L 728 0 
L 47 0 
z
" transform="scale(0.015625)"/>
      </defs>
      <use xlink:href="#ArialMT-78"/>
     </g>
    </g>
   </g>
   <g id="matplotlib.axis_6">
    <g id="ytick_11">
     <g id="line2d_31">
      <g>
       <use xlink:href="#mfe9a4457cb" x="43.908438" y="533.525313" style="fill: #262626; stroke: #262626; stroke-width: 1.25"/>
      </g>
     </g>
     <g id="text_16">
      <!-- 4 -->
      <g style="fill: #262626" transform="translate(28.291406 537.46211) scale(0.11 -0.11)">
       <use xlink:href="#ArialMT-34"/>
      </g>
     </g>
    </g>
    <g id="ytick_12">
     <g id="line2d_32">
      <g>
       <use xlink:href="#mfe9a4457cb" x="43.908438" y="489.509847" style="fill: #262626; stroke: #262626; stroke-width: 1.25"/>
      </g>
     </g>
     <g id="text_17">
      <!-- 6 -->
      <g style="fill: #262626" transform="translate(28.291406 493.446644) scale(0.11 -0.11)">
       <use xlink:href="#ArialMT-36"/>
      </g>
     </g>
    </g>
    <g id="ytick_13">
     <g id="line2d_33">
      <g>
       <use xlink:href="#mfe9a4457cb" x="43.908438" y="445.494381" style="fill: #262626; stroke: #262626; stroke-width: 1.25"/>
      </g>
     </g>
     <g id="text_18">
      <!-- 8 -->
      <g style="fill: #262626" transform="translate(28.291406 449.431178) scale(0.11 -0.11)">
       <use xlink:href="#ArialMT-38"/>
      </g>
     </g>
    </g>
    <g id="ytick_14">
     <g id="line2d_34">
      <g>
       <use xlink:href="#mfe9a4457cb" x="43.908438" y="401.478916" style="fill: #262626; stroke: #262626; stroke-width: 1.25"/>
      </g>
     </g>
     <g id="text_19">
      <!-- 10 -->
      <g style="fill: #262626" transform="translate(22.174375 405.415712) scale(0.11 -0.11)">
       <use xlink:href="#ArialMT-31"/>
       <use xlink:href="#ArialMT-30" transform="translate(55.615234 0)"/>
      </g>
     </g>
    </g>
    <g id="ytick_15">
     <g id="line2d_35">
      <g>
       <use xlink:href="#mfe9a4457cb" x="43.908438" y="357.46345" style="fill: #262626; stroke: #262626; stroke-width: 1.25"/>
      </g>
     </g>
     <g id="text_20">
      <!-- 12 -->
      <g style="fill: #262626" transform="translate(22.174375 361.400247) scale(0.11 -0.11)">
       <use xlink:href="#ArialMT-31"/>
       <use xlink:href="#ArialMT-32" transform="translate(55.615234 0)"/>
      </g>
     </g>
    </g>
    <g id="text_21">
     <!-- y -->
     <g style="fill: #262626" transform="translate(15.64875 450.255) rotate(-90) scale(0.12 -0.12)">
      <use xlink:href="#ArialMT-79"/>
     </g>
    </g>
   </g>
   <g id="PathCollection_3">
    <defs>
     <path id="me21b66df8c" d="M 0 3.535534 
C 0.937635 3.535534 1.836992 3.163008 2.5 2.5 
C 3.163008 1.836992 3.535534 0.937635 3.535534 0 
C 3.535534 -0.937635 3.163008 -1.836992 2.5 -2.5 
C 1.836992 -3.163008 0.937635 -3.535534 0 -3.535534 
C -0.937635 -3.535534 -1.836992 -3.163008 -2.5 -2.5 
C -3.163008 -1.836992 -3.535534 -0.937635 -3.535534 0 
C -3.535534 0.937635 -3.163008 1.836992 -2.5 2.5 
C -1.836992 3.163008 -0.937635 3.535534 0 3.535534 
z
" style="stroke: #6acc64"/>
    </defs>
    <g clip-path="url(#p92a56577d8)">
     <use xlink:href="#me21b66df8c" x="144.989688" y="457.378557" style="fill: #6acc64; stroke: #6acc64"/>
     <use xlink:href="#me21b66df8c" x="115.039688" y="472.563893" style="fill: #6acc64; stroke: #6acc64"/>
     <use xlink:href="#me21b66df8c" x="189.914688" y="341.177727" style="fill: #6acc64; stroke: #6acc64"/>
     <use xlink:href="#me21b66df8c" x="130.014688" y="465.081264" style="fill: #6acc64; stroke: #6acc64"/>
     <use xlink:href="#me21b66df8c" x="159.964688" y="449.675851" style="fill: #6acc64; stroke: #6acc64"/>
     <use xlink:href="#me21b66df8c" x="204.889688" y="427.007886" style="fill: #6acc64; stroke: #6acc64"/>
     <use xlink:href="#me21b66df8c" x="85.089688" y="487.749229" style="fill: #6acc64; stroke: #6acc64"/>
     <use xlink:href="#me21b66df8c" x="55.139688" y="502.934564" style="fill: #6acc64; stroke: #6acc64"/>
     <use xlink:href="#me21b66df8c" x="174.939688" y="442.193221" style="fill: #6acc64; stroke: #6acc64"/>
     <use xlink:href="#me21b66df8c" x="100.064688" y="480.266599" style="fill: #6acc64; stroke: #6acc64"/>
     <use xlink:href="#me21b66df8c" x="70.114688" y="495.451935" style="fill: #6acc64; stroke: #6acc64"/>
    </g>
   </g>
   <g id="line2d_36">
    <path d="M 55.139688 511.48757 
L 56.652314 510.376674 
L 58.16494 509.265779 
L 59.677566 508.154883 
L 61.190193 507.043988 
L 62.702819 505.933093 
L 64.215445 504.822197 
L 65.728071 503.711302 
L 67.240698 502.600406 
L 68.753324 501.489511 
L 70.26595 500.378616 
L 71.778576 499.26772 
L 73.291203 498.156825 
L 74.803829 497.04593 
L 76.316455 495.935034 
L 77.829081 494.824139 
L 79.341708 493.713243 
L 80.854334 492.602348 
L 82.36696 491.491453 
L 83.879586 490.380557 
L 85.392213 489.269662 
L 86.904839 488.158766 
L 88.417465 487.047871 
L 89.930092 485.936976 
L 91.442718 484.82608 
L 92.955344 483.715185 
L 94.46797 482.604289 
L 95.980597 481.493394 
L 97.493223 480.382499 
L 99.005849 479.271603 
L 100.518475 478.160708 
L 102.031102 477.049813 
L 103.543728 475.938917 
L 105.056354 474.828022 
L 106.56898 473.717126 
L 108.081607 472.606231 
L 109.594233 471.495336 
L 111.106859 470.38444 
L 112.619485 469.273545 
L 114.132112 468.162649 
L 115.644738 467.051754 
L 117.157364 465.940859 
L 118.669991 464.829963 
L 120.182617 463.719068 
L 121.695243 462.608172 
L 123.207869 461.497277 
L 124.720496 460.386382 
L 126.233122 459.275486 
L 127.745748 458.164591 
L 129.258374 457.053696 
L 130.771001 455.9428 
L 132.283627 454.831905 
L 133.796253 453.721009 
L 135.308879 452.610114 
L 136.821506 451.499219 
L 138.334132 450.388323 
L 139.846758 449.277428 
L 141.359384 448.166532 
L 142.872011 447.055637 
L 144.384637 445.944742 
L 145.897263 444.833846 
L 147.40989 443.722951 
L 148.922516 442.612055 
L 150.435142 441.50116 
L 151.947768 440.390265 
L 153.460395 439.279369 
L 154.973021 438.168474 
L 156.485647 437.057579 
L 157.998273 435.946683 
L 159.5109 434.835788 
L 161.023526 433.724892 
L 162.536152 432.613997 
L 164.048778 431.503102 
L 165.561405 430.392206 
L 167.074031 429.281311 
L 168.586657 428.170415 
L 170.099283 427.05952 
L 171.61191 425.948625 
L 173.124536 424.837729 
L 174.637162 423.726834 
L 176.149789 422.615938 
L 177.662415 421.505043 
L 179.175041 420.394148 
L 180.687667 419.283252 
L 182.200294 418.172357 
L 183.71292 417.061462 
L 185.225546 415.950566 
L 186.738172 414.839671 
L 188.250799 413.728775 
L 189.763425 412.61788 
L 191.276051 411.506985 
L 192.788677 410.396089 
L 194.301304 409.285194 
L 195.81393 408.174298 
L 197.326556 407.063403 
L 198.839182 405.952508 
L 200.351809 404.841612 
L 201.864435 403.730717 
L 203.377061 402.619821 
L 204.889688 401.508926 
" clip-path="url(#p92a56577d8)" style="fill: none; stroke: #6acc64; stroke-width: 2.25; stroke-linecap: round"/>
   </g>
   <g id="patch_9">
    <path d="M 43.908438 563.94 
L 43.908438 330.57 
" style="fill: none; stroke: #262626; stroke-width: 1.25; stroke-linejoin: miter; stroke-linecap: square"/>
   </g>
   <g id="patch_10">
    <path d="M 43.908438 563.94 
L 290.995938 563.94 
" style="fill: none; stroke: #262626; stroke-width: 1.25; stroke-linejoin: miter; stroke-linecap: square"/>
   </g>
   <g id="text_22">
    <!-- dataset = III -->
    <g style="fill: #262626" transform="translate(135.933438 324.57) scale(0.12 -0.12)">
     <use xlink:href="#ArialMT-64"/>
     <use xlink:href="#ArialMT-61" transform="translate(55.615234 0)"/>
     <use xlink:href="#ArialMT-74" transform="translate(111.230469 0)"/>
     <use xlink:href="#ArialMT-61" transform="translate(139.013672 0)"/>
     <use xlink:href="#ArialMT-73" transform="translate(194.628906 0)"/>
     <use xlink:href="#ArialMT-65" transform="translate(244.628906 0)"/>
     <use xlink:href="#ArialMT-74" transform="translate(300.244141 0)"/>
     <use xlink:href="#ArialMT-20" transform="translate(328.027344 0)"/>
     <use xlink:href="#ArialMT-3d" transform="translate(355.810547 0)"/>
     <use xlink:href="#ArialMT-20" transform="translate(414.208984 0)"/>
     <use xlink:href="#ArialMT-49" transform="translate(441.992188 0)"/>
     <use xlink:href="#ArialMT-49" transform="translate(469.775391 0)"/>
     <use xlink:href="#ArialMT-49" transform="translate(497.558594 0)"/>
    </g>
   </g>
  </g>
  <g id="axes_4">
   <g id="patch_11">
    <path d="M 309.955938 563.94 
L 557.043437 563.94 
L 557.043437 330.57 
L 309.955938 330.57 
z
" style="fill: #ffffff"/>
   </g>
   <g id="matplotlib.axis_7">
    <g id="xtick_19">
     <g id="line2d_37">
      <g>
       <use xlink:href="#m6db950d04f" x="336.162188" y="563.94" style="fill: #262626; stroke: #262626; stroke-width: 1.25"/>
      </g>
     </g>
     <g id="text_23">
      <!-- 5.0 -->
      <g style="fill: #262626" transform="translate(328.517188 581.313594) scale(0.11 -0.11)">
       <use xlink:href="#ArialMT-35"/>
       <use xlink:href="#ArialMT-2e" transform="translate(55.615234 0)"/>
       <use xlink:href="#ArialMT-30" transform="translate(83.398438 0)"/>
      </g>
     </g>
    </g>
    <g id="xtick_20">
     <g id="line2d_38">
      <g>
       <use xlink:href="#m6db950d04f" x="373.599688" y="563.94" style="fill: #262626; stroke: #262626; stroke-width: 1.25"/>
      </g>
     </g>
     <g id="text_24">
      <!-- 7.5 -->
      <g style="fill: #262626" transform="translate(365.954688 581.313594) scale(0.11 -0.11)">
       <use xlink:href="#ArialMT-37"/>
       <use xlink:href="#ArialMT-2e" transform="translate(55.615234 0)"/>
       <use xlink:href="#ArialMT-35" transform="translate(83.398438 0)"/>
      </g>
     </g>
    </g>
    <g id="xtick_21">
     <g id="line2d_39">
      <g>
       <use xlink:href="#m6db950d04f" x="411.037188" y="563.94" style="fill: #262626; stroke: #262626; stroke-width: 1.25"/>
      </g>
     </g>
     <g id="text_25">
      <!-- 10.0 -->
      <g style="fill: #262626" transform="translate(400.333672 581.313594) scale(0.11 -0.11)">
       <use xlink:href="#ArialMT-31"/>
       <use xlink:href="#ArialMT-30" transform="translate(55.615234 0)"/>
       <use xlink:href="#ArialMT-2e" transform="translate(111.230469 0)"/>
       <use xlink:href="#ArialMT-30" transform="translate(139.013672 0)"/>
      </g>
     </g>
    </g>
    <g id="xtick_22">
     <g id="line2d_40">
      <g>
       <use xlink:href="#m6db950d04f" x="448.474688" y="563.94" style="fill: #262626; stroke: #262626; stroke-width: 1.25"/>
      </g>
     </g>
     <g id="text_26">
      <!-- 12.5 -->
      <g style="fill: #262626" transform="translate(437.771172 581.313594) scale(0.11 -0.11)">
       <use xlink:href="#ArialMT-31"/>
       <use xlink:href="#ArialMT-32" transform="translate(55.615234 0)"/>
       <use xlink:href="#ArialMT-2e" transform="translate(111.230469 0)"/>
       <use xlink:href="#ArialMT-35" transform="translate(139.013672 0)"/>
      </g>
     </g>
    </g>
    <g id="xtick_23">
     <g id="line2d_41">
      <g>
       <use xlink:href="#m6db950d04f" x="485.912188" y="563.94" style="fill: #262626; stroke: #262626; stroke-width: 1.25"/>
      </g>
     </g>
     <g id="text_27">
      <!-- 15.0 -->
      <g style="fill: #262626" transform="translate(475.208672 581.313594) scale(0.11 -0.11)">
       <use xlink:href="#ArialMT-31"/>
       <use xlink:href="#ArialMT-35" transform="translate(55.615234 0)"/>
       <use xlink:href="#ArialMT-2e" transform="translate(111.230469 0)"/>
       <use xlink:href="#ArialMT-30" transform="translate(139.013672 0)"/>
      </g>
     </g>
    </g>
    <g id="xtick_24">
     <g id="line2d_42">
      <g>
       <use xlink:href="#m6db950d04f" x="523.349688" y="563.94" style="fill: #262626; stroke: #262626; stroke-width: 1.25"/>
      </g>
     </g>
     <g id="text_28">
      <!-- 17.5 -->
      <g style="fill: #262626" transform="translate(512.646172 581.313594) scale(0.11 -0.11)">
       <use xlink:href="#ArialMT-31"/>
       <use xlink:href="#ArialMT-37" transform="translate(55.615234 0)"/>
       <use xlink:href="#ArialMT-2e" transform="translate(111.230469 0)"/>
       <use xlink:href="#ArialMT-35" transform="translate(139.013672 0)"/>
      </g>
     </g>
    </g>
    <g id="text_29">
     <!-- x -->
     <g style="fill: #262626" transform="translate(430.499688 596.089219) scale(0.12 -0.12)">
      <use xlink:href="#ArialMT-78"/>
     </g>
    </g>
   </g>
   <g id="matplotlib.axis_8">
    <g id="ytick_16">
     <g id="line2d_43">
      <g>
       <use xlink:href="#mfe9a4457cb" x="309.955938" y="533.525313" style="fill: #262626; stroke: #262626; stroke-width: 1.25"/>
      </g>
     </g>
    </g>
    <g id="ytick_17">
     <g id="line2d_44">
      <g>
       <use xlink:href="#mfe9a4457cb" x="309.955938" y="489.509847" style="fill: #262626; stroke: #262626; stroke-width: 1.25"/>
      </g>
     </g>
    </g>
    <g id="ytick_18">
     <g id="line2d_45">
      <g>
       <use xlink:href="#mfe9a4457cb" x="309.955938" y="445.494381" style="fill: #262626; stroke: #262626; stroke-width: 1.25"/>
      </g>
     </g>
    </g>
    <g id="ytick_19">
     <g id="line2d_46">
      <g>
       <use xlink:href="#mfe9a4457cb" x="309.955938" y="401.478916" style="fill: #262626; stroke: #262626; stroke-width: 1.25"/>
      </g>
     </g>
    </g>
    <g id="ytick_20">
     <g id="line2d_47">
      <g>
       <use xlink:href="#mfe9a4457cb" x="309.955938" y="357.46345" style="fill: #262626; stroke: #262626; stroke-width: 1.25"/>
      </g>
     </g>
    </g>
   </g>
   <g id="PathCollection_4">
    <defs>
     <path id="mca87d408d6" d="M 0 3.535534 
C 0.937635 3.535534 1.836992 3.163008 2.5 2.5 
C 3.163008 1.836992 3.535534 0.937635 3.535534 0 
C 3.535534 -0.937635 3.163008 -1.836992 2.5 -2.5 
C 1.836992 -3.163008 0.937635 -3.535534 0 -3.535534 
C -0.937635 -3.535534 -1.836992 -3.163008 -2.5 -2.5 
C -3.163008 -1.836992 -3.535534 -0.937635 -3.535534 0 
C -3.535534 0.937635 -3.163008 1.836992 -2.5 2.5 
C -1.836992 3.163008 -0.937635 3.535534 0 3.535534 
z
" style="stroke: #d65f5f"/>
    </defs>
    <g clip-path="url(#p8b146f41ec)">
     <use xlink:href="#mca87d408d6" x="381.087188" y="476.745362" style="fill: #d65f5f; stroke: #d65f5f"/>
     <use xlink:href="#mca87d408d6" x="381.087188" y="494.791703" style="fill: #d65f5f; stroke: #d65f5f"/>
     <use xlink:href="#mca87d408d6" x="381.087188" y="451.876624" style="fill: #d65f5f; stroke: #d65f5f"/>
     <use xlink:href="#mca87d408d6" x="381.087188" y="427.007886" style="fill: #d65f5f; stroke: #d65f5f"/>
     <use xlink:href="#mca87d408d6" x="381.087188" y="435.150747" style="fill: #d65f5f; stroke: #d65f5f"/>
     <use xlink:href="#mca87d408d6" x="381.087188" y="466.621805" style="fill: #d65f5f; stroke: #d65f5f"/>
     <use xlink:href="#mca87d408d6" x="381.087188" y="506.015647" style="fill: #d65f5f; stroke: #d65f5f"/>
     <use xlink:href="#mca87d408d6" x="545.812187" y="346.459583" style="fill: #d65f5f; stroke: #d65f5f"/>
     <use xlink:href="#mca87d408d6" x="381.087188" y="499.19325" style="fill: #d65f5f; stroke: #d65f5f"/>
     <use xlink:href="#mca87d408d6" x="381.087188" y="447.475077" style="fill: #d65f5f; stroke: #d65f5f"/>
     <use xlink:href="#mca87d408d6" x="381.087188" y="469.922965" style="fill: #d65f5f; stroke: #d65f5f"/>
    </g>
   </g>
   <g id="line2d_48">
    <path d="M 381.087188 467.480107 
L 382.751076 466.257677 
L 384.414965 465.035248 
L 386.078854 463.812818 
L 387.742743 462.590388 
L 389.406632 461.367959 
L 391.070521 460.145529 
L 392.73441 458.9231 
L 394.398299 457.70067 
L 396.062188 456.478241 
L 397.726076 455.255811 
L 399.389965 454.033382 
L 401.053854 452.810952 
L 402.717743 451.588523 
L 404.381632 450.366093 
L 406.045521 449.143664 
L 407.70941 447.921234 
L 409.373299 446.698805 
L 411.037188 445.476375 
L 412.701076 444.253946 
L 414.364965 443.031516 
L 416.028854 441.809086 
L 417.692743 440.586657 
L 419.356632 439.364227 
L 421.020521 438.141798 
L 422.68441 436.919368 
L 424.348299 435.696939 
L 426.012188 434.474509 
L 427.676076 433.25208 
L 429.339965 432.02965 
L 431.003854 430.807221 
L 432.667743 429.584791 
L 434.331632 428.362362 
L 435.995521 427.139932 
L 437.65941 425.917503 
L 439.323299 424.695073 
L 440.987188 423.472644 
L 442.651076 422.250214 
L 444.314965 421.027784 
L 445.978854 419.805355 
L 447.642743 418.582925 
L 449.306632 417.360496 
L 450.970521 416.138066 
L 452.63441 414.915637 
L 454.298299 413.693207 
L 455.962188 412.470778 
L 457.626076 411.248348 
L 459.289965 410.025919 
L 460.953854 408.803489 
L 462.617743 407.58106 
L 464.281632 406.35863 
L 465.945521 405.136201 
L 467.60941 403.913771 
L 469.273299 402.691342 
L 470.937188 401.468912 
L 472.601076 400.246482 
L 474.264965 399.024053 
L 475.928854 397.801623 
L 477.592743 396.579194 
L 479.256632 395.356764 
L 480.920521 394.134335 
L 482.58441 392.911905 
L 484.248299 391.689476 
L 485.912188 390.467046 
L 487.576076 389.244617 
L 489.239965 388.022187 
L 490.903854 386.799758 
L 492.567743 385.577328 
L 494.231632 384.354899 
L 495.895521 383.132469 
L 497.55941 381.91004 
L 499.223299 380.68761 
L 500.887187 379.46518 
L 502.551076 378.242751 
L 504.214965 377.020321 
L 505.878854 375.797892 
L 507.542743 374.575462 
L 509.206632 373.353033 
L 510.870521 372.130603 
L 512.53441 370.908174 
L 514.198299 369.685744 
L 515.862188 368.463315 
L 517.526076 367.240885 
L 519.189965 366.018456 
L 520.853854 364.796026 
L 522.517743 363.573597 
L 524.181632 362.351167 
L 525.845521 361.128738 
L 527.50941 359.906308 
L 529.173299 358.683878 
L 530.837188 357.461449 
L 532.501076 356.239019 
L 534.164965 355.01659 
L 535.828854 353.79416 
L 537.492743 352.571731 
L 539.156632 351.349301 
L 540.820521 350.126872 
L 542.48441 348.904442 
L 544.148299 347.682013 
L 545.812187 346.459583 
" clip-path="url(#p8b146f41ec)" style="fill: none; stroke: #d65f5f; stroke-width: 2.25; stroke-linecap: round"/>
   </g>
   <g id="patch_12">
    <path d="M 309.955938 563.94 
L 309.955938 330.57 
" style="fill: none; stroke: #262626; stroke-width: 1.25; stroke-linejoin: miter; stroke-linecap: square"/>
   </g>
   <g id="patch_13">
    <path d="M 309.955938 563.94 
L 557.043437 563.94 
" style="fill: none; stroke: #262626; stroke-width: 1.25; stroke-linejoin: miter; stroke-linecap: square"/>
   </g>
   <g id="text_30">
    <!-- dataset = IV -->
    <g style="fill: #262626" transform="translate(401.3125 324.57) scale(0.12 -0.12)">
     <defs>
      <path id="ArialMT-56" d="M 1803 0 
L 28 4581 
L 684 4581 
L 1875 1253 
Q 2019 853 2116 503 
Q 2222 878 2363 1253 
L 3600 4581 
L 4219 4581 
L 2425 0 
L 1803 0 
z
" transform="scale(0.015625)"/>
     </defs>
     <use xlink:href="#ArialMT-64"/>
     <use xlink:href="#ArialMT-61" transform="translate(55.615234 0)"/>
     <use xlink:href="#ArialMT-74" transform="translate(111.230469 0)"/>
     <use xlink:href="#ArialMT-61" transform="translate(139.013672 0)"/>
     <use xlink:href="#ArialMT-73" transform="translate(194.628906 0)"/>
     <use xlink:href="#ArialMT-65" transform="translate(244.628906 0)"/>
     <use xlink:href="#ArialMT-74" transform="translate(300.244141 0)"/>
     <use xlink:href="#ArialMT-20" transform="translate(328.027344 0)"/>
     <use xlink:href="#ArialMT-3d" transform="translate(355.810547 0)"/>
     <use xlink:href="#ArialMT-20" transform="translate(414.208984 0)"/>
     <use xlink:href="#ArialMT-49" transform="translate(441.992188 0)"/>
     <use xlink:href="#ArialMT-56" transform="translate(469.775391 0)"/>
    </g>
   </g>
  </g>
  <g id="text_31">
   <!-- 앤스콤 콰르텟: 요약 통계량은 같지만 분포는 완전히 다른 4개의 세계 -->
   <g style="fill: #262626" transform="translate(112.197063 17.50725) scale(0.144 -0.144)">
    <defs>
     <path id="ArialMT-c564" d="M 800 0 
L 800 4000 
L 4000 4000 
L 4000 0 
L 800 0 
z
M 900 100 
L 3900 100 
L 3900 3900 
L 900 3900 
L 900 100 
z
" transform="scale(0.015625)"/>
     <path id="ArialMT-c2a4" d="M 800 0 
L 800 4000 
L 4000 4000 
L 4000 0 
L 800 0 
z
M 900 100 
L 3900 100 
L 3900 3900 
L 900 3900 
L 900 100 
z
" transform="scale(0.015625)"/>
     <path id="ArialMT-cf64" d="M 800 0 
L 800 4000 
L 4000 4000 
L 4000 0 
L 800 0 
z
M 900 100 
L 3900 100 
L 3900 3900 
L 900 3900 
L 900 100 
z
" transform="scale(0.015625)"/>
     <path id="ArialMT-cf70" d="M 800 0 
L 800 4000 
L 4000 4000 
L 4000 0 
L 800 0 
z
M 900 100 
L 3900 100 
L 3900 3900 
L 900 3900 
L 900 100 
z
" transform="scale(0.015625)"/>
     <path id="ArialMT-b974" d="M 800 0 
L 800 4000 
L 4000 4000 
L 4000 0 
L 800 0 
z
M 900 100 
L 3900 100 
L 3900 3900 
L 900 3900 
L 900 100 
z
" transform="scale(0.015625)"/>
     <path id="ArialMT-d15f" d="M 800 0 
L 800 4000 
L 4000 4000 
L 4000 0 
L 800 0 
z
M 900 100 
L 3900 100 
L 3900 3900 
L 900 3900 
L 900 100 
z
" transform="scale(0.015625)"/>
     <path id="ArialMT-3a" d="M 578 2678 
L 578 3319 
L 1219 3319 
L 1219 2678 
L 578 2678 
z
M 578 0 
L 578 641 
L 1219 641 
L 1219 0 
L 578 0 
z
" transform="scale(0.015625)"/>
     <path id="ArialMT-c694" d="M 800 0 
L 800 4000 
L 4000 4000 
L 4000 0 
L 800 0 
z
M 900 100 
L 3900 100 
L 3900 3900 
L 900 3900 
L 900 100 
z
" transform="scale(0.015625)"/>
     <path id="ArialMT-c57d" d="M 800 0 
L 800 4000 
L 4000 4000 
L 4000 0 
L 800 0 
z
M 900 100 
L 3900 100 
L 3900 3900 
L 900 3900 
L 900 100 
z
" transform="scale(0.015625)"/>
     <path id="ArialMT-d1b5" d="M 800 0 
L 800 4000 
L 4000 4000 
L 4000 0 
L 800 0 
z
M 900 100 
L 3900 100 
L 3900 3900 
L 900 3900 
L 900 100 
z
" transform="scale(0.015625)"/>
     <path id="ArialMT-acc4" d="M 800 0 
L 800 4000 
L 4000 4000 
L 4000 0 
L 800 0 
z
M 900 100 
L 3900 100 
L 3900 3900 
L 900 3900 
L 900 100 
z
" transform="scale(0.015625)"/>
     <path id="ArialMT-b7c9" d="M 800 0 
L 800 4000 
L 4000 4000 
L 4000 0 
L 800 0 
z
M 900 100 
L 3900 100 
L 3900 3900 
L 900 3900 
L 900 100 
z
" transform="scale(0.015625)"/>
     <path id="ArialMT-c740" d="M 800 0 
L 800 4000 
L 4000 4000 
L 4000 0 
L 800 0 
z
M 900 100 
L 3900 100 
L 3900 3900 
L 900 3900 
L 900 100 
z
" transform="scale(0.015625)"/>
     <path id="ArialMT-ac19" d="M 800 0 
L 800 4000 
L 4000 4000 
L 4000 0 
L 800 0 
z
M 900 100 
L 3900 100 
L 3900 3900 
L 900 3900 
L 900 100 
z
" transform="scale(0.015625)"/>
     <path id="ArialMT-c9c0" d="M 800 0 
L 800 4000 
L 4000 4000 
L 4000 0 
L 800 0 
z
M 900 100 
L 3900 100 
L 3900 3900 
L 900 3900 
L 900 100 
z
" transform="scale(0.015625)"/>
     <path id="ArialMT-b9cc" d="M 800 0 
L 800 4000 
L 4000 4000 
L 4000 0 
L 800 0 
z
M 900 100 
L 3900 100 
L 3900 3900 
L 900 3900 
L 900 100 
z
" transform="scale(0.015625)"/>
     <path id="ArialMT-bd84" d="M 800 0 
L 800 4000 
L 4000 4000 
L 4000 0 
L 800 0 
z
M 900 100 
L 3900 100 
L 3900 3900 
L 900 3900 
L 900 100 
z
" transform="scale(0.015625)"/>
     <path id="ArialMT-d3ec" d="M 800 0 
L 800 4000 
L 4000 4000 
L 4000 0 
L 800 0 
z
M 900 100 
L 3900 100 
L 3900 3900 
L 900 3900 
L 900 100 
z
" transform="scale(0.015625)"/>
     <path id="ArialMT-b294" d="M 800 0 
L 800 4000 
L 4000 4000 
L 4000 0 
L 800 0 
z
M 900 100 
L 3900 100 
L 3900 3900 
L 900 3900 
L 900 100 
z
" transform="scale(0.015625)"/>
     <path id="ArialMT-c644" d="M 800 0 
L 800 4000 
L 4000 4000 
L 4000 0 
L 800 0 
z
M 900 100 
L 3900 100 
L 3900 3900 
L 900 3900 
L 900 100 
z
" transform="scale(0.015625)"/>
     <path id="ArialMT-c804" d="M 800 0 
L 800 4000 
L 4000 4000 
L 4000 0 
L 800 0 
z
M 900 100 
L 3900 100 
L 3900 3900 
L 900 3900 
L 900 100 
z
" transform="scale(0.015625)"/>
     <path id="ArialMT-d788" d="M 800 0 
L 800 4000 
L 4000 4000 
L 4000 0 
L 800 0 
z
M 900 100 
L 3900 100 
L 3900 3900 
L 900 3900 
L 900 100 
z
" transform="scale(0.015625)"/>
     <path id="ArialMT-b2e4" d="M 800 0 
L 800 4000 
L 4000 4000 
L 4000 0 
L 800 0 
z
M 900 100 
L 3900 100 
L 3900 3900 
L 900 3900 
L 900 100 
z
" transform="scale(0.015625)"/>
     <path id="ArialMT-b978" d="M 800 0 
L 800 4000 
L 4000 4000 
L 4000 0 
L 800 0 
z
M 900 100 
L 3900 100 
L 3900 3900 
L 900 3900 
L 900 100 
z
" transform="scale(0.015625)"/>
     <path id="ArialMT-ac1c" d="M 800 0 
L 800 4000 
L 4000 4000 
L 4000 0 
L 800 0 
z
M 900 100 
L 3900 100 
L 3900 3900 
L 900 3900 
L 900 100 
z
" transform="scale(0.015625)"/>
     <path id="ArialMT-c758" d="M 800 0 
L 800 4000 
L 4000 4000 
L 4000 0 
L 800 0 
z
M 900 100 
L 3900 100 
L 3900 3900 
L 900 3900 
L 900 100 
z
" transform="scale(0.015625)"/>
     <path id="ArialMT-c138" d="M 800 0 
L 800 4000 
L 4000 4000 
L 4000 0 
L 800 0 
z
M 900 100 
L 3900 100 
L 3900 3900 
L 900 3900 
L 900 100 
z
" transform="scale(0.015625)"/>
    </defs>
    <use xlink:href="#ArialMT-c564"/>
    <use xlink:href="#ArialMT-c2a4" transform="translate(75 0)"/>
    <use xlink:href="#ArialMT-cf64" transform="translate(150 0)"/>
    <use xlink:href="#ArialMT-20" transform="translate(225 0)"/>
    <use xlink:href="#ArialMT-cf70" transform="translate(252.783203 0)"/>
    <use xlink:href="#ArialMT-b974" transform="translate(327.783203 0)"/>
    <use xlink:href="#ArialMT-d15f" transform="translate(402.783203 0)"/>
    <use xlink:href="#ArialMT-3a" transform="translate(477.783203 0)"/>
    <use xlink:href="#ArialMT-20" transform="translate(505.566406 0)"/>
    <use xlink:href="#ArialMT-c694" transform="translate(533.349609 0)"/>
    <use xlink:href="#ArialMT-c57d" transform="translate(608.349609 0)"/>
    <use xlink:href="#ArialMT-20" transform="translate(683.349609 0)"/>
    <use xlink:href="#ArialMT-d1b5" transform="translate(711.132812 0)"/>
    <use xlink:href="#ArialMT-acc4" transform="translate(786.132812 0)"/>
    <use xlink:href="#ArialMT-b7c9" transform="translate(861.132812 0)"/>
    <use xlink:href="#ArialMT-c740" transform="translate(936.132812 0)"/>
    <use xlink:href="#ArialMT-20" transform="translate(1011.132812 0)"/>
    <use xlink:href="#ArialMT-ac19" transform="translate(1038.916016 0)"/>
    <use xlink:href="#ArialMT-c9c0" transform="translate(1113.916016 0)"/>
    <use xlink:href="#ArialMT-b9cc" transform="translate(1188.916016 0)"/>
    <use xlink:href="#ArialMT-20" transform="translate(1263.916016 0)"/>
    <use xlink:href="#ArialMT-bd84" transform="translate(1291.699219 0)"/>
    <use xlink:href="#ArialMT-d3ec" transform="translate(1366.699219 0)"/>
    <use xlink:href="#ArialMT-b294" transform="translate(1441.699219 0)"/>
    <use xlink:href="#ArialMT-20" transform="translate(1516.699219 0)"/>
    <use xlink:href="#ArialMT-c644" transform="translate(1544.482422 0)"/>
    <use xlink:href="#ArialMT-c804" transform="translate(1619.482422 0)"/>
    <use xlink:href="#ArialMT-d788" transform="translate(1694.482422 0)"/>
    <use xlink:href="#ArialMT-20" transform="translate(1769.482422 0)"/>
    <use xlink:href="#ArialMT-b2e4" transform="translate(1797.265625 0)"/>
    <use xlink:href="#ArialMT-b978" transform="translate(1872.265625 0)"/>
    <use xlink:href="#ArialMT-20" transform="translate(1947.265625 0)"/>
    <use xlink:href="#ArialMT-34" transform="translate(1975.048828 0)"/>
    <use xlink:href="#ArialMT-ac1c" transform="translate(2030.664062 0)"/>
    <use xlink:href="#ArialMT-c758" transform="translate(2105.664062 0)"/>
    <use xlink:href="#ArialMT-20" transform="translate(2180.664062 0)"/>
    <use xlink:href="#ArialMT-c138" transform="translate(2208.447266 0)"/>
    <use xlink:href="#ArialMT-acc4" transform="translate(2283.447266 0)"/>
   </g>
  </g>
 </g>
 <defs>
  <clipPath id="pfe5ca0e635">
   <rect x="43.908438" y="63.6" width="247.0875" height="233.37"/>
  </clipPath>
  <clipPath id="p832c8ac2e0">
   <rect x="309.955938" y="63.6" width="247.0875" height="233.37"/>
  </clipPath>
  <clipPath id="p92a56577d8">
   <rect x="43.908438" y="330.57" width="247.0875" height="233.37"/>
  </clipPath>
  <clipPath id="p8b146f41ec">
   <rect x="309.955938" y="330.57" width="247.0875" height="233.37"/>
  </clipPath>
 </defs>
</svg>
