<svg width="600" height="260" viewBox="0 0 600 260" xmlns="http://www.w3.org/2000/svg">
    <rect width="600" height="260" fill="#f8fafc" rx="10"/>
    <text x="300" y="30" font-family="sans-serif" font-size="20" font-weight="bold" fill="#334155" text-anchor="middle">다중 인자 범용 함수: 두 배열의 일괄 요소별 연산</text>
    
    <!-- Input Arrays -->
    <!-- Array C -->
    <text x="90" y="70" font-family="sans-serif" font-size="14" font-weight="bold" fill="#475569" text-anchor="middle">배열 c</text>
    <g transform="translate(45, 80)">
        <rect x="0" y="0" width="30" height="30" rx="4" fill="#bae6fd" stroke="#0284c7" stroke-width="2"/>
        <text x="15" y="20" font-family="sans-serif" font-size="14" font-weight="bold" fill="#0369a1" text-anchor="middle">1</text>
        <rect x="35" y="0" width="30" height="30" rx="4" fill="#bae6fd" stroke="#0284c7" stroke-width="2"/>
        <text x="50" y="20" font-family="sans-serif" font-size="14" font-weight="bold" fill="#0369a1" text-anchor="middle">4</text>
        <rect x="70" y="0" width="30" height="30" rx="4" fill="#bae6fd" stroke="#0284c7" stroke-width="2"/>
        <text x="85" y="20" font-family="sans-serif" font-size="14" font-weight="bold" fill="#0369a1" text-anchor="middle">9</text>
    </g>

    <!-- Array D -->
    <text x="90" y="145" font-family="sans-serif" font-size="14" font-weight="bold" fill="#475569" text-anchor="middle">배열 d</text>
    <g transform="translate(45, 155)">
        <rect x="0" y="0" width="30" height="30" rx="4" fill="#fef08a" stroke="#ca8a04" stroke-width="2"/>
        <text x="15" y="20" font-family="sans-serif" font-size="14" font-weight="bold" fill="#a16207" text-anchor="middle">2</text>
        <rect x="35" y="0" width="30" height="30" rx="4" fill="#fef08a" stroke="#ca8a04" stroke-width="2"/>
        <text x="50" y="20" font-family="sans-serif" font-size="14" font-weight="bold" fill="#a16207" text-anchor="middle">2</text>
        <rect x="70" y="0" width="30" height="30" rx="4" fill="#fef08a" stroke="#ca8a04" stroke-width="2"/>
        <text x="85" y="20" font-family="sans-serif" font-size="14" font-weight="bold" fill="#a16207" text-anchor="middle">2</text>
    </g>

    <!-- Double Conveyor inputs -->
    <path d="M 155 95 Q 230 95 240 120" fill="none" stroke="#475569" stroke-width="4" stroke-dasharray="6" marker-end="url(#arrow_conv)"/>
    <path d="M 155 170 Q 230 170 240 145" fill="none" stroke="#475569" stroke-width="4" stroke-dasharray="6" marker-end="url(#arrow_conv)"/>
    
    <!-- Magic Box -->
    <g transform="translate(250, 85)">
        <rect x="0" y="0" width="120" height="90" rx="10" fill="#64748b" stroke="#334155" stroke-width="3"/>
        <rect x="10" y="10" width="100" height="70" rx="5" fill="#1e293b"/>
        <text x="60" y="40" font-family="sans-serif" font-size="16" font-weight="bold" fill="#fbbf24" text-anchor="middle">거듭제곱 기계</text>
        <text x="60" y="65" font-family="monospace" font-size="14" font-weight="bold" fill="#38bdf8" text-anchor="middle">np.power()</text>
    </g>
    
    <path d="M 380 130 L 440 130" stroke="#475569" stroke-width="4" stroke-dasharray="8" marker-end="url(#arrow_conv)"/>
    <text x="410" y="120" font-family="sans-serif" font-size="14" font-weight="bold" fill="#dc2626" text-anchor="middle">출력</text>

    <!-- Output Array -->
    <text x="500" y="105" font-family="sans-serif" font-size="14" font-weight="bold" fill="#475569" text-anchor="middle">요소별 (c ^ d) 결과</text>
    <g transform="translate(450, 115)">
        <rect x="0" y="0" width="30" height="30" rx="4" fill="#bbf7d0" stroke="#16a34a" stroke-width="2"/>
        <text x="15" y="20" font-family="sans-serif" font-size="14" font-weight="bold" fill="#15803d" text-anchor="middle">1</text>
        <rect x="35" y="0" width="30" height="30" rx="4" fill="#bbf7d0" stroke="#16a34a" stroke-width="2"/>
        <text x="50" y="20" font-family="sans-serif" font-size="14" font-weight="bold" fill="#15803d" text-anchor="middle">16</text>
        <rect x="70" y="0" width="30" height="30" rx="4" fill="#bbf7d0" stroke="#16a34a" stroke-width="2"/>
        <text x="85" y="20" font-family="sans-serif" font-size="14" font-weight="bold" fill="#15803d" text-anchor="middle">81</text>
    </g>

    <defs>
        <marker id="arrow_conv" viewBox="0 0 10 10" refX="5" refY="5" markerWidth="6" markerHeight="6" orient="auto-start-reverse">
            <path d="M 0 0 L 10 5 L 0 10 z" fill="#475569"/>
        </marker>
    </defs>
</svg>
