<?xml version="1.0" encoding="utf-8" standalone="no"?>
<!DOCTYPE svg PUBLIC "-//W3C//DTD SVG 1.1//EN"
  "http://www.w3.org/Graphics/SVG/1.1/DTD/svg11.dtd">
<svg xmlns:xlink="http://www.w3.org/1999/xlink" width="606.979688pt" height="393.02625pt" viewBox="0 0 606.979688 393.02625" xmlns="http://www.w3.org/2000/svg" version="1.1">
 <metadata>
  <rdf:RDF xmlns:dc="http://purl.org/dc/elements/1.1/" xmlns:cc="http://creativecommons.org/ns#" xmlns:rdf="http://www.w3.org/1999/02/22-rdf-syntax-ns#">
   <cc:Work>
    <dc:type rdf:resource="http://purl.org/dc/dcmitype/StillImage"/>
    <dc:date>2026-05-22T02:33:53.217242</dc:date>
    <dc:format>image/svg+xml</dc:format>
    <dc:creator>
     <cc:Agent>
      <dc:title>Matplotlib v3.10.9, https://matplotlib.org/</dc:title>
     </cc:Agent>
    </dc:creator>
   </cc:Work>
  </rdf:RDF>
 </metadata>
 <defs>
  <style type="text/css">*{stroke-linejoin: round; stroke-linecap: butt}</style>
 </defs>
 <g id="figure_1">
  <g id="patch_1">
   <path d="M 0 393.02625 
L 606.979688 393.02625 
L 606.979688 0 
L 0 0 
z
" style="fill: #ffffff"/>
  </g>
  <g id="axes_1">
   <g id="patch_2">
    <path d="M 41.779688 355.704375 
L 599.779688 355.704375 
L 599.779688 23.064375 
L 41.779688 23.064375 
z
" style="fill: #ffffff"/>
   </g>
   <g id="FillBetweenPolyCollection_1">
    <defs>
     <path id="m3ab6d79413" d="M 67.143324 -37.321875 
L 67.143324 -37.321875 
L 123.50696 -37.321875 
L 123.50696 -37.321875 
L 179.870597 -37.321875 
L 179.870597 -37.321875 
L 236.234233 -37.321875 
L 236.234233 -37.321875 
L 292.597869 -37.321875 
L 292.597869 -37.321875 
L 348.961506 -37.321875 
L 348.961506 -37.321875 
L 405.325142 -37.321875 
L 405.325142 -37.321875 
L 461.688778 -37.321875 
L 461.688778 -37.321875 
L 518.052415 -37.321875 
L 518.052415 -37.321875 
L 574.416051 -37.321875 
L 574.416051 -37.321875 
L 574.416051 -61.673587 
L 574.416051 -61.673587 
L 574.416051 -61.673587 
L 518.052415 -61.673587 
L 518.052415 -114.435628 
L 461.688778 -114.435628 
L 461.688778 -114.435628 
L 405.325142 -114.435628 
L 405.325142 -61.673587 
L 348.961506 -61.673587 
L 348.961506 -37.321875 
L 292.597869 -37.321875 
L 292.597869 -37.321875 
L 236.234233 -37.321875 
L 236.234233 -37.321875 
L 179.870597 -37.321875 
L 179.870597 -37.321875 
L 123.50696 -37.321875 
L 123.50696 -37.321875 
L 67.143324 -37.321875 
z
" style="stroke: #50b131"/>
    </defs>
    <g clip-path="url(#pfe8c0e71c0)">
     <use xlink:href="#m3ab6d79413" x="0" y="393.02625" style="fill: #50b131; fill-opacity: 0.4; stroke: #50b131"/>
    </g>
   </g>
   <g id="FillBetweenPolyCollection_2">
    <defs>
     <path id="md0aba86fb7" d="M 67.143324 -37.321875 
L 67.143324 -37.321875 
L 123.50696 -37.321875 
L 123.50696 -37.321875 
L 179.870597 -37.321875 
L 179.870597 -37.321875 
L 236.234233 -37.321875 
L 236.234233 -37.321875 
L 292.597869 -37.321875 
L 292.597869 -37.321875 
L 348.961506 -37.321875 
L 348.961506 -37.321875 
L 405.325142 -37.321875 
L 405.325142 -37.321875 
L 461.688778 -37.321875 
L 461.688778 -37.321875 
L 518.052415 -37.321875 
L 518.052415 -37.321875 
L 574.416051 -37.321875 
L 574.416051 -37.321875 
L 574.416051 -37.321875 
L 574.416051 -37.321875 
L 574.416051 -37.321875 
L 518.052415 -37.321875 
L 518.052415 -37.321875 
L 461.688778 -37.321875 
L 461.688778 -45.439112 
L 405.325142 -45.439112 
L 405.325142 -138.78734 
L 348.961506 -138.78734 
L 348.961506 -106.318391 
L 292.597869 -106.318391 
L 292.597869 -61.673587 
L 236.234233 -61.673587 
L 236.234233 -37.321875 
L 179.870597 -37.321875 
L 179.870597 -37.321875 
L 123.50696 -37.321875 
L 123.50696 -37.321875 
L 67.143324 -37.321875 
z
" style="stroke: #bb9832"/>
    </defs>
    <g clip-path="url(#pfe8c0e71c0)">
     <use xlink:href="#md0aba86fb7" x="0" y="393.02625" style="fill: #bb9832; fill-opacity: 0.4; stroke: #bb9832"/>
    </g>
   </g>
   <g id="FillBetweenPolyCollection_3">
    <defs>
     <path id="m468bfe053b" d="M 67.143324 -215.901093 
L 67.143324 -37.321875 
L 123.50696 -37.321875 
L 123.50696 -37.321875 
L 179.870597 -37.321875 
L 179.870597 -37.321875 
L 236.234233 -37.321875 
L 236.234233 -37.321875 
L 292.597869 -37.321875 
L 292.597869 -37.321875 
L 348.961506 -37.321875 
L 348.961506 -37.321875 
L 405.325142 -37.321875 
L 405.325142 -37.321875 
L 461.688778 -37.321875 
L 461.688778 -37.321875 
L 518.052415 -37.321875 
L 518.052415 -37.321875 
L 574.416051 -37.321875 
L 574.416051 -37.321875 
L 574.416051 -37.321875 
L 574.416051 -37.321875 
L 574.416051 -37.321875 
L 518.052415 -37.321875 
L 518.052415 -37.321875 
L 461.688778 -37.321875 
L 461.688778 -37.321875 
L 405.325142 -37.321875 
L 405.325142 -37.321875 
L 348.961506 -37.321875 
L 348.961506 -37.321875 
L 292.597869 -37.321875 
L 292.597869 -37.321875 
L 236.234233 -37.321875 
L 236.234233 -37.321875 
L 179.870597 -37.321875 
L 179.870597 -61.673587 
L 123.50696 -61.673587 
L 123.50696 -215.901093 
L 67.143324 -215.901093 
z
" style="stroke: #f77189"/>
    </defs>
    <g clip-path="url(#pfe8c0e71c0)">
     <use xlink:href="#m468bfe053b" x="0" y="393.02625" style="fill: #f77189; fill-opacity: 0.4; stroke: #f77189"/>
    </g>
   </g>
   <g id="matplotlib.axis_1">
    <g id="xtick_1">
     <g id="line2d_1">
      <defs>
       <path id="m86dab5b642" d="M 0 0 
L 0 3.5 
" style="stroke: #000000; stroke-width: 0.8"/>
      </defs>
      <g>
       <use xlink:href="#m86dab5b642" x="67.143324" y="355.704375" style="stroke: #000000; stroke-width: 0.8"/>
      </g>
     </g>
     <g id="text_1">
      <!-- 1 -->
      <g transform="translate(63.743324 370.545) scale(0.1 -0.1)">
       <defs>
        <path id="AppleGothic-31" d="M 2342 4774 
L 2752 4774 
L 2752 0 
L 2285 0 
L 2285 3526 
L 1158 3526 
L 1158 3885 
L 1414 3885 
Q 1990 3885 2214 4205 
Q 2342 4410 2342 4774 
z
" transform="scale(0.015625)"/>
       </defs>
       <use xlink:href="#AppleGothic-31"/>
      </g>
     </g>
    </g>
    <g id="xtick_2">
     <g id="line2d_2">
      <g>
       <use xlink:href="#m86dab5b642" x="153.121752" y="355.704375" style="stroke: #000000; stroke-width: 0.8"/>
      </g>
     </g>
     <g id="text_2">
      <!-- 2 -->
      <g transform="translate(149.721752 370.545) scale(0.1 -0.1)">
       <defs>
        <path id="AppleGothic-32" d="M 1101 429 
L 3942 429 
L 3942 0 
L 653 0 
L 653 205 
Q 653 1018 1344 1664 
Q 1670 1894 1990 2124 
Q 2310 2355 2637 2592 
Q 3334 3098 3334 3597 
Q 3334 3994 3014 4218 
Q 2867 4326 2694 4377 
Q 2522 4429 2317 4429 
Q 2016 4429 1741 4352 
Q 1325 4224 883 3910 
L 883 4435 
Q 1325 4659 1667 4758 
Q 2010 4858 2317 4858 
Q 2963 4858 3405 4525 
Q 3840 4198 3840 3622 
Q 3840 2995 3168 2438 
Q 2848 2214 2531 2000 
Q 2214 1786 1894 1562 
Q 1178 1024 1101 429 
z
" transform="scale(0.015625)"/>
       </defs>
       <use xlink:href="#AppleGothic-32"/>
      </g>
     </g>
    </g>
    <g id="xtick_3">
     <g id="line2d_3">
      <g>
       <use xlink:href="#m86dab5b642" x="239.100181" y="355.704375" style="stroke: #000000; stroke-width: 0.8"/>
      </g>
     </g>
     <g id="text_3">
      <!-- 3 -->
      <g transform="translate(235.700181 370.545) scale(0.1 -0.1)">
       <defs>
        <path id="AppleGothic-33" d="M 550 333 
L 550 870 
Q 883 621 1235 483 
Q 1587 346 1971 346 
Q 2522 346 2861 666 
Q 3219 992 3219 1421 
Q 3219 1869 2842 2099 
Q 2515 2304 1965 2304 
L 992 2304 
L 992 2701 
L 1658 2701 
Q 2298 2701 2662 2928 
Q 3027 3155 3027 3584 
Q 3027 3936 2752 4173 
Q 2458 4429 1978 4429 
Q 1786 4429 1597 4393 
Q 1408 4358 1222 4282 
Q 890 4141 531 3872 
L 531 4422 
Q 736 4531 912 4608 
Q 1088 4685 1254 4736 
Q 1626 4858 2022 4858 
Q 2650 4858 3066 4531 
Q 3488 4211 3488 3642 
Q 3488 3168 3168 2861 
Q 2976 2675 2643 2554 
Q 2874 2522 3053 2448 
Q 3232 2374 3366 2266 
Q 3718 1971 3718 1434 
Q 3718 813 3219 365 
Q 2714 -83 1965 -83 
Q 1549 -83 1126 70 
Q 1024 102 880 166 
Q 736 230 550 333 
z
" transform="scale(0.015625)"/>
       </defs>
       <use xlink:href="#AppleGothic-33"/>
      </g>
     </g>
    </g>
    <g id="xtick_4">
     <g id="line2d_4">
      <g>
       <use xlink:href="#m86dab5b642" x="325.078609" y="355.704375" style="stroke: #000000; stroke-width: 0.8"/>
      </g>
     </g>
     <g id="text_4">
      <!-- 4 -->
      <g transform="translate(321.678609 370.545) scale(0.1 -0.1)">
       <defs>
        <path id="AppleGothic-34" d="M 2662 4774 
L 3130 4774 
L 3130 1811 
L 4000 1811 
L 4000 1382 
L 3130 1382 
L 3130 0 
L 2662 0 
L 2662 1382 
L 352 1382 
L 352 1811 
L 2662 4774 
z
M 2662 1811 
L 2662 4166 
L 838 1811 
L 2662 1811 
z
" transform="scale(0.015625)"/>
       </defs>
       <use xlink:href="#AppleGothic-34"/>
      </g>
     </g>
    </g>
    <g id="xtick_5">
     <g id="line2d_5">
      <g>
       <use xlink:href="#m86dab5b642" x="411.057037" y="355.704375" style="stroke: #000000; stroke-width: 0.8"/>
      </g>
     </g>
     <g id="text_5">
      <!-- 5 -->
      <g transform="translate(407.657037 370.545) scale(0.1 -0.1)">
       <defs>
        <path id="AppleGothic-35" d="M 621 4768 
L 3488 4768 
L 3488 4339 
L 1088 4339 
L 1088 2707 
Q 1184 2771 1293 2819 
Q 1402 2867 1510 2912 
Q 1862 3040 2259 3040 
Q 2989 3040 3424 2605 
Q 3827 2202 3827 1581 
Q 3827 870 3296 397 
Q 2765 -83 2010 -83 
Q 1651 -83 1248 45 
Q 1158 77 1001 137 
Q 845 198 621 301 
L 621 838 
Q 928 640 1203 525 
Q 1408 435 1613 390 
Q 1818 346 2010 346 
Q 2528 346 2906 666 
Q 3322 1011 3322 1536 
Q 3322 1990 3021 2291 
Q 2701 2611 2144 2611 
Q 1856 2611 1587 2528 
Q 1318 2445 1088 2272 
L 621 2272 
L 621 4768 
z
" transform="scale(0.015625)"/>
       </defs>
       <use xlink:href="#AppleGothic-35"/>
      </g>
     </g>
    </g>
    <g id="xtick_6">
     <g id="line2d_6">
      <g>
       <use xlink:href="#m86dab5b642" x="497.035466" y="355.704375" style="stroke: #000000; stroke-width: 0.8"/>
      </g>
     </g>
     <g id="text_6">
      <!-- 6 -->
      <g transform="translate(493.635466 370.545) scale(0.1 -0.1)">
       <defs>
        <path id="AppleGothic-36" d="M 3699 4557 
L 3699 4013 
Q 3584 4102 3475 4163 
Q 3366 4224 3258 4275 
Q 3085 4358 2918 4393 
Q 2752 4429 2586 4429 
Q 2470 4429 2352 4409 
Q 2234 4390 2118 4339 
Q 1670 4154 1395 3738 
Q 1011 3149 1011 2189 
Q 1312 2490 1568 2656 
Q 2022 2931 2534 2931 
Q 3162 2931 3584 2566 
Q 4038 2163 4038 1491 
Q 4038 806 3558 358 
Q 3078 -83 2394 -83 
Q 1670 -83 1146 454 
Q 518 1088 518 2253 
Q 518 3411 1120 4134 
Q 1715 4858 2605 4858 
Q 2938 4858 3226 4762 
Q 3309 4730 3427 4682 
Q 3546 4634 3699 4557 
z
M 1062 1702 
Q 1152 1152 1498 768 
Q 1882 346 2419 346 
Q 2899 346 3213 659 
Q 3539 973 3539 1459 
Q 3539 1920 3226 2214 
Q 2918 2502 2496 2502 
Q 1990 2502 1542 2176 
Q 1414 2080 1292 1965 
Q 1171 1850 1062 1702 
z
" transform="scale(0.015625)"/>
       </defs>
       <use xlink:href="#AppleGothic-36"/>
      </g>
     </g>
    </g>
    <g id="xtick_7">
     <g id="line2d_7">
      <g>
       <use xlink:href="#m86dab5b642" x="583.013894" y="355.704375" style="stroke: #000000; stroke-width: 0.8"/>
      </g>
     </g>
     <g id="text_7">
      <!-- 7 -->
      <g transform="translate(579.613894 370.545) scale(0.1 -0.1)">
       <defs>
        <path id="AppleGothic-37" d="M 595 4774 
L 3802 4774 
L 3802 4410 
L 1734 0 
L 1235 0 
L 3277 4352 
L 595 4352 
L 595 4774 
z
" transform="scale(0.015625)"/>
       </defs>
       <use xlink:href="#AppleGothic-37"/>
      </g>
     </g>
    </g>
    <g id="text_8">
     <!-- 꽃잎 길이 (cm) -->
     <g transform="translate(285.519531 384.105937) scale(0.1 -0.1)">
      <defs>
       <path id="AppleGothic-af43" d="M 5555 -96 
Q 5555 -96 5434 -250 
Q 5370 -320 5334 -368 
Q 5299 -416 5286 -442 
Q 5178 -422 5091 -406 
Q 5005 -390 4934 -371 
Q 4723 -307 4515 -211 
Q 4307 -115 4096 13 
Q 3930 115 3782 240 
Q 3635 365 3507 512 
Q 3462 563 3414 627 
Q 3366 691 3315 768 
Q 3251 691 3203 627 
Q 3155 563 3110 512 
Q 2982 358 2848 236 
Q 2714 115 2560 9 
Q 2406 -96 2220 -182 
Q 2035 -269 1798 -346 
Q 1728 -371 1625 -396 
Q 1523 -422 1395 -454 
Q 1280 -346 1210 -288 
Q 1171 -256 1145 -224 
Q 1120 -192 1101 -173 
L 1062 -134 
L 1075 -122 
Q 1152 -109 1209 -102 
Q 1267 -96 1318 -90 
Q 1606 -38 1846 51 
Q 2086 141 2298 262 
Q 2739 525 2976 870 
Q 3014 922 3046 998 
Q 3078 1075 3110 1165 
L 2214 1171 
L 1248 1146 
L 1248 1478 
Q 1690 1466 2224 1462 
Q 2758 1459 3264 1459 
Q 3514 1459 3779 1462 
Q 4045 1466 4310 1469 
Q 4576 1472 4832 1478 
Q 5088 1485 5312 1491 
L 5312 1152 
Q 5229 1158 5117 1158 
Q 5005 1158 4858 1165 
Q 4710 1171 4608 1171 
Q 4506 1171 4454 1171 
L 3501 1171 
Q 3526 1107 3552 1056 
Q 3578 1005 3603 960 
Q 3738 736 3994 525 
Q 4422 192 5018 26 
Q 5120 0 5248 -25 
Q 5376 -51 5536 -77 
L 5555 -96 
z
M 4109 1824 
Q 3930 1837 3715 1843 
Q 3501 1850 3296 1850 
Q 3021 1850 2656 1830 
Q 2624 1830 2576 1827 
Q 2528 1824 2477 1818 
L 2477 2170 
Q 2682 2150 2896 2144 
Q 3110 2138 3296 2138 
Q 3590 2138 3779 2144 
Q 3968 2150 4109 2163 
L 4109 1824 
z
M 6029 2522 
Q 5958 2522 5801 2522 
Q 5645 2522 5395 2528 
Q 5152 2534 4867 2534 
Q 4582 2534 4256 2541 
Q 3930 2547 3702 2550 
Q 3475 2554 3328 2554 
L 378 2534 
L 378 2886 
Q 576 2886 867 2880 
Q 1158 2874 1562 2861 
Q 1965 2848 2259 2841 
Q 2554 2835 2758 2835 
L 3053 2835 
L 3053 3571 
L 3040 3859 
L 3168 3859 
Q 3507 3859 3507 3789 
Q 3507 3776 3488 3705 
Q 3469 3635 3469 3584 
L 3462 2842 
L 6029 2874 
L 6029 2522 
z
M 2509 4896 
Q 2509 4723 2489 4499 
Q 2470 4275 2413 3910 
Q 2381 3718 2304 3418 
Q 2291 3366 2278 3308 
Q 2266 3251 2246 3174 
L 1830 3238 
Q 1875 3315 1913 3475 
Q 1952 3635 1997 3866 
Q 2074 4314 2074 4538 
L 896 4538 
L 896 4902 
L 1670 4883 
L 2509 4896 
z
M 5261 4877 
Q 5248 4698 5242 4602 
Q 5229 4435 5203 4256 
Q 5178 4077 5133 3891 
Q 5107 3763 5075 3644 
Q 5043 3526 5005 3398 
L 4928 3168 
L 4512 3245 
Q 4538 3322 4550 3360 
Q 4621 3565 4662 3689 
Q 4704 3814 4717 3866 
Q 4749 4000 4768 4121 
Q 4787 4243 4800 4365 
Q 4806 4397 4806 4441 
Q 4806 4486 4813 4538 
L 3962 4550 
L 3072 4538 
L 3072 4922 
Q 3322 4909 3626 4896 
Q 3930 4883 4205 4883 
L 5261 4877 
z
" transform="scale(0.015625)"/>
       <path id="AppleGothic-c78e" d="M 3258 3418 
Q 3258 3827 2976 4070 
Q 2694 4314 2246 4314 
Q 1741 4314 1449 4077 
Q 1158 3840 1158 3443 
Q 1158 3002 1491 2790 
Q 1786 2605 2240 2605 
Q 2669 2605 2950 2810 
Q 3258 3040 3258 3418 
z
M 5664 -358 
Q 5504 -352 5257 -352 
Q 5011 -352 4666 -346 
Q 4326 -339 4038 -339 
Q 3750 -339 3501 -339 
Q 3078 -339 2534 -358 
Q 2253 -371 1981 -380 
Q 1709 -390 1440 -403 
L 1440 -6 
Q 1472 -6 1542 -6 
Q 1613 -6 1722 -13 
Q 1830 -19 1894 -22 
Q 1958 -26 1984 -26 
L 2611 -26 
Q 2611 102 2502 448 
Q 2387 781 2387 851 
Q 2387 883 2518 892 
Q 2650 902 2790 928 
Q 2893 928 2893 864 
Q 2893 774 2905 659 
Q 2918 544 2944 397 
Q 3002 115 3059 -6 
L 3552 -26 
L 4077 -6 
Q 4141 186 4198 474 
Q 4230 621 4246 742 
Q 4262 864 4262 954 
Q 4346 954 4550 915 
Q 4742 864 4742 813 
Q 4742 787 4717 742 
Q 4666 653 4666 640 
Q 4666 550 4550 243 
Q 4493 77 4493 -6 
L 5114 6 
Q 5318 6 5452 12 
Q 5587 19 5664 32 
L 5664 -358 
z
M 5485 1222 
Q 5472 1222 5379 1225 
Q 5286 1229 5101 1235 
Q 4915 1242 4739 1245 
Q 4563 1248 4390 1248 
L 1786 1197 
L 1786 1574 
Q 2093 1568 2518 1565 
Q 2944 1562 3590 1562 
Q 3859 1562 4089 1562 
Q 4320 1562 4525 1568 
Q 4730 1574 4957 1580 
Q 5184 1587 5440 1594 
L 5485 1594 
L 5485 1222 
z
M 3680 3405 
Q 3680 2918 3264 2566 
Q 2861 2227 2246 2227 
Q 1933 2227 1673 2297 
Q 1414 2368 1210 2515 
Q 749 2848 749 3405 
Q 749 3686 848 3920 
Q 947 4154 1139 4320 
Q 1331 4486 1609 4579 
Q 1888 4672 2246 4672 
Q 2912 4672 3309 4294 
Q 3680 3942 3680 3405 
z
M 5408 5107 
Q 5408 5088 5379 4998 
Q 5350 4909 5350 4838 
L 5350 3443 
L 5350 2445 
Q 5357 2291 5357 2166 
Q 5357 2042 5363 1952 
L 4896 1926 
Q 4909 2112 4918 2467 
Q 4928 2822 4928 3309 
Q 4928 3699 4928 3990 
Q 4928 4282 4922 4474 
Q 4922 4864 4902 5190 
L 4934 5190 
Q 5408 5190 5408 5107 
z
" transform="scale(0.015625)"/>
       <path id="AppleGothic-20" transform="scale(0.015625)"/>
       <path id="AppleGothic-ae38" d="M 5498 -493 
Q 5344 -486 5209 -483 
Q 5075 -480 4966 -480 
Q 4122 -461 3693 -461 
L 1485 -474 
L 1485 909 
L 3482 896 
L 4922 909 
L 4922 1498 
L 1446 1504 
L 1446 1907 
Q 1792 1894 2256 1881 
Q 2720 1869 3373 1869 
L 5357 1875 
L 5357 570 
Q 5197 576 4963 576 
Q 4730 576 4410 582 
Q 4102 589 3865 589 
Q 3629 589 3462 589 
L 1933 576 
L 1933 -96 
Q 2042 -102 2211 -102 
Q 2381 -102 2618 -109 
Q 2854 -115 3056 -115 
Q 3258 -115 3430 -115 
Q 3840 -115 4157 -115 
Q 4474 -115 4691 -109 
Q 4915 -102 5116 -99 
Q 5318 -96 5498 -83 
L 5498 -493 
z
M 3814 4717 
Q 3795 4634 3776 4550 
Q 3757 4467 3744 4390 
Q 3680 4179 3590 3980 
Q 3501 3782 3373 3590 
Q 3027 3053 2458 2637 
Q 2221 2470 1952 2323 
Q 1683 2176 1376 2048 
Q 1274 2010 1146 1965 
Q 1018 1920 858 1869 
L 550 2202 
L 570 2227 
Q 717 2259 835 2288 
Q 954 2317 1050 2349 
Q 1632 2554 2131 2874 
Q 2579 3168 2880 3558 
Q 3104 3827 3232 4134 
Q 3251 4192 3270 4249 
Q 3290 4307 3315 4371 
L 2112 4384 
Q 1798 4384 1456 4377 
Q 1114 4371 826 4358 
L 838 4736 
Q 928 4730 1056 4730 
Q 1184 4730 1357 4723 
Q 1530 4717 1664 4717 
Q 1798 4717 1901 4717 
L 3814 4717 
z
M 5421 5082 
Q 5421 5069 5414 5033 
Q 5408 4998 5398 4956 
Q 5389 4915 5382 4873 
Q 5376 4832 5376 4806 
L 5370 2906 
Q 5370 2656 5370 2470 
Q 5370 2285 5382 2170 
L 4915 2157 
Q 4928 2381 4934 2768 
Q 4941 3155 4941 3667 
Q 4941 4051 4941 4310 
Q 4941 4570 4934 4710 
Q 4934 4998 4915 5190 
L 5318 5165 
Q 5421 5165 5421 5082 
z
" transform="scale(0.015625)"/>
       <path id="AppleGothic-c774" d="M 3226 2534 
Q 3226 3309 2899 3725 
Q 2611 4090 2157 4090 
Q 1683 4090 1414 3690 
Q 1146 3290 1146 2534 
Q 1146 1811 1440 1382 
Q 1741 954 2240 954 
Q 2758 954 3021 1446 
Q 3226 1856 3226 2534 
z
M 5446 5082 
Q 5446 5062 5427 4982 
Q 5408 4902 5408 4832 
L 5434 -538 
L 4941 -589 
L 4960 2259 
Q 4960 3552 4941 4070 
Q 4934 4326 4931 4604 
Q 4928 4883 4915 5190 
L 5094 5197 
Q 5242 5197 5344 5174 
Q 5446 5152 5446 5082 
z
M 3686 2547 
Q 3686 2125 3612 1785 
Q 3539 1446 3379 1203 
Q 2995 582 2176 582 
Q 1408 582 1018 1203 
Q 678 1734 678 2560 
Q 678 3379 1050 3898 
Q 1453 4461 2170 4461 
Q 2912 4461 3309 3910 
Q 3686 3411 3686 2547 
z
" transform="scale(0.015625)"/>
       <path id="AppleGothic-28" d="M 2227 5261 
L 2650 5261 
Q 2342 4768 2169 4473 
Q 1997 4179 1958 4083 
Q 1606 3283 1606 2272 
Q 1606 1587 1754 1018 
Q 1882 570 2138 102 
Q 2150 70 2275 -131 
Q 2400 -333 2630 -717 
L 2227 -717 
Q 2099 -531 1980 -355 
Q 1862 -179 1734 0 
Q 1581 243 1469 483 
Q 1357 723 1274 954 
Q 1069 1587 1069 2272 
Q 1069 2963 1261 3558 
Q 1338 3789 1450 4022 
Q 1562 4256 1715 4499 
Q 1843 4691 1971 4880 
Q 2099 5069 2227 5261 
z
" transform="scale(0.015625)"/>
       <path id="AppleGothic-63" d="M 3085 3123 
L 3085 2522 
Q 2726 2861 2349 3008 
Q 2240 3053 2125 3069 
Q 2010 3085 1894 3085 
Q 1363 3085 1024 2688 
Q 685 2278 685 1715 
Q 685 1139 1037 730 
Q 1389 339 1920 339 
Q 2253 339 2528 483 
Q 2803 627 3085 915 
L 3085 307 
Q 2746 96 2470 6 
Q 2195 -83 1914 -83 
Q 1197 -83 685 429 
Q 186 960 186 1709 
Q 186 2445 678 2976 
Q 1178 3501 1920 3501 
Q 2298 3501 2624 3373 
Q 2816 3302 3085 3123 
z
" transform="scale(0.015625)"/>
       <path id="AppleGothic-6d" d="M 5389 2195 
L 5389 0 
L 4922 0 
L 4922 2304 
Q 4922 2669 4672 2893 
Q 4461 3085 4173 3085 
Q 3744 3085 3405 2688 
Q 3072 2298 3072 1722 
L 3072 0 
L 2605 0 
L 2605 2304 
Q 2605 2650 2368 2861 
Q 2144 3085 1856 3085 
Q 1440 3085 1114 2714 
Q 755 2304 755 1702 
L 755 0 
L 288 0 
L 288 3424 
L 723 3424 
L 742 2880 
Q 928 3181 1274 3354 
Q 1581 3501 1894 3501 
Q 2381 3501 2714 3219 
Q 2957 3008 3021 2797 
Q 3149 3034 3386 3226 
Q 3757 3501 4205 3501 
Q 4749 3501 5050 3174 
Q 5389 2803 5389 2195 
z
" transform="scale(0.015625)"/>
       <path id="AppleGothic-29" d="M 2221 2272 
Q 2221 1587 2016 960 
Q 1862 499 1555 6 
Q 1427 -179 1305 -355 
Q 1184 -531 1062 -717 
L 659 -717 
Q 781 -512 902 -310 
Q 1024 -109 1152 96 
Q 1280 333 1376 557 
Q 1472 781 1530 1005 
Q 1683 1562 1683 2272 
Q 1683 2650 1641 2973 
Q 1600 3296 1517 3584 
Q 1459 3802 1356 4029 
Q 1254 4256 1120 4499 
Q 992 4691 873 4880 
Q 755 5069 640 5261 
L 1062 5261 
Q 1190 5069 1315 4880 
Q 1440 4691 1568 4506 
Q 1722 4256 1837 4022 
Q 1952 3789 2022 3565 
Q 2221 2976 2221 2272 
z
" transform="scale(0.015625)"/>
      </defs>
      <use xlink:href="#AppleGothic-af43"/>
      <use xlink:href="#AppleGothic-c78e" transform="translate(99.999985 0)"/>
      <use xlink:href="#AppleGothic-20" transform="translate(199.999969 0)"/>
      <use xlink:href="#AppleGothic-ae38" transform="translate(231.999954 0)"/>
      <use xlink:href="#AppleGothic-c774" transform="translate(331.999939 0)"/>
      <use xlink:href="#AppleGothic-20" transform="translate(431.999924 0)"/>
      <use xlink:href="#AppleGothic-28" transform="translate(463.999908 0)"/>
      <use xlink:href="#AppleGothic-63" transform="translate(513.999893 0)"/>
      <use xlink:href="#AppleGothic-6d" transform="translate(565.899887 0)"/>
      <use xlink:href="#AppleGothic-29" transform="translate(655.199875 0)"/>
     </g>
    </g>
   </g>
   <g id="matplotlib.axis_2">
    <g id="ytick_1">
     <g id="line2d_8">
      <defs>
       <path id="ma2e3c74ebe" d="M 0 0 
L -3.5 0 
" style="stroke: #000000; stroke-width: 0.8"/>
      </defs>
      <g>
       <use xlink:href="#ma2e3c74ebe" x="41.779688" y="355.704375" style="stroke: #000000; stroke-width: 0.8"/>
      </g>
     </g>
     <g id="text_9">
      <!-- 0 -->
      <g transform="translate(27.979688 359.624687) scale(0.1 -0.1)">
       <defs>
        <path id="AppleGothic-30" d="M 2227 -83 
Q 1414 -83 934 576 
Q 461 1229 461 2387 
Q 461 3552 973 4218 
Q 1453 4858 2221 4858 
Q 3027 4858 3482 4173 
Q 3955 3494 3955 2394 
Q 3955 1248 3462 582 
Q 2976 -83 2227 -83 
z
M 2176 346 
Q 2861 346 3200 992 
Q 3462 1536 3462 2400 
Q 3462 3315 3162 3859 
Q 2822 4429 2214 4429 
Q 1574 4429 1248 3821 
Q 960 3283 960 2374 
Q 960 1478 1248 941 
Q 1574 346 2176 346 
z
" transform="scale(0.015625)"/>
       </defs>
       <use xlink:href="#AppleGothic-30"/>
      </g>
     </g>
    </g>
    <g id="ytick_2">
     <g id="line2d_9">
      <g>
       <use xlink:href="#ma2e3c74ebe" x="41.779688" y="315.118189" style="stroke: #000000; stroke-width: 0.8"/>
      </g>
     </g>
     <g id="text_10">
      <!-- 10 -->
      <g transform="translate(21.179688 319.038502) scale(0.1 -0.1)">
       <use xlink:href="#AppleGothic-31"/>
       <use xlink:href="#AppleGothic-30" transform="translate(67.999985 0)"/>
      </g>
     </g>
    </g>
    <g id="ytick_3">
     <g id="line2d_10">
      <g>
       <use xlink:href="#ma2e3c74ebe" x="41.779688" y="274.532003" style="stroke: #000000; stroke-width: 0.8"/>
      </g>
     </g>
     <g id="text_11">
      <!-- 20 -->
      <g transform="translate(21.179688 278.452316) scale(0.1 -0.1)">
       <use xlink:href="#AppleGothic-32"/>
       <use xlink:href="#AppleGothic-30" transform="translate(67.999985 0)"/>
      </g>
     </g>
    </g>
    <g id="ytick_4">
     <g id="line2d_11">
      <g>
       <use xlink:href="#ma2e3c74ebe" x="41.779688" y="233.945817" style="stroke: #000000; stroke-width: 0.8"/>
      </g>
     </g>
     <g id="text_12">
      <!-- 30 -->
      <g transform="translate(21.179688 237.86613) scale(0.1 -0.1)">
       <use xlink:href="#AppleGothic-33"/>
       <use xlink:href="#AppleGothic-30" transform="translate(67.999985 0)"/>
      </g>
     </g>
    </g>
    <g id="ytick_5">
     <g id="line2d_12">
      <g>
       <use xlink:href="#ma2e3c74ebe" x="41.779688" y="193.359632" style="stroke: #000000; stroke-width: 0.8"/>
      </g>
     </g>
     <g id="text_13">
      <!-- 40 -->
      <g transform="translate(21.179688 197.279944) scale(0.1 -0.1)">
       <use xlink:href="#AppleGothic-34"/>
       <use xlink:href="#AppleGothic-30" transform="translate(67.999985 0)"/>
      </g>
     </g>
    </g>
    <g id="ytick_6">
     <g id="line2d_13">
      <g>
       <use xlink:href="#ma2e3c74ebe" x="41.779688" y="152.773446" style="stroke: #000000; stroke-width: 0.8"/>
      </g>
     </g>
     <g id="text_14">
      <!-- 50 -->
      <g transform="translate(21.179688 156.693758) scale(0.1 -0.1)">
       <use xlink:href="#AppleGothic-35"/>
       <use xlink:href="#AppleGothic-30" transform="translate(67.999985 0)"/>
      </g>
     </g>
    </g>
    <g id="ytick_7">
     <g id="line2d_14">
      <g>
       <use xlink:href="#ma2e3c74ebe" x="41.779688" y="112.18726" style="stroke: #000000; stroke-width: 0.8"/>
      </g>
     </g>
     <g id="text_15">
      <!-- 60 -->
      <g transform="translate(21.179688 116.107572) scale(0.1 -0.1)">
       <use xlink:href="#AppleGothic-36"/>
       <use xlink:href="#AppleGothic-30" transform="translate(67.999985 0)"/>
      </g>
     </g>
    </g>
    <g id="ytick_8">
     <g id="line2d_15">
      <g>
       <use xlink:href="#ma2e3c74ebe" x="41.779688" y="71.601074" style="stroke: #000000; stroke-width: 0.8"/>
      </g>
     </g>
     <g id="text_16">
      <!-- 70 -->
      <g transform="translate(21.179688 75.521387) scale(0.1 -0.1)">
       <use xlink:href="#AppleGothic-37"/>
       <use xlink:href="#AppleGothic-30" transform="translate(67.999985 0)"/>
      </g>
     </g>
    </g>
    <g id="ytick_9">
     <g id="line2d_16">
      <g>
       <use xlink:href="#ma2e3c74ebe" x="41.779688" y="31.014888" style="stroke: #000000; stroke-width: 0.8"/>
      </g>
     </g>
     <g id="text_17">
      <!-- 80 -->
      <g transform="translate(21.179688 34.935201) scale(0.1 -0.1)">
       <defs>
        <path id="AppleGothic-38" d="M 2957 2605 
Q 3219 2528 3404 2445 
Q 3590 2362 3706 2272 
Q 4192 1926 4192 1370 
Q 4192 749 3642 333 
Q 3098 -83 2285 -83 
Q 1434 -83 947 326 
Q 512 691 512 1229 
Q 512 1798 998 2125 
Q 1146 2227 1341 2304 
Q 1536 2381 1779 2451 
Q 1574 2534 1430 2617 
Q 1286 2701 1197 2784 
Q 819 3104 819 3603 
Q 819 4173 1261 4512 
Q 1702 4858 2381 4858 
Q 3014 4858 3437 4570 
Q 3898 4262 3898 3738 
Q 3898 3373 3670 3081 
Q 3443 2790 2957 2605 
z
M 2406 2752 
Q 2624 2835 2781 2915 
Q 2938 2995 3040 3066 
Q 3398 3322 3398 3667 
Q 3398 3994 3104 4205 
Q 2822 4429 2362 4429 
Q 1894 4429 1613 4205 
Q 1325 3994 1325 3635 
Q 1325 3322 1581 3098 
Q 1696 3002 1901 2912 
Q 2106 2822 2406 2752 
z
M 2368 2304 
Q 2061 2202 1840 2106 
Q 1619 2010 1472 1920 
Q 1011 1626 1011 1235 
Q 1011 845 1376 595 
Q 1728 346 2310 346 
Q 2938 346 3315 640 
Q 3693 934 3693 1338 
Q 3693 1741 3238 1997 
Q 3104 2067 2886 2147 
Q 2669 2227 2368 2304 
z
" transform="scale(0.015625)"/>
       </defs>
       <use xlink:href="#AppleGothic-38"/>
       <use xlink:href="#AppleGothic-30" transform="translate(67.999985 0)"/>
      </g>
     </g>
    </g>
    <g id="text_18">
     <!-- 데이터 밀도 (Count/Density) -->
     <g transform="translate(15.420312 255.440625) rotate(-90) scale(0.1 -0.1)">
      <defs>
       <path id="AppleGothic-b370" d="M 5702 5082 
Q 5702 5056 5667 4969 
Q 5632 4883 5632 4845 
L 5619 2323 
L 5619 1030 
L 5619 38 
Q 5626 -493 5632 -493 
L 5152 -518 
L 5184 3693 
Q 5184 4186 5184 4554 
Q 5184 4922 5171 5190 
L 5210 5190 
Q 5376 5190 5530 5171 
Q 5702 5152 5702 5082 
z
M 4435 4934 
Q 4435 4915 4400 4832 
Q 4365 4749 4365 4691 
L 4346 2880 
L 4358 -122 
L 3891 -141 
L 3923 1414 
L 3923 2560 
L 2438 2560 
L 2438 2982 
L 3155 2970 
L 3923 2976 
L 3923 4614 
L 3904 5056 
Q 4000 5056 4096 5053 
Q 4192 5050 4265 5034 
Q 4339 5018 4387 4995 
Q 4435 4973 4435 4934 
z
M 3251 1216 
L 3213 1222 
Q 3200 1222 3101 1209 
Q 3002 1197 2816 1171 
Q 2688 1152 2544 1133 
Q 2400 1114 2234 1088 
Q 2067 1069 1824 1049 
Q 1581 1030 1235 1005 
Q 1126 998 985 992 
Q 845 986 659 973 
L 678 2682 
L 678 4403 
L 1722 4390 
L 2867 4403 
L 2867 3981 
L 1165 3981 
Q 1158 3840 1155 3728 
Q 1152 3616 1152 3539 
Q 1133 2886 1133 2733 
L 1152 1440 
Q 1344 1459 1581 1472 
Q 1818 1485 2061 1485 
Q 2323 1485 2508 1494 
Q 2694 1504 2810 1517 
Q 3040 1542 3232 1626 
L 3251 1216 
z
" transform="scale(0.015625)"/>
       <path id="AppleGothic-d130" d="M 5459 5094 
Q 5459 5043 5453 5024 
Q 5421 4877 5421 4851 
L 5402 2848 
L 5402 1504 
Q 5408 1114 5408 765 
Q 5408 416 5414 102 
Q 5421 -518 5427 -518 
L 4947 -550 
L 4947 890 
L 4966 2330 
L 3750 2310 
L 3750 2720 
L 4358 2707 
L 4966 2720 
L 4947 4666 
Q 4947 4762 4937 4906 
Q 4928 5050 4915 5190 
L 5088 5197 
Q 5235 5197 5347 5174 
Q 5459 5152 5459 5094 
z
M 4134 1171 
Q 4026 1158 3939 1148 
Q 3853 1139 3782 1126 
Q 3322 1062 2995 1020 
Q 2669 979 2464 966 
Q 2061 934 1712 912 
Q 1363 890 1056 877 
Q 998 877 934 877 
Q 870 877 794 870 
L 806 2592 
L 794 4390 
L 1760 4384 
L 3571 4403 
L 3571 4006 
L 2253 4006 
L 1248 3987 
L 1248 2899 
L 2266 2886 
L 3302 2906 
L 3302 2522 
L 2246 2534 
L 1248 2522 
L 1248 1293 
Q 1446 1293 1606 1293 
Q 1766 1293 1888 1299 
Q 2016 1306 2214 1322 
Q 2413 1338 2694 1363 
Q 2976 1389 3232 1417 
Q 3488 1446 3731 1478 
Q 3821 1491 3917 1504 
Q 4013 1517 4134 1542 
L 4134 1171 
z
" transform="scale(0.015625)"/>
       <path id="AppleGothic-bc00" d="M 3162 2950 
L 3162 4422 
L 2189 4442 
L 1312 4422 
L 1306 2950 
Q 1357 2950 1459 2947 
Q 1562 2944 1728 2938 
Q 1894 2931 1993 2931 
Q 2093 2931 2131 2931 
L 3162 2950 
z
M 5555 -301 
L 3610 -282 
L 1485 -301 
L 1504 358 
L 1491 1030 
Q 1888 1018 2387 1011 
Q 2886 1005 3450 1005 
L 4934 1011 
L 4928 1542 
L 3731 1549 
L 1485 1523 
L 1485 1907 
Q 1677 1894 2240 1888 
Q 2528 1882 2806 1882 
Q 3085 1882 3366 1882 
L 5402 1901 
L 5389 1286 
L 5402 685 
L 3533 698 
Q 3360 698 3158 698 
Q 2957 698 2752 694 
Q 2547 691 2345 684 
Q 2144 678 1965 672 
L 1965 77 
L 3603 77 
Q 3827 77 4067 80 
Q 4307 83 4576 90 
Q 4845 96 5088 102 
Q 5331 109 5555 115 
L 5555 -301 
z
M 3635 4813 
L 3610 3494 
L 3629 2586 
L 2554 2598 
L 851 2573 
Q 851 2643 851 2790 
Q 851 2938 858 3162 
Q 864 3392 867 3517 
Q 870 3642 870 3667 
L 851 4813 
L 2074 4794 
L 3635 4813 
z
M 5446 5139 
Q 5446 5107 5417 5008 
Q 5389 4909 5389 4838 
L 5389 2182 
L 4934 2170 
Q 4934 2374 4944 2793 
Q 4954 3213 4954 3859 
Q 4954 4346 4941 4678 
Q 4928 5011 4909 5254 
L 5037 5254 
Q 5203 5254 5324 5232 
Q 5446 5210 5446 5139 
z
" transform="scale(0.015625)"/>
       <path id="AppleGothic-b3c4" d="M 6061 -38 
L 3181 -6 
L 2938 -6 
Q 2560 -6 2269 -6 
Q 1978 -6 1766 -13 
Q 1562 -19 1360 -19 
Q 1158 -19 954 -26 
Q 557 -32 352 -45 
L 352 416 
L 1549 397 
L 2963 403 
L 2982 1139 
L 2970 2035 
L 3066 2035 
Q 3238 2035 3369 2012 
Q 3501 1990 3501 1920 
Q 3501 1901 3478 1821 
Q 3456 1741 3456 1709 
Q 3424 1658 3424 1030 
Q 3424 800 3443 531 
Q 3443 506 3446 474 
Q 3450 442 3456 403 
L 4608 397 
Q 4960 397 5347 400 
Q 5734 403 6061 416 
L 6061 -38 
z
M 5299 2202 
L 3744 2208 
L 1146 2195 
L 1165 3379 
L 1152 4640 
Q 1293 4634 1408 4634 
Q 1523 4634 1619 4634 
Q 2266 4621 2701 4614 
Q 3136 4608 3360 4608 
L 5248 4621 
L 5248 4205 
L 3354 4218 
L 1632 4211 
L 1613 3424 
L 1626 2598 
Q 2029 2586 2512 2579 
Q 2995 2573 3443 2573 
Q 3648 2573 3875 2573 
Q 4102 2573 4358 2579 
Q 4858 2586 5299 2598 
L 5299 2202 
z
" transform="scale(0.015625)"/>
       <path id="AppleGothic-43" d="M 4109 4621 
L 4109 3974 
Q 3872 4205 3565 4371 
Q 3085 4627 2598 4627 
Q 1850 4627 1312 3994 
Q 1043 3680 912 3309 
Q 781 2938 781 2515 
Q 781 1651 1318 1030 
Q 1850 410 2611 410 
Q 2970 410 3344 554 
Q 3718 698 4109 998 
L 4109 378 
Q 3251 -83 2554 -83 
Q 1651 -83 973 614 
Q 243 1363 243 2490 
Q 243 3584 922 4339 
Q 1613 5101 2630 5101 
Q 3027 5101 3392 4979 
Q 3757 4858 4109 4621 
z
" transform="scale(0.015625)"/>
       <path id="AppleGothic-6f" d="M 1888 -83 
Q 1229 -83 730 397 
Q 198 902 198 1709 
Q 198 2470 666 2982 
Q 1146 3501 1850 3501 
Q 2547 3501 3027 2982 
Q 3501 2470 3501 1715 
Q 3501 922 2989 403 
Q 2515 -83 1888 -83 
z
M 1843 339 
Q 2304 339 2662 723 
Q 3008 1114 3008 1715 
Q 3008 2336 2637 2726 
Q 2298 3085 1850 3085 
Q 1389 3085 1062 2714 
Q 704 2304 704 1709 
Q 704 1107 1056 704 
Q 1382 339 1843 339 
z
" transform="scale(0.015625)"/>
       <path id="AppleGothic-75" d="M 262 3424 
L 730 3424 
L 730 1242 
Q 730 877 941 627 
Q 1171 339 1594 339 
Q 2080 339 2426 730 
Q 2784 1139 2784 1632 
L 2784 3424 
L 3245 3424 
L 3245 0 
L 2842 0 
L 2810 582 
Q 2707 442 2592 330 
Q 2477 218 2342 134 
Q 1984 -83 1555 -83 
Q 966 -83 614 282 
Q 262 653 262 1184 
L 262 3424 
z
" transform="scale(0.015625)"/>
       <path id="AppleGothic-6e" d="M 3264 2291 
L 3264 0 
L 2803 0 
L 2803 2259 
Q 2803 2618 2541 2848 
Q 2278 3085 1914 3085 
Q 1427 3085 1075 2682 
Q 723 2272 723 1760 
L 723 0 
L 288 0 
L 288 3424 
L 691 3424 
L 710 2784 
Q 883 3046 1114 3219 
Q 1491 3501 1965 3501 
Q 2515 3501 2886 3168 
Q 3264 2842 3264 2291 
z
" transform="scale(0.015625)"/>
       <path id="AppleGothic-74" d="M 691 4435 
L 1114 4435 
L 1114 3430 
L 2016 3430 
L 2016 3014 
L 1114 3014 
L 1114 838 
Q 1114 570 1213 454 
Q 1312 339 1555 339 
Q 1696 339 1795 371 
Q 1894 403 2016 454 
L 2016 38 
Q 1914 6 1770 -22 
Q 1626 -51 1478 -51 
Q 1094 -51 883 122 
Q 646 301 646 698 
L 646 3014 
L 70 3014 
L 70 3430 
L 646 3430 
L 691 4435 
z
" transform="scale(0.015625)"/>
       <path id="AppleGothic-2f" d="M 1965 5018 
L 2368 5018 
L 493 -672 
L 90 -672 
L 1965 5018 
z
" transform="scale(0.015625)"/>
       <path id="AppleGothic-44" d="M 358 5024 
L 1562 5024 
Q 2227 5024 2675 4858 
Q 2861 4787 3027 4681 
Q 3194 4576 3341 4429 
Q 3693 4077 3878 3584 
Q 4064 3091 4064 2554 
Q 4064 1357 3379 672 
Q 2688 0 1485 0 
L 358 0 
L 358 5024 
z
M 1363 4582 
L 864 4582 
L 864 442 
L 1690 442 
Q 2413 442 2912 941 
Q 3494 1523 3494 2560 
Q 3494 2765 3472 2944 
Q 3450 3123 3405 3290 
Q 3264 3776 2906 4122 
Q 2643 4371 2298 4480 
Q 1965 4582 1363 4582 
z
" transform="scale(0.015625)"/>
       <path id="AppleGothic-65" d="M 3296 1850 
L 691 1850 
Q 691 1114 1033 726 
Q 1376 339 1933 339 
Q 2355 339 2746 608 
Q 2854 678 2976 784 
Q 3098 890 3238 1030 
L 3238 474 
Q 3085 358 2953 272 
Q 2822 186 2707 128 
Q 2304 -83 1901 -83 
Q 1203 -83 717 397 
Q 192 902 192 1709 
Q 192 2470 666 2982 
Q 1146 3501 1850 3501 
Q 2534 3501 2938 3002 
Q 3296 2547 3296 1850 
z
M 755 2240 
L 2758 2240 
Q 2682 2675 2429 2889 
Q 2176 3104 1818 3104 
Q 1421 3104 1146 2854 
Q 890 2624 755 2240 
z
" transform="scale(0.015625)"/>
       <path id="AppleGothic-73" d="M 224 294 
L 224 851 
Q 621 531 1030 403 
Q 1152 371 1267 355 
Q 1382 339 1504 339 
Q 1894 339 2150 518 
Q 2413 710 2413 947 
Q 2413 1075 2317 1210 
Q 2182 1376 1600 1510 
Q 909 1683 678 1798 
Q 230 2054 230 2515 
Q 230 2944 602 3219 
Q 979 3501 1542 3501 
Q 1798 3501 2003 3456 
Q 2208 3411 2387 3337 
Q 2566 3264 2720 3155 
L 2720 2598 
Q 2451 2822 2156 2953 
Q 1862 3085 1536 3085 
Q 1210 3085 973 2938 
Q 730 2790 730 2554 
Q 730 2240 1306 2054 
Q 1574 1978 1836 1901 
Q 2099 1824 2368 1747 
Q 2950 1498 2950 992 
Q 2950 563 2547 237 
Q 2138 -83 1530 -83 
Q 1261 -83 1005 -26 
Q 595 64 224 294 
z
" transform="scale(0.015625)"/>
       <path id="AppleGothic-69" d="M 256 3424 
L 717 3424 
L 717 0 
L 256 0 
L 256 3424 
z
M 480 4870 
Q 614 4870 704 4780 
Q 794 4691 794 4525 
Q 794 4358 710 4268 
Q 627 4179 480 4179 
Q 333 4179 253 4281 
Q 173 4384 173 4518 
Q 173 4730 269 4800 
Q 365 4870 480 4870 
z
" transform="scale(0.015625)"/>
       <path id="AppleGothic-79" d="M 179 3424 
L 691 3424 
L 1869 531 
L 2874 3424 
L 3379 3424 
L 1952 -397 
Q 1798 -806 1555 -979 
Q 1338 -1126 1037 -1126 
Q 883 -1126 780 -1104 
Q 678 -1082 582 -1043 
L 582 -602 
Q 672 -646 784 -678 
Q 896 -710 986 -710 
Q 1210 -710 1334 -595 
Q 1459 -480 1555 -230 
L 1632 32 
L 179 3424 
z
" transform="scale(0.015625)"/>
      </defs>
      <use xlink:href="#AppleGothic-b370"/>
      <use xlink:href="#AppleGothic-c774" transform="translate(99.999985 0)"/>
      <use xlink:href="#AppleGothic-d130" transform="translate(199.999969 0)"/>
      <use xlink:href="#AppleGothic-20" transform="translate(299.999954 0)"/>
      <use xlink:href="#AppleGothic-bc00" transform="translate(331.999939 0)"/>
      <use xlink:href="#AppleGothic-b3c4" transform="translate(431.999924 0)"/>
      <use xlink:href="#AppleGothic-20" transform="translate(531.999908 0)"/>
      <use xlink:href="#AppleGothic-28" transform="translate(563.999893 0)"/>
      <use xlink:href="#AppleGothic-43" transform="translate(613.999878 0)"/>
      <use xlink:href="#AppleGothic-6f" transform="translate(682.499863 0)"/>
      <use xlink:href="#AppleGothic-75" transform="translate(740.79985 0)"/>
      <use xlink:href="#AppleGothic-6e" transform="translate(796.299835 0)"/>
      <use xlink:href="#AppleGothic-74" transform="translate(852.199829 0)"/>
      <use xlink:href="#AppleGothic-2f" transform="translate(886.399826 0)"/>
      <use xlink:href="#AppleGothic-44" transform="translate(936.399811 0)"/>
      <use xlink:href="#AppleGothic-65" transform="translate(1004.899796 0)"/>
      <use xlink:href="#AppleGothic-6e" transform="translate(1059.799789 0)"/>
      <use xlink:href="#AppleGothic-73" transform="translate(1115.699783 0)"/>
      <use xlink:href="#AppleGothic-69" transform="translate(1165.299774 0)"/>
      <use xlink:href="#AppleGothic-74" transform="translate(1181.199768 0)"/>
      <use xlink:href="#AppleGothic-79" transform="translate(1215.399765 0)"/>
      <use xlink:href="#AppleGothic-29" transform="translate(1271.099762 0)"/>
     </g>
    </g>
   </g>
   <g id="line2d_17">
    <path d="M 67.143324 355.704375 
L 306.759587 355.623081 
L 316.956024 355.419315 
L 324.603351 355.060156 
L 329.70157 354.654325 
L 334.799788 354.059788 
L 339.898006 353.218683 
L 344.996225 352.061178 
L 350.094443 350.50052 
L 352.643552 349.535886 
L 355.192661 348.427611 
L 357.741771 347.158253 
L 360.29088 345.709227 
L 362.839989 344.061348 
L 365.389098 342.19566 
L 367.938207 340.094508 
L 370.487317 337.742861 
L 373.036426 335.129806 
L 375.585535 332.250129 
L 378.134644 329.105868 
L 380.683753 325.707691 
L 383.232862 322.075968 
L 388.331081 314.244926 
L 401.076627 293.853938 
L 403.625736 290.158788 
L 406.174845 286.741007 
L 408.723954 283.650286 
L 411.273063 280.923509 
L 413.822173 278.58261 
L 416.371282 276.633396 
L 418.920391 275.065436 
L 421.4695 273.853113 
L 424.018609 272.957761 
L 426.567719 272.330786 
L 429.116828 271.917503 
L 434.215046 271.508537 
L 454.60792 270.799668 
L 457.157029 270.878334 
L 459.706138 271.100809 
L 462.255247 271.505578 
L 464.804356 272.125823 
L 467.353465 272.987095 
L 469.902575 274.105799 
L 472.451684 275.488524 
L 475.000793 277.132187 
L 477.549902 279.024863 
L 480.099011 281.147125 
L 482.648121 283.473699 
L 487.746339 288.61986 
L 492.844557 294.207579 
L 505.590103 308.481059 
L 510.688322 313.746451 
L 515.78654 318.492286 
L 518.335649 320.628562 
L 520.884758 322.590996 
L 523.433867 324.372425 
L 525.982977 325.970245 
L 528.532086 327.386797 
L 531.081195 328.629536 
L 533.630304 329.710958 
L 536.179413 330.648244 
L 541.277632 332.178454 
L 548.924959 334.001876 
L 556.572287 335.8701 
L 561.670505 337.388113 
L 566.768724 339.190046 
L 571.866942 341.243448 
L 574.416051 342.336685 
L 574.416051 342.336685 
" clip-path="url(#pfe8c0e71c0)" style="fill: none; stroke: #50b131; stroke-width: 1.5; stroke-linecap: square"/>
   </g>
   <g id="line2d_18">
    <path d="M 67.143324 355.704375 
L 186.951455 355.611008 
L 194.598783 355.425524 
L 202.246111 354.996346 
L 207.344329 354.496424 
L 212.442547 353.775511 
L 217.540766 352.80949 
L 222.638984 351.597928 
L 227.737202 350.159744 
L 232.835421 348.519185 
L 237.933639 346.690068 
L 243.031857 344.669725 
L 248.130076 342.449209 
L 253.228294 340.03493 
L 260.875622 336.146207 
L 281.268495 325.384768 
L 283.817604 323.868131 
L 286.366714 322.219816 
L 288.915823 320.399141 
L 291.464932 318.367045 
L 294.014041 316.090019 
L 296.56315 313.544134 
L 299.112259 310.718704 
L 301.661369 307.619148 
L 304.210478 304.268587 
L 309.308696 296.993789 
L 316.956024 285.654923 
L 319.505133 282.063288 
L 322.054242 278.676576 
L 324.603351 275.539781 
L 327.15246 272.677941 
L 329.70157 270.094835 
L 332.250679 267.774085 
L 334.799788 265.682579 
L 339.898006 262.005043 
L 344.996225 258.69673 
L 352.643552 254.042232 
L 355.192661 252.641626 
L 357.741771 251.405414 
L 360.29088 250.410011 
L 362.839989 249.738658 
L 365.389098 249.474103 
L 367.938207 249.691373 
L 370.487317 250.45139 
L 373.036426 251.796031 
L 375.585535 253.744999 
L 378.134644 256.294683 
L 380.683753 259.4189 
L 383.232862 263.071274 
L 385.781972 267.188846 
L 388.331081 271.696452 
L 393.429299 281.54799 
L 406.174845 307.30035 
L 411.273063 316.720749 
L 413.822173 321.078133 
L 416.371282 325.170391 
L 418.920391 328.983048 
L 421.4695 332.506812 
L 424.018609 335.73679 
L 426.567719 338.671935 
L 429.116828 341.314692 
L 431.665937 343.670807 
L 434.215046 345.749208 
L 436.764155 347.561898 
L 439.313264 349.12376 
L 441.862374 350.452251 
L 444.411483 351.566957 
L 446.960592 352.48901 
L 449.509701 353.240426 
L 452.05881 353.843391 
L 457.157029 354.689529 
L 462.255247 355.184429 
L 467.353465 355.454697 
L 475.000793 355.631104 
L 490.295448 355.700431 
L 574.416051 355.704375 
L 574.416051 355.704375 
" clip-path="url(#pfe8c0e71c0)" style="fill: none; stroke: #bb9832; stroke-width: 1.5; stroke-linecap: square"/>
   </g>
   <g id="line2d_19">
    <path d="M 67.143324 335.093092 
L 72.241542 327.341127 
L 74.790651 322.454548 
L 77.339761 315.294728 
L 79.88887 304.410292 
L 82.437979 288.425338 
L 84.987088 266.390232 
L 87.536197 238.183544 
L 90.085307 204.73421 
L 97.732634 95.58171 
L 100.281743 66.797331 
L 102.830852 47.229158 
L 105.379962 38.904375 
L 107.929071 42.511878 
L 110.47818 57.401043 
L 113.027289 81.528684 
L 115.576398 111.652361 
L 120.674617 176.343913 
L 123.223726 206.752055 
L 125.772835 235.102942 
L 128.321944 261.242687 
L 130.871053 284.354611 
L 133.420163 302.901546 
L 135.969272 315.506178 
L 138.518381 322.154131 
L 141.06749 324.676839 
L 143.616599 325.978109 
L 146.165709 328.516365 
L 148.714818 333.160483 
L 153.813036 345.079463 
L 156.362145 349.750904 
L 158.911254 352.799476 
L 161.460364 354.47088 
L 164.009473 355.24867 
L 166.558582 355.557912 
L 171.6568 355.694415 
L 209.893438 355.704375 
L 574.416051 355.704375 
L 574.416051 355.704375 
" clip-path="url(#pfe8c0e71c0)" style="fill: none; stroke: #f77189; stroke-width: 1.5; stroke-linecap: square"/>
   </g>
   <g id="patch_3">
    <path d="M 41.779688 355.704375 
L 41.779688 23.064375 
" style="fill: none; stroke: #000000; stroke-width: 0.8; stroke-linejoin: miter; stroke-linecap: square"/>
   </g>
   <g id="patch_4">
    <path d="M 599.779688 355.704375 
L 599.779688 23.064375 
" style="fill: none; stroke: #000000; stroke-width: 0.8; stroke-linejoin: miter; stroke-linecap: square"/>
   </g>
   <g id="patch_5">
    <path d="M 41.779688 355.704375 
L 599.779688 355.704375 
" style="fill: none; stroke: #000000; stroke-width: 0.8; stroke-linejoin: miter; stroke-linecap: square"/>
   </g>
   <g id="patch_6">
    <path d="M 41.779688 23.064375 
L 599.779688 23.064375 
" style="fill: none; stroke: #000000; stroke-width: 0.8; stroke-linejoin: miter; stroke-linecap: square"/>
   </g>
   <g id="text_19">
    <!-- 품종별 꽃잎 길이(Petal Length)의 분포 차이 -->
    <g transform="translate(201.305625 17.064375) scale(0.12 -0.12)">
     <defs>
      <path id="AppleGothic-d488" d="M 4640 358 
L 4627 858 
Q 4301 870 3907 876 
Q 3514 883 3155 883 
Q 2771 883 2524 883 
Q 2278 883 2163 877 
Q 2042 877 1939 873 
Q 1837 870 1747 864 
L 1747 -32 
L 3136 -64 
L 4627 -58 
L 4640 358 
z
M 6016 1939 
L 3418 2003 
L 3418 1210 
L 4141 1203 
L 5114 1210 
L 5114 205 
Q 5114 -128 5117 -291 
Q 5120 -454 5126 -557 
L 4627 -557 
L 4627 -403 
L 3110 -384 
L 1734 -397 
L 1734 -563 
L 1267 -570 
L 1280 134 
L 1274 1222 
L 2138 1210 
L 2970 1210 
L 2970 1997 
L 1779 2003 
Q 1440 2003 1069 1990 
Q 698 1978 384 1965 
L 384 2362 
Q 454 2355 544 2352 
Q 634 2349 742 2342 
Q 858 2336 1104 2333 
Q 1350 2330 1734 2317 
Q 2131 2310 2489 2307 
Q 2848 2304 3181 2304 
Q 3782 2304 4192 2304 
Q 4602 2304 4845 2310 
Q 5318 2317 5600 2326 
Q 5882 2336 6016 2342 
L 6016 1939 
z
M 5363 2976 
Q 5274 2982 5197 2985 
Q 5120 2989 5050 2989 
Q 4627 3002 4179 3011 
Q 3731 3021 3238 3021 
Q 2758 3021 2416 3021 
Q 2074 3021 1850 3014 
Q 1626 3014 1421 3011 
Q 1216 3008 1024 3002 
L 1024 3379 
Q 1152 3366 1299 3353 
Q 1446 3341 1581 3341 
L 2202 3341 
Q 2189 3392 2182 3433 
Q 2176 3475 2170 3507 
Q 2138 3654 2093 3808 
Q 2048 3962 1971 4192 
Q 1920 4346 1920 4371 
Q 1920 4410 1974 4413 
Q 2029 4416 2067 4416 
L 2317 4422 
Q 2477 4422 2477 4365 
Q 2477 4218 2480 4096 
Q 2483 3974 2515 3802 
L 2630 3334 
Q 2746 3322 2880 3318 
Q 3014 3315 3142 3315 
L 3744 3334 
Q 3770 3405 3798 3545 
Q 3827 3686 3866 3904 
Q 3955 4352 3955 4442 
Q 4064 4442 4256 4403 
Q 4448 4358 4448 4294 
Q 4448 4275 4419 4224 
Q 4390 4173 4378 4141 
L 4166 3334 
L 5363 3347 
L 5363 2976 
z
M 5344 4646 
Q 4960 4653 4685 4666 
Q 3725 4685 3149 4685 
Q 2739 4685 2432 4685 
Q 2125 4685 1901 4678 
Q 1677 4678 1465 4675 
Q 1254 4672 1043 4666 
L 1043 5069 
Q 1446 5050 1968 5034 
Q 2490 5018 3130 5018 
Q 3750 5018 4316 5024 
Q 4883 5030 5344 5043 
L 5344 4646 
z
" transform="scale(0.015625)"/>
      <path id="AppleGothic-c885" d="M 4858 410 
Q 4858 794 4378 941 
Q 4013 1056 3238 1056 
L 3053 1056 
Q 2394 1056 2054 934 
Q 1594 781 1594 403 
Q 1626 90 2093 -51 
Q 2298 -115 2586 -144 
Q 2874 -173 3251 -173 
Q 4083 -173 4470 -29 
Q 4858 115 4858 410 
z
M 5338 410 
Q 5338 -128 4653 -390 
Q 4128 -576 3258 -576 
Q 2323 -576 1766 -371 
Q 1107 -115 1107 403 
Q 1107 915 1683 1178 
Q 2272 1434 3245 1434 
Q 4173 1434 4691 1222 
Q 5338 973 5338 410 
z
M 6016 2003 
Q 5907 2010 5814 2010 
Q 5722 2010 5645 2010 
Q 5088 2022 4617 2028 
Q 4147 2035 3750 2035 
L 3187 2035 
Q 2394 2035 1754 2016 
Q 1434 2010 1110 2006 
Q 787 2003 442 1990 
L 397 1990 
L 397 2406 
Q 474 2349 1722 2349 
L 2970 2362 
L 2976 2963 
Q 2976 3053 2969 3133 
Q 2963 3213 2950 3290 
Q 3174 3290 3331 3277 
Q 3488 3264 3488 3187 
Q 3488 3174 3465 3097 
Q 3443 3021 3443 2963 
L 3443 2368 
L 4749 2381 
Q 5197 2381 5494 2397 
Q 5792 2413 6016 2438 
L 6016 2003 
z
M 5645 3270 
L 5370 2906 
Q 5222 2931 5104 2953 
Q 4986 2976 4896 3002 
Q 4346 3142 3936 3437 
Q 3770 3558 3638 3683 
Q 3507 3808 3398 3942 
Q 3366 3987 3334 4041 
Q 3302 4096 3264 4154 
Q 3206 4077 3155 4006 
Q 3104 3936 3059 3885 
Q 2912 3718 2736 3580 
Q 2560 3443 2355 3315 
Q 2048 3117 1510 2982 
Q 1427 2957 1315 2934 
Q 1203 2912 1056 2880 
L 877 3059 
Q 723 3200 723 3226 
Q 749 3258 832 3264 
Q 915 3270 1024 3283 
Q 1331 3328 1593 3417 
Q 1856 3507 2093 3635 
Q 2624 3942 2848 4307 
Q 2925 4429 2970 4614 
Q 2803 4627 2585 4633 
Q 2368 4640 2086 4640 
Q 1856 4640 1581 4633 
Q 1306 4627 1075 4614 
L 1075 4998 
Q 1197 4998 1469 4995 
Q 1741 4992 2163 4986 
Q 2592 4979 2861 4979 
Q 3130 4979 3251 4979 
Q 3610 4979 3907 4982 
Q 4205 4986 4457 4992 
Q 4710 4998 4928 5004 
Q 5146 5011 5344 5024 
L 5344 4634 
L 4333 4646 
Q 4109 4646 3965 4646 
Q 3821 4646 3750 4640 
Q 3680 4640 3625 4637 
Q 3571 4634 3520 4627 
Q 3520 4493 3590 4352 
Q 3699 4122 4013 3878 
Q 4435 3558 5069 3392 
Q 5267 3347 5619 3296 
Q 5638 3296 5645 3270 
z
" transform="scale(0.015625)"/>
      <path id="AppleGothic-bcc4" d="M 3027 2739 
L 3027 3680 
L 2150 3693 
L 1293 3680 
L 1293 2739 
L 2144 2720 
L 3027 2739 
z
M 5440 -531 
Q 5178 -525 4906 -518 
Q 4634 -512 4339 -506 
Q 4038 -499 3801 -496 
Q 3565 -493 3379 -493 
L 1446 -493 
Q 1453 -422 1456 -336 
Q 1459 -250 1466 -141 
Q 1466 -45 1469 19 
Q 1472 83 1472 115 
L 1459 762 
L 3354 749 
L 4845 774 
L 4845 1382 
L 1446 1370 
L 1446 1734 
Q 1658 1734 1888 1728 
Q 2118 1722 2374 1715 
Q 2630 1709 2864 1705 
Q 3098 1702 3322 1702 
L 5299 1715 
L 5280 1094 
L 5293 410 
L 3373 429 
L 1901 416 
L 1901 -128 
Q 1978 -134 2134 -134 
Q 2291 -134 2522 -134 
Q 2752 -141 2969 -144 
Q 3187 -147 3392 -147 
Q 3846 -147 4380 -137 
Q 4915 -128 5440 -109 
L 5440 -531 
z
M 5440 5062 
Q 5440 5024 5414 4937 
Q 5389 4851 5389 4813 
Q 5382 4589 5372 4224 
Q 5363 3859 5363 3334 
Q 5363 3008 5363 2784 
Q 5363 2560 5370 2445 
Q 5376 2323 5376 2220 
Q 5376 2118 5382 2029 
L 4922 2029 
Q 4941 2189 4941 2394 
L 4941 2822 
L 3878 2803 
L 3878 3174 
L 4941 3162 
L 4941 3917 
L 3859 3904 
L 3859 4269 
L 4941 4256 
L 4941 4685 
Q 4941 4909 4934 5021 
Q 4928 5133 4915 5190 
L 5056 5190 
Q 5222 5190 5331 5164 
Q 5440 5139 5440 5062 
z
M 3488 4877 
L 3469 4710 
L 3456 3462 
L 3469 2362 
L 851 2362 
Q 851 2630 857 2944 
Q 864 3258 870 3578 
Q 870 3853 870 4061 
Q 870 4269 864 4416 
Q 858 4570 858 4704 
Q 858 4838 851 4966 
L 979 4966 
Q 1146 4966 1242 4950 
Q 1338 4934 1338 4864 
Q 1338 4838 1315 4761 
Q 1293 4685 1293 4653 
L 1293 4051 
L 2157 4032 
L 3027 4051 
L 3014 4998 
L 3072 4998 
Q 3264 4998 3376 4976 
Q 3488 4954 3488 4877 
z
" transform="scale(0.015625)"/>
      <path id="AppleGothic-50" d="M 262 5018 
L 1869 5018 
Q 2560 5018 3002 4781 
Q 3597 4448 3597 3718 
Q 3597 3014 3104 2630 
Q 2656 2272 1952 2272 
L 768 2272 
L 768 0 
L 262 0 
L 262 5018 
z
M 1862 4576 
L 768 4576 
L 768 2714 
L 1901 2714 
Q 2349 2714 2675 2950 
Q 3040 3219 3040 3674 
Q 3040 4186 2611 4410 
Q 2298 4576 1862 4576 
z
" transform="scale(0.015625)"/>
      <path id="AppleGothic-61" d="M 2950 2214 
L 2950 602 
Q 2950 493 2998 413 
Q 3046 333 3174 333 
Q 3213 333 3238 336 
Q 3264 339 3290 346 
Q 3328 358 3357 371 
Q 3386 384 3405 390 
L 3405 32 
Q 3290 -6 3174 -22 
Q 3059 -38 2995 -38 
Q 2669 -38 2566 134 
Q 2483 243 2483 602 
Q 2400 461 2317 355 
Q 2234 250 2150 179 
Q 1818 -83 1376 -83 
Q 909 -83 563 192 
Q 205 486 205 941 
Q 205 1510 781 1779 
Q 992 1882 1341 1958 
Q 1690 2035 2176 2099 
L 2483 2131 
Q 2483 2579 2256 2832 
Q 2029 3085 1587 3085 
Q 1421 3085 1257 3043 
Q 1094 3002 928 2912 
Q 838 2861 729 2790 
Q 621 2720 493 2611 
L 493 3136 
Q 1037 3501 1664 3501 
Q 2304 3501 2650 3098 
Q 2950 2746 2950 2214 
z
M 2483 1542 
L 2483 1747 
L 2266 1722 
Q 1466 1638 1139 1498 
Q 704 1325 704 934 
Q 704 819 755 713 
Q 806 608 896 525 
Q 986 442 1117 390 
Q 1248 339 1408 339 
Q 1843 339 2170 691 
Q 2483 1050 2483 1542 
z
" transform="scale(0.015625)"/>
      <path id="AppleGothic-6c" d="M 288 5018 
L 749 5018 
L 749 0 
L 288 0 
L 288 5018 
z
" transform="scale(0.015625)"/>
      <path id="AppleGothic-4c" d="M 333 5018 
L 838 5018 
L 838 442 
L 3315 442 
L 3315 0 
L 333 0 
L 333 5018 
z
" transform="scale(0.015625)"/>
      <path id="AppleGothic-67" d="M 2822 3040 
L 2950 3424 
L 3290 3424 
L 3290 326 
Q 3290 -474 2899 -890 
Q 2509 -1306 1690 -1306 
Q 1357 -1306 1059 -1187 
Q 762 -1069 435 -819 
L 435 -256 
Q 640 -448 838 -579 
Q 1037 -710 1229 -781 
Q 1453 -864 1690 -864 
Q 2195 -864 2477 -634 
Q 2822 -352 2822 269 
L 2822 691 
Q 2579 288 2221 122 
Q 1978 6 1683 6 
Q 1050 6 621 512 
Q 198 1030 198 1709 
Q 198 2387 595 2906 
Q 1056 3501 1773 3501 
Q 2131 3501 2451 3328 
Q 2547 3270 2640 3200 
Q 2733 3130 2822 3040 
z
M 2822 1658 
L 2822 2598 
Q 2714 2720 2602 2803 
Q 2490 2886 2381 2950 
Q 2253 3021 2118 3053 
Q 1984 3085 1843 3085 
Q 1363 3085 1050 2746 
Q 698 2362 698 1734 
Q 698 1165 992 794 
Q 1280 429 1741 429 
Q 2195 429 2509 781 
Q 2822 1120 2822 1658 
z
" transform="scale(0.015625)"/>
      <path id="AppleGothic-68" d="M 288 5018 
L 749 5018 
L 749 2810 
Q 909 3066 1139 3238 
Q 1491 3501 1926 3501 
Q 2195 3501 2409 3424 
Q 2624 3347 2803 3200 
Q 3181 2867 3181 2266 
L 3181 0 
L 2714 0 
L 2714 2202 
Q 2714 2573 2477 2829 
Q 2240 3085 1901 3085 
Q 1408 3085 1082 2694 
Q 749 2291 749 1773 
L 749 0 
L 288 0 
L 288 5018 
z
" transform="scale(0.015625)"/>
      <path id="AppleGothic-c758" d="M 3571 3379 
Q 3571 4218 2573 4218 
Q 2061 4218 1776 3987 
Q 1491 3757 1491 3386 
Q 1491 2970 1786 2733 
Q 2054 2522 2509 2522 
Q 3059 2522 3328 2765 
Q 3571 2976 3571 3379 
z
M 4608 1094 
Q 4134 1018 3872 979 
Q 3456 928 3120 899 
Q 2784 870 2528 870 
L 902 813 
Q 858 800 816 790 
Q 774 781 730 768 
Q 653 768 608 941 
Q 563 1114 563 1242 
L 2477 1248 
Q 2938 1248 3334 1273 
Q 3731 1299 4070 1350 
Q 4282 1376 4576 1459 
L 4608 1094 
z
M 5466 5069 
Q 5466 5037 5437 4944 
Q 5408 4851 5408 4813 
L 5408 2298 
Q 5408 2010 5411 1683 
Q 5414 1357 5421 973 
Q 5427 595 5433 230 
Q 5440 -134 5453 -499 
L 4973 -557 
L 4973 45 
Q 4979 237 4979 512 
Q 4979 787 4986 1158 
Q 4992 1523 4992 1788 
Q 4992 2054 4992 2221 
Q 4992 2880 4985 3357 
Q 4979 3834 4966 4122 
Q 4954 4410 4944 4675 
Q 4934 4941 4922 5184 
L 5024 5184 
Q 5190 5184 5328 5158 
Q 5466 5133 5466 5069 
z
M 4006 3328 
Q 4006 2790 3578 2464 
Q 3155 2138 2528 2138 
Q 1894 2138 1504 2445 
Q 1088 2765 1088 3341 
Q 1088 3955 1517 4288 
Q 1920 4602 2541 4602 
Q 3174 4602 3597 4269 
Q 4006 3936 4006 3354 
L 4006 3328 
z
" transform="scale(0.015625)"/>
      <path id="AppleGothic-bd84" d="M 4557 3194 
L 4557 4077 
L 3130 4096 
L 1754 4077 
L 1754 3194 
L 3110 3174 
L 4557 3194 
z
M 5210 -429 
L 3194 -410 
L 1325 -429 
L 1338 474 
L 1325 1197 
L 1549 1203 
Q 1645 1203 1741 1190 
Q 1837 1178 1837 1114 
Q 1837 1094 1817 1030 
Q 1798 966 1798 934 
L 1792 -38 
L 3194 -38 
Q 3539 -38 3820 -38 
Q 4102 -38 4342 -32 
Q 4582 -26 4793 -22 
Q 5005 -19 5210 -6 
L 5210 -429 
z
M 6016 1760 
Q 5504 1760 4614 1779 
Q 4166 1792 3878 1798 
Q 3590 1805 3462 1805 
L 3475 627 
L 2995 621 
L 3002 1805 
L 1670 1792 
Q 1222 1792 915 1779 
Q 608 1766 384 1754 
L 384 2182 
Q 474 2182 621 2179 
Q 768 2176 979 2170 
Q 1190 2163 1472 2160 
Q 1754 2157 2099 2150 
Q 2445 2144 2720 2141 
Q 2995 2138 3200 2138 
Q 3744 2138 4550 2157 
Q 4960 2170 5213 2176 
Q 5466 2182 5568 2189 
Q 5677 2195 5789 2201 
Q 5901 2208 6016 2214 
L 6016 1760 
z
M 5043 5094 
Q 5043 5069 5024 5011 
Q 5005 4954 5005 4934 
L 4992 4122 
L 5011 2803 
L 3104 2822 
L 1306 2803 
Q 1306 2880 1309 3005 
Q 1312 3130 1315 3280 
Q 1318 3430 1321 3593 
Q 1325 3757 1325 3917 
Q 1325 4390 1318 4678 
Q 1312 4966 1299 5158 
L 1472 5165 
Q 1613 5165 1699 5142 
Q 1786 5120 1786 5056 
Q 1786 5024 1770 4957 
Q 1754 4890 1754 4870 
L 1754 4442 
L 3136 4422 
L 4557 4442 
L 4544 5197 
L 4704 5203 
Q 4851 5203 4947 5180 
Q 5043 5158 5043 5094 
z
" transform="scale(0.015625)"/>
      <path id="AppleGothic-d3ec" d="M 6029 83 
Q 5523 96 4883 102 
Q 4243 109 3546 109 
L 3213 109 
Q 2739 109 2259 102 
Q 1779 96 1274 83 
Q 1094 77 870 70 
Q 646 64 371 51 
L 371 525 
Q 634 512 976 499 
Q 1318 486 1734 486 
L 2970 486 
L 2982 1094 
L 2970 1734 
L 2029 1734 
L 1011 1696 
L 1011 2131 
L 1581 2118 
L 2125 2125 
L 2029 2874 
Q 1997 3059 1971 3203 
Q 1946 3347 1920 3437 
Q 1907 3482 1894 3536 
Q 1882 3590 1869 3648 
L 2298 3680 
Q 2362 3680 2400 3654 
Q 2438 3629 2438 3552 
Q 2438 3366 2448 3187 
Q 2458 3008 2483 2835 
Q 2496 2714 2512 2598 
Q 2528 2483 2541 2368 
Q 2547 2317 2560 2256 
Q 2573 2195 2586 2112 
L 3168 2099 
L 3776 2118 
Q 3789 2182 3801 2230 
Q 3814 2278 3821 2317 
Q 3853 2470 3875 2595 
Q 3898 2720 3910 2816 
Q 3968 3245 3987 3603 
Q 3987 3622 3987 3648 
Q 3987 3674 3994 3706 
Q 4096 3706 4195 3699 
Q 4294 3693 4371 3677 
Q 4448 3661 4493 3641 
Q 4538 3622 4538 3603 
Q 4538 3571 4506 3507 
Q 4474 3443 4461 3386 
Q 4454 3354 4451 3322 
Q 4448 3290 4442 3238 
Q 4435 3187 4412 3065 
Q 4390 2944 4358 2739 
L 4243 2125 
L 4704 2125 
Q 4890 2125 5050 2137 
Q 5210 2150 5338 2163 
L 5338 1702 
Q 5235 1709 5161 1712 
Q 5088 1715 5024 1715 
Q 4563 1734 4442 1734 
L 3456 1734 
L 3443 1094 
L 3456 486 
L 4685 493 
L 6029 538 
L 6029 83 
z
M 5344 4026 
Q 5210 4032 5098 4032 
Q 4986 4032 4896 4032 
Q 4275 4045 3859 4051 
Q 3443 4058 3226 4058 
Q 2982 4058 2649 4051 
Q 2317 4045 1875 4032 
Q 1722 4026 1507 4019 
Q 1293 4013 1011 4000 
L 1011 4448 
Q 1459 4435 2022 4422 
Q 2586 4410 3226 4410 
Q 3706 4410 4058 4413 
Q 4410 4416 4627 4422 
Q 4845 4435 5021 4444 
Q 5197 4454 5344 4467 
L 5344 4026 
z
" transform="scale(0.015625)"/>
      <path id="AppleGothic-cc28" d="M 4083 1082 
Q 4032 1037 3990 1005 
Q 3949 973 3923 947 
Q 3834 877 3786 835 
Q 3738 794 3731 787 
Q 3654 832 3584 877 
Q 3398 998 3219 1158 
Q 3040 1318 2867 1523 
Q 2598 1837 2419 2189 
Q 2387 2246 2358 2313 
Q 2330 2381 2298 2464 
Q 2234 2278 2163 2144 
Q 2054 1952 1926 1766 
Q 1798 1581 1638 1408 
Q 1510 1261 1356 1120 
Q 1203 979 1024 832 
Q 966 781 892 726 
Q 819 672 723 602 
Q 717 608 669 640 
Q 621 672 518 730 
Q 326 851 326 877 
L 339 902 
Q 1062 1248 1587 2003 
Q 2138 2771 2138 3558 
L 1299 3578 
Q 1107 3578 985 3578 
Q 864 3578 800 3571 
Q 736 3571 688 3568 
Q 640 3565 589 3558 
L 589 3949 
L 2291 3949 
Q 2906 3949 3318 3961 
Q 3731 3974 4032 3987 
L 4032 3597 
L 3373 3597 
Q 3117 3597 2790 3578 
Q 2758 3578 2716 3574 
Q 2675 3571 2624 3565 
Q 2624 3514 2617 3440 
Q 2611 3366 2598 3264 
Q 2586 3155 2579 3091 
Q 2573 3027 2573 2995 
Q 2605 2886 2630 2803 
Q 2656 2720 2682 2650 
Q 2765 2445 2864 2272 
Q 2963 2099 3091 1952 
Q 3258 1766 3424 1603 
Q 3590 1440 3770 1312 
Q 3827 1267 3897 1225 
Q 3968 1184 4058 1133 
Q 4077 1114 4083 1082 
z
M 6022 2138 
Q 5933 2150 5808 2156 
Q 5683 2163 5523 2163 
Q 5382 2163 5203 2144 
Q 5190 2144 5168 2141 
Q 5146 2138 5114 2131 
L 5101 115 
L 5114 -506 
L 4640 -544 
L 4666 2579 
L 4659 5190 
L 4806 5190 
Q 4973 5190 5075 5174 
Q 5178 5158 5178 5101 
Q 5178 5082 5152 5008 
Q 5126 4934 5126 4883 
Q 5120 4794 5113 4554 
Q 5107 4314 5107 4006 
L 5107 2541 
L 5549 2534 
L 6022 2547 
L 6022 2138 
z
M 3091 4576 
L 2272 4589 
L 1581 4570 
L 1581 4960 
L 2234 4947 
L 3091 4966 
L 3091 4576 
z
" transform="scale(0.015625)"/>
     </defs>
     <use xlink:href="#AppleGothic-d488"/>
     <use xlink:href="#AppleGothic-c885" transform="translate(99.999985 0)"/>
     <use xlink:href="#AppleGothic-bcc4" transform="translate(199.999969 0)"/>
     <use xlink:href="#AppleGothic-20" transform="translate(299.999954 0)"/>
     <use xlink:href="#AppleGothic-af43" transform="translate(331.999939 0)"/>
     <use xlink:href="#AppleGothic-c78e" transform="translate(431.999924 0)"/>
     <use xlink:href="#AppleGothic-20" transform="translate(531.999908 0)"/>
     <use xlink:href="#AppleGothic-ae38" transform="translate(563.999893 0)"/>
     <use xlink:href="#AppleGothic-c774" transform="translate(663.999878 0)"/>
     <use xlink:href="#AppleGothic-28" transform="translate(763.999863 0)"/>
     <use xlink:href="#AppleGothic-50" transform="translate(813.999847 0)"/>
     <use xlink:href="#AppleGothic-65" transform="translate(874.299835 0)"/>
     <use xlink:href="#AppleGothic-74" transform="translate(929.199829 0)"/>
     <use xlink:href="#AppleGothic-61" transform="translate(963.399826 0)"/>
     <use xlink:href="#AppleGothic-6c" transform="translate(1019.899811 0)"/>
     <use xlink:href="#AppleGothic-20" transform="translate(1036.599808 0)"/>
     <use xlink:href="#AppleGothic-4c" transform="translate(1068.599792 0)"/>
     <use xlink:href="#AppleGothic-65" transform="translate(1123.799789 0)"/>
     <use xlink:href="#AppleGothic-6e" transform="translate(1178.699783 0)"/>
     <use xlink:href="#AppleGothic-67" transform="translate(1234.599777 0)"/>
     <use xlink:href="#AppleGothic-74" transform="translate(1290.799774 0)"/>
     <use xlink:href="#AppleGothic-68" transform="translate(1324.999771 0)"/>
     <use xlink:href="#AppleGothic-29" transform="translate(1377.199768 0)"/>
     <use xlink:href="#AppleGothic-c758" transform="translate(1427.199753 0)"/>
     <use xlink:href="#AppleGothic-20" transform="translate(1527.199738 0)"/>
     <use xlink:href="#AppleGothic-bd84" transform="translate(1559.199722 0)"/>
     <use xlink:href="#AppleGothic-d3ec" transform="translate(1659.199707 0)"/>
     <use xlink:href="#AppleGothic-20" transform="translate(1759.199692 0)"/>
     <use xlink:href="#AppleGothic-cc28" transform="translate(1791.199677 0)"/>
     <use xlink:href="#AppleGothic-c774" transform="translate(1891.199661 0)"/>
    </g>
   </g>
   <g id="legend_1">
    <g id="patch_7">
     <path d="M 517.757812 89.628437 
L 592.779688 89.628437 
Q 594.779688 89.628437 594.779688 87.628437 
L 594.779688 30.064375 
Q 594.779688 28.064375 592.779688 28.064375 
L 517.757812 28.064375 
Q 515.757812 28.064375 515.757812 30.064375 
L 515.757812 87.628437 
Q 515.757812 89.628437 517.757812 89.628437 
z
" style="fill: #ffffff; opacity: 0.8; stroke: #cccccc; stroke-linejoin: miter"/>
    </g>
    <g id="text_20">
     <!-- species -->
     <g transform="translate(538.657812 39.905) scale(0.1 -0.1)">
      <defs>
       <path id="AppleGothic-70" d="M 736 307 
L 736 -1101 
L 288 -1101 
L 288 3424 
L 704 3424 
L 730 2803 
Q 941 3149 1216 3325 
Q 1491 3501 1882 3501 
Q 2522 3501 2944 3002 
Q 3162 2752 3270 2441 
Q 3379 2131 3379 1747 
Q 3379 954 2899 435 
Q 2419 -83 1754 -83 
Q 1421 -83 1139 58 
Q 1056 90 960 154 
Q 864 218 736 307 
z
M 736 1824 
L 736 800 
Q 838 704 924 637 
Q 1011 570 1082 525 
Q 1395 339 1715 339 
Q 2227 339 2554 742 
Q 2886 1165 2886 1766 
Q 2886 2330 2579 2707 
Q 2278 3085 1811 3085 
Q 1331 3085 1018 2669 
Q 736 2291 736 1824 
z
" transform="scale(0.015625)"/>
      </defs>
      <use xlink:href="#AppleGothic-73"/>
      <use xlink:href="#AppleGothic-70" transform="translate(49.599991 0)"/>
      <use xlink:href="#AppleGothic-65" transform="translate(104.999985 0)"/>
      <use xlink:href="#AppleGothic-63" transform="translate(159.899979 0)"/>
      <use xlink:href="#AppleGothic-69" transform="translate(211.799973 0)"/>
      <use xlink:href="#AppleGothic-65" transform="translate(227.699966 0)"/>
      <use xlink:href="#AppleGothic-73" transform="translate(282.59996 0)"/>
     </g>
    </g>
    <g id="patch_8">
     <path d="M 519.757812 54.465937 
L 539.757812 54.465937 
L 539.757812 47.465937 
L 519.757812 47.465937 
z
" style="fill: #f77189; fill-opacity: 0.4; stroke: #f77189; stroke-linejoin: miter"/>
    </g>
    <g id="text_21">
     <!-- setosa -->
     <g transform="translate(547.757812 54.465937) scale(0.1 -0.1)">
      <use xlink:href="#AppleGothic-73"/>
      <use xlink:href="#AppleGothic-65" transform="translate(49.599991 0)"/>
      <use xlink:href="#AppleGothic-74" transform="translate(104.499985 0)"/>
      <use xlink:href="#AppleGothic-6f" transform="translate(138.699982 0)"/>
      <use xlink:href="#AppleGothic-73" transform="translate(196.999969 0)"/>
      <use xlink:href="#AppleGothic-61" transform="translate(246.59996 0)"/>
     </g>
    </g>
    <g id="patch_9">
     <path d="M 519.757812 69.026875 
L 539.757812 69.026875 
L 539.757812 62.026875 
L 519.757812 62.026875 
z
" style="fill: #bb9832; fill-opacity: 0.4; stroke: #bb9832; stroke-linejoin: miter"/>
    </g>
    <g id="text_22">
     <!-- versicolor -->
     <g transform="translate(547.757812 69.026875) scale(0.1 -0.1)">
      <defs>
       <path id="AppleGothic-76" d="M 109 3424 
L 627 3424 
L 1715 486 
L 2829 3424 
L 3290 3424 
L 1920 0 
L 1478 0 
L 109 3424 
z
" transform="scale(0.015625)"/>
       <path id="AppleGothic-72" d="M 2125 3424 
L 2125 2963 
Q 2054 2989 2009 3005 
Q 1965 3021 1933 3027 
Q 1901 3034 1865 3037 
Q 1830 3040 1773 3040 
Q 1306 3040 1005 2586 
Q 749 2170 749 1658 
L 749 0 
L 288 0 
L 288 3424 
L 710 3424 
L 742 2835 
Q 902 3104 1043 3219 
Q 1331 3456 1734 3456 
Q 1843 3456 1936 3449 
Q 2029 3443 2125 3424 
z
" transform="scale(0.015625)"/>
      </defs>
      <use xlink:href="#AppleGothic-76"/>
      <use xlink:href="#AppleGothic-65" transform="translate(54.199997 0)"/>
      <use xlink:href="#AppleGothic-72" transform="translate(109.099991 0)"/>
      <use xlink:href="#AppleGothic-73" transform="translate(144.299988 0)"/>
      <use xlink:href="#AppleGothic-69" transform="translate(193.899979 0)"/>
      <use xlink:href="#AppleGothic-63" transform="translate(209.799973 0)"/>
      <use xlink:href="#AppleGothic-6f" transform="translate(261.699966 0)"/>
      <use xlink:href="#AppleGothic-6c" transform="translate(319.999954 0)"/>
      <use xlink:href="#AppleGothic-6f" transform="translate(336.699951 0)"/>
      <use xlink:href="#AppleGothic-72" transform="translate(394.999939 0)"/>
     </g>
    </g>
    <g id="patch_10">
     <path d="M 519.757812 83.587812 
L 539.757812 83.587812 
L 539.757812 76.587812 
L 519.757812 76.587812 
z
" style="fill: #50b131; fill-opacity: 0.4; stroke: #50b131; stroke-linejoin: miter"/>
    </g>
    <g id="text_23">
     <!-- virginica -->
     <g transform="translate(547.757812 83.587812) scale(0.1 -0.1)">
      <use xlink:href="#AppleGothic-76"/>
      <use xlink:href="#AppleGothic-69" transform="translate(54.199997 0)"/>
      <use xlink:href="#AppleGothic-72" transform="translate(70.099991 0)"/>
      <use xlink:href="#AppleGothic-67" transform="translate(105.299988 0)"/>
      <use xlink:href="#AppleGothic-69" transform="translate(161.499985 0)"/>
      <use xlink:href="#AppleGothic-6e" transform="translate(177.399979 0)"/>
      <use xlink:href="#AppleGothic-69" transform="translate(233.299973 0)"/>
      <use xlink:href="#AppleGothic-63" transform="translate(249.199966 0)"/>
      <use xlink:href="#AppleGothic-61" transform="translate(301.09996 0)"/>
     </g>
    </g>
   </g>
  </g>
 </g>
 <defs>
  <clipPath id="pfe8c0e71c0">
   <rect x="41.779688" y="23.064375" width="558" height="332.64"/>
  </clipPath>
 </defs>
</svg>
