<?xml version="1.0" encoding="utf-8" standalone="no"?>
<!DOCTYPE svg PUBLIC "-//W3C//DTD SVG 1.1//EN"
  "http://www.w3.org/Graphics/SVG/1.1/DTD/svg11.dtd">
<svg xmlns:xlink="http://www.w3.org/1999/xlink" width="554.210938pt" height="448.46625pt" viewBox="0 0 554.210938 448.46625" xmlns="http://www.w3.org/2000/svg" version="1.1">
 <metadata>
  <rdf:RDF xmlns:dc="http://purl.org/dc/elements/1.1/" xmlns:cc="http://creativecommons.org/ns#" xmlns:rdf="http://www.w3.org/1999/02/22-rdf-syntax-ns#">
   <cc:Work>
    <dc:type rdf:resource="http://purl.org/dc/dcmitype/StillImage"/>
    <dc:date>2026-05-22T02:33:53.269139</dc:date>
    <dc:format>image/svg+xml</dc:format>
    <dc:creator>
     <cc:Agent>
      <dc:title>Matplotlib v3.10.9, https://matplotlib.org/</dc:title>
     </cc:Agent>
    </dc:creator>
   </cc:Work>
  </rdf:RDF>
 </metadata>
 <defs>
  <style type="text/css">*{stroke-linejoin: round; stroke-linecap: butt}</style>
 </defs>
 <g id="figure_1">
  <g id="patch_1">
   <path d="M 0 448.46625 
L 554.210938 448.46625 
L 554.210938 0 
L 0 0 
z
" style="fill: #ffffff"/>
  </g>
  <g id="axes_1">
   <g id="patch_2">
    <path d="M 44.810938 411.144375 
L 547.010938 411.144375 
L 547.010938 23.064375 
L 44.810938 23.064375 
z
" style="fill: #ffffff"/>
   </g>
   <g id="PathCollection_1">
    <defs>
     <path id="C0_0_2af94c5ac7" d="M 0 5 
C 1.326016 5 2.597899 4.473168 3.535534 3.535534 
C 4.473168 2.597899 5 1.326016 5 -0 
C 5 -1.326016 4.473168 -2.597899 3.535534 -3.535534 
C 2.597899 -4.473168 1.326016 -5 0 -5 
C -1.326016 -5 -2.597899 -4.473168 -3.535534 -3.535534 
C -4.473168 -2.597899 -5 -1.326016 -5 0 
C -5 1.326016 -4.473168 2.597899 -3.535534 3.535534 
C -2.597899 4.473168 -1.326016 5 0 5 
z
"/>
    </defs>
    <g clip-path="url(#pfaea29b557)">
     <use xlink:href="#C0_0_2af94c5ac7" x="98.590444" y="378.804375" style="fill: #f77189; fill-opacity: 0.8; stroke: #ffffff; stroke-opacity: 0.8; stroke-width: 0.8"/>
    </g>
    <g clip-path="url(#pfaea29b557)">
     <use xlink:href="#C0_0_2af94c5ac7" x="98.590444" y="378.804375" style="fill: #f77189; fill-opacity: 0.8; stroke: #ffffff; stroke-opacity: 0.8; stroke-width: 0.8"/>
    </g>
    <g clip-path="url(#pfaea29b557)">
     <use xlink:href="#C0_0_2af94c5ac7" x="90.852386" y="378.804375" style="fill: #f77189; fill-opacity: 0.8; stroke: #ffffff; stroke-opacity: 0.8; stroke-width: 0.8"/>
    </g>
    <g clip-path="url(#pfaea29b557)">
     <use xlink:href="#C0_0_2af94c5ac7" x="106.328503" y="378.804375" style="fill: #f77189; fill-opacity: 0.8; stroke: #ffffff; stroke-opacity: 0.8; stroke-width: 0.8"/>
    </g>
    <g clip-path="url(#pfaea29b557)">
     <use xlink:href="#C0_0_2af94c5ac7" x="98.590444" y="378.804375" style="fill: #f77189; fill-opacity: 0.8; stroke: #ffffff; stroke-opacity: 0.8; stroke-width: 0.8"/>
    </g>
    <g clip-path="url(#pfaea29b557)">
     <use xlink:href="#C0_0_2af94c5ac7" x="121.80462" y="349.404375" style="fill: #f77189; fill-opacity: 0.8; stroke: #ffffff; stroke-opacity: 0.8; stroke-width: 0.8"/>
    </g>
    <g clip-path="url(#pfaea29b557)">
     <use xlink:href="#C0_0_2af94c5ac7" x="98.590444" y="364.104375" style="fill: #f77189; fill-opacity: 0.8; stroke: #ffffff; stroke-opacity: 0.8; stroke-width: 0.8"/>
    </g>
    <g clip-path="url(#pfaea29b557)">
     <use xlink:href="#C0_0_2af94c5ac7" x="106.328503" y="378.804375" style="fill: #f77189; fill-opacity: 0.8; stroke: #ffffff; stroke-opacity: 0.8; stroke-width: 0.8"/>
    </g>
    <g clip-path="url(#pfaea29b557)">
     <use xlink:href="#C0_0_2af94c5ac7" x="98.590444" y="378.804375" style="fill: #f77189; fill-opacity: 0.8; stroke: #ffffff; stroke-opacity: 0.8; stroke-width: 0.8"/>
    </g>
    <g clip-path="url(#pfaea29b557)">
     <use xlink:href="#C0_0_2af94c5ac7" x="106.328503" y="393.504375" style="fill: #f77189; fill-opacity: 0.8; stroke: #ffffff; stroke-opacity: 0.8; stroke-width: 0.8"/>
    </g>
    <g clip-path="url(#pfaea29b557)">
     <use xlink:href="#C0_0_2af94c5ac7" x="106.328503" y="378.804375" style="fill: #f77189; fill-opacity: 0.8; stroke: #ffffff; stroke-opacity: 0.8; stroke-width: 0.8"/>
    </g>
    <g clip-path="url(#pfaea29b557)">
     <use xlink:href="#C0_0_2af94c5ac7" x="114.066562" y="378.804375" style="fill: #f77189; fill-opacity: 0.8; stroke: #ffffff; stroke-opacity: 0.8; stroke-width: 0.8"/>
    </g>
    <g clip-path="url(#pfaea29b557)">
     <use xlink:href="#C0_0_2af94c5ac7" x="98.590444" y="393.504375" style="fill: #f77189; fill-opacity: 0.8; stroke: #ffffff; stroke-opacity: 0.8; stroke-width: 0.8"/>
    </g>
    <g clip-path="url(#pfaea29b557)">
     <use xlink:href="#C0_0_2af94c5ac7" x="75.376269" y="393.504375" style="fill: #f77189; fill-opacity: 0.8; stroke: #ffffff; stroke-opacity: 0.8; stroke-width: 0.8"/>
    </g>
    <g clip-path="url(#pfaea29b557)">
     <use xlink:href="#C0_0_2af94c5ac7" x="83.114327" y="378.804375" style="fill: #f77189; fill-opacity: 0.8; stroke: #ffffff; stroke-opacity: 0.8; stroke-width: 0.8"/>
    </g>
    <g clip-path="url(#pfaea29b557)">
     <use xlink:href="#C0_0_2af94c5ac7" x="106.328503" y="349.404375" style="fill: #f77189; fill-opacity: 0.8; stroke: #ffffff; stroke-opacity: 0.8; stroke-width: 0.8"/>
    </g>
    <g clip-path="url(#pfaea29b557)">
     <use xlink:href="#C0_0_2af94c5ac7" x="90.852386" y="349.404375" style="fill: #f77189; fill-opacity: 0.8; stroke: #ffffff; stroke-opacity: 0.8; stroke-width: 0.8"/>
    </g>
    <g clip-path="url(#pfaea29b557)">
     <use xlink:href="#C0_0_2af94c5ac7" x="98.590444" y="364.104375" style="fill: #f77189; fill-opacity: 0.8; stroke: #ffffff; stroke-opacity: 0.8; stroke-width: 0.8"/>
    </g>
    <g clip-path="url(#pfaea29b557)">
     <use xlink:href="#C0_0_2af94c5ac7" x="121.80462" y="364.104375" style="fill: #f77189; fill-opacity: 0.8; stroke: #ffffff; stroke-opacity: 0.8; stroke-width: 0.8"/>
    </g>
    <g clip-path="url(#pfaea29b557)">
     <use xlink:href="#C0_0_2af94c5ac7" x="106.328503" y="364.104375" style="fill: #f77189; fill-opacity: 0.8; stroke: #ffffff; stroke-opacity: 0.8; stroke-width: 0.8"/>
    </g>
    <g clip-path="url(#pfaea29b557)">
     <use xlink:href="#C0_0_2af94c5ac7" x="121.80462" y="378.804375" style="fill: #f77189; fill-opacity: 0.8; stroke: #ffffff; stroke-opacity: 0.8; stroke-width: 0.8"/>
    </g>
    <g clip-path="url(#pfaea29b557)">
     <use xlink:href="#C0_0_2af94c5ac7" x="106.328503" y="349.404375" style="fill: #f77189; fill-opacity: 0.8; stroke: #ffffff; stroke-opacity: 0.8; stroke-width: 0.8"/>
    </g>
    <g clip-path="url(#pfaea29b557)">
     <use xlink:href="#C0_0_2af94c5ac7" x="67.63821" y="378.804375" style="fill: #f77189; fill-opacity: 0.8; stroke: #ffffff; stroke-opacity: 0.8; stroke-width: 0.8"/>
    </g>
    <g clip-path="url(#pfaea29b557)">
     <use xlink:href="#C0_0_2af94c5ac7" x="121.80462" y="334.704375" style="fill: #f77189; fill-opacity: 0.8; stroke: #ffffff; stroke-opacity: 0.8; stroke-width: 0.8"/>
    </g>
    <g clip-path="url(#pfaea29b557)">
     <use xlink:href="#C0_0_2af94c5ac7" x="137.280737" y="378.804375" style="fill: #f77189; fill-opacity: 0.8; stroke: #ffffff; stroke-opacity: 0.8; stroke-width: 0.8"/>
    </g>
    <g clip-path="url(#pfaea29b557)">
     <use xlink:href="#C0_0_2af94c5ac7" x="114.066562" y="378.804375" style="fill: #f77189; fill-opacity: 0.8; stroke: #ffffff; stroke-opacity: 0.8; stroke-width: 0.8"/>
    </g>
    <g clip-path="url(#pfaea29b557)">
     <use xlink:href="#C0_0_2af94c5ac7" x="114.066562" y="349.404375" style="fill: #f77189; fill-opacity: 0.8; stroke: #ffffff; stroke-opacity: 0.8; stroke-width: 0.8"/>
    </g>
    <g clip-path="url(#pfaea29b557)">
     <use xlink:href="#C0_0_2af94c5ac7" x="106.328503" y="378.804375" style="fill: #f77189; fill-opacity: 0.8; stroke: #ffffff; stroke-opacity: 0.8; stroke-width: 0.8"/>
    </g>
    <g clip-path="url(#pfaea29b557)">
     <use xlink:href="#C0_0_2af94c5ac7" x="98.590444" y="378.804375" style="fill: #f77189; fill-opacity: 0.8; stroke: #ffffff; stroke-opacity: 0.8; stroke-width: 0.8"/>
    </g>
    <g clip-path="url(#pfaea29b557)">
     <use xlink:href="#C0_0_2af94c5ac7" x="114.066562" y="378.804375" style="fill: #f77189; fill-opacity: 0.8; stroke: #ffffff; stroke-opacity: 0.8; stroke-width: 0.8"/>
    </g>
    <g clip-path="url(#pfaea29b557)">
     <use xlink:href="#C0_0_2af94c5ac7" x="114.066562" y="378.804375" style="fill: #f77189; fill-opacity: 0.8; stroke: #ffffff; stroke-opacity: 0.8; stroke-width: 0.8"/>
    </g>
    <g clip-path="url(#pfaea29b557)">
     <use xlink:href="#C0_0_2af94c5ac7" x="106.328503" y="349.404375" style="fill: #f77189; fill-opacity: 0.8; stroke: #ffffff; stroke-opacity: 0.8; stroke-width: 0.8"/>
    </g>
    <g clip-path="url(#pfaea29b557)">
     <use xlink:href="#C0_0_2af94c5ac7" x="106.328503" y="393.504375" style="fill: #f77189; fill-opacity: 0.8; stroke: #ffffff; stroke-opacity: 0.8; stroke-width: 0.8"/>
    </g>
    <g clip-path="url(#pfaea29b557)">
     <use xlink:href="#C0_0_2af94c5ac7" x="98.590444" y="378.804375" style="fill: #f77189; fill-opacity: 0.8; stroke: #ffffff; stroke-opacity: 0.8; stroke-width: 0.8"/>
    </g>
    <g clip-path="url(#pfaea29b557)">
     <use xlink:href="#C0_0_2af94c5ac7" x="106.328503" y="378.804375" style="fill: #f77189; fill-opacity: 0.8; stroke: #ffffff; stroke-opacity: 0.8; stroke-width: 0.8"/>
    </g>
    <g clip-path="url(#pfaea29b557)">
     <use xlink:href="#C0_0_2af94c5ac7" x="83.114327" y="378.804375" style="fill: #f77189; fill-opacity: 0.8; stroke: #ffffff; stroke-opacity: 0.8; stroke-width: 0.8"/>
    </g>
    <g clip-path="url(#pfaea29b557)">
     <use xlink:href="#C0_0_2af94c5ac7" x="90.852386" y="378.804375" style="fill: #f77189; fill-opacity: 0.8; stroke: #ffffff; stroke-opacity: 0.8; stroke-width: 0.8"/>
    </g>
    <g clip-path="url(#pfaea29b557)">
     <use xlink:href="#C0_0_2af94c5ac7" x="98.590444" y="393.504375" style="fill: #f77189; fill-opacity: 0.8; stroke: #ffffff; stroke-opacity: 0.8; stroke-width: 0.8"/>
    </g>
    <g clip-path="url(#pfaea29b557)">
     <use xlink:href="#C0_0_2af94c5ac7" x="90.852386" y="378.804375" style="fill: #f77189; fill-opacity: 0.8; stroke: #ffffff; stroke-opacity: 0.8; stroke-width: 0.8"/>
    </g>
    <g clip-path="url(#pfaea29b557)">
     <use xlink:href="#C0_0_2af94c5ac7" x="106.328503" y="378.804375" style="fill: #f77189; fill-opacity: 0.8; stroke: #ffffff; stroke-opacity: 0.8; stroke-width: 0.8"/>
    </g>
    <g clip-path="url(#pfaea29b557)">
     <use xlink:href="#C0_0_2af94c5ac7" x="90.852386" y="364.104375" style="fill: #f77189; fill-opacity: 0.8; stroke: #ffffff; stroke-opacity: 0.8; stroke-width: 0.8"/>
    </g>
    <g clip-path="url(#pfaea29b557)">
     <use xlink:href="#C0_0_2af94c5ac7" x="90.852386" y="364.104375" style="fill: #f77189; fill-opacity: 0.8; stroke: #ffffff; stroke-opacity: 0.8; stroke-width: 0.8"/>
    </g>
    <g clip-path="url(#pfaea29b557)">
     <use xlink:href="#C0_0_2af94c5ac7" x="90.852386" y="378.804375" style="fill: #f77189; fill-opacity: 0.8; stroke: #ffffff; stroke-opacity: 0.8; stroke-width: 0.8"/>
    </g>
    <g clip-path="url(#pfaea29b557)">
     <use xlink:href="#C0_0_2af94c5ac7" x="114.066562" y="320.004375" style="fill: #f77189; fill-opacity: 0.8; stroke: #ffffff; stroke-opacity: 0.8; stroke-width: 0.8"/>
    </g>
    <g clip-path="url(#pfaea29b557)">
     <use xlink:href="#C0_0_2af94c5ac7" x="137.280737" y="349.404375" style="fill: #f77189; fill-opacity: 0.8; stroke: #ffffff; stroke-opacity: 0.8; stroke-width: 0.8"/>
    </g>
    <g clip-path="url(#pfaea29b557)">
     <use xlink:href="#C0_0_2af94c5ac7" x="98.590444" y="364.104375" style="fill: #f77189; fill-opacity: 0.8; stroke: #ffffff; stroke-opacity: 0.8; stroke-width: 0.8"/>
    </g>
    <g clip-path="url(#pfaea29b557)">
     <use xlink:href="#C0_0_2af94c5ac7" x="114.066562" y="378.804375" style="fill: #f77189; fill-opacity: 0.8; stroke: #ffffff; stroke-opacity: 0.8; stroke-width: 0.8"/>
    </g>
    <g clip-path="url(#pfaea29b557)">
     <use xlink:href="#C0_0_2af94c5ac7" x="98.590444" y="378.804375" style="fill: #f77189; fill-opacity: 0.8; stroke: #ffffff; stroke-opacity: 0.8; stroke-width: 0.8"/>
    </g>
    <g clip-path="url(#pfaea29b557)">
     <use xlink:href="#C0_0_2af94c5ac7" x="106.328503" y="378.804375" style="fill: #f77189; fill-opacity: 0.8; stroke: #ffffff; stroke-opacity: 0.8; stroke-width: 0.8"/>
    </g>
    <g clip-path="url(#pfaea29b557)">
     <use xlink:href="#C0_0_2af94c5ac7" x="98.590444" y="378.804375" style="fill: #f77189; fill-opacity: 0.8; stroke: #ffffff; stroke-opacity: 0.8; stroke-width: 0.8"/>
    </g>
    <g clip-path="url(#pfaea29b557)">
     <use xlink:href="#C0_0_2af94c5ac7" x="353.946377" y="202.404375" style="fill: #bb9832; fill-opacity: 0.8; stroke: #ffffff; stroke-opacity: 0.8; stroke-width: 0.8"/>
    </g>
    <g clip-path="url(#pfaea29b557)">
     <use xlink:href="#C0_0_2af94c5ac7" x="338.47026" y="187.704375" style="fill: #bb9832; fill-opacity: 0.8; stroke: #ffffff; stroke-opacity: 0.8; stroke-width: 0.8"/>
    </g>
    <g clip-path="url(#pfaea29b557)">
     <use xlink:href="#C0_0_2af94c5ac7" x="369.422494" y="187.704375" style="fill: #bb9832; fill-opacity: 0.8; stroke: #ffffff; stroke-opacity: 0.8; stroke-width: 0.8"/>
    </g>
    <g clip-path="url(#pfaea29b557)">
     <use xlink:href="#C0_0_2af94c5ac7" x="299.779967" y="217.104375" style="fill: #bb9832; fill-opacity: 0.8; stroke: #ffffff; stroke-opacity: 0.8; stroke-width: 0.8"/>
    </g>
    <g clip-path="url(#pfaea29b557)">
     <use xlink:href="#C0_0_2af94c5ac7" x="346.208318" y="187.704375" style="fill: #bb9832; fill-opacity: 0.8; stroke: #ffffff; stroke-opacity: 0.8; stroke-width: 0.8"/>
    </g>
    <g clip-path="url(#pfaea29b557)">
     <use xlink:href="#C0_0_2af94c5ac7" x="338.47026" y="217.104375" style="fill: #bb9832; fill-opacity: 0.8; stroke: #ffffff; stroke-opacity: 0.8; stroke-width: 0.8"/>
    </g>
    <g clip-path="url(#pfaea29b557)">
     <use xlink:href="#C0_0_2af94c5ac7" x="353.946377" y="173.004375" style="fill: #bb9832; fill-opacity: 0.8; stroke: #ffffff; stroke-opacity: 0.8; stroke-width: 0.8"/>
    </g>
    <g clip-path="url(#pfaea29b557)">
     <use xlink:href="#C0_0_2af94c5ac7" x="245.613557" y="261.204375" style="fill: #bb9832; fill-opacity: 0.8; stroke: #ffffff; stroke-opacity: 0.8; stroke-width: 0.8"/>
    </g>
    <g clip-path="url(#pfaea29b557)">
     <use xlink:href="#C0_0_2af94c5ac7" x="346.208318" y="217.104375" style="fill: #bb9832; fill-opacity: 0.8; stroke: #ffffff; stroke-opacity: 0.8; stroke-width: 0.8"/>
    </g>
    <g clip-path="url(#pfaea29b557)">
     <use xlink:href="#C0_0_2af94c5ac7" x="292.041908" y="202.404375" style="fill: #bb9832; fill-opacity: 0.8; stroke: #ffffff; stroke-opacity: 0.8; stroke-width: 0.8"/>
    </g>
    <g clip-path="url(#pfaea29b557)">
     <use xlink:href="#C0_0_2af94c5ac7" x="261.089674" y="261.204375" style="fill: #bb9832; fill-opacity: 0.8; stroke: #ffffff; stroke-opacity: 0.8; stroke-width: 0.8"/>
    </g>
    <g clip-path="url(#pfaea29b557)">
     <use xlink:href="#C0_0_2af94c5ac7" x="315.256084" y="187.704375" style="fill: #bb9832; fill-opacity: 0.8; stroke: #ffffff; stroke-opacity: 0.8; stroke-width: 0.8"/>
    </g>
    <g clip-path="url(#pfaea29b557)">
     <use xlink:href="#C0_0_2af94c5ac7" x="299.779967" y="261.204375" style="fill: #bb9832; fill-opacity: 0.8; stroke: #ffffff; stroke-opacity: 0.8; stroke-width: 0.8"/>
    </g>
    <g clip-path="url(#pfaea29b557)">
     <use xlink:href="#C0_0_2af94c5ac7" x="353.946377" y="202.404375" style="fill: #bb9832; fill-opacity: 0.8; stroke: #ffffff; stroke-opacity: 0.8; stroke-width: 0.8"/>
    </g>
    <g clip-path="url(#pfaea29b557)">
     <use xlink:href="#C0_0_2af94c5ac7" x="268.827733" y="217.104375" style="fill: #bb9832; fill-opacity: 0.8; stroke: #ffffff; stroke-opacity: 0.8; stroke-width: 0.8"/>
    </g>
    <g clip-path="url(#pfaea29b557)">
     <use xlink:href="#C0_0_2af94c5ac7" x="330.732201" y="202.404375" style="fill: #bb9832; fill-opacity: 0.8; stroke: #ffffff; stroke-opacity: 0.8; stroke-width: 0.8"/>
    </g>
    <g clip-path="url(#pfaea29b557)">
     <use xlink:href="#C0_0_2af94c5ac7" x="338.47026" y="187.704375" style="fill: #bb9832; fill-opacity: 0.8; stroke: #ffffff; stroke-opacity: 0.8; stroke-width: 0.8"/>
    </g>
    <g clip-path="url(#pfaea29b557)">
     <use xlink:href="#C0_0_2af94c5ac7" x="307.518025" y="261.204375" style="fill: #bb9832; fill-opacity: 0.8; stroke: #ffffff; stroke-opacity: 0.8; stroke-width: 0.8"/>
    </g>
    <g clip-path="url(#pfaea29b557)">
     <use xlink:href="#C0_0_2af94c5ac7" x="338.47026" y="187.704375" style="fill: #bb9832; fill-opacity: 0.8; stroke: #ffffff; stroke-opacity: 0.8; stroke-width: 0.8"/>
    </g>
    <g clip-path="url(#pfaea29b557)">
     <use xlink:href="#C0_0_2af94c5ac7" x="292.041908" y="246.504375" style="fill: #bb9832; fill-opacity: 0.8; stroke: #ffffff; stroke-opacity: 0.8; stroke-width: 0.8"/>
    </g>
    <g clip-path="url(#pfaea29b557)">
     <use xlink:href="#C0_0_2af94c5ac7" x="361.684435" y="143.604375" style="fill: #bb9832; fill-opacity: 0.8; stroke: #ffffff; stroke-opacity: 0.8; stroke-width: 0.8"/>
    </g>
    <g clip-path="url(#pfaea29b557)">
     <use xlink:href="#C0_0_2af94c5ac7" x="299.779967" y="217.104375" style="fill: #bb9832; fill-opacity: 0.8; stroke: #ffffff; stroke-opacity: 0.8; stroke-width: 0.8"/>
    </g>
    <g clip-path="url(#pfaea29b557)">
     <use xlink:href="#C0_0_2af94c5ac7" x="369.422494" y="187.704375" style="fill: #bb9832; fill-opacity: 0.8; stroke: #ffffff; stroke-opacity: 0.8; stroke-width: 0.8"/>
    </g>
    <g clip-path="url(#pfaea29b557)">
     <use xlink:href="#C0_0_2af94c5ac7" x="353.946377" y="231.804375" style="fill: #bb9832; fill-opacity: 0.8; stroke: #ffffff; stroke-opacity: 0.8; stroke-width: 0.8"/>
    </g>
    <g clip-path="url(#pfaea29b557)">
     <use xlink:href="#C0_0_2af94c5ac7" x="322.994142" y="217.104375" style="fill: #bb9832; fill-opacity: 0.8; stroke: #ffffff; stroke-opacity: 0.8; stroke-width: 0.8"/>
    </g>
    <g clip-path="url(#pfaea29b557)">
     <use xlink:href="#C0_0_2af94c5ac7" x="330.732201" y="202.404375" style="fill: #bb9832; fill-opacity: 0.8; stroke: #ffffff; stroke-opacity: 0.8; stroke-width: 0.8"/>
    </g>
    <g clip-path="url(#pfaea29b557)">
     <use xlink:href="#C0_0_2af94c5ac7" x="361.684435" y="202.404375" style="fill: #bb9832; fill-opacity: 0.8; stroke: #ffffff; stroke-opacity: 0.8; stroke-width: 0.8"/>
    </g>
    <g clip-path="url(#pfaea29b557)">
     <use xlink:href="#C0_0_2af94c5ac7" x="377.160552" y="158.304375" style="fill: #bb9832; fill-opacity: 0.8; stroke: #ffffff; stroke-opacity: 0.8; stroke-width: 0.8"/>
    </g>
    <g clip-path="url(#pfaea29b557)">
     <use xlink:href="#C0_0_2af94c5ac7" x="338.47026" y="187.704375" style="fill: #bb9832; fill-opacity: 0.8; stroke: #ffffff; stroke-opacity: 0.8; stroke-width: 0.8"/>
    </g>
    <g clip-path="url(#pfaea29b557)">
     <use xlink:href="#C0_0_2af94c5ac7" x="261.089674" y="261.204375" style="fill: #bb9832; fill-opacity: 0.8; stroke: #ffffff; stroke-opacity: 0.8; stroke-width: 0.8"/>
    </g>
    <g clip-path="url(#pfaea29b557)">
     <use xlink:href="#C0_0_2af94c5ac7" x="284.30385" y="246.504375" style="fill: #bb9832; fill-opacity: 0.8; stroke: #ffffff; stroke-opacity: 0.8; stroke-width: 0.8"/>
    </g>
    <g clip-path="url(#pfaea29b557)">
     <use xlink:href="#C0_0_2af94c5ac7" x="276.565791" y="261.204375" style="fill: #bb9832; fill-opacity: 0.8; stroke: #ffffff; stroke-opacity: 0.8; stroke-width: 0.8"/>
    </g>
    <g clip-path="url(#pfaea29b557)">
     <use xlink:href="#C0_0_2af94c5ac7" x="292.041908" y="231.804375" style="fill: #bb9832; fill-opacity: 0.8; stroke: #ffffff; stroke-opacity: 0.8; stroke-width: 0.8"/>
    </g>
    <g clip-path="url(#pfaea29b557)">
     <use xlink:href="#C0_0_2af94c5ac7" x="384.898611" y="173.004375" style="fill: #bb9832; fill-opacity: 0.8; stroke: #ffffff; stroke-opacity: 0.8; stroke-width: 0.8"/>
    </g>
    <g clip-path="url(#pfaea29b557)">
     <use xlink:href="#C0_0_2af94c5ac7" x="338.47026" y="187.704375" style="fill: #bb9832; fill-opacity: 0.8; stroke: #ffffff; stroke-opacity: 0.8; stroke-width: 0.8"/>
    </g>
    <g clip-path="url(#pfaea29b557)">
     <use xlink:href="#C0_0_2af94c5ac7" x="338.47026" y="173.004375" style="fill: #bb9832; fill-opacity: 0.8; stroke: #ffffff; stroke-opacity: 0.8; stroke-width: 0.8"/>
    </g>
    <g clip-path="url(#pfaea29b557)">
     <use xlink:href="#C0_0_2af94c5ac7" x="353.946377" y="187.704375" style="fill: #bb9832; fill-opacity: 0.8; stroke: #ffffff; stroke-opacity: 0.8; stroke-width: 0.8"/>
    </g>
    <g clip-path="url(#pfaea29b557)">
     <use xlink:href="#C0_0_2af94c5ac7" x="330.732201" y="217.104375" style="fill: #bb9832; fill-opacity: 0.8; stroke: #ffffff; stroke-opacity: 0.8; stroke-width: 0.8"/>
    </g>
    <g clip-path="url(#pfaea29b557)">
     <use xlink:href="#C0_0_2af94c5ac7" x="307.518025" y="217.104375" style="fill: #bb9832; fill-opacity: 0.8; stroke: #ffffff; stroke-opacity: 0.8; stroke-width: 0.8"/>
    </g>
    <g clip-path="url(#pfaea29b557)">
     <use xlink:href="#C0_0_2af94c5ac7" x="299.779967" y="217.104375" style="fill: #bb9832; fill-opacity: 0.8; stroke: #ffffff; stroke-opacity: 0.8; stroke-width: 0.8"/>
    </g>
    <g clip-path="url(#pfaea29b557)">
     <use xlink:href="#C0_0_2af94c5ac7" x="330.732201" y="231.804375" style="fill: #bb9832; fill-opacity: 0.8; stroke: #ffffff; stroke-opacity: 0.8; stroke-width: 0.8"/>
    </g>
    <g clip-path="url(#pfaea29b557)">
     <use xlink:href="#C0_0_2af94c5ac7" x="346.208318" y="202.404375" style="fill: #bb9832; fill-opacity: 0.8; stroke: #ffffff; stroke-opacity: 0.8; stroke-width: 0.8"/>
    </g>
    <g clip-path="url(#pfaea29b557)">
     <use xlink:href="#C0_0_2af94c5ac7" x="299.779967" y="231.804375" style="fill: #bb9832; fill-opacity: 0.8; stroke: #ffffff; stroke-opacity: 0.8; stroke-width: 0.8"/>
    </g>
    <g clip-path="url(#pfaea29b557)">
     <use xlink:href="#C0_0_2af94c5ac7" x="245.613557" y="261.204375" style="fill: #bb9832; fill-opacity: 0.8; stroke: #ffffff; stroke-opacity: 0.8; stroke-width: 0.8"/>
    </g>
    <g clip-path="url(#pfaea29b557)">
     <use xlink:href="#C0_0_2af94c5ac7" x="315.256084" y="217.104375" style="fill: #bb9832; fill-opacity: 0.8; stroke: #ffffff; stroke-opacity: 0.8; stroke-width: 0.8"/>
    </g>
    <g clip-path="url(#pfaea29b557)">
     <use xlink:href="#C0_0_2af94c5ac7" x="315.256084" y="231.804375" style="fill: #bb9832; fill-opacity: 0.8; stroke: #ffffff; stroke-opacity: 0.8; stroke-width: 0.8"/>
    </g>
    <g clip-path="url(#pfaea29b557)">
     <use xlink:href="#C0_0_2af94c5ac7" x="315.256084" y="217.104375" style="fill: #bb9832; fill-opacity: 0.8; stroke: #ffffff; stroke-opacity: 0.8; stroke-width: 0.8"/>
    </g>
    <g clip-path="url(#pfaea29b557)">
     <use xlink:href="#C0_0_2af94c5ac7" x="322.994142" y="217.104375" style="fill: #bb9832; fill-opacity: 0.8; stroke: #ffffff; stroke-opacity: 0.8; stroke-width: 0.8"/>
    </g>
    <g clip-path="url(#pfaea29b557)">
     <use xlink:href="#C0_0_2af94c5ac7" x="222.399381" y="246.504375" style="fill: #bb9832; fill-opacity: 0.8; stroke: #ffffff; stroke-opacity: 0.8; stroke-width: 0.8"/>
    </g>
    <g clip-path="url(#pfaea29b557)">
     <use xlink:href="#C0_0_2af94c5ac7" x="307.518025" y="217.104375" style="fill: #bb9832; fill-opacity: 0.8; stroke: #ffffff; stroke-opacity: 0.8; stroke-width: 0.8"/>
    </g>
    <g clip-path="url(#pfaea29b557)">
     <use xlink:href="#C0_0_2af94c5ac7" x="454.541138" y="40.704375" style="fill: #50b131; fill-opacity: 0.8; stroke: #ffffff; stroke-opacity: 0.8; stroke-width: 0.8"/>
    </g>
    <g clip-path="url(#pfaea29b557)">
     <use xlink:href="#C0_0_2af94c5ac7" x="384.898611" y="128.904375" style="fill: #50b131; fill-opacity: 0.8; stroke: #ffffff; stroke-opacity: 0.8; stroke-width: 0.8"/>
    </g>
    <g clip-path="url(#pfaea29b557)">
     <use xlink:href="#C0_0_2af94c5ac7" x="446.803079" y="99.504375" style="fill: #50b131; fill-opacity: 0.8; stroke: #ffffff; stroke-opacity: 0.8; stroke-width: 0.8"/>
    </g>
    <g clip-path="url(#pfaea29b557)">
     <use xlink:href="#C0_0_2af94c5ac7" x="423.588904" y="143.604375" style="fill: #50b131; fill-opacity: 0.8; stroke: #ffffff; stroke-opacity: 0.8; stroke-width: 0.8"/>
    </g>
    <g clip-path="url(#pfaea29b557)">
     <use xlink:href="#C0_0_2af94c5ac7" x="439.065021" y="84.804375" style="fill: #50b131; fill-opacity: 0.8; stroke: #ffffff; stroke-opacity: 0.8; stroke-width: 0.8"/>
    </g>
    <g clip-path="url(#pfaea29b557)">
     <use xlink:href="#C0_0_2af94c5ac7" x="500.969489" y="99.504375" style="fill: #50b131; fill-opacity: 0.8; stroke: #ffffff; stroke-opacity: 0.8; stroke-width: 0.8"/>
    </g>
    <g clip-path="url(#pfaea29b557)">
     <use xlink:href="#C0_0_2af94c5ac7" x="338.47026" y="158.304375" style="fill: #50b131; fill-opacity: 0.8; stroke: #ffffff; stroke-opacity: 0.8; stroke-width: 0.8"/>
    </g>
    <g clip-path="url(#pfaea29b557)">
     <use xlink:href="#C0_0_2af94c5ac7" x="477.755313" y="143.604375" style="fill: #50b131; fill-opacity: 0.8; stroke: #ffffff; stroke-opacity: 0.8; stroke-width: 0.8"/>
    </g>
    <g clip-path="url(#pfaea29b557)">
     <use xlink:href="#C0_0_2af94c5ac7" x="439.065021" y="143.604375" style="fill: #50b131; fill-opacity: 0.8; stroke: #ffffff; stroke-opacity: 0.8; stroke-width: 0.8"/>
    </g>
    <g clip-path="url(#pfaea29b557)">
     <use xlink:href="#C0_0_2af94c5ac7" x="462.279196" y="40.704375" style="fill: #50b131; fill-opacity: 0.8; stroke: #ffffff; stroke-opacity: 0.8; stroke-width: 0.8"/>
    </g>
    <g clip-path="url(#pfaea29b557)">
     <use xlink:href="#C0_0_2af94c5ac7" x="384.898611" y="114.204375" style="fill: #50b131; fill-opacity: 0.8; stroke: #ffffff; stroke-opacity: 0.8; stroke-width: 0.8"/>
    </g>
    <g clip-path="url(#pfaea29b557)">
     <use xlink:href="#C0_0_2af94c5ac7" x="400.374728" y="128.904375" style="fill: #50b131; fill-opacity: 0.8; stroke: #ffffff; stroke-opacity: 0.8; stroke-width: 0.8"/>
    </g>
    <g clip-path="url(#pfaea29b557)">
     <use xlink:href="#C0_0_2af94c5ac7" x="415.850845" y="99.504375" style="fill: #50b131; fill-opacity: 0.8; stroke: #ffffff; stroke-opacity: 0.8; stroke-width: 0.8"/>
    </g>
    <g clip-path="url(#pfaea29b557)">
     <use xlink:href="#C0_0_2af94c5ac7" x="377.160552" y="114.204375" style="fill: #50b131; fill-opacity: 0.8; stroke: #ffffff; stroke-opacity: 0.8; stroke-width: 0.8"/>
    </g>
    <g clip-path="url(#pfaea29b557)">
     <use xlink:href="#C0_0_2af94c5ac7" x="384.898611" y="55.404375" style="fill: #50b131; fill-opacity: 0.8; stroke: #ffffff; stroke-opacity: 0.8; stroke-width: 0.8"/>
    </g>
    <g clip-path="url(#pfaea29b557)">
     <use xlink:href="#C0_0_2af94c5ac7" x="400.374728" y="70.104375" style="fill: #50b131; fill-opacity: 0.8; stroke: #ffffff; stroke-opacity: 0.8; stroke-width: 0.8"/>
    </g>
    <g clip-path="url(#pfaea29b557)">
     <use xlink:href="#C0_0_2af94c5ac7" x="415.850845" y="143.604375" style="fill: #50b131; fill-opacity: 0.8; stroke: #ffffff; stroke-opacity: 0.8; stroke-width: 0.8"/>
    </g>
    <g clip-path="url(#pfaea29b557)">
     <use xlink:href="#C0_0_2af94c5ac7" x="508.707548" y="84.804375" style="fill: #50b131; fill-opacity: 0.8; stroke: #ffffff; stroke-opacity: 0.8; stroke-width: 0.8"/>
    </g>
    <g clip-path="url(#pfaea29b557)">
     <use xlink:href="#C0_0_2af94c5ac7" x="524.183665" y="70.104375" style="fill: #50b131; fill-opacity: 0.8; stroke: #ffffff; stroke-opacity: 0.8; stroke-width: 0.8"/>
    </g>
    <g clip-path="url(#pfaea29b557)">
     <use xlink:href="#C0_0_2af94c5ac7" x="377.160552" y="187.704375" style="fill: #50b131; fill-opacity: 0.8; stroke: #ffffff; stroke-opacity: 0.8; stroke-width: 0.8"/>
    </g>
    <g clip-path="url(#pfaea29b557)">
     <use xlink:href="#C0_0_2af94c5ac7" x="431.326962" y="70.104375" style="fill: #50b131; fill-opacity: 0.8; stroke: #ffffff; stroke-opacity: 0.8; stroke-width: 0.8"/>
    </g>
    <g clip-path="url(#pfaea29b557)">
     <use xlink:href="#C0_0_2af94c5ac7" x="369.422494" y="114.204375" style="fill: #50b131; fill-opacity: 0.8; stroke: #ffffff; stroke-opacity: 0.8; stroke-width: 0.8"/>
    </g>
    <g clip-path="url(#pfaea29b557)">
     <use xlink:href="#C0_0_2af94c5ac7" x="508.707548" y="114.204375" style="fill: #50b131; fill-opacity: 0.8; stroke: #ffffff; stroke-opacity: 0.8; stroke-width: 0.8"/>
    </g>
    <g clip-path="url(#pfaea29b557)">
     <use xlink:href="#C0_0_2af94c5ac7" x="369.422494" y="143.604375" style="fill: #50b131; fill-opacity: 0.8; stroke: #ffffff; stroke-opacity: 0.8; stroke-width: 0.8"/>
    </g>
    <g clip-path="url(#pfaea29b557)">
     <use xlink:href="#C0_0_2af94c5ac7" x="431.326962" y="99.504375" style="fill: #50b131; fill-opacity: 0.8; stroke: #ffffff; stroke-opacity: 0.8; stroke-width: 0.8"/>
    </g>
    <g clip-path="url(#pfaea29b557)">
     <use xlink:href="#C0_0_2af94c5ac7" x="454.541138" y="143.604375" style="fill: #50b131; fill-opacity: 0.8; stroke: #ffffff; stroke-opacity: 0.8; stroke-width: 0.8"/>
    </g>
    <g clip-path="url(#pfaea29b557)">
     <use xlink:href="#C0_0_2af94c5ac7" x="361.684435" y="143.604375" style="fill: #50b131; fill-opacity: 0.8; stroke: #ffffff; stroke-opacity: 0.8; stroke-width: 0.8"/>
    </g>
    <g clip-path="url(#pfaea29b557)">
     <use xlink:href="#C0_0_2af94c5ac7" x="369.422494" y="143.604375" style="fill: #50b131; fill-opacity: 0.8; stroke: #ffffff; stroke-opacity: 0.8; stroke-width: 0.8"/>
    </g>
    <g clip-path="url(#pfaea29b557)">
     <use xlink:href="#C0_0_2af94c5ac7" x="423.588904" y="99.504375" style="fill: #50b131; fill-opacity: 0.8; stroke: #ffffff; stroke-opacity: 0.8; stroke-width: 0.8"/>
    </g>
    <g clip-path="url(#pfaea29b557)">
     <use xlink:href="#C0_0_2af94c5ac7" x="439.065021" y="173.004375" style="fill: #50b131; fill-opacity: 0.8; stroke: #ffffff; stroke-opacity: 0.8; stroke-width: 0.8"/>
    </g>
    <g clip-path="url(#pfaea29b557)">
     <use xlink:href="#C0_0_2af94c5ac7" x="462.279196" y="128.904375" style="fill: #50b131; fill-opacity: 0.8; stroke: #ffffff; stroke-opacity: 0.8; stroke-width: 0.8"/>
    </g>
    <g clip-path="url(#pfaea29b557)">
     <use xlink:href="#C0_0_2af94c5ac7" x="485.493372" y="114.204375" style="fill: #50b131; fill-opacity: 0.8; stroke: #ffffff; stroke-opacity: 0.8; stroke-width: 0.8"/>
    </g>
    <g clip-path="url(#pfaea29b557)">
     <use xlink:href="#C0_0_2af94c5ac7" x="423.588904" y="84.804375" style="fill: #50b131; fill-opacity: 0.8; stroke: #ffffff; stroke-opacity: 0.8; stroke-width: 0.8"/>
    </g>
    <g clip-path="url(#pfaea29b557)">
     <use xlink:href="#C0_0_2af94c5ac7" x="384.898611" y="187.704375" style="fill: #50b131; fill-opacity: 0.8; stroke: #ffffff; stroke-opacity: 0.8; stroke-width: 0.8"/>
    </g>
    <g clip-path="url(#pfaea29b557)">
     <use xlink:href="#C0_0_2af94c5ac7" x="423.588904" y="202.404375" style="fill: #50b131; fill-opacity: 0.8; stroke: #ffffff; stroke-opacity: 0.8; stroke-width: 0.8"/>
    </g>
    <g clip-path="url(#pfaea29b557)">
     <use xlink:href="#C0_0_2af94c5ac7" x="462.279196" y="70.104375" style="fill: #50b131; fill-opacity: 0.8; stroke: #ffffff; stroke-opacity: 0.8; stroke-width: 0.8"/>
    </g>
    <g clip-path="url(#pfaea29b557)">
     <use xlink:href="#C0_0_2af94c5ac7" x="423.588904" y="55.404375" style="fill: #50b131; fill-opacity: 0.8; stroke: #ffffff; stroke-opacity: 0.8; stroke-width: 0.8"/>
    </g>
    <g clip-path="url(#pfaea29b557)">
     <use xlink:href="#C0_0_2af94c5ac7" x="415.850845" y="143.604375" style="fill: #50b131; fill-opacity: 0.8; stroke: #ffffff; stroke-opacity: 0.8; stroke-width: 0.8"/>
    </g>
    <g clip-path="url(#pfaea29b557)">
     <use xlink:href="#C0_0_2af94c5ac7" x="361.684435" y="143.604375" style="fill: #50b131; fill-opacity: 0.8; stroke: #ffffff; stroke-opacity: 0.8; stroke-width: 0.8"/>
    </g>
    <g clip-path="url(#pfaea29b557)">
     <use xlink:href="#C0_0_2af94c5ac7" x="408.112786" y="99.504375" style="fill: #50b131; fill-opacity: 0.8; stroke: #ffffff; stroke-opacity: 0.8; stroke-width: 0.8"/>
    </g>
    <g clip-path="url(#pfaea29b557)">
     <use xlink:href="#C0_0_2af94c5ac7" x="423.588904" y="55.404375" style="fill: #50b131; fill-opacity: 0.8; stroke: #ffffff; stroke-opacity: 0.8; stroke-width: 0.8"/>
    </g>
    <g clip-path="url(#pfaea29b557)">
     <use xlink:href="#C0_0_2af94c5ac7" x="384.898611" y="70.104375" style="fill: #50b131; fill-opacity: 0.8; stroke: #ffffff; stroke-opacity: 0.8; stroke-width: 0.8"/>
    </g>
    <g clip-path="url(#pfaea29b557)">
     <use xlink:href="#C0_0_2af94c5ac7" x="384.898611" y="128.904375" style="fill: #50b131; fill-opacity: 0.8; stroke: #ffffff; stroke-opacity: 0.8; stroke-width: 0.8"/>
    </g>
    <g clip-path="url(#pfaea29b557)">
     <use xlink:href="#C0_0_2af94c5ac7" x="446.803079" y="70.104375" style="fill: #50b131; fill-opacity: 0.8; stroke: #ffffff; stroke-opacity: 0.8; stroke-width: 0.8"/>
    </g>
    <g clip-path="url(#pfaea29b557)">
     <use xlink:href="#C0_0_2af94c5ac7" x="431.326962" y="40.704375" style="fill: #50b131; fill-opacity: 0.8; stroke: #ffffff; stroke-opacity: 0.8; stroke-width: 0.8"/>
    </g>
    <g clip-path="url(#pfaea29b557)">
     <use xlink:href="#C0_0_2af94c5ac7" x="392.636669" y="70.104375" style="fill: #50b131; fill-opacity: 0.8; stroke: #ffffff; stroke-opacity: 0.8; stroke-width: 0.8"/>
    </g>
    <g clip-path="url(#pfaea29b557)">
     <use xlink:href="#C0_0_2af94c5ac7" x="377.160552" y="128.904375" style="fill: #50b131; fill-opacity: 0.8; stroke: #ffffff; stroke-opacity: 0.8; stroke-width: 0.8"/>
    </g>
    <g clip-path="url(#pfaea29b557)">
     <use xlink:href="#C0_0_2af94c5ac7" x="392.636669" y="114.204375" style="fill: #50b131; fill-opacity: 0.8; stroke: #ffffff; stroke-opacity: 0.8; stroke-width: 0.8"/>
    </g>
    <g clip-path="url(#pfaea29b557)">
     <use xlink:href="#C0_0_2af94c5ac7" x="408.112786" y="70.104375" style="fill: #50b131; fill-opacity: 0.8; stroke: #ffffff; stroke-opacity: 0.8; stroke-width: 0.8"/>
    </g>
    <g clip-path="url(#pfaea29b557)">
     <use xlink:href="#C0_0_2af94c5ac7" x="384.898611" y="143.604375" style="fill: #50b131; fill-opacity: 0.8; stroke: #ffffff; stroke-opacity: 0.8; stroke-width: 0.8"/>
    </g>
   </g>
   <g id="matplotlib.axis_1">
    <g id="xtick_1">
     <g id="line2d_1">
      <path d="M 67.63821 411.144375 
L 67.63821 23.064375 
" clip-path="url(#pfaea29b557)" style="fill: none; stroke-dasharray: 2.96,1.28; stroke-dashoffset: 0; stroke: #b0b0b0; stroke-opacity: 0.6; stroke-width: 0.8"/>
     </g>
     <g id="line2d_2">
      <defs>
       <path id="mda6ae9ec36" d="M 0 0 
L 0 3.5 
" style="stroke: #000000; stroke-width: 0.8"/>
      </defs>
      <g>
       <use xlink:href="#mda6ae9ec36" x="67.63821" y="411.144375" style="stroke: #000000; stroke-width: 0.8"/>
      </g>
     </g>
     <g id="text_1">
      <!-- 1 -->
      <g transform="translate(64.23821 425.985) scale(0.1 -0.1)">
       <defs>
        <path id="AppleGothic-31" d="M 2342 4774 
L 2752 4774 
L 2752 0 
L 2285 0 
L 2285 3526 
L 1158 3526 
L 1158 3885 
L 1414 3885 
Q 1990 3885 2214 4205 
Q 2342 4410 2342 4774 
z
" transform="scale(0.015625)"/>
       </defs>
       <use xlink:href="#AppleGothic-31"/>
      </g>
     </g>
    </g>
    <g id="xtick_2">
     <g id="line2d_3">
      <path d="M 145.018796 411.144375 
L 145.018796 23.064375 
" clip-path="url(#pfaea29b557)" style="fill: none; stroke-dasharray: 2.96,1.28; stroke-dashoffset: 0; stroke: #b0b0b0; stroke-opacity: 0.6; stroke-width: 0.8"/>
     </g>
     <g id="line2d_4">
      <g>
       <use xlink:href="#mda6ae9ec36" x="145.018796" y="411.144375" style="stroke: #000000; stroke-width: 0.8"/>
      </g>
     </g>
     <g id="text_2">
      <!-- 2 -->
      <g transform="translate(141.618796 425.985) scale(0.1 -0.1)">
       <defs>
        <path id="AppleGothic-32" d="M 1101 429 
L 3942 429 
L 3942 0 
L 653 0 
L 653 205 
Q 653 1018 1344 1664 
Q 1670 1894 1990 2124 
Q 2310 2355 2637 2592 
Q 3334 3098 3334 3597 
Q 3334 3994 3014 4218 
Q 2867 4326 2694 4377 
Q 2522 4429 2317 4429 
Q 2016 4429 1741 4352 
Q 1325 4224 883 3910 
L 883 4435 
Q 1325 4659 1667 4758 
Q 2010 4858 2317 4858 
Q 2963 4858 3405 4525 
Q 3840 4198 3840 3622 
Q 3840 2995 3168 2438 
Q 2848 2214 2531 2000 
Q 2214 1786 1894 1562 
Q 1178 1024 1101 429 
z
" transform="scale(0.015625)"/>
       </defs>
       <use xlink:href="#AppleGothic-32"/>
      </g>
     </g>
    </g>
    <g id="xtick_3">
     <g id="line2d_5">
      <path d="M 222.399381 411.144375 
L 222.399381 23.064375 
" clip-path="url(#pfaea29b557)" style="fill: none; stroke-dasharray: 2.96,1.28; stroke-dashoffset: 0; stroke: #b0b0b0; stroke-opacity: 0.6; stroke-width: 0.8"/>
     </g>
     <g id="line2d_6">
      <g>
       <use xlink:href="#mda6ae9ec36" x="222.399381" y="411.144375" style="stroke: #000000; stroke-width: 0.8"/>
      </g>
     </g>
     <g id="text_3">
      <!-- 3 -->
      <g transform="translate(218.999381 425.985) scale(0.1 -0.1)">
       <defs>
        <path id="AppleGothic-33" d="M 550 333 
L 550 870 
Q 883 621 1235 483 
Q 1587 346 1971 346 
Q 2522 346 2861 666 
Q 3219 992 3219 1421 
Q 3219 1869 2842 2099 
Q 2515 2304 1965 2304 
L 992 2304 
L 992 2701 
L 1658 2701 
Q 2298 2701 2662 2928 
Q 3027 3155 3027 3584 
Q 3027 3936 2752 4173 
Q 2458 4429 1978 4429 
Q 1786 4429 1597 4393 
Q 1408 4358 1222 4282 
Q 890 4141 531 3872 
L 531 4422 
Q 736 4531 912 4608 
Q 1088 4685 1254 4736 
Q 1626 4858 2022 4858 
Q 2650 4858 3066 4531 
Q 3488 4211 3488 3642 
Q 3488 3168 3168 2861 
Q 2976 2675 2643 2554 
Q 2874 2522 3053 2448 
Q 3232 2374 3366 2266 
Q 3718 1971 3718 1434 
Q 3718 813 3219 365 
Q 2714 -83 1965 -83 
Q 1549 -83 1126 70 
Q 1024 102 880 166 
Q 736 230 550 333 
z
" transform="scale(0.015625)"/>
       </defs>
       <use xlink:href="#AppleGothic-33"/>
      </g>
     </g>
    </g>
    <g id="xtick_4">
     <g id="line2d_7">
      <path d="M 299.779967 411.144375 
L 299.779967 23.064375 
" clip-path="url(#pfaea29b557)" style="fill: none; stroke-dasharray: 2.96,1.28; stroke-dashoffset: 0; stroke: #b0b0b0; stroke-opacity: 0.6; stroke-width: 0.8"/>
     </g>
     <g id="line2d_8">
      <g>
       <use xlink:href="#mda6ae9ec36" x="299.779967" y="411.144375" style="stroke: #000000; stroke-width: 0.8"/>
      </g>
     </g>
     <g id="text_4">
      <!-- 4 -->
      <g transform="translate(296.379967 425.985) scale(0.1 -0.1)">
       <defs>
        <path id="AppleGothic-34" d="M 2662 4774 
L 3130 4774 
L 3130 1811 
L 4000 1811 
L 4000 1382 
L 3130 1382 
L 3130 0 
L 2662 0 
L 2662 1382 
L 352 1382 
L 352 1811 
L 2662 4774 
z
M 2662 1811 
L 2662 4166 
L 838 1811 
L 2662 1811 
z
" transform="scale(0.015625)"/>
       </defs>
       <use xlink:href="#AppleGothic-34"/>
      </g>
     </g>
    </g>
    <g id="xtick_5">
     <g id="line2d_9">
      <path d="M 377.160552 411.144375 
L 377.160552 23.064375 
" clip-path="url(#pfaea29b557)" style="fill: none; stroke-dasharray: 2.96,1.28; stroke-dashoffset: 0; stroke: #b0b0b0; stroke-opacity: 0.6; stroke-width: 0.8"/>
     </g>
     <g id="line2d_10">
      <g>
       <use xlink:href="#mda6ae9ec36" x="377.160552" y="411.144375" style="stroke: #000000; stroke-width: 0.8"/>
      </g>
     </g>
     <g id="text_5">
      <!-- 5 -->
      <g transform="translate(373.760552 425.985) scale(0.1 -0.1)">
       <defs>
        <path id="AppleGothic-35" d="M 621 4768 
L 3488 4768 
L 3488 4339 
L 1088 4339 
L 1088 2707 
Q 1184 2771 1293 2819 
Q 1402 2867 1510 2912 
Q 1862 3040 2259 3040 
Q 2989 3040 3424 2605 
Q 3827 2202 3827 1581 
Q 3827 870 3296 397 
Q 2765 -83 2010 -83 
Q 1651 -83 1248 45 
Q 1158 77 1001 137 
Q 845 198 621 301 
L 621 838 
Q 928 640 1203 525 
Q 1408 435 1613 390 
Q 1818 346 2010 346 
Q 2528 346 2906 666 
Q 3322 1011 3322 1536 
Q 3322 1990 3021 2291 
Q 2701 2611 2144 2611 
Q 1856 2611 1587 2528 
Q 1318 2445 1088 2272 
L 621 2272 
L 621 4768 
z
" transform="scale(0.015625)"/>
       </defs>
       <use xlink:href="#AppleGothic-35"/>
      </g>
     </g>
    </g>
    <g id="xtick_6">
     <g id="line2d_11">
      <path d="M 454.541138 411.144375 
L 454.541138 23.064375 
" clip-path="url(#pfaea29b557)" style="fill: none; stroke-dasharray: 2.96,1.28; stroke-dashoffset: 0; stroke: #b0b0b0; stroke-opacity: 0.6; stroke-width: 0.8"/>
     </g>
     <g id="line2d_12">
      <g>
       <use xlink:href="#mda6ae9ec36" x="454.541138" y="411.144375" style="stroke: #000000; stroke-width: 0.8"/>
      </g>
     </g>
     <g id="text_6">
      <!-- 6 -->
      <g transform="translate(451.141138 425.985) scale(0.1 -0.1)">
       <defs>
        <path id="AppleGothic-36" d="M 3699 4557 
L 3699 4013 
Q 3584 4102 3475 4163 
Q 3366 4224 3258 4275 
Q 3085 4358 2918 4393 
Q 2752 4429 2586 4429 
Q 2470 4429 2352 4409 
Q 2234 4390 2118 4339 
Q 1670 4154 1395 3738 
Q 1011 3149 1011 2189 
Q 1312 2490 1568 2656 
Q 2022 2931 2534 2931 
Q 3162 2931 3584 2566 
Q 4038 2163 4038 1491 
Q 4038 806 3558 358 
Q 3078 -83 2394 -83 
Q 1670 -83 1146 454 
Q 518 1088 518 2253 
Q 518 3411 1120 4134 
Q 1715 4858 2605 4858 
Q 2938 4858 3226 4762 
Q 3309 4730 3427 4682 
Q 3546 4634 3699 4557 
z
M 1062 1702 
Q 1152 1152 1498 768 
Q 1882 346 2419 346 
Q 2899 346 3213 659 
Q 3539 973 3539 1459 
Q 3539 1920 3226 2214 
Q 2918 2502 2496 2502 
Q 1990 2502 1542 2176 
Q 1414 2080 1292 1965 
Q 1171 1850 1062 1702 
z
" transform="scale(0.015625)"/>
       </defs>
       <use xlink:href="#AppleGothic-36"/>
      </g>
     </g>
    </g>
    <g id="xtick_7">
     <g id="line2d_13">
      <path d="M 531.921723 411.144375 
L 531.921723 23.064375 
" clip-path="url(#pfaea29b557)" style="fill: none; stroke-dasharray: 2.96,1.28; stroke-dashoffset: 0; stroke: #b0b0b0; stroke-opacity: 0.6; stroke-width: 0.8"/>
     </g>
     <g id="line2d_14">
      <g>
       <use xlink:href="#mda6ae9ec36" x="531.921723" y="411.144375" style="stroke: #000000; stroke-width: 0.8"/>
      </g>
     </g>
     <g id="text_7">
      <!-- 7 -->
      <g transform="translate(528.521723 425.985) scale(0.1 -0.1)">
       <defs>
        <path id="AppleGothic-37" d="M 595 4774 
L 3802 4774 
L 3802 4410 
L 1734 0 
L 1235 0 
L 3277 4352 
L 595 4352 
L 595 4774 
z
" transform="scale(0.015625)"/>
       </defs>
       <use xlink:href="#AppleGothic-37"/>
      </g>
     </g>
    </g>
    <g id="text_8">
     <!-- 꽃잎 길이 (cm) -->
     <g transform="translate(260.650781 439.545937) scale(0.1 -0.1)">
      <defs>
       <path id="AppleGothic-af43" d="M 5555 -96 
Q 5555 -96 5434 -250 
Q 5370 -320 5334 -368 
Q 5299 -416 5286 -442 
Q 5178 -422 5091 -406 
Q 5005 -390 4934 -371 
Q 4723 -307 4515 -211 
Q 4307 -115 4096 13 
Q 3930 115 3782 240 
Q 3635 365 3507 512 
Q 3462 563 3414 627 
Q 3366 691 3315 768 
Q 3251 691 3203 627 
Q 3155 563 3110 512 
Q 2982 358 2848 236 
Q 2714 115 2560 9 
Q 2406 -96 2220 -182 
Q 2035 -269 1798 -346 
Q 1728 -371 1625 -396 
Q 1523 -422 1395 -454 
Q 1280 -346 1210 -288 
Q 1171 -256 1145 -224 
Q 1120 -192 1101 -173 
L 1062 -134 
L 1075 -122 
Q 1152 -109 1209 -102 
Q 1267 -96 1318 -90 
Q 1606 -38 1846 51 
Q 2086 141 2298 262 
Q 2739 525 2976 870 
Q 3014 922 3046 998 
Q 3078 1075 3110 1165 
L 2214 1171 
L 1248 1146 
L 1248 1478 
Q 1690 1466 2224 1462 
Q 2758 1459 3264 1459 
Q 3514 1459 3779 1462 
Q 4045 1466 4310 1469 
Q 4576 1472 4832 1478 
Q 5088 1485 5312 1491 
L 5312 1152 
Q 5229 1158 5117 1158 
Q 5005 1158 4858 1165 
Q 4710 1171 4608 1171 
Q 4506 1171 4454 1171 
L 3501 1171 
Q 3526 1107 3552 1056 
Q 3578 1005 3603 960 
Q 3738 736 3994 525 
Q 4422 192 5018 26 
Q 5120 0 5248 -25 
Q 5376 -51 5536 -77 
L 5555 -96 
z
M 4109 1824 
Q 3930 1837 3715 1843 
Q 3501 1850 3296 1850 
Q 3021 1850 2656 1830 
Q 2624 1830 2576 1827 
Q 2528 1824 2477 1818 
L 2477 2170 
Q 2682 2150 2896 2144 
Q 3110 2138 3296 2138 
Q 3590 2138 3779 2144 
Q 3968 2150 4109 2163 
L 4109 1824 
z
M 6029 2522 
Q 5958 2522 5801 2522 
Q 5645 2522 5395 2528 
Q 5152 2534 4867 2534 
Q 4582 2534 4256 2541 
Q 3930 2547 3702 2550 
Q 3475 2554 3328 2554 
L 378 2534 
L 378 2886 
Q 576 2886 867 2880 
Q 1158 2874 1562 2861 
Q 1965 2848 2259 2841 
Q 2554 2835 2758 2835 
L 3053 2835 
L 3053 3571 
L 3040 3859 
L 3168 3859 
Q 3507 3859 3507 3789 
Q 3507 3776 3488 3705 
Q 3469 3635 3469 3584 
L 3462 2842 
L 6029 2874 
L 6029 2522 
z
M 2509 4896 
Q 2509 4723 2489 4499 
Q 2470 4275 2413 3910 
Q 2381 3718 2304 3418 
Q 2291 3366 2278 3308 
Q 2266 3251 2246 3174 
L 1830 3238 
Q 1875 3315 1913 3475 
Q 1952 3635 1997 3866 
Q 2074 4314 2074 4538 
L 896 4538 
L 896 4902 
L 1670 4883 
L 2509 4896 
z
M 5261 4877 
Q 5248 4698 5242 4602 
Q 5229 4435 5203 4256 
Q 5178 4077 5133 3891 
Q 5107 3763 5075 3644 
Q 5043 3526 5005 3398 
L 4928 3168 
L 4512 3245 
Q 4538 3322 4550 3360 
Q 4621 3565 4662 3689 
Q 4704 3814 4717 3866 
Q 4749 4000 4768 4121 
Q 4787 4243 4800 4365 
Q 4806 4397 4806 4441 
Q 4806 4486 4813 4538 
L 3962 4550 
L 3072 4538 
L 3072 4922 
Q 3322 4909 3626 4896 
Q 3930 4883 4205 4883 
L 5261 4877 
z
" transform="scale(0.015625)"/>
       <path id="AppleGothic-c78e" d="M 3258 3418 
Q 3258 3827 2976 4070 
Q 2694 4314 2246 4314 
Q 1741 4314 1449 4077 
Q 1158 3840 1158 3443 
Q 1158 3002 1491 2790 
Q 1786 2605 2240 2605 
Q 2669 2605 2950 2810 
Q 3258 3040 3258 3418 
z
M 5664 -358 
Q 5504 -352 5257 -352 
Q 5011 -352 4666 -346 
Q 4326 -339 4038 -339 
Q 3750 -339 3501 -339 
Q 3078 -339 2534 -358 
Q 2253 -371 1981 -380 
Q 1709 -390 1440 -403 
L 1440 -6 
Q 1472 -6 1542 -6 
Q 1613 -6 1722 -13 
Q 1830 -19 1894 -22 
Q 1958 -26 1984 -26 
L 2611 -26 
Q 2611 102 2502 448 
Q 2387 781 2387 851 
Q 2387 883 2518 892 
Q 2650 902 2790 928 
Q 2893 928 2893 864 
Q 2893 774 2905 659 
Q 2918 544 2944 397 
Q 3002 115 3059 -6 
L 3552 -26 
L 4077 -6 
Q 4141 186 4198 474 
Q 4230 621 4246 742 
Q 4262 864 4262 954 
Q 4346 954 4550 915 
Q 4742 864 4742 813 
Q 4742 787 4717 742 
Q 4666 653 4666 640 
Q 4666 550 4550 243 
Q 4493 77 4493 -6 
L 5114 6 
Q 5318 6 5452 12 
Q 5587 19 5664 32 
L 5664 -358 
z
M 5485 1222 
Q 5472 1222 5379 1225 
Q 5286 1229 5101 1235 
Q 4915 1242 4739 1245 
Q 4563 1248 4390 1248 
L 1786 1197 
L 1786 1574 
Q 2093 1568 2518 1565 
Q 2944 1562 3590 1562 
Q 3859 1562 4089 1562 
Q 4320 1562 4525 1568 
Q 4730 1574 4957 1580 
Q 5184 1587 5440 1594 
L 5485 1594 
L 5485 1222 
z
M 3680 3405 
Q 3680 2918 3264 2566 
Q 2861 2227 2246 2227 
Q 1933 2227 1673 2297 
Q 1414 2368 1210 2515 
Q 749 2848 749 3405 
Q 749 3686 848 3920 
Q 947 4154 1139 4320 
Q 1331 4486 1609 4579 
Q 1888 4672 2246 4672 
Q 2912 4672 3309 4294 
Q 3680 3942 3680 3405 
z
M 5408 5107 
Q 5408 5088 5379 4998 
Q 5350 4909 5350 4838 
L 5350 3443 
L 5350 2445 
Q 5357 2291 5357 2166 
Q 5357 2042 5363 1952 
L 4896 1926 
Q 4909 2112 4918 2467 
Q 4928 2822 4928 3309 
Q 4928 3699 4928 3990 
Q 4928 4282 4922 4474 
Q 4922 4864 4902 5190 
L 4934 5190 
Q 5408 5190 5408 5107 
z
" transform="scale(0.015625)"/>
       <path id="AppleGothic-20" transform="scale(0.015625)"/>
       <path id="AppleGothic-ae38" d="M 5498 -493 
Q 5344 -486 5209 -483 
Q 5075 -480 4966 -480 
Q 4122 -461 3693 -461 
L 1485 -474 
L 1485 909 
L 3482 896 
L 4922 909 
L 4922 1498 
L 1446 1504 
L 1446 1907 
Q 1792 1894 2256 1881 
Q 2720 1869 3373 1869 
L 5357 1875 
L 5357 570 
Q 5197 576 4963 576 
Q 4730 576 4410 582 
Q 4102 589 3865 589 
Q 3629 589 3462 589 
L 1933 576 
L 1933 -96 
Q 2042 -102 2211 -102 
Q 2381 -102 2618 -109 
Q 2854 -115 3056 -115 
Q 3258 -115 3430 -115 
Q 3840 -115 4157 -115 
Q 4474 -115 4691 -109 
Q 4915 -102 5116 -99 
Q 5318 -96 5498 -83 
L 5498 -493 
z
M 3814 4717 
Q 3795 4634 3776 4550 
Q 3757 4467 3744 4390 
Q 3680 4179 3590 3980 
Q 3501 3782 3373 3590 
Q 3027 3053 2458 2637 
Q 2221 2470 1952 2323 
Q 1683 2176 1376 2048 
Q 1274 2010 1146 1965 
Q 1018 1920 858 1869 
L 550 2202 
L 570 2227 
Q 717 2259 835 2288 
Q 954 2317 1050 2349 
Q 1632 2554 2131 2874 
Q 2579 3168 2880 3558 
Q 3104 3827 3232 4134 
Q 3251 4192 3270 4249 
Q 3290 4307 3315 4371 
L 2112 4384 
Q 1798 4384 1456 4377 
Q 1114 4371 826 4358 
L 838 4736 
Q 928 4730 1056 4730 
Q 1184 4730 1357 4723 
Q 1530 4717 1664 4717 
Q 1798 4717 1901 4717 
L 3814 4717 
z
M 5421 5082 
Q 5421 5069 5414 5033 
Q 5408 4998 5398 4956 
Q 5389 4915 5382 4873 
Q 5376 4832 5376 4806 
L 5370 2906 
Q 5370 2656 5370 2470 
Q 5370 2285 5382 2170 
L 4915 2157 
Q 4928 2381 4934 2768 
Q 4941 3155 4941 3667 
Q 4941 4051 4941 4310 
Q 4941 4570 4934 4710 
Q 4934 4998 4915 5190 
L 5318 5165 
Q 5421 5165 5421 5082 
z
" transform="scale(0.015625)"/>
       <path id="AppleGothic-c774" d="M 3226 2534 
Q 3226 3309 2899 3725 
Q 2611 4090 2157 4090 
Q 1683 4090 1414 3690 
Q 1146 3290 1146 2534 
Q 1146 1811 1440 1382 
Q 1741 954 2240 954 
Q 2758 954 3021 1446 
Q 3226 1856 3226 2534 
z
M 5446 5082 
Q 5446 5062 5427 4982 
Q 5408 4902 5408 4832 
L 5434 -538 
L 4941 -589 
L 4960 2259 
Q 4960 3552 4941 4070 
Q 4934 4326 4931 4604 
Q 4928 4883 4915 5190 
L 5094 5197 
Q 5242 5197 5344 5174 
Q 5446 5152 5446 5082 
z
M 3686 2547 
Q 3686 2125 3612 1785 
Q 3539 1446 3379 1203 
Q 2995 582 2176 582 
Q 1408 582 1018 1203 
Q 678 1734 678 2560 
Q 678 3379 1050 3898 
Q 1453 4461 2170 4461 
Q 2912 4461 3309 3910 
Q 3686 3411 3686 2547 
z
" transform="scale(0.015625)"/>
       <path id="AppleGothic-28" d="M 2227 5261 
L 2650 5261 
Q 2342 4768 2169 4473 
Q 1997 4179 1958 4083 
Q 1606 3283 1606 2272 
Q 1606 1587 1754 1018 
Q 1882 570 2138 102 
Q 2150 70 2275 -131 
Q 2400 -333 2630 -717 
L 2227 -717 
Q 2099 -531 1980 -355 
Q 1862 -179 1734 0 
Q 1581 243 1469 483 
Q 1357 723 1274 954 
Q 1069 1587 1069 2272 
Q 1069 2963 1261 3558 
Q 1338 3789 1450 4022 
Q 1562 4256 1715 4499 
Q 1843 4691 1971 4880 
Q 2099 5069 2227 5261 
z
" transform="scale(0.015625)"/>
       <path id="AppleGothic-63" d="M 3085 3123 
L 3085 2522 
Q 2726 2861 2349 3008 
Q 2240 3053 2125 3069 
Q 2010 3085 1894 3085 
Q 1363 3085 1024 2688 
Q 685 2278 685 1715 
Q 685 1139 1037 730 
Q 1389 339 1920 339 
Q 2253 339 2528 483 
Q 2803 627 3085 915 
L 3085 307 
Q 2746 96 2470 6 
Q 2195 -83 1914 -83 
Q 1197 -83 685 429 
Q 186 960 186 1709 
Q 186 2445 678 2976 
Q 1178 3501 1920 3501 
Q 2298 3501 2624 3373 
Q 2816 3302 3085 3123 
z
" transform="scale(0.015625)"/>
       <path id="AppleGothic-6d" d="M 5389 2195 
L 5389 0 
L 4922 0 
L 4922 2304 
Q 4922 2669 4672 2893 
Q 4461 3085 4173 3085 
Q 3744 3085 3405 2688 
Q 3072 2298 3072 1722 
L 3072 0 
L 2605 0 
L 2605 2304 
Q 2605 2650 2368 2861 
Q 2144 3085 1856 3085 
Q 1440 3085 1114 2714 
Q 755 2304 755 1702 
L 755 0 
L 288 0 
L 288 3424 
L 723 3424 
L 742 2880 
Q 928 3181 1274 3354 
Q 1581 3501 1894 3501 
Q 2381 3501 2714 3219 
Q 2957 3008 3021 2797 
Q 3149 3034 3386 3226 
Q 3757 3501 4205 3501 
Q 4749 3501 5050 3174 
Q 5389 2803 5389 2195 
z
" transform="scale(0.015625)"/>
       <path id="AppleGothic-29" d="M 2221 2272 
Q 2221 1587 2016 960 
Q 1862 499 1555 6 
Q 1427 -179 1305 -355 
Q 1184 -531 1062 -717 
L 659 -717 
Q 781 -512 902 -310 
Q 1024 -109 1152 96 
Q 1280 333 1376 557 
Q 1472 781 1530 1005 
Q 1683 1562 1683 2272 
Q 1683 2650 1641 2973 
Q 1600 3296 1517 3584 
Q 1459 3802 1356 4029 
Q 1254 4256 1120 4499 
Q 992 4691 873 4880 
Q 755 5069 640 5261 
L 1062 5261 
Q 1190 5069 1315 4880 
Q 1440 4691 1568 4506 
Q 1722 4256 1837 4022 
Q 1952 3789 2022 3565 
Q 2221 2976 2221 2272 
z
" transform="scale(0.015625)"/>
      </defs>
      <use xlink:href="#AppleGothic-af43"/>
      <use xlink:href="#AppleGothic-c78e" transform="translate(99.999985 0)"/>
      <use xlink:href="#AppleGothic-20" transform="translate(199.999969 0)"/>
      <use xlink:href="#AppleGothic-ae38" transform="translate(231.999954 0)"/>
      <use xlink:href="#AppleGothic-c774" transform="translate(331.999939 0)"/>
      <use xlink:href="#AppleGothic-20" transform="translate(431.999924 0)"/>
      <use xlink:href="#AppleGothic-28" transform="translate(463.999908 0)"/>
      <use xlink:href="#AppleGothic-63" transform="translate(513.999893 0)"/>
      <use xlink:href="#AppleGothic-6d" transform="translate(565.899887 0)"/>
      <use xlink:href="#AppleGothic-29" transform="translate(655.199875 0)"/>
     </g>
    </g>
   </g>
   <g id="matplotlib.axis_2">
    <g id="ytick_1">
     <g id="line2d_15">
      <path d="M 44.810938 408.204375 
L 547.010938 408.204375 
" clip-path="url(#pfaea29b557)" style="fill: none; stroke-dasharray: 2.96,1.28; stroke-dashoffset: 0; stroke: #b0b0b0; stroke-opacity: 0.6; stroke-width: 0.8"/>
     </g>
     <g id="line2d_16">
      <defs>
       <path id="m36c7214e94" d="M 0 0 
L -3.5 0 
" style="stroke: #000000; stroke-width: 0.8"/>
      </defs>
      <g>
       <use xlink:href="#m36c7214e94" x="44.810938" y="408.204375" style="stroke: #000000; stroke-width: 0.8"/>
      </g>
     </g>
     <g id="text_9">
      <!-- 0.0 -->
      <g transform="translate(20.760938 412.124687) scale(0.1 -0.1)">
       <defs>
        <path id="AppleGothic-30" d="M 2227 -83 
Q 1414 -83 934 576 
Q 461 1229 461 2387 
Q 461 3552 973 4218 
Q 1453 4858 2221 4858 
Q 3027 4858 3482 4173 
Q 3955 3494 3955 2394 
Q 3955 1248 3462 582 
Q 2976 -83 2227 -83 
z
M 2176 346 
Q 2861 346 3200 992 
Q 3462 1536 3462 2400 
Q 3462 3315 3162 3859 
Q 2822 4429 2214 4429 
Q 1574 4429 1248 3821 
Q 960 3283 960 2374 
Q 960 1478 1248 941 
Q 1574 346 2176 346 
z
" transform="scale(0.015625)"/>
        <path id="AppleGothic-2e" d="M 915 -19 
Q 762 -19 653 109 
Q 544 237 544 422 
Q 544 614 656 745 
Q 768 877 915 877 
Q 1056 877 1168 758 
Q 1280 640 1280 435 
Q 1280 243 1171 112 
Q 1062 -19 915 -19 
z
" transform="scale(0.015625)"/>
       </defs>
       <use xlink:href="#AppleGothic-30"/>
       <use xlink:href="#AppleGothic-2e" transform="translate(67.999985 0)"/>
       <use xlink:href="#AppleGothic-30" transform="translate(102.499969 0)"/>
      </g>
     </g>
    </g>
    <g id="ytick_2">
     <g id="line2d_17">
      <path d="M 44.810938 334.704375 
L 547.010938 334.704375 
" clip-path="url(#pfaea29b557)" style="fill: none; stroke-dasharray: 2.96,1.28; stroke-dashoffset: 0; stroke: #b0b0b0; stroke-opacity: 0.6; stroke-width: 0.8"/>
     </g>
     <g id="line2d_18">
      <g>
       <use xlink:href="#m36c7214e94" x="44.810938" y="334.704375" style="stroke: #000000; stroke-width: 0.8"/>
      </g>
     </g>
     <g id="text_10">
      <!-- 0.5 -->
      <g transform="translate(20.760938 338.624687) scale(0.1 -0.1)">
       <use xlink:href="#AppleGothic-30"/>
       <use xlink:href="#AppleGothic-2e" transform="translate(67.999985 0)"/>
       <use xlink:href="#AppleGothic-35" transform="translate(102.499969 0)"/>
      </g>
     </g>
    </g>
    <g id="ytick_3">
     <g id="line2d_19">
      <path d="M 44.810938 261.204375 
L 547.010938 261.204375 
" clip-path="url(#pfaea29b557)" style="fill: none; stroke-dasharray: 2.96,1.28; stroke-dashoffset: 0; stroke: #b0b0b0; stroke-opacity: 0.6; stroke-width: 0.8"/>
     </g>
     <g id="line2d_20">
      <g>
       <use xlink:href="#m36c7214e94" x="44.810938" y="261.204375" style="stroke: #000000; stroke-width: 0.8"/>
      </g>
     </g>
     <g id="text_11">
      <!-- 1.0 -->
      <g transform="translate(20.760938 265.124687) scale(0.1 -0.1)">
       <use xlink:href="#AppleGothic-31"/>
       <use xlink:href="#AppleGothic-2e" transform="translate(67.999985 0)"/>
       <use xlink:href="#AppleGothic-30" transform="translate(102.499969 0)"/>
      </g>
     </g>
    </g>
    <g id="ytick_4">
     <g id="line2d_21">
      <path d="M 44.810938 187.704375 
L 547.010938 187.704375 
" clip-path="url(#pfaea29b557)" style="fill: none; stroke-dasharray: 2.96,1.28; stroke-dashoffset: 0; stroke: #b0b0b0; stroke-opacity: 0.6; stroke-width: 0.8"/>
     </g>
     <g id="line2d_22">
      <g>
       <use xlink:href="#m36c7214e94" x="44.810938" y="187.704375" style="stroke: #000000; stroke-width: 0.8"/>
      </g>
     </g>
     <g id="text_12">
      <!-- 1.5 -->
      <g transform="translate(20.760938 191.624687) scale(0.1 -0.1)">
       <use xlink:href="#AppleGothic-31"/>
       <use xlink:href="#AppleGothic-2e" transform="translate(67.999985 0)"/>
       <use xlink:href="#AppleGothic-35" transform="translate(102.499969 0)"/>
      </g>
     </g>
    </g>
    <g id="ytick_5">
     <g id="line2d_23">
      <path d="M 44.810938 114.204375 
L 547.010938 114.204375 
" clip-path="url(#pfaea29b557)" style="fill: none; stroke-dasharray: 2.96,1.28; stroke-dashoffset: 0; stroke: #b0b0b0; stroke-opacity: 0.6; stroke-width: 0.8"/>
     </g>
     <g id="line2d_24">
      <g>
       <use xlink:href="#m36c7214e94" x="44.810938" y="114.204375" style="stroke: #000000; stroke-width: 0.8"/>
      </g>
     </g>
     <g id="text_13">
      <!-- 2.0 -->
      <g transform="translate(20.760938 118.124687) scale(0.1 -0.1)">
       <use xlink:href="#AppleGothic-32"/>
       <use xlink:href="#AppleGothic-2e" transform="translate(67.999985 0)"/>
       <use xlink:href="#AppleGothic-30" transform="translate(102.499969 0)"/>
      </g>
     </g>
    </g>
    <g id="ytick_6">
     <g id="line2d_25">
      <path d="M 44.810938 40.704375 
L 547.010938 40.704375 
" clip-path="url(#pfaea29b557)" style="fill: none; stroke-dasharray: 2.96,1.28; stroke-dashoffset: 0; stroke: #b0b0b0; stroke-opacity: 0.6; stroke-width: 0.8"/>
     </g>
     <g id="line2d_26">
      <g>
       <use xlink:href="#m36c7214e94" x="44.810938" y="40.704375" style="stroke: #000000; stroke-width: 0.8"/>
      </g>
     </g>
     <g id="text_14">
      <!-- 2.5 -->
      <g transform="translate(20.760938 44.624687) scale(0.1 -0.1)">
       <use xlink:href="#AppleGothic-32"/>
       <use xlink:href="#AppleGothic-2e" transform="translate(67.999985 0)"/>
       <use xlink:href="#AppleGothic-35" transform="translate(102.499969 0)"/>
      </g>
     </g>
    </g>
    <g id="text_15">
     <!-- 꽃잎 너비 (cm) -->
     <g transform="translate(15.040625 252.364531) rotate(-90) scale(0.1 -0.1)">
      <defs>
       <path id="AppleGothic-b108" d="M 5536 5107 
Q 5536 5101 5526 5072 
Q 5517 5043 5504 4979 
Q 5472 4851 5472 4800 
Q 5466 4672 5466 4563 
Q 5466 4454 5466 4365 
Q 5459 3667 5456 3072 
Q 5453 2477 5453 1965 
L 5466 -493 
L 5011 -506 
Q 5018 -454 5018 -422 
Q 5018 -390 5018 -358 
Q 5030 -154 5036 -29 
Q 5043 96 5043 147 
L 5043 461 
Q 5043 851 5043 1168 
Q 5043 1485 5037 1734 
Q 5030 1978 5027 2208 
Q 5024 2438 5011 2650 
L 4224 2662 
L 3373 2650 
L 3373 3059 
Q 3558 3046 3785 3040 
Q 4013 3034 4218 3034 
Q 4410 3034 4624 3040 
Q 4838 3046 5011 3059 
Q 5030 3283 5036 3548 
Q 5043 3814 5043 4077 
Q 5043 4493 5030 4749 
Q 5018 5005 5005 5190 
L 5050 5190 
Q 5133 5190 5219 5187 
Q 5306 5184 5376 5174 
Q 5446 5165 5491 5149 
Q 5536 5133 5536 5107 
z
M 4006 1082 
Q 3936 1075 3872 1068 
Q 3808 1062 3757 1056 
Q 3373 1011 3043 976 
Q 2714 941 2432 922 
Q 2080 890 1600 864 
Q 1357 851 1161 844 
Q 966 838 819 838 
L 851 3123 
Q 851 3411 851 3593 
Q 851 3776 845 3866 
Q 845 3962 841 4042 
Q 838 4122 832 4186 
L 922 4186 
Q 1075 4186 1200 4173 
Q 1325 4160 1325 4109 
Q 1325 4096 1315 4061 
Q 1306 4026 1296 3981 
Q 1286 3936 1276 3888 
Q 1267 3840 1267 3802 
L 1254 1235 
Q 1517 1261 1805 1277 
Q 2093 1293 2419 1293 
Q 2707 1318 2982 1347 
Q 3258 1376 3526 1408 
Q 3718 1427 3981 1466 
L 4006 1082 
z
" transform="scale(0.015625)"/>
       <path id="AppleGothic-be44" d="M 2963 2157 
L 2957 2893 
L 954 2893 
L 973 1453 
L 1952 1434 
L 2957 1453 
L 2963 2157 
z
M 5453 5094 
Q 5453 5069 5433 5005 
Q 5414 4941 5414 4922 
L 5414 4416 
Q 5395 2554 5395 2253 
Q 5395 1357 5408 681 
Q 5421 6 5440 -557 
L 4941 -570 
Q 4947 -390 4947 -124 
Q 4947 141 4954 493 
Q 4960 851 4960 1129 
Q 4960 1408 4960 1613 
L 4960 2266 
Q 4960 2554 4957 2822 
Q 4954 3091 4947 3354 
Q 4941 3622 4937 3884 
Q 4934 4147 4934 4416 
Q 4928 4947 4915 5190 
L 5114 5197 
Q 5248 5197 5350 5174 
Q 5453 5152 5453 5094 
z
M 3450 1043 
L 506 1043 
L 518 2720 
Q 518 3360 512 3757 
Q 506 4154 493 4429 
L 877 4410 
Q 986 4410 986 4333 
Q 986 4307 970 4243 
Q 954 4179 954 4160 
L 954 3296 
Q 1114 3290 1344 3286 
Q 1574 3283 1971 3283 
L 2957 3296 
L 2938 4480 
L 3194 4486 
Q 3322 4486 3386 4467 
Q 3450 4448 3450 4390 
Q 3450 4371 3437 4313 
Q 3424 4256 3424 4230 
L 3418 3085 
Q 3418 2566 3424 2057 
Q 3430 1549 3450 1043 
z
" transform="scale(0.015625)"/>
      </defs>
      <use xlink:href="#AppleGothic-af43"/>
      <use xlink:href="#AppleGothic-c78e" transform="translate(99.999985 0)"/>
      <use xlink:href="#AppleGothic-20" transform="translate(199.999969 0)"/>
      <use xlink:href="#AppleGothic-b108" transform="translate(231.999954 0)"/>
      <use xlink:href="#AppleGothic-be44" transform="translate(331.999939 0)"/>
      <use xlink:href="#AppleGothic-20" transform="translate(431.999924 0)"/>
      <use xlink:href="#AppleGothic-28" transform="translate(463.999908 0)"/>
      <use xlink:href="#AppleGothic-63" transform="translate(513.999893 0)"/>
      <use xlink:href="#AppleGothic-6d" transform="translate(565.899887 0)"/>
      <use xlink:href="#AppleGothic-29" transform="translate(655.199875 0)"/>
     </g>
    </g>
   </g>
   <g id="line2d_27"/>
   <g id="line2d_28"/>
   <g id="line2d_29"/>
   <g id="patch_3">
    <path d="M 44.810938 411.144375 
L 44.810938 23.064375 
" style="fill: none; stroke: #000000; stroke-width: 0.8; stroke-linejoin: miter; stroke-linecap: square"/>
   </g>
   <g id="patch_4">
    <path d="M 547.010938 411.144375 
L 547.010938 23.064375 
" style="fill: none; stroke: #000000; stroke-width: 0.8; stroke-linejoin: miter; stroke-linecap: square"/>
   </g>
   <g id="patch_5">
    <path d="M 44.810938 411.144375 
L 547.010938 411.144375 
" style="fill: none; stroke: #000000; stroke-width: 0.8; stroke-linejoin: miter; stroke-linecap: square"/>
   </g>
   <g id="patch_6">
    <path d="M 44.810938 23.064375 
L 547.010938 23.064375 
" style="fill: none; stroke: #000000; stroke-width: 0.8; stroke-linejoin: miter; stroke-linecap: square"/>
   </g>
   <g id="text_16">
    <!-- 꽃잎의 길이와 너비를 활용한 2차원 산점도 (Scatterplot) -->
    <g transform="translate(142.626875 17.064375) scale(0.12 -0.12)">
     <defs>
      <path id="AppleGothic-c758" d="M 3571 3379 
Q 3571 4218 2573 4218 
Q 2061 4218 1776 3987 
Q 1491 3757 1491 3386 
Q 1491 2970 1786 2733 
Q 2054 2522 2509 2522 
Q 3059 2522 3328 2765 
Q 3571 2976 3571 3379 
z
M 4608 1094 
Q 4134 1018 3872 979 
Q 3456 928 3120 899 
Q 2784 870 2528 870 
L 902 813 
Q 858 800 816 790 
Q 774 781 730 768 
Q 653 768 608 941 
Q 563 1114 563 1242 
L 2477 1248 
Q 2938 1248 3334 1273 
Q 3731 1299 4070 1350 
Q 4282 1376 4576 1459 
L 4608 1094 
z
M 5466 5069 
Q 5466 5037 5437 4944 
Q 5408 4851 5408 4813 
L 5408 2298 
Q 5408 2010 5411 1683 
Q 5414 1357 5421 973 
Q 5427 595 5433 230 
Q 5440 -134 5453 -499 
L 4973 -557 
L 4973 45 
Q 4979 237 4979 512 
Q 4979 787 4986 1158 
Q 4992 1523 4992 1788 
Q 4992 2054 4992 2221 
Q 4992 2880 4985 3357 
Q 4979 3834 4966 4122 
Q 4954 4410 4944 4675 
Q 4934 4941 4922 5184 
L 5024 5184 
Q 5190 5184 5328 5158 
Q 5466 5133 5466 5069 
z
M 4006 3328 
Q 4006 2790 3578 2464 
Q 3155 2138 2528 2138 
Q 1894 2138 1504 2445 
Q 1088 2765 1088 3341 
Q 1088 3955 1517 4288 
Q 1920 4602 2541 4602 
Q 3174 4602 3597 4269 
Q 4006 3936 4006 3354 
L 4006 3328 
z
" transform="scale(0.015625)"/>
      <path id="AppleGothic-c640" d="M 3354 3398 
Q 3354 3789 3072 4045 
Q 2784 4301 2349 4301 
Q 1843 4301 1549 4045 
Q 1286 3802 1286 3424 
Q 1286 2982 1587 2752 
Q 1850 2534 2323 2534 
Q 2848 2534 3123 2829 
Q 3354 3078 3354 3398 
z
M 6042 2054 
L 5146 2054 
L 5158 -506 
L 4678 -506 
Q 4685 -294 4685 42 
Q 4685 378 4691 838 
Q 4698 1299 4698 1705 
Q 4698 2112 4698 2464 
L 4685 4691 
Q 4685 4922 4678 5027 
Q 4672 5133 4659 5184 
L 4800 5184 
Q 4986 5184 5091 5165 
Q 5197 5146 5197 5082 
Q 5197 5056 5171 4947 
Q 5146 4851 5146 4794 
L 5133 3891 
L 5146 2464 
L 6042 2477 
L 6042 2054 
z
M 4429 1120 
Q 4205 1088 4019 1069 
Q 3834 1050 3699 1037 
Q 3258 992 2922 969 
Q 2586 947 2349 947 
Q 2022 947 1584 921 
Q 1146 896 691 864 
Q 640 851 589 838 
Q 538 826 486 813 
Q 429 813 390 944 
Q 352 1075 352 1280 
L 1338 1286 
Q 1510 1286 1773 1306 
Q 1907 1318 2000 1324 
Q 2093 1331 2144 1331 
L 2144 2176 
Q 2003 2176 1805 2234 
Q 1613 2285 1456 2371 
Q 1299 2458 1178 2573 
Q 832 2912 832 3456 
Q 832 4032 1293 4378 
Q 1709 4678 2310 4678 
Q 2957 4678 3373 4326 
Q 3802 3974 3802 3373 
Q 3802 2675 3206 2368 
Q 3104 2317 2957 2275 
Q 2810 2234 2605 2189 
L 2605 1363 
Q 2707 1370 2787 1373 
Q 2867 1376 2931 1376 
Q 3110 1389 3260 1395 
Q 3411 1402 3539 1414 
L 4429 1504 
L 4429 1120 
z
" transform="scale(0.015625)"/>
      <path id="AppleGothic-b97c" d="M 5184 -378 
Q 5056 -371 4950 -371 
Q 4845 -371 4762 -371 
Q 4179 -358 3798 -352 
Q 3418 -346 3213 -346 
L 1350 -365 
L 1363 224 
L 1350 870 
L 2982 858 
Q 3437 858 3856 864 
Q 4275 870 4621 883 
L 4621 1338 
L 3034 1357 
Q 2605 1357 2137 1350 
Q 1670 1344 1280 1331 
L 1280 1670 
Q 1466 1664 1683 1664 
Q 1901 1664 2163 1658 
L 3046 1658 
L 5082 1670 
L 5069 1120 
L 5082 576 
L 3309 582 
Q 2944 582 2550 569 
Q 2157 557 1818 544 
L 1818 -19 
L 3168 -32 
Q 3629 -32 3955 -32 
Q 4282 -32 4486 -26 
Q 4691 -19 4864 -16 
Q 5037 -13 5184 0 
L 5184 -378 
z
M 6016 2125 
Q 5946 2125 5779 2125 
Q 5613 2125 5344 2131 
Q 4826 2138 4154 2150 
Q 3821 2157 3587 2160 
Q 3354 2163 3213 2163 
Q 2541 2163 2073 2163 
Q 1606 2163 1318 2157 
Q 1037 2150 803 2147 
Q 570 2144 378 2131 
L 378 2502 
Q 429 2502 560 2499 
Q 691 2496 896 2490 
Q 1312 2477 1997 2470 
Q 2342 2464 2640 2464 
Q 2938 2464 3194 2464 
L 4314 2464 
Q 4973 2470 5373 2476 
Q 5773 2483 6016 2490 
L 6016 2125 
z
M 5120 2906 
Q 4973 2912 4848 2912 
Q 4723 2912 4634 2912 
Q 3981 2925 3616 2931 
Q 3251 2938 3162 2938 
L 1331 2931 
L 1344 3462 
L 1331 4102 
Q 1472 4096 1677 4096 
Q 1882 4096 2150 4090 
Q 2419 4083 2620 4083 
Q 2822 4083 2950 4083 
L 4640 4077 
L 4640 4576 
L 3053 4595 
Q 2630 4595 2169 4588 
Q 1709 4582 1325 4570 
L 1325 4928 
Q 1395 4922 1449 4922 
Q 1504 4922 1555 4922 
Q 1952 4909 2329 4899 
Q 2707 4890 3072 4890 
L 5088 4896 
L 5075 4352 
L 5088 3776 
L 1766 3795 
L 1766 3264 
L 3142 3245 
L 4486 3245 
Q 4838 3251 5120 3264 
L 5120 2906 
z
" transform="scale(0.015625)"/>
      <path id="AppleGothic-d65c" d="M 3379 3162 
Q 3379 3546 2522 3546 
Q 1632 3546 1632 3162 
Q 1632 3085 1677 3024 
Q 1722 2963 1824 2918 
Q 1926 2874 2096 2851 
Q 2266 2829 2522 2829 
L 2643 2829 
Q 2938 2829 3110 2880 
Q 3379 2963 3379 3162 
z
M 5197 -435 
Q 4947 -422 4604 -412 
Q 4262 -403 3782 -403 
Q 3494 -403 3132 -403 
Q 2771 -403 2323 -410 
Q 1440 -429 1306 -429 
L 1306 723 
L 2477 710 
L 4634 742 
L 4634 1216 
L 3283 1222 
Q 2950 1222 2684 1219 
Q 2419 1216 2208 1210 
Q 1997 1203 1766 1200 
Q 1536 1197 1274 1190 
L 1274 1536 
Q 1402 1536 1578 1536 
Q 1754 1536 1984 1530 
Q 2208 1523 2429 1523 
Q 2650 1523 2854 1517 
L 5082 1523 
L 5062 877 
L 5075 467 
L 1766 442 
L 1766 -102 
L 3354 -109 
Q 3725 -109 4003 -105 
Q 4282 -102 4486 -96 
Q 4691 -90 4864 -83 
Q 5037 -77 5197 -64 
L 5197 -435 
z
M 4397 1997 
Q 4243 1965 4112 1945 
Q 3981 1926 3872 1914 
Q 3526 1869 3187 1846 
Q 2848 1824 2502 1824 
L 864 1741 
Q 819 1741 736 1718 
Q 653 1696 634 1696 
Q 550 1696 524 1827 
Q 499 1958 499 2106 
L 1069 2093 
L 2317 2138 
L 2317 2534 
Q 2093 2534 1910 2576 
Q 1728 2618 1574 2688 
Q 1235 2854 1235 3162 
Q 1235 3590 1734 3757 
Q 2029 3853 2522 3853 
Q 3008 3853 3296 3763 
Q 3782 3597 3782 3162 
Q 3782 2784 3283 2618 
Q 3021 2573 2886 2553 
Q 2752 2534 2739 2534 
L 2733 2163 
Q 2918 2176 3129 2182 
Q 3341 2189 3565 2214 
L 4365 2291 
L 4397 1997 
z
M 6035 2810 
L 5510 2829 
L 5114 2810 
L 5120 1933 
L 4672 1920 
Q 4678 2016 4688 2358 
Q 4698 2701 4698 3270 
Q 4698 3776 4698 4109 
Q 4698 4442 4691 4608 
Q 4691 4774 4688 4915 
Q 4685 5056 4678 5178 
L 4890 5184 
Q 5018 5184 5098 5168 
Q 5178 5152 5178 5101 
Q 5178 5075 5149 4998 
Q 5120 4922 5120 4877 
L 5114 3168 
L 5523 3162 
L 6035 3181 
L 6035 2810 
z
M 4243 4077 
Q 3878 4090 3424 4102 
Q 2970 4115 2464 4115 
L 2330 4115 
Q 1926 4115 1529 4102 
Q 1133 4090 813 4077 
L 813 4448 
Q 1114 4435 1491 4422 
Q 1869 4410 2285 4410 
L 2419 4410 
Q 2925 4410 3395 4422 
Q 3866 4435 4243 4448 
L 4243 4077 
z
M 3219 4762 
L 1856 4762 
L 1856 5126 
L 2483 5114 
L 3219 5126 
L 3219 4762 
z
" transform="scale(0.015625)"/>
      <path id="AppleGothic-c6a9" d="M 4858 448 
Q 4858 774 4365 922 
Q 4173 973 3878 998 
Q 3584 1024 3194 1024 
Q 2246 1024 1882 870 
Q 1555 723 1555 448 
Q 1555 77 2074 -77 
Q 2470 -186 3194 -186 
Q 3674 -186 4003 -144 
Q 4333 -102 4525 -13 
Q 4858 141 4858 448 
z
M 3821 2643 
L 3808 3008 
Q 3674 2995 3510 2988 
Q 3347 2982 3194 2982 
Q 2803 2982 2624 3014 
L 2611 2637 
L 2624 2285 
L 3808 2278 
L 3821 2643 
z
M 4858 3974 
Q 4858 4352 4378 4518 
Q 3981 4659 3162 4659 
Q 2490 4659 2086 4550 
Q 1485 4384 1485 3974 
Q 1485 3654 1933 3494 
Q 2381 3334 3168 3334 
Q 4006 3334 4403 3475 
Q 4858 3642 4858 3974 
z
M 5306 448 
Q 5306 13 4915 -243 
Q 4397 -589 3328 -589 
L 3194 -589 
Q 2093 -589 1555 -275 
Q 1114 -19 1114 454 
Q 1114 954 1690 1197 
Q 2195 1408 3200 1408 
Q 4134 1408 4634 1229 
Q 5306 998 5306 448 
z
M 6022 1926 
Q 5690 1939 5341 1945 
Q 4992 1952 4621 1958 
Q 4256 1965 3917 1968 
Q 3578 1971 3264 1971 
Q 2438 1971 1728 1958 
Q 1018 1946 378 1926 
L 378 2317 
Q 480 2310 605 2304 
Q 730 2298 890 2291 
Q 1043 2285 1145 2285 
Q 1248 2285 1312 2285 
L 2163 2285 
L 2176 2675 
L 2157 3066 
Q 1971 3098 1830 3139 
Q 1690 3181 1600 3226 
Q 1037 3494 1037 3987 
Q 1037 4243 1184 4435 
Q 1331 4627 1603 4755 
Q 1875 4883 2268 4947 
Q 2662 5011 3162 5011 
Q 3642 5011 4010 4960 
Q 4378 4909 4646 4813 
Q 5312 4563 5312 3974 
Q 5312 3494 4794 3238 
Q 4704 3194 4576 3155 
Q 4448 3117 4269 3072 
L 4269 2272 
L 5082 2278 
L 6022 2310 
L 6022 1926 
z
" transform="scale(0.015625)"/>
      <path id="AppleGothic-d55c" d="M 3187 2413 
Q 3187 2701 2976 2874 
Q 2733 3072 2278 3072 
Q 1811 3072 1571 2899 
Q 1331 2726 1331 2464 
Q 1331 2163 1584 2009 
Q 1837 1856 2285 1856 
Q 2752 1856 2995 2048 
Q 3187 2208 3187 2413 
z
M 5466 -435 
L 3315 -403 
L 1293 -416 
L 1299 224 
L 1274 1120 
L 1350 1120 
Q 1542 1120 1670 1101 
Q 1798 1082 1798 1011 
Q 1798 992 1779 918 
Q 1760 845 1760 787 
L 1760 -26 
Q 1888 -26 2070 -26 
Q 2253 -26 2496 -32 
Q 2733 -38 2960 -38 
Q 3187 -38 3411 -45 
Q 4019 -45 4537 -38 
Q 5056 -32 5466 -19 
L 5466 -435 
z
M 3629 2458 
Q 3629 2042 3289 1789 
Q 2950 1536 2291 1536 
Q 1594 1536 1251 1801 
Q 909 2067 909 2496 
Q 909 2970 1331 3200 
Q 1504 3302 1734 3347 
Q 1965 3392 2253 3392 
Q 2893 3392 3261 3136 
Q 3629 2880 3629 2458 
z
M 6003 2483 
L 5126 2483 
L 5114 1203 
Q 5114 1094 5114 1001 
Q 5114 909 5133 794 
L 4666 768 
L 4672 5158 
Q 4838 5158 5005 5139 
Q 5184 5120 5184 5056 
Q 5184 5037 5158 4963 
Q 5133 4890 5133 4826 
L 5114 4122 
L 5120 2899 
L 6003 2886 
L 6003 2483 
z
M 4147 3744 
Q 3930 3757 3757 3760 
Q 3584 3763 3456 3770 
Q 3059 3782 2748 3788 
Q 2438 3795 2208 3795 
Q 1779 3795 1318 3788 
Q 858 3782 474 3770 
L 474 4141 
Q 659 4134 883 4131 
Q 1107 4128 1376 4115 
Q 1645 4109 1843 4105 
Q 2042 4102 2182 4102 
Q 2803 4102 3289 4108 
Q 3776 4115 4147 4128 
L 4147 3744 
z
M 3034 4544 
Q 2874 4557 2685 4563 
Q 2496 4570 2310 4570 
L 1504 4550 
L 1504 4922 
L 2317 4909 
L 3034 4922 
L 3034 4544 
z
" transform="scale(0.015625)"/>
      <path id="AppleGothic-cc28" d="M 4083 1082 
Q 4032 1037 3990 1005 
Q 3949 973 3923 947 
Q 3834 877 3786 835 
Q 3738 794 3731 787 
Q 3654 832 3584 877 
Q 3398 998 3219 1158 
Q 3040 1318 2867 1523 
Q 2598 1837 2419 2189 
Q 2387 2246 2358 2313 
Q 2330 2381 2298 2464 
Q 2234 2278 2163 2144 
Q 2054 1952 1926 1766 
Q 1798 1581 1638 1408 
Q 1510 1261 1356 1120 
Q 1203 979 1024 832 
Q 966 781 892 726 
Q 819 672 723 602 
Q 717 608 669 640 
Q 621 672 518 730 
Q 326 851 326 877 
L 339 902 
Q 1062 1248 1587 2003 
Q 2138 2771 2138 3558 
L 1299 3578 
Q 1107 3578 985 3578 
Q 864 3578 800 3571 
Q 736 3571 688 3568 
Q 640 3565 589 3558 
L 589 3949 
L 2291 3949 
Q 2906 3949 3318 3961 
Q 3731 3974 4032 3987 
L 4032 3597 
L 3373 3597 
Q 3117 3597 2790 3578 
Q 2758 3578 2716 3574 
Q 2675 3571 2624 3565 
Q 2624 3514 2617 3440 
Q 2611 3366 2598 3264 
Q 2586 3155 2579 3091 
Q 2573 3027 2573 2995 
Q 2605 2886 2630 2803 
Q 2656 2720 2682 2650 
Q 2765 2445 2864 2272 
Q 2963 2099 3091 1952 
Q 3258 1766 3424 1603 
Q 3590 1440 3770 1312 
Q 3827 1267 3897 1225 
Q 3968 1184 4058 1133 
Q 4077 1114 4083 1082 
z
M 6022 2138 
Q 5933 2150 5808 2156 
Q 5683 2163 5523 2163 
Q 5382 2163 5203 2144 
Q 5190 2144 5168 2141 
Q 5146 2138 5114 2131 
L 5101 115 
L 5114 -506 
L 4640 -544 
L 4666 2579 
L 4659 5190 
L 4806 5190 
Q 4973 5190 5075 5174 
Q 5178 5158 5178 5101 
Q 5178 5082 5152 5008 
Q 5126 4934 5126 4883 
Q 5120 4794 5113 4554 
Q 5107 4314 5107 4006 
L 5107 2541 
L 5549 2534 
L 6022 2547 
L 6022 2138 
z
M 3091 4576 
L 2272 4589 
L 1581 4570 
L 1581 4960 
L 2234 4947 
L 3091 4966 
L 3091 4576 
z
" transform="scale(0.015625)"/>
      <path id="AppleGothic-c6d0" d="M 3533 3853 
Q 3533 4141 3280 4307 
Q 3027 4474 2554 4474 
Q 2125 4474 1862 4352 
Q 1530 4186 1530 3846 
Q 1530 3571 1843 3392 
Q 2125 3245 2541 3245 
Q 2950 3245 3238 3398 
Q 3533 3565 3533 3853 
z
M 5600 -371 
L 3725 -358 
Q 3226 -358 2611 -364 
Q 1997 -371 1357 -384 
L 1376 448 
Q 1376 608 1376 713 
Q 1376 819 1370 870 
Q 1370 922 1366 970 
Q 1363 1018 1357 1062 
Q 1510 1062 1696 1043 
Q 1875 1024 1875 973 
Q 1875 954 1846 877 
Q 1818 800 1818 742 
L 1818 -6 
L 3725 -6 
Q 4077 -6 4358 -3 
Q 4640 0 4867 6 
Q 5094 13 5273 19 
Q 5453 26 5600 32 
L 5600 -371 
z
M 4538 2266 
Q 4467 2253 4416 2249 
Q 4365 2246 4314 2240 
Q 4166 2227 4016 2217 
Q 3866 2208 3712 2208 
Q 3546 2208 3386 2198 
Q 3226 2189 3059 2176 
Q 2938 2163 2778 2138 
L 2758 1594 
L 2758 1126 
Q 2765 1018 2778 934 
L 2298 915 
Q 2298 947 2298 1017 
Q 2298 1088 2304 1203 
Q 2310 1312 2313 1389 
Q 2317 1466 2317 1504 
L 2310 2112 
Q 2291 2099 1837 2093 
Q 1613 2086 1373 2083 
Q 1133 2080 883 2080 
Q 838 2080 764 2064 
Q 691 2048 678 2048 
Q 621 2048 608 2138 
L 582 2470 
Q 678 2477 764 2477 
Q 851 2477 922 2477 
Q 1408 2490 1801 2496 
Q 2195 2502 2502 2502 
Q 2867 2502 3225 2518 
Q 3584 2534 3949 2566 
Q 4070 2579 4211 2595 
Q 4352 2611 4518 2637 
L 4538 2266 
z
M 5440 5094 
Q 5440 5082 5437 5069 
Q 5434 5056 5427 5030 
Q 5395 4915 5395 4851 
L 5389 2682 
Q 5389 2285 5389 1981 
Q 5389 1677 5395 1459 
Q 5402 1242 5405 1040 
Q 5408 838 5414 646 
L 4941 621 
L 4947 1466 
L 4358 1485 
Q 3872 1485 3693 1466 
L 3693 1830 
L 4371 1818 
L 4960 1843 
L 4960 3738 
Q 4960 4096 4957 4342 
Q 4954 4589 4947 4730 
Q 4941 4877 4937 4989 
Q 4934 5101 4922 5190 
L 5030 5190 
Q 5216 5190 5328 5174 
Q 5440 5158 5440 5094 
z
M 4000 3846 
Q 4000 3405 3597 3149 
Q 3194 2899 2560 2899 
Q 1971 2899 1536 3136 
Q 1069 3411 1069 3846 
Q 1069 4326 1517 4602 
Q 1920 4851 2522 4851 
Q 3123 4851 3539 4602 
Q 4000 4314 4000 3846 
z
" transform="scale(0.015625)"/>
      <path id="AppleGothic-c0b0" d="M 5293 -499 
L 3661 -486 
L 1306 -499 
L 1318 346 
L 1306 1178 
L 1677 1171 
Q 1805 1171 1805 1114 
Q 1786 1050 1773 1002 
Q 1760 954 1760 883 
L 1754 -115 
L 3635 -122 
Q 3962 -122 4208 -118 
Q 4454 -115 4640 -109 
Q 4826 -102 4986 -96 
Q 5146 -90 5293 -77 
L 5293 -499 
z
M 5997 2835 
L 5094 2842 
Q 5101 2752 5104 2601 
Q 5107 2451 5107 2170 
L 5094 922 
L 4627 922 
Q 4627 998 4627 1126 
Q 4627 1254 4634 1427 
Q 4646 1773 4653 2701 
Q 4659 3168 4662 3638 
Q 4666 4109 4666 4602 
L 4659 5190 
L 4838 5197 
Q 4973 5197 5062 5174 
Q 5152 5152 5152 5094 
Q 5152 5094 5145 5065 
Q 5139 5037 5129 5001 
Q 5120 4966 5113 4928 
Q 5107 4890 5107 4864 
L 5101 3251 
L 5997 3264 
L 5997 2835 
z
M 4147 2298 
Q 4147 2278 4038 2144 
Q 3942 2029 3885 1978 
Q 3757 2029 3654 2086 
Q 3552 2144 3462 2202 
Q 3174 2394 2880 2669 
Q 2752 2797 2633 2947 
Q 2515 3098 2419 3277 
Q 2387 3328 2352 3405 
Q 2317 3482 2272 3578 
Q 2208 3373 2022 3091 
Q 1830 2790 1568 2534 
Q 1306 2278 979 2035 
Q 928 2003 867 1961 
Q 806 1920 730 1869 
Q 717 1882 704 1885 
Q 691 1888 685 1894 
Q 634 1926 592 1958 
Q 550 1990 512 2022 
Q 493 2042 454 2064 
Q 416 2086 377 2102 
Q 339 2118 313 2131 
Q 288 2144 288 2157 
L 301 2182 
Q 608 2317 781 2432 
Q 1331 2784 1632 3264 
Q 1766 3488 1865 3705 
Q 1965 3923 2022 4141 
Q 2106 4448 2106 4710 
L 2099 4851 
L 2291 4858 
Q 2426 4858 2506 4835 
Q 2586 4813 2586 4742 
Q 2586 4691 2534 4525 
Q 2483 4371 2483 4294 
Q 2483 4192 2502 4093 
Q 2522 3994 2554 3885 
Q 2656 3622 2874 3328 
Q 3066 3078 3280 2880 
Q 3494 2682 3725 2534 
Q 3808 2490 3904 2438 
Q 4000 2387 4128 2336 
Q 4134 2323 4147 2298 
z
" transform="scale(0.015625)"/>
      <path id="AppleGothic-c810" d="M 4941 -6 
L 4941 1094 
Q 4800 1101 4601 1107 
Q 4403 1114 4141 1120 
Q 3885 1126 3661 1129 
Q 3437 1133 3245 1133 
Q 2963 1133 2748 1133 
Q 2534 1133 2374 1126 
Q 2214 1126 2057 1123 
Q 1901 1120 1741 1114 
L 1741 6 
Q 1830 6 2009 6 
Q 2189 6 2470 0 
Q 2746 -6 2915 -9 
Q 3085 -13 3142 -13 
L 4941 -6 
z
M 5395 -486 
L 4941 -499 
L 4915 -365 
L 1766 -352 
L 1747 -474 
L 1280 -480 
L 1293 570 
L 1280 1478 
Q 1702 1466 2217 1462 
Q 2733 1459 3258 1459 
L 5382 1459 
L 5376 205 
L 5376 -243 
Q 5382 -314 5385 -371 
Q 5389 -429 5395 -486 
z
M 4006 2259 
L 3859 2106 
Q 3808 2054 3760 2012 
Q 3712 1971 3661 1920 
Q 3571 1965 3497 2003 
Q 3424 2042 3360 2074 
Q 3181 2182 3024 2310 
Q 2867 2438 2726 2592 
Q 2515 2810 2362 3162 
Q 2336 3219 2310 3296 
Q 2285 3373 2253 3475 
Q 2221 3379 2195 3328 
Q 2022 2931 1670 2573 
Q 1542 2445 1379 2313 
Q 1216 2182 1005 2035 
Q 934 1997 844 1939 
Q 755 1882 646 1811 
L 314 2112 
L 326 2131 
Q 1030 2419 1485 2982 
Q 1997 3603 1997 4314 
L 1990 4429 
Q 1875 4442 1718 4448 
Q 1562 4454 1312 4454 
L 640 4448 
L 640 4845 
Q 742 4838 892 4832 
Q 1043 4826 1222 4822 
Q 1402 4819 1600 4816 
Q 1798 4813 2003 4813 
L 2234 4813 
Q 2579 4813 2828 4816 
Q 3078 4819 3232 4826 
Q 3386 4832 3510 4838 
Q 3635 4845 3744 4858 
L 3744 4422 
L 3142 4435 
L 2490 4422 
Q 2490 4102 2534 3885 
Q 2592 3558 2778 3245 
Q 3040 2797 3552 2483 
Q 3725 2374 4006 2259 
z
M 5446 5107 
Q 5446 5094 5408 4995 
Q 5370 4896 5370 4806 
L 5395 1830 
L 4928 1805 
L 4941 2381 
L 4941 3232 
L 4333 3245 
L 3642 3226 
L 3642 3603 
Q 3674 3603 3754 3603 
Q 3834 3603 3962 3597 
Q 4090 3590 4179 3590 
Q 4269 3590 4320 3590 
L 4941 3603 
L 4941 4742 
Q 4941 4954 4934 5053 
Q 4928 5152 4915 5190 
L 4998 5190 
Q 5171 5190 5308 5174 
Q 5446 5158 5446 5107 
z
" transform="scale(0.015625)"/>
      <path id="AppleGothic-b3c4" d="M 6061 -38 
L 3181 -6 
L 2938 -6 
Q 2560 -6 2269 -6 
Q 1978 -6 1766 -13 
Q 1562 -19 1360 -19 
Q 1158 -19 954 -26 
Q 557 -32 352 -45 
L 352 416 
L 1549 397 
L 2963 403 
L 2982 1139 
L 2970 2035 
L 3066 2035 
Q 3238 2035 3369 2012 
Q 3501 1990 3501 1920 
Q 3501 1901 3478 1821 
Q 3456 1741 3456 1709 
Q 3424 1658 3424 1030 
Q 3424 800 3443 531 
Q 3443 506 3446 474 
Q 3450 442 3456 403 
L 4608 397 
Q 4960 397 5347 400 
Q 5734 403 6061 416 
L 6061 -38 
z
M 5299 2202 
L 3744 2208 
L 1146 2195 
L 1165 3379 
L 1152 4640 
Q 1293 4634 1408 4634 
Q 1523 4634 1619 4634 
Q 2266 4621 2701 4614 
Q 3136 4608 3360 4608 
L 5248 4621 
L 5248 4205 
L 3354 4218 
L 1632 4211 
L 1613 3424 
L 1626 2598 
Q 2029 2586 2512 2579 
Q 2995 2573 3443 2573 
Q 3648 2573 3875 2573 
Q 4102 2573 4358 2579 
Q 4858 2586 5299 2598 
L 5299 2202 
z
" transform="scale(0.015625)"/>
      <path id="AppleGothic-53" d="M 3418 4666 
L 3418 4019 
Q 3251 4160 3081 4269 
Q 2912 4378 2746 4448 
Q 2362 4627 1965 4627 
Q 1466 4627 1139 4378 
Q 806 4122 806 3770 
Q 806 3258 1562 3002 
Q 1914 2880 2262 2768 
Q 2611 2656 2970 2541 
Q 3731 2176 3731 1453 
Q 3731 749 3187 320 
Q 2669 -83 1901 -83 
Q 1389 -83 915 115 
Q 640 224 262 474 
L 262 1126 
Q 755 685 1261 506 
Q 1427 442 1587 416 
Q 1747 390 1907 390 
Q 2419 390 2771 646 
Q 3162 928 3162 1382 
Q 3162 1933 2419 2221 
Q 2061 2330 1715 2445 
Q 1370 2560 1024 2669 
Q 275 3014 275 3731 
Q 275 4333 749 4710 
Q 1235 5101 1965 5101 
Q 2413 5101 2861 4934 
Q 3091 4858 3418 4666 
z
" transform="scale(0.015625)"/>
      <path id="AppleGothic-61" d="M 2950 2214 
L 2950 602 
Q 2950 493 2998 413 
Q 3046 333 3174 333 
Q 3213 333 3238 336 
Q 3264 339 3290 346 
Q 3328 358 3357 371 
Q 3386 384 3405 390 
L 3405 32 
Q 3290 -6 3174 -22 
Q 3059 -38 2995 -38 
Q 2669 -38 2566 134 
Q 2483 243 2483 602 
Q 2400 461 2317 355 
Q 2234 250 2150 179 
Q 1818 -83 1376 -83 
Q 909 -83 563 192 
Q 205 486 205 941 
Q 205 1510 781 1779 
Q 992 1882 1341 1958 
Q 1690 2035 2176 2099 
L 2483 2131 
Q 2483 2579 2256 2832 
Q 2029 3085 1587 3085 
Q 1421 3085 1257 3043 
Q 1094 3002 928 2912 
Q 838 2861 729 2790 
Q 621 2720 493 2611 
L 493 3136 
Q 1037 3501 1664 3501 
Q 2304 3501 2650 3098 
Q 2950 2746 2950 2214 
z
M 2483 1542 
L 2483 1747 
L 2266 1722 
Q 1466 1638 1139 1498 
Q 704 1325 704 934 
Q 704 819 755 713 
Q 806 608 896 525 
Q 986 442 1117 390 
Q 1248 339 1408 339 
Q 1843 339 2170 691 
Q 2483 1050 2483 1542 
z
" transform="scale(0.015625)"/>
      <path id="AppleGothic-74" d="M 691 4435 
L 1114 4435 
L 1114 3430 
L 2016 3430 
L 2016 3014 
L 1114 3014 
L 1114 838 
Q 1114 570 1213 454 
Q 1312 339 1555 339 
Q 1696 339 1795 371 
Q 1894 403 2016 454 
L 2016 38 
Q 1914 6 1770 -22 
Q 1626 -51 1478 -51 
Q 1094 -51 883 122 
Q 646 301 646 698 
L 646 3014 
L 70 3014 
L 70 3430 
L 646 3430 
L 691 4435 
z
" transform="scale(0.015625)"/>
      <path id="AppleGothic-65" d="M 3296 1850 
L 691 1850 
Q 691 1114 1033 726 
Q 1376 339 1933 339 
Q 2355 339 2746 608 
Q 2854 678 2976 784 
Q 3098 890 3238 1030 
L 3238 474 
Q 3085 358 2953 272 
Q 2822 186 2707 128 
Q 2304 -83 1901 -83 
Q 1203 -83 717 397 
Q 192 902 192 1709 
Q 192 2470 666 2982 
Q 1146 3501 1850 3501 
Q 2534 3501 2938 3002 
Q 3296 2547 3296 1850 
z
M 755 2240 
L 2758 2240 
Q 2682 2675 2429 2889 
Q 2176 3104 1818 3104 
Q 1421 3104 1146 2854 
Q 890 2624 755 2240 
z
" transform="scale(0.015625)"/>
      <path id="AppleGothic-72" d="M 2125 3424 
L 2125 2963 
Q 2054 2989 2009 3005 
Q 1965 3021 1933 3027 
Q 1901 3034 1865 3037 
Q 1830 3040 1773 3040 
Q 1306 3040 1005 2586 
Q 749 2170 749 1658 
L 749 0 
L 288 0 
L 288 3424 
L 710 3424 
L 742 2835 
Q 902 3104 1043 3219 
Q 1331 3456 1734 3456 
Q 1843 3456 1936 3449 
Q 2029 3443 2125 3424 
z
" transform="scale(0.015625)"/>
      <path id="AppleGothic-70" d="M 736 307 
L 736 -1101 
L 288 -1101 
L 288 3424 
L 704 3424 
L 730 2803 
Q 941 3149 1216 3325 
Q 1491 3501 1882 3501 
Q 2522 3501 2944 3002 
Q 3162 2752 3270 2441 
Q 3379 2131 3379 1747 
Q 3379 954 2899 435 
Q 2419 -83 1754 -83 
Q 1421 -83 1139 58 
Q 1056 90 960 154 
Q 864 218 736 307 
z
M 736 1824 
L 736 800 
Q 838 704 924 637 
Q 1011 570 1082 525 
Q 1395 339 1715 339 
Q 2227 339 2554 742 
Q 2886 1165 2886 1766 
Q 2886 2330 2579 2707 
Q 2278 3085 1811 3085 
Q 1331 3085 1018 2669 
Q 736 2291 736 1824 
z
" transform="scale(0.015625)"/>
      <path id="AppleGothic-6c" d="M 288 5018 
L 749 5018 
L 749 0 
L 288 0 
L 288 5018 
z
" transform="scale(0.015625)"/>
      <path id="AppleGothic-6f" d="M 1888 -83 
Q 1229 -83 730 397 
Q 198 902 198 1709 
Q 198 2470 666 2982 
Q 1146 3501 1850 3501 
Q 2547 3501 3027 2982 
Q 3501 2470 3501 1715 
Q 3501 922 2989 403 
Q 2515 -83 1888 -83 
z
M 1843 339 
Q 2304 339 2662 723 
Q 3008 1114 3008 1715 
Q 3008 2336 2637 2726 
Q 2298 3085 1850 3085 
Q 1389 3085 1062 2714 
Q 704 2304 704 1709 
Q 704 1107 1056 704 
Q 1382 339 1843 339 
z
" transform="scale(0.015625)"/>
     </defs>
     <use xlink:href="#AppleGothic-af43"/>
     <use xlink:href="#AppleGothic-c78e" transform="translate(99.999985 0)"/>
     <use xlink:href="#AppleGothic-c758" transform="translate(199.999969 0)"/>
     <use xlink:href="#AppleGothic-20" transform="translate(299.999954 0)"/>
     <use xlink:href="#AppleGothic-ae38" transform="translate(331.999939 0)"/>
     <use xlink:href="#AppleGothic-c774" transform="translate(431.999924 0)"/>
     <use xlink:href="#AppleGothic-c640" transform="translate(531.999908 0)"/>
     <use xlink:href="#AppleGothic-20" transform="translate(631.999893 0)"/>
     <use xlink:href="#AppleGothic-b108" transform="translate(663.999878 0)"/>
     <use xlink:href="#AppleGothic-be44" transform="translate(763.999863 0)"/>
     <use xlink:href="#AppleGothic-b97c" transform="translate(863.999847 0)"/>
     <use xlink:href="#AppleGothic-20" transform="translate(963.999832 0)"/>
     <use xlink:href="#AppleGothic-d65c" transform="translate(995.999817 0)"/>
     <use xlink:href="#AppleGothic-c6a9" transform="translate(1095.999802 0)"/>
     <use xlink:href="#AppleGothic-d55c" transform="translate(1195.999786 0)"/>
     <use xlink:href="#AppleGothic-20" transform="translate(1295.999771 0)"/>
     <use xlink:href="#AppleGothic-32" transform="translate(1327.999756 0)"/>
     <use xlink:href="#AppleGothic-cc28" transform="translate(1395.999741 0)"/>
     <use xlink:href="#AppleGothic-c6d0" transform="translate(1495.999725 0)"/>
     <use xlink:href="#AppleGothic-20" transform="translate(1595.99971 0)"/>
     <use xlink:href="#AppleGothic-c0b0" transform="translate(1627.999695 0)"/>
     <use xlink:href="#AppleGothic-c810" transform="translate(1727.99968 0)"/>
     <use xlink:href="#AppleGothic-b3c4" transform="translate(1827.999664 0)"/>
     <use xlink:href="#AppleGothic-20" transform="translate(1927.999649 0)"/>
     <use xlink:href="#AppleGothic-28" transform="translate(1959.999634 0)"/>
     <use xlink:href="#AppleGothic-53" transform="translate(2009.999619 0)"/>
     <use xlink:href="#AppleGothic-63" transform="translate(2073.199615 0)"/>
     <use xlink:href="#AppleGothic-61" transform="translate(2125.099609 0)"/>
     <use xlink:href="#AppleGothic-74" transform="translate(2181.599594 0)"/>
     <use xlink:href="#AppleGothic-74" transform="translate(2215.799591 0)"/>
     <use xlink:href="#AppleGothic-65" transform="translate(2249.999588 0)"/>
     <use xlink:href="#AppleGothic-72" transform="translate(2304.899582 0)"/>
     <use xlink:href="#AppleGothic-70" transform="translate(2340.099579 0)"/>
     <use xlink:href="#AppleGothic-6c" transform="translate(2395.499573 0)"/>
     <use xlink:href="#AppleGothic-6f" transform="translate(2412.19957 0)"/>
     <use xlink:href="#AppleGothic-74" transform="translate(2470.499557 0)"/>
     <use xlink:href="#AppleGothic-29" transform="translate(2504.699554 0)"/>
    </g>
   </g>
   <g id="legend_1">
    <g id="patch_7">
     <path d="M 51.810938 89.628437 
L 126.832812 89.628437 
Q 128.832812 89.628437 128.832812 87.628437 
L 128.832812 30.064375 
Q 128.832812 28.064375 126.832812 28.064375 
L 51.810938 28.064375 
Q 49.810938 28.064375 49.810938 30.064375 
L 49.810938 87.628437 
Q 49.810938 89.628437 51.810938 89.628437 
z
" style="fill: #ffffff; opacity: 0.8; stroke: #cccccc; stroke-linejoin: miter"/>
    </g>
    <g id="text_17">
     <!-- species -->
     <g transform="translate(72.710938 39.905) scale(0.1 -0.1)">
      <defs>
       <path id="AppleGothic-73" d="M 224 294 
L 224 851 
Q 621 531 1030 403 
Q 1152 371 1267 355 
Q 1382 339 1504 339 
Q 1894 339 2150 518 
Q 2413 710 2413 947 
Q 2413 1075 2317 1210 
Q 2182 1376 1600 1510 
Q 909 1683 678 1798 
Q 230 2054 230 2515 
Q 230 2944 602 3219 
Q 979 3501 1542 3501 
Q 1798 3501 2003 3456 
Q 2208 3411 2387 3337 
Q 2566 3264 2720 3155 
L 2720 2598 
Q 2451 2822 2156 2953 
Q 1862 3085 1536 3085 
Q 1210 3085 973 2938 
Q 730 2790 730 2554 
Q 730 2240 1306 2054 
Q 1574 1978 1836 1901 
Q 2099 1824 2368 1747 
Q 2950 1498 2950 992 
Q 2950 563 2547 237 
Q 2138 -83 1530 -83 
Q 1261 -83 1005 -26 
Q 595 64 224 294 
z
" transform="scale(0.015625)"/>
       <path id="AppleGothic-69" d="M 256 3424 
L 717 3424 
L 717 0 
L 256 0 
L 256 3424 
z
M 480 4870 
Q 614 4870 704 4780 
Q 794 4691 794 4525 
Q 794 4358 710 4268 
Q 627 4179 480 4179 
Q 333 4179 253 4281 
Q 173 4384 173 4518 
Q 173 4730 269 4800 
Q 365 4870 480 4870 
z
" transform="scale(0.015625)"/>
      </defs>
      <use xlink:href="#AppleGothic-73"/>
      <use xlink:href="#AppleGothic-70" transform="translate(49.599991 0)"/>
      <use xlink:href="#AppleGothic-65" transform="translate(104.999985 0)"/>
      <use xlink:href="#AppleGothic-63" transform="translate(159.899979 0)"/>
      <use xlink:href="#AppleGothic-69" transform="translate(211.799973 0)"/>
      <use xlink:href="#AppleGothic-65" transform="translate(227.699966 0)"/>
      <use xlink:href="#AppleGothic-73" transform="translate(282.59996 0)"/>
     </g>
    </g>
    <g id="line2d_30">
     <defs>
      <path id="mfdc7112799" d="M 0 5 
C 1.326016 5 2.597899 4.473168 3.535534 3.535534 
C 4.473168 2.597899 5 1.326016 5 0 
C 5 -1.326016 4.473168 -2.597899 3.535534 -3.535534 
C 2.597899 -4.473168 1.326016 -5 0 -5 
C -1.326016 -5 -2.597899 -4.473168 -3.535534 -3.535534 
C -4.473168 -2.597899 -5 -1.326016 -5 0 
C -5 1.326016 -4.473168 2.597899 -3.535534 3.535534 
C -2.597899 4.473168 -1.326016 5 0 5 
z
" style="stroke: #ffffff; stroke-opacity: 0.8; stroke-width: 0.8"/>
     </defs>
     <g>
      <use xlink:href="#mfdc7112799" x="63.810938" y="50.965937" style="fill: #f77189; fill-opacity: 0.8; stroke: #ffffff; stroke-opacity: 0.8; stroke-width: 0.8"/>
     </g>
    </g>
    <g id="text_18">
     <!-- setosa -->
     <g transform="translate(81.810937 54.465937) scale(0.1 -0.1)">
      <use xlink:href="#AppleGothic-73"/>
      <use xlink:href="#AppleGothic-65" transform="translate(49.599991 0)"/>
      <use xlink:href="#AppleGothic-74" transform="translate(104.499985 0)"/>
      <use xlink:href="#AppleGothic-6f" transform="translate(138.699982 0)"/>
      <use xlink:href="#AppleGothic-73" transform="translate(196.999969 0)"/>
      <use xlink:href="#AppleGothic-61" transform="translate(246.59996 0)"/>
     </g>
    </g>
    <g id="line2d_31">
     <defs>
      <path id="mdcf1f2f68f" d="M 0 5 
C 1.326016 5 2.597899 4.473168 3.535534 3.535534 
C 4.473168 2.597899 5 1.326016 5 0 
C 5 -1.326016 4.473168 -2.597899 3.535534 -3.535534 
C 2.597899 -4.473168 1.326016 -5 0 -5 
C -1.326016 -5 -2.597899 -4.473168 -3.535534 -3.535534 
C -4.473168 -2.597899 -5 -1.326016 -5 0 
C -5 1.326016 -4.473168 2.597899 -3.535534 3.535534 
C -2.597899 4.473168 -1.326016 5 0 5 
z
" style="stroke: #ffffff; stroke-opacity: 0.8; stroke-width: 0.8"/>
     </defs>
     <g>
      <use xlink:href="#mdcf1f2f68f" x="63.810938" y="65.526875" style="fill: #bb9832; fill-opacity: 0.8; stroke: #ffffff; stroke-opacity: 0.8; stroke-width: 0.8"/>
     </g>
    </g>
    <g id="text_19">
     <!-- versicolor -->
     <g transform="translate(81.810937 69.026875) scale(0.1 -0.1)">
      <defs>
       <path id="AppleGothic-76" d="M 109 3424 
L 627 3424 
L 1715 486 
L 2829 3424 
L 3290 3424 
L 1920 0 
L 1478 0 
L 109 3424 
z
" transform="scale(0.015625)"/>
      </defs>
      <use xlink:href="#AppleGothic-76"/>
      <use xlink:href="#AppleGothic-65" transform="translate(54.199997 0)"/>
      <use xlink:href="#AppleGothic-72" transform="translate(109.099991 0)"/>
      <use xlink:href="#AppleGothic-73" transform="translate(144.299988 0)"/>
      <use xlink:href="#AppleGothic-69" transform="translate(193.899979 0)"/>
      <use xlink:href="#AppleGothic-63" transform="translate(209.799973 0)"/>
      <use xlink:href="#AppleGothic-6f" transform="translate(261.699966 0)"/>
      <use xlink:href="#AppleGothic-6c" transform="translate(319.999954 0)"/>
      <use xlink:href="#AppleGothic-6f" transform="translate(336.699951 0)"/>
      <use xlink:href="#AppleGothic-72" transform="translate(394.999939 0)"/>
     </g>
    </g>
    <g id="line2d_32">
     <defs>
      <path id="me4ef75af04" d="M 0 5 
C 1.326016 5 2.597899 4.473168 3.535534 3.535534 
C 4.473168 2.597899 5 1.326016 5 0 
C 5 -1.326016 4.473168 -2.597899 3.535534 -3.535534 
C 2.597899 -4.473168 1.326016 -5 0 -5 
C -1.326016 -5 -2.597899 -4.473168 -3.535534 -3.535534 
C -4.473168 -2.597899 -5 -1.326016 -5 0 
C -5 1.326016 -4.473168 2.597899 -3.535534 3.535534 
C -2.597899 4.473168 -1.326016 5 0 5 
z
" style="stroke: #ffffff; stroke-opacity: 0.8; stroke-width: 0.8"/>
     </defs>
     <g>
      <use xlink:href="#me4ef75af04" x="63.810938" y="80.087812" style="fill: #50b131; fill-opacity: 0.8; stroke: #ffffff; stroke-opacity: 0.8; stroke-width: 0.8"/>
     </g>
    </g>
    <g id="text_20">
     <!-- virginica -->
     <g transform="translate(81.810937 83.587812) scale(0.1 -0.1)">
      <defs>
       <path id="AppleGothic-67" d="M 2822 3040 
L 2950 3424 
L 3290 3424 
L 3290 326 
Q 3290 -474 2899 -890 
Q 2509 -1306 1690 -1306 
Q 1357 -1306 1059 -1187 
Q 762 -1069 435 -819 
L 435 -256 
Q 640 -448 838 -579 
Q 1037 -710 1229 -781 
Q 1453 -864 1690 -864 
Q 2195 -864 2477 -634 
Q 2822 -352 2822 269 
L 2822 691 
Q 2579 288 2221 122 
Q 1978 6 1683 6 
Q 1050 6 621 512 
Q 198 1030 198 1709 
Q 198 2387 595 2906 
Q 1056 3501 1773 3501 
Q 2131 3501 2451 3328 
Q 2547 3270 2640 3200 
Q 2733 3130 2822 3040 
z
M 2822 1658 
L 2822 2598 
Q 2714 2720 2602 2803 
Q 2490 2886 2381 2950 
Q 2253 3021 2118 3053 
Q 1984 3085 1843 3085 
Q 1363 3085 1050 2746 
Q 698 2362 698 1734 
Q 698 1165 992 794 
Q 1280 429 1741 429 
Q 2195 429 2509 781 
Q 2822 1120 2822 1658 
z
" transform="scale(0.015625)"/>
       <path id="AppleGothic-6e" d="M 3264 2291 
L 3264 0 
L 2803 0 
L 2803 2259 
Q 2803 2618 2541 2848 
Q 2278 3085 1914 3085 
Q 1427 3085 1075 2682 
Q 723 2272 723 1760 
L 723 0 
L 288 0 
L 288 3424 
L 691 3424 
L 710 2784 
Q 883 3046 1114 3219 
Q 1491 3501 1965 3501 
Q 2515 3501 2886 3168 
Q 3264 2842 3264 2291 
z
" transform="scale(0.015625)"/>
      </defs>
      <use xlink:href="#AppleGothic-76"/>
      <use xlink:href="#AppleGothic-69" transform="translate(54.199997 0)"/>
      <use xlink:href="#AppleGothic-72" transform="translate(70.099991 0)"/>
      <use xlink:href="#AppleGothic-67" transform="translate(105.299988 0)"/>
      <use xlink:href="#AppleGothic-69" transform="translate(161.499985 0)"/>
      <use xlink:href="#AppleGothic-6e" transform="translate(177.399979 0)"/>
      <use xlink:href="#AppleGothic-69" transform="translate(233.299973 0)"/>
      <use xlink:href="#AppleGothic-63" transform="translate(249.199966 0)"/>
      <use xlink:href="#AppleGothic-61" transform="translate(301.09996 0)"/>
     </g>
    </g>
   </g>
  </g>
 </g>
 <defs>
  <clipPath id="pfaea29b557">
   <rect x="44.810938" y="23.064375" width="502.2" height="388.08"/>
  </clipPath>
 </defs>
</svg>
