<?xml version="1.0" encoding="utf-8" standalone="no"?>
<!DOCTYPE svg PUBLIC "-//W3C//DTD SVG 1.1//EN"
  "http://www.w3.org/Graphics/SVG/1.1/DTD/svg11.dtd">
<svg xmlns:xlink="http://www.w3.org/1999/xlink" width="568.71pt" height="570.365156pt" viewBox="0 0 568.71 570.365156" xmlns="http://www.w3.org/2000/svg" version="1.1">
 <metadata>
  <rdf:RDF xmlns:dc="http://purl.org/dc/elements/1.1/" xmlns:cc="http://creativecommons.org/ns#" xmlns:rdf="http://www.w3.org/1999/02/22-rdf-syntax-ns#">
   <cc:Work>
    <dc:type rdf:resource="http://purl.org/dc/dcmitype/StillImage"/>
    <dc:date>2026-04-26T19:36:09.394608</dc:date>
    <dc:format>image/svg+xml</dc:format>
    <dc:creator>
     <cc:Agent>
      <dc:title>Matplotlib v3.10.9, https://matplotlib.org/</dc:title>
     </cc:Agent>
    </dc:creator>
   </cc:Work>
  </rdf:RDF>
 </metadata>
 <defs>
  <style type="text/css">*{stroke-linejoin: round; stroke-linecap: butt}</style>
 </defs>
 <g id="figure_1">
  <g id="patch_1">
   <path d="M 0 570.365156 
L 568.71 570.365156 
L 568.71 0 
L 0 0 
z
" style="fill: #ffffff"/>
  </g>
  <g id="axes_1">
   <g id="patch_2">
    <path d="M 38.05 247.1975 
L 278.91 247.1975 
L 278.91 22.60875 
L 38.05 22.60875 
z
" style="fill: #ffffff"/>
   </g>
   <g id="matplotlib.axis_1">
    <g id="xtick_1">
     <g id="line2d_1">
      <defs>
       <path id="m741fb00ff1" d="M 0 0 
L 0 3.5 
" style="stroke: #000000; stroke-width: 0.8"/>
      </defs>
      <g>
       <use xlink:href="#m741fb00ff1" x="48.998182" y="247.1975" style="stroke: #000000; stroke-width: 0.8"/>
      </g>
     </g>
     <g id="text_1">
      <!-- 1.0 -->
      <g transform="translate(40.473182 262.038125) scale(0.1 -0.1)">
       <defs>
        <path id="AppleGothic-31" d="M 2342 4774 
L 2752 4774 
L 2752 0 
L 2285 0 
L 2285 3526 
L 1158 3526 
L 1158 3885 
L 1414 3885 
Q 1990 3885 2214 4205 
Q 2342 4410 2342 4774 
z
" transform="scale(0.015625)"/>
        <path id="AppleGothic-2e" d="M 915 -19 
Q 762 -19 653 109 
Q 544 237 544 422 
Q 544 614 656 745 
Q 768 877 915 877 
Q 1056 877 1168 758 
Q 1280 640 1280 435 
Q 1280 243 1171 112 
Q 1062 -19 915 -19 
z
" transform="scale(0.015625)"/>
        <path id="AppleGothic-30" d="M 2227 -83 
Q 1414 -83 934 576 
Q 461 1229 461 2387 
Q 461 3552 973 4218 
Q 1453 4858 2221 4858 
Q 3027 4858 3482 4173 
Q 3955 3494 3955 2394 
Q 3955 1248 3462 582 
Q 2976 -83 2227 -83 
z
M 2176 346 
Q 2861 346 3200 992 
Q 3462 1536 3462 2400 
Q 3462 3315 3162 3859 
Q 2822 4429 2214 4429 
Q 1574 4429 1248 3821 
Q 960 3283 960 2374 
Q 960 1478 1248 941 
Q 1574 346 2176 346 
z
" transform="scale(0.015625)"/>
       </defs>
       <use xlink:href="#AppleGothic-31"/>
       <use xlink:href="#AppleGothic-2e" transform="translate(67.999985 0)"/>
       <use xlink:href="#AppleGothic-30" transform="translate(102.499969 0)"/>
      </g>
     </g>
    </g>
    <g id="xtick_2">
     <g id="line2d_2">
      <g>
       <use xlink:href="#m741fb00ff1" x="103.739091" y="247.1975" style="stroke: #000000; stroke-width: 0.8"/>
      </g>
     </g>
     <g id="text_2">
      <!-- 1.5 -->
      <g transform="translate(95.214091 262.038125) scale(0.1 -0.1)">
       <defs>
        <path id="AppleGothic-35" d="M 621 4768 
L 3488 4768 
L 3488 4339 
L 1088 4339 
L 1088 2707 
Q 1184 2771 1293 2819 
Q 1402 2867 1510 2912 
Q 1862 3040 2259 3040 
Q 2989 3040 3424 2605 
Q 3827 2202 3827 1581 
Q 3827 870 3296 397 
Q 2765 -83 2010 -83 
Q 1651 -83 1248 45 
Q 1158 77 1001 137 
Q 845 198 621 301 
L 621 838 
Q 928 640 1203 525 
Q 1408 435 1613 390 
Q 1818 346 2010 346 
Q 2528 346 2906 666 
Q 3322 1011 3322 1536 
Q 3322 1990 3021 2291 
Q 2701 2611 2144 2611 
Q 1856 2611 1587 2528 
Q 1318 2445 1088 2272 
L 621 2272 
L 621 4768 
z
" transform="scale(0.015625)"/>
       </defs>
       <use xlink:href="#AppleGothic-31"/>
       <use xlink:href="#AppleGothic-2e" transform="translate(67.999985 0)"/>
       <use xlink:href="#AppleGothic-35" transform="translate(102.499969 0)"/>
      </g>
     </g>
    </g>
    <g id="xtick_3">
     <g id="line2d_3">
      <g>
       <use xlink:href="#m741fb00ff1" x="158.48" y="247.1975" style="stroke: #000000; stroke-width: 0.8"/>
      </g>
     </g>
     <g id="text_3">
      <!-- 2.0 -->
      <g transform="translate(149.955 262.038125) scale(0.1 -0.1)">
       <defs>
        <path id="AppleGothic-32" d="M 1101 429 
L 3942 429 
L 3942 0 
L 653 0 
L 653 205 
Q 653 1018 1344 1664 
Q 1670 1894 1990 2124 
Q 2310 2355 2637 2592 
Q 3334 3098 3334 3597 
Q 3334 3994 3014 4218 
Q 2867 4326 2694 4377 
Q 2522 4429 2317 4429 
Q 2016 4429 1741 4352 
Q 1325 4224 883 3910 
L 883 4435 
Q 1325 4659 1667 4758 
Q 2010 4858 2317 4858 
Q 2963 4858 3405 4525 
Q 3840 4198 3840 3622 
Q 3840 2995 3168 2438 
Q 2848 2214 2531 2000 
Q 2214 1786 1894 1562 
Q 1178 1024 1101 429 
z
" transform="scale(0.015625)"/>
       </defs>
       <use xlink:href="#AppleGothic-32"/>
       <use xlink:href="#AppleGothic-2e" transform="translate(67.999985 0)"/>
       <use xlink:href="#AppleGothic-30" transform="translate(102.499969 0)"/>
      </g>
     </g>
    </g>
    <g id="xtick_4">
     <g id="line2d_4">
      <g>
       <use xlink:href="#m741fb00ff1" x="213.220909" y="247.1975" style="stroke: #000000; stroke-width: 0.8"/>
      </g>
     </g>
     <g id="text_4">
      <!-- 2.5 -->
      <g transform="translate(204.695909 262.038125) scale(0.1 -0.1)">
       <use xlink:href="#AppleGothic-32"/>
       <use xlink:href="#AppleGothic-2e" transform="translate(67.999985 0)"/>
       <use xlink:href="#AppleGothic-35" transform="translate(102.499969 0)"/>
      </g>
     </g>
    </g>
    <g id="xtick_5">
     <g id="line2d_5">
      <g>
       <use xlink:href="#m741fb00ff1" x="267.961818" y="247.1975" style="stroke: #000000; stroke-width: 0.8"/>
      </g>
     </g>
     <g id="text_5">
      <!-- 3.0 -->
      <g transform="translate(259.436818 262.038125) scale(0.1 -0.1)">
       <defs>
        <path id="AppleGothic-33" d="M 550 333 
L 550 870 
Q 883 621 1235 483 
Q 1587 346 1971 346 
Q 2522 346 2861 666 
Q 3219 992 3219 1421 
Q 3219 1869 2842 2099 
Q 2515 2304 1965 2304 
L 992 2304 
L 992 2701 
L 1658 2701 
Q 2298 2701 2662 2928 
Q 3027 3155 3027 3584 
Q 3027 3936 2752 4173 
Q 2458 4429 1978 4429 
Q 1786 4429 1597 4393 
Q 1408 4358 1222 4282 
Q 890 4141 531 3872 
L 531 4422 
Q 736 4531 912 4608 
Q 1088 4685 1254 4736 
Q 1626 4858 2022 4858 
Q 2650 4858 3066 4531 
Q 3488 4211 3488 3642 
Q 3488 3168 3168 2861 
Q 2976 2675 2643 2554 
Q 2874 2522 3053 2448 
Q 3232 2374 3366 2266 
Q 3718 1971 3718 1434 
Q 3718 813 3219 365 
Q 2714 -83 1965 -83 
Q 1549 -83 1126 70 
Q 1024 102 880 166 
Q 736 230 550 333 
z
" transform="scale(0.015625)"/>
       </defs>
       <use xlink:href="#AppleGothic-33"/>
       <use xlink:href="#AppleGothic-2e" transform="translate(67.999985 0)"/>
       <use xlink:href="#AppleGothic-30" transform="translate(102.499969 0)"/>
      </g>
     </g>
    </g>
   </g>
   <g id="matplotlib.axis_2">
    <g id="ytick_1">
     <g id="line2d_6">
      <defs>
       <path id="m9b1cc286f0" d="M 0 0 
L -3.5 0 
" style="stroke: #000000; stroke-width: 0.8"/>
      </defs>
      <g>
       <use xlink:href="#m9b1cc286f0" x="38.05" y="236.98892" style="stroke: #000000; stroke-width: 0.8"/>
      </g>
     </g>
     <g id="text_6">
      <!-- 1 -->
      <g transform="translate(24.25 240.909233) scale(0.1 -0.1)">
       <use xlink:href="#AppleGothic-31"/>
      </g>
     </g>
    </g>
    <g id="ytick_2">
     <g id="line2d_7">
      <g>
       <use xlink:href="#m9b1cc286f0" x="38.05" y="211.467472" style="stroke: #000000; stroke-width: 0.8"/>
      </g>
     </g>
     <g id="text_7">
      <!-- 2 -->
      <g transform="translate(24.25 215.387784) scale(0.1 -0.1)">
       <use xlink:href="#AppleGothic-32"/>
      </g>
     </g>
    </g>
    <g id="ytick_3">
     <g id="line2d_8">
      <g>
       <use xlink:href="#m9b1cc286f0" x="38.05" y="185.946023" style="stroke: #000000; stroke-width: 0.8"/>
      </g>
     </g>
     <g id="text_8">
      <!-- 3 -->
      <g transform="translate(24.25 189.866335) scale(0.1 -0.1)">
       <use xlink:href="#AppleGothic-33"/>
      </g>
     </g>
    </g>
    <g id="ytick_4">
     <g id="line2d_9">
      <g>
       <use xlink:href="#m9b1cc286f0" x="38.05" y="160.424574" style="stroke: #000000; stroke-width: 0.8"/>
      </g>
     </g>
     <g id="text_9">
      <!-- 4 -->
      <g transform="translate(24.25 164.344886) scale(0.1 -0.1)">
       <defs>
        <path id="AppleGothic-34" d="M 2662 4774 
L 3130 4774 
L 3130 1811 
L 4000 1811 
L 4000 1382 
L 3130 1382 
L 3130 0 
L 2662 0 
L 2662 1382 
L 352 1382 
L 352 1811 
L 2662 4774 
z
M 2662 1811 
L 2662 4166 
L 838 1811 
L 2662 1811 
z
" transform="scale(0.015625)"/>
       </defs>
       <use xlink:href="#AppleGothic-34"/>
      </g>
     </g>
    </g>
    <g id="ytick_5">
     <g id="line2d_10">
      <g>
       <use xlink:href="#m9b1cc286f0" x="38.05" y="134.903125" style="stroke: #000000; stroke-width: 0.8"/>
      </g>
     </g>
     <g id="text_10">
      <!-- 5 -->
      <g transform="translate(24.25 138.823438) scale(0.1 -0.1)">
       <use xlink:href="#AppleGothic-35"/>
      </g>
     </g>
    </g>
    <g id="ytick_6">
     <g id="line2d_11">
      <g>
       <use xlink:href="#m9b1cc286f0" x="38.05" y="109.381676" style="stroke: #000000; stroke-width: 0.8"/>
      </g>
     </g>
     <g id="text_11">
      <!-- 6 -->
      <g transform="translate(24.25 113.301989) scale(0.1 -0.1)">
       <defs>
        <path id="AppleGothic-36" d="M 3699 4557 
L 3699 4013 
Q 3584 4102 3475 4163 
Q 3366 4224 3258 4275 
Q 3085 4358 2918 4393 
Q 2752 4429 2586 4429 
Q 2470 4429 2352 4409 
Q 2234 4390 2118 4339 
Q 1670 4154 1395 3738 
Q 1011 3149 1011 2189 
Q 1312 2490 1568 2656 
Q 2022 2931 2534 2931 
Q 3162 2931 3584 2566 
Q 4038 2163 4038 1491 
Q 4038 806 3558 358 
Q 3078 -83 2394 -83 
Q 1670 -83 1146 454 
Q 518 1088 518 2253 
Q 518 3411 1120 4134 
Q 1715 4858 2605 4858 
Q 2938 4858 3226 4762 
Q 3309 4730 3427 4682 
Q 3546 4634 3699 4557 
z
M 1062 1702 
Q 1152 1152 1498 768 
Q 1882 346 2419 346 
Q 2899 346 3213 659 
Q 3539 973 3539 1459 
Q 3539 1920 3226 2214 
Q 2918 2502 2496 2502 
Q 1990 2502 1542 2176 
Q 1414 2080 1292 1965 
Q 1171 1850 1062 1702 
z
" transform="scale(0.015625)"/>
       </defs>
       <use xlink:href="#AppleGothic-36"/>
      </g>
     </g>
    </g>
    <g id="ytick_7">
     <g id="line2d_12">
      <g>
       <use xlink:href="#m9b1cc286f0" x="38.05" y="83.860227" style="stroke: #000000; stroke-width: 0.8"/>
      </g>
     </g>
     <g id="text_12">
      <!-- 7 -->
      <g transform="translate(24.25 87.78054) scale(0.1 -0.1)">
       <defs>
        <path id="AppleGothic-37" d="M 595 4774 
L 3802 4774 
L 3802 4410 
L 1734 0 
L 1235 0 
L 3277 4352 
L 595 4352 
L 595 4774 
z
" transform="scale(0.015625)"/>
       </defs>
       <use xlink:href="#AppleGothic-37"/>
      </g>
     </g>
    </g>
    <g id="ytick_8">
     <g id="line2d_13">
      <g>
       <use xlink:href="#m9b1cc286f0" x="38.05" y="58.338778" style="stroke: #000000; stroke-width: 0.8"/>
      </g>
     </g>
     <g id="text_13">
      <!-- 8 -->
      <g transform="translate(24.25 62.259091) scale(0.1 -0.1)">
       <defs>
        <path id="AppleGothic-38" d="M 2957 2605 
Q 3219 2528 3404 2445 
Q 3590 2362 3706 2272 
Q 4192 1926 4192 1370 
Q 4192 749 3642 333 
Q 3098 -83 2285 -83 
Q 1434 -83 947 326 
Q 512 691 512 1229 
Q 512 1798 998 2125 
Q 1146 2227 1341 2304 
Q 1536 2381 1779 2451 
Q 1574 2534 1430 2617 
Q 1286 2701 1197 2784 
Q 819 3104 819 3603 
Q 819 4173 1261 4512 
Q 1702 4858 2381 4858 
Q 3014 4858 3437 4570 
Q 3898 4262 3898 3738 
Q 3898 3373 3670 3081 
Q 3443 2790 2957 2605 
z
M 2406 2752 
Q 2624 2835 2781 2915 
Q 2938 2995 3040 3066 
Q 3398 3322 3398 3667 
Q 3398 3994 3104 4205 
Q 2822 4429 2362 4429 
Q 1894 4429 1613 4205 
Q 1325 3994 1325 3635 
Q 1325 3322 1581 3098 
Q 1696 3002 1901 2912 
Q 2106 2822 2406 2752 
z
M 2368 2304 
Q 2061 2202 1840 2106 
Q 1619 2010 1472 1920 
Q 1011 1626 1011 1235 
Q 1011 845 1376 595 
Q 1728 346 2310 346 
Q 2938 346 3315 640 
Q 3693 934 3693 1338 
Q 3693 1741 3238 1997 
Q 3104 2067 2886 2147 
Q 2669 2227 2368 2304 
z
" transform="scale(0.015625)"/>
       </defs>
       <use xlink:href="#AppleGothic-38"/>
      </g>
     </g>
    </g>
    <g id="ytick_9">
     <g id="line2d_14">
      <g>
       <use xlink:href="#m9b1cc286f0" x="38.05" y="32.81733" style="stroke: #000000; stroke-width: 0.8"/>
      </g>
     </g>
     <g id="text_14">
      <!-- 9 -->
      <g transform="translate(24.25 36.737642) scale(0.1 -0.1)">
       <defs>
        <path id="AppleGothic-39" d="M 928 211 
L 928 762 
Q 1050 672 1155 601 
Q 1261 531 1363 480 
Q 1702 320 2016 320 
Q 2291 320 2541 435 
Q 2739 525 2908 675 
Q 3078 826 3213 1037 
Q 3456 1408 3552 1843 
Q 3616 2144 3616 2573 
Q 3315 2272 3066 2125 
Q 2605 1850 2093 1850 
Q 1459 1850 1037 2214 
Q 589 2598 589 3270 
Q 589 3987 1082 4416 
Q 1549 4832 2234 4832 
Q 2970 4832 3494 4301 
Q 4122 3661 4122 2528 
Q 4122 1325 3475 582 
Q 2874 -109 2035 -109 
Q 1722 -109 1357 19 
Q 1254 51 1148 102 
Q 1043 154 928 211 
z
M 3578 3066 
Q 3462 3718 3053 4077 
Q 2675 4403 2227 4403 
Q 1715 4403 1402 4083 
Q 1082 3750 1082 3302 
Q 1082 2861 1370 2566 
Q 1658 2278 2125 2278 
Q 2573 2278 2915 2473 
Q 3258 2669 3578 3066 
z
" transform="scale(0.015625)"/>
       </defs>
       <use xlink:href="#AppleGothic-39"/>
      </g>
     </g>
    </g>
   </g>
   <g id="line2d_15">
    <path d="M 48.998182 236.98892 
L 158.48 160.424574 
L 267.961818 32.81733 
" clip-path="url(#p866f45a663)" style="fill: none; stroke: #ff0000; stroke-width: 1.5; stroke-linecap: square"/>
    <defs>
     <path id="med5a60e6b6" d="M 0 3 
C 0.795609 3 1.55874 2.683901 2.12132 2.12132 
C 2.683901 1.55874 3 0.795609 3 0 
C 3 -0.795609 2.683901 -1.55874 2.12132 -2.12132 
C 1.55874 -2.683901 0.795609 -3 0 -3 
C -0.795609 -3 -1.55874 -2.683901 -2.12132 -2.12132 
C -2.683901 -1.55874 -3 -0.795609 -3 0 
C -3 0.795609 -2.683901 1.55874 -2.12132 2.12132 
C -1.55874 2.683901 -0.795609 3 0 3 
z
" style="stroke: #ff0000"/>
    </defs>
    <g clip-path="url(#p866f45a663)">
     <use xlink:href="#med5a60e6b6" x="48.998182" y="236.98892" style="fill: #ff0000; stroke: #ff0000"/>
     <use xlink:href="#med5a60e6b6" x="158.48" y="160.424574" style="fill: #ff0000; stroke: #ff0000"/>
     <use xlink:href="#med5a60e6b6" x="267.961818" y="32.81733" style="fill: #ff0000; stroke: #ff0000"/>
    </g>
   </g>
   <g id="patch_3">
    <path d="M 38.05 247.1975 
L 38.05 22.60875 
" style="fill: none; stroke: #000000; stroke-width: 0.8; stroke-linejoin: miter; stroke-linecap: square"/>
   </g>
   <g id="patch_4">
    <path d="M 278.91 247.1975 
L 278.91 22.60875 
" style="fill: none; stroke: #000000; stroke-width: 0.8; stroke-linejoin: miter; stroke-linecap: square"/>
   </g>
   <g id="patch_5">
    <path d="M 38.05 247.1975 
L 278.91 247.1975 
" style="fill: none; stroke: #000000; stroke-width: 0.8; stroke-linejoin: miter; stroke-linecap: square"/>
   </g>
   <g id="patch_6">
    <path d="M 38.05 22.60875 
L 278.91 22.60875 
" style="fill: none; stroke: #000000; stroke-width: 0.8; stroke-linejoin: miter; stroke-linecap: square"/>
   </g>
   <g id="text_15">
    <!-- 1행 1열: Line Plot -->
    <g transform="translate(108.474687 16.60875) scale(0.12 -0.12)">
     <defs>
      <path id="AppleGothic-d589" d="M 5190 435 
Q 5190 710 4755 877 
Q 4333 1030 3680 1030 
Q 3341 1030 3065 992 
Q 2790 954 2592 880 
Q 2394 806 2285 694 
Q 2176 582 2176 435 
Q 2176 288 2285 176 
Q 2394 64 2589 -9 
Q 2784 -83 3062 -118 
Q 3341 -154 3680 -154 
Q 3949 -154 4163 -138 
Q 4378 -122 4544 -83 
Q 5190 64 5190 435 
z
M 2976 2624 
Q 2976 2995 2656 3130 
Q 2470 3206 2170 3206 
Q 1325 3206 1325 2624 
Q 1325 2067 2163 2067 
Q 2470 2067 2650 2138 
Q 2976 2272 2976 2624 
z
M 5670 429 
Q 5670 -32 5114 -294 
Q 4550 -557 3680 -557 
Q 3072 -557 2560 -410 
Q 1702 -160 1702 429 
Q 1702 890 2253 1158 
Q 2810 1421 3680 1421 
Q 4307 1421 4794 1280 
Q 5670 1037 5670 429 
z
M 3373 2624 
Q 3373 2163 3046 1936 
Q 2720 1709 2170 1709 
Q 1613 1709 1286 1933 
Q 928 2170 928 2618 
Q 928 3104 1270 3344 
Q 1613 3584 2170 3584 
Q 2714 3584 3043 3344 
Q 3373 3104 3373 2624 
z
M 5670 5075 
Q 5670 5043 5651 4985 
Q 5632 4928 5632 4909 
L 5632 1402 
L 5178 1376 
L 5197 2893 
L 4403 2893 
L 4416 1562 
L 3962 1536 
L 3981 3891 
Q 3981 4198 3981 4400 
Q 3981 4602 3974 4698 
Q 3974 4800 3971 4886 
Q 3968 4973 3962 5050 
L 4134 5056 
Q 4282 5056 4365 5037 
Q 4448 5018 4448 4947 
Q 4448 4928 4429 4857 
Q 4410 4787 4410 4736 
L 4403 3290 
L 5197 3290 
L 5197 4269 
L 5171 5190 
L 5235 5190 
Q 5427 5190 5548 5171 
Q 5670 5152 5670 5075 
z
M 3546 3782 
L 2150 3814 
L 608 3795 
L 602 4179 
Q 774 4173 963 4166 
Q 1152 4160 1357 4154 
Q 1568 4147 1728 4147 
Q 1888 4147 1997 4147 
L 2157 4147 
Q 2445 4147 2662 4147 
Q 2880 4147 3027 4154 
Q 3174 4160 3302 4163 
Q 3430 4166 3546 4179 
L 3546 3782 
z
M 2880 4448 
L 2170 4467 
L 1370 4448 
L 1370 4838 
Q 1402 4838 1491 4835 
Q 1581 4832 1734 4826 
Q 1882 4819 1994 4816 
Q 2106 4813 2176 4813 
Q 2349 4813 2537 4819 
Q 2726 4826 2880 4838 
L 2880 4448 
z
" transform="scale(0.015625)"/>
      <path id="AppleGothic-20" transform="scale(0.015625)"/>
      <path id="AppleGothic-c5f4" d="M 3136 3469 
Q 3136 3904 2851 4137 
Q 2566 4371 2106 4371 
Q 1645 4371 1382 4173 
Q 1050 3936 1050 3469 
Q 1050 3091 1389 2848 
Q 1702 2630 2131 2630 
Q 2541 2630 2816 2829 
Q 3136 3066 3136 3469 
z
M 5574 -326 
Q 5312 -326 4979 -329 
Q 4646 -333 4281 -339 
Q 3917 -346 3536 -352 
Q 3155 -358 2790 -364 
Q 2426 -371 2096 -374 
Q 1766 -378 1504 -378 
Q 1510 -320 1510 -243 
Q 1510 -166 1517 -70 
Q 1523 32 1523 86 
Q 1523 141 1523 160 
Q 1523 346 1523 464 
Q 1523 582 1517 646 
Q 1517 704 1513 761 
Q 1510 819 1504 870 
L 3597 870 
Q 3981 870 4304 883 
Q 4627 896 4928 915 
L 4928 1453 
Q 4563 1453 4240 1449 
Q 3917 1446 3622 1440 
Q 2605 1414 2067 1404 
Q 1530 1395 1459 1395 
L 1459 1741 
L 2688 1741 
Q 3405 1747 4057 1753 
Q 4710 1760 5370 1766 
L 5389 589 
L 3622 576 
Q 3155 576 2732 563 
Q 2310 550 1978 538 
L 1978 -19 
L 3622 -19 
Q 3885 -19 4205 -9 
Q 4525 0 4909 13 
Q 5037 19 5203 25 
Q 5370 32 5574 45 
L 5574 -326 
z
M 3578 3475 
Q 3578 2906 3104 2579 
Q 2688 2298 2106 2298 
Q 1466 2298 1056 2579 
Q 602 2899 602 3469 
Q 602 4064 1056 4403 
Q 1446 4710 2067 4710 
Q 2675 4710 3098 4403 
Q 3578 4045 3578 3475 
z
M 5414 5082 
Q 5414 5062 5395 4995 
Q 5376 4928 5376 4877 
L 5382 2131 
L 4928 2106 
L 4934 2554 
L 4346 2566 
L 3738 2547 
L 3738 2906 
L 4358 2893 
L 4749 2893 
Q 4800 2899 4845 2902 
Q 4890 2906 4934 2912 
L 4934 3750 
Q 4800 3763 4646 3769 
Q 4493 3776 4346 3776 
Q 4147 3776 3878 3757 
Q 3859 3757 3827 3753 
Q 3795 3750 3750 3744 
L 3750 4122 
Q 3846 4109 4016 4099 
Q 4186 4090 4326 4090 
L 4941 4102 
L 4934 4826 
Q 4934 4928 4934 4989 
Q 4934 5050 4931 5088 
Q 4928 5126 4925 5148 
Q 4922 5171 4915 5190 
Q 5133 5190 5273 5174 
Q 5414 5158 5414 5082 
z
" transform="scale(0.015625)"/>
      <path id="AppleGothic-3a" d="M 1587 2554 
Q 1434 2554 1357 2682 
Q 1280 2810 1280 2995 
Q 1280 3187 1360 3318 
Q 1440 3450 1587 3450 
Q 1722 3450 1805 3331 
Q 1888 3213 1888 3008 
Q 1888 2816 1811 2685 
Q 1734 2554 1587 2554 
z
M 1587 -19 
Q 1434 -19 1357 109 
Q 1280 237 1280 422 
Q 1280 614 1360 745 
Q 1440 877 1587 877 
Q 1722 877 1805 758 
Q 1888 640 1888 435 
Q 1888 243 1811 112 
Q 1734 -19 1587 -19 
z
" transform="scale(0.015625)"/>
      <path id="AppleGothic-4c" d="M 333 5018 
L 838 5018 
L 838 442 
L 3315 442 
L 3315 0 
L 333 0 
L 333 5018 
z
" transform="scale(0.015625)"/>
      <path id="AppleGothic-69" d="M 256 3424 
L 717 3424 
L 717 0 
L 256 0 
L 256 3424 
z
M 480 4870 
Q 614 4870 704 4780 
Q 794 4691 794 4525 
Q 794 4358 710 4268 
Q 627 4179 480 4179 
Q 333 4179 253 4281 
Q 173 4384 173 4518 
Q 173 4730 269 4800 
Q 365 4870 480 4870 
z
" transform="scale(0.015625)"/>
      <path id="AppleGothic-6e" d="M 3264 2291 
L 3264 0 
L 2803 0 
L 2803 2259 
Q 2803 2618 2541 2848 
Q 2278 3085 1914 3085 
Q 1427 3085 1075 2682 
Q 723 2272 723 1760 
L 723 0 
L 288 0 
L 288 3424 
L 691 3424 
L 710 2784 
Q 883 3046 1114 3219 
Q 1491 3501 1965 3501 
Q 2515 3501 2886 3168 
Q 3264 2842 3264 2291 
z
" transform="scale(0.015625)"/>
      <path id="AppleGothic-65" d="M 3296 1850 
L 691 1850 
Q 691 1114 1033 726 
Q 1376 339 1933 339 
Q 2355 339 2746 608 
Q 2854 678 2976 784 
Q 3098 890 3238 1030 
L 3238 474 
Q 3085 358 2953 272 
Q 2822 186 2707 128 
Q 2304 -83 1901 -83 
Q 1203 -83 717 397 
Q 192 902 192 1709 
Q 192 2470 666 2982 
Q 1146 3501 1850 3501 
Q 2534 3501 2938 3002 
Q 3296 2547 3296 1850 
z
M 755 2240 
L 2758 2240 
Q 2682 2675 2429 2889 
Q 2176 3104 1818 3104 
Q 1421 3104 1146 2854 
Q 890 2624 755 2240 
z
" transform="scale(0.015625)"/>
      <path id="AppleGothic-50" d="M 262 5018 
L 1869 5018 
Q 2560 5018 3002 4781 
Q 3597 4448 3597 3718 
Q 3597 3014 3104 2630 
Q 2656 2272 1952 2272 
L 768 2272 
L 768 0 
L 262 0 
L 262 5018 
z
M 1862 4576 
L 768 4576 
L 768 2714 
L 1901 2714 
Q 2349 2714 2675 2950 
Q 3040 3219 3040 3674 
Q 3040 4186 2611 4410 
Q 2298 4576 1862 4576 
z
" transform="scale(0.015625)"/>
      <path id="AppleGothic-6c" d="M 288 5018 
L 749 5018 
L 749 0 
L 288 0 
L 288 5018 
z
" transform="scale(0.015625)"/>
      <path id="AppleGothic-6f" d="M 1888 -83 
Q 1229 -83 730 397 
Q 198 902 198 1709 
Q 198 2470 666 2982 
Q 1146 3501 1850 3501 
Q 2547 3501 3027 2982 
Q 3501 2470 3501 1715 
Q 3501 922 2989 403 
Q 2515 -83 1888 -83 
z
M 1843 339 
Q 2304 339 2662 723 
Q 3008 1114 3008 1715 
Q 3008 2336 2637 2726 
Q 2298 3085 1850 3085 
Q 1389 3085 1062 2714 
Q 704 2304 704 1709 
Q 704 1107 1056 704 
Q 1382 339 1843 339 
z
" transform="scale(0.015625)"/>
      <path id="AppleGothic-74" d="M 691 4435 
L 1114 4435 
L 1114 3430 
L 2016 3430 
L 2016 3014 
L 1114 3014 
L 1114 838 
Q 1114 570 1213 454 
Q 1312 339 1555 339 
Q 1696 339 1795 371 
Q 1894 403 2016 454 
L 2016 38 
Q 1914 6 1770 -22 
Q 1626 -51 1478 -51 
Q 1094 -51 883 122 
Q 646 301 646 698 
L 646 3014 
L 70 3014 
L 70 3430 
L 646 3430 
L 691 4435 
z
" transform="scale(0.015625)"/>
     </defs>
     <use xlink:href="#AppleGothic-31"/>
     <use xlink:href="#AppleGothic-d589" transform="translate(67.999985 0)"/>
     <use xlink:href="#AppleGothic-20" transform="translate(167.999969 0)"/>
     <use xlink:href="#AppleGothic-31" transform="translate(199.999954 0)"/>
     <use xlink:href="#AppleGothic-c5f4" transform="translate(267.999939 0)"/>
     <use xlink:href="#AppleGothic-3a" transform="translate(367.999924 0)"/>
     <use xlink:href="#AppleGothic-20" transform="translate(417.999908 0)"/>
     <use xlink:href="#AppleGothic-4c" transform="translate(449.999893 0)"/>
     <use xlink:href="#AppleGothic-69" transform="translate(505.19989 0)"/>
     <use xlink:href="#AppleGothic-6e" transform="translate(521.099884 0)"/>
     <use xlink:href="#AppleGothic-65" transform="translate(576.999878 0)"/>
     <use xlink:href="#AppleGothic-20" transform="translate(631.899872 0)"/>
     <use xlink:href="#AppleGothic-50" transform="translate(663.899857 0)"/>
     <use xlink:href="#AppleGothic-6c" transform="translate(724.199844 0)"/>
     <use xlink:href="#AppleGothic-6f" transform="translate(740.899841 0)"/>
     <use xlink:href="#AppleGothic-74" transform="translate(799.199829 0)"/>
    </g>
   </g>
  </g>
  <g id="axes_2">
   <g id="patch_7">
    <path d="M 320.65 247.1975 
L 561.51 247.1975 
L 561.51 22.60875 
L 320.65 22.60875 
z
" style="fill: #ffffff"/>
   </g>
   <g id="PathCollection_1">
    <defs>
     <path id="meec4404016" d="M 0 3 
C 0.795609 3 1.55874 2.683901 2.12132 2.12132 
C 2.683901 1.55874 3 0.795609 3 0 
C 3 -0.795609 2.683901 -1.55874 2.12132 -2.12132 
C 1.55874 -2.683901 0.795609 -3 0 -3 
C -0.795609 -3 -1.55874 -2.683901 -2.12132 -2.12132 
C -2.683901 -1.55874 -3 -0.795609 -3 0 
C -3 0.795609 -2.683901 1.55874 -2.12132 2.12132 
C -1.55874 2.683901 -0.795609 3 0 3 
z
" style="stroke: #0000ff"/>
    </defs>
    <g clip-path="url(#p7b49a8fbf6)">
     <use xlink:href="#meec4404016" x="331.598182" y="236.98892" style="fill: #0000ff; stroke: #0000ff"/>
     <use xlink:href="#meec4404016" x="441.08" y="134.903125" style="fill: #0000ff; stroke: #0000ff"/>
     <use xlink:href="#meec4404016" x="550.561818" y="32.81733" style="fill: #0000ff; stroke: #0000ff"/>
    </g>
   </g>
   <g id="matplotlib.axis_3">
    <g id="xtick_6">
     <g id="line2d_16">
      <g>
       <use xlink:href="#m741fb00ff1" x="331.598182" y="247.1975" style="stroke: #000000; stroke-width: 0.8"/>
      </g>
     </g>
     <g id="text_16">
      <!-- 1.0 -->
      <g transform="translate(323.073182 262.038125) scale(0.1 -0.1)">
       <use xlink:href="#AppleGothic-31"/>
       <use xlink:href="#AppleGothic-2e" transform="translate(67.999985 0)"/>
       <use xlink:href="#AppleGothic-30" transform="translate(102.499969 0)"/>
      </g>
     </g>
    </g>
    <g id="xtick_7">
     <g id="line2d_17">
      <g>
       <use xlink:href="#m741fb00ff1" x="386.339091" y="247.1975" style="stroke: #000000; stroke-width: 0.8"/>
      </g>
     </g>
     <g id="text_17">
      <!-- 1.5 -->
      <g transform="translate(377.814091 262.038125) scale(0.1 -0.1)">
       <use xlink:href="#AppleGothic-31"/>
       <use xlink:href="#AppleGothic-2e" transform="translate(67.999985 0)"/>
       <use xlink:href="#AppleGothic-35" transform="translate(102.499969 0)"/>
      </g>
     </g>
    </g>
    <g id="xtick_8">
     <g id="line2d_18">
      <g>
       <use xlink:href="#m741fb00ff1" x="441.08" y="247.1975" style="stroke: #000000; stroke-width: 0.8"/>
      </g>
     </g>
     <g id="text_18">
      <!-- 2.0 -->
      <g transform="translate(432.555 262.038125) scale(0.1 -0.1)">
       <use xlink:href="#AppleGothic-32"/>
       <use xlink:href="#AppleGothic-2e" transform="translate(67.999985 0)"/>
       <use xlink:href="#AppleGothic-30" transform="translate(102.499969 0)"/>
      </g>
     </g>
    </g>
    <g id="xtick_9">
     <g id="line2d_19">
      <g>
       <use xlink:href="#m741fb00ff1" x="495.820909" y="247.1975" style="stroke: #000000; stroke-width: 0.8"/>
      </g>
     </g>
     <g id="text_19">
      <!-- 2.5 -->
      <g transform="translate(487.295909 262.038125) scale(0.1 -0.1)">
       <use xlink:href="#AppleGothic-32"/>
       <use xlink:href="#AppleGothic-2e" transform="translate(67.999985 0)"/>
       <use xlink:href="#AppleGothic-35" transform="translate(102.499969 0)"/>
      </g>
     </g>
    </g>
    <g id="xtick_10">
     <g id="line2d_20">
      <g>
       <use xlink:href="#m741fb00ff1" x="550.561818" y="247.1975" style="stroke: #000000; stroke-width: 0.8"/>
      </g>
     </g>
     <g id="text_20">
      <!-- 3.0 -->
      <g transform="translate(542.036818 262.038125) scale(0.1 -0.1)">
       <use xlink:href="#AppleGothic-33"/>
       <use xlink:href="#AppleGothic-2e" transform="translate(67.999985 0)"/>
       <use xlink:href="#AppleGothic-30" transform="translate(102.499969 0)"/>
      </g>
     </g>
    </g>
   </g>
   <g id="matplotlib.axis_4">
    <g id="ytick_10">
     <g id="line2d_21">
      <g>
       <use xlink:href="#m9b1cc286f0" x="320.65" y="236.98892" style="stroke: #000000; stroke-width: 0.8"/>
      </g>
     </g>
     <g id="text_21">
      <!-- 1.00 -->
      <g transform="translate(289.8 240.909233) scale(0.1 -0.1)">
       <use xlink:href="#AppleGothic-31"/>
       <use xlink:href="#AppleGothic-2e" transform="translate(67.999985 0)"/>
       <use xlink:href="#AppleGothic-30" transform="translate(102.499969 0)"/>
       <use xlink:href="#AppleGothic-30" transform="translate(170.499954 0)"/>
      </g>
     </g>
    </g>
    <g id="ytick_11">
     <g id="line2d_22">
      <g>
       <use xlink:href="#m9b1cc286f0" x="320.65" y="211.467472" style="stroke: #000000; stroke-width: 0.8"/>
      </g>
     </g>
     <g id="text_22">
      <!-- 1.25 -->
      <g transform="translate(289.8 215.387784) scale(0.1 -0.1)">
       <use xlink:href="#AppleGothic-31"/>
       <use xlink:href="#AppleGothic-2e" transform="translate(67.999985 0)"/>
       <use xlink:href="#AppleGothic-32" transform="translate(102.499969 0)"/>
       <use xlink:href="#AppleGothic-35" transform="translate(170.499954 0)"/>
      </g>
     </g>
    </g>
    <g id="ytick_12">
     <g id="line2d_23">
      <g>
       <use xlink:href="#m9b1cc286f0" x="320.65" y="185.946023" style="stroke: #000000; stroke-width: 0.8"/>
      </g>
     </g>
     <g id="text_23">
      <!-- 1.50 -->
      <g transform="translate(289.8 189.866335) scale(0.1 -0.1)">
       <use xlink:href="#AppleGothic-31"/>
       <use xlink:href="#AppleGothic-2e" transform="translate(67.999985 0)"/>
       <use xlink:href="#AppleGothic-35" transform="translate(102.499969 0)"/>
       <use xlink:href="#AppleGothic-30" transform="translate(170.499954 0)"/>
      </g>
     </g>
    </g>
    <g id="ytick_13">
     <g id="line2d_24">
      <g>
       <use xlink:href="#m9b1cc286f0" x="320.65" y="160.424574" style="stroke: #000000; stroke-width: 0.8"/>
      </g>
     </g>
     <g id="text_24">
      <!-- 1.75 -->
      <g transform="translate(289.8 164.344886) scale(0.1 -0.1)">
       <use xlink:href="#AppleGothic-31"/>
       <use xlink:href="#AppleGothic-2e" transform="translate(67.999985 0)"/>
       <use xlink:href="#AppleGothic-37" transform="translate(102.499969 0)"/>
       <use xlink:href="#AppleGothic-35" transform="translate(170.499954 0)"/>
      </g>
     </g>
    </g>
    <g id="ytick_14">
     <g id="line2d_25">
      <g>
       <use xlink:href="#m9b1cc286f0" x="320.65" y="134.903125" style="stroke: #000000; stroke-width: 0.8"/>
      </g>
     </g>
     <g id="text_25">
      <!-- 2.00 -->
      <g transform="translate(289.8 138.823438) scale(0.1 -0.1)">
       <use xlink:href="#AppleGothic-32"/>
       <use xlink:href="#AppleGothic-2e" transform="translate(67.999985 0)"/>
       <use xlink:href="#AppleGothic-30" transform="translate(102.499969 0)"/>
       <use xlink:href="#AppleGothic-30" transform="translate(170.499954 0)"/>
      </g>
     </g>
    </g>
    <g id="ytick_15">
     <g id="line2d_26">
      <g>
       <use xlink:href="#m9b1cc286f0" x="320.65" y="109.381676" style="stroke: #000000; stroke-width: 0.8"/>
      </g>
     </g>
     <g id="text_26">
      <!-- 2.25 -->
      <g transform="translate(289.8 113.301989) scale(0.1 -0.1)">
       <use xlink:href="#AppleGothic-32"/>
       <use xlink:href="#AppleGothic-2e" transform="translate(67.999985 0)"/>
       <use xlink:href="#AppleGothic-32" transform="translate(102.499969 0)"/>
       <use xlink:href="#AppleGothic-35" transform="translate(170.499954 0)"/>
      </g>
     </g>
    </g>
    <g id="ytick_16">
     <g id="line2d_27">
      <g>
       <use xlink:href="#m9b1cc286f0" x="320.65" y="83.860227" style="stroke: #000000; stroke-width: 0.8"/>
      </g>
     </g>
     <g id="text_27">
      <!-- 2.50 -->
      <g transform="translate(289.8 87.78054) scale(0.1 -0.1)">
       <use xlink:href="#AppleGothic-32"/>
       <use xlink:href="#AppleGothic-2e" transform="translate(67.999985 0)"/>
       <use xlink:href="#AppleGothic-35" transform="translate(102.499969 0)"/>
       <use xlink:href="#AppleGothic-30" transform="translate(170.499954 0)"/>
      </g>
     </g>
    </g>
    <g id="ytick_17">
     <g id="line2d_28">
      <g>
       <use xlink:href="#m9b1cc286f0" x="320.65" y="58.338778" style="stroke: #000000; stroke-width: 0.8"/>
      </g>
     </g>
     <g id="text_28">
      <!-- 2.75 -->
      <g transform="translate(289.8 62.259091) scale(0.1 -0.1)">
       <use xlink:href="#AppleGothic-32"/>
       <use xlink:href="#AppleGothic-2e" transform="translate(67.999985 0)"/>
       <use xlink:href="#AppleGothic-37" transform="translate(102.499969 0)"/>
       <use xlink:href="#AppleGothic-35" transform="translate(170.499954 0)"/>
      </g>
     </g>
    </g>
    <g id="ytick_18">
     <g id="line2d_29">
      <g>
       <use xlink:href="#m9b1cc286f0" x="320.65" y="32.81733" style="stroke: #000000; stroke-width: 0.8"/>
      </g>
     </g>
     <g id="text_29">
      <!-- 3.00 -->
      <g transform="translate(289.8 36.737642) scale(0.1 -0.1)">
       <use xlink:href="#AppleGothic-33"/>
       <use xlink:href="#AppleGothic-2e" transform="translate(67.999985 0)"/>
       <use xlink:href="#AppleGothic-30" transform="translate(102.499969 0)"/>
       <use xlink:href="#AppleGothic-30" transform="translate(170.499954 0)"/>
      </g>
     </g>
    </g>
   </g>
   <g id="patch_8">
    <path d="M 320.65 247.1975 
L 320.65 22.60875 
" style="fill: none; stroke: #000000; stroke-width: 0.8; stroke-linejoin: miter; stroke-linecap: square"/>
   </g>
   <g id="patch_9">
    <path d="M 561.51 247.1975 
L 561.51 22.60875 
" style="fill: none; stroke: #000000; stroke-width: 0.8; stroke-linejoin: miter; stroke-linecap: square"/>
   </g>
   <g id="patch_10">
    <path d="M 320.65 247.1975 
L 561.51 247.1975 
" style="fill: none; stroke: #000000; stroke-width: 0.8; stroke-linejoin: miter; stroke-linecap: square"/>
   </g>
   <g id="patch_11">
    <path d="M 320.65 22.60875 
L 561.51 22.60875 
" style="fill: none; stroke: #000000; stroke-width: 0.8; stroke-linejoin: miter; stroke-linecap: square"/>
   </g>
   <g id="text_30">
    <!-- 1행 2열: Scatter -->
    <g transform="translate(394.2725 16.60875) scale(0.12 -0.12)">
     <defs>
      <path id="AppleGothic-53" d="M 3418 4666 
L 3418 4019 
Q 3251 4160 3081 4269 
Q 2912 4378 2746 4448 
Q 2362 4627 1965 4627 
Q 1466 4627 1139 4378 
Q 806 4122 806 3770 
Q 806 3258 1562 3002 
Q 1914 2880 2262 2768 
Q 2611 2656 2970 2541 
Q 3731 2176 3731 1453 
Q 3731 749 3187 320 
Q 2669 -83 1901 -83 
Q 1389 -83 915 115 
Q 640 224 262 474 
L 262 1126 
Q 755 685 1261 506 
Q 1427 442 1587 416 
Q 1747 390 1907 390 
Q 2419 390 2771 646 
Q 3162 928 3162 1382 
Q 3162 1933 2419 2221 
Q 2061 2330 1715 2445 
Q 1370 2560 1024 2669 
Q 275 3014 275 3731 
Q 275 4333 749 4710 
Q 1235 5101 1965 5101 
Q 2413 5101 2861 4934 
Q 3091 4858 3418 4666 
z
" transform="scale(0.015625)"/>
      <path id="AppleGothic-63" d="M 3085 3123 
L 3085 2522 
Q 2726 2861 2349 3008 
Q 2240 3053 2125 3069 
Q 2010 3085 1894 3085 
Q 1363 3085 1024 2688 
Q 685 2278 685 1715 
Q 685 1139 1037 730 
Q 1389 339 1920 339 
Q 2253 339 2528 483 
Q 2803 627 3085 915 
L 3085 307 
Q 2746 96 2470 6 
Q 2195 -83 1914 -83 
Q 1197 -83 685 429 
Q 186 960 186 1709 
Q 186 2445 678 2976 
Q 1178 3501 1920 3501 
Q 2298 3501 2624 3373 
Q 2816 3302 3085 3123 
z
" transform="scale(0.015625)"/>
      <path id="AppleGothic-61" d="M 2950 2214 
L 2950 602 
Q 2950 493 2998 413 
Q 3046 333 3174 333 
Q 3213 333 3238 336 
Q 3264 339 3290 346 
Q 3328 358 3357 371 
Q 3386 384 3405 390 
L 3405 32 
Q 3290 -6 3174 -22 
Q 3059 -38 2995 -38 
Q 2669 -38 2566 134 
Q 2483 243 2483 602 
Q 2400 461 2317 355 
Q 2234 250 2150 179 
Q 1818 -83 1376 -83 
Q 909 -83 563 192 
Q 205 486 205 941 
Q 205 1510 781 1779 
Q 992 1882 1341 1958 
Q 1690 2035 2176 2099 
L 2483 2131 
Q 2483 2579 2256 2832 
Q 2029 3085 1587 3085 
Q 1421 3085 1257 3043 
Q 1094 3002 928 2912 
Q 838 2861 729 2790 
Q 621 2720 493 2611 
L 493 3136 
Q 1037 3501 1664 3501 
Q 2304 3501 2650 3098 
Q 2950 2746 2950 2214 
z
M 2483 1542 
L 2483 1747 
L 2266 1722 
Q 1466 1638 1139 1498 
Q 704 1325 704 934 
Q 704 819 755 713 
Q 806 608 896 525 
Q 986 442 1117 390 
Q 1248 339 1408 339 
Q 1843 339 2170 691 
Q 2483 1050 2483 1542 
z
" transform="scale(0.015625)"/>
      <path id="AppleGothic-72" d="M 2125 3424 
L 2125 2963 
Q 2054 2989 2009 3005 
Q 1965 3021 1933 3027 
Q 1901 3034 1865 3037 
Q 1830 3040 1773 3040 
Q 1306 3040 1005 2586 
Q 749 2170 749 1658 
L 749 0 
L 288 0 
L 288 3424 
L 710 3424 
L 742 2835 
Q 902 3104 1043 3219 
Q 1331 3456 1734 3456 
Q 1843 3456 1936 3449 
Q 2029 3443 2125 3424 
z
" transform="scale(0.015625)"/>
     </defs>
     <use xlink:href="#AppleGothic-31"/>
     <use xlink:href="#AppleGothic-d589" transform="translate(67.999985 0)"/>
     <use xlink:href="#AppleGothic-20" transform="translate(167.999969 0)"/>
     <use xlink:href="#AppleGothic-32" transform="translate(199.999954 0)"/>
     <use xlink:href="#AppleGothic-c5f4" transform="translate(267.999939 0)"/>
     <use xlink:href="#AppleGothic-3a" transform="translate(367.999924 0)"/>
     <use xlink:href="#AppleGothic-20" transform="translate(417.999908 0)"/>
     <use xlink:href="#AppleGothic-53" transform="translate(449.999893 0)"/>
     <use xlink:href="#AppleGothic-63" transform="translate(513.19989 0)"/>
     <use xlink:href="#AppleGothic-61" transform="translate(565.099884 0)"/>
     <use xlink:href="#AppleGothic-74" transform="translate(621.599869 0)"/>
     <use xlink:href="#AppleGothic-74" transform="translate(655.799866 0)"/>
     <use xlink:href="#AppleGothic-65" transform="translate(689.999863 0)"/>
     <use xlink:href="#AppleGothic-72" transform="translate(744.899857 0)"/>
    </g>
   </g>
  </g>
  <g id="axes_3">
   <g id="patch_12">
    <path d="M 38.05 515.76875 
L 278.91 515.76875 
L 278.91 291.18 
L 38.05 291.18 
z
" style="fill: #ffffff"/>
   </g>
   <g id="patch_13">
    <path d="M 48.998182 515.76875 
L 146.315354 515.76875 
L 146.315354 408.821726 
L 48.998182 408.821726 
z
" clip-path="url(#p22d6b08ed6)" style="fill: #008000"/>
   </g>
   <g id="patch_14">
    <path d="M 170.644646 515.76875 
L 267.961818 515.76875 
L 267.961818 301.874702 
L 170.644646 301.874702 
z
" clip-path="url(#p22d6b08ed6)" style="fill: #008000"/>
   </g>
   <g id="matplotlib.axis_5">
    <g id="xtick_11">
     <g id="line2d_30">
      <g>
       <use xlink:href="#m741fb00ff1" x="97.656768" y="515.76875" style="stroke: #000000; stroke-width: 0.8"/>
      </g>
     </g>
     <g id="text_31">
      <!-- X -->
      <g transform="translate(94.091924 530.609375) scale(0.1 -0.1)">
       <defs>
        <path id="AppleGothic-58" d="M 301 5018 
L 909 5018 
L 2246 3046 
L 3584 5018 
L 4218 5018 
L 2554 2688 
L 4480 0 
L 3821 0 
L 2246 2323 
L 672 0 
L 38 0 
L 1952 2688 
L 301 5018 
z
" transform="scale(0.015625)"/>
       </defs>
       <use xlink:href="#AppleGothic-58"/>
      </g>
     </g>
    </g>
    <g id="xtick_12">
     <g id="line2d_31">
      <g>
       <use xlink:href="#m741fb00ff1" x="219.303232" y="515.76875" style="stroke: #000000; stroke-width: 0.8"/>
      </g>
     </g>
     <g id="text_32">
      <!-- Y -->
      <g transform="translate(215.828232 530.609375) scale(0.1 -0.1)">
       <defs>
        <path id="AppleGothic-59" d="M 115 5018 
L 717 5018 
L 2253 2707 
L 3763 5018 
L 4390 5018 
L 2496 2266 
L 2496 0 
L 1997 0 
L 1997 2266 
L 115 5018 
z
" transform="scale(0.015625)"/>
       </defs>
       <use xlink:href="#AppleGothic-59"/>
      </g>
     </g>
    </g>
   </g>
   <g id="matplotlib.axis_6">
    <g id="ytick_19">
     <g id="line2d_32">
      <g>
       <use xlink:href="#m9b1cc286f0" x="38.05" y="515.76875" style="stroke: #000000; stroke-width: 0.8"/>
      </g>
     </g>
     <g id="text_33">
      <!-- 0.0 -->
      <g transform="translate(14 519.689062) scale(0.1 -0.1)">
       <use xlink:href="#AppleGothic-30"/>
       <use xlink:href="#AppleGothic-2e" transform="translate(67.999985 0)"/>
       <use xlink:href="#AppleGothic-30" transform="translate(102.499969 0)"/>
      </g>
     </g>
    </g>
    <g id="ytick_20">
     <g id="line2d_33">
      <g>
       <use xlink:href="#m9b1cc286f0" x="38.05" y="489.031994" style="stroke: #000000; stroke-width: 0.8"/>
      </g>
     </g>
     <g id="text_34">
      <!-- 2.5 -->
      <g transform="translate(14 492.952307) scale(0.1 -0.1)">
       <use xlink:href="#AppleGothic-32"/>
       <use xlink:href="#AppleGothic-2e" transform="translate(67.999985 0)"/>
       <use xlink:href="#AppleGothic-35" transform="translate(102.499969 0)"/>
      </g>
     </g>
    </g>
    <g id="ytick_21">
     <g id="line2d_34">
      <g>
       <use xlink:href="#m9b1cc286f0" x="38.05" y="462.295238" style="stroke: #000000; stroke-width: 0.8"/>
      </g>
     </g>
     <g id="text_35">
      <!-- 5.0 -->
      <g transform="translate(14 466.215551) scale(0.1 -0.1)">
       <use xlink:href="#AppleGothic-35"/>
       <use xlink:href="#AppleGothic-2e" transform="translate(67.999985 0)"/>
       <use xlink:href="#AppleGothic-30" transform="translate(102.499969 0)"/>
      </g>
     </g>
    </g>
    <g id="ytick_22">
     <g id="line2d_35">
      <g>
       <use xlink:href="#m9b1cc286f0" x="38.05" y="435.558482" style="stroke: #000000; stroke-width: 0.8"/>
      </g>
     </g>
     <g id="text_36">
      <!-- 7.5 -->
      <g transform="translate(14 439.478795) scale(0.1 -0.1)">
       <use xlink:href="#AppleGothic-37"/>
       <use xlink:href="#AppleGothic-2e" transform="translate(67.999985 0)"/>
       <use xlink:href="#AppleGothic-35" transform="translate(102.499969 0)"/>
      </g>
     </g>
    </g>
    <g id="ytick_23">
     <g id="line2d_36">
      <g>
       <use xlink:href="#m9b1cc286f0" x="38.05" y="408.821726" style="stroke: #000000; stroke-width: 0.8"/>
      </g>
     </g>
     <g id="text_37">
      <!-- 10.0 -->
      <g transform="translate(7.2 412.742039) scale(0.1 -0.1)">
       <use xlink:href="#AppleGothic-31"/>
       <use xlink:href="#AppleGothic-30" transform="translate(67.999985 0)"/>
       <use xlink:href="#AppleGothic-2e" transform="translate(135.999969 0)"/>
       <use xlink:href="#AppleGothic-30" transform="translate(170.499954 0)"/>
      </g>
     </g>
    </g>
    <g id="ytick_24">
     <g id="line2d_37">
      <g>
       <use xlink:href="#m9b1cc286f0" x="38.05" y="382.08497" style="stroke: #000000; stroke-width: 0.8"/>
      </g>
     </g>
     <g id="text_38">
      <!-- 12.5 -->
      <g transform="translate(7.2 386.005283) scale(0.1 -0.1)">
       <use xlink:href="#AppleGothic-31"/>
       <use xlink:href="#AppleGothic-32" transform="translate(67.999985 0)"/>
       <use xlink:href="#AppleGothic-2e" transform="translate(135.999969 0)"/>
       <use xlink:href="#AppleGothic-35" transform="translate(170.499954 0)"/>
      </g>
     </g>
    </g>
    <g id="ytick_25">
     <g id="line2d_38">
      <g>
       <use xlink:href="#m9b1cc286f0" x="38.05" y="355.348214" style="stroke: #000000; stroke-width: 0.8"/>
      </g>
     </g>
     <g id="text_39">
      <!-- 15.0 -->
      <g transform="translate(7.2 359.268527) scale(0.1 -0.1)">
       <use xlink:href="#AppleGothic-31"/>
       <use xlink:href="#AppleGothic-35" transform="translate(67.999985 0)"/>
       <use xlink:href="#AppleGothic-2e" transform="translate(135.999969 0)"/>
       <use xlink:href="#AppleGothic-30" transform="translate(170.499954 0)"/>
      </g>
     </g>
    </g>
    <g id="ytick_26">
     <g id="line2d_39">
      <g>
       <use xlink:href="#m9b1cc286f0" x="38.05" y="328.611458" style="stroke: #000000; stroke-width: 0.8"/>
      </g>
     </g>
     <g id="text_40">
      <!-- 17.5 -->
      <g transform="translate(7.2 332.531771) scale(0.1 -0.1)">
       <use xlink:href="#AppleGothic-31"/>
       <use xlink:href="#AppleGothic-37" transform="translate(67.999985 0)"/>
       <use xlink:href="#AppleGothic-2e" transform="translate(135.999969 0)"/>
       <use xlink:href="#AppleGothic-35" transform="translate(170.499954 0)"/>
      </g>
     </g>
    </g>
    <g id="ytick_27">
     <g id="line2d_40">
      <g>
       <use xlink:href="#m9b1cc286f0" x="38.05" y="301.874702" style="stroke: #000000; stroke-width: 0.8"/>
      </g>
     </g>
     <g id="text_41">
      <!-- 20.0 -->
      <g transform="translate(7.2 305.795015) scale(0.1 -0.1)">
       <use xlink:href="#AppleGothic-32"/>
       <use xlink:href="#AppleGothic-30" transform="translate(67.999985 0)"/>
       <use xlink:href="#AppleGothic-2e" transform="translate(135.999969 0)"/>
       <use xlink:href="#AppleGothic-30" transform="translate(170.499954 0)"/>
      </g>
     </g>
    </g>
   </g>
   <g id="patch_15">
    <path d="M 38.05 515.76875 
L 38.05 291.18 
" style="fill: none; stroke: #000000; stroke-width: 0.8; stroke-linejoin: miter; stroke-linecap: square"/>
   </g>
   <g id="patch_16">
    <path d="M 278.91 515.76875 
L 278.91 291.18 
" style="fill: none; stroke: #000000; stroke-width: 0.8; stroke-linejoin: miter; stroke-linecap: square"/>
   </g>
   <g id="patch_17">
    <path d="M 38.05 515.76875 
L 278.91 515.76875 
" style="fill: none; stroke: #000000; stroke-width: 0.8; stroke-linejoin: miter; stroke-linecap: square"/>
   </g>
   <g id="patch_18">
    <path d="M 38.05 291.18 
L 278.91 291.18 
" style="fill: none; stroke: #000000; stroke-width: 0.8; stroke-linejoin: miter; stroke-linecap: square"/>
   </g>
   <g id="text_42">
    <!-- 2행 1열: Bar Plot -->
    <g transform="translate(110.023437 285.18) scale(0.12 -0.12)">
     <defs>
      <path id="AppleGothic-42" d="M 307 5018 
L 2029 5018 
Q 2675 5018 3053 4755 
Q 3494 4442 3494 3859 
Q 3494 3373 3181 3040 
Q 3091 2938 2960 2854 
Q 2829 2771 2662 2694 
Q 3322 2586 3616 2176 
Q 3840 1862 3840 1472 
Q 3840 838 3360 416 
Q 2899 0 2240 0 
L 307 0 
L 307 5018 
z
M 1997 4576 
L 813 4576 
L 813 2854 
L 1766 2854 
Q 2342 2854 2649 3113 
Q 2957 3373 2957 3782 
Q 2957 4102 2739 4333 
Q 2477 4576 1997 4576 
z
M 1907 2413 
L 813 2413 
L 813 442 
L 2029 442 
Q 2579 442 2931 717 
Q 3283 1011 3283 1466 
Q 3283 1926 2928 2169 
Q 2573 2413 1907 2413 
z
" transform="scale(0.015625)"/>
     </defs>
     <use xlink:href="#AppleGothic-32"/>
     <use xlink:href="#AppleGothic-d589" transform="translate(67.999985 0)"/>
     <use xlink:href="#AppleGothic-20" transform="translate(167.999969 0)"/>
     <use xlink:href="#AppleGothic-31" transform="translate(199.999954 0)"/>
     <use xlink:href="#AppleGothic-c5f4" transform="translate(267.999939 0)"/>
     <use xlink:href="#AppleGothic-3a" transform="translate(367.999924 0)"/>
     <use xlink:href="#AppleGothic-20" transform="translate(417.999908 0)"/>
     <use xlink:href="#AppleGothic-42" transform="translate(449.999893 0)"/>
     <use xlink:href="#AppleGothic-61" transform="translate(514.399887 0)"/>
     <use xlink:href="#AppleGothic-72" transform="translate(570.899872 0)"/>
     <use xlink:href="#AppleGothic-20" transform="translate(606.099869 0)"/>
     <use xlink:href="#AppleGothic-50" transform="translate(638.099854 0)"/>
     <use xlink:href="#AppleGothic-6c" transform="translate(698.399841 0)"/>
     <use xlink:href="#AppleGothic-6f" transform="translate(715.099838 0)"/>
     <use xlink:href="#AppleGothic-74" transform="translate(773.399826 0)"/>
    </g>
   </g>
  </g>
  <g id="axes_4">
   <g id="patch_19">
    <path d="M 320.65 515.76875 
L 561.51 515.76875 
L 561.51 291.18 
L 320.65 291.18 
z
" style="fill: #ffffff"/>
   </g>
   <g id="matplotlib.axis_7">
    <g id="xtick_13">
     <g id="line2d_41">
      <g>
       <use xlink:href="#m741fb00ff1" x="331.598182" y="515.76875" style="stroke: #000000; stroke-width: 0.8"/>
      </g>
     </g>
     <g id="text_43">
      <!-- 1.0 -->
      <g transform="translate(323.073182 530.609375) scale(0.1 -0.1)">
       <use xlink:href="#AppleGothic-31"/>
       <use xlink:href="#AppleGothic-2e" transform="translate(67.999985 0)"/>
       <use xlink:href="#AppleGothic-30" transform="translate(102.499969 0)"/>
      </g>
     </g>
    </g>
    <g id="xtick_14">
     <g id="line2d_42">
      <g>
       <use xlink:href="#m741fb00ff1" x="375.390909" y="515.76875" style="stroke: #000000; stroke-width: 0.8"/>
      </g>
     </g>
     <g id="text_44">
      <!-- 1.2 -->
      <g transform="translate(366.865909 530.609375) scale(0.1 -0.1)">
       <use xlink:href="#AppleGothic-31"/>
       <use xlink:href="#AppleGothic-2e" transform="translate(67.999985 0)"/>
       <use xlink:href="#AppleGothic-32" transform="translate(102.499969 0)"/>
      </g>
     </g>
    </g>
    <g id="xtick_15">
     <g id="line2d_43">
      <g>
       <use xlink:href="#m741fb00ff1" x="419.183636" y="515.76875" style="stroke: #000000; stroke-width: 0.8"/>
      </g>
     </g>
     <g id="text_45">
      <!-- 1.4 -->
      <g transform="translate(410.658636 530.609375) scale(0.1 -0.1)">
       <use xlink:href="#AppleGothic-31"/>
       <use xlink:href="#AppleGothic-2e" transform="translate(67.999985 0)"/>
       <use xlink:href="#AppleGothic-34" transform="translate(102.499969 0)"/>
      </g>
     </g>
    </g>
    <g id="xtick_16">
     <g id="line2d_44">
      <g>
       <use xlink:href="#m741fb00ff1" x="462.976364" y="515.76875" style="stroke: #000000; stroke-width: 0.8"/>
      </g>
     </g>
     <g id="text_46">
      <!-- 1.6 -->
      <g transform="translate(454.451364 530.609375) scale(0.1 -0.1)">
       <use xlink:href="#AppleGothic-31"/>
       <use xlink:href="#AppleGothic-2e" transform="translate(67.999985 0)"/>
       <use xlink:href="#AppleGothic-36" transform="translate(102.499969 0)"/>
      </g>
     </g>
    </g>
    <g id="xtick_17">
     <g id="line2d_45">
      <g>
       <use xlink:href="#m741fb00ff1" x="506.769091" y="515.76875" style="stroke: #000000; stroke-width: 0.8"/>
      </g>
     </g>
     <g id="text_47">
      <!-- 1.8 -->
      <g transform="translate(498.244091 530.609375) scale(0.1 -0.1)">
       <use xlink:href="#AppleGothic-31"/>
       <use xlink:href="#AppleGothic-2e" transform="translate(67.999985 0)"/>
       <use xlink:href="#AppleGothic-38" transform="translate(102.499969 0)"/>
      </g>
     </g>
    </g>
    <g id="xtick_18">
     <g id="line2d_46">
      <g>
       <use xlink:href="#m741fb00ff1" x="550.561818" y="515.76875" style="stroke: #000000; stroke-width: 0.8"/>
      </g>
     </g>
     <g id="text_48">
      <!-- 2.0 -->
      <g transform="translate(542.036818 530.609375) scale(0.1 -0.1)">
       <use xlink:href="#AppleGothic-32"/>
       <use xlink:href="#AppleGothic-2e" transform="translate(67.999985 0)"/>
       <use xlink:href="#AppleGothic-30" transform="translate(102.499969 0)"/>
      </g>
     </g>
    </g>
   </g>
   <g id="matplotlib.axis_8">
    <g id="ytick_28">
     <g id="line2d_47">
      <g>
       <use xlink:href="#m9b1cc286f0" x="320.65" y="505.56017" style="stroke: #000000; stroke-width: 0.8"/>
      </g>
     </g>
     <g id="text_49">
      <!-- 1.0 -->
      <g transform="translate(296.6 509.480483) scale(0.1 -0.1)">
       <use xlink:href="#AppleGothic-31"/>
       <use xlink:href="#AppleGothic-2e" transform="translate(67.999985 0)"/>
       <use xlink:href="#AppleGothic-30" transform="translate(102.499969 0)"/>
      </g>
     </g>
    </g>
    <g id="ytick_29">
     <g id="line2d_48">
      <g>
       <use xlink:href="#m9b1cc286f0" x="320.65" y="464.725852" style="stroke: #000000; stroke-width: 0.8"/>
      </g>
     </g>
     <g id="text_50">
      <!-- 1.2 -->
      <g transform="translate(296.6 468.646165) scale(0.1 -0.1)">
       <use xlink:href="#AppleGothic-31"/>
       <use xlink:href="#AppleGothic-2e" transform="translate(67.999985 0)"/>
       <use xlink:href="#AppleGothic-32" transform="translate(102.499969 0)"/>
      </g>
     </g>
    </g>
    <g id="ytick_30">
     <g id="line2d_49">
      <g>
       <use xlink:href="#m9b1cc286f0" x="320.65" y="423.891534" style="stroke: #000000; stroke-width: 0.8"/>
      </g>
     </g>
     <g id="text_51">
      <!-- 1.4 -->
      <g transform="translate(296.6 427.811847) scale(0.1 -0.1)">
       <use xlink:href="#AppleGothic-31"/>
       <use xlink:href="#AppleGothic-2e" transform="translate(67.999985 0)"/>
       <use xlink:href="#AppleGothic-34" transform="translate(102.499969 0)"/>
      </g>
     </g>
    </g>
    <g id="ytick_31">
     <g id="line2d_50">
      <g>
       <use xlink:href="#m9b1cc286f0" x="320.65" y="383.057216" style="stroke: #000000; stroke-width: 0.8"/>
      </g>
     </g>
     <g id="text_52">
      <!-- 1.6 -->
      <g transform="translate(296.6 386.977528) scale(0.1 -0.1)">
       <use xlink:href="#AppleGothic-31"/>
       <use xlink:href="#AppleGothic-2e" transform="translate(67.999985 0)"/>
       <use xlink:href="#AppleGothic-36" transform="translate(102.499969 0)"/>
      </g>
     </g>
    </g>
    <g id="ytick_32">
     <g id="line2d_51">
      <g>
       <use xlink:href="#m9b1cc286f0" x="320.65" y="342.222898" style="stroke: #000000; stroke-width: 0.8"/>
      </g>
     </g>
     <g id="text_53">
      <!-- 1.8 -->
      <g transform="translate(296.6 346.14321) scale(0.1 -0.1)">
       <use xlink:href="#AppleGothic-31"/>
       <use xlink:href="#AppleGothic-2e" transform="translate(67.999985 0)"/>
       <use xlink:href="#AppleGothic-38" transform="translate(102.499969 0)"/>
      </g>
     </g>
    </g>
    <g id="ytick_33">
     <g id="line2d_52">
      <g>
       <use xlink:href="#m9b1cc286f0" x="320.65" y="301.38858" style="stroke: #000000; stroke-width: 0.8"/>
      </g>
     </g>
     <g id="text_54">
      <!-- 2.0 -->
      <g transform="translate(296.6 305.308892) scale(0.1 -0.1)">
       <use xlink:href="#AppleGothic-32"/>
       <use xlink:href="#AppleGothic-2e" transform="translate(67.999985 0)"/>
       <use xlink:href="#AppleGothic-30" transform="translate(102.499969 0)"/>
      </g>
     </g>
    </g>
   </g>
   <g id="line2d_53">
    <path d="M 331.598182 301.38858 
L 550.561818 505.56017 
" clip-path="url(#p7c9166e50d)" style="fill: none; stroke-dasharray: 5.55,2.4; stroke-dashoffset: 0; stroke: #000000; stroke-width: 1.5"/>
   </g>
   <g id="patch_20">
    <path d="M 320.65 515.76875 
L 320.65 291.18 
" style="fill: none; stroke: #000000; stroke-width: 0.8; stroke-linejoin: miter; stroke-linecap: square"/>
   </g>
   <g id="patch_21">
    <path d="M 561.51 515.76875 
L 561.51 291.18 
" style="fill: none; stroke: #000000; stroke-width: 0.8; stroke-linejoin: miter; stroke-linecap: square"/>
   </g>
   <g id="patch_22">
    <path d="M 320.65 515.76875 
L 561.51 515.76875 
" style="fill: none; stroke: #000000; stroke-width: 0.8; stroke-linejoin: miter; stroke-linecap: square"/>
   </g>
   <g id="patch_23">
    <path d="M 320.65 291.18 
L 561.51 291.18 
" style="fill: none; stroke: #000000; stroke-width: 0.8; stroke-linejoin: miter; stroke-linecap: square"/>
   </g>
   <g id="text_55">
    <!-- 2행 2열: Empty/Line -->
    <g transform="translate(382.61375 285.18) scale(0.12 -0.12)">
     <defs>
      <path id="AppleGothic-45" d="M 282 5024 
L 3405 5024 
L 3405 4582 
L 787 4582 
L 787 2848 
L 3309 2848 
L 3309 2406 
L 787 2406 
L 787 442 
L 3424 442 
L 3424 0 
L 282 0 
L 282 5024 
z
" transform="scale(0.015625)"/>
      <path id="AppleGothic-6d" d="M 5389 2195 
L 5389 0 
L 4922 0 
L 4922 2304 
Q 4922 2669 4672 2893 
Q 4461 3085 4173 3085 
Q 3744 3085 3405 2688 
Q 3072 2298 3072 1722 
L 3072 0 
L 2605 0 
L 2605 2304 
Q 2605 2650 2368 2861 
Q 2144 3085 1856 3085 
Q 1440 3085 1114 2714 
Q 755 2304 755 1702 
L 755 0 
L 288 0 
L 288 3424 
L 723 3424 
L 742 2880 
Q 928 3181 1274 3354 
Q 1581 3501 1894 3501 
Q 2381 3501 2714 3219 
Q 2957 3008 3021 2797 
Q 3149 3034 3386 3226 
Q 3757 3501 4205 3501 
Q 4749 3501 5050 3174 
Q 5389 2803 5389 2195 
z
" transform="scale(0.015625)"/>
      <path id="AppleGothic-70" d="M 736 307 
L 736 -1101 
L 288 -1101 
L 288 3424 
L 704 3424 
L 730 2803 
Q 941 3149 1216 3325 
Q 1491 3501 1882 3501 
Q 2522 3501 2944 3002 
Q 3162 2752 3270 2441 
Q 3379 2131 3379 1747 
Q 3379 954 2899 435 
Q 2419 -83 1754 -83 
Q 1421 -83 1139 58 
Q 1056 90 960 154 
Q 864 218 736 307 
z
M 736 1824 
L 736 800 
Q 838 704 924 637 
Q 1011 570 1082 525 
Q 1395 339 1715 339 
Q 2227 339 2554 742 
Q 2886 1165 2886 1766 
Q 2886 2330 2579 2707 
Q 2278 3085 1811 3085 
Q 1331 3085 1018 2669 
Q 736 2291 736 1824 
z
" transform="scale(0.015625)"/>
      <path id="AppleGothic-79" d="M 179 3424 
L 691 3424 
L 1869 531 
L 2874 3424 
L 3379 3424 
L 1952 -397 
Q 1798 -806 1555 -979 
Q 1338 -1126 1037 -1126 
Q 883 -1126 780 -1104 
Q 678 -1082 582 -1043 
L 582 -602 
Q 672 -646 784 -678 
Q 896 -710 986 -710 
Q 1210 -710 1334 -595 
Q 1459 -480 1555 -230 
L 1632 32 
L 179 3424 
z
" transform="scale(0.015625)"/>
      <path id="AppleGothic-2f" d="M 1965 5018 
L 2368 5018 
L 493 -672 
L 90 -672 
L 1965 5018 
z
" transform="scale(0.015625)"/>
     </defs>
     <use xlink:href="#AppleGothic-32"/>
     <use xlink:href="#AppleGothic-d589" transform="translate(67.999985 0)"/>
     <use xlink:href="#AppleGothic-20" transform="translate(167.999969 0)"/>
     <use xlink:href="#AppleGothic-32" transform="translate(199.999954 0)"/>
     <use xlink:href="#AppleGothic-c5f4" transform="translate(267.999939 0)"/>
     <use xlink:href="#AppleGothic-3a" transform="translate(367.999924 0)"/>
     <use xlink:href="#AppleGothic-20" transform="translate(417.999908 0)"/>
     <use xlink:href="#AppleGothic-45" transform="translate(449.999893 0)"/>
     <use xlink:href="#AppleGothic-6d" transform="translate(507.899887 0)"/>
     <use xlink:href="#AppleGothic-70" transform="translate(597.199875 0)"/>
     <use xlink:href="#AppleGothic-74" transform="translate(652.599869 0)"/>
     <use xlink:href="#AppleGothic-79" transform="translate(686.799866 0)"/>
     <use xlink:href="#AppleGothic-2f" transform="translate(742.499863 0)"/>
     <use xlink:href="#AppleGothic-4c" transform="translate(792.499847 0)"/>
     <use xlink:href="#AppleGothic-69" transform="translate(847.699844 0)"/>
     <use xlink:href="#AppleGothic-6e" transform="translate(863.599838 0)"/>
     <use xlink:href="#AppleGothic-65" transform="translate(919.499832 0)"/>
    </g>
   </g>
  </g>
  <g id="text_56">
   <!-- 💡 행렬(Matrix)처럼 [행, 열] 인덱스를 통해 각 구역에 접근합니다 -->
   <g style="fill: #15803d" transform="translate(91.155391 560.92875) scale(0.13 -0.13)">
    <defs>
     <path id="AppleGothic-1f4a1" d="M 403 -435 
L 403 5165 
L 6003 5165 
L 6003 -435 
L 403 -435 
z
M 5600 -38 
L 5600 4762 
L 800 4762 
L 800 -38 
L 5600 -38 
z
" transform="scale(0.015625)"/>
     <path id="AppleGothic-b82c" d="M 5472 -480 
L 3219 -467 
Q 2746 -467 2275 -473 
Q 1805 -480 1421 -493 
L 1440 128 
Q 1440 301 1430 480 
Q 1421 659 1414 832 
L 4928 845 
L 4928 1408 
L 1389 1363 
L 1389 1728 
L 3206 1715 
Q 3539 1715 3830 1715 
Q 4122 1715 4381 1718 
Q 4640 1722 4880 1728 
Q 5120 1734 5357 1741 
L 5344 1107 
L 5363 499 
Q 5235 499 4960 496 
Q 4685 493 4256 486 
Q 3827 480 3606 480 
Q 3386 480 3366 480 
L 1837 461 
L 1837 -134 
L 3450 -134 
Q 3718 -134 4048 -124 
Q 4378 -115 4781 -102 
Q 4909 -96 5085 -89 
Q 5261 -83 5472 -70 
L 5472 -480 
z
M 3546 2317 
Q 3456 2298 3385 2285 
Q 3315 2272 3251 2266 
Q 3040 2240 2832 2227 
Q 2624 2214 2419 2214 
Q 1894 2214 1318 2176 
Q 1222 2170 1094 2157 
Q 966 2144 813 2131 
L 826 2970 
L 813 3725 
L 1594 3718 
L 2912 3744 
L 2893 4403 
Q 2797 4403 2681 4403 
Q 2566 4403 2451 4406 
Q 2336 4410 2230 4410 
Q 2125 4410 2048 4410 
Q 1747 4410 1539 4410 
Q 1331 4410 1210 4403 
Q 1094 4403 985 4403 
Q 877 4403 774 4397 
L 774 4768 
L 1958 4755 
Q 2458 4755 2768 4761 
Q 3078 4768 3322 4774 
L 3302 4045 
L 3315 3379 
L 2106 3392 
L 1235 3373 
L 1235 2515 
L 2362 2554 
Q 2618 2554 2832 2566 
Q 3046 2579 3232 2605 
Q 3354 2611 3507 2662 
L 3546 2317 
z
M 5408 5069 
Q 5408 5056 5385 4979 
Q 5363 4902 5363 4864 
L 5350 3469 
Q 5350 3162 5350 2925 
Q 5350 2688 5353 2509 
Q 5357 2330 5363 2195 
Q 5370 2061 5376 1952 
L 4947 1933 
L 4947 2739 
L 3776 2720 
L 3782 3123 
L 4570 3104 
L 4947 3110 
L 4947 3795 
L 3782 3770 
L 3782 4160 
L 4461 4134 
L 4947 4134 
L 4947 4627 
Q 4947 4794 4937 4934 
Q 4928 5075 4915 5190 
L 5286 5158 
Q 5408 5158 5408 5069 
z
" transform="scale(0.015625)"/>
     <path id="AppleGothic-28" d="M 2227 5261 
L 2650 5261 
Q 2342 4768 2169 4473 
Q 1997 4179 1958 4083 
Q 1606 3283 1606 2272 
Q 1606 1587 1754 1018 
Q 1882 570 2138 102 
Q 2150 70 2275 -131 
Q 2400 -333 2630 -717 
L 2227 -717 
Q 2099 -531 1980 -355 
Q 1862 -179 1734 0 
Q 1581 243 1469 483 
Q 1357 723 1274 954 
Q 1069 1587 1069 2272 
Q 1069 2963 1261 3558 
Q 1338 3789 1450 4022 
Q 1562 4256 1715 4499 
Q 1843 4691 1971 4880 
Q 2099 5069 2227 5261 
z
" transform="scale(0.015625)"/>
     <path id="AppleGothic-4d" d="M 288 0 
L 288 5018 
L 947 5018 
L 2893 864 
L 4902 5018 
L 5523 5018 
L 5523 0 
L 5069 0 
L 5069 4358 
L 3002 0 
L 2784 0 
L 749 4352 
L 749 0 
L 288 0 
z
" transform="scale(0.015625)"/>
     <path id="AppleGothic-78" d="M 352 3424 
L 928 3424 
L 1754 2150 
L 2592 3424 
L 3130 3424 
L 2022 1830 
L 3270 0 
L 2682 0 
L 1722 1504 
L 755 0 
L 211 0 
L 1466 1830 
L 352 3424 
z
" transform="scale(0.015625)"/>
     <path id="AppleGothic-29" d="M 2221 2272 
Q 2221 1587 2016 960 
Q 1862 499 1555 6 
Q 1427 -179 1305 -355 
Q 1184 -531 1062 -717 
L 659 -717 
Q 781 -512 902 -310 
Q 1024 -109 1152 96 
Q 1280 333 1376 557 
Q 1472 781 1530 1005 
Q 1683 1562 1683 2272 
Q 1683 2650 1641 2973 
Q 1600 3296 1517 3584 
Q 1459 3802 1356 4029 
Q 1254 4256 1120 4499 
Q 992 4691 873 4880 
Q 755 5069 640 5261 
L 1062 5261 
Q 1190 5069 1315 4880 
Q 1440 4691 1568 4506 
Q 1722 4256 1837 4022 
Q 1952 3789 2022 3565 
Q 2221 2976 2221 2272 
z
" transform="scale(0.015625)"/>
     <path id="AppleGothic-cc98" d="M 3962 1082 
Q 3962 1062 3878 998 
Q 3674 826 3667 813 
Q 3629 832 3600 851 
Q 3571 870 3539 883 
Q 3200 1082 2854 1485 
Q 2752 1606 2659 1744 
Q 2566 1882 2483 2042 
Q 2451 2093 2419 2166 
Q 2387 2240 2349 2330 
Q 2317 2253 2285 2189 
Q 2253 2125 2221 2074 
Q 2035 1766 1750 1465 
Q 1466 1165 1056 922 
Q 915 832 704 730 
Q 538 851 438 924 
Q 339 998 339 1011 
L 358 1043 
Q 1056 1242 1606 1920 
Q 2163 2598 2163 3322 
L 2157 3443 
L 1446 3450 
Q 1261 3450 1069 3443 
Q 877 3437 704 3424 
L 704 3840 
Q 973 3827 1353 3820 
Q 1734 3814 2330 3814 
Q 2662 3814 2908 3814 
Q 3155 3814 3328 3821 
Q 3494 3827 3644 3830 
Q 3795 3834 3930 3846 
L 3930 3450 
L 3283 3469 
Q 3130 3469 3027 3469 
Q 2925 3469 2851 3465 
Q 2778 3462 2720 3459 
Q 2662 3456 2605 3450 
Q 2592 3398 2585 3331 
Q 2579 3264 2579 3142 
Q 2579 2938 2624 2730 
Q 2669 2522 2784 2310 
Q 2918 2067 3100 1843 
Q 3283 1619 3520 1427 
Q 3597 1357 3702 1283 
Q 3808 1210 3942 1133 
L 3962 1082 
z
M 5434 5075 
Q 5434 5050 5405 4954 
Q 5376 4858 5376 4794 
L 5389 -384 
Q 5389 -493 5344 -518 
Q 5299 -544 5165 -544 
L 5018 -557 
Q 4922 -557 4922 -506 
L 4928 2304 
L 4346 2310 
Q 4096 2310 3933 2304 
Q 3770 2298 3680 2285 
L 3680 2675 
Q 3744 2669 3827 2669 
Q 3910 2669 4026 2662 
Q 4134 2656 4214 2656 
Q 4294 2656 4346 2656 
L 4928 2682 
L 4934 4723 
Q 4934 4928 4931 5017 
Q 4928 5107 4915 5190 
L 5030 5190 
Q 5197 5190 5315 5168 
Q 5434 5146 5434 5075 
z
M 3085 4416 
L 2355 4429 
L 1613 4416 
L 1613 4794 
L 2323 4774 
Q 2573 4774 2774 4780 
Q 2976 4787 3085 4800 
L 3085 4416 
z
" transform="scale(0.015625)"/>
     <path id="AppleGothic-b7fc" d="M 4928 64 
L 4928 1075 
L 3936 1082 
L 1990 1056 
L 1990 32 
L 3475 32 
Q 3782 32 4006 32 
Q 4230 32 4384 38 
Q 4538 45 4672 48 
Q 4806 51 4928 64 
z
M 5382 -454 
L 4934 -461 
L 4922 -326 
L 2010 -333 
L 1990 -493 
L 1542 -518 
Q 1555 -307 1561 -48 
Q 1568 211 1568 454 
Q 1568 698 1561 963 
Q 1555 1229 1542 1453 
L 3104 1440 
L 5357 1453 
L 5382 -454 
z
M 3840 2016 
Q 3712 2003 3603 1993 
Q 3494 1984 3398 1978 
Q 3110 1952 2806 1942 
Q 2502 1933 2170 1933 
Q 1939 1933 1705 1926 
Q 1472 1920 1229 1907 
Q 1152 1901 1053 1897 
Q 954 1894 838 1882 
L 838 3571 
L 1658 3558 
L 2906 3571 
L 2906 4422 
L 1978 4429 
Q 1773 4429 1609 4429 
Q 1446 4429 1308 4425 
Q 1171 4422 1056 4416 
Q 941 4410 832 4403 
L 832 4787 
L 2029 4774 
Q 2426 4774 2730 4780 
Q 3034 4787 3334 4806 
L 3322 3955 
Q 3322 3770 3325 3565 
Q 3328 3360 3341 3187 
L 1280 3194 
L 1280 2266 
Q 1504 2278 1773 2284 
Q 2042 2291 2285 2291 
Q 2573 2291 2845 2304 
Q 3117 2317 3379 2342 
Q 3552 2349 3814 2400 
L 3840 2016 
z
M 5408 5056 
Q 5408 5030 5382 4944 
Q 5357 4858 5357 4787 
L 5382 1741 
L 4934 1734 
L 4941 2291 
L 4954 3040 
L 3795 3021 
L 3795 3418 
L 4422 3405 
L 4941 3405 
L 4941 4179 
Q 4941 4410 4941 4576 
Q 4941 4742 4934 4845 
Q 4934 5043 4915 5190 
L 4941 5190 
Q 5024 5190 5107 5184 
Q 5190 5178 5257 5165 
Q 5325 5152 5366 5123 
Q 5408 5094 5408 5056 
z
" transform="scale(0.015625)"/>
     <path id="AppleGothic-5b" d="M 1651 358 
L 2560 -262 
L 2419 -512 
L 1331 224 
L 1331 4512 
L 2419 5248 
L 2560 4986 
L 1651 4390 
L 1651 358 
z
" transform="scale(0.015625)"/>
     <path id="AppleGothic-2c" d="M 806 -941 
L 550 -941 
Q 666 -698 723 -502 
Q 781 -307 806 -64 
Q 666 0 602 77 
Q 525 160 525 346 
Q 525 576 630 720 
Q 736 864 883 864 
Q 1030 864 1113 701 
Q 1197 538 1197 326 
Q 1197 141 1161 -48 
Q 1126 -237 1056 -429 
Q 1011 -538 950 -662 
Q 890 -787 806 -941 
z
" transform="scale(0.015625)"/>
     <path id="AppleGothic-5d" d="M 1549 4378 
L 640 4998 
L 781 5248 
L 1869 4512 
L 1869 224 
L 781 -512 
L 640 -256 
L 1549 365 
L 1549 4378 
z
" transform="scale(0.015625)"/>
     <path id="AppleGothic-c778" d="M 3347 3251 
Q 3347 3686 3014 3936 
Q 2714 4160 2266 4160 
Q 1805 4160 1491 3930 
Q 1146 3680 1146 3245 
Q 1146 2854 1459 2605 
Q 1773 2368 2246 2368 
Q 2714 2368 3027 2586 
Q 3347 2822 3347 3251 
z
M 5587 -13 
L 5562 -410 
L 4634 -403 
Q 4269 -403 3821 -406 
Q 3373 -410 2816 -416 
Q 1722 -435 1562 -435 
L 1568 230 
L 1542 1274 
L 1664 1274 
Q 1850 1274 1965 1254 
Q 2080 1235 2080 1184 
Q 2080 1165 2054 1081 
Q 2029 998 2029 941 
L 2029 -32 
L 2893 -45 
Q 2950 -45 3043 -45 
Q 3136 -45 3270 -38 
Q 3398 -32 3497 -32 
Q 3597 -32 3667 -32 
L 5587 -13 
z
M 5453 5062 
Q 5453 5024 5421 4944 
Q 5389 4864 5389 4832 
L 5389 3040 
Q 5389 2362 5398 1770 
Q 5408 1178 5421 762 
L 4934 749 
L 4947 3187 
L 4915 5190 
L 4979 5190 
Q 5190 5190 5321 5171 
Q 5453 5152 5453 5062 
z
M 3789 3264 
Q 3789 2694 3328 2330 
Q 2893 1997 2259 1997 
Q 1619 1997 1190 2304 
Q 710 2650 710 3194 
Q 710 3814 1171 4192 
Q 1600 4544 2234 4544 
Q 2906 4544 3347 4192 
Q 3789 3846 3789 3264 
z
" transform="scale(0.015625)"/>
     <path id="AppleGothic-b371" d="M 5651 -493 
L 5197 -506 
L 5197 224 
L 5210 1062 
L 3699 1069 
Q 3354 1069 3066 1065 
Q 2778 1062 2534 1056 
Q 2291 1050 2080 1040 
Q 1869 1030 1670 1024 
L 1670 1466 
Q 1837 1459 2089 1459 
Q 2342 1459 2682 1453 
Q 3027 1446 3292 1446 
Q 3558 1446 3763 1446 
Q 4147 1446 4438 1446 
Q 4730 1446 4928 1453 
Q 5338 1466 5632 1472 
L 5632 218 
L 5651 -493 
z
M 3590 2336 
L 3546 2349 
Q 3488 2349 3277 2310 
Q 2995 2259 2768 2227 
Q 2541 2195 2362 2182 
Q 2048 2150 1763 2128 
Q 1478 2106 1222 2093 
Q 1133 2086 1027 2083 
Q 922 2080 800 2074 
Q 813 2400 819 2774 
Q 826 3149 826 3450 
L 832 4634 
L 2048 4634 
Q 2413 4634 2640 4643 
Q 2867 4653 3034 4666 
L 3040 4256 
L 1274 4250 
L 1261 3443 
L 1274 2515 
L 1434 2509 
Q 1523 2509 1619 2512 
Q 1715 2515 1824 2522 
Q 1939 2528 2108 2537 
Q 2278 2547 2502 2573 
Q 2726 2598 2921 2620 
Q 3117 2643 3277 2669 
Q 3334 2682 3401 2694 
Q 3469 2707 3552 2720 
L 3590 2336 
z
M 4358 4922 
Q 4358 4896 4339 4825 
Q 4320 4755 4320 4698 
Q 4314 4582 4314 4419 
Q 4314 4256 4307 4045 
Q 4301 3834 4301 3702 
Q 4301 3571 4301 3514 
Q 4301 2995 4307 2563 
Q 4314 2131 4326 1786 
L 3846 1741 
L 3866 2362 
L 3866 3213 
L 3424 3213 
Q 3238 3213 3024 3206 
Q 2810 3200 2598 3181 
L 2598 3642 
Q 2637 3642 2723 3638 
Q 2810 3635 2938 3629 
Q 3072 3622 3165 3622 
Q 3258 3622 3309 3622 
L 3866 3622 
L 3866 4621 
L 3840 5037 
Q 3853 5043 3872 5046 
Q 3891 5050 3923 5050 
Q 4109 5050 4233 5011 
Q 4358 4973 4358 4922 
z
M 5728 5050 
Q 5728 5011 5699 4928 
Q 5670 4845 5670 4813 
Q 5658 4589 5651 4304 
Q 5645 4019 5645 3667 
L 5670 1690 
L 5184 1651 
Q 5197 2061 5203 2637 
Q 5203 2938 5206 3146 
Q 5210 3354 5210 3482 
L 5210 4730 
Q 5210 4864 5200 4973 
Q 5190 5082 5171 5190 
L 5229 5190 
Q 5498 5190 5613 5155 
Q 5728 5120 5728 5050 
z
" transform="scale(0.015625)"/>
     <path id="AppleGothic-c2a4" d="M 5990 70 
L 5504 70 
Q 5184 70 4579 73 
Q 3974 77 3226 83 
Q 2810 83 2349 76 
Q 1888 70 1376 58 
Q 1190 51 950 44 
Q 710 38 410 26 
L 410 506 
Q 480 499 544 499 
Q 608 499 672 499 
Q 1178 486 1814 476 
Q 2451 467 3226 467 
Q 3712 467 4080 467 
Q 4448 467 4691 474 
Q 5670 499 5990 531 
L 5990 70 
z
M 5818 2310 
Q 5818 2298 5763 2246 
Q 5709 2195 5690 2163 
L 5510 1920 
Q 5382 1952 5280 1981 
Q 5178 2010 5094 2029 
Q 4589 2195 4169 2451 
Q 3750 2707 3424 3162 
Q 3322 3309 3181 3565 
Q 3072 3315 2976 3162 
Q 2662 2688 2131 2349 
Q 1734 2093 1280 1958 
Q 1203 1933 1104 1907 
Q 1005 1882 883 1856 
L 595 2246 
Q 653 2259 659 2266 
Q 826 2298 954 2336 
Q 1082 2374 1184 2406 
Q 1792 2618 2214 2963 
Q 2682 3341 2861 3885 
Q 2976 4218 2976 4550 
Q 3181 4550 3341 4521 
Q 3501 4493 3501 4442 
Q 3501 4416 3482 4397 
Q 3475 4390 3472 4390 
Q 3469 4390 3462 4384 
Q 3462 4378 3459 4346 
Q 3456 4314 3453 4275 
Q 3450 4237 3446 4195 
Q 3443 4154 3443 4134 
Q 3501 3834 3712 3488 
Q 3923 3155 4243 2906 
Q 4659 2598 5261 2445 
Q 5363 2419 5494 2393 
Q 5626 2368 5792 2336 
Q 5811 2336 5818 2310 
z
" transform="scale(0.015625)"/>
     <path id="AppleGothic-b97c" d="M 5184 -378 
Q 5056 -371 4950 -371 
Q 4845 -371 4762 -371 
Q 4179 -358 3798 -352 
Q 3418 -346 3213 -346 
L 1350 -365 
L 1363 224 
L 1350 870 
L 2982 858 
Q 3437 858 3856 864 
Q 4275 870 4621 883 
L 4621 1338 
L 3034 1357 
Q 2605 1357 2137 1350 
Q 1670 1344 1280 1331 
L 1280 1670 
Q 1466 1664 1683 1664 
Q 1901 1664 2163 1658 
L 3046 1658 
L 5082 1670 
L 5069 1120 
L 5082 576 
L 3309 582 
Q 2944 582 2550 569 
Q 2157 557 1818 544 
L 1818 -19 
L 3168 -32 
Q 3629 -32 3955 -32 
Q 4282 -32 4486 -26 
Q 4691 -19 4864 -16 
Q 5037 -13 5184 0 
L 5184 -378 
z
M 6016 2125 
Q 5946 2125 5779 2125 
Q 5613 2125 5344 2131 
Q 4826 2138 4154 2150 
Q 3821 2157 3587 2160 
Q 3354 2163 3213 2163 
Q 2541 2163 2073 2163 
Q 1606 2163 1318 2157 
Q 1037 2150 803 2147 
Q 570 2144 378 2131 
L 378 2502 
Q 429 2502 560 2499 
Q 691 2496 896 2490 
Q 1312 2477 1997 2470 
Q 2342 2464 2640 2464 
Q 2938 2464 3194 2464 
L 4314 2464 
Q 4973 2470 5373 2476 
Q 5773 2483 6016 2490 
L 6016 2125 
z
M 5120 2906 
Q 4973 2912 4848 2912 
Q 4723 2912 4634 2912 
Q 3981 2925 3616 2931 
Q 3251 2938 3162 2938 
L 1331 2931 
L 1344 3462 
L 1331 4102 
Q 1472 4096 1677 4096 
Q 1882 4096 2150 4090 
Q 2419 4083 2620 4083 
Q 2822 4083 2950 4083 
L 4640 4077 
L 4640 4576 
L 3053 4595 
Q 2630 4595 2169 4588 
Q 1709 4582 1325 4570 
L 1325 4928 
Q 1395 4922 1449 4922 
Q 1504 4922 1555 4922 
Q 1952 4909 2329 4899 
Q 2707 4890 3072 4890 
L 5088 4896 
L 5075 4352 
L 5088 3776 
L 1766 3795 
L 1766 3264 
L 3142 3245 
L 4486 3245 
Q 4838 3251 5120 3264 
L 5120 2906 
z
" transform="scale(0.015625)"/>
     <path id="AppleGothic-d1b5" d="M 4851 365 
Q 4851 614 4531 762 
Q 4147 934 3258 934 
Q 2502 934 2108 793 
Q 1715 653 1715 358 
Q 1715 115 2016 -26 
Q 2400 -198 3213 -198 
L 3334 -198 
Q 4070 -198 4435 -83 
Q 4851 64 4851 365 
z
M 5331 358 
Q 5331 -134 4832 -358 
Q 4333 -582 3386 -582 
L 3226 -582 
Q 2784 -582 2445 -531 
Q 2106 -480 1850 -384 
Q 1248 -141 1248 352 
Q 1248 851 1882 1088 
Q 2131 1178 2473 1222 
Q 2816 1267 3258 1267 
Q 4256 1267 4755 1069 
Q 5331 845 5331 358 
z
M 6022 1722 
Q 5933 1722 5789 1722 
Q 5645 1722 5440 1728 
Q 5043 1734 4358 1747 
Q 4013 1754 3741 1757 
Q 3469 1760 3258 1760 
Q 2938 1760 2579 1753 
Q 2221 1747 1818 1734 
Q 1414 1728 1164 1721 
Q 915 1715 806 1709 
L 384 1690 
L 384 2099 
Q 640 2086 969 2080 
Q 1299 2074 1715 2074 
L 2995 2086 
L 2995 2726 
L 1338 2720 
L 1350 3821 
L 1338 4922 
L 3334 4915 
Q 3840 4915 4281 4928 
Q 4723 4941 5120 4954 
L 5120 4602 
L 3430 4614 
Q 3008 4614 2582 4608 
Q 2157 4602 1811 4589 
L 1811 4026 
L 3277 4013 
Q 3738 4013 4160 4029 
Q 4582 4045 4960 4070 
L 4960 3699 
L 3258 3718 
Q 2906 3718 2522 3712 
Q 2138 3706 1811 3693 
L 1811 3046 
L 3232 3053 
Q 3514 3053 3843 3059 
Q 4173 3066 4563 3078 
Q 4691 3085 4854 3091 
Q 5018 3098 5222 3110 
L 5222 2739 
L 4333 2746 
L 3443 2726 
L 3443 2080 
Q 3654 2080 3974 2086 
Q 4294 2093 4730 2106 
Q 5165 2118 5485 2124 
Q 5805 2131 6022 2131 
L 6022 1722 
z
" transform="scale(0.015625)"/>
     <path id="AppleGothic-d574" d="M 2861 1702 
Q 2861 2048 2694 2266 
Q 2490 2528 2131 2528 
Q 1773 2528 1562 2246 
Q 1389 2003 1389 1715 
Q 1389 1389 1587 1139 
Q 1786 902 2131 902 
Q 2509 902 2701 1171 
Q 2861 1389 2861 1702 
z
M 3309 1683 
Q 3309 1178 2938 826 
Q 2592 512 2163 512 
Q 1658 512 1306 851 
Q 960 1184 960 1734 
Q 960 2285 1344 2605 
Q 1664 2880 2125 2880 
Q 2611 2880 2944 2566 
Q 3309 2227 3309 1683 
z
M 5709 5024 
Q 5709 4986 5686 4890 
Q 5664 4794 5664 4742 
L 5664 1824 
Q 5664 1203 5670 598 
Q 5677 -6 5690 -493 
L 5210 -493 
L 5229 1280 
L 5216 2048 
L 4435 2048 
L 4435 1293 
L 4461 -134 
L 3981 -134 
L 3981 531 
Q 3987 749 3987 1024 
Q 3987 1299 3994 1645 
Q 4000 1990 4000 2342 
Q 4000 2694 4006 3078 
L 3987 5024 
Q 4211 5024 4348 4985 
Q 4486 4947 4486 4890 
Q 4486 4851 4460 4764 
Q 4435 4678 4435 4627 
L 4435 2445 
L 5229 2445 
L 5210 4749 
Q 5210 4858 5200 4973 
Q 5190 5088 5178 5184 
Q 5350 5184 5523 5146 
Q 5709 5114 5709 5024 
z
M 3597 3258 
L 2061 3277 
L 608 3264 
L 608 3635 
Q 928 3622 1309 3616 
Q 1690 3610 2042 3610 
Q 2419 3610 2835 3616 
Q 3251 3622 3597 3635 
L 3597 3258 
z
M 2861 4154 
L 2170 4166 
L 1434 4154 
L 1434 4538 
Q 1587 4525 1779 4518 
Q 1971 4512 2144 4512 
L 2861 4531 
L 2861 4154 
z
" transform="scale(0.015625)"/>
     <path id="AppleGothic-ac01" d="M 5114 -499 
L 4672 -518 
L 4685 339 
L 4672 1178 
L 1325 1152 
L 1325 1517 
L 5094 1530 
L 5114 -499 
z
M 3373 4774 
Q 3347 4614 3334 4442 
Q 3251 4045 3053 3642 
Q 2778 3098 2310 2662 
Q 1926 2304 1466 2022 
Q 1126 1818 918 1722 
Q 710 1626 634 1626 
Q 576 1677 518 1731 
Q 461 1786 410 1843 
Q 397 1856 377 1881 
Q 358 1907 326 1939 
L 346 1965 
Q 371 1965 444 1990 
Q 518 2016 653 2067 
Q 826 2138 998 2224 
Q 1171 2310 1350 2419 
Q 1818 2701 2138 3040 
Q 2458 3379 2662 3782 
Q 2790 4038 2893 4429 
L 582 4403 
L 582 4774 
L 3373 4774 
z
M 6118 2970 
L 5581 2976 
Q 5229 2976 5101 2950 
L 5088 2432 
L 5094 1875 
L 4666 1856 
Q 4666 1965 4675 2352 
Q 4685 2739 4685 3526 
L 4678 4787 
Q 4678 4922 4675 5018 
Q 4672 5114 4659 5190 
L 5011 5190 
Q 5120 5178 5120 5126 
Q 5120 5101 5101 5008 
Q 5082 4915 5082 4877 
L 5101 3334 
L 6118 3354 
L 6118 2970 
z
" transform="scale(0.015625)"/>
     <path id="AppleGothic-ad6c" d="M 6048 2202 
L 4672 2221 
L 3405 2214 
L 3398 915 
L 3411 -486 
L 2925 -518 
Q 2938 -186 2944 214 
Q 2950 614 2950 986 
L 2944 2214 
L 1600 2214 
L 352 2182 
L 352 2618 
Q 794 2605 1328 2592 
Q 1862 2579 2355 2579 
L 2630 2579 
L 3866 2579 
Q 4141 2586 4346 2598 
Q 4371 2701 4390 2774 
Q 4410 2848 4422 2906 
Q 4550 3360 4576 3469 
Q 4640 3738 4730 4160 
Q 4742 4224 4758 4304 
Q 4774 4384 4794 4474 
L 4454 4474 
Q 3232 4493 3149 4493 
L 1005 4461 
L 1005 4890 
Q 1331 4877 1740 4870 
Q 2150 4864 2605 4864 
L 5325 4877 
Q 5312 4781 5299 4697 
Q 5286 4614 5274 4544 
Q 5203 4147 5062 3571 
Q 5030 3430 4992 3280 
Q 4954 3130 4909 2957 
Q 4883 2867 4857 2780 
Q 4832 2694 4806 2605 
L 6048 2618 
L 6048 2202 
z
" transform="scale(0.015625)"/>
     <path id="AppleGothic-c5ed" d="M 3098 3430 
Q 3098 3859 2810 4128 
Q 2515 4403 2099 4403 
Q 1651 4403 1357 4134 
Q 1062 3859 1062 3430 
Q 1062 3130 1280 2874 
Q 1568 2554 2099 2554 
Q 2547 2554 2822 2797 
Q 3098 3040 3098 3430 
z
M 5395 -461 
L 4928 -486 
L 4941 192 
L 4941 1197 
Q 4557 1197 4233 1193 
Q 3910 1190 3642 1184 
Q 3373 1178 3053 1174 
Q 2733 1171 2349 1165 
Q 1965 1158 1702 1158 
Q 1440 1158 1286 1158 
L 1286 1530 
L 2554 1517 
Q 2803 1517 3206 1520 
Q 3610 1523 4173 1530 
Q 4749 1536 5046 1539 
Q 5344 1542 5382 1542 
L 5376 275 
L 5376 -218 
Q 5389 -371 5395 -461 
z
M 3514 3424 
Q 3514 2848 3053 2496 
Q 2643 2182 2106 2182 
Q 1485 2182 1075 2515 
Q 646 2861 646 3424 
Q 646 3962 1005 4326 
Q 1414 4749 2099 4749 
Q 2707 4749 3110 4384 
Q 3514 4006 3514 3424 
z
M 5421 5082 
Q 5421 5056 5401 4989 
Q 5382 4922 5382 4877 
L 5370 3002 
Q 5370 2547 5373 2313 
Q 5376 2080 5382 1939 
L 4922 1907 
L 4934 2611 
L 4371 2618 
L 3744 2605 
L 3744 2950 
L 4397 2950 
L 4774 2950 
Q 4819 2957 4860 2960 
Q 4902 2963 4934 2970 
L 4934 3744 
Q 4806 3757 4662 3763 
Q 4518 3770 4384 3770 
Q 4160 3770 4009 3763 
Q 3859 3757 3770 3744 
L 3770 4128 
Q 3827 4122 3907 4122 
Q 3987 4122 4096 4115 
Q 4205 4109 4275 4109 
Q 4346 4109 4390 4109 
Q 4646 4109 4752 4115 
Q 4858 4122 4934 4134 
L 4934 4800 
Q 4934 4909 4928 5011 
Q 4922 5114 4909 5190 
L 4934 5190 
Q 5133 5190 5277 5171 
Q 5421 5152 5421 5082 
z
" transform="scale(0.015625)"/>
     <path id="AppleGothic-c5d0" d="M 2707 2669 
Q 2707 3430 2419 3750 
Q 2208 3981 1856 3981 
Q 1491 3981 1267 3686 
Q 1018 3341 1018 2624 
Q 1018 1235 1862 1235 
Q 2336 1235 2541 1696 
Q 2707 2061 2707 2669 
z
M 5670 5050 
Q 5670 4986 5664 4966 
Q 5632 4806 5632 4806 
L 5619 2336 
L 5626 -544 
L 5158 -544 
L 5184 2240 
L 5178 5184 
L 5286 5184 
Q 5453 5184 5561 5158 
Q 5670 5133 5670 5050 
z
M 4499 4966 
Q 4499 4954 4480 4886 
Q 4461 4819 4461 4768 
Q 4454 4506 4451 4230 
Q 4448 3955 4442 3648 
Q 4435 3341 4435 3069 
Q 4435 2797 4435 2554 
L 4448 -64 
L 3968 -64 
L 3994 2349 
L 3136 2349 
Q 3123 2253 3104 2157 
Q 3085 2061 3072 1965 
Q 2970 1523 2720 1235 
Q 2374 845 1818 845 
Q 1133 845 826 1389 
Q 576 1830 576 2675 
Q 576 3456 909 3910 
Q 1248 4384 1862 4384 
Q 2458 4384 2803 3930 
Q 3142 3488 3142 2752 
L 3987 2752 
L 4000 3968 
Q 4000 4230 4000 4416 
Q 4000 4602 3994 4710 
Q 3994 4832 3994 4918 
Q 3994 5005 3987 5069 
L 4064 5069 
Q 4250 5069 4374 5049 
Q 4499 5030 4499 4966 
z
" transform="scale(0.015625)"/>
     <path id="AppleGothic-c811" d="M 4947 -19 
L 4947 794 
L 3238 774 
Q 2989 774 2787 774 
Q 2586 774 2438 768 
Q 2291 768 2137 765 
Q 1984 762 1830 755 
L 1830 -58 
L 3392 -58 
L 4947 -19 
z
M 5427 1658 
Q 5395 1562 5395 1485 
L 5421 -499 
L 4947 -531 
L 4947 -390 
L 3411 -390 
Q 2560 -390 1850 -429 
L 1837 -550 
L 1382 -550 
L 1395 659 
Q 1395 1050 1388 1286 
Q 1382 1523 1370 1690 
L 1510 1690 
Q 1696 1690 1779 1680 
Q 1862 1670 1862 1626 
Q 1862 1606 1846 1532 
Q 1830 1459 1830 1427 
L 1830 1120 
Q 2176 1120 2457 1120 
Q 2739 1120 2957 1126 
Q 3174 1133 3430 1139 
Q 3686 1146 3994 1152 
Q 4301 1158 4537 1161 
Q 4774 1165 4947 1165 
L 4947 1498 
Q 4947 1658 4928 1728 
L 4966 1728 
Q 5171 1728 5299 1715 
Q 5427 1702 5427 1658 
z
M 4109 2426 
Q 4064 2374 4035 2339 
Q 4006 2304 3981 2278 
Q 3910 2208 3872 2160 
Q 3834 2112 3821 2099 
Q 3725 2144 3651 2182 
Q 3578 2221 3514 2253 
Q 3328 2355 3168 2470 
Q 3008 2586 2861 2726 
Q 2675 2899 2477 3270 
Q 2406 3386 2323 3597 
Q 2291 3533 2272 3481 
Q 2253 3430 2227 3386 
Q 1952 2893 1645 2605 
Q 1517 2490 1357 2371 
Q 1197 2253 1011 2144 
Q 954 2112 877 2070 
Q 800 2029 710 1984 
Q 698 1997 653 2035 
Q 608 2074 525 2144 
Q 499 2170 457 2202 
Q 416 2234 365 2278 
L 384 2304 
Q 723 2413 1011 2617 
Q 1299 2822 1549 3117 
Q 2074 3744 2074 4429 
Q 2042 4435 1997 4435 
Q 1696 4454 1389 4454 
Q 1203 4454 1033 4448 
Q 864 4442 717 4429 
L 717 4851 
Q 845 4845 1251 4835 
Q 1658 4826 2272 4826 
Q 2579 4826 2812 4829 
Q 3046 4832 3206 4838 
Q 3373 4845 3504 4851 
Q 3635 4858 3738 4864 
L 3738 4448 
L 3168 4454 
L 2534 4442 
Q 2547 4326 2560 4233 
Q 2573 4141 2586 4070 
Q 2637 3846 2723 3660 
Q 2810 3475 2925 3309 
Q 3219 2906 3680 2643 
Q 3757 2598 3859 2553 
Q 3962 2509 4090 2458 
L 4109 2426 
z
M 5421 5101 
Q 5402 5037 5382 4976 
Q 5363 4915 5363 4851 
L 5363 3578 
Q 5363 3232 5363 2979 
Q 5363 2726 5370 2560 
Q 5376 2234 5389 2022 
L 4934 2003 
Q 4934 2042 4937 2102 
Q 4941 2163 4941 2227 
Q 4941 2291 4944 2348 
Q 4947 2406 4947 2438 
L 4947 3283 
L 4320 3290 
L 3776 3270 
L 3776 3661 
L 4307 3648 
L 4947 3667 
L 4947 4768 
Q 4947 4973 4940 5062 
Q 4934 5152 4922 5190 
L 4998 5190 
Q 5165 5190 5293 5174 
Q 5421 5158 5421 5101 
z
" transform="scale(0.015625)"/>
     <path id="AppleGothic-adfc" d="M 5325 -134 
L 1280 -154 
L 1280 1427 
L 1267 1728 
Q 1421 1728 1594 1709 
Q 1766 1690 1766 1638 
Q 1766 1613 1734 1517 
Q 1702 1421 1702 1357 
L 1702 230 
Q 1837 218 2240 211 
Q 2445 205 2662 205 
Q 2880 205 3110 205 
L 3360 205 
Q 3770 205 4080 205 
Q 4390 205 4595 211 
Q 4800 218 4982 221 
Q 5165 224 5325 237 
L 5325 -134 
z
M 6022 2208 
L 3718 2221 
Q 3373 2221 3075 2217 
Q 2778 2214 2534 2208 
Q 2061 2202 1350 2189 
Q 1005 2182 761 2182 
Q 518 2182 378 2182 
L 378 2547 
L 1901 2534 
L 4397 2566 
Q 4480 2656 4621 3386 
Q 4691 3757 4726 3997 
Q 4762 4237 4762 4358 
L 3053 4358 
Q 2778 4358 2451 4352 
Q 2125 4346 1734 4333 
Q 1606 4326 1436 4323 
Q 1267 4320 1062 4307 
L 1062 4691 
L 2541 4685 
L 5254 4704 
Q 5254 4416 5107 3661 
Q 5037 3290 4973 3018 
Q 4909 2746 4851 2579 
L 5434 2579 
Q 5696 2579 5814 2585 
Q 5933 2592 6022 2598 
L 6022 2208 
z
" transform="scale(0.015625)"/>
     <path id="AppleGothic-d569" d="M 4672 -32 
L 4672 666 
L 3270 678 
L 1939 666 
L 1939 -32 
L 3437 -51 
Q 3686 -51 3868 -51 
Q 4051 -51 4179 -45 
Q 4307 -45 4432 -41 
Q 4557 -38 4672 -32 
z
M 3110 2733 
Q 3110 3034 2790 3174 
Q 2560 3277 2240 3277 
Q 1946 3277 1722 3174 
Q 1389 3034 1389 2733 
Q 1389 2451 1715 2330 
Q 1901 2259 2240 2259 
Q 2579 2259 2784 2330 
Q 3110 2451 3110 2733 
z
M 5184 1530 
Q 5184 1517 5161 1440 
Q 5139 1363 5139 1318 
L 5133 410 
L 5152 -506 
L 4672 -531 
L 4659 -371 
L 1939 -378 
L 1926 -531 
L 1459 -538 
Q 1466 -403 1466 -227 
Q 1466 -51 1472 166 
Q 1478 384 1481 557 
Q 1485 730 1485 864 
Q 1485 1107 1485 1257 
Q 1485 1408 1478 1472 
Q 1472 1600 1459 1670 
Q 1683 1670 1830 1654 
Q 1978 1638 1978 1549 
Q 1978 1530 1958 1469 
Q 1939 1408 1939 1370 
L 1939 1018 
L 3264 998 
L 4672 1018 
L 4672 1325 
L 4659 1664 
Q 4781 1664 4854 1664 
Q 4928 1664 4947 1658 
Q 5184 1632 5184 1530 
z
M 3546 2733 
Q 3546 2272 3046 2067 
Q 2694 1946 2240 1946 
Q 1760 1946 1453 2061 
Q 947 2266 947 2733 
Q 947 3258 1453 3469 
Q 1760 3603 2240 3603 
Q 2726 3603 3046 3469 
Q 3546 3251 3546 2733 
z
M 6035 3155 
L 5139 3162 
L 5158 1856 
L 4672 1843 
L 4691 3776 
Q 4691 4154 4691 4400 
Q 4691 4646 4685 4774 
Q 4678 4902 4675 5004 
Q 4672 5107 4666 5184 
L 4870 5190 
Q 4998 5190 5081 5168 
Q 5165 5146 5165 5075 
Q 5165 5043 5149 4960 
Q 5133 4877 5133 4851 
L 5139 3565 
L 6035 3578 
L 6035 3155 
z
M 3949 3866 
L 3558 3866 
Q 3014 3878 2678 3884 
Q 2342 3891 2195 3891 
Q 1792 3891 1385 3884 
Q 979 3878 570 3866 
L 570 4256 
Q 672 4250 755 4250 
Q 838 4250 909 4250 
Q 1370 4237 1696 4230 
Q 2022 4224 2208 4224 
Q 2502 4224 2745 4224 
Q 2989 4224 3197 4230 
Q 3405 4237 3590 4240 
Q 3776 4243 3949 4256 
L 3949 3866 
z
M 2918 4550 
Q 2874 4557 2838 4557 
Q 2803 4557 2778 4557 
Q 2355 4576 2240 4576 
Q 2170 4576 2061 4573 
Q 1952 4570 1792 4563 
Q 1638 4557 1545 4553 
Q 1453 4550 1408 4550 
L 1408 4934 
L 2234 4922 
L 2918 4934 
L 2918 4550 
z
" transform="scale(0.015625)"/>
     <path id="AppleGothic-b2c8" d="M 5466 5075 
Q 5466 5056 5450 4963 
Q 5434 4870 5434 4826 
L 5453 -493 
L 4979 -506 
L 4998 2253 
Q 4998 3808 4979 4346 
Q 4973 4614 4966 4822 
Q 4960 5030 4954 5184 
L 5133 5190 
Q 5280 5190 5373 5168 
Q 5466 5146 5466 5075 
z
M 4614 1715 
Q 4390 1670 4153 1625 
Q 3917 1581 3674 1530 
Q 3360 1472 3123 1430 
Q 2886 1389 2726 1363 
Q 2483 1325 2166 1296 
Q 1850 1267 1446 1242 
Q 1318 1235 1155 1228 
Q 992 1222 787 1210 
L 800 3987 
L 768 4358 
L 1139 4339 
Q 1306 4339 1306 4224 
Q 1306 4198 1283 4124 
Q 1261 4051 1261 4013 
L 1248 2778 
L 1261 1632 
Q 1510 1638 1690 1651 
Q 2483 1696 3180 1824 
Q 3878 1952 4576 2099 
L 4614 1715 
z
" transform="scale(0.015625)"/>
     <path id="AppleGothic-b2e4" d="M 6067 2086 
L 5139 2086 
L 5126 1299 
L 5133 -506 
L 4672 -525 
L 4691 4723 
Q 4691 4851 4688 4934 
Q 4685 5018 4681 5066 
Q 4678 5114 4672 5142 
Q 4666 5171 4659 5190 
L 4736 5190 
Q 4998 5190 5094 5168 
Q 5190 5146 5190 5101 
Q 5190 5075 5164 4995 
Q 5139 4915 5139 4890 
L 5126 3923 
L 5139 2483 
L 6067 2496 
L 6067 2086 
z
M 4224 1158 
Q 4038 1120 3888 1091 
Q 3738 1062 3622 1050 
Q 3277 998 3005 969 
Q 2733 941 2522 941 
Q 2182 915 1856 896 
Q 1530 877 1203 864 
Q 1094 858 956 858 
Q 819 858 653 851 
Q 666 1184 669 1584 
Q 672 1984 672 2355 
L 659 4186 
L 2336 4160 
Q 2707 4160 3056 4166 
Q 3405 4173 3680 4186 
L 3680 3795 
L 2387 3808 
L 1120 3795 
L 1101 2374 
L 1114 1267 
Q 1210 1274 1290 1274 
Q 1370 1274 1434 1280 
Q 1882 1306 2176 1315 
Q 2470 1325 2611 1325 
Q 2880 1350 3158 1382 
Q 3437 1414 3738 1459 
Q 3834 1472 3949 1488 
Q 4064 1504 4198 1530 
L 4224 1158 
z
" transform="scale(0.015625)"/>
    </defs>
    <use xlink:href="#AppleGothic-1f4a1"/>
    <use xlink:href="#AppleGothic-20" transform="translate(99.999985 0)"/>
    <use xlink:href="#AppleGothic-d589" transform="translate(131.999969 0)"/>
    <use xlink:href="#AppleGothic-b82c" transform="translate(231.999954 0)"/>
    <use xlink:href="#AppleGothic-28" transform="translate(331.999939 0)"/>
    <use xlink:href="#AppleGothic-4d" transform="translate(381.999924 0)"/>
    <use xlink:href="#AppleGothic-61" transform="translate(473.099915 0)"/>
    <use xlink:href="#AppleGothic-74" transform="translate(529.599899 0)"/>
    <use xlink:href="#AppleGothic-72" transform="translate(563.799896 0)"/>
    <use xlink:href="#AppleGothic-69" transform="translate(598.999893 0)"/>
    <use xlink:href="#AppleGothic-78" transform="translate(614.899887 0)"/>
    <use xlink:href="#AppleGothic-29" transform="translate(669.299881 0)"/>
    <use xlink:href="#AppleGothic-cc98" transform="translate(719.299866 0)"/>
    <use xlink:href="#AppleGothic-b7fc" transform="translate(819.29985 0)"/>
    <use xlink:href="#AppleGothic-20" transform="translate(919.299835 0)"/>
    <use xlink:href="#AppleGothic-5b" transform="translate(951.29982 0)"/>
    <use xlink:href="#AppleGothic-d589" transform="translate(1001.299805 0)"/>
    <use xlink:href="#AppleGothic-2c" transform="translate(1101.299789 0)"/>
    <use xlink:href="#AppleGothic-20" transform="translate(1129.599777 0)"/>
    <use xlink:href="#AppleGothic-c5f4" transform="translate(1161.599762 0)"/>
    <use xlink:href="#AppleGothic-5d" transform="translate(1261.599747 0)"/>
    <use xlink:href="#AppleGothic-20" transform="translate(1311.599731 0)"/>
    <use xlink:href="#AppleGothic-c778" transform="translate(1343.599716 0)"/>
    <use xlink:href="#AppleGothic-b371" transform="translate(1443.599701 0)"/>
    <use xlink:href="#AppleGothic-c2a4" transform="translate(1543.599686 0)"/>
    <use xlink:href="#AppleGothic-b97c" transform="translate(1643.59967 0)"/>
    <use xlink:href="#AppleGothic-20" transform="translate(1743.599655 0)"/>
    <use xlink:href="#AppleGothic-d1b5" transform="translate(1775.59964 0)"/>
    <use xlink:href="#AppleGothic-d574" transform="translate(1875.599625 0)"/>
    <use xlink:href="#AppleGothic-20" transform="translate(1975.599609 0)"/>
    <use xlink:href="#AppleGothic-ac01" transform="translate(2007.599594 0)"/>
    <use xlink:href="#AppleGothic-20" transform="translate(2107.599579 0)"/>
    <use xlink:href="#AppleGothic-ad6c" transform="translate(2139.599564 0)"/>
    <use xlink:href="#AppleGothic-c5ed" transform="translate(2239.599548 0)"/>
    <use xlink:href="#AppleGothic-c5d0" transform="translate(2339.599533 0)"/>
    <use xlink:href="#AppleGothic-20" transform="translate(2439.599518 0)"/>
    <use xlink:href="#AppleGothic-c811" transform="translate(2471.599503 0)"/>
    <use xlink:href="#AppleGothic-adfc" transform="translate(2571.599487 0)"/>
    <use xlink:href="#AppleGothic-d569" transform="translate(2671.599472 0)"/>
    <use xlink:href="#AppleGothic-b2c8" transform="translate(2771.599457 0)"/>
    <use xlink:href="#AppleGothic-b2e4" transform="translate(2871.599442 0)"/>
   </g>
  </g>
 </g>
 <defs>
  <clipPath id="p866f45a663">
   <rect x="38.05" y="22.60875" width="240.86" height="224.58875"/>
  </clipPath>
  <clipPath id="p7b49a8fbf6">
   <rect x="320.65" y="22.60875" width="240.86" height="224.58875"/>
  </clipPath>
  <clipPath id="p22d6b08ed6">
   <rect x="38.05" y="291.18" width="240.86" height="224.58875"/>
  </clipPath>
  <clipPath id="p7c9166e50d">
   <rect x="320.65" y="291.18" width="240.86" height="224.58875"/>
  </clipPath>
 </defs>
</svg>
