<?xml version="1.0" encoding="utf-8" standalone="no"?>
<!DOCTYPE svg PUBLIC "-//W3C//DTD SVG 1.1//EN"
  "http://www.w3.org/Graphics/SVG/1.1/DTD/svg11.dtd">
<svg xmlns:xlink="http://www.w3.org/1999/xlink" width="1000.655937pt" height="424.530625pt" viewBox="0 0 1000.655937 424.530625" xmlns="http://www.w3.org/2000/svg" version="1.1">
 <metadata>
  <rdf:RDF xmlns:dc="http://purl.org/dc/elements/1.1/" xmlns:cc="http://creativecommons.org/ns#" xmlns:rdf="http://www.w3.org/1999/02/22-rdf-syntax-ns#">
   <cc:Work>
    <dc:type rdf:resource="http://purl.org/dc/dcmitype/StillImage"/>
    <dc:date>2026-05-22T02:33:53.073500</dc:date>
    <dc:format>image/svg+xml</dc:format>
    <dc:creator>
     <cc:Agent>
      <dc:title>Matplotlib v3.10.9, https://matplotlib.org/</dc:title>
     </cc:Agent>
    </dc:creator>
   </cc:Work>
  </rdf:RDF>
 </metadata>
 <defs>
  <style type="text/css">*{stroke-linejoin: round; stroke-linecap: butt}</style>
 </defs>
 <g id="figure_1">
  <g id="patch_1">
   <path d="M 0 424.530625 
L 1000.655937 424.530625 
L 1000.655937 0 
L 0 0 
z
" style="fill: #ffffff"/>
  </g>
  <g id="axes_1">
   <g id="patch_2">
    <path d="M 48.160938 387.20875 
L 496.520938 387.20875 
L 496.520938 22.60875 
L 48.160938 22.60875 
z
" style="fill: #ffffff"/>
   </g>
   <g id="patch_3">
    <path d="M 70.578937 387.20875 
L 160.250938 387.20875 
L 160.250938 39.970655 
L 70.578937 39.970655 
z
" clip-path="url(#p0a002d573c)" style="fill: #d25d51"/>
   </g>
   <g id="patch_4">
    <path d="M 294.758938 387.20875 
L 384.430938 387.20875 
L 384.430938 327.109849 
L 294.758938 327.109849 
z
" clip-path="url(#p0a002d573c)" style="fill: #d25d51"/>
   </g>
   <g id="patch_5">
    <path d="M 160.250938 387.20875 
L 249.922938 387.20875 
L 249.922938 306.33492 
L 160.250938 306.33492 
z
" clip-path="url(#p0a002d573c)" style="fill: #42b874"/>
   </g>
   <g id="patch_6">
    <path d="M 384.430938 387.20875 
L 474.102938 387.20875 
L 474.102938 214.331664 
L 384.430938 214.331664 
z
" clip-path="url(#p0a002d573c)" style="fill: #42b874"/>
   </g>
   <g id="patch_7">
    <path d="M 160.250938 387.20875 
L 160.250938 387.20875 
L 160.250938 387.20875 
L 160.250938 387.20875 
z
" clip-path="url(#p0a002d573c)" style="fill: #d25d51"/>
   </g>
   <g id="patch_8">
    <path d="M 160.250938 387.20875 
L 160.250938 387.20875 
L 160.250938 387.20875 
L 160.250938 387.20875 
z
" clip-path="url(#p0a002d573c)" style="fill: #42b874"/>
   </g>
   <g id="matplotlib.axis_1">
    <g id="xtick_1">
     <g id="line2d_1">
      <defs>
       <path id="mb638f505e7" d="M 0 0 
L 0 3.5 
" style="stroke: #000000; stroke-width: 0.8"/>
      </defs>
      <g>
       <use xlink:href="#mb638f505e7" x="160.250938" y="387.20875" style="stroke: #000000; stroke-width: 0.8"/>
      </g>
     </g>
     <g id="text_1">
      <!-- male -->
      <g transform="translate(149.380625 402.049375) scale(0.1 -0.1)">
       <defs>
        <path id="AppleGothic-6d" d="M 5389 2195 
L 5389 0 
L 4922 0 
L 4922 2304 
Q 4922 2669 4672 2893 
Q 4461 3085 4173 3085 
Q 3744 3085 3405 2688 
Q 3072 2298 3072 1722 
L 3072 0 
L 2605 0 
L 2605 2304 
Q 2605 2650 2368 2861 
Q 2144 3085 1856 3085 
Q 1440 3085 1114 2714 
Q 755 2304 755 1702 
L 755 0 
L 288 0 
L 288 3424 
L 723 3424 
L 742 2880 
Q 928 3181 1274 3354 
Q 1581 3501 1894 3501 
Q 2381 3501 2714 3219 
Q 2957 3008 3021 2797 
Q 3149 3034 3386 3226 
Q 3757 3501 4205 3501 
Q 4749 3501 5050 3174 
Q 5389 2803 5389 2195 
z
" transform="scale(0.015625)"/>
        <path id="AppleGothic-61" d="M 2950 2214 
L 2950 602 
Q 2950 493 2998 413 
Q 3046 333 3174 333 
Q 3213 333 3238 336 
Q 3264 339 3290 346 
Q 3328 358 3357 371 
Q 3386 384 3405 390 
L 3405 32 
Q 3290 -6 3174 -22 
Q 3059 -38 2995 -38 
Q 2669 -38 2566 134 
Q 2483 243 2483 602 
Q 2400 461 2317 355 
Q 2234 250 2150 179 
Q 1818 -83 1376 -83 
Q 909 -83 563 192 
Q 205 486 205 941 
Q 205 1510 781 1779 
Q 992 1882 1341 1958 
Q 1690 2035 2176 2099 
L 2483 2131 
Q 2483 2579 2256 2832 
Q 2029 3085 1587 3085 
Q 1421 3085 1257 3043 
Q 1094 3002 928 2912 
Q 838 2861 729 2790 
Q 621 2720 493 2611 
L 493 3136 
Q 1037 3501 1664 3501 
Q 2304 3501 2650 3098 
Q 2950 2746 2950 2214 
z
M 2483 1542 
L 2483 1747 
L 2266 1722 
Q 1466 1638 1139 1498 
Q 704 1325 704 934 
Q 704 819 755 713 
Q 806 608 896 525 
Q 986 442 1117 390 
Q 1248 339 1408 339 
Q 1843 339 2170 691 
Q 2483 1050 2483 1542 
z
" transform="scale(0.015625)"/>
        <path id="AppleGothic-6c" d="M 288 5018 
L 749 5018 
L 749 0 
L 288 0 
L 288 5018 
z
" transform="scale(0.015625)"/>
        <path id="AppleGothic-65" d="M 3296 1850 
L 691 1850 
Q 691 1114 1033 726 
Q 1376 339 1933 339 
Q 2355 339 2746 608 
Q 2854 678 2976 784 
Q 3098 890 3238 1030 
L 3238 474 
Q 3085 358 2953 272 
Q 2822 186 2707 128 
Q 2304 -83 1901 -83 
Q 1203 -83 717 397 
Q 192 902 192 1709 
Q 192 2470 666 2982 
Q 1146 3501 1850 3501 
Q 2534 3501 2938 3002 
Q 3296 2547 3296 1850 
z
M 755 2240 
L 2758 2240 
Q 2682 2675 2429 2889 
Q 2176 3104 1818 3104 
Q 1421 3104 1146 2854 
Q 890 2624 755 2240 
z
" transform="scale(0.015625)"/>
       </defs>
       <use xlink:href="#AppleGothic-6d"/>
       <use xlink:href="#AppleGothic-61" transform="translate(89.299988 0)"/>
       <use xlink:href="#AppleGothic-6c" transform="translate(145.799973 0)"/>
       <use xlink:href="#AppleGothic-65" transform="translate(162.499969 0)"/>
      </g>
     </g>
    </g>
    <g id="xtick_2">
     <g id="line2d_2">
      <g>
       <use xlink:href="#mb638f505e7" x="384.430938" y="387.20875" style="stroke: #000000; stroke-width: 0.8"/>
      </g>
     </g>
     <g id="text_2">
      <!-- female -->
      <g transform="translate(369.115313 402.049375) scale(0.1 -0.1)">
       <defs>
        <path id="AppleGothic-66" d="M 646 3430 
L 646 4083 
Q 646 4538 819 4774 
Q 1037 5101 1555 5101 
Q 1613 5101 1657 5097 
Q 1702 5094 1750 5088 
Q 1798 5082 1862 5062 
Q 1926 5043 2016 5018 
L 2016 4595 
Q 1997 4621 1837 4653 
Q 1766 4666 1712 4672 
Q 1658 4678 1619 4678 
Q 1350 4678 1228 4524 
Q 1107 4371 1107 4083 
L 1107 3430 
L 2016 3430 
L 2016 3014 
L 1107 3014 
L 1107 0 
L 646 0 
L 646 3014 
L 64 3014 
L 64 3430 
L 646 3430 
z
" transform="scale(0.015625)"/>
       </defs>
       <use xlink:href="#AppleGothic-66"/>
       <use xlink:href="#AppleGothic-65" transform="translate(33.999985 0)"/>
       <use xlink:href="#AppleGothic-6d" transform="translate(88.899979 0)"/>
       <use xlink:href="#AppleGothic-61" transform="translate(178.199966 0)"/>
       <use xlink:href="#AppleGothic-6c" transform="translate(234.699951 0)"/>
       <use xlink:href="#AppleGothic-65" transform="translate(251.399948 0)"/>
      </g>
     </g>
    </g>
    <g id="text_3">
     <!-- 성별 -->
     <g transform="translate(262.340938 415.610312) scale(0.1 -0.1)">
      <defs>
       <path id="AppleGothic-c131" d="M 5459 486 
Q 5459 -38 4838 -269 
Q 4294 -474 3347 -474 
Q 2445 -474 1907 -262 
Q 1293 -26 1293 442 
Q 1293 1030 1946 1280 
Q 2189 1382 2544 1427 
Q 2899 1472 3354 1472 
Q 3795 1472 4147 1427 
Q 4499 1382 4768 1280 
Q 5459 1024 5459 486 
z
M 5446 5082 
Q 5446 5062 5420 4992 
Q 5395 4922 5395 4870 
L 5382 3981 
L 5395 1664 
L 4922 1587 
L 4922 3315 
L 4333 3334 
L 3725 3315 
L 3725 3706 
L 4352 3686 
L 4928 3706 
L 4915 5190 
L 5094 5197 
Q 5242 5197 5344 5174 
Q 5446 5152 5446 5082 
z
M 3962 2381 
Q 3949 2362 3930 2342 
Q 3898 2310 3878 2284 
Q 3859 2259 3834 2240 
L 3661 2035 
Q 3558 2106 3475 2163 
Q 3392 2221 3334 2266 
Q 3136 2413 2989 2557 
Q 2842 2701 2733 2838 
Q 2624 2976 2541 3113 
Q 2458 3251 2394 3386 
Q 2349 3482 2304 3603 
Q 2285 3565 2269 3533 
Q 2253 3501 2240 3469 
Q 2042 3117 1690 2707 
Q 1568 2573 1421 2425 
Q 1274 2278 1094 2125 
Q 1030 2074 953 2010 
Q 877 1946 768 1862 
L 557 2035 
Q 525 2067 461 2105 
Q 397 2144 397 2163 
Q 403 2189 410 2195 
Q 474 2234 528 2262 
Q 582 2291 627 2323 
Q 883 2502 1123 2736 
Q 1363 2970 1587 3258 
Q 1856 3610 2009 4048 
Q 2163 4486 2163 4928 
L 2202 4928 
Q 2387 4928 2534 4909 
Q 2682 4890 2682 4826 
Q 2682 4774 2637 4723 
Q 2630 4710 2592 4672 
Q 2579 4634 2576 4605 
Q 2573 4576 2566 4550 
Q 2541 4422 2541 4333 
Q 2541 4250 2563 4147 
Q 2586 4045 2630 3910 
Q 2758 3539 3001 3193 
Q 3245 2848 3610 2605 
Q 3674 2560 3754 2518 
Q 3834 2477 3930 2426 
L 3962 2381 
z
M 4979 474 
Q 4979 826 4474 979 
Q 4058 1114 3354 1114 
Q 2624 1114 2266 992 
Q 1773 838 1773 448 
Q 1850 -102 3366 -102 
Q 4154 -102 4525 19 
Q 4979 160 4979 474 
z
" transform="scale(0.015625)"/>
       <path id="AppleGothic-bcc4" d="M 3027 2739 
L 3027 3680 
L 2150 3693 
L 1293 3680 
L 1293 2739 
L 2144 2720 
L 3027 2739 
z
M 5440 -531 
Q 5178 -525 4906 -518 
Q 4634 -512 4339 -506 
Q 4038 -499 3801 -496 
Q 3565 -493 3379 -493 
L 1446 -493 
Q 1453 -422 1456 -336 
Q 1459 -250 1466 -141 
Q 1466 -45 1469 19 
Q 1472 83 1472 115 
L 1459 762 
L 3354 749 
L 4845 774 
L 4845 1382 
L 1446 1370 
L 1446 1734 
Q 1658 1734 1888 1728 
Q 2118 1722 2374 1715 
Q 2630 1709 2864 1705 
Q 3098 1702 3322 1702 
L 5299 1715 
L 5280 1094 
L 5293 410 
L 3373 429 
L 1901 416 
L 1901 -128 
Q 1978 -134 2134 -134 
Q 2291 -134 2522 -134 
Q 2752 -141 2969 -144 
Q 3187 -147 3392 -147 
Q 3846 -147 4380 -137 
Q 4915 -128 5440 -109 
L 5440 -531 
z
M 5440 5062 
Q 5440 5024 5414 4937 
Q 5389 4851 5389 4813 
Q 5382 4589 5372 4224 
Q 5363 3859 5363 3334 
Q 5363 3008 5363 2784 
Q 5363 2560 5370 2445 
Q 5376 2323 5376 2220 
Q 5376 2118 5382 2029 
L 4922 2029 
Q 4941 2189 4941 2394 
L 4941 2822 
L 3878 2803 
L 3878 3174 
L 4941 3162 
L 4941 3917 
L 3859 3904 
L 3859 4269 
L 4941 4256 
L 4941 4685 
Q 4941 4909 4934 5021 
Q 4928 5133 4915 5190 
L 5056 5190 
Q 5222 5190 5331 5164 
Q 5440 5139 5440 5062 
z
M 3488 4877 
L 3469 4710 
L 3456 3462 
L 3469 2362 
L 851 2362 
Q 851 2630 857 2944 
Q 864 3258 870 3578 
Q 870 3853 870 4061 
Q 870 4269 864 4416 
Q 858 4570 858 4704 
Q 858 4838 851 4966 
L 979 4966 
Q 1146 4966 1242 4950 
Q 1338 4934 1338 4864 
Q 1338 4838 1315 4761 
Q 1293 4685 1293 4653 
L 1293 4051 
L 2157 4032 
L 3027 4051 
L 3014 4998 
L 3072 4998 
Q 3264 4998 3376 4976 
Q 3488 4954 3488 4877 
z
" transform="scale(0.015625)"/>
      </defs>
      <use xlink:href="#AppleGothic-c131"/>
      <use xlink:href="#AppleGothic-bcc4" transform="translate(99.999985 0)"/>
     </g>
    </g>
   </g>
   <g id="matplotlib.axis_2">
    <g id="ytick_1">
     <g id="line2d_3">
      <defs>
       <path id="m537afc7c4a" d="M 0 0 
L -3.5 0 
" style="stroke: #000000; stroke-width: 0.8"/>
      </defs>
      <g>
       <use xlink:href="#m537afc7c4a" x="48.160938" y="387.20875" style="stroke: #000000; stroke-width: 0.8"/>
      </g>
     </g>
     <g id="text_4">
      <!-- 0 -->
      <g transform="translate(34.360938 391.129062) scale(0.1 -0.1)">
       <defs>
        <path id="AppleGothic-30" d="M 2227 -83 
Q 1414 -83 934 576 
Q 461 1229 461 2387 
Q 461 3552 973 4218 
Q 1453 4858 2221 4858 
Q 3027 4858 3482 4173 
Q 3955 3494 3955 2394 
Q 3955 1248 3462 582 
Q 2976 -83 2227 -83 
z
M 2176 346 
Q 2861 346 3200 992 
Q 3462 1536 3462 2400 
Q 3462 3315 3162 3859 
Q 2822 4429 2214 4429 
Q 1574 4429 1248 3821 
Q 960 3283 960 2374 
Q 960 1478 1248 941 
Q 1574 346 2176 346 
z
" transform="scale(0.015625)"/>
       </defs>
       <use xlink:href="#AppleGothic-30"/>
      </g>
     </g>
    </g>
    <g id="ytick_2">
     <g id="line2d_4">
      <g>
       <use xlink:href="#m537afc7c4a" x="48.160938" y="313.012576" style="stroke: #000000; stroke-width: 0.8"/>
      </g>
     </g>
     <g id="text_5">
      <!-- 100 -->
      <g transform="translate(20.760938 316.932888) scale(0.1 -0.1)">
       <defs>
        <path id="AppleGothic-31" d="M 2342 4774 
L 2752 4774 
L 2752 0 
L 2285 0 
L 2285 3526 
L 1158 3526 
L 1158 3885 
L 1414 3885 
Q 1990 3885 2214 4205 
Q 2342 4410 2342 4774 
z
" transform="scale(0.015625)"/>
       </defs>
       <use xlink:href="#AppleGothic-31"/>
       <use xlink:href="#AppleGothic-30" transform="translate(67.999985 0)"/>
       <use xlink:href="#AppleGothic-30" transform="translate(135.999969 0)"/>
      </g>
     </g>
    </g>
    <g id="ytick_3">
     <g id="line2d_5">
      <g>
       <use xlink:href="#m537afc7c4a" x="48.160938" y="238.816402" style="stroke: #000000; stroke-width: 0.8"/>
      </g>
     </g>
     <g id="text_6">
      <!-- 200 -->
      <g transform="translate(20.760938 242.736714) scale(0.1 -0.1)">
       <defs>
        <path id="AppleGothic-32" d="M 1101 429 
L 3942 429 
L 3942 0 
L 653 0 
L 653 205 
Q 653 1018 1344 1664 
Q 1670 1894 1990 2124 
Q 2310 2355 2637 2592 
Q 3334 3098 3334 3597 
Q 3334 3994 3014 4218 
Q 2867 4326 2694 4377 
Q 2522 4429 2317 4429 
Q 2016 4429 1741 4352 
Q 1325 4224 883 3910 
L 883 4435 
Q 1325 4659 1667 4758 
Q 2010 4858 2317 4858 
Q 2963 4858 3405 4525 
Q 3840 4198 3840 3622 
Q 3840 2995 3168 2438 
Q 2848 2214 2531 2000 
Q 2214 1786 1894 1562 
Q 1178 1024 1101 429 
z
" transform="scale(0.015625)"/>
       </defs>
       <use xlink:href="#AppleGothic-32"/>
       <use xlink:href="#AppleGothic-30" transform="translate(67.999985 0)"/>
       <use xlink:href="#AppleGothic-30" transform="translate(135.999969 0)"/>
      </g>
     </g>
    </g>
    <g id="ytick_4">
     <g id="line2d_6">
      <g>
       <use xlink:href="#m537afc7c4a" x="48.160938" y="164.620227" style="stroke: #000000; stroke-width: 0.8"/>
      </g>
     </g>
     <g id="text_7">
      <!-- 300 -->
      <g transform="translate(20.760938 168.54054) scale(0.1 -0.1)">
       <defs>
        <path id="AppleGothic-33" d="M 550 333 
L 550 870 
Q 883 621 1235 483 
Q 1587 346 1971 346 
Q 2522 346 2861 666 
Q 3219 992 3219 1421 
Q 3219 1869 2842 2099 
Q 2515 2304 1965 2304 
L 992 2304 
L 992 2701 
L 1658 2701 
Q 2298 2701 2662 2928 
Q 3027 3155 3027 3584 
Q 3027 3936 2752 4173 
Q 2458 4429 1978 4429 
Q 1786 4429 1597 4393 
Q 1408 4358 1222 4282 
Q 890 4141 531 3872 
L 531 4422 
Q 736 4531 912 4608 
Q 1088 4685 1254 4736 
Q 1626 4858 2022 4858 
Q 2650 4858 3066 4531 
Q 3488 4211 3488 3642 
Q 3488 3168 3168 2861 
Q 2976 2675 2643 2554 
Q 2874 2522 3053 2448 
Q 3232 2374 3366 2266 
Q 3718 1971 3718 1434 
Q 3718 813 3219 365 
Q 2714 -83 1965 -83 
Q 1549 -83 1126 70 
Q 1024 102 880 166 
Q 736 230 550 333 
z
" transform="scale(0.015625)"/>
       </defs>
       <use xlink:href="#AppleGothic-33"/>
       <use xlink:href="#AppleGothic-30" transform="translate(67.999985 0)"/>
       <use xlink:href="#AppleGothic-30" transform="translate(135.999969 0)"/>
      </g>
     </g>
    </g>
    <g id="ytick_5">
     <g id="line2d_7">
      <g>
       <use xlink:href="#m537afc7c4a" x="48.160938" y="90.424053" style="stroke: #000000; stroke-width: 0.8"/>
      </g>
     </g>
     <g id="text_8">
      <!-- 400 -->
      <g transform="translate(20.760938 94.344366) scale(0.1 -0.1)">
       <defs>
        <path id="AppleGothic-34" d="M 2662 4774 
L 3130 4774 
L 3130 1811 
L 4000 1811 
L 4000 1382 
L 3130 1382 
L 3130 0 
L 2662 0 
L 2662 1382 
L 352 1382 
L 352 1811 
L 2662 4774 
z
M 2662 1811 
L 2662 4166 
L 838 1811 
L 2662 1811 
z
" transform="scale(0.015625)"/>
       </defs>
       <use xlink:href="#AppleGothic-34"/>
       <use xlink:href="#AppleGothic-30" transform="translate(67.999985 0)"/>
       <use xlink:href="#AppleGothic-30" transform="translate(135.999969 0)"/>
      </g>
     </g>
    </g>
    <g id="text_9">
     <!-- 인원 수 (명) -->
     <g transform="translate(15.040625 233.10875) rotate(-90) scale(0.1 -0.1)">
      <defs>
       <path id="AppleGothic-c778" d="M 3347 3251 
Q 3347 3686 3014 3936 
Q 2714 4160 2266 4160 
Q 1805 4160 1491 3930 
Q 1146 3680 1146 3245 
Q 1146 2854 1459 2605 
Q 1773 2368 2246 2368 
Q 2714 2368 3027 2586 
Q 3347 2822 3347 3251 
z
M 5587 -13 
L 5562 -410 
L 4634 -403 
Q 4269 -403 3821 -406 
Q 3373 -410 2816 -416 
Q 1722 -435 1562 -435 
L 1568 230 
L 1542 1274 
L 1664 1274 
Q 1850 1274 1965 1254 
Q 2080 1235 2080 1184 
Q 2080 1165 2054 1081 
Q 2029 998 2029 941 
L 2029 -32 
L 2893 -45 
Q 2950 -45 3043 -45 
Q 3136 -45 3270 -38 
Q 3398 -32 3497 -32 
Q 3597 -32 3667 -32 
L 5587 -13 
z
M 5453 5062 
Q 5453 5024 5421 4944 
Q 5389 4864 5389 4832 
L 5389 3040 
Q 5389 2362 5398 1770 
Q 5408 1178 5421 762 
L 4934 749 
L 4947 3187 
L 4915 5190 
L 4979 5190 
Q 5190 5190 5321 5171 
Q 5453 5152 5453 5062 
z
M 3789 3264 
Q 3789 2694 3328 2330 
Q 2893 1997 2259 1997 
Q 1619 1997 1190 2304 
Q 710 2650 710 3194 
Q 710 3814 1171 4192 
Q 1600 4544 2234 4544 
Q 2906 4544 3347 4192 
Q 3789 3846 3789 3264 
z
" transform="scale(0.015625)"/>
       <path id="AppleGothic-c6d0" d="M 3533 3853 
Q 3533 4141 3280 4307 
Q 3027 4474 2554 4474 
Q 2125 4474 1862 4352 
Q 1530 4186 1530 3846 
Q 1530 3571 1843 3392 
Q 2125 3245 2541 3245 
Q 2950 3245 3238 3398 
Q 3533 3565 3533 3853 
z
M 5600 -371 
L 3725 -358 
Q 3226 -358 2611 -364 
Q 1997 -371 1357 -384 
L 1376 448 
Q 1376 608 1376 713 
Q 1376 819 1370 870 
Q 1370 922 1366 970 
Q 1363 1018 1357 1062 
Q 1510 1062 1696 1043 
Q 1875 1024 1875 973 
Q 1875 954 1846 877 
Q 1818 800 1818 742 
L 1818 -6 
L 3725 -6 
Q 4077 -6 4358 -3 
Q 4640 0 4867 6 
Q 5094 13 5273 19 
Q 5453 26 5600 32 
L 5600 -371 
z
M 4538 2266 
Q 4467 2253 4416 2249 
Q 4365 2246 4314 2240 
Q 4166 2227 4016 2217 
Q 3866 2208 3712 2208 
Q 3546 2208 3386 2198 
Q 3226 2189 3059 2176 
Q 2938 2163 2778 2138 
L 2758 1594 
L 2758 1126 
Q 2765 1018 2778 934 
L 2298 915 
Q 2298 947 2298 1017 
Q 2298 1088 2304 1203 
Q 2310 1312 2313 1389 
Q 2317 1466 2317 1504 
L 2310 2112 
Q 2291 2099 1837 2093 
Q 1613 2086 1373 2083 
Q 1133 2080 883 2080 
Q 838 2080 764 2064 
Q 691 2048 678 2048 
Q 621 2048 608 2138 
L 582 2470 
Q 678 2477 764 2477 
Q 851 2477 922 2477 
Q 1408 2490 1801 2496 
Q 2195 2502 2502 2502 
Q 2867 2502 3225 2518 
Q 3584 2534 3949 2566 
Q 4070 2579 4211 2595 
Q 4352 2611 4518 2637 
L 4538 2266 
z
M 5440 5094 
Q 5440 5082 5437 5069 
Q 5434 5056 5427 5030 
Q 5395 4915 5395 4851 
L 5389 2682 
Q 5389 2285 5389 1981 
Q 5389 1677 5395 1459 
Q 5402 1242 5405 1040 
Q 5408 838 5414 646 
L 4941 621 
L 4947 1466 
L 4358 1485 
Q 3872 1485 3693 1466 
L 3693 1830 
L 4371 1818 
L 4960 1843 
L 4960 3738 
Q 4960 4096 4957 4342 
Q 4954 4589 4947 4730 
Q 4941 4877 4937 4989 
Q 4934 5101 4922 5190 
L 5030 5190 
Q 5216 5190 5328 5174 
Q 5440 5158 5440 5094 
z
M 4000 3846 
Q 4000 3405 3597 3149 
Q 3194 2899 2560 2899 
Q 1971 2899 1536 3136 
Q 1069 3411 1069 3846 
Q 1069 4326 1517 4602 
Q 1920 4851 2522 4851 
Q 3123 4851 3539 4602 
Q 4000 4314 4000 3846 
z
" transform="scale(0.015625)"/>
       <path id="AppleGothic-20" transform="scale(0.015625)"/>
       <path id="AppleGothic-c218" d="M 6022 1952 
L 3411 1952 
L 3424 896 
L 3462 -582 
L 2982 -582 
L 2982 1952 
Q 2912 1952 2774 1949 
Q 2637 1946 2419 1939 
Q 2208 1933 2086 1933 
Q 1965 1933 1933 1933 
L 378 1894 
L 378 2304 
L 3206 2298 
Q 3706 2298 4202 2307 
Q 4698 2317 5184 2330 
Q 5536 2342 6022 2368 
L 6022 1952 
z
M 5792 3482 
Q 5792 3450 5747 3402 
Q 5702 3354 5658 3315 
L 5523 3117 
Q 5453 3123 5395 3126 
Q 5338 3130 5286 3142 
Q 4685 3251 4090 3610 
Q 3699 3846 3411 4250 
Q 3360 4320 3312 4409 
Q 3264 4499 3206 4621 
Q 3149 4512 3097 4422 
Q 3046 4333 2995 4262 
Q 2688 3846 2208 3552 
Q 2054 3450 1875 3370 
Q 1696 3290 1498 3219 
Q 1382 3181 1232 3142 
Q 1082 3104 896 3072 
Q 896 3072 873 3101 
Q 851 3130 828 3162 
Q 806 3194 780 3226 
Q 755 3258 749 3270 
Q 736 3290 678 3347 
Q 621 3405 621 3424 
L 640 3443 
Q 730 3450 810 3453 
Q 890 3456 954 3469 
Q 1338 3526 1674 3676 
Q 2010 3827 2298 4077 
Q 2605 4326 2790 4659 
Q 2842 4755 2886 4880 
Q 2931 5005 2970 5171 
L 3411 5133 
Q 3475 5133 3475 5075 
Q 3475 5056 3472 5037 
Q 3469 5018 3462 4992 
Q 3462 4973 3443 4947 
Q 3482 4832 3520 4755 
Q 3738 4301 4230 3974 
Q 4659 3686 5261 3571 
Q 5363 3552 5488 3536 
Q 5613 3520 5766 3507 
Q 5786 3507 5792 3482 
z
" transform="scale(0.015625)"/>
       <path id="AppleGothic-28" d="M 2227 5261 
L 2650 5261 
Q 2342 4768 2169 4473 
Q 1997 4179 1958 4083 
Q 1606 3283 1606 2272 
Q 1606 1587 1754 1018 
Q 1882 570 2138 102 
Q 2150 70 2275 -131 
Q 2400 -333 2630 -717 
L 2227 -717 
Q 2099 -531 1980 -355 
Q 1862 -179 1734 0 
Q 1581 243 1469 483 
Q 1357 723 1274 954 
Q 1069 1587 1069 2272 
Q 1069 2963 1261 3558 
Q 1338 3789 1450 4022 
Q 1562 4256 1715 4499 
Q 1843 4691 1971 4880 
Q 2099 5069 2227 5261 
z
" transform="scale(0.015625)"/>
       <path id="AppleGothic-ba85" d="M 4998 480 
Q 4998 851 4435 992 
Q 4237 1043 3981 1072 
Q 3725 1101 3398 1101 
L 3245 1101 
Q 2598 1101 2221 992 
Q 1734 858 1734 512 
Q 1734 160 2227 -6 
Q 2432 -77 2704 -109 
Q 2976 -141 3328 -141 
Q 3699 -141 3984 -115 
Q 4269 -90 4474 -26 
Q 4998 128 4998 480 
z
M 2912 2438 
L 2912 4262 
L 1235 4262 
L 1242 2438 
L 2131 2426 
L 2912 2438 
z
M 5434 493 
Q 5434 -19 4838 -275 
Q 4288 -506 3315 -506 
Q 2419 -506 1875 -282 
Q 1254 -19 1254 506 
Q 1254 1011 1914 1248 
Q 2470 1466 3398 1466 
Q 4339 1466 4858 1229 
Q 5434 973 5434 493 
z
M 3386 2054 
L 787 2042 
L 806 3469 
Q 806 3795 800 4102 
Q 794 4410 781 4659 
L 1862 4646 
L 3379 4659 
L 3360 3360 
Q 3360 2989 3366 2656 
Q 3373 2323 3386 2054 
z
M 5440 5082 
Q 5440 5050 5417 4970 
Q 5395 4890 5395 4858 
Q 5395 4768 5395 4614 
Q 5395 4461 5389 4243 
Q 5382 4032 5382 3821 
Q 5382 3610 5376 3398 
Q 5376 2918 5376 2595 
Q 5376 2272 5382 2106 
Q 5389 1939 5392 1814 
Q 5395 1690 5408 1594 
L 4922 1581 
Q 4922 1581 4925 1597 
Q 4928 1613 4928 1657 
Q 4928 1702 4931 1785 
Q 4934 1869 4934 2010 
L 4934 2528 
L 4582 2528 
Q 4371 2528 4140 2521 
Q 3910 2515 3706 2502 
L 3706 2906 
L 4557 2893 
L 4934 2899 
L 4934 3718 
L 4512 3706 
Q 4243 3706 3878 3686 
Q 3846 3686 3801 3683 
Q 3757 3680 3706 3674 
L 3706 4090 
L 4461 4070 
L 4934 4077 
L 4941 4634 
Q 4941 4870 4934 4998 
Q 4928 5126 4915 5190 
L 5030 5190 
Q 5222 5190 5331 5171 
Q 5440 5152 5440 5082 
z
" transform="scale(0.015625)"/>
       <path id="AppleGothic-29" d="M 2221 2272 
Q 2221 1587 2016 960 
Q 1862 499 1555 6 
Q 1427 -179 1305 -355 
Q 1184 -531 1062 -717 
L 659 -717 
Q 781 -512 902 -310 
Q 1024 -109 1152 96 
Q 1280 333 1376 557 
Q 1472 781 1530 1005 
Q 1683 1562 1683 2272 
Q 1683 2650 1641 2973 
Q 1600 3296 1517 3584 
Q 1459 3802 1356 4029 
Q 1254 4256 1120 4499 
Q 992 4691 873 4880 
Q 755 5069 640 5261 
L 1062 5261 
Q 1190 5069 1315 4880 
Q 1440 4691 1568 4506 
Q 1722 4256 1837 4022 
Q 1952 3789 2022 3565 
Q 2221 2976 2221 2272 
z
" transform="scale(0.015625)"/>
      </defs>
      <use xlink:href="#AppleGothic-c778"/>
      <use xlink:href="#AppleGothic-c6d0" transform="translate(99.999985 0)"/>
      <use xlink:href="#AppleGothic-20" transform="translate(199.999969 0)"/>
      <use xlink:href="#AppleGothic-c218" transform="translate(231.999954 0)"/>
      <use xlink:href="#AppleGothic-20" transform="translate(331.999939 0)"/>
      <use xlink:href="#AppleGothic-28" transform="translate(363.999924 0)"/>
      <use xlink:href="#AppleGothic-ba85" transform="translate(413.999908 0)"/>
      <use xlink:href="#AppleGothic-29" transform="translate(513.999893 0)"/>
     </g>
    </g>
   </g>
   <g id="patch_9">
    <path d="M 48.160938 387.20875 
L 48.160938 22.60875 
" style="fill: none; stroke: #000000; stroke-width: 0.8; stroke-linejoin: miter; stroke-linecap: square"/>
   </g>
   <g id="patch_10">
    <path d="M 496.520938 387.20875 
L 496.520938 22.60875 
" style="fill: none; stroke: #000000; stroke-width: 0.8; stroke-linejoin: miter; stroke-linecap: square"/>
   </g>
   <g id="patch_11">
    <path d="M 48.160938 387.20875 
L 496.520938 387.20875 
" style="fill: none; stroke: #000000; stroke-width: 0.8; stroke-linejoin: miter; stroke-linecap: square"/>
   </g>
   <g id="patch_12">
    <path d="M 48.160938 22.60875 
L 496.520938 22.60875 
" style="fill: none; stroke: #000000; stroke-width: 0.8; stroke-linejoin: miter; stroke-linecap: square"/>
   </g>
   <g id="text_10">
    <!-- 성별 생존자 및 사망자 수 (Count) -->
    <g transform="translate(180.396563 16.60875) scale(0.12 -0.12)">
     <defs>
      <path id="AppleGothic-c0dd" d="M 5651 480 
Q 5651 -6 5164 -246 
Q 4678 -486 3738 -486 
L 3546 -493 
Q 2707 -493 2163 -288 
Q 1485 -38 1485 493 
Q 1485 1043 2163 1274 
Q 2688 1459 3590 1459 
Q 4070 1459 4451 1392 
Q 4832 1325 5097 1200 
Q 5363 1075 5507 892 
Q 5651 710 5651 480 
z
M 3552 2266 
Q 3539 2240 3539 2240 
Q 3514 2195 3482 2176 
L 3264 1978 
Q 3110 2074 3021 2163 
Q 2720 2406 2496 2701 
Q 2355 2880 2214 3162 
Q 2189 3213 2163 3273 
Q 2138 3334 2106 3405 
Q 2074 3328 2042 3264 
Q 2010 3200 1990 3149 
Q 1907 2995 1811 2848 
Q 1715 2701 1606 2554 
Q 1523 2451 1401 2326 
Q 1280 2202 1114 2048 
Q 1062 1997 982 1933 
Q 902 1869 806 1786 
Q 742 1818 557 1984 
Q 448 2074 448 2093 
Q 448 2112 480 2131 
Q 531 2163 538 2176 
Q 1171 2566 1600 3334 
Q 2029 4096 2029 4851 
Q 2131 4851 2310 4806 
Q 2515 4768 2515 4723 
Q 2502 4691 2489 4668 
Q 2477 4646 2470 4627 
L 2387 4262 
Q 2387 4154 2393 4054 
Q 2400 3955 2413 3872 
Q 2464 3565 2598 3309 
Q 2688 3142 2816 2976 
Q 2944 2810 3110 2643 
Q 3226 2534 3418 2374 
L 3552 2266 
z
M 5670 5069 
Q 5670 5043 5651 4944 
Q 5632 4845 5632 4762 
L 5626 3142 
L 5638 1542 
L 5184 1517 
L 5184 2848 
L 4378 2842 
L 4371 2490 
L 4390 1760 
L 3923 1734 
Q 3930 1875 3930 2083 
Q 3930 2291 3936 2573 
Q 3942 2861 3942 3085 
Q 3942 3309 3942 3475 
Q 3942 3558 3942 3689 
Q 3942 3821 3936 4006 
Q 3930 4192 3930 4339 
Q 3930 4486 3930 4595 
L 3910 5043 
Q 4077 5043 4243 5024 
Q 4416 5005 4416 4941 
Q 4403 4870 4390 4812 
Q 4378 4755 4378 4678 
L 4365 3891 
L 4378 3206 
L 5184 3206 
L 5197 3808 
Q 5197 3923 5193 4118 
Q 5190 4314 5184 4595 
Q 5178 4870 5174 5020 
Q 5171 5171 5171 5190 
L 5203 5190 
Q 5402 5190 5536 5168 
Q 5670 5146 5670 5069 
z
M 5184 506 
Q 5184 813 4723 960 
Q 4269 1114 3578 1114 
Q 2758 1114 2352 976 
Q 1946 838 1946 512 
Q 1946 198 2458 26 
Q 2912 -134 3590 -134 
Q 3917 -134 4189 -99 
Q 4461 -64 4678 19 
Q 5184 192 5184 506 
z
" transform="scale(0.015625)"/>
      <path id="AppleGothic-c874" d="M 5254 -237 
L 3392 -224 
L 1318 -237 
Q 1325 -109 1328 67 
Q 1331 243 1331 378 
L 1325 1370 
Q 1517 1370 1670 1338 
Q 1824 1306 1824 1254 
Q 1779 1146 1779 1030 
L 1773 134 
L 3386 134 
Q 3834 134 4224 144 
Q 4614 154 4960 166 
Q 5088 166 5254 186 
L 5254 -237 
z
M 5971 1837 
L 5638 1837 
Q 4352 1856 3891 1856 
L 3258 1856 
Q 2413 1856 1754 1837 
Q 1427 1830 1097 1824 
Q 768 1818 429 1805 
L 416 2234 
Q 525 2227 675 2227 
Q 826 2227 1030 2221 
Q 1235 2214 1404 2214 
Q 1574 2214 1709 2214 
L 2957 2227 
L 2970 2867 
L 2957 3181 
Q 3168 3181 3321 3168 
Q 3475 3155 3475 3085 
Q 3475 3078 3456 3004 
Q 3437 2931 3437 2861 
L 3437 2234 
L 4730 2227 
Q 5178 2227 5462 2243 
Q 5747 2259 5971 2278 
L 5971 1837 
z
M 5638 3130 
Q 5638 3104 5504 2944 
Q 5414 2829 5331 2752 
Q 5261 2765 5209 2774 
Q 5158 2784 5107 2797 
Q 4838 2854 4579 2960 
Q 4320 3066 4070 3213 
Q 3891 3322 3731 3443 
Q 3571 3565 3437 3712 
Q 3386 3763 3338 3827 
Q 3290 3891 3226 3968 
Q 3168 3891 3117 3830 
Q 3066 3770 3027 3718 
Q 2886 3571 2723 3436 
Q 2560 3302 2368 3174 
Q 2195 3066 2000 2970 
Q 1805 2874 1581 2797 
Q 1510 2771 1417 2739 
Q 1325 2707 1203 2675 
Q 1184 2688 1129 2726 
Q 1075 2765 986 2835 
Q 819 2982 819 2995 
Q 826 3021 845 3021 
Q 992 3046 1113 3068 
Q 1235 3091 1325 3117 
Q 1606 3200 1840 3305 
Q 2074 3411 2272 3558 
Q 2726 3885 2912 4237 
Q 2976 4358 3014 4531 
L 1990 4544 
Q 1766 4544 1520 4537 
Q 1274 4531 1062 4518 
L 1062 4960 
Q 1478 4947 2025 4937 
Q 2573 4928 3258 4928 
Q 3642 4928 3946 4928 
Q 4250 4928 4480 4934 
Q 4947 4934 5331 4954 
L 5331 4531 
L 4256 4544 
Q 4109 4544 4000 4544 
Q 3891 4544 3804 4541 
Q 3718 4538 3644 4534 
Q 3571 4531 3494 4525 
L 3430 4339 
Q 3482 4250 3526 4179 
Q 3571 4109 3622 4051 
Q 3776 3878 4026 3699 
Q 4512 3373 5114 3226 
Q 5210 3200 5338 3184 
Q 5466 3168 5613 3155 
Q 5632 3155 5638 3130 
z
" transform="scale(0.015625)"/>
      <path id="AppleGothic-c790" d="M 6010 2067 
L 5139 2067 
L 5126 1037 
L 5139 -531 
L 4653 -531 
L 4672 4717 
Q 4672 4960 4665 5056 
Q 4659 5152 4646 5190 
L 4832 5197 
Q 4966 5197 5078 5174 
Q 5190 5152 5190 5101 
Q 5190 5075 5164 4998 
Q 5139 4922 5139 4883 
L 5126 3968 
L 5139 2470 
L 6010 2483 
L 6010 2067 
z
M 4218 1158 
Q 4211 1120 4195 1107 
Q 4179 1094 4144 1072 
Q 4109 1050 4057 1008 
Q 4006 966 3930 883 
Q 3923 870 3885 832 
Q 3814 877 3760 909 
Q 3706 941 3661 973 
Q 3392 1158 3174 1369 
Q 2957 1581 2790 1818 
Q 2720 1914 2643 2045 
Q 2566 2176 2477 2349 
Q 2445 2406 2406 2486 
Q 2368 2566 2317 2662 
Q 2285 2592 2259 2534 
Q 2234 2477 2208 2426 
Q 2061 2157 1901 1926 
Q 1741 1696 1568 1510 
Q 1446 1382 1289 1235 
Q 1133 1088 928 922 
Q 858 864 736 768 
Q 685 819 666 832 
Q 582 915 531 934 
Q 326 1011 326 1050 
Q 326 1056 358 1088 
Q 371 1101 387 1110 
Q 403 1120 416 1133 
Q 538 1222 627 1292 
Q 717 1363 787 1414 
Q 1197 1741 1402 2003 
Q 1766 2458 1942 2922 
Q 2118 3386 2118 3936 
L 2106 4218 
L 1568 4224 
L 646 4198 
L 646 4640 
Q 960 4627 1347 4620 
Q 1734 4614 2144 4614 
L 2330 4614 
Q 2803 4614 3212 4627 
Q 3622 4640 4000 4659 
L 4000 4230 
L 3296 4237 
L 2592 4218 
Q 2579 4122 2576 4042 
Q 2573 3962 2566 3898 
Q 2554 3712 2547 3561 
Q 2541 3411 2541 3296 
Q 2592 2995 2778 2656 
Q 2861 2502 2969 2342 
Q 3078 2182 3213 2003 
Q 3334 1850 3472 1715 
Q 3610 1581 3757 1466 
Q 3808 1434 3872 1389 
Q 3936 1344 4019 1293 
Q 4026 1286 4128 1235 
Q 4218 1184 4218 1158 
z
" transform="scale(0.015625)"/>
      <path id="AppleGothic-bc0f" d="M 3046 2893 
L 3046 4442 
L 2285 4454 
L 1363 4442 
L 1363 2893 
Q 1453 2886 1571 2886 
Q 1690 2886 1837 2880 
Q 1990 2874 2086 2874 
Q 2182 2874 2227 2874 
L 2797 2874 
Q 2931 2880 3046 2893 
z
M 5664 -70 
Q 5664 -83 5581 -141 
Q 5523 -192 5449 -297 
Q 5376 -403 5344 -467 
Q 5267 -448 5203 -429 
Q 5139 -410 5082 -397 
Q 4934 -346 4752 -262 
Q 4570 -179 4346 -70 
Q 4179 19 4022 131 
Q 3866 243 3718 384 
Q 3667 422 3616 483 
Q 3565 544 3501 627 
Q 3462 506 3254 310 
Q 3046 115 2752 -70 
Q 2618 -147 2432 -220 
Q 2246 -294 2003 -365 
Q 1926 -390 1820 -409 
Q 1715 -429 1581 -461 
Q 1568 -435 1565 -422 
Q 1562 -410 1555 -397 
Q 1542 -352 1500 -301 
Q 1459 -250 1414 -205 
Q 1370 -160 1331 -128 
Q 1293 -96 1286 -77 
Q 1312 -51 1395 -48 
Q 1478 -45 1574 -32 
Q 2157 51 2557 278 
Q 2957 506 3149 794 
Q 3213 890 3270 1037 
Q 2976 1037 2374 1018 
Q 1779 998 1472 998 
L 1466 1363 
Q 1555 1363 1760 1360 
Q 1965 1357 2291 1350 
Q 2618 1344 2851 1344 
Q 3085 1344 3219 1344 
L 3565 1344 
Q 3923 1344 4208 1347 
Q 4493 1350 4717 1357 
Q 4941 1363 5142 1369 
Q 5344 1376 5530 1389 
L 5530 1018 
L 5402 1018 
Q 5171 1018 4918 1024 
Q 4666 1030 4435 1037 
L 3744 1030 
Q 3757 998 3769 969 
Q 3782 941 3795 922 
Q 3878 781 4028 649 
Q 4179 518 4397 384 
Q 4582 269 4790 185 
Q 4998 102 5222 45 
Q 5299 32 5395 13 
Q 5491 -6 5600 -26 
Q 5626 -38 5651 -58 
L 5664 -70 
z
M 4294 1664 
Q 4237 1664 4141 1664 
Q 4045 1664 3898 1670 
Q 3629 1677 3456 1690 
Q 3290 1690 3062 1680 
Q 2835 1670 2592 1664 
L 2592 2035 
Q 2605 2035 2688 2032 
Q 2771 2029 2931 2022 
Q 3091 2016 3219 2013 
Q 3347 2010 3443 2010 
Q 3539 2010 3660 2013 
Q 3782 2016 3930 2022 
Q 4083 2029 4172 2032 
Q 4262 2035 4294 2035 
L 4294 1664 
z
M 3501 2522 
L 2362 2534 
L 890 2515 
L 909 3686 
L 890 4787 
L 2118 4768 
L 3501 4787 
L 3482 3686 
L 3501 2522 
z
M 5427 5120 
Q 5427 5056 5421 5030 
Q 5408 4954 5401 4902 
Q 5395 4851 5395 4819 
Q 5382 4646 5376 4406 
Q 5370 4166 5370 3802 
Q 5370 3462 5370 3212 
Q 5370 2963 5376 2790 
Q 5382 2611 5385 2454 
Q 5389 2298 5402 2163 
L 4915 2138 
Q 4922 2259 4931 2412 
Q 4941 2566 4947 2764 
Q 4954 2963 4957 3216 
Q 4960 3469 4960 3795 
Q 4960 4038 4953 4294 
Q 4947 4550 4934 4819 
Q 4928 4909 4921 5017 
Q 4915 5126 4902 5254 
L 5088 5261 
Q 5235 5261 5331 5235 
Q 5427 5210 5427 5120 
z
" transform="scale(0.015625)"/>
      <path id="AppleGothic-c0ac" d="M 6093 2061 
L 5139 2061 
L 5133 1024 
Q 5133 640 5139 240 
Q 5146 -160 5158 -493 
L 4685 -538 
Q 4685 -397 4685 -73 
Q 4685 250 4691 755 
Q 4698 1274 4701 1651 
Q 4704 2029 4704 2285 
Q 4704 2874 4697 3478 
Q 4691 4083 4685 4704 
Q 4685 4877 4675 4992 
Q 4666 5107 4653 5190 
Q 4877 5190 5037 5158 
Q 5197 5126 5197 5069 
Q 5152 4954 5152 4870 
L 5133 3955 
L 5139 2477 
L 6093 2477 
L 6093 2061 
z
M 3923 1331 
Q 3917 1312 3898 1293 
Q 3878 1267 3852 1244 
Q 3827 1222 3782 1197 
L 3584 1018 
Q 3533 1050 3491 1078 
Q 3450 1107 3418 1133 
Q 3014 1446 2675 1946 
Q 2605 2042 2541 2170 
Q 2477 2298 2406 2451 
Q 2336 2605 2291 2736 
Q 2246 2867 2221 2976 
Q 2106 2438 1581 1786 
Q 1312 1466 1059 1245 
Q 806 1024 544 896 
Q 518 909 476 941 
Q 435 973 371 1030 
Q 211 1165 211 1184 
Q 250 1222 256 1235 
Q 301 1235 557 1421 
Q 922 1683 1203 2010 
Q 1606 2477 1818 3078 
Q 1933 3405 1993 3830 
Q 2054 4256 2054 4640 
Q 2106 4640 2186 4630 
Q 2266 4621 2368 4595 
Q 2573 4550 2573 4486 
Q 2560 4454 2521 4361 
Q 2483 4269 2490 4173 
L 2432 3750 
Q 2458 3648 2474 3574 
Q 2490 3501 2502 3437 
Q 2598 3053 2829 2547 
Q 3072 2061 3494 1677 
Q 3565 1613 3657 1539 
Q 3750 1466 3872 1389 
Q 3885 1376 3897 1360 
Q 3910 1344 3923 1331 
z
" transform="scale(0.015625)"/>
      <path id="AppleGothic-b9dd" d="M 4826 531 
Q 4826 870 4448 1014 
Q 4070 1158 3302 1158 
Q 2490 1158 2144 1008 
Q 1798 858 1798 544 
Q 1798 51 2643 -90 
Q 2810 -122 2973 -131 
Q 3136 -141 3302 -141 
Q 4006 -141 4390 19 
Q 4826 192 4826 531 
z
M 2931 2477 
L 2931 4282 
L 2342 4294 
L 1178 4282 
L 1178 2470 
L 2035 2458 
L 2931 2477 
z
M 5325 531 
Q 5325 51 4790 -221 
Q 4256 -493 3302 -493 
Q 2477 -493 1933 -250 
Q 1312 19 1312 531 
Q 1312 1114 1958 1344 
Q 2195 1434 2531 1475 
Q 2867 1517 3309 1517 
Q 4288 1517 4806 1270 
Q 5325 1024 5325 531 
z
M 3386 2048 
L 2208 2054 
L 736 2042 
L 755 3270 
L 736 4717 
Q 806 4717 947 4713 
Q 1088 4710 1312 4704 
Q 1536 4698 1677 4698 
Q 1818 4698 1882 4698 
L 3386 4717 
L 3366 3206 
Q 3366 2790 3372 2521 
Q 3379 2253 3386 2048 
z
M 6061 2970 
L 5133 2995 
L 5133 2746 
Q 5133 2362 5152 1875 
Q 5152 1824 5155 1766 
Q 5158 1709 5165 1638 
L 4672 1613 
L 4698 3680 
Q 4698 3987 4694 4220 
Q 4691 4454 4685 4621 
Q 4678 4787 4672 4924 
Q 4666 5062 4659 5190 
L 4755 5190 
Q 4922 5190 5059 5164 
Q 5197 5139 5197 5075 
Q 5197 5050 5171 4957 
Q 5146 4864 5146 4787 
L 5133 3386 
L 6061 3398 
L 6061 2970 
z
" transform="scale(0.015625)"/>
      <path id="AppleGothic-43" d="M 4109 4621 
L 4109 3974 
Q 3872 4205 3565 4371 
Q 3085 4627 2598 4627 
Q 1850 4627 1312 3994 
Q 1043 3680 912 3309 
Q 781 2938 781 2515 
Q 781 1651 1318 1030 
Q 1850 410 2611 410 
Q 2970 410 3344 554 
Q 3718 698 4109 998 
L 4109 378 
Q 3251 -83 2554 -83 
Q 1651 -83 973 614 
Q 243 1363 243 2490 
Q 243 3584 922 4339 
Q 1613 5101 2630 5101 
Q 3027 5101 3392 4979 
Q 3757 4858 4109 4621 
z
" transform="scale(0.015625)"/>
      <path id="AppleGothic-6f" d="M 1888 -83 
Q 1229 -83 730 397 
Q 198 902 198 1709 
Q 198 2470 666 2982 
Q 1146 3501 1850 3501 
Q 2547 3501 3027 2982 
Q 3501 2470 3501 1715 
Q 3501 922 2989 403 
Q 2515 -83 1888 -83 
z
M 1843 339 
Q 2304 339 2662 723 
Q 3008 1114 3008 1715 
Q 3008 2336 2637 2726 
Q 2298 3085 1850 3085 
Q 1389 3085 1062 2714 
Q 704 2304 704 1709 
Q 704 1107 1056 704 
Q 1382 339 1843 339 
z
" transform="scale(0.015625)"/>
      <path id="AppleGothic-75" d="M 262 3424 
L 730 3424 
L 730 1242 
Q 730 877 941 627 
Q 1171 339 1594 339 
Q 2080 339 2426 730 
Q 2784 1139 2784 1632 
L 2784 3424 
L 3245 3424 
L 3245 0 
L 2842 0 
L 2810 582 
Q 2707 442 2592 330 
Q 2477 218 2342 134 
Q 1984 -83 1555 -83 
Q 966 -83 614 282 
Q 262 653 262 1184 
L 262 3424 
z
" transform="scale(0.015625)"/>
      <path id="AppleGothic-6e" d="M 3264 2291 
L 3264 0 
L 2803 0 
L 2803 2259 
Q 2803 2618 2541 2848 
Q 2278 3085 1914 3085 
Q 1427 3085 1075 2682 
Q 723 2272 723 1760 
L 723 0 
L 288 0 
L 288 3424 
L 691 3424 
L 710 2784 
Q 883 3046 1114 3219 
Q 1491 3501 1965 3501 
Q 2515 3501 2886 3168 
Q 3264 2842 3264 2291 
z
" transform="scale(0.015625)"/>
      <path id="AppleGothic-74" d="M 691 4435 
L 1114 4435 
L 1114 3430 
L 2016 3430 
L 2016 3014 
L 1114 3014 
L 1114 838 
Q 1114 570 1213 454 
Q 1312 339 1555 339 
Q 1696 339 1795 371 
Q 1894 403 2016 454 
L 2016 38 
Q 1914 6 1770 -22 
Q 1626 -51 1478 -51 
Q 1094 -51 883 122 
Q 646 301 646 698 
L 646 3014 
L 70 3014 
L 70 3430 
L 646 3430 
L 691 4435 
z
" transform="scale(0.015625)"/>
     </defs>
     <use xlink:href="#AppleGothic-c131"/>
     <use xlink:href="#AppleGothic-bcc4" transform="translate(99.999985 0)"/>
     <use xlink:href="#AppleGothic-20" transform="translate(199.999969 0)"/>
     <use xlink:href="#AppleGothic-c0dd" transform="translate(231.999954 0)"/>
     <use xlink:href="#AppleGothic-c874" transform="translate(331.999939 0)"/>
     <use xlink:href="#AppleGothic-c790" transform="translate(431.999924 0)"/>
     <use xlink:href="#AppleGothic-20" transform="translate(531.999908 0)"/>
     <use xlink:href="#AppleGothic-bc0f" transform="translate(563.999893 0)"/>
     <use xlink:href="#AppleGothic-20" transform="translate(663.999878 0)"/>
     <use xlink:href="#AppleGothic-c0ac" transform="translate(695.999863 0)"/>
     <use xlink:href="#AppleGothic-b9dd" transform="translate(795.999847 0)"/>
     <use xlink:href="#AppleGothic-c790" transform="translate(895.999832 0)"/>
     <use xlink:href="#AppleGothic-20" transform="translate(995.999817 0)"/>
     <use xlink:href="#AppleGothic-c218" transform="translate(1027.999802 0)"/>
     <use xlink:href="#AppleGothic-20" transform="translate(1127.999786 0)"/>
     <use xlink:href="#AppleGothic-28" transform="translate(1159.999771 0)"/>
     <use xlink:href="#AppleGothic-43" transform="translate(1209.999756 0)"/>
     <use xlink:href="#AppleGothic-6f" transform="translate(1278.499741 0)"/>
     <use xlink:href="#AppleGothic-75" transform="translate(1336.799728 0)"/>
     <use xlink:href="#AppleGothic-6e" transform="translate(1392.299713 0)"/>
     <use xlink:href="#AppleGothic-74" transform="translate(1448.199707 0)"/>
     <use xlink:href="#AppleGothic-29" transform="translate(1482.399704 0)"/>
    </g>
   </g>
   <g id="legend_1">
    <g id="patch_13">
     <path d="M 420.720938 59.730625 
L 489.520938 59.730625 
Q 491.520938 59.730625 491.520938 57.730625 
L 491.520938 29.60875 
Q 491.520938 27.60875 489.520938 27.60875 
L 420.720938 27.60875 
Q 418.720938 27.60875 418.720938 29.60875 
L 418.720938 57.730625 
Q 418.720938 59.730625 420.720938 59.730625 
z
" style="fill: #ffffff; opacity: 0.8; stroke: #cccccc; stroke-linejoin: miter"/>
    </g>
    <g id="patch_14">
     <path d="M 422.720938 39.449375 
L 442.720938 39.449375 
L 442.720938 32.449375 
L 422.720938 32.449375 
z
" style="fill: #d25d51"/>
    </g>
    <g id="text_11">
     <!-- 사망(0) -->
     <g transform="translate(450.720938 39.449375) scale(0.1 -0.1)">
      <use xlink:href="#AppleGothic-c0ac"/>
      <use xlink:href="#AppleGothic-b9dd" transform="translate(99.999985 0)"/>
      <use xlink:href="#AppleGothic-28" transform="translate(199.999969 0)"/>
      <use xlink:href="#AppleGothic-30" transform="translate(249.999954 0)"/>
      <use xlink:href="#AppleGothic-29" transform="translate(317.999939 0)"/>
     </g>
    </g>
    <g id="patch_15">
     <path d="M 422.720938 54.010312 
L 442.720938 54.010312 
L 442.720938 47.010312 
L 422.720938 47.010312 
z
" style="fill: #42b874"/>
    </g>
    <g id="text_12">
     <!-- 생존(1) -->
     <g transform="translate(450.720938 54.010312) scale(0.1 -0.1)">
      <use xlink:href="#AppleGothic-c0dd"/>
      <use xlink:href="#AppleGothic-c874" transform="translate(99.999985 0)"/>
      <use xlink:href="#AppleGothic-28" transform="translate(199.999969 0)"/>
      <use xlink:href="#AppleGothic-31" transform="translate(249.999954 0)"/>
      <use xlink:href="#AppleGothic-29" transform="translate(317.999939 0)"/>
     </g>
    </g>
   </g>
  </g>
  <g id="axes_2">
   <g id="patch_16">
    <path d="M 545.095937 387.20875 
L 993.455938 387.20875 
L 993.455938 22.60875 
L 545.095937 22.60875 
z
" style="fill: #ffffff"/>
   </g>
   <g id="patch_17">
    <path d="M 560.041271 387.20875 
L 679.603938 387.20875 
L 679.603938 157.645787 
L 560.041271 157.645787 
z
" clip-path="url(#p8bbc29e825)" style="fill: #7da9c7"/>
   </g>
   <g id="patch_18">
    <path d="M 709.494604 387.20875 
L 829.057271 387.20875 
L 829.057271 214.816359 
L 709.494604 214.816359 
z
" clip-path="url(#p8bbc29e825)" style="fill: #4884af"/>
   </g>
   <g id="patch_19">
    <path d="M 858.947937 387.20875 
L 978.510604 387.20875 
L 978.510604 298.843373 
L 858.947937 298.843373 
z
" clip-path="url(#p8bbc29e825)" style="fill: #3d5b70"/>
   </g>
   <g id="matplotlib.axis_3">
    <g id="xtick_3">
     <g id="line2d_8">
      <g>
       <use xlink:href="#mb638f505e7" x="619.822604" y="387.20875" style="stroke: #000000; stroke-width: 0.8"/>
      </g>
     </g>
     <g id="text_13">
      <!-- 1 -->
      <g transform="translate(616.422604 402.049375) scale(0.1 -0.1)">
       <use xlink:href="#AppleGothic-31"/>
      </g>
     </g>
    </g>
    <g id="xtick_4">
     <g id="line2d_9">
      <g>
       <use xlink:href="#mb638f505e7" x="769.275938" y="387.20875" style="stroke: #000000; stroke-width: 0.8"/>
      </g>
     </g>
     <g id="text_14">
      <!-- 2 -->
      <g transform="translate(765.875938 402.049375) scale(0.1 -0.1)">
       <use xlink:href="#AppleGothic-32"/>
      </g>
     </g>
    </g>
    <g id="xtick_5">
     <g id="line2d_10">
      <g>
       <use xlink:href="#mb638f505e7" x="918.729271" y="387.20875" style="stroke: #000000; stroke-width: 0.8"/>
      </g>
     </g>
     <g id="text_15">
      <!-- 3 -->
      <g transform="translate(915.329271 402.049375) scale(0.1 -0.1)">
       <use xlink:href="#AppleGothic-33"/>
      </g>
     </g>
    </g>
    <g id="text_16">
     <!-- 객실 등급 (1=VIP) -->
     <g transform="translate(726.191563 415.610312) scale(0.1 -0.1)">
      <defs>
       <path id="AppleGothic-ac1d" d="M 5594 -499 
L 5152 -531 
L 5171 1197 
L 3290 1197 
L 1414 1165 
L 1414 1536 
L 3258 1523 
Q 3546 1523 3840 1523 
Q 4134 1523 4448 1530 
Q 4768 1536 5049 1539 
Q 5331 1542 5594 1549 
Q 5587 1434 5587 1296 
Q 5587 1158 5581 992 
L 5581 454 
L 5594 -499 
z
M 3277 4589 
Q 3264 4506 3257 4432 
Q 3251 4358 3245 4282 
Q 3213 4083 3152 3897 
Q 3091 3712 3014 3539 
Q 2778 3027 2394 2643 
Q 2042 2291 1632 2054 
Q 1491 1978 1340 1907 
Q 1190 1837 1030 1786 
Q 838 1722 787 1722 
L 640 1862 
Q 621 1882 589 1904 
Q 557 1926 525 1948 
Q 493 1971 470 1990 
Q 448 2010 448 2016 
L 474 2042 
Q 563 2054 630 2070 
Q 698 2086 755 2099 
Q 1453 2304 2003 2816 
Q 2374 3168 2579 3578 
Q 2643 3706 2694 3862 
Q 2746 4019 2784 4224 
L 1741 4237 
L 678 4237 
L 678 4614 
Q 819 4602 1190 4595 
Q 1382 4589 1564 4589 
Q 1747 4589 1933 4589 
L 3277 4589 
z
M 5651 5082 
Q 5651 5069 5625 4989 
Q 5600 4909 5600 4838 
Q 5594 4710 5594 4528 
Q 5594 4346 5587 4109 
Q 5581 3866 5581 3690 
Q 5581 3514 5581 3386 
L 5581 2246 
Q 5587 1990 5600 1798 
L 5152 1773 
L 5171 2950 
L 4333 2944 
L 4333 1837 
L 3917 1818 
L 3955 3443 
L 3955 4269 
Q 3955 4538 3955 4739 
Q 3955 4941 3942 5069 
L 4013 5069 
Q 4179 5069 4297 5049 
Q 4416 5030 4416 4966 
Q 4416 4941 4387 4867 
Q 4358 4794 4358 4736 
L 4333 3296 
L 5178 3302 
L 5184 4749 
L 5171 5190 
Q 5331 5190 5485 5171 
Q 5651 5152 5651 5082 
z
" transform="scale(0.015625)"/>
       <path id="AppleGothic-c2e4" d="M 5510 -403 
L 3482 -384 
Q 3238 -384 2982 -384 
Q 2726 -384 2438 -390 
Q 2150 -397 1897 -400 
Q 1645 -403 1402 -403 
L 1402 934 
Q 1510 934 1763 931 
Q 2016 928 2406 922 
Q 2803 915 3043 915 
Q 3283 915 3373 915 
Q 3866 915 4240 918 
Q 4614 922 4902 934 
L 4902 1427 
L 3437 1446 
Q 2918 1446 2377 1440 
Q 1837 1434 1389 1421 
L 1389 1818 
Q 1594 1811 1840 1811 
Q 2086 1811 2374 1805 
L 3366 1805 
L 5376 1818 
L 5363 1190 
L 5376 570 
L 3430 582 
Q 2906 582 2547 569 
Q 2189 557 1888 538 
L 1888 -6 
L 3405 -19 
Q 4429 -19 4845 0 
Q 5261 6 5510 38 
L 5510 -403 
z
M 4211 2598 
Q 4211 2573 4166 2547 
Q 4083 2496 4077 2490 
Q 4045 2464 4009 2432 
Q 3974 2400 3936 2362 
L 3859 2278 
Q 3712 2362 3610 2432 
Q 3462 2528 3321 2649 
Q 3181 2771 3034 2906 
Q 2867 3059 2739 3209 
Q 2611 3360 2515 3501 
Q 2483 3552 2444 3609 
Q 2406 3667 2362 3738 
Q 2330 3667 2298 3606 
Q 2266 3546 2234 3494 
Q 2131 3347 2006 3190 
Q 1882 3034 1722 2880 
Q 1594 2752 1440 2630 
Q 1286 2509 1101 2387 
Q 973 2298 781 2189 
Q 704 2246 666 2266 
Q 499 2381 454 2406 
Q 410 2432 384 2458 
L 371 2470 
Q 397 2483 397 2483 
Q 403 2490 416 2502 
Q 429 2515 454 2528 
Q 582 2586 684 2640 
Q 787 2694 864 2746 
Q 1318 3040 1644 3440 
Q 1971 3840 2118 4442 
Q 2170 4646 2195 4947 
Q 2285 4934 2381 4924 
Q 2477 4915 2566 4902 
Q 2720 4870 2720 4813 
Q 2720 4781 2694 4736 
Q 2669 4691 2637 4640 
Q 2637 4621 2627 4582 
Q 2618 4544 2605 4480 
Q 2579 4378 2579 4333 
L 2675 4070 
Q 2771 3846 2940 3628 
Q 3110 3411 3347 3206 
Q 3526 3059 3699 2931 
Q 3872 2803 4045 2707 
Q 4077 2694 4112 2675 
Q 4147 2656 4186 2630 
L 4211 2598 
z
M 5466 5069 
Q 5466 5056 5434 4941 
Q 5402 4832 5402 4813 
L 5376 3258 
L 5376 2547 
Q 5382 2432 5385 2320 
Q 5389 2208 5395 2099 
L 4928 2080 
Q 4934 2182 4934 2259 
Q 4934 2336 4934 2400 
Q 4954 3264 4954 3507 
Q 4954 3917 4954 4189 
Q 4954 4461 4947 4602 
Q 4941 4736 4937 4883 
Q 4934 5030 4922 5190 
Q 5146 5190 5306 5158 
Q 5466 5126 5466 5069 
z
" transform="scale(0.015625)"/>
       <path id="AppleGothic-b4f1" d="M 4781 582 
Q 4781 915 4256 1075 
Q 3834 1203 3200 1203 
Q 1651 1203 1651 570 
Q 1651 211 2150 58 
Q 2566 -83 3258 -83 
Q 4006 -83 4393 96 
Q 4781 275 4781 582 
z
M 5242 589 
Q 5242 51 4742 -195 
Q 4243 -442 3296 -442 
L 3162 -442 
Q 2349 -442 1818 -224 
Q 1178 32 1178 563 
Q 1178 1101 1818 1350 
Q 2355 1555 3200 1555 
Q 4122 1555 4678 1306 
Q 5242 1056 5242 589 
z
M 6029 1997 
Q 5914 2003 5712 2003 
Q 5510 2003 5222 2010 
Q 4659 2022 4188 2032 
Q 3718 2042 3219 2042 
Q 2822 2042 2515 2042 
Q 2208 2042 1984 2035 
Q 1760 2029 1529 2025 
Q 1299 2022 1069 2016 
Q 838 2010 662 2010 
Q 486 2010 371 2003 
L 371 2451 
Q 448 2445 550 2441 
Q 653 2438 768 2432 
Q 896 2426 1155 2422 
Q 1414 2419 1818 2406 
Q 2221 2400 2576 2397 
Q 2931 2394 3245 2394 
Q 4013 2394 4710 2410 
Q 5408 2426 6029 2451 
L 6029 1997 
z
M 5184 3027 
Q 4774 3040 4262 3046 
Q 3750 3053 3226 3053 
L 1242 3066 
L 1261 3923 
L 1248 4934 
L 5120 4954 
L 5120 4544 
L 4762 4544 
Q 3437 4563 3245 4563 
Q 2957 4563 2739 4563 
Q 2522 4563 2355 4557 
Q 2189 4557 2032 4553 
Q 1875 4550 1715 4544 
L 1696 3923 
Q 1696 3699 1699 3603 
Q 1702 3507 1715 3418 
Q 1786 3418 1939 3414 
Q 2093 3411 2336 3405 
Q 2579 3398 2726 3398 
Q 2874 3398 2925 3398 
L 5184 3424 
L 5184 3027 
z
" transform="scale(0.015625)"/>
       <path id="AppleGothic-ae09" d="M 4621 26 
L 4621 826 
L 3232 832 
Q 2675 832 2316 825 
Q 1958 819 1715 806 
L 1715 13 
Q 1856 6 2054 6 
Q 2253 6 2515 0 
Q 2771 -6 2947 -6 
Q 3123 -6 3226 -6 
Q 3571 -6 3808 -6 
Q 4045 -6 4173 0 
Q 4307 6 4419 9 
Q 4531 13 4621 26 
z
M 5062 1766 
Q 5062 1754 5043 1680 
Q 5024 1606 5024 1530 
Q 5018 1370 5018 1178 
Q 5018 986 5011 762 
L 5011 -13 
L 5005 -442 
L 4595 -442 
L 4627 -301 
L 3251 -301 
Q 2790 -301 2435 -307 
Q 2080 -314 1734 -333 
L 1709 -454 
L 1306 -474 
Q 1306 -390 1309 -272 
Q 1312 -154 1315 -26 
Q 1318 102 1318 236 
Q 1318 371 1318 493 
Q 1318 762 1318 963 
Q 1318 1165 1312 1293 
Q 1312 1555 1293 1760 
L 1664 1747 
Q 1747 1747 1747 1715 
Q 1747 1709 1731 1638 
Q 1715 1568 1715 1498 
L 1715 1126 
L 3232 1120 
Q 3494 1120 3696 1120 
Q 3898 1120 4051 1126 
Q 4205 1133 4345 1136 
Q 4486 1139 4621 1152 
L 4621 1562 
Q 4621 1741 4595 1837 
L 4947 1818 
Q 5062 1818 5062 1766 
z
M 6010 2394 
L 5542 2394 
Q 3814 2413 3514 2413 
L 2528 2413 
L 390 2387 
L 390 2771 
Q 499 2765 588 2765 
Q 678 2765 749 2765 
Q 1267 2752 1644 2745 
Q 2022 2739 2266 2739 
L 4480 2746 
L 4678 3654 
Q 4710 3834 4739 4003 
Q 4768 4173 4781 4326 
Q 4787 4378 4790 4438 
Q 4794 4499 4800 4570 
L 3091 4563 
Q 2547 4563 1996 4550 
Q 1446 4538 998 4525 
L 998 4902 
L 2701 4890 
L 5286 4922 
Q 5274 4794 5261 4688 
Q 5248 4582 5235 4499 
Q 5203 4256 5168 4048 
Q 5133 3840 5088 3654 
L 4896 2765 
L 6010 2784 
L 6010 2394 
z
" transform="scale(0.015625)"/>
       <path id="AppleGothic-3d" d="M 467 3437 
L 4358 3437 
L 4358 3027 
L 467 3027 
L 467 3437 
z
M 467 1734 
L 4358 1734 
L 4358 1344 
L 467 1344 
L 467 1734 
z
" transform="scale(0.015625)"/>
       <path id="AppleGothic-56" d="M 109 5018 
L 678 5018 
L 2310 608 
L 3910 5018 
L 4493 5018 
L 2573 0 
L 2074 0 
L 109 5018 
z
" transform="scale(0.015625)"/>
       <path id="AppleGothic-49" d="M 435 5018 
L 934 5018 
L 934 0 
L 435 0 
L 435 5018 
z
" transform="scale(0.015625)"/>
       <path id="AppleGothic-50" d="M 262 5018 
L 1869 5018 
Q 2560 5018 3002 4781 
Q 3597 4448 3597 3718 
Q 3597 3014 3104 2630 
Q 2656 2272 1952 2272 
L 768 2272 
L 768 0 
L 262 0 
L 262 5018 
z
M 1862 4576 
L 768 4576 
L 768 2714 
L 1901 2714 
Q 2349 2714 2675 2950 
Q 3040 3219 3040 3674 
Q 3040 4186 2611 4410 
Q 2298 4576 1862 4576 
z
" transform="scale(0.015625)"/>
      </defs>
      <use xlink:href="#AppleGothic-ac1d"/>
      <use xlink:href="#AppleGothic-c2e4" transform="translate(99.999985 0)"/>
      <use xlink:href="#AppleGothic-20" transform="translate(199.999969 0)"/>
      <use xlink:href="#AppleGothic-b4f1" transform="translate(231.999954 0)"/>
      <use xlink:href="#AppleGothic-ae09" transform="translate(331.999939 0)"/>
      <use xlink:href="#AppleGothic-20" transform="translate(431.999924 0)"/>
      <use xlink:href="#AppleGothic-28" transform="translate(463.999908 0)"/>
      <use xlink:href="#AppleGothic-31" transform="translate(513.999893 0)"/>
      <use xlink:href="#AppleGothic-3d" transform="translate(581.999878 0)"/>
      <use xlink:href="#AppleGothic-56" transform="translate(658.799866 0)"/>
      <use xlink:href="#AppleGothic-49" transform="translate(729.899857 0)"/>
      <use xlink:href="#AppleGothic-50" transform="translate(751.399841 0)"/>
      <use xlink:href="#AppleGothic-29" transform="translate(811.699829 0)"/>
     </g>
    </g>
   </g>
   <g id="matplotlib.axis_4">
    <g id="ytick_6">
     <g id="line2d_11">
      <g>
       <use xlink:href="#m537afc7c4a" x="545.095937" y="387.20875" style="stroke: #000000; stroke-width: 0.8"/>
      </g>
     </g>
     <g id="text_17">
      <!-- 0.0 -->
      <g transform="translate(521.045938 391.129062) scale(0.1 -0.1)">
       <defs>
        <path id="AppleGothic-2e" d="M 915 -19 
Q 762 -19 653 109 
Q 544 237 544 422 
Q 544 614 656 745 
Q 768 877 915 877 
Q 1056 877 1168 758 
Q 1280 640 1280 435 
Q 1280 243 1171 112 
Q 1062 -19 915 -19 
z
" transform="scale(0.015625)"/>
       </defs>
       <use xlink:href="#AppleGothic-30"/>
       <use xlink:href="#AppleGothic-2e" transform="translate(67.999985 0)"/>
       <use xlink:href="#AppleGothic-30" transform="translate(102.499969 0)"/>
      </g>
     </g>
    </g>
    <g id="ytick_7">
     <g id="line2d_12">
      <g>
       <use xlink:href="#m537afc7c4a" x="545.095937" y="314.28875" style="stroke: #000000; stroke-width: 0.8"/>
      </g>
     </g>
     <g id="text_18">
      <!-- 0.2 -->
      <g transform="translate(521.045938 318.209062) scale(0.1 -0.1)">
       <use xlink:href="#AppleGothic-30"/>
       <use xlink:href="#AppleGothic-2e" transform="translate(67.999985 0)"/>
       <use xlink:href="#AppleGothic-32" transform="translate(102.499969 0)"/>
      </g>
     </g>
    </g>
    <g id="ytick_8">
     <g id="line2d_13">
      <g>
       <use xlink:href="#m537afc7c4a" x="545.095937" y="241.36875" style="stroke: #000000; stroke-width: 0.8"/>
      </g>
     </g>
     <g id="text_19">
      <!-- 0.4 -->
      <g transform="translate(521.045938 245.289062) scale(0.1 -0.1)">
       <use xlink:href="#AppleGothic-30"/>
       <use xlink:href="#AppleGothic-2e" transform="translate(67.999985 0)"/>
       <use xlink:href="#AppleGothic-34" transform="translate(102.499969 0)"/>
      </g>
     </g>
    </g>
    <g id="ytick_9">
     <g id="line2d_14">
      <g>
       <use xlink:href="#m537afc7c4a" x="545.095937" y="168.44875" style="stroke: #000000; stroke-width: 0.8"/>
      </g>
     </g>
     <g id="text_20">
      <!-- 0.6 -->
      <g transform="translate(521.045938 172.369062) scale(0.1 -0.1)">
       <defs>
        <path id="AppleGothic-36" d="M 3699 4557 
L 3699 4013 
Q 3584 4102 3475 4163 
Q 3366 4224 3258 4275 
Q 3085 4358 2918 4393 
Q 2752 4429 2586 4429 
Q 2470 4429 2352 4409 
Q 2234 4390 2118 4339 
Q 1670 4154 1395 3738 
Q 1011 3149 1011 2189 
Q 1312 2490 1568 2656 
Q 2022 2931 2534 2931 
Q 3162 2931 3584 2566 
Q 4038 2163 4038 1491 
Q 4038 806 3558 358 
Q 3078 -83 2394 -83 
Q 1670 -83 1146 454 
Q 518 1088 518 2253 
Q 518 3411 1120 4134 
Q 1715 4858 2605 4858 
Q 2938 4858 3226 4762 
Q 3309 4730 3427 4682 
Q 3546 4634 3699 4557 
z
M 1062 1702 
Q 1152 1152 1498 768 
Q 1882 346 2419 346 
Q 2899 346 3213 659 
Q 3539 973 3539 1459 
Q 3539 1920 3226 2214 
Q 2918 2502 2496 2502 
Q 1990 2502 1542 2176 
Q 1414 2080 1292 1965 
Q 1171 1850 1062 1702 
z
" transform="scale(0.015625)"/>
       </defs>
       <use xlink:href="#AppleGothic-30"/>
       <use xlink:href="#AppleGothic-2e" transform="translate(67.999985 0)"/>
       <use xlink:href="#AppleGothic-36" transform="translate(102.499969 0)"/>
      </g>
     </g>
    </g>
    <g id="ytick_10">
     <g id="line2d_15">
      <g>
       <use xlink:href="#m537afc7c4a" x="545.095937" y="95.52875" style="stroke: #000000; stroke-width: 0.8"/>
      </g>
     </g>
     <g id="text_21">
      <!-- 0.8 -->
      <g transform="translate(521.045938 99.449062) scale(0.1 -0.1)">
       <defs>
        <path id="AppleGothic-38" d="M 2957 2605 
Q 3219 2528 3404 2445 
Q 3590 2362 3706 2272 
Q 4192 1926 4192 1370 
Q 4192 749 3642 333 
Q 3098 -83 2285 -83 
Q 1434 -83 947 326 
Q 512 691 512 1229 
Q 512 1798 998 2125 
Q 1146 2227 1341 2304 
Q 1536 2381 1779 2451 
Q 1574 2534 1430 2617 
Q 1286 2701 1197 2784 
Q 819 3104 819 3603 
Q 819 4173 1261 4512 
Q 1702 4858 2381 4858 
Q 3014 4858 3437 4570 
Q 3898 4262 3898 3738 
Q 3898 3373 3670 3081 
Q 3443 2790 2957 2605 
z
M 2406 2752 
Q 2624 2835 2781 2915 
Q 2938 2995 3040 3066 
Q 3398 3322 3398 3667 
Q 3398 3994 3104 4205 
Q 2822 4429 2362 4429 
Q 1894 4429 1613 4205 
Q 1325 3994 1325 3635 
Q 1325 3322 1581 3098 
Q 1696 3002 1901 2912 
Q 2106 2822 2406 2752 
z
M 2368 2304 
Q 2061 2202 1840 2106 
Q 1619 2010 1472 1920 
Q 1011 1626 1011 1235 
Q 1011 845 1376 595 
Q 1728 346 2310 346 
Q 2938 346 3315 640 
Q 3693 934 3693 1338 
Q 3693 1741 3238 1997 
Q 3104 2067 2886 2147 
Q 2669 2227 2368 2304 
z
" transform="scale(0.015625)"/>
       </defs>
       <use xlink:href="#AppleGothic-30"/>
       <use xlink:href="#AppleGothic-2e" transform="translate(67.999985 0)"/>
       <use xlink:href="#AppleGothic-38" transform="translate(102.499969 0)"/>
      </g>
     </g>
    </g>
    <g id="ytick_11">
     <g id="line2d_16">
      <g>
       <use xlink:href="#m537afc7c4a" x="545.095937" y="22.60875" style="stroke: #000000; stroke-width: 0.8"/>
      </g>
     </g>
     <g id="text_22">
      <!-- 1.0 -->
      <g transform="translate(521.045938 26.529063) scale(0.1 -0.1)">
       <use xlink:href="#AppleGothic-31"/>
       <use xlink:href="#AppleGothic-2e" transform="translate(67.999985 0)"/>
       <use xlink:href="#AppleGothic-30" transform="translate(102.499969 0)"/>
      </g>
     </g>
    </g>
    <g id="text_23">
     <!-- 생존율 (%) -->
     <g transform="translate(515.325625 231.50875) rotate(-90) scale(0.1 -0.1)">
      <defs>
       <path id="AppleGothic-c728" d="M 3859 2003 
Q 3859 2099 3852 2198 
Q 3846 2298 3834 2381 
L 3174 2368 
L 2515 2381 
L 2496 2003 
L 2509 1606 
L 3840 1606 
L 3859 2003 
z
M 4826 4128 
Q 4826 4480 4339 4602 
Q 4006 4685 3213 4685 
L 3066 4685 
Q 2752 4685 2502 4659 
Q 2253 4634 2061 4570 
Q 1587 4416 1587 4128 
Q 1587 3827 2131 3674 
Q 2355 3616 2627 3584 
Q 2899 3552 3213 3552 
Q 4826 3552 4826 4128 
z
M 6016 2362 
L 4288 2387 
L 4288 1613 
L 5037 1626 
L 5043 429 
L 1786 429 
L 1786 -128 
Q 1888 -134 2032 -134 
Q 2176 -134 2374 -134 
Q 2579 -141 2739 -141 
Q 2899 -141 3027 -141 
L 3315 -141 
Q 3750 -141 4144 -134 
Q 4538 -128 4902 -115 
Q 5030 -115 5203 -96 
L 5203 -461 
Q 4845 -448 4384 -441 
Q 3923 -435 3322 -435 
L 3040 -435 
L 2035 -435 
Q 1690 -448 1363 -454 
L 1357 749 
L 3136 736 
Q 3590 736 3932 742 
Q 4275 749 4602 768 
L 4602 1312 
L 3290 1325 
L 1325 1312 
L 1325 1626 
L 2067 1606 
L 2080 1997 
L 2067 2381 
L 384 2349 
L 384 2739 
Q 506 2733 608 2733 
Q 710 2733 800 2733 
Q 1408 2720 1894 2713 
Q 2381 2707 2752 2707 
L 3066 2707 
Q 3962 2707 4733 2723 
Q 5504 2739 6016 2752 
L 6016 2362 
z
M 5286 4134 
Q 5286 3629 4640 3386 
Q 4109 3194 3245 3194 
L 3091 3194 
Q 2675 3194 2342 3245 
Q 2010 3296 1747 3392 
Q 1126 3642 1126 4115 
Q 1126 4602 1779 4845 
Q 2317 5037 3219 5037 
Q 4090 5037 4608 4870 
Q 5286 4640 5286 4134 
z
" transform="scale(0.015625)"/>
       <path id="AppleGothic-25" d="M 4896 -45 
Q 4320 -45 3949 339 
Q 3590 717 3590 1274 
Q 3590 1856 3962 2227 
Q 4333 2598 4877 2598 
Q 5402 2598 5779 2234 
Q 6150 1869 6150 1286 
Q 6150 691 5760 307 
Q 5389 -45 4896 -45 
z
M 4864 378 
Q 5024 378 5168 442 
Q 5312 506 5421 624 
Q 5530 742 5594 905 
Q 5658 1069 5658 1267 
Q 5658 1658 5427 1920 
Q 5190 2176 4883 2176 
Q 4582 2176 4352 1958 
Q 4090 1696 4090 1286 
Q 4090 883 4320 634 
Q 4550 378 4864 378 
z
M 4557 5370 
L 5030 5370 
L 2016 -333 
L 1549 -333 
L 4045 4378 
L 4026 4397 
Q 3930 4333 3776 4278 
Q 3622 4224 3456 4224 
Q 3347 4224 3177 4259 
Q 3008 4294 2835 4371 
Q 2867 4301 2886 4240 
Q 2906 4179 2918 4128 
Q 2970 3936 2970 3750 
Q 2970 3187 2598 2810 
Q 2227 2438 1690 2438 
Q 1146 2438 781 2810 
Q 422 3187 422 3763 
Q 422 4339 787 4717 
Q 1158 5101 1690 5101 
Q 1952 5101 2522 4870 
Q 2803 4755 3024 4700 
Q 3245 4646 3411 4646 
Q 3802 4646 4077 4819 
Q 4403 5018 4557 5370 
z
M 1683 2854 
Q 2003 2854 2240 3110 
Q 2470 3366 2470 3770 
Q 2470 3974 2406 4144 
Q 2342 4314 2236 4432 
Q 2131 4550 1990 4614 
Q 1850 4678 1690 4678 
Q 1530 4678 1392 4614 
Q 1254 4550 1148 4432 
Q 1043 4314 982 4144 
Q 922 3974 922 3770 
Q 922 3334 1171 3078 
Q 1382 2854 1683 2854 
z
" transform="scale(0.015625)"/>
      </defs>
      <use xlink:href="#AppleGothic-c0dd"/>
      <use xlink:href="#AppleGothic-c874" transform="translate(99.999985 0)"/>
      <use xlink:href="#AppleGothic-c728" transform="translate(199.999969 0)"/>
      <use xlink:href="#AppleGothic-20" transform="translate(299.999954 0)"/>
      <use xlink:href="#AppleGothic-28" transform="translate(331.999939 0)"/>
      <use xlink:href="#AppleGothic-25" transform="translate(381.999924 0)"/>
      <use xlink:href="#AppleGothic-29" transform="translate(481.999908 0)"/>
     </g>
    </g>
   </g>
   <g id="line2d_17">
    <path d="M 619.822604 181.277269 
L 619.822604 134.014306 
" clip-path="url(#p8bbc29e825)" style="fill: none; stroke: #424242; stroke-width: 2.25; stroke-linecap: square"/>
   </g>
   <g id="line2d_18">
    <path d="M 769.275938 238.59462 
L 769.275938 187.075054 
" clip-path="url(#p8bbc29e825)" style="fill: none; stroke: #424242; stroke-width: 2.25; stroke-linecap: square"/>
   </g>
   <g id="line2d_19">
    <path d="M 918.729271 312.209565 
L 918.729271 285.477182 
" clip-path="url(#p8bbc29e825)" style="fill: none; stroke: #424242; stroke-width: 2.25; stroke-linecap: square"/>
   </g>
   <g id="patch_20">
    <path d="M 545.095937 387.20875 
L 545.095937 22.60875 
" style="fill: none; stroke: #000000; stroke-width: 0.8; stroke-linejoin: miter; stroke-linecap: square"/>
   </g>
   <g id="patch_21">
    <path d="M 993.455938 387.20875 
L 993.455938 22.60875 
" style="fill: none; stroke: #000000; stroke-width: 0.8; stroke-linejoin: miter; stroke-linecap: square"/>
   </g>
   <g id="patch_22">
    <path d="M 545.095937 387.20875 
L 993.455938 387.20875 
" style="fill: none; stroke: #000000; stroke-width: 0.8; stroke-linejoin: miter; stroke-linecap: square"/>
   </g>
   <g id="patch_23">
    <path d="M 545.095937 22.60875 
L 993.455938 22.60875 
" style="fill: none; stroke: #000000; stroke-width: 0.8; stroke-linejoin: miter; stroke-linecap: square"/>
   </g>
   <g id="text_24">
    <!-- 객실 등급별 생존율 (Survival Rate) -->
    <g transform="translate(673.934063 16.60875) scale(0.12 -0.12)">
     <defs>
      <path id="AppleGothic-53" d="M 3418 4666 
L 3418 4019 
Q 3251 4160 3081 4269 
Q 2912 4378 2746 4448 
Q 2362 4627 1965 4627 
Q 1466 4627 1139 4378 
Q 806 4122 806 3770 
Q 806 3258 1562 3002 
Q 1914 2880 2262 2768 
Q 2611 2656 2970 2541 
Q 3731 2176 3731 1453 
Q 3731 749 3187 320 
Q 2669 -83 1901 -83 
Q 1389 -83 915 115 
Q 640 224 262 474 
L 262 1126 
Q 755 685 1261 506 
Q 1427 442 1587 416 
Q 1747 390 1907 390 
Q 2419 390 2771 646 
Q 3162 928 3162 1382 
Q 3162 1933 2419 2221 
Q 2061 2330 1715 2445 
Q 1370 2560 1024 2669 
Q 275 3014 275 3731 
Q 275 4333 749 4710 
Q 1235 5101 1965 5101 
Q 2413 5101 2861 4934 
Q 3091 4858 3418 4666 
z
" transform="scale(0.015625)"/>
      <path id="AppleGothic-72" d="M 2125 3424 
L 2125 2963 
Q 2054 2989 2009 3005 
Q 1965 3021 1933 3027 
Q 1901 3034 1865 3037 
Q 1830 3040 1773 3040 
Q 1306 3040 1005 2586 
Q 749 2170 749 1658 
L 749 0 
L 288 0 
L 288 3424 
L 710 3424 
L 742 2835 
Q 902 3104 1043 3219 
Q 1331 3456 1734 3456 
Q 1843 3456 1936 3449 
Q 2029 3443 2125 3424 
z
" transform="scale(0.015625)"/>
      <path id="AppleGothic-76" d="M 109 3424 
L 627 3424 
L 1715 486 
L 2829 3424 
L 3290 3424 
L 1920 0 
L 1478 0 
L 109 3424 
z
" transform="scale(0.015625)"/>
      <path id="AppleGothic-69" d="M 256 3424 
L 717 3424 
L 717 0 
L 256 0 
L 256 3424 
z
M 480 4870 
Q 614 4870 704 4780 
Q 794 4691 794 4525 
Q 794 4358 710 4268 
Q 627 4179 480 4179 
Q 333 4179 253 4281 
Q 173 4384 173 4518 
Q 173 4730 269 4800 
Q 365 4870 480 4870 
z
" transform="scale(0.015625)"/>
      <path id="AppleGothic-52" d="M 314 5018 
L 1971 5018 
Q 2637 5018 3072 4800 
Q 3680 4493 3680 3776 
Q 3680 3283 3405 2969 
Q 3130 2656 2522 2470 
Q 2630 2426 2713 2384 
Q 2797 2342 2848 2291 
Q 3072 2099 3200 1728 
L 3840 0 
L 3270 0 
L 2938 1050 
Q 2675 1837 2387 2080 
Q 2138 2310 1562 2310 
L 819 2310 
L 819 0 
L 314 0 
L 314 5018 
z
M 2067 4576 
L 819 4576 
L 819 2707 
L 1587 2707 
Q 2048 2707 2365 2793 
Q 2682 2880 2880 3072 
Q 3014 3194 3100 3373 
Q 3187 3552 3187 3738 
Q 3187 4090 2899 4320 
Q 2586 4576 2067 4576 
z
" transform="scale(0.015625)"/>
     </defs>
     <use xlink:href="#AppleGothic-ac1d"/>
     <use xlink:href="#AppleGothic-c2e4" transform="translate(99.999985 0)"/>
     <use xlink:href="#AppleGothic-20" transform="translate(199.999969 0)"/>
     <use xlink:href="#AppleGothic-b4f1" transform="translate(231.999954 0)"/>
     <use xlink:href="#AppleGothic-ae09" transform="translate(331.999939 0)"/>
     <use xlink:href="#AppleGothic-bcc4" transform="translate(431.999924 0)"/>
     <use xlink:href="#AppleGothic-20" transform="translate(531.999908 0)"/>
     <use xlink:href="#AppleGothic-c0dd" transform="translate(563.999893 0)"/>
     <use xlink:href="#AppleGothic-c874" transform="translate(663.999878 0)"/>
     <use xlink:href="#AppleGothic-c728" transform="translate(763.999863 0)"/>
     <use xlink:href="#AppleGothic-20" transform="translate(863.999847 0)"/>
     <use xlink:href="#AppleGothic-28" transform="translate(895.999832 0)"/>
     <use xlink:href="#AppleGothic-53" transform="translate(945.999817 0)"/>
     <use xlink:href="#AppleGothic-75" transform="translate(1009.199814 0)"/>
     <use xlink:href="#AppleGothic-72" transform="translate(1064.699799 0)"/>
     <use xlink:href="#AppleGothic-76" transform="translate(1099.899796 0)"/>
     <use xlink:href="#AppleGothic-69" transform="translate(1154.099792 0)"/>
     <use xlink:href="#AppleGothic-76" transform="translate(1169.999786 0)"/>
     <use xlink:href="#AppleGothic-61" transform="translate(1224.199783 0)"/>
     <use xlink:href="#AppleGothic-6c" transform="translate(1280.699768 0)"/>
     <use xlink:href="#AppleGothic-20" transform="translate(1297.399765 0)"/>
     <use xlink:href="#AppleGothic-52" transform="translate(1329.39975 0)"/>
     <use xlink:href="#AppleGothic-61" transform="translate(1393.399734 0)"/>
     <use xlink:href="#AppleGothic-74" transform="translate(1449.899719 0)"/>
     <use xlink:href="#AppleGothic-65" transform="translate(1484.099716 0)"/>
     <use xlink:href="#AppleGothic-29" transform="translate(1538.99971 0)"/>
    </g>
   </g>
  </g>
 </g>
 <defs>
  <clipPath id="p0a002d573c">
   <rect x="48.160938" y="22.60875" width="448.36" height="364.6"/>
  </clipPath>
  <clipPath id="p8bbc29e825">
   <rect x="545.095937" y="22.60875" width="448.36" height="364.6"/>
  </clipPath>
 </defs>
</svg>
