<?xml version="1.0" encoding="utf-8" standalone="no"?>
<!DOCTYPE svg PUBLIC "-//W3C//DTD SVG 1.1//EN"
  "http://www.w3.org/Graphics/SVG/1.1/DTD/svg11.dtd">
<svg xmlns:xlink="http://www.w3.org/1999/xlink" width="611.760938pt" height="393.155937pt" viewBox="0 0 611.760938 393.155937" xmlns="http://www.w3.org/2000/svg" version="1.1">
 <metadata>
  <rdf:RDF xmlns:dc="http://purl.org/dc/elements/1.1/" xmlns:cc="http://creativecommons.org/ns#" xmlns:rdf="http://www.w3.org/1999/02/22-rdf-syntax-ns#">
   <cc:Work>
    <dc:type rdf:resource="http://purl.org/dc/dcmitype/StillImage"/>
    <dc:date>2026-05-22T02:33:53.160504</dc:date>
    <dc:format>image/svg+xml</dc:format>
    <dc:creator>
     <cc:Agent>
      <dc:title>Matplotlib v3.10.9, https://matplotlib.org/</dc:title>
     </cc:Agent>
    </dc:creator>
   </cc:Work>
  </rdf:RDF>
 </metadata>
 <defs>
  <style type="text/css">*{stroke-linejoin: round; stroke-linecap: butt}</style>
 </defs>
 <g id="figure_1">
  <g id="patch_1">
   <path d="M 0 393.155937 
L 611.760938 393.155937 
L 611.760938 0 
L 0 0 
z
" style="fill: #ffffff"/>
  </g>
  <g id="axes_1">
   <g id="patch_2">
    <path d="M 46.560938 355.704375 
L 604.560938 355.704375 
L 604.560938 23.064375 
L 46.560938 23.064375 
z
" style="fill: #ffffff"/>
   </g>
   <g id="matplotlib.axis_1">
    <g id="xtick_1">
     <g id="line2d_1">
      <defs>
       <path id="mf25fc8d767" d="M 0 0 
L 0 3.5 
" style="stroke: #000000; stroke-width: 0.8"/>
      </defs>
      <g>
       <use xlink:href="#mf25fc8d767" x="186.060937" y="355.704375" style="stroke: #000000; stroke-width: 0.8"/>
      </g>
     </g>
     <g id="text_1">
      <!-- 사망자 그룹 -->
      <g transform="translate(159.460938 370.545) scale(0.1 -0.1)">
       <defs>
        <path id="AppleGothic-c0ac" d="M 6093 2061 
L 5139 2061 
L 5133 1024 
Q 5133 640 5139 240 
Q 5146 -160 5158 -493 
L 4685 -538 
Q 4685 -397 4685 -73 
Q 4685 250 4691 755 
Q 4698 1274 4701 1651 
Q 4704 2029 4704 2285 
Q 4704 2874 4697 3478 
Q 4691 4083 4685 4704 
Q 4685 4877 4675 4992 
Q 4666 5107 4653 5190 
Q 4877 5190 5037 5158 
Q 5197 5126 5197 5069 
Q 5152 4954 5152 4870 
L 5133 3955 
L 5139 2477 
L 6093 2477 
L 6093 2061 
z
M 3923 1331 
Q 3917 1312 3898 1293 
Q 3878 1267 3852 1244 
Q 3827 1222 3782 1197 
L 3584 1018 
Q 3533 1050 3491 1078 
Q 3450 1107 3418 1133 
Q 3014 1446 2675 1946 
Q 2605 2042 2541 2170 
Q 2477 2298 2406 2451 
Q 2336 2605 2291 2736 
Q 2246 2867 2221 2976 
Q 2106 2438 1581 1786 
Q 1312 1466 1059 1245 
Q 806 1024 544 896 
Q 518 909 476 941 
Q 435 973 371 1030 
Q 211 1165 211 1184 
Q 250 1222 256 1235 
Q 301 1235 557 1421 
Q 922 1683 1203 2010 
Q 1606 2477 1818 3078 
Q 1933 3405 1993 3830 
Q 2054 4256 2054 4640 
Q 2106 4640 2186 4630 
Q 2266 4621 2368 4595 
Q 2573 4550 2573 4486 
Q 2560 4454 2521 4361 
Q 2483 4269 2490 4173 
L 2432 3750 
Q 2458 3648 2474 3574 
Q 2490 3501 2502 3437 
Q 2598 3053 2829 2547 
Q 3072 2061 3494 1677 
Q 3565 1613 3657 1539 
Q 3750 1466 3872 1389 
Q 3885 1376 3897 1360 
Q 3910 1344 3923 1331 
z
" transform="scale(0.015625)"/>
        <path id="AppleGothic-b9dd" d="M 4826 531 
Q 4826 870 4448 1014 
Q 4070 1158 3302 1158 
Q 2490 1158 2144 1008 
Q 1798 858 1798 544 
Q 1798 51 2643 -90 
Q 2810 -122 2973 -131 
Q 3136 -141 3302 -141 
Q 4006 -141 4390 19 
Q 4826 192 4826 531 
z
M 2931 2477 
L 2931 4282 
L 2342 4294 
L 1178 4282 
L 1178 2470 
L 2035 2458 
L 2931 2477 
z
M 5325 531 
Q 5325 51 4790 -221 
Q 4256 -493 3302 -493 
Q 2477 -493 1933 -250 
Q 1312 19 1312 531 
Q 1312 1114 1958 1344 
Q 2195 1434 2531 1475 
Q 2867 1517 3309 1517 
Q 4288 1517 4806 1270 
Q 5325 1024 5325 531 
z
M 3386 2048 
L 2208 2054 
L 736 2042 
L 755 3270 
L 736 4717 
Q 806 4717 947 4713 
Q 1088 4710 1312 4704 
Q 1536 4698 1677 4698 
Q 1818 4698 1882 4698 
L 3386 4717 
L 3366 3206 
Q 3366 2790 3372 2521 
Q 3379 2253 3386 2048 
z
M 6061 2970 
L 5133 2995 
L 5133 2746 
Q 5133 2362 5152 1875 
Q 5152 1824 5155 1766 
Q 5158 1709 5165 1638 
L 4672 1613 
L 4698 3680 
Q 4698 3987 4694 4220 
Q 4691 4454 4685 4621 
Q 4678 4787 4672 4924 
Q 4666 5062 4659 5190 
L 4755 5190 
Q 4922 5190 5059 5164 
Q 5197 5139 5197 5075 
Q 5197 5050 5171 4957 
Q 5146 4864 5146 4787 
L 5133 3386 
L 6061 3398 
L 6061 2970 
z
" transform="scale(0.015625)"/>
        <path id="AppleGothic-c790" d="M 6010 2067 
L 5139 2067 
L 5126 1037 
L 5139 -531 
L 4653 -531 
L 4672 4717 
Q 4672 4960 4665 5056 
Q 4659 5152 4646 5190 
L 4832 5197 
Q 4966 5197 5078 5174 
Q 5190 5152 5190 5101 
Q 5190 5075 5164 4998 
Q 5139 4922 5139 4883 
L 5126 3968 
L 5139 2470 
L 6010 2483 
L 6010 2067 
z
M 4218 1158 
Q 4211 1120 4195 1107 
Q 4179 1094 4144 1072 
Q 4109 1050 4057 1008 
Q 4006 966 3930 883 
Q 3923 870 3885 832 
Q 3814 877 3760 909 
Q 3706 941 3661 973 
Q 3392 1158 3174 1369 
Q 2957 1581 2790 1818 
Q 2720 1914 2643 2045 
Q 2566 2176 2477 2349 
Q 2445 2406 2406 2486 
Q 2368 2566 2317 2662 
Q 2285 2592 2259 2534 
Q 2234 2477 2208 2426 
Q 2061 2157 1901 1926 
Q 1741 1696 1568 1510 
Q 1446 1382 1289 1235 
Q 1133 1088 928 922 
Q 858 864 736 768 
Q 685 819 666 832 
Q 582 915 531 934 
Q 326 1011 326 1050 
Q 326 1056 358 1088 
Q 371 1101 387 1110 
Q 403 1120 416 1133 
Q 538 1222 627 1292 
Q 717 1363 787 1414 
Q 1197 1741 1402 2003 
Q 1766 2458 1942 2922 
Q 2118 3386 2118 3936 
L 2106 4218 
L 1568 4224 
L 646 4198 
L 646 4640 
Q 960 4627 1347 4620 
Q 1734 4614 2144 4614 
L 2330 4614 
Q 2803 4614 3212 4627 
Q 3622 4640 4000 4659 
L 4000 4230 
L 3296 4237 
L 2592 4218 
Q 2579 4122 2576 4042 
Q 2573 3962 2566 3898 
Q 2554 3712 2547 3561 
Q 2541 3411 2541 3296 
Q 2592 2995 2778 2656 
Q 2861 2502 2969 2342 
Q 3078 2182 3213 2003 
Q 3334 1850 3472 1715 
Q 3610 1581 3757 1466 
Q 3808 1434 3872 1389 
Q 3936 1344 4019 1293 
Q 4026 1286 4128 1235 
Q 4218 1184 4218 1158 
z
" transform="scale(0.015625)"/>
        <path id="AppleGothic-20" transform="scale(0.015625)"/>
        <path id="AppleGothic-adf8" d="M 6042 218 
Q 5856 224 5709 224 
Q 5562 224 5446 224 
Q 4614 237 4060 243 
Q 3507 250 3219 250 
Q 2362 250 1677 243 
Q 992 237 365 218 
L 365 666 
L 787 666 
Q 1376 653 1769 646 
Q 2163 640 2368 640 
L 4358 646 
Q 4390 819 4416 956 
Q 4442 1094 4461 1203 
Q 4531 1587 4579 1849 
Q 4627 2112 4653 2266 
Q 4672 2426 4694 2608 
Q 4717 2790 4742 3002 
Q 4787 3354 4806 3562 
Q 4826 3770 4826 3834 
L 3322 3846 
L 909 3814 
L 909 4224 
Q 1011 4224 1235 4221 
Q 1459 4218 1805 4211 
Q 2150 4205 2352 4205 
Q 2554 4205 2605 4205 
L 5325 4218 
Q 5312 4019 5299 3862 
Q 5286 3706 5274 3578 
Q 5242 3232 5206 2928 
Q 5171 2624 5120 2349 
Q 5075 2080 5027 1808 
Q 4979 1536 4928 1248 
Q 4909 1139 4880 992 
Q 4851 845 4806 646 
L 6042 659 
L 6042 218 
z
" transform="scale(0.015625)"/>
        <path id="AppleGothic-b8f9" d="M 4614 64 
L 4614 691 
L 3194 704 
Q 2938 704 2739 704 
Q 2541 704 2394 698 
Q 2246 698 2105 694 
Q 1965 691 1818 685 
L 1818 51 
L 3245 38 
Q 3514 38 3725 38 
Q 3936 38 4099 41 
Q 4262 45 4387 51 
Q 4512 58 4614 64 
z
M 5126 1549 
L 5101 1280 
L 5088 467 
Q 5088 288 5088 150 
Q 5088 13 5094 -96 
Q 5101 -205 5104 -297 
Q 5107 -390 5120 -474 
L 4595 -461 
L 4595 -269 
L 3251 -262 
L 1830 -282 
L 1818 -461 
L 1344 -480 
Q 1357 -294 1363 -57 
Q 1370 179 1370 506 
Q 1370 736 1366 915 
Q 1363 1094 1356 1228 
Q 1350 1363 1344 1465 
Q 1338 1568 1331 1651 
Q 1504 1645 1690 1613 
Q 1869 1594 1869 1523 
Q 1869 1498 1843 1424 
Q 1818 1350 1818 1312 
L 1818 1018 
L 3194 1005 
L 4614 1018 
L 4614 1408 
L 4589 1670 
L 5062 1626 
Q 5126 1626 5126 1549 
z
M 5984 2029 
Q 5875 2035 5785 2038 
Q 5696 2042 5619 2042 
Q 5024 2061 4691 2061 
L 3386 2061 
L 3392 1389 
L 2950 1389 
L 2957 2054 
L 1651 2054 
L 403 2016 
L 403 2413 
Q 531 2400 1062 2394 
Q 1331 2387 1849 2387 
Q 2368 2387 3142 2387 
Q 3360 2387 3574 2387 
Q 3789 2387 4013 2394 
Q 4454 2400 5088 2413 
Q 5408 2426 5632 2429 
Q 5856 2432 5984 2438 
L 5984 2029 
z
M 5107 2970 
Q 4736 2982 4294 2988 
Q 3853 2995 3443 2995 
L 3206 2995 
Q 2694 2995 2198 2988 
Q 1702 2982 1299 2970 
L 1318 3539 
L 1299 4154 
Q 1395 4154 1606 4150 
Q 1818 4147 2150 4141 
Q 2483 4134 2694 4134 
Q 2906 4134 2995 4134 
L 4621 4147 
L 4621 4666 
L 2790 4666 
L 1805 4666 
Q 1651 4659 1513 4656 
Q 1376 4653 1248 4640 
L 1248 4992 
Q 1658 4979 2147 4972 
Q 2637 4966 3085 4966 
L 5050 4986 
L 5030 4358 
L 5050 3840 
L 1741 3853 
L 1741 3296 
L 3469 3290 
Q 3891 3290 4176 3290 
Q 4461 3290 4614 3296 
Q 4768 3302 4889 3305 
Q 5011 3309 5107 3322 
L 5107 2970 
z
" transform="scale(0.015625)"/>
       </defs>
       <use xlink:href="#AppleGothic-c0ac"/>
       <use xlink:href="#AppleGothic-b9dd" transform="translate(99.999985 0)"/>
       <use xlink:href="#AppleGothic-c790" transform="translate(199.999969 0)"/>
       <use xlink:href="#AppleGothic-20" transform="translate(299.999954 0)"/>
       <use xlink:href="#AppleGothic-adf8" transform="translate(331.999939 0)"/>
       <use xlink:href="#AppleGothic-b8f9" transform="translate(431.999924 0)"/>
      </g>
     </g>
    </g>
    <g id="xtick_2">
     <g id="line2d_2">
      <g>
       <use xlink:href="#mf25fc8d767" x="465.060938" y="355.704375" style="stroke: #000000; stroke-width: 0.8"/>
      </g>
     </g>
     <g id="text_2">
      <!-- 생존자 그룹 -->
      <g transform="translate(438.460938 370.545) scale(0.1 -0.1)">
       <defs>
        <path id="AppleGothic-c0dd" d="M 5651 480 
Q 5651 -6 5164 -246 
Q 4678 -486 3738 -486 
L 3546 -493 
Q 2707 -493 2163 -288 
Q 1485 -38 1485 493 
Q 1485 1043 2163 1274 
Q 2688 1459 3590 1459 
Q 4070 1459 4451 1392 
Q 4832 1325 5097 1200 
Q 5363 1075 5507 892 
Q 5651 710 5651 480 
z
M 3552 2266 
Q 3539 2240 3539 2240 
Q 3514 2195 3482 2176 
L 3264 1978 
Q 3110 2074 3021 2163 
Q 2720 2406 2496 2701 
Q 2355 2880 2214 3162 
Q 2189 3213 2163 3273 
Q 2138 3334 2106 3405 
Q 2074 3328 2042 3264 
Q 2010 3200 1990 3149 
Q 1907 2995 1811 2848 
Q 1715 2701 1606 2554 
Q 1523 2451 1401 2326 
Q 1280 2202 1114 2048 
Q 1062 1997 982 1933 
Q 902 1869 806 1786 
Q 742 1818 557 1984 
Q 448 2074 448 2093 
Q 448 2112 480 2131 
Q 531 2163 538 2176 
Q 1171 2566 1600 3334 
Q 2029 4096 2029 4851 
Q 2131 4851 2310 4806 
Q 2515 4768 2515 4723 
Q 2502 4691 2489 4668 
Q 2477 4646 2470 4627 
L 2387 4262 
Q 2387 4154 2393 4054 
Q 2400 3955 2413 3872 
Q 2464 3565 2598 3309 
Q 2688 3142 2816 2976 
Q 2944 2810 3110 2643 
Q 3226 2534 3418 2374 
L 3552 2266 
z
M 5670 5069 
Q 5670 5043 5651 4944 
Q 5632 4845 5632 4762 
L 5626 3142 
L 5638 1542 
L 5184 1517 
L 5184 2848 
L 4378 2842 
L 4371 2490 
L 4390 1760 
L 3923 1734 
Q 3930 1875 3930 2083 
Q 3930 2291 3936 2573 
Q 3942 2861 3942 3085 
Q 3942 3309 3942 3475 
Q 3942 3558 3942 3689 
Q 3942 3821 3936 4006 
Q 3930 4192 3930 4339 
Q 3930 4486 3930 4595 
L 3910 5043 
Q 4077 5043 4243 5024 
Q 4416 5005 4416 4941 
Q 4403 4870 4390 4812 
Q 4378 4755 4378 4678 
L 4365 3891 
L 4378 3206 
L 5184 3206 
L 5197 3808 
Q 5197 3923 5193 4118 
Q 5190 4314 5184 4595 
Q 5178 4870 5174 5020 
Q 5171 5171 5171 5190 
L 5203 5190 
Q 5402 5190 5536 5168 
Q 5670 5146 5670 5069 
z
M 5184 506 
Q 5184 813 4723 960 
Q 4269 1114 3578 1114 
Q 2758 1114 2352 976 
Q 1946 838 1946 512 
Q 1946 198 2458 26 
Q 2912 -134 3590 -134 
Q 3917 -134 4189 -99 
Q 4461 -64 4678 19 
Q 5184 192 5184 506 
z
" transform="scale(0.015625)"/>
        <path id="AppleGothic-c874" d="M 5254 -237 
L 3392 -224 
L 1318 -237 
Q 1325 -109 1328 67 
Q 1331 243 1331 378 
L 1325 1370 
Q 1517 1370 1670 1338 
Q 1824 1306 1824 1254 
Q 1779 1146 1779 1030 
L 1773 134 
L 3386 134 
Q 3834 134 4224 144 
Q 4614 154 4960 166 
Q 5088 166 5254 186 
L 5254 -237 
z
M 5971 1837 
L 5638 1837 
Q 4352 1856 3891 1856 
L 3258 1856 
Q 2413 1856 1754 1837 
Q 1427 1830 1097 1824 
Q 768 1818 429 1805 
L 416 2234 
Q 525 2227 675 2227 
Q 826 2227 1030 2221 
Q 1235 2214 1404 2214 
Q 1574 2214 1709 2214 
L 2957 2227 
L 2970 2867 
L 2957 3181 
Q 3168 3181 3321 3168 
Q 3475 3155 3475 3085 
Q 3475 3078 3456 3004 
Q 3437 2931 3437 2861 
L 3437 2234 
L 4730 2227 
Q 5178 2227 5462 2243 
Q 5747 2259 5971 2278 
L 5971 1837 
z
M 5638 3130 
Q 5638 3104 5504 2944 
Q 5414 2829 5331 2752 
Q 5261 2765 5209 2774 
Q 5158 2784 5107 2797 
Q 4838 2854 4579 2960 
Q 4320 3066 4070 3213 
Q 3891 3322 3731 3443 
Q 3571 3565 3437 3712 
Q 3386 3763 3338 3827 
Q 3290 3891 3226 3968 
Q 3168 3891 3117 3830 
Q 3066 3770 3027 3718 
Q 2886 3571 2723 3436 
Q 2560 3302 2368 3174 
Q 2195 3066 2000 2970 
Q 1805 2874 1581 2797 
Q 1510 2771 1417 2739 
Q 1325 2707 1203 2675 
Q 1184 2688 1129 2726 
Q 1075 2765 986 2835 
Q 819 2982 819 2995 
Q 826 3021 845 3021 
Q 992 3046 1113 3068 
Q 1235 3091 1325 3117 
Q 1606 3200 1840 3305 
Q 2074 3411 2272 3558 
Q 2726 3885 2912 4237 
Q 2976 4358 3014 4531 
L 1990 4544 
Q 1766 4544 1520 4537 
Q 1274 4531 1062 4518 
L 1062 4960 
Q 1478 4947 2025 4937 
Q 2573 4928 3258 4928 
Q 3642 4928 3946 4928 
Q 4250 4928 4480 4934 
Q 4947 4934 5331 4954 
L 5331 4531 
L 4256 4544 
Q 4109 4544 4000 4544 
Q 3891 4544 3804 4541 
Q 3718 4538 3644 4534 
Q 3571 4531 3494 4525 
L 3430 4339 
Q 3482 4250 3526 4179 
Q 3571 4109 3622 4051 
Q 3776 3878 4026 3699 
Q 4512 3373 5114 3226 
Q 5210 3200 5338 3184 
Q 5466 3168 5613 3155 
Q 5632 3155 5638 3130 
z
" transform="scale(0.015625)"/>
       </defs>
       <use xlink:href="#AppleGothic-c0dd"/>
       <use xlink:href="#AppleGothic-c874" transform="translate(99.999985 0)"/>
       <use xlink:href="#AppleGothic-c790" transform="translate(199.999969 0)"/>
       <use xlink:href="#AppleGothic-20" transform="translate(299.999954 0)"/>
       <use xlink:href="#AppleGothic-adf8" transform="translate(331.999939 0)"/>
       <use xlink:href="#AppleGothic-b8f9" transform="translate(431.999924 0)"/>
      </g>
     </g>
    </g>
    <g id="text_3">
     <!-- 생존 여부 (0 = 사망, 1 = 생존) -->
     <g transform="translate(253.466406 384.235625) scale(0.1 -0.1)">
      <defs>
       <path id="AppleGothic-c5ec" d="M 3008 2592 
Q 3008 3379 2746 3789 
Q 2509 4141 2074 4141 
Q 1126 4141 1126 2586 
Q 1126 1856 1388 1446 
Q 1651 1037 2138 1037 
Q 2605 1037 2822 1542 
Q 3008 1965 3008 2592 
z
M 5446 5050 
Q 5446 5018 5434 4979 
Q 5389 4870 5389 4851 
L 5382 2138 
L 5421 -570 
L 4915 -570 
L 4934 749 
L 4928 1523 
L 3731 1510 
L 3731 1914 
L 4928 1914 
L 4928 3142 
L 3731 3130 
L 3731 3520 
L 4928 3520 
L 4928 4851 
L 4902 5197 
Q 5146 5197 5296 5158 
Q 5446 5120 5446 5050 
z
M 3475 2605 
Q 3475 1779 3181 1267 
Q 2829 666 2067 666 
Q 1350 666 986 1267 
Q 678 1786 678 2618 
Q 678 3450 1011 3962 
Q 1376 4518 2080 4518 
Q 2810 4518 3162 3968 
Q 3475 3469 3475 2605 
z
" transform="scale(0.015625)"/>
       <path id="AppleGothic-bd80" d="M 4563 3130 
L 4563 4038 
L 1760 4045 
L 1760 3123 
L 4563 3130 
z
M 6010 1613 
Q 5798 1613 5472 1619 
Q 5146 1626 4704 1638 
Q 4269 1651 3942 1657 
Q 3616 1664 3392 1664 
L 3392 -589 
L 2931 -589 
Q 2938 -538 2947 -355 
Q 2957 -173 2957 224 
L 2950 1664 
L 1914 1670 
Q 1549 1670 1145 1664 
Q 742 1658 397 1645 
L 397 2042 
Q 512 2035 611 2035 
Q 710 2035 800 2029 
Q 2016 1990 2957 1990 
L 3187 1990 
Q 3654 1990 4000 1990 
Q 4346 1990 4576 1997 
Q 5037 2003 5421 2009 
Q 5805 2016 6010 2022 
L 6010 1613 
z
M 5043 5011 
Q 4992 4890 4992 4794 
L 4986 4109 
L 5005 2816 
L 3878 2829 
L 1318 2816 
L 1325 4749 
Q 1325 4902 1321 4976 
Q 1318 5050 1306 5114 
L 1677 5082 
Q 1792 5082 1792 5011 
Q 1792 4986 1776 4925 
Q 1760 4864 1760 4851 
L 1760 4352 
L 3130 4333 
L 4563 4352 
L 4557 5082 
L 4902 5075 
Q 5043 5075 5043 5011 
z
" transform="scale(0.015625)"/>
       <path id="AppleGothic-28" d="M 2227 5261 
L 2650 5261 
Q 2342 4768 2169 4473 
Q 1997 4179 1958 4083 
Q 1606 3283 1606 2272 
Q 1606 1587 1754 1018 
Q 1882 570 2138 102 
Q 2150 70 2275 -131 
Q 2400 -333 2630 -717 
L 2227 -717 
Q 2099 -531 1980 -355 
Q 1862 -179 1734 0 
Q 1581 243 1469 483 
Q 1357 723 1274 954 
Q 1069 1587 1069 2272 
Q 1069 2963 1261 3558 
Q 1338 3789 1450 4022 
Q 1562 4256 1715 4499 
Q 1843 4691 1971 4880 
Q 2099 5069 2227 5261 
z
" transform="scale(0.015625)"/>
       <path id="AppleGothic-30" d="M 2227 -83 
Q 1414 -83 934 576 
Q 461 1229 461 2387 
Q 461 3552 973 4218 
Q 1453 4858 2221 4858 
Q 3027 4858 3482 4173 
Q 3955 3494 3955 2394 
Q 3955 1248 3462 582 
Q 2976 -83 2227 -83 
z
M 2176 346 
Q 2861 346 3200 992 
Q 3462 1536 3462 2400 
Q 3462 3315 3162 3859 
Q 2822 4429 2214 4429 
Q 1574 4429 1248 3821 
Q 960 3283 960 2374 
Q 960 1478 1248 941 
Q 1574 346 2176 346 
z
" transform="scale(0.015625)"/>
       <path id="AppleGothic-3d" d="M 467 3437 
L 4358 3437 
L 4358 3027 
L 467 3027 
L 467 3437 
z
M 467 1734 
L 4358 1734 
L 4358 1344 
L 467 1344 
L 467 1734 
z
" transform="scale(0.015625)"/>
       <path id="AppleGothic-2c" d="M 806 -941 
L 550 -941 
Q 666 -698 723 -502 
Q 781 -307 806 -64 
Q 666 0 602 77 
Q 525 160 525 346 
Q 525 576 630 720 
Q 736 864 883 864 
Q 1030 864 1113 701 
Q 1197 538 1197 326 
Q 1197 141 1161 -48 
Q 1126 -237 1056 -429 
Q 1011 -538 950 -662 
Q 890 -787 806 -941 
z
" transform="scale(0.015625)"/>
       <path id="AppleGothic-31" d="M 2342 4774 
L 2752 4774 
L 2752 0 
L 2285 0 
L 2285 3526 
L 1158 3526 
L 1158 3885 
L 1414 3885 
Q 1990 3885 2214 4205 
Q 2342 4410 2342 4774 
z
" transform="scale(0.015625)"/>
       <path id="AppleGothic-29" d="M 2221 2272 
Q 2221 1587 2016 960 
Q 1862 499 1555 6 
Q 1427 -179 1305 -355 
Q 1184 -531 1062 -717 
L 659 -717 
Q 781 -512 902 -310 
Q 1024 -109 1152 96 
Q 1280 333 1376 557 
Q 1472 781 1530 1005 
Q 1683 1562 1683 2272 
Q 1683 2650 1641 2973 
Q 1600 3296 1517 3584 
Q 1459 3802 1356 4029 
Q 1254 4256 1120 4499 
Q 992 4691 873 4880 
Q 755 5069 640 5261 
L 1062 5261 
Q 1190 5069 1315 4880 
Q 1440 4691 1568 4506 
Q 1722 4256 1837 4022 
Q 1952 3789 2022 3565 
Q 2221 2976 2221 2272 
z
" transform="scale(0.015625)"/>
      </defs>
      <use xlink:href="#AppleGothic-c0dd"/>
      <use xlink:href="#AppleGothic-c874" transform="translate(99.999985 0)"/>
      <use xlink:href="#AppleGothic-20" transform="translate(199.999969 0)"/>
      <use xlink:href="#AppleGothic-c5ec" transform="translate(231.999954 0)"/>
      <use xlink:href="#AppleGothic-bd80" transform="translate(331.999939 0)"/>
      <use xlink:href="#AppleGothic-20" transform="translate(431.999924 0)"/>
      <use xlink:href="#AppleGothic-28" transform="translate(463.999908 0)"/>
      <use xlink:href="#AppleGothic-30" transform="translate(513.999893 0)"/>
      <use xlink:href="#AppleGothic-20" transform="translate(581.999878 0)"/>
      <use xlink:href="#AppleGothic-3d" transform="translate(613.999863 0)"/>
      <use xlink:href="#AppleGothic-20" transform="translate(690.79985 0)"/>
      <use xlink:href="#AppleGothic-c0ac" transform="translate(722.799835 0)"/>
      <use xlink:href="#AppleGothic-b9dd" transform="translate(822.79982 0)"/>
      <use xlink:href="#AppleGothic-2c" transform="translate(922.799805 0)"/>
      <use xlink:href="#AppleGothic-20" transform="translate(951.099792 0)"/>
      <use xlink:href="#AppleGothic-31" transform="translate(983.099777 0)"/>
      <use xlink:href="#AppleGothic-20" transform="translate(1051.099762 0)"/>
      <use xlink:href="#AppleGothic-3d" transform="translate(1083.099747 0)"/>
      <use xlink:href="#AppleGothic-20" transform="translate(1159.899734 0)"/>
      <use xlink:href="#AppleGothic-c0dd" transform="translate(1191.899719 0)"/>
      <use xlink:href="#AppleGothic-c874" transform="translate(1291.899704 0)"/>
      <use xlink:href="#AppleGothic-29" transform="translate(1391.899689 0)"/>
     </g>
    </g>
   </g>
   <g id="matplotlib.axis_2">
    <g id="ytick_1">
     <g id="line2d_3">
      <path d="M 46.560938 323.101822 
L 604.560938 323.101822 
" clip-path="url(#pc4cff85821)" style="fill: none; stroke: #b0b0b0; stroke-opacity: 0.3; stroke-width: 0.8; stroke-linecap: square"/>
     </g>
     <g id="line2d_4">
      <defs>
       <path id="m8a71d9bdc6" d="M 0 0 
L -3.5 0 
" style="stroke: #000000; stroke-width: 0.8"/>
      </defs>
      <g>
       <use xlink:href="#m8a71d9bdc6" x="46.560938" y="323.101822" style="stroke: #000000; stroke-width: 0.8"/>
      </g>
     </g>
     <g id="text_4">
      <!-- $\mathdefault{10^{1}}$ -->
      <g transform="translate(20.760938 327.022135) scale(0.1 -0.1)">
       <use xlink:href="#AppleGothic-31" transform="translate(0 0.334375)"/>
       <use xlink:href="#AppleGothic-30" transform="translate(67.999985 0.334375)"/>
       <use xlink:href="#AppleGothic-31" transform="translate(136.936219 37.784375) scale(0.7)"/>
      </g>
     </g>
    </g>
    <g id="ytick_2">
     <g id="line2d_5">
      <path d="M 46.560938 156.439487 
L 604.560938 156.439487 
" clip-path="url(#pc4cff85821)" style="fill: none; stroke: #b0b0b0; stroke-opacity: 0.3; stroke-width: 0.8; stroke-linecap: square"/>
     </g>
     <g id="line2d_6">
      <g>
       <use xlink:href="#m8a71d9bdc6" x="46.560938" y="156.439487" style="stroke: #000000; stroke-width: 0.8"/>
      </g>
     </g>
     <g id="text_5">
      <!-- $\mathdefault{10^{2}}$ -->
      <g transform="translate(20.760938 160.359799) scale(0.1 -0.1)">
       <defs>
        <path id="AppleGothic-32" d="M 1101 429 
L 3942 429 
L 3942 0 
L 653 0 
L 653 205 
Q 653 1018 1344 1664 
Q 1670 1894 1990 2124 
Q 2310 2355 2637 2592 
Q 3334 3098 3334 3597 
Q 3334 3994 3014 4218 
Q 2867 4326 2694 4377 
Q 2522 4429 2317 4429 
Q 2016 4429 1741 4352 
Q 1325 4224 883 3910 
L 883 4435 
Q 1325 4659 1667 4758 
Q 2010 4858 2317 4858 
Q 2963 4858 3405 4525 
Q 3840 4198 3840 3622 
Q 3840 2995 3168 2438 
Q 2848 2214 2531 2000 
Q 2214 1786 1894 1562 
Q 1178 1024 1101 429 
z
" transform="scale(0.015625)"/>
       </defs>
       <use xlink:href="#AppleGothic-31" transform="translate(0 0.415625)"/>
       <use xlink:href="#AppleGothic-30" transform="translate(67.999985 0.415625)"/>
       <use xlink:href="#AppleGothic-32" transform="translate(136.936219 37.865625) scale(0.7)"/>
      </g>
     </g>
    </g>
    <g id="ytick_3">
     <g id="line2d_7">
      <defs>
       <path id="m7185fef939" d="M 0 0 
L -2 0 
" style="stroke: #000000; stroke-width: 0.6"/>
      </defs>
      <g>
       <use xlink:href="#m7185fef939" x="46.560938" y="348.918144" style="stroke: #000000; stroke-width: 0.6"/>
      </g>
     </g>
    </g>
    <g id="ytick_4">
     <g id="line2d_8">
      <g>
       <use xlink:href="#m7185fef939" x="46.560938" y="339.253071" style="stroke: #000000; stroke-width: 0.6"/>
      </g>
     </g>
    </g>
    <g id="ytick_5">
     <g id="line2d_9">
      <g>
       <use xlink:href="#m7185fef939" x="46.560938" y="330.727872" style="stroke: #000000; stroke-width: 0.6"/>
      </g>
     </g>
    </g>
    <g id="ytick_6">
     <g id="line2d_10">
      <g>
       <use xlink:href="#m7185fef939" x="46.560938" y="272.93146" style="stroke: #000000; stroke-width: 0.6"/>
      </g>
     </g>
    </g>
    <g id="ytick_7">
     <g id="line2d_11">
      <g>
       <use xlink:href="#m7185fef939" x="46.560938" y="243.583679" style="stroke: #000000; stroke-width: 0.6"/>
      </g>
     </g>
    </g>
    <g id="ytick_8">
     <g id="line2d_12">
      <g>
       <use xlink:href="#m7185fef939" x="46.560938" y="222.761098" style="stroke: #000000; stroke-width: 0.6"/>
      </g>
     </g>
    </g>
    <g id="ytick_9">
     <g id="line2d_13">
      <g>
       <use xlink:href="#m7185fef939" x="46.560938" y="206.609849" style="stroke: #000000; stroke-width: 0.6"/>
      </g>
     </g>
    </g>
    <g id="ytick_10">
     <g id="line2d_14">
      <g>
       <use xlink:href="#m7185fef939" x="46.560938" y="193.413317" style="stroke: #000000; stroke-width: 0.6"/>
      </g>
     </g>
    </g>
    <g id="ytick_11">
     <g id="line2d_15">
      <g>
       <use xlink:href="#m7185fef939" x="46.560938" y="182.255809" style="stroke: #000000; stroke-width: 0.6"/>
      </g>
     </g>
    </g>
    <g id="ytick_12">
     <g id="line2d_16">
      <g>
       <use xlink:href="#m7185fef939" x="46.560938" y="172.590736" style="stroke: #000000; stroke-width: 0.6"/>
      </g>
     </g>
    </g>
    <g id="ytick_13">
     <g id="line2d_17">
      <g>
       <use xlink:href="#m7185fef939" x="46.560938" y="164.065537" style="stroke: #000000; stroke-width: 0.6"/>
      </g>
     </g>
    </g>
    <g id="ytick_14">
     <g id="line2d_18">
      <g>
       <use xlink:href="#m7185fef939" x="46.560938" y="106.269124" style="stroke: #000000; stroke-width: 0.6"/>
      </g>
     </g>
    </g>
    <g id="ytick_15">
     <g id="line2d_19">
      <g>
       <use xlink:href="#m7185fef939" x="46.560938" y="76.921344" style="stroke: #000000; stroke-width: 0.6"/>
      </g>
     </g>
    </g>
    <g id="ytick_16">
     <g id="line2d_20">
      <g>
       <use xlink:href="#m7185fef939" x="46.560938" y="56.098762" style="stroke: #000000; stroke-width: 0.6"/>
      </g>
     </g>
    </g>
    <g id="ytick_17">
     <g id="line2d_21">
      <g>
       <use xlink:href="#m7185fef939" x="46.560938" y="39.947513" style="stroke: #000000; stroke-width: 0.6"/>
      </g>
     </g>
    </g>
    <g id="ytick_18">
     <g id="line2d_22">
      <g>
       <use xlink:href="#m7185fef939" x="46.560938" y="26.750982" style="stroke: #000000; stroke-width: 0.6"/>
      </g>
     </g>
    </g>
    <g id="text_6">
     <!-- 티켓 요금 (Fare) -->
     <g transform="translate(15.040625 227.825) rotate(-90) scale(0.1 -0.1)">
      <defs>
       <path id="AppleGothic-d2f0" d="M 5478 5050 
Q 5478 5050 5472 5014 
Q 5466 4979 5459 4934 
Q 5453 4890 5446 4842 
Q 5440 4794 5440 4762 
Q 5434 4672 5434 4589 
Q 5434 4506 5434 4435 
Q 5414 3424 5414 2682 
L 5434 -563 
L 4909 -563 
Q 4909 -467 4909 -332 
Q 4909 -198 4915 -13 
Q 4922 352 4934 1024 
Q 4934 1370 4937 1658 
Q 4941 1946 4941 2189 
Q 4941 3008 4941 3542 
Q 4941 4077 4934 4346 
Q 4934 4870 4915 5190 
L 4973 5190 
Q 5178 5190 5328 5164 
Q 5478 5139 5478 5050 
z
M 4518 979 
Q 4301 947 4115 921 
Q 3930 896 3770 870 
Q 3443 826 3145 790 
Q 2848 755 2573 723 
Q 2035 678 1331 646 
Q 1107 640 762 627 
L 774 2483 
L 762 4371 
L 2682 4352 
Q 3046 4352 3372 4358 
Q 3699 4365 3968 4378 
L 3968 3942 
L 2592 3955 
Q 2259 3955 1907 3948 
Q 1555 3942 1248 3930 
L 1248 2778 
L 2438 2765 
L 3782 2778 
L 3782 2336 
L 2464 2355 
L 1248 2342 
L 1248 1050 
Q 1363 1056 1459 1056 
Q 1555 1056 1645 1062 
Q 1888 1075 2173 1094 
Q 2458 1114 2803 1146 
Q 3149 1178 3446 1210 
Q 3744 1242 4013 1286 
Q 4109 1299 4224 1318 
Q 4339 1338 4467 1370 
L 4518 979 
z
" transform="scale(0.015625)"/>
       <path id="AppleGothic-cf13" d="M 5677 -58 
Q 5677 -77 5542 -256 
Q 5478 -346 5436 -397 
Q 5395 -448 5376 -467 
Q 5254 -448 5203 -422 
Q 4992 -352 4758 -224 
Q 4525 -96 4275 90 
Q 3981 307 3731 640 
Q 3686 691 3638 764 
Q 3590 838 3539 934 
Q 3482 851 3434 784 
Q 3386 717 3341 666 
Q 3213 499 3075 361 
Q 2938 224 2790 109 
Q 2605 -38 2416 -156 
Q 2227 -275 2022 -371 
Q 1958 -397 1878 -429 
Q 1798 -461 1709 -493 
L 1357 -128 
L 1370 -115 
Q 2067 -13 2688 531 
Q 3360 1126 3360 1798 
Q 3565 1798 3699 1760 
Q 3834 1722 3834 1664 
Q 3834 1626 3802 1546 
Q 3770 1466 3770 1434 
Q 3782 1382 3792 1344 
Q 3802 1306 3814 1274 
Q 3949 909 4275 602 
Q 4685 205 5216 38 
Q 5306 6 5418 -16 
Q 5530 -38 5677 -58 
z
M 3328 4646 
Q 3296 4326 3251 4128 
Q 3104 3507 2771 2982 
Q 2483 2547 1997 2202 
Q 1811 2074 1609 1962 
Q 1408 1850 1197 1747 
Q 1030 1677 937 1641 
Q 845 1606 819 1606 
L 454 1939 
Q 480 1952 486 1952 
Q 550 1965 602 1965 
Q 698 1990 778 2009 
Q 858 2029 928 2054 
Q 1120 2131 1328 2243 
Q 1536 2355 1754 2515 
Q 2086 2733 2349 3066 
Q 2426 3162 2541 3347 
L 1715 3290 
L 1011 3251 
Q 992 3251 950 3241 
Q 909 3232 870 3222 
Q 832 3213 797 3203 
Q 762 3194 755 3194 
Q 685 3194 675 3280 
Q 666 3366 627 3501 
Q 621 3526 608 3558 
Q 595 3590 582 3629 
L 1600 3629 
Q 1766 3629 1948 3638 
Q 2131 3648 2336 3661 
Q 2406 3667 2489 3673 
Q 2573 3680 2682 3693 
Q 2688 3731 2701 3750 
Q 2771 3917 2778 3955 
L 2842 4250 
Q 2746 4256 2602 4256 
Q 2458 4256 2266 4262 
Q 2080 4269 1945 4269 
Q 1811 4269 1722 4269 
L 710 4262 
L 710 4614 
Q 755 4621 844 4627 
Q 934 4634 986 4634 
L 1914 4627 
L 2810 4627 
Q 3085 4634 3328 4646 
z
M 5677 5056 
Q 5677 5024 5645 4925 
Q 5613 4826 5613 4768 
L 5613 3718 
Q 5613 3571 5613 3324 
Q 5613 3078 5619 2726 
Q 5626 2374 5626 2118 
Q 5626 1862 5626 1696 
L 5626 1139 
L 5139 1120 
Q 5146 1235 5146 1459 
Q 5146 1683 5152 2022 
Q 5158 2368 5161 2691 
Q 5165 3014 5165 3328 
L 5146 4774 
Q 5146 4922 5139 5018 
Q 5133 5114 5120 5190 
L 5184 5190 
Q 5370 5190 5523 5164 
Q 5677 5139 5677 5056 
z
M 4499 4934 
Q 4499 4915 4486 4832 
Q 4474 4749 4474 4685 
Q 4467 4576 4467 4483 
Q 4467 4390 4467 4314 
Q 4454 3763 4448 3289 
Q 4442 2816 4442 2413 
L 4448 1709 
L 3981 1670 
L 3974 3066 
L 3526 3066 
Q 3379 3066 3264 3066 
Q 3149 3066 3078 3053 
L 3078 3430 
L 3469 3418 
L 3981 3424 
Q 3981 3494 3987 3667 
Q 3994 3840 3994 4045 
L 3994 4704 
L 3981 5043 
Q 4070 5037 4153 5033 
Q 4237 5030 4326 5018 
Q 4499 4998 4499 4934 
z
" transform="scale(0.015625)"/>
       <path id="AppleGothic-c694" d="M 4800 3334 
Q 4800 3878 4288 4160 
Q 4064 4288 3792 4349 
Q 3520 4410 3187 4410 
Q 2419 4410 1984 4144 
Q 1549 3878 1549 3379 
Q 1549 2778 2157 2528 
Q 2534 2368 3110 2368 
Q 3462 2368 3747 2422 
Q 4032 2477 4262 2586 
Q 4800 2842 4800 3334 
z
M 6016 307 
L 3238 307 
Q 2835 307 2371 300 
Q 1907 294 1376 282 
Q 1184 275 934 268 
Q 685 262 378 250 
L 378 691 
L 1363 678 
L 2022 685 
L 2022 1466 
L 1997 1760 
L 2138 1760 
Q 2310 1760 2416 1744 
Q 2522 1728 2522 1670 
Q 2522 1632 2493 1552 
Q 2464 1472 2464 1440 
L 2464 685 
L 3853 685 
Q 3859 736 3862 829 
Q 3866 922 3866 960 
L 3821 1760 
L 3930 1760 
Q 4115 1760 4233 1741 
Q 4352 1722 4352 1670 
Q 4352 1658 4333 1584 
Q 4314 1510 4314 1440 
L 4314 678 
Q 4442 678 4598 684 
Q 4755 691 4947 704 
Q 5798 762 6016 762 
L 6016 307 
z
M 5248 3347 
Q 5248 2675 4602 2310 
Q 4045 2003 3251 2003 
Q 2842 2003 2512 2054 
Q 2182 2106 1920 2214 
Q 1094 2547 1094 3366 
Q 1094 4109 1792 4461 
Q 2336 4742 3162 4742 
Q 4045 4742 4589 4442 
Q 5248 4077 5248 3347 
z
" transform="scale(0.015625)"/>
       <path id="AppleGothic-ae08" d="M 4691 134 
L 4691 1466 
L 3258 1459 
Q 2746 1459 2368 1452 
Q 1990 1446 1702 1434 
L 1702 122 
L 3181 115 
Q 3603 115 3990 118 
Q 4378 122 4691 134 
z
M 5139 -403 
L 4698 -416 
L 4678 -224 
L 3366 -211 
Q 2874 -211 2483 -217 
Q 2093 -224 1728 -243 
L 1702 -403 
L 1280 -429 
L 1286 1766 
L 3264 1760 
Q 3693 1760 3997 1760 
Q 4301 1760 4486 1766 
Q 4672 1773 4832 1776 
Q 4992 1779 5126 1792 
L 5139 -403 
z
M 6022 2490 
L 2758 2490 
Q 2374 2490 2083 2490 
Q 1792 2490 1600 2483 
Q 1210 2477 877 2467 
Q 544 2458 378 2451 
L 378 2829 
L 2010 2822 
L 4538 2842 
Q 4576 2995 4595 3078 
Q 4646 3283 4675 3440 
Q 4704 3597 4730 3706 
L 4858 4538 
Q 4166 4538 3552 4518 
Q 3238 4512 2896 4505 
Q 2554 4499 2170 4486 
Q 1786 4480 1498 4477 
Q 1210 4474 1005 4474 
L 1005 4896 
Q 1094 4896 1280 4893 
Q 1466 4890 1760 4883 
Q 2061 4877 2275 4877 
Q 2490 4877 2637 4877 
L 2976 4877 
Q 3597 4877 4214 4889 
Q 4832 4902 5331 4915 
Q 5331 4659 5197 3885 
Q 5056 3123 4966 2854 
L 5568 2842 
L 6022 2861 
L 6022 2490 
z
" transform="scale(0.015625)"/>
       <path id="AppleGothic-46" d="M 339 5018 
L 3462 5018 
L 3462 4576 
L 845 4576 
L 845 2714 
L 3354 2714 
L 3354 2304 
L 845 2304 
L 845 0 
L 339 0 
L 339 5018 
z
" transform="scale(0.015625)"/>
       <path id="AppleGothic-61" d="M 2950 2214 
L 2950 602 
Q 2950 493 2998 413 
Q 3046 333 3174 333 
Q 3213 333 3238 336 
Q 3264 339 3290 346 
Q 3328 358 3357 371 
Q 3386 384 3405 390 
L 3405 32 
Q 3290 -6 3174 -22 
Q 3059 -38 2995 -38 
Q 2669 -38 2566 134 
Q 2483 243 2483 602 
Q 2400 461 2317 355 
Q 2234 250 2150 179 
Q 1818 -83 1376 -83 
Q 909 -83 563 192 
Q 205 486 205 941 
Q 205 1510 781 1779 
Q 992 1882 1341 1958 
Q 1690 2035 2176 2099 
L 2483 2131 
Q 2483 2579 2256 2832 
Q 2029 3085 1587 3085 
Q 1421 3085 1257 3043 
Q 1094 3002 928 2912 
Q 838 2861 729 2790 
Q 621 2720 493 2611 
L 493 3136 
Q 1037 3501 1664 3501 
Q 2304 3501 2650 3098 
Q 2950 2746 2950 2214 
z
M 2483 1542 
L 2483 1747 
L 2266 1722 
Q 1466 1638 1139 1498 
Q 704 1325 704 934 
Q 704 819 755 713 
Q 806 608 896 525 
Q 986 442 1117 390 
Q 1248 339 1408 339 
Q 1843 339 2170 691 
Q 2483 1050 2483 1542 
z
" transform="scale(0.015625)"/>
       <path id="AppleGothic-72" d="M 2125 3424 
L 2125 2963 
Q 2054 2989 2009 3005 
Q 1965 3021 1933 3027 
Q 1901 3034 1865 3037 
Q 1830 3040 1773 3040 
Q 1306 3040 1005 2586 
Q 749 2170 749 1658 
L 749 0 
L 288 0 
L 288 3424 
L 710 3424 
L 742 2835 
Q 902 3104 1043 3219 
Q 1331 3456 1734 3456 
Q 1843 3456 1936 3449 
Q 2029 3443 2125 3424 
z
" transform="scale(0.015625)"/>
       <path id="AppleGothic-65" d="M 3296 1850 
L 691 1850 
Q 691 1114 1033 726 
Q 1376 339 1933 339 
Q 2355 339 2746 608 
Q 2854 678 2976 784 
Q 3098 890 3238 1030 
L 3238 474 
Q 3085 358 2953 272 
Q 2822 186 2707 128 
Q 2304 -83 1901 -83 
Q 1203 -83 717 397 
Q 192 902 192 1709 
Q 192 2470 666 2982 
Q 1146 3501 1850 3501 
Q 2534 3501 2938 3002 
Q 3296 2547 3296 1850 
z
M 755 2240 
L 2758 2240 
Q 2682 2675 2429 2889 
Q 2176 3104 1818 3104 
Q 1421 3104 1146 2854 
Q 890 2624 755 2240 
z
" transform="scale(0.015625)"/>
      </defs>
      <use xlink:href="#AppleGothic-d2f0"/>
      <use xlink:href="#AppleGothic-cf13" transform="translate(99.999985 0)"/>
      <use xlink:href="#AppleGothic-20" transform="translate(199.999969 0)"/>
      <use xlink:href="#AppleGothic-c694" transform="translate(231.999954 0)"/>
      <use xlink:href="#AppleGothic-ae08" transform="translate(331.999939 0)"/>
      <use xlink:href="#AppleGothic-20" transform="translate(431.999924 0)"/>
      <use xlink:href="#AppleGothic-28" transform="translate(463.999908 0)"/>
      <use xlink:href="#AppleGothic-46" transform="translate(513.999893 0)"/>
      <use xlink:href="#AppleGothic-61" transform="translate(572.19989 0)"/>
      <use xlink:href="#AppleGothic-72" transform="translate(628.699875 0)"/>
      <use xlink:href="#AppleGothic-65" transform="translate(663.899872 0)"/>
      <use xlink:href="#AppleGothic-29" transform="translate(718.799866 0)"/>
     </g>
    </g>
   </g>
   <g id="patch_3">
    <path d="M 74.460937 340.584375 
L 297.660937 340.584375 
L 297.660937 253.941395 
L 74.460937 253.941395 
L 74.460937 340.584375 
z
" clip-path="url(#pc4cff85821)" style="fill: #96cac1; stroke: #6a6a6a; stroke-width: 2; stroke-linejoin: miter"/>
   </g>
   <g id="line2d_23">
    <path d="M 186.060937 340.584375 
L 186.060937 394.155937 
" clip-path="url(#pc4cff85821)" style="fill: none; stroke: #6a6a6a; stroke-width: 2"/>
   </g>
   <g id="line2d_24">
    <path d="M 186.060937 253.941395 
L 186.060937 202.255876 
" clip-path="url(#pc4cff85821)" style="fill: none; stroke: #6a6a6a; stroke-width: 2"/>
   </g>
   <g id="line2d_25">
    <path clip-path="url(#pc4cff85821)" style="fill: none; stroke: #6a6a6a; stroke-width: 2; stroke-linecap: square"/>
   </g>
   <g id="line2d_26">
    <path d="M 130.260937 202.255876 
L 241.860938 202.255876 
" clip-path="url(#pc4cff85821)" style="fill: none; stroke: #6a6a6a; stroke-width: 2; stroke-linecap: square"/>
   </g>
   <g id="line2d_27">
    <defs>
     <path id="m2402fe4a27" d="M 0 3 
C 0.795609 3 1.55874 2.683901 2.12132 2.12132 
C 2.683901 1.55874 3 0.795609 3 0 
C 3 -0.795609 2.683901 -1.55874 2.12132 -2.12132 
C 1.55874 -2.683901 0.795609 -3 0 -3 
C -0.795609 -3 -1.55874 -2.683901 -2.12132 -2.12132 
C -2.683901 -1.55874 -3 -0.795609 -3 0 
C -3 0.795609 -2.683901 1.55874 -2.12132 2.12132 
C -1.55874 2.683901 -0.795609 3 0 3 
z
" style="stroke: #6a6a6a"/>
    </defs>
    <g clip-path="url(#pc4cff85821)">
     <use xlink:href="#m2402fe4a27" x="186.060937" y="86.448681" style="fill-opacity: 0; stroke: #6a6a6a"/>
     <use xlink:href="#m2402fe4a27" x="186.060937" y="170.652865" style="fill-opacity: 0; stroke: #6a6a6a"/>
     <use xlink:href="#m2402fe4a27" x="186.060937" y="191.064259" style="fill-opacity: 0; stroke: #6a6a6a"/>
     <use xlink:href="#m2402fe4a27" x="186.060937" y="169.513076" style="fill-opacity: 0; stroke: #6a6a6a"/>
     <use xlink:href="#m2402fe4a27" x="186.060937" y="178.724351" style="fill-opacity: 0; stroke: #6a6a6a"/>
     <use xlink:href="#m2402fe4a27" x="186.060937" y="192.009566" style="fill-opacity: 0; stroke: #6a6a6a"/>
     <use xlink:href="#m2402fe4a27" x="186.060937" y="175.087459" style="fill-opacity: 0; stroke: #6a6a6a"/>
     <use xlink:href="#m2402fe4a27" x="186.060937" y="90.839241" style="fill-opacity: 0; stroke: #6a6a6a"/>
     <use xlink:href="#m2402fe4a27" x="186.060937" y="178.724351" style="fill-opacity: 0; stroke: #6a6a6a"/>
     <use xlink:href="#m2402fe4a27" x="186.060937" y="175.087459" style="fill-opacity: 0; stroke: #6a6a6a"/>
     <use xlink:href="#m2402fe4a27" x="186.060937" y="173.318184" style="fill-opacity: 0; stroke: #6a6a6a"/>
     <use xlink:href="#m2402fe4a27" x="186.060937" y="191.768365" style="fill-opacity: 0; stroke: #6a6a6a"/>
     <use xlink:href="#m2402fe4a27" x="186.060937" y="182.722614" style="fill-opacity: 0; stroke: #6a6a6a"/>
     <use xlink:href="#m2402fe4a27" x="186.060937" y="197.769052" style="fill-opacity: 0; stroke: #6a6a6a"/>
     <use xlink:href="#m2402fe4a27" x="186.060937" y="182.722614" style="fill-opacity: 0; stroke: #6a6a6a"/>
     <use xlink:href="#m2402fe4a27" x="186.060937" y="182.722614" style="fill-opacity: 0; stroke: #6a6a6a"/>
     <use xlink:href="#m2402fe4a27" x="186.060937" y="164.065537" style="fill-opacity: 0; stroke: #6a6a6a"/>
     <use xlink:href="#m2402fe4a27" x="186.060937" y="172.908095" style="fill-opacity: 0; stroke: #6a6a6a"/>
     <use xlink:href="#m2402fe4a27" x="186.060937" y="126.347612" style="fill-opacity: 0; stroke: #6a6a6a"/>
     <use xlink:href="#m2402fe4a27" x="186.060937" y="182.722614" style="fill-opacity: 0; stroke: #6a6a6a"/>
     <use xlink:href="#m2402fe4a27" x="186.060937" y="125.439914" style="fill-opacity: 0; stroke: #6a6a6a"/>
     <use xlink:href="#m2402fe4a27" x="186.060937" y="185.859684" style="fill-opacity: 0; stroke: #6a6a6a"/>
     <use xlink:href="#m2402fe4a27" x="186.060937" y="134.379005" style="fill-opacity: 0; stroke: #6a6a6a"/>
     <use xlink:href="#m2402fe4a27" x="186.060937" y="102.2225" style="fill-opacity: 0; stroke: #6a6a6a"/>
     <use xlink:href="#m2402fe4a27" x="186.060937" y="178.724351" style="fill-opacity: 0; stroke: #6a6a6a"/>
     <use xlink:href="#m2402fe4a27" x="186.060937" y="198.536425" style="fill-opacity: 0; stroke: #6a6a6a"/>
     <use xlink:href="#m2402fe4a27" x="186.060937" y="86.448681" style="fill-opacity: 0; stroke: #6a6a6a"/>
     <use xlink:href="#m2402fe4a27" x="186.060937" y="126.347612" style="fill-opacity: 0; stroke: #6a6a6a"/>
     <use xlink:href="#m2402fe4a27" x="186.060937" y="150.268334" style="fill-opacity: 0; stroke: #6a6a6a"/>
     <use xlink:href="#m2402fe4a27" x="186.060937" y="98.787516" style="fill-opacity: 0; stroke: #6a6a6a"/>
     <use xlink:href="#m2402fe4a27" x="186.060937" y="151.932327" style="fill-opacity: 0; stroke: #6a6a6a"/>
     <use xlink:href="#m2402fe4a27" x="186.060937" y="96.936179" style="fill-opacity: 0; stroke: #6a6a6a"/>
     <use xlink:href="#m2402fe4a27" x="186.060937" y="178.724351" style="fill-opacity: 0; stroke: #6a6a6a"/>
     <use xlink:href="#m2402fe4a27" x="186.060937" y="147.417376" style="fill-opacity: 0; stroke: #6a6a6a"/>
     <use xlink:href="#m2402fe4a27" x="186.060937" y="178.724351" style="fill-opacity: 0; stroke: #6a6a6a"/>
     <use xlink:href="#m2402fe4a27" x="186.060937" y="148.961991" style="fill-opacity: 0; stroke: #6a6a6a"/>
     <use xlink:href="#m2402fe4a27" x="186.060937" y="173.638757" style="fill-opacity: 0; stroke: #6a6a6a"/>
     <use xlink:href="#m2402fe4a27" x="186.060937" y="181.229118" style="fill-opacity: 0; stroke: #6a6a6a"/>
     <use xlink:href="#m2402fe4a27" x="186.060937" y="173.318184" style="fill-opacity: 0; stroke: #6a6a6a"/>
     <use xlink:href="#m2402fe4a27" x="186.060937" y="182.722614" style="fill-opacity: 0; stroke: #6a6a6a"/>
     <use xlink:href="#m2402fe4a27" x="186.060937" y="197.769052" style="fill-opacity: 0; stroke: #6a6a6a"/>
     <use xlink:href="#m2402fe4a27" x="186.060937" y="182.722614" style="fill-opacity: 0; stroke: #6a6a6a"/>
     <use xlink:href="#m2402fe4a27" x="186.060937" y="182.722614" style="fill-opacity: 0; stroke: #6a6a6a"/>
    </g>
   </g>
   <g id="patch_4">
    <path d="M 353.460938 307.095479 
L 576.660937 307.095479 
L 576.660937 197.125953 
L 353.460938 197.125953 
L 353.460938 307.095479 
z
" clip-path="url(#pc4cff85821)" style="fill: #f6f6bc; stroke: #6a6a6a; stroke-width: 2; stroke-linejoin: miter"/>
   </g>
   <g id="line2d_28">
    <path d="M 465.060938 307.095479 
L 465.060938 394.155937 
" clip-path="url(#pc4cff85821)" style="fill: none; stroke: #6a6a6a; stroke-width: 2"/>
   </g>
   <g id="line2d_29">
    <path d="M 465.060938 197.125953 
L 465.060938 143.242955 
" clip-path="url(#pc4cff85821)" style="fill: none; stroke: #6a6a6a; stroke-width: 2"/>
   </g>
   <g id="line2d_30">
    <path clip-path="url(#pc4cff85821)" style="fill: none; stroke: #6a6a6a; stroke-width: 2; stroke-linecap: square"/>
   </g>
   <g id="line2d_31">
    <path d="M 409.260938 143.242955 
L 520.860937 143.242955 
" clip-path="url(#pc4cff85821)" style="fill: none; stroke: #6a6a6a; stroke-width: 2; stroke-linecap: square"/>
   </g>
   <g id="line2d_32">
    <g clip-path="url(#pc4cff85821)">
     <use xlink:href="#m2402fe4a27" x="465.060938" y="128.790325" style="fill-opacity: 0; stroke: #6a6a6a"/>
     <use xlink:href="#m2402fe4a27" x="465.060938" y="86.448681" style="fill-opacity: 0; stroke: #6a6a6a"/>
     <use xlink:href="#m2402fe4a27" x="465.060938" y="128.790325" style="fill-opacity: 0; stroke: #6a6a6a"/>
     <use xlink:href="#m2402fe4a27" x="465.060938" y="38.184375" style="fill-opacity: 0; stroke: #6a6a6a"/>
     <use xlink:href="#m2402fe4a27" x="465.060938" y="125.439914" style="fill-opacity: 0; stroke: #6a6a6a"/>
     <use xlink:href="#m2402fe4a27" x="465.060938" y="134.379005" style="fill-opacity: 0; stroke: #6a6a6a"/>
     <use xlink:href="#m2402fe4a27" x="465.060938" y="90.839241" style="fill-opacity: 0; stroke: #6a6a6a"/>
     <use xlink:href="#m2402fe4a27" x="465.060938" y="126.347612" style="fill-opacity: 0; stroke: #6a6a6a"/>
     <use xlink:href="#m2402fe4a27" x="465.060938" y="86.620892" style="fill-opacity: 0; stroke: #6a6a6a"/>
     <use xlink:href="#m2402fe4a27" x="465.060938" y="120.251603" style="fill-opacity: 0; stroke: #6a6a6a"/>
     <use xlink:href="#m2402fe4a27" x="465.060938" y="134.98633" style="fill-opacity: 0; stroke: #6a6a6a"/>
     <use xlink:href="#m2402fe4a27" x="465.060938" y="134.379005" style="fill-opacity: 0; stroke: #6a6a6a"/>
     <use xlink:href="#m2402fe4a27" x="465.060938" y="135.445205" style="fill-opacity: 0; stroke: #6a6a6a"/>
     <use xlink:href="#m2402fe4a27" x="465.060938" y="134.98633" style="fill-opacity: 0; stroke: #6a6a6a"/>
     <use xlink:href="#m2402fe4a27" x="465.060938" y="86.448681" style="fill-opacity: 0; stroke: #6a6a6a"/>
     <use xlink:href="#m2402fe4a27" x="465.060938" y="96.936179" style="fill-opacity: 0; stroke: #6a6a6a"/>
     <use xlink:href="#m2402fe4a27" x="465.060938" y="125.439914" style="fill-opacity: 0; stroke: #6a6a6a"/>
     <use xlink:href="#m2402fe4a27" x="465.060938" y="135.445205" style="fill-opacity: 0; stroke: #6a6a6a"/>
     <use xlink:href="#m2402fe4a27" x="465.060938" y="38.184375" style="fill-opacity: 0; stroke: #6a6a6a"/>
     <use xlink:href="#m2402fe4a27" x="465.060938" y="102.278133" style="fill-opacity: 0; stroke: #6a6a6a"/>
     <use xlink:href="#m2402fe4a27" x="465.060938" y="96.936179" style="fill-opacity: 0; stroke: #6a6a6a"/>
     <use xlink:href="#m2402fe4a27" x="465.060938" y="126.347612" style="fill-opacity: 0; stroke: #6a6a6a"/>
     <use xlink:href="#m2402fe4a27" x="465.060938" y="96.936179" style="fill-opacity: 0; stroke: #6a6a6a"/>
     <use xlink:href="#m2402fe4a27" x="465.060938" y="102.278133" style="fill-opacity: 0; stroke: #6a6a6a"/>
     <use xlink:href="#m2402fe4a27" x="465.060938" y="38.184375" style="fill-opacity: 0; stroke: #6a6a6a"/>
     <use xlink:href="#m2402fe4a27" x="465.060938" y="86.620892" style="fill-opacity: 0; stroke: #6a6a6a"/>
     <use xlink:href="#m2402fe4a27" x="465.060938" y="102.278133" style="fill-opacity: 0; stroke: #6a6a6a"/>
     <use xlink:href="#m2402fe4a27" x="465.060938" y="120.251603" style="fill-opacity: 0; stroke: #6a6a6a"/>
    </g>
   </g>
   <g id="line2d_33">
    <path d="M 74.460937 319.570364 
L 297.660937 319.570364 
" clip-path="url(#pc4cff85821)" style="fill: none; stroke: #6a6a6a; stroke-width: 2"/>
   </g>
   <g id="line2d_34">
    <path d="M 353.460938 253.941395 
L 576.660937 253.941395 
" clip-path="url(#pc4cff85821)" style="fill: none; stroke: #6a6a6a; stroke-width: 2"/>
   </g>
   <g id="patch_5">
    <path d="M 46.560938 355.704375 
L 46.560938 23.064375 
" style="fill: none; stroke: #000000; stroke-width: 0.8; stroke-linejoin: miter; stroke-linecap: square"/>
   </g>
   <g id="patch_6">
    <path d="M 604.560938 355.704375 
L 604.560938 23.064375 
" style="fill: none; stroke: #000000; stroke-width: 0.8; stroke-linejoin: miter; stroke-linecap: square"/>
   </g>
   <g id="patch_7">
    <path d="M 46.560937 355.704375 
L 604.560938 355.704375 
" style="fill: none; stroke: #000000; stroke-width: 0.8; stroke-linejoin: miter; stroke-linecap: square"/>
   </g>
   <g id="patch_8">
    <path d="M 46.560937 23.064375 
L 604.560938 23.064375 
" style="fill: none; stroke: #000000; stroke-width: 0.8; stroke-linejoin: miter; stroke-linecap: square"/>
   </g>
   <g id="text_7">
    <!-- 생존 여부에 따른 티켓 요금(Fare)의 분포 (Log Scale) -->
    <g transform="translate(179.056875 17.064375) scale(0.12 -0.12)">
     <defs>
      <path id="AppleGothic-c5d0" d="M 2707 2669 
Q 2707 3430 2419 3750 
Q 2208 3981 1856 3981 
Q 1491 3981 1267 3686 
Q 1018 3341 1018 2624 
Q 1018 1235 1862 1235 
Q 2336 1235 2541 1696 
Q 2707 2061 2707 2669 
z
M 5670 5050 
Q 5670 4986 5664 4966 
Q 5632 4806 5632 4806 
L 5619 2336 
L 5626 -544 
L 5158 -544 
L 5184 2240 
L 5178 5184 
L 5286 5184 
Q 5453 5184 5561 5158 
Q 5670 5133 5670 5050 
z
M 4499 4966 
Q 4499 4954 4480 4886 
Q 4461 4819 4461 4768 
Q 4454 4506 4451 4230 
Q 4448 3955 4442 3648 
Q 4435 3341 4435 3069 
Q 4435 2797 4435 2554 
L 4448 -64 
L 3968 -64 
L 3994 2349 
L 3136 2349 
Q 3123 2253 3104 2157 
Q 3085 2061 3072 1965 
Q 2970 1523 2720 1235 
Q 2374 845 1818 845 
Q 1133 845 826 1389 
Q 576 1830 576 2675 
Q 576 3456 909 3910 
Q 1248 4384 1862 4384 
Q 2458 4384 2803 3930 
Q 3142 3488 3142 2752 
L 3987 2752 
L 4000 3968 
Q 4000 4230 4000 4416 
Q 4000 4602 3994 4710 
Q 3994 4832 3994 4918 
Q 3994 5005 3987 5069 
L 4064 5069 
Q 4250 5069 4374 5049 
Q 4499 5030 4499 4966 
z
" transform="scale(0.015625)"/>
      <path id="AppleGothic-b530" d="M 6080 1990 
L 5146 1990 
L 5139 1018 
Q 5139 672 5152 262 
Q 5165 -147 5178 -493 
L 4704 -506 
L 4723 1926 
Q 4723 2150 4713 2384 
Q 4704 2618 4698 2880 
L 4698 3136 
Q 4698 3699 4694 4070 
Q 4691 4442 4685 4627 
Q 4678 4813 4672 4950 
Q 4666 5088 4659 5184 
L 4794 5184 
Q 4979 5184 5088 5165 
Q 5197 5146 5197 5075 
Q 5197 5050 5177 4982 
Q 5158 4915 5158 4864 
L 5139 3949 
L 5146 2432 
L 6080 2438 
L 6080 1990 
z
M 4582 1254 
Q 4474 1222 4390 1206 
Q 4307 1190 4243 1178 
Q 3872 1094 3622 1094 
Q 3488 1069 3347 1049 
Q 3206 1030 3059 1011 
Q 2758 973 2669 973 
L 2669 2682 
L 2650 4339 
L 4211 4320 
L 4211 3898 
L 3110 3917 
L 3098 2918 
L 3117 1453 
L 3149 1446 
Q 3264 1446 3421 1462 
Q 3578 1478 3725 1517 
Q 3859 1530 4000 1552 
Q 4141 1574 4275 1600 
Q 4333 1613 4406 1625 
Q 4480 1638 4582 1664 
L 4582 1254 
z
M 2362 1267 
Q 2182 1229 2042 1210 
Q 1862 1184 1721 1161 
Q 1581 1139 1472 1126 
Q 1370 1114 1203 1098 
Q 1037 1082 800 1062 
Q 768 1062 720 1059 
Q 672 1056 621 1050 
L 640 2624 
L 627 4320 
L 2278 4326 
L 2278 3898 
L 1075 3898 
L 1069 2989 
L 1082 1504 
Q 1146 1510 1190 1513 
Q 1235 1517 1267 1517 
Q 1459 1536 1600 1555 
L 2336 1670 
L 2362 1267 
z
" transform="scale(0.015625)"/>
      <path id="AppleGothic-b978" d="M 5299 -269 
Q 5184 -262 5085 -262 
Q 4986 -262 4915 -262 
Q 4378 -250 4019 -243 
Q 3661 -237 3475 -237 
Q 2867 -237 2380 -243 
Q 1894 -250 1440 -269 
L 1453 403 
L 1427 1242 
L 1638 1248 
Q 1683 1248 1737 1245 
Q 1792 1242 1840 1235 
Q 1888 1229 1920 1209 
Q 1952 1190 1952 1165 
Q 1952 1120 1946 1101 
Q 1933 1037 1923 998 
Q 1914 960 1914 941 
L 1888 589 
L 1894 134 
L 3514 128 
Q 4058 128 4480 134 
Q 4902 141 5299 154 
L 5299 -269 
z
M 6061 1638 
Q 6016 1638 5894 1638 
Q 5773 1638 5574 1645 
Q 5190 1651 4474 1664 
Q 4122 1670 3811 1673 
Q 3501 1677 3219 1677 
Q 2733 1677 2329 1673 
Q 1926 1670 1594 1664 
Q 1261 1658 960 1651 
Q 659 1645 384 1632 
L 384 2029 
Q 634 2022 1434 2010 
Q 1837 2003 2272 2003 
Q 2707 2003 3206 2003 
L 4518 2003 
Q 4838 2003 5081 2006 
Q 5325 2010 5507 2016 
Q 5690 2022 5824 2025 
Q 5958 2029 6061 2029 
L 6061 1638 
z
M 5133 2547 
L 1280 2547 
L 1299 3251 
L 1293 3891 
Q 1440 3885 1638 3878 
Q 1837 3872 2080 3866 
L 2918 3866 
L 4640 3872 
L 4640 4486 
L 3213 4486 
Q 2816 4486 2521 4486 
Q 2227 4486 2035 4480 
Q 1843 4480 1657 4477 
Q 1472 4474 1293 4467 
L 1293 4845 
Q 1440 4838 1667 4838 
Q 1894 4838 2208 4832 
Q 2522 4826 2784 4826 
Q 3046 4826 3270 4826 
L 5075 4838 
L 5062 4275 
L 5075 3571 
L 3782 3584 
L 1747 3565 
L 1747 2886 
L 3494 2874 
Q 4058 2874 4442 2886 
Q 4826 2899 5114 2912 
L 5133 2547 
z
" transform="scale(0.015625)"/>
      <path id="AppleGothic-c758" d="M 3571 3379 
Q 3571 4218 2573 4218 
Q 2061 4218 1776 3987 
Q 1491 3757 1491 3386 
Q 1491 2970 1786 2733 
Q 2054 2522 2509 2522 
Q 3059 2522 3328 2765 
Q 3571 2976 3571 3379 
z
M 4608 1094 
Q 4134 1018 3872 979 
Q 3456 928 3120 899 
Q 2784 870 2528 870 
L 902 813 
Q 858 800 816 790 
Q 774 781 730 768 
Q 653 768 608 941 
Q 563 1114 563 1242 
L 2477 1248 
Q 2938 1248 3334 1273 
Q 3731 1299 4070 1350 
Q 4282 1376 4576 1459 
L 4608 1094 
z
M 5466 5069 
Q 5466 5037 5437 4944 
Q 5408 4851 5408 4813 
L 5408 2298 
Q 5408 2010 5411 1683 
Q 5414 1357 5421 973 
Q 5427 595 5433 230 
Q 5440 -134 5453 -499 
L 4973 -557 
L 4973 45 
Q 4979 237 4979 512 
Q 4979 787 4986 1158 
Q 4992 1523 4992 1788 
Q 4992 2054 4992 2221 
Q 4992 2880 4985 3357 
Q 4979 3834 4966 4122 
Q 4954 4410 4944 4675 
Q 4934 4941 4922 5184 
L 5024 5184 
Q 5190 5184 5328 5158 
Q 5466 5133 5466 5069 
z
M 4006 3328 
Q 4006 2790 3578 2464 
Q 3155 2138 2528 2138 
Q 1894 2138 1504 2445 
Q 1088 2765 1088 3341 
Q 1088 3955 1517 4288 
Q 1920 4602 2541 4602 
Q 3174 4602 3597 4269 
Q 4006 3936 4006 3354 
L 4006 3328 
z
" transform="scale(0.015625)"/>
      <path id="AppleGothic-bd84" d="M 4557 3194 
L 4557 4077 
L 3130 4096 
L 1754 4077 
L 1754 3194 
L 3110 3174 
L 4557 3194 
z
M 5210 -429 
L 3194 -410 
L 1325 -429 
L 1338 474 
L 1325 1197 
L 1549 1203 
Q 1645 1203 1741 1190 
Q 1837 1178 1837 1114 
Q 1837 1094 1817 1030 
Q 1798 966 1798 934 
L 1792 -38 
L 3194 -38 
Q 3539 -38 3820 -38 
Q 4102 -38 4342 -32 
Q 4582 -26 4793 -22 
Q 5005 -19 5210 -6 
L 5210 -429 
z
M 6016 1760 
Q 5504 1760 4614 1779 
Q 4166 1792 3878 1798 
Q 3590 1805 3462 1805 
L 3475 627 
L 2995 621 
L 3002 1805 
L 1670 1792 
Q 1222 1792 915 1779 
Q 608 1766 384 1754 
L 384 2182 
Q 474 2182 621 2179 
Q 768 2176 979 2170 
Q 1190 2163 1472 2160 
Q 1754 2157 2099 2150 
Q 2445 2144 2720 2141 
Q 2995 2138 3200 2138 
Q 3744 2138 4550 2157 
Q 4960 2170 5213 2176 
Q 5466 2182 5568 2189 
Q 5677 2195 5789 2201 
Q 5901 2208 6016 2214 
L 6016 1760 
z
M 5043 5094 
Q 5043 5069 5024 5011 
Q 5005 4954 5005 4934 
L 4992 4122 
L 5011 2803 
L 3104 2822 
L 1306 2803 
Q 1306 2880 1309 3005 
Q 1312 3130 1315 3280 
Q 1318 3430 1321 3593 
Q 1325 3757 1325 3917 
Q 1325 4390 1318 4678 
Q 1312 4966 1299 5158 
L 1472 5165 
Q 1613 5165 1699 5142 
Q 1786 5120 1786 5056 
Q 1786 5024 1770 4957 
Q 1754 4890 1754 4870 
L 1754 4442 
L 3136 4422 
L 4557 4442 
L 4544 5197 
L 4704 5203 
Q 4851 5203 4947 5180 
Q 5043 5158 5043 5094 
z
" transform="scale(0.015625)"/>
      <path id="AppleGothic-d3ec" d="M 6029 83 
Q 5523 96 4883 102 
Q 4243 109 3546 109 
L 3213 109 
Q 2739 109 2259 102 
Q 1779 96 1274 83 
Q 1094 77 870 70 
Q 646 64 371 51 
L 371 525 
Q 634 512 976 499 
Q 1318 486 1734 486 
L 2970 486 
L 2982 1094 
L 2970 1734 
L 2029 1734 
L 1011 1696 
L 1011 2131 
L 1581 2118 
L 2125 2125 
L 2029 2874 
Q 1997 3059 1971 3203 
Q 1946 3347 1920 3437 
Q 1907 3482 1894 3536 
Q 1882 3590 1869 3648 
L 2298 3680 
Q 2362 3680 2400 3654 
Q 2438 3629 2438 3552 
Q 2438 3366 2448 3187 
Q 2458 3008 2483 2835 
Q 2496 2714 2512 2598 
Q 2528 2483 2541 2368 
Q 2547 2317 2560 2256 
Q 2573 2195 2586 2112 
L 3168 2099 
L 3776 2118 
Q 3789 2182 3801 2230 
Q 3814 2278 3821 2317 
Q 3853 2470 3875 2595 
Q 3898 2720 3910 2816 
Q 3968 3245 3987 3603 
Q 3987 3622 3987 3648 
Q 3987 3674 3994 3706 
Q 4096 3706 4195 3699 
Q 4294 3693 4371 3677 
Q 4448 3661 4493 3641 
Q 4538 3622 4538 3603 
Q 4538 3571 4506 3507 
Q 4474 3443 4461 3386 
Q 4454 3354 4451 3322 
Q 4448 3290 4442 3238 
Q 4435 3187 4412 3065 
Q 4390 2944 4358 2739 
L 4243 2125 
L 4704 2125 
Q 4890 2125 5050 2137 
Q 5210 2150 5338 2163 
L 5338 1702 
Q 5235 1709 5161 1712 
Q 5088 1715 5024 1715 
Q 4563 1734 4442 1734 
L 3456 1734 
L 3443 1094 
L 3456 486 
L 4685 493 
L 6029 538 
L 6029 83 
z
M 5344 4026 
Q 5210 4032 5098 4032 
Q 4986 4032 4896 4032 
Q 4275 4045 3859 4051 
Q 3443 4058 3226 4058 
Q 2982 4058 2649 4051 
Q 2317 4045 1875 4032 
Q 1722 4026 1507 4019 
Q 1293 4013 1011 4000 
L 1011 4448 
Q 1459 4435 2022 4422 
Q 2586 4410 3226 4410 
Q 3706 4410 4058 4413 
Q 4410 4416 4627 4422 
Q 4845 4435 5021 4444 
Q 5197 4454 5344 4467 
L 5344 4026 
z
" transform="scale(0.015625)"/>
      <path id="AppleGothic-4c" d="M 333 5018 
L 838 5018 
L 838 442 
L 3315 442 
L 3315 0 
L 333 0 
L 333 5018 
z
" transform="scale(0.015625)"/>
      <path id="AppleGothic-6f" d="M 1888 -83 
Q 1229 -83 730 397 
Q 198 902 198 1709 
Q 198 2470 666 2982 
Q 1146 3501 1850 3501 
Q 2547 3501 3027 2982 
Q 3501 2470 3501 1715 
Q 3501 922 2989 403 
Q 2515 -83 1888 -83 
z
M 1843 339 
Q 2304 339 2662 723 
Q 3008 1114 3008 1715 
Q 3008 2336 2637 2726 
Q 2298 3085 1850 3085 
Q 1389 3085 1062 2714 
Q 704 2304 704 1709 
Q 704 1107 1056 704 
Q 1382 339 1843 339 
z
" transform="scale(0.015625)"/>
      <path id="AppleGothic-67" d="M 2822 3040 
L 2950 3424 
L 3290 3424 
L 3290 326 
Q 3290 -474 2899 -890 
Q 2509 -1306 1690 -1306 
Q 1357 -1306 1059 -1187 
Q 762 -1069 435 -819 
L 435 -256 
Q 640 -448 838 -579 
Q 1037 -710 1229 -781 
Q 1453 -864 1690 -864 
Q 2195 -864 2477 -634 
Q 2822 -352 2822 269 
L 2822 691 
Q 2579 288 2221 122 
Q 1978 6 1683 6 
Q 1050 6 621 512 
Q 198 1030 198 1709 
Q 198 2387 595 2906 
Q 1056 3501 1773 3501 
Q 2131 3501 2451 3328 
Q 2547 3270 2640 3200 
Q 2733 3130 2822 3040 
z
M 2822 1658 
L 2822 2598 
Q 2714 2720 2602 2803 
Q 2490 2886 2381 2950 
Q 2253 3021 2118 3053 
Q 1984 3085 1843 3085 
Q 1363 3085 1050 2746 
Q 698 2362 698 1734 
Q 698 1165 992 794 
Q 1280 429 1741 429 
Q 2195 429 2509 781 
Q 2822 1120 2822 1658 
z
" transform="scale(0.015625)"/>
      <path id="AppleGothic-53" d="M 3418 4666 
L 3418 4019 
Q 3251 4160 3081 4269 
Q 2912 4378 2746 4448 
Q 2362 4627 1965 4627 
Q 1466 4627 1139 4378 
Q 806 4122 806 3770 
Q 806 3258 1562 3002 
Q 1914 2880 2262 2768 
Q 2611 2656 2970 2541 
Q 3731 2176 3731 1453 
Q 3731 749 3187 320 
Q 2669 -83 1901 -83 
Q 1389 -83 915 115 
Q 640 224 262 474 
L 262 1126 
Q 755 685 1261 506 
Q 1427 442 1587 416 
Q 1747 390 1907 390 
Q 2419 390 2771 646 
Q 3162 928 3162 1382 
Q 3162 1933 2419 2221 
Q 2061 2330 1715 2445 
Q 1370 2560 1024 2669 
Q 275 3014 275 3731 
Q 275 4333 749 4710 
Q 1235 5101 1965 5101 
Q 2413 5101 2861 4934 
Q 3091 4858 3418 4666 
z
" transform="scale(0.015625)"/>
      <path id="AppleGothic-63" d="M 3085 3123 
L 3085 2522 
Q 2726 2861 2349 3008 
Q 2240 3053 2125 3069 
Q 2010 3085 1894 3085 
Q 1363 3085 1024 2688 
Q 685 2278 685 1715 
Q 685 1139 1037 730 
Q 1389 339 1920 339 
Q 2253 339 2528 483 
Q 2803 627 3085 915 
L 3085 307 
Q 2746 96 2470 6 
Q 2195 -83 1914 -83 
Q 1197 -83 685 429 
Q 186 960 186 1709 
Q 186 2445 678 2976 
Q 1178 3501 1920 3501 
Q 2298 3501 2624 3373 
Q 2816 3302 3085 3123 
z
" transform="scale(0.015625)"/>
      <path id="AppleGothic-6c" d="M 288 5018 
L 749 5018 
L 749 0 
L 288 0 
L 288 5018 
z
" transform="scale(0.015625)"/>
     </defs>
     <use xlink:href="#AppleGothic-c0dd"/>
     <use xlink:href="#AppleGothic-c874" transform="translate(99.999985 0)"/>
     <use xlink:href="#AppleGothic-20" transform="translate(199.999969 0)"/>
     <use xlink:href="#AppleGothic-c5ec" transform="translate(231.999954 0)"/>
     <use xlink:href="#AppleGothic-bd80" transform="translate(331.999939 0)"/>
     <use xlink:href="#AppleGothic-c5d0" transform="translate(431.999924 0)"/>
     <use xlink:href="#AppleGothic-20" transform="translate(531.999908 0)"/>
     <use xlink:href="#AppleGothic-b530" transform="translate(563.999893 0)"/>
     <use xlink:href="#AppleGothic-b978" transform="translate(663.999878 0)"/>
     <use xlink:href="#AppleGothic-20" transform="translate(763.999863 0)"/>
     <use xlink:href="#AppleGothic-d2f0" transform="translate(795.999847 0)"/>
     <use xlink:href="#AppleGothic-cf13" transform="translate(895.999832 0)"/>
     <use xlink:href="#AppleGothic-20" transform="translate(995.999817 0)"/>
     <use xlink:href="#AppleGothic-c694" transform="translate(1027.999802 0)"/>
     <use xlink:href="#AppleGothic-ae08" transform="translate(1127.999786 0)"/>
     <use xlink:href="#AppleGothic-28" transform="translate(1227.999771 0)"/>
     <use xlink:href="#AppleGothic-46" transform="translate(1277.999756 0)"/>
     <use xlink:href="#AppleGothic-61" transform="translate(1336.199753 0)"/>
     <use xlink:href="#AppleGothic-72" transform="translate(1392.699738 0)"/>
     <use xlink:href="#AppleGothic-65" transform="translate(1427.899734 0)"/>
     <use xlink:href="#AppleGothic-29" transform="translate(1482.799728 0)"/>
     <use xlink:href="#AppleGothic-c758" transform="translate(1532.799713 0)"/>
     <use xlink:href="#AppleGothic-20" transform="translate(1632.799698 0)"/>
     <use xlink:href="#AppleGothic-bd84" transform="translate(1664.799683 0)"/>
     <use xlink:href="#AppleGothic-d3ec" transform="translate(1764.799667 0)"/>
     <use xlink:href="#AppleGothic-20" transform="translate(1864.799652 0)"/>
     <use xlink:href="#AppleGothic-28" transform="translate(1896.799637 0)"/>
     <use xlink:href="#AppleGothic-4c" transform="translate(1946.799622 0)"/>
     <use xlink:href="#AppleGothic-6f" transform="translate(2001.999619 0)"/>
     <use xlink:href="#AppleGothic-67" transform="translate(2060.299606 0)"/>
     <use xlink:href="#AppleGothic-20" transform="translate(2116.499603 0)"/>
     <use xlink:href="#AppleGothic-53" transform="translate(2148.499588 0)"/>
     <use xlink:href="#AppleGothic-63" transform="translate(2211.699585 0)"/>
     <use xlink:href="#AppleGothic-61" transform="translate(2263.599579 0)"/>
     <use xlink:href="#AppleGothic-6c" transform="translate(2320.099564 0)"/>
     <use xlink:href="#AppleGothic-65" transform="translate(2336.799561 0)"/>
     <use xlink:href="#AppleGothic-29" transform="translate(2391.699554 0)"/>
    </g>
   </g>
  </g>
 </g>
 <defs>
  <clipPath id="pc4cff85821">
   <rect x="46.560938" y="23.064375" width="558" height="332.64"/>
  </clipPath>
 </defs>
</svg>
