<svg xmlns="http://www.w3.org/2000/svg" width="800" height="400" viewBox="0 0 800 400">
  <rect width="800" height="400" fill="#f8f9fa" rx="15" stroke="#e9ecef" stroke-width="2"/>
  <text x="400" y="40" font-family="Arial, sans-serif" font-size="22" font-weight="bold" fill="#2c3e50" text-anchor="middle">Step 1: 소매점 매출 분석 데이터 구조</text>
  <g transform="translate(100, 90)">
    <rect x="0" y="0" width="220" height="240" fill="#fff" stroke="#3498db" stroke-width="2" rx="10"/>
    <rect x="0" y="0" width="220" height="40" fill="#3498db" rx="10"/>
    <rect x="0" y="20" width="220" height="20" fill="#3498db"/>
    <text x="110" y="25" font-family="Arial" font-size="16" fill="#fff" font-weight="bold" text-anchor="middle">Features (독립변수)</text>
    <text x="20" y="80" font-family="Courier" font-size="12" fill="#2c3e50">• Date: 주문 거래 일자 (YYYY-MM-DD)</text>
    <text x="20" y="110" font-family="Courier" font-size="12" fill="#2c3e50">• Category: 판매 제품 카테고리</text>
    <text x="20" y="140" font-family="Courier" font-size="12" fill="#2c3e50">• Quantity: 한 번에 구매한 수량</text>
    <text x="20" y="170" font-family="Courier" font-size="12" fill="#2c3e50">• Payment: 결제 수단 (현금, 카드)</text>
  </g>
  <path d="M340,190 L440,190 M420,180 L440,190 L420,200" fill="none" stroke="#2c3e50" stroke-width="4"/>
  <text x="390" y="175" font-family="Arial" font-size="14" fill="#2c3e50" font-weight="bold" text-anchor="middle">분석</text>
  <g transform="translate(480, 90)">
    <rect x="0" y="0" width="220" height="240" fill="#fff" stroke="#e74c3c" stroke-width="2" rx="10"/>
    <rect x="0" y="0" width="220" height="40" fill="#e74c3c" rx="10"/>
    <rect x="0" y="20" width="220" height="20" fill="#e74c3c"/>
    <text x="110" y="25" font-family="Arial" font-size="16" fill="#fff" font-weight="bold" text-anchor="middle">Target (종속변수)</text>
    <text x="20" y="100" font-family="Courier" font-size="14" fill="#c0392b" font-weight="bold">• Price</text>
    <text x="20" y="130" font-family="Arial" font-size="12" fill="#7f8c8d">개당 제품 판매 가격</text>
    <text x="20" y="160" font-family="Arial" font-size="12" fill="#7f8c8d">매출의 기본 집계 요소</text>
  </g>
  <rect x="150" y="350" width="500" height="35" fill="#eaf2f8" rx="5"/>
  <text x="400" y="372" font-family="Arial" font-size="13" fill="#34495e" font-weight="bold" text-anchor="middle">거래 데이터를 시계열 월 단위로 병합하여 연간 매출 트렌드 도출</text>
</svg>