<svg width="72" height="20" viewBox="0 0 72 20" fill="none" xmlns="http://www.w3.org/2000/svg">
<text x="25" y="15" font-family="Arial, sans-serif" font-weight="bold" font-size="16" fill="white">Jiny</text>
<path d="M7.05141 11.5166C7.05141 11.737 6.92999 11.9158 6.7802 11.9158C6.63042 11.9158 6.50899 11.737 6.50899 11.5166C6.50899 11.2961 6.63042 11.1174 6.7802 11.1174C6.92999 11.1174 7.05141 11.2961 7.05141 11.5166Z" fill="white"/>
<path d="M12.0688 11.5166C12.0688 11.737 12.1902 11.9158 12.34 11.9158C12.4898 11.9158 12.6112 11.737 12.6112 11.5166C12.6112 11.2961 12.4898 11.1174 12.34 11.1174C12.1902 11.1174 12.0688 11.2961 12.0688 11.5166Z" fill="white"/>
<path d="M10.1477 14.1113C9.69571 14.4661 9.08548 14.2887 8.92728 14.1113C8.97248 14.333 9.14425 14.6435 9.5601 14.6435C9.97595 14.6435 10.1251 14.2887 10.1477 14.1113Z" fill="white"/>
<path fill-rule="evenodd" clip-rule="evenodd" d="M17.3988 9.10975C17.9139 7.82318 18.4347 5.13638 17.3122 3.73256C17.7265 3.3112 18.6953 2.59266 19.2558 2.91201C19.1127 1.79577 17.9877 -0.358813 14.6453 0.0511719C13.9173 0.140468 13.3893 0.301305 12.8914 0.452963C11.6583 0.828624 10.6099 1.14797 7.1644 0.18423C4.47492 -0.414531 2.35046 1.24875 2.35046 2.95636C1.31108 3.68803 0.158772 5.63869 1.69391 9.11887C1.18731 9.29216 0.79805 9.71111 0.674336 10.2303H0.271208C0.121423 10.2303 0 10.3494 0 10.4964V11.2061C0 11.3531 0.121423 11.4722 0.271208 11.4722H0.632819V12.8472C0.632819 13.7046 1.34113 14.3996 2.21487 14.3996H7.18701C8.06075 14.3996 8.76907 13.7046 8.76907 12.8472V12.1375H10.3511V12.8472C10.3511 13.7046 11.0594 14.3996 11.9332 14.3996H16.9053C17.7791 14.3996 18.4874 13.7046 18.4874 12.8472V11.4722H18.8038C18.9536 11.4722 19.075 11.3531 19.075 11.2061V10.4964C19.075 10.3494 18.9536 10.2303 18.8038 10.2303H18.4459C18.3199 9.70176 17.9188 9.2771 17.3988 9.10975ZM2.83633 8.95659C2.84024 8.98277 2.84403 9.00816 2.84768 9.03274H7.18701C8.06075 9.03274 8.76907 9.72777 8.76907 10.5851V10.8956H10.3511V10.5851C10.3511 9.72777 11.0594 9.03274 11.9332 9.03274H16.153C16.3963 6.25763 16.1161 5.14054 15.8431 4.9523C12.5746 7.27059 9.65507 6.53372 8.75267 6.30595C8.50696 6.24394 8.41079 6.21966 8.49785 6.30509C8.76313 6.5654 9.36679 6.87777 9.79718 7.10048L9.79725 7.10052C9.89483 7.15102 9.98351 7.19691 10.0573 7.23653C6.50919 7.27678 5.08276 5.60033 4.66339 5.10744C4.62063 5.05718 4.58833 5.01923 4.56533 4.99666C4.36067 4.79584 3.20929 4.10957 2.84767 5.41802C2.49741 6.68541 2.71924 8.17191 2.83633 8.95659ZM4.52736 1.68732C5.70035 0.501901 7.93254 0.815025 8.7989 1.11072C6.92304 0.0462219 5.06977 0.667179 4.32395 1.02201C3.57813 1.37684 2.6289 2.5744 3.03571 2.97358C3.44252 3.37275 3.96234 2.44134 3.96234 2.44134C3.96234 2.44134 4.26788 1.94954 4.52736 1.68732ZM2.21487 9.91982H7.18701C7.56147 9.91982 7.86503 10.2177 7.86503 10.5851V12.8472C7.86503 13.2146 7.56147 13.5125 7.18701 13.5125H2.21487C1.84041 13.5125 1.53685 13.2146 1.53685 12.8472V10.5851C1.53685 10.2177 1.84041 9.91982 2.21487 9.91982ZM16.9053 9.91982H11.9332C11.5587 9.91982 11.2552 10.2177 11.2552 10.5851V12.8472C11.2552 13.2146 11.5587 13.5125 11.9332 13.5125H16.9053C17.2798 13.5125 17.5834 13.2146 17.5834 12.8472V10.5851C17.5834 10.2177 17.2798 9.91982 16.9053 9.91982Z" fill="white"/>
<path fill-rule="evenodd" clip-rule="evenodd" d="M8.61857 15.7276C8.63736 15.6438 8.72177 15.5909 8.8071 15.6093L10.404 15.9543C10.4893 15.9727 10.5433 16.0556 10.5245 16.1393C10.5057 16.223 10.4213 16.276 10.336 16.2575L8.73906 15.9125C8.65373 15.8941 8.59979 15.8113 8.61857 15.7276Z" fill="white"/>
<path d="M9.5375 19.4116C6.39148 19.4471 4.08318 16.6025 3.32229 15.1758C3.2093 14.9639 3.1189 14.9318 3.0511 14.9762C2.94261 15.0472 3.02095 15.1906 3.05109 15.2645C3.43078 16.1338 3.94758 16.8686 4.15852 17.1274C3.41722 18.3338 3.17162 19.5373 3.14149 19.9882C4.37097 18.7995 5.6125 18.8572 6.07958 19.0346C9.74088 20.8974 11.775 19.589 12.9276 19.0346C13.8497 18.591 15.2856 19.4559 15.8883 19.9438C15.816 18.8439 15.2103 17.6374 14.9165 17.1717C15.3911 16.5508 15.7753 15.7967 15.9787 15.4197C16.1414 15.1181 16.0917 14.9984 16.0465 14.9762C15.938 14.923 15.8054 15.0871 15.7527 15.1758C15.4137 15.7302 13.47 19.3672 9.5375 19.4116Z" fill="white"/>
</svg>
