<?xml version="1.0" encoding="utf-8" standalone="no"?>
<!DOCTYPE svg PUBLIC "-//W3C//DTD SVG 1.1//EN"
  "http://www.w3.org/Graphics/SVG/1.1/DTD/svg11.dtd">
<svg xmlns:xlink="http://www.w3.org/1999/xlink" width="612.333125pt" height="342.498906pt" viewBox="0 0 612.333125 342.498906" xmlns="http://www.w3.org/2000/svg" version="1.1">
 <metadata>
  <rdf:RDF xmlns:dc="http://purl.org/dc/elements/1.1/" xmlns:cc="http://creativecommons.org/ns#" xmlns:rdf="http://www.w3.org/1999/02/22-rdf-syntax-ns#">
   <cc:Work>
    <dc:type rdf:resource="http://purl.org/dc/dcmitype/StillImage"/>
    <dc:date>2026-05-22T02:33:55.147012</dc:date>
    <dc:format>image/svg+xml</dc:format>
    <dc:creator>
     <cc:Agent>
      <dc:title>Matplotlib v3.10.9, https://matplotlib.org/</dc:title>
     </cc:Agent>
    </dc:creator>
   </cc:Work>
  </rdf:RDF>
 </metadata>
 <defs>
  <style type="text/css">*{stroke-linejoin: round; stroke-linecap: butt}</style>
 </defs>
 <g id="figure_1">
  <g id="patch_1">
   <path d="M 0 342.498906 
L 612.333125 342.498906 
L 612.333125 0 
L 0 0 
z
" style="fill: #ffffff"/>
  </g>
  <g id="axes_1">
   <g id="patch_2">
    <path d="M 47.133125 299.80875 
L 605.133125 299.80875 
L 605.133125 22.60875 
L 47.133125 22.60875 
z
" style="fill: #ffffff"/>
   </g>
   <g id="matplotlib.axis_1">
    <g id="xtick_1">
     <g id="line2d_1">
      <defs>
       <path id="mec38da019a" d="M 0 0 
L 0 6 
" style="stroke: #262626; stroke-width: 1.25"/>
      </defs>
      <g>
       <use xlink:href="#mec38da019a" x="58.003255" y="299.80875" style="fill: #262626; stroke: #262626; stroke-width: 1.25"/>
      </g>
     </g>
     <g id="text_1">
      <!-- 1.5 -->
      <g style="fill: #262626" transform="translate(48.625755 317.933438) scale(0.11 -0.11)">
       <defs>
        <path id="AppleGothic-31" d="M 2342 4774 
L 2752 4774 
L 2752 0 
L 2285 0 
L 2285 3526 
L 1158 3526 
L 1158 3885 
L 1414 3885 
Q 1990 3885 2214 4205 
Q 2342 4410 2342 4774 
z
" transform="scale(0.015625)"/>
        <path id="AppleGothic-2e" d="M 915 -19 
Q 762 -19 653 109 
Q 544 237 544 422 
Q 544 614 656 745 
Q 768 877 915 877 
Q 1056 877 1168 758 
Q 1280 640 1280 435 
Q 1280 243 1171 112 
Q 1062 -19 915 -19 
z
" transform="scale(0.015625)"/>
        <path id="AppleGothic-35" d="M 621 4768 
L 3488 4768 
L 3488 4339 
L 1088 4339 
L 1088 2707 
Q 1184 2771 1293 2819 
Q 1402 2867 1510 2912 
Q 1862 3040 2259 3040 
Q 2989 3040 3424 2605 
Q 3827 2202 3827 1581 
Q 3827 870 3296 397 
Q 2765 -83 2010 -83 
Q 1651 -83 1248 45 
Q 1158 77 1001 137 
Q 845 198 621 301 
L 621 838 
Q 928 640 1203 525 
Q 1408 435 1613 390 
Q 1818 346 2010 346 
Q 2528 346 2906 666 
Q 3322 1011 3322 1536 
Q 3322 1990 3021 2291 
Q 2701 2611 2144 2611 
Q 1856 2611 1587 2528 
Q 1318 2445 1088 2272 
L 621 2272 
L 621 4768 
z
" transform="scale(0.015625)"/>
       </defs>
       <use xlink:href="#AppleGothic-31"/>
       <use xlink:href="#AppleGothic-2e" transform="translate(67.999985 0)"/>
       <use xlink:href="#AppleGothic-35" transform="translate(102.499969 0)"/>
      </g>
     </g>
    </g>
    <g id="xtick_2">
     <g id="line2d_2">
      <g>
       <use xlink:href="#mec38da019a" x="130.470787" y="299.80875" style="fill: #262626; stroke: #262626; stroke-width: 1.25"/>
      </g>
     </g>
     <g id="text_2">
      <!-- 2.0 -->
      <g style="fill: #262626" transform="translate(121.093287 317.933438) scale(0.11 -0.11)">
       <defs>
        <path id="AppleGothic-32" d="M 1101 429 
L 3942 429 
L 3942 0 
L 653 0 
L 653 205 
Q 653 1018 1344 1664 
Q 1670 1894 1990 2124 
Q 2310 2355 2637 2592 
Q 3334 3098 3334 3597 
Q 3334 3994 3014 4218 
Q 2867 4326 2694 4377 
Q 2522 4429 2317 4429 
Q 2016 4429 1741 4352 
Q 1325 4224 883 3910 
L 883 4435 
Q 1325 4659 1667 4758 
Q 2010 4858 2317 4858 
Q 2963 4858 3405 4525 
Q 3840 4198 3840 3622 
Q 3840 2995 3168 2438 
Q 2848 2214 2531 2000 
Q 2214 1786 1894 1562 
Q 1178 1024 1101 429 
z
" transform="scale(0.015625)"/>
        <path id="AppleGothic-30" d="M 2227 -83 
Q 1414 -83 934 576 
Q 461 1229 461 2387 
Q 461 3552 973 4218 
Q 1453 4858 2221 4858 
Q 3027 4858 3482 4173 
Q 3955 3494 3955 2394 
Q 3955 1248 3462 582 
Q 2976 -83 2227 -83 
z
M 2176 346 
Q 2861 346 3200 992 
Q 3462 1536 3462 2400 
Q 3462 3315 3162 3859 
Q 2822 4429 2214 4429 
Q 1574 4429 1248 3821 
Q 960 3283 960 2374 
Q 960 1478 1248 941 
Q 1574 346 2176 346 
z
" transform="scale(0.015625)"/>
       </defs>
       <use xlink:href="#AppleGothic-32"/>
       <use xlink:href="#AppleGothic-2e" transform="translate(67.999985 0)"/>
       <use xlink:href="#AppleGothic-30" transform="translate(102.499969 0)"/>
      </g>
     </g>
    </g>
    <g id="xtick_3">
     <g id="line2d_3">
      <g>
       <use xlink:href="#mec38da019a" x="202.93832" y="299.80875" style="fill: #262626; stroke: #262626; stroke-width: 1.25"/>
      </g>
     </g>
     <g id="text_3">
      <!-- 2.5 -->
      <g style="fill: #262626" transform="translate(193.56082 317.933438) scale(0.11 -0.11)">
       <use xlink:href="#AppleGothic-32"/>
       <use xlink:href="#AppleGothic-2e" transform="translate(67.999985 0)"/>
       <use xlink:href="#AppleGothic-35" transform="translate(102.499969 0)"/>
      </g>
     </g>
    </g>
    <g id="xtick_4">
     <g id="line2d_4">
      <g>
       <use xlink:href="#mec38da019a" x="275.405852" y="299.80875" style="fill: #262626; stroke: #262626; stroke-width: 1.25"/>
      </g>
     </g>
     <g id="text_4">
      <!-- 3.0 -->
      <g style="fill: #262626" transform="translate(266.028352 317.933438) scale(0.11 -0.11)">
       <defs>
        <path id="AppleGothic-33" d="M 550 333 
L 550 870 
Q 883 621 1235 483 
Q 1587 346 1971 346 
Q 2522 346 2861 666 
Q 3219 992 3219 1421 
Q 3219 1869 2842 2099 
Q 2515 2304 1965 2304 
L 992 2304 
L 992 2701 
L 1658 2701 
Q 2298 2701 2662 2928 
Q 3027 3155 3027 3584 
Q 3027 3936 2752 4173 
Q 2458 4429 1978 4429 
Q 1786 4429 1597 4393 
Q 1408 4358 1222 4282 
Q 890 4141 531 3872 
L 531 4422 
Q 736 4531 912 4608 
Q 1088 4685 1254 4736 
Q 1626 4858 2022 4858 
Q 2650 4858 3066 4531 
Q 3488 4211 3488 3642 
Q 3488 3168 3168 2861 
Q 2976 2675 2643 2554 
Q 2874 2522 3053 2448 
Q 3232 2374 3366 2266 
Q 3718 1971 3718 1434 
Q 3718 813 3219 365 
Q 2714 -83 1965 -83 
Q 1549 -83 1126 70 
Q 1024 102 880 166 
Q 736 230 550 333 
z
" transform="scale(0.015625)"/>
       </defs>
       <use xlink:href="#AppleGothic-33"/>
       <use xlink:href="#AppleGothic-2e" transform="translate(67.999985 0)"/>
       <use xlink:href="#AppleGothic-30" transform="translate(102.499969 0)"/>
      </g>
     </g>
    </g>
    <g id="xtick_5">
     <g id="line2d_5">
      <g>
       <use xlink:href="#mec38da019a" x="347.873385" y="299.80875" style="fill: #262626; stroke: #262626; stroke-width: 1.25"/>
      </g>
     </g>
     <g id="text_5">
      <!-- 3.5 -->
      <g style="fill: #262626" transform="translate(338.495885 317.933438) scale(0.11 -0.11)">
       <use xlink:href="#AppleGothic-33"/>
       <use xlink:href="#AppleGothic-2e" transform="translate(67.999985 0)"/>
       <use xlink:href="#AppleGothic-35" transform="translate(102.499969 0)"/>
      </g>
     </g>
    </g>
    <g id="xtick_6">
     <g id="line2d_6">
      <g>
       <use xlink:href="#mec38da019a" x="420.340917" y="299.80875" style="fill: #262626; stroke: #262626; stroke-width: 1.25"/>
      </g>
     </g>
     <g id="text_6">
      <!-- 4.0 -->
      <g style="fill: #262626" transform="translate(410.963417 317.933438) scale(0.11 -0.11)">
       <defs>
        <path id="AppleGothic-34" d="M 2662 4774 
L 3130 4774 
L 3130 1811 
L 4000 1811 
L 4000 1382 
L 3130 1382 
L 3130 0 
L 2662 0 
L 2662 1382 
L 352 1382 
L 352 1811 
L 2662 4774 
z
M 2662 1811 
L 2662 4166 
L 838 1811 
L 2662 1811 
z
" transform="scale(0.015625)"/>
       </defs>
       <use xlink:href="#AppleGothic-34"/>
       <use xlink:href="#AppleGothic-2e" transform="translate(67.999985 0)"/>
       <use xlink:href="#AppleGothic-30" transform="translate(102.499969 0)"/>
      </g>
     </g>
    </g>
    <g id="xtick_7">
     <g id="line2d_7">
      <g>
       <use xlink:href="#mec38da019a" x="492.80845" y="299.80875" style="fill: #262626; stroke: #262626; stroke-width: 1.25"/>
      </g>
     </g>
     <g id="text_7">
      <!-- 4.5 -->
      <g style="fill: #262626" transform="translate(483.43095 317.933438) scale(0.11 -0.11)">
       <use xlink:href="#AppleGothic-34"/>
       <use xlink:href="#AppleGothic-2e" transform="translate(67.999985 0)"/>
       <use xlink:href="#AppleGothic-35" transform="translate(102.499969 0)"/>
      </g>
     </g>
    </g>
    <g id="xtick_8">
     <g id="line2d_8">
      <g>
       <use xlink:href="#mec38da019a" x="565.275982" y="299.80875" style="fill: #262626; stroke: #262626; stroke-width: 1.25"/>
      </g>
     </g>
     <g id="text_8">
      <!-- 5.0 -->
      <g style="fill: #262626" transform="translate(555.898482 317.933438) scale(0.11 -0.11)">
       <use xlink:href="#AppleGothic-35"/>
       <use xlink:href="#AppleGothic-2e" transform="translate(67.999985 0)"/>
       <use xlink:href="#AppleGothic-30" transform="translate(102.499969 0)"/>
      </g>
     </g>
    </g>
    <g id="text_9">
     <!-- 분출 시간 (분) -->
     <g style="fill: #262626" transform="translate(286.293125 333.234531) scale(0.12 -0.12)">
      <defs>
       <path id="AppleGothic-bd84" d="M 4557 3194 
L 4557 4077 
L 3130 4096 
L 1754 4077 
L 1754 3194 
L 3110 3174 
L 4557 3194 
z
M 5210 -429 
L 3194 -410 
L 1325 -429 
L 1338 474 
L 1325 1197 
L 1549 1203 
Q 1645 1203 1741 1190 
Q 1837 1178 1837 1114 
Q 1837 1094 1817 1030 
Q 1798 966 1798 934 
L 1792 -38 
L 3194 -38 
Q 3539 -38 3820 -38 
Q 4102 -38 4342 -32 
Q 4582 -26 4793 -22 
Q 5005 -19 5210 -6 
L 5210 -429 
z
M 6016 1760 
Q 5504 1760 4614 1779 
Q 4166 1792 3878 1798 
Q 3590 1805 3462 1805 
L 3475 627 
L 2995 621 
L 3002 1805 
L 1670 1792 
Q 1222 1792 915 1779 
Q 608 1766 384 1754 
L 384 2182 
Q 474 2182 621 2179 
Q 768 2176 979 2170 
Q 1190 2163 1472 2160 
Q 1754 2157 2099 2150 
Q 2445 2144 2720 2141 
Q 2995 2138 3200 2138 
Q 3744 2138 4550 2157 
Q 4960 2170 5213 2176 
Q 5466 2182 5568 2189 
Q 5677 2195 5789 2201 
Q 5901 2208 6016 2214 
L 6016 1760 
z
M 5043 5094 
Q 5043 5069 5024 5011 
Q 5005 4954 5005 4934 
L 4992 4122 
L 5011 2803 
L 3104 2822 
L 1306 2803 
Q 1306 2880 1309 3005 
Q 1312 3130 1315 3280 
Q 1318 3430 1321 3593 
Q 1325 3757 1325 3917 
Q 1325 4390 1318 4678 
Q 1312 4966 1299 5158 
L 1472 5165 
Q 1613 5165 1699 5142 
Q 1786 5120 1786 5056 
Q 1786 5024 1770 4957 
Q 1754 4890 1754 4870 
L 1754 4442 
L 3136 4422 
L 4557 4442 
L 4544 5197 
L 4704 5203 
Q 4851 5203 4947 5180 
Q 5043 5158 5043 5094 
z
" transform="scale(0.015625)"/>
       <path id="AppleGothic-cd9c" d="M 5946 2099 
L 4666 2125 
Q 4627 2125 4560 2125 
Q 4493 2125 4403 2131 
Q 4314 2138 4243 2138 
Q 4173 2138 4122 2138 
L 3398 2125 
L 3398 1510 
L 4243 1510 
L 5088 1542 
L 5075 979 
L 5088 442 
L 2778 461 
Q 2432 461 2189 454 
Q 1946 448 1773 435 
L 1773 -58 
Q 1997 -70 2294 -76 
Q 2592 -83 2976 -83 
L 5203 -64 
L 5203 -422 
Q 5069 -416 4957 -416 
Q 4845 -416 4755 -416 
Q 3526 -397 3226 -397 
Q 2733 -397 2256 -403 
Q 1779 -410 1306 -422 
L 1325 198 
Q 1325 448 1321 557 
Q 1318 666 1306 755 
L 3091 730 
L 3347 730 
L 4141 730 
Q 4269 736 4390 739 
Q 4512 742 4627 749 
L 4627 1216 
L 3379 1229 
L 1306 1210 
L 1306 1542 
L 2112 1510 
L 2950 1510 
L 2950 2138 
L 1677 2125 
Q 1370 2125 1043 2118 
Q 717 2112 435 2099 
L 435 2490 
Q 557 2483 752 2480 
Q 947 2477 1229 2464 
Q 1798 2451 2243 2444 
Q 2688 2438 3142 2438 
Q 3379 2438 3606 2438 
Q 3834 2438 4058 2445 
Q 4506 2458 5101 2464 
Q 5402 2477 5610 2480 
Q 5818 2483 5946 2490 
L 5946 2099 
z
M 5421 3021 
Q 5414 3002 5414 2989 
Q 5402 2957 5370 2925 
Q 5363 2912 5340 2877 
Q 5318 2842 5286 2784 
Q 5274 2771 5261 2742 
Q 5248 2714 5229 2682 
Q 4992 2714 4858 2739 
Q 4634 2784 4416 2867 
Q 4198 2950 4000 3056 
Q 3802 3162 3632 3283 
Q 3462 3405 3341 3526 
Q 3302 3571 3260 3616 
Q 3219 3661 3174 3725 
Q 2989 3501 2822 3373 
Q 2541 3155 2202 3002 
Q 1811 2822 1440 2733 
Q 1325 2707 1139 2675 
L 947 2938 
Q 928 2970 915 3002 
Q 915 3014 909 3021 
Q 909 3034 947 3043 
Q 986 3053 1040 3059 
Q 1094 3066 1148 3069 
Q 1203 3072 1242 3072 
Q 1658 3142 2074 3328 
Q 2560 3533 2803 3802 
Q 2880 3878 2970 4026 
L 2086 4026 
L 1037 3987 
L 1037 4365 
L 3155 4339 
L 3450 4339 
Q 4070 4339 4518 4345 
Q 4966 4352 5299 4365 
L 5299 3987 
Q 5062 4000 4947 4006 
Q 4717 4019 4566 4025 
Q 4416 4032 4352 4032 
L 3354 4026 
Q 3629 3622 4179 3360 
Q 4448 3283 4710 3206 
Q 4973 3130 5242 3053 
Q 5421 3053 5421 3021 
z
M 3846 4806 
Q 3699 4819 3523 4825 
Q 3347 4832 3181 4832 
Q 3014 4832 2838 4825 
Q 2662 4819 2509 4806 
L 2509 5171 
L 3162 5152 
Q 3405 5152 3581 5161 
Q 3757 5171 3846 5184 
L 3846 4806 
z
" transform="scale(0.015625)"/>
       <path id="AppleGothic-20" transform="scale(0.015625)"/>
       <path id="AppleGothic-c2dc" d="M 5459 5062 
Q 5459 5043 5440 4969 
Q 5421 4896 5421 4826 
L 5402 2349 
L 5414 -531 
L 4909 -557 
Q 4915 -410 4915 -278 
Q 4915 -147 4922 -19 
Q 4928 218 4941 1190 
Q 4960 2150 4960 2253 
Q 4960 3923 4941 4416 
Q 4934 4915 4922 5190 
Q 5146 5190 5302 5158 
Q 5459 5126 5459 5062 
z
M 4250 1478 
Q 4250 1459 4224 1434 
Q 4211 1421 4179 1395 
Q 4147 1370 4109 1338 
L 3917 1178 
Q 3866 1210 3821 1242 
Q 3776 1274 3738 1306 
Q 3290 1658 2899 2227 
Q 2707 2496 2534 2918 
Q 2515 2976 2483 3072 
Q 2451 3168 2400 3309 
Q 2221 2688 1754 2054 
Q 1267 1389 710 1114 
Q 698 1120 653 1155 
Q 608 1190 518 1254 
Q 486 1280 444 1312 
Q 403 1344 346 1395 
Q 346 1421 371 1427 
Q 397 1440 406 1449 
Q 416 1459 422 1466 
Q 467 1466 710 1645 
Q 896 1773 1056 1920 
Q 1216 2067 1350 2234 
Q 1549 2464 1696 2729 
Q 1843 2995 1952 3296 
Q 2061 3610 2125 4000 
Q 2157 4205 2173 4381 
Q 2189 4557 2189 4717 
Q 2323 4717 2534 4678 
Q 2752 4653 2752 4576 
Q 2752 4544 2710 4470 
Q 2669 4397 2669 4378 
L 2630 4032 
Q 2656 3923 2681 3814 
Q 2707 3706 2739 3597 
Q 2790 3430 2857 3248 
Q 2925 3066 3021 2867 
Q 3264 2349 3757 1894 
Q 3840 1818 3949 1728 
Q 4058 1638 4198 1530 
L 4237 1491 
L 4250 1478 
z
" transform="scale(0.015625)"/>
       <path id="AppleGothic-ac04" d="M 5363 -422 
L 4947 -422 
Q 4819 -422 4630 -425 
Q 4442 -429 4179 -435 
Q 3667 -454 3597 -454 
L 2221 -448 
Q 1875 -448 1641 -451 
Q 1408 -454 1235 -461 
Q 1222 -410 1222 -282 
L 1222 -173 
L 1229 1203 
L 1581 1190 
L 1651 1197 
Q 1702 1197 1702 1158 
L 1677 1075 
Q 1677 1050 1670 1030 
Q 1645 954 1645 896 
L 1670 -90 
L 2086 -77 
L 3302 -83 
Q 3821 -83 4333 -73 
Q 4845 -64 5363 -58 
L 5363 -422 
z
M 6093 2362 
L 5094 2362 
L 5075 710 
L 4666 717 
L 4666 1824 
Q 4672 2266 4675 2614 
Q 4678 2963 4678 3232 
L 4672 4800 
Q 4672 4922 4672 4992 
Q 4672 5062 4672 5100 
Q 4672 5139 4669 5158 
Q 4666 5178 4659 5197 
Q 4864 5197 4985 5174 
Q 5107 5152 5107 5114 
L 5088 4806 
L 5088 2726 
L 6093 2726 
L 6093 2362 
z
M 3258 4634 
Q 3258 4192 3123 3763 
Q 2893 2989 2291 2413 
Q 1843 1978 1242 1664 
Q 787 1427 659 1427 
Q 595 1472 547 1510 
Q 499 1549 461 1581 
Q 314 1709 314 1747 
L 320 1766 
L 339 1754 
Q 518 1754 966 1958 
Q 1267 2093 1526 2272 
Q 1786 2451 2010 2675 
Q 2342 3008 2547 3424 
Q 2624 3578 2678 3728 
Q 2733 3878 2765 4026 
Q 2771 4090 2777 4144 
Q 2784 4198 2797 4262 
L 538 4250 
L 538 4634 
L 1818 4614 
L 3258 4634 
z
" transform="scale(0.015625)"/>
       <path id="AppleGothic-28" d="M 2227 5261 
L 2650 5261 
Q 2342 4768 2169 4473 
Q 1997 4179 1958 4083 
Q 1606 3283 1606 2272 
Q 1606 1587 1754 1018 
Q 1882 570 2138 102 
Q 2150 70 2275 -131 
Q 2400 -333 2630 -717 
L 2227 -717 
Q 2099 -531 1980 -355 
Q 1862 -179 1734 0 
Q 1581 243 1469 483 
Q 1357 723 1274 954 
Q 1069 1587 1069 2272 
Q 1069 2963 1261 3558 
Q 1338 3789 1450 4022 
Q 1562 4256 1715 4499 
Q 1843 4691 1971 4880 
Q 2099 5069 2227 5261 
z
" transform="scale(0.015625)"/>
       <path id="AppleGothic-29" d="M 2221 2272 
Q 2221 1587 2016 960 
Q 1862 499 1555 6 
Q 1427 -179 1305 -355 
Q 1184 -531 1062 -717 
L 659 -717 
Q 781 -512 902 -310 
Q 1024 -109 1152 96 
Q 1280 333 1376 557 
Q 1472 781 1530 1005 
Q 1683 1562 1683 2272 
Q 1683 2650 1641 2973 
Q 1600 3296 1517 3584 
Q 1459 3802 1356 4029 
Q 1254 4256 1120 4499 
Q 992 4691 873 4880 
Q 755 5069 640 5261 
L 1062 5261 
Q 1190 5069 1315 4880 
Q 1440 4691 1568 4506 
Q 1722 4256 1837 4022 
Q 1952 3789 2022 3565 
Q 2221 2976 2221 2272 
z
" transform="scale(0.015625)"/>
      </defs>
      <use xlink:href="#AppleGothic-bd84"/>
      <use xlink:href="#AppleGothic-cd9c" transform="translate(99.999985 0)"/>
      <use xlink:href="#AppleGothic-20" transform="translate(199.999969 0)"/>
      <use xlink:href="#AppleGothic-c2dc" transform="translate(231.999954 0)"/>
      <use xlink:href="#AppleGothic-ac04" transform="translate(331.999939 0)"/>
      <use xlink:href="#AppleGothic-20" transform="translate(431.999924 0)"/>
      <use xlink:href="#AppleGothic-28" transform="translate(463.999908 0)"/>
      <use xlink:href="#AppleGothic-bd84" transform="translate(513.999893 0)"/>
      <use xlink:href="#AppleGothic-29" transform="translate(613.999878 0)"/>
     </g>
    </g>
   </g>
   <g id="matplotlib.axis_2">
    <g id="ytick_1">
     <g id="line2d_9">
      <defs>
       <path id="mb668f8950a" d="M 0 0 
L -6 0 
" style="stroke: #262626; stroke-width: 1.25"/>
      </defs>
      <g>
       <use xlink:href="#mb668f8950a" x="47.133125" y="299.80875" style="fill: #262626; stroke: #262626; stroke-width: 1.25"/>
      </g>
     </g>
     <g id="text_10">
      <!-- 0 -->
      <g style="fill: #262626" transform="translate(30.153125 304.121094) scale(0.11 -0.11)">
       <use xlink:href="#AppleGothic-30"/>
      </g>
     </g>
    </g>
    <g id="ytick_2">
     <g id="line2d_10">
      <g>
       <use xlink:href="#mb668f8950a" x="47.133125" y="242.417446" style="fill: #262626; stroke: #262626; stroke-width: 1.25"/>
      </g>
     </g>
     <g id="text_11">
      <!-- 5 -->
      <g style="fill: #262626" transform="translate(30.153125 246.729789) scale(0.11 -0.11)">
       <use xlink:href="#AppleGothic-35"/>
      </g>
     </g>
    </g>
    <g id="ytick_3">
     <g id="line2d_11">
      <g>
       <use xlink:href="#mb668f8950a" x="47.133125" y="185.026141" style="fill: #262626; stroke: #262626; stroke-width: 1.25"/>
      </g>
     </g>
     <g id="text_12">
      <!-- 10 -->
      <g style="fill: #262626" transform="translate(22.673125 189.338485) scale(0.11 -0.11)">
       <use xlink:href="#AppleGothic-31"/>
       <use xlink:href="#AppleGothic-30" transform="translate(67.999985 0)"/>
      </g>
     </g>
    </g>
    <g id="ytick_4">
     <g id="line2d_12">
      <g>
       <use xlink:href="#mb668f8950a" x="47.133125" y="127.634837" style="fill: #262626; stroke: #262626; stroke-width: 1.25"/>
      </g>
     </g>
     <g id="text_13">
      <!-- 15 -->
      <g style="fill: #262626" transform="translate(22.673125 131.947181) scale(0.11 -0.11)">
       <use xlink:href="#AppleGothic-31"/>
       <use xlink:href="#AppleGothic-35" transform="translate(67.999985 0)"/>
      </g>
     </g>
    </g>
    <g id="ytick_5">
     <g id="line2d_13">
      <g>
       <use xlink:href="#mb668f8950a" x="47.133125" y="70.243533" style="fill: #262626; stroke: #262626; stroke-width: 1.25"/>
      </g>
     </g>
     <g id="text_14">
      <!-- 20 -->
      <g style="fill: #262626" transform="translate(22.673125 74.555876) scale(0.11 -0.11)">
       <use xlink:href="#AppleGothic-32"/>
       <use xlink:href="#AppleGothic-30" transform="translate(67.999985 0)"/>
      </g>
     </g>
    </g>
    <g id="text_15">
     <!-- 빈도수 -->
     <g style="fill: #262626" transform="translate(16.60875 179.20875) rotate(-90) scale(0.12 -0.12)">
      <defs>
       <path id="AppleGothic-be48" d="M 3008 2138 
L 3008 3187 
L 2093 3187 
Q 1869 3187 1619 3180 
Q 1370 3174 1165 3162 
L 1165 2118 
L 2099 2106 
Q 2419 2106 2620 2112 
Q 2822 2118 3008 2138 
z
M 5562 -422 
L 1498 -442 
L 1504 410 
L 1491 1107 
Q 1715 1107 1856 1081 
Q 1997 1056 1997 1005 
Q 1997 998 1977 924 
Q 1958 851 1958 781 
L 1958 -64 
L 3584 -77 
Q 3930 -77 4214 -77 
Q 4499 -77 4723 -70 
Q 4947 -64 5158 -61 
Q 5370 -58 5562 -45 
L 5562 -422 
z
M 5427 5082 
Q 5427 5069 5424 5053 
Q 5421 5037 5414 5011 
Q 5382 4883 5382 4832 
L 5376 685 
L 4909 666 
Q 4922 858 4928 1062 
Q 4934 1267 4934 1491 
Q 4941 1722 4944 2061 
Q 4947 2400 4947 2854 
L 4947 3501 
Q 4947 3942 4947 4220 
Q 4947 4499 4941 4640 
Q 4934 4774 4931 4908 
Q 4928 5043 4915 5190 
Q 5082 5190 5248 5171 
Q 5427 5152 5427 5082 
z
M 3507 4403 
Q 3507 4384 3478 4297 
Q 3450 4211 3450 4160 
Q 3443 4051 3443 3923 
Q 3443 3795 3437 3635 
L 3437 3078 
L 3437 2182 
Q 3443 2061 3446 1958 
Q 3450 1856 3456 1766 
L 2106 1760 
Q 1696 1760 1369 1753 
Q 1043 1747 736 1734 
Q 742 1901 742 2093 
Q 742 2285 742 2515 
Q 749 2739 749 2934 
Q 749 3130 749 3290 
Q 749 3578 745 3776 
Q 742 3974 736 4102 
Q 730 4224 723 4317 
Q 717 4410 710 4480 
L 787 4480 
Q 954 4480 1078 4464 
Q 1203 4448 1203 4397 
Q 1165 4269 1165 4179 
L 1165 3533 
L 2061 3526 
Q 2381 3526 2595 3532 
Q 2810 3539 3014 3558 
L 3014 4211 
L 2995 4499 
Q 3219 4499 3363 4476 
Q 3507 4454 3507 4403 
z
" transform="scale(0.015625)"/>
       <path id="AppleGothic-b3c4" d="M 6061 -38 
L 3181 -6 
L 2938 -6 
Q 2560 -6 2269 -6 
Q 1978 -6 1766 -13 
Q 1562 -19 1360 -19 
Q 1158 -19 954 -26 
Q 557 -32 352 -45 
L 352 416 
L 1549 397 
L 2963 403 
L 2982 1139 
L 2970 2035 
L 3066 2035 
Q 3238 2035 3369 2012 
Q 3501 1990 3501 1920 
Q 3501 1901 3478 1821 
Q 3456 1741 3456 1709 
Q 3424 1658 3424 1030 
Q 3424 800 3443 531 
Q 3443 506 3446 474 
Q 3450 442 3456 403 
L 4608 397 
Q 4960 397 5347 400 
Q 5734 403 6061 416 
L 6061 -38 
z
M 5299 2202 
L 3744 2208 
L 1146 2195 
L 1165 3379 
L 1152 4640 
Q 1293 4634 1408 4634 
Q 1523 4634 1619 4634 
Q 2266 4621 2701 4614 
Q 3136 4608 3360 4608 
L 5248 4621 
L 5248 4205 
L 3354 4218 
L 1632 4211 
L 1613 3424 
L 1626 2598 
Q 2029 2586 2512 2579 
Q 2995 2573 3443 2573 
Q 3648 2573 3875 2573 
Q 4102 2573 4358 2579 
Q 4858 2586 5299 2598 
L 5299 2202 
z
" transform="scale(0.015625)"/>
       <path id="AppleGothic-c218" d="M 6022 1952 
L 3411 1952 
L 3424 896 
L 3462 -582 
L 2982 -582 
L 2982 1952 
Q 2912 1952 2774 1949 
Q 2637 1946 2419 1939 
Q 2208 1933 2086 1933 
Q 1965 1933 1933 1933 
L 378 1894 
L 378 2304 
L 3206 2298 
Q 3706 2298 4202 2307 
Q 4698 2317 5184 2330 
Q 5536 2342 6022 2368 
L 6022 1952 
z
M 5792 3482 
Q 5792 3450 5747 3402 
Q 5702 3354 5658 3315 
L 5523 3117 
Q 5453 3123 5395 3126 
Q 5338 3130 5286 3142 
Q 4685 3251 4090 3610 
Q 3699 3846 3411 4250 
Q 3360 4320 3312 4409 
Q 3264 4499 3206 4621 
Q 3149 4512 3097 4422 
Q 3046 4333 2995 4262 
Q 2688 3846 2208 3552 
Q 2054 3450 1875 3370 
Q 1696 3290 1498 3219 
Q 1382 3181 1232 3142 
Q 1082 3104 896 3072 
Q 896 3072 873 3101 
Q 851 3130 828 3162 
Q 806 3194 780 3226 
Q 755 3258 749 3270 
Q 736 3290 678 3347 
Q 621 3405 621 3424 
L 640 3443 
Q 730 3450 810 3453 
Q 890 3456 954 3469 
Q 1338 3526 1674 3676 
Q 2010 3827 2298 4077 
Q 2605 4326 2790 4659 
Q 2842 4755 2886 4880 
Q 2931 5005 2970 5171 
L 3411 5133 
Q 3475 5133 3475 5075 
Q 3475 5056 3472 5037 
Q 3469 5018 3462 4992 
Q 3462 4973 3443 4947 
Q 3482 4832 3520 4755 
Q 3738 4301 4230 3974 
Q 4659 3686 5261 3571 
Q 5363 3552 5488 3536 
Q 5613 3520 5766 3507 
Q 5786 3507 5792 3482 
z
" transform="scale(0.015625)"/>
      </defs>
      <use xlink:href="#AppleGothic-be48"/>
      <use xlink:href="#AppleGothic-b3c4" transform="translate(99.999985 0)"/>
      <use xlink:href="#AppleGothic-c218" transform="translate(199.999969 0)"/>
     </g>
    </g>
   </g>
   <g id="patch_3">
    <path d="M 72.496761 299.80875 
L 89.405852 299.80875 
L 89.405852 265.373967 
L 72.496761 265.373967 
z
" clip-path="url(#pdb4573298d)" style="fill: #008080; fill-opacity: 0.5; stroke: #ffffff; stroke-linejoin: miter"/>
   </g>
   <g id="patch_4">
    <path d="M 89.405852 299.80875 
L 106.314943 299.80875 
L 106.314943 35.80875 
L 89.405852 35.80875 
z
" clip-path="url(#pdb4573298d)" style="fill: #008080; fill-opacity: 0.5; stroke: #ffffff; stroke-linejoin: miter"/>
   </g>
   <g id="patch_5">
    <path d="M 106.314943 299.80875 
L 123.224034 299.80875 
L 123.224034 81.721793 
L 106.314943 81.721793 
z
" clip-path="url(#pdb4573298d)" style="fill: #008080; fill-opacity: 0.5; stroke: #ffffff; stroke-linejoin: miter"/>
   </g>
   <g id="patch_6">
    <path d="M 123.224034 299.80875 
L 140.133125 299.80875 
L 140.133125 127.634837 
L 123.224034 127.634837 
z
" clip-path="url(#pdb4573298d)" style="fill: #008080; fill-opacity: 0.5; stroke: #ffffff; stroke-linejoin: miter"/>
   </g>
   <g id="patch_7">
    <path d="M 140.133125 299.80875 
L 157.042216 299.80875 
L 157.042216 173.54788 
L 140.133125 173.54788 
z
" clip-path="url(#pdb4573298d)" style="fill: #008080; fill-opacity: 0.5; stroke: #ffffff; stroke-linejoin: miter"/>
   </g>
   <g id="patch_8">
    <path d="M 157.042216 299.80875 
L 173.951307 299.80875 
L 173.951307 185.026141 
L 157.042216 185.026141 
z
" clip-path="url(#pdb4573298d)" style="fill: #008080; fill-opacity: 0.5; stroke: #ffffff; stroke-linejoin: miter"/>
   </g>
   <g id="patch_9">
    <path d="M 173.951307 299.80875 
L 190.860398 299.80875 
L 190.860398 207.982663 
L 173.951307 207.982663 
z
" clip-path="url(#pdb4573298d)" style="fill: #008080; fill-opacity: 0.5; stroke: #ffffff; stroke-linejoin: miter"/>
   </g>
   <g id="patch_10">
    <path d="M 190.860398 299.80875 
L 207.769489 299.80875 
L 207.769489 265.373967 
L 190.860398 265.373967 
z
" clip-path="url(#pdb4573298d)" style="fill: #008080; fill-opacity: 0.5; stroke: #ffffff; stroke-linejoin: miter"/>
   </g>
   <g id="patch_11">
    <path d="M 207.769489 299.80875 
L 224.67858 299.80875 
L 224.67858 276.852228 
L 207.769489 276.852228 
z
" clip-path="url(#pdb4573298d)" style="fill: #008080; fill-opacity: 0.5; stroke: #ffffff; stroke-linejoin: miter"/>
   </g>
   <g id="patch_12">
    <path d="M 224.67858 299.80875 
L 241.58767 299.80875 
L 241.58767 299.80875 
L 224.67858 299.80875 
z
" clip-path="url(#pdb4573298d)" style="fill: #008080; fill-opacity: 0.5; stroke: #ffffff; stroke-linejoin: miter"/>
   </g>
   <g id="patch_13">
    <path d="M 241.58767 299.80875 
L 258.496761 299.80875 
L 258.496761 276.852228 
L 241.58767 276.852228 
z
" clip-path="url(#pdb4573298d)" style="fill: #008080; fill-opacity: 0.5; stroke: #ffffff; stroke-linejoin: miter"/>
   </g>
   <g id="patch_14">
    <path d="M 258.496761 299.80875 
L 275.405852 299.80875 
L 275.405852 288.330489 
L 258.496761 288.330489 
z
" clip-path="url(#pdb4573298d)" style="fill: #008080; fill-opacity: 0.5; stroke: #ffffff; stroke-linejoin: miter"/>
   </g>
   <g id="patch_15">
    <path d="M 275.405852 299.80875 
L 292.314943 299.80875 
L 292.314943 288.330489 
L 275.405852 288.330489 
z
" clip-path="url(#pdb4573298d)" style="fill: #008080; fill-opacity: 0.5; stroke: #ffffff; stroke-linejoin: miter"/>
   </g>
   <g id="patch_16">
    <path d="M 292.314943 299.80875 
L 309.224034 299.80875 
L 309.224034 299.80875 
L 292.314943 299.80875 
z
" clip-path="url(#pdb4573298d)" style="fill: #008080; fill-opacity: 0.5; stroke: #ffffff; stroke-linejoin: miter"/>
   </g>
   <g id="patch_17">
    <path d="M 309.224034 299.80875 
L 326.133125 299.80875 
L 326.133125 265.373967 
L 309.224034 265.373967 
z
" clip-path="url(#pdb4573298d)" style="fill: #008080; fill-opacity: 0.5; stroke: #ffffff; stroke-linejoin: miter"/>
   </g>
   <g id="patch_18">
    <path d="M 326.133125 299.80875 
L 343.042216 299.80875 
L 343.042216 265.373967 
L 326.133125 265.373967 
z
" clip-path="url(#pdb4573298d)" style="fill: #008080; fill-opacity: 0.5; stroke: #ffffff; stroke-linejoin: miter"/>
   </g>
   <g id="patch_19">
    <path d="M 343.042216 299.80875 
L 359.951307 299.80875 
L 359.951307 253.895707 
L 343.042216 253.895707 
z
" clip-path="url(#pdb4573298d)" style="fill: #008080; fill-opacity: 0.5; stroke: #ffffff; stroke-linejoin: miter"/>
   </g>
   <g id="patch_20">
    <path d="M 359.951307 299.80875 
L 376.860398 299.80875 
L 376.860398 242.417446 
L 359.951307 242.417446 
z
" clip-path="url(#pdb4573298d)" style="fill: #008080; fill-opacity: 0.5; stroke: #ffffff; stroke-linejoin: miter"/>
   </g>
   <g id="patch_21">
    <path d="M 376.860398 299.80875 
L 393.769489 299.80875 
L 393.769489 242.417446 
L 376.860398 242.417446 
z
" clip-path="url(#pdb4573298d)" style="fill: #008080; fill-opacity: 0.5; stroke: #ffffff; stroke-linejoin: miter"/>
   </g>
   <g id="patch_22">
    <path d="M 393.769489 299.80875 
L 410.67858 299.80875 
L 410.67858 162.06962 
L 393.769489 162.06962 
z
" clip-path="url(#pdb4573298d)" style="fill: #008080; fill-opacity: 0.5; stroke: #ffffff; stroke-linejoin: miter"/>
   </g>
   <g id="patch_23">
    <path d="M 410.67858 299.80875 
L 427.58767 299.80875 
L 427.58767 162.06962 
L 410.67858 162.06962 
z
" clip-path="url(#pdb4573298d)" style="fill: #008080; fill-opacity: 0.5; stroke: #ffffff; stroke-linejoin: miter"/>
   </g>
   <g id="patch_24">
    <path d="M 427.58767 299.80875 
L 444.496761 299.80875 
L 444.496761 93.200054 
L 427.58767 93.200054 
z
" clip-path="url(#pdb4573298d)" style="fill: #008080; fill-opacity: 0.5; stroke: #ffffff; stroke-linejoin: miter"/>
   </g>
   <g id="patch_25">
    <path d="M 444.496761 299.80875 
L 461.405852 299.80875 
L 461.405852 104.678315 
L 444.496761 104.678315 
z
" clip-path="url(#pdb4573298d)" style="fill: #008080; fill-opacity: 0.5; stroke: #ffffff; stroke-linejoin: miter"/>
   </g>
   <g id="patch_26">
    <path d="M 461.405852 299.80875 
L 478.314943 299.80875 
L 478.314943 104.678315 
L 461.405852 104.678315 
z
" clip-path="url(#pdb4573298d)" style="fill: #008080; fill-opacity: 0.5; stroke: #ffffff; stroke-linejoin: miter"/>
   </g>
   <g id="patch_27">
    <path d="M 478.314943 299.80875 
L 495.224034 299.80875 
L 495.224034 58.765272 
L 478.314943 58.765272 
z
" clip-path="url(#pdb4573298d)" style="fill: #008080; fill-opacity: 0.5; stroke: #ffffff; stroke-linejoin: miter"/>
   </g>
   <g id="patch_28">
    <path d="M 495.224034 299.80875 
L 512.133125 299.80875 
L 512.133125 47.287011 
L 495.224034 47.287011 
z
" clip-path="url(#pdb4573298d)" style="fill: #008080; fill-opacity: 0.5; stroke: #ffffff; stroke-linejoin: miter"/>
   </g>
   <g id="patch_29">
    <path d="M 512.133125 299.80875 
L 529.042216 299.80875 
L 529.042216 173.54788 
L 512.133125 173.54788 
z
" clip-path="url(#pdb4573298d)" style="fill: #008080; fill-opacity: 0.5; stroke: #ffffff; stroke-linejoin: miter"/>
   </g>
   <g id="patch_30">
    <path d="M 529.042216 299.80875 
L 545.951307 299.80875 
L 545.951307 139.113098 
L 529.042216 139.113098 
z
" clip-path="url(#pdb4573298d)" style="fill: #008080; fill-opacity: 0.5; stroke: #ffffff; stroke-linejoin: miter"/>
   </g>
   <g id="patch_31">
    <path d="M 545.951307 299.80875 
L 562.860398 299.80875 
L 562.860398 230.939185 
L 545.951307 230.939185 
z
" clip-path="url(#pdb4573298d)" style="fill: #008080; fill-opacity: 0.5; stroke: #ffffff; stroke-linejoin: miter"/>
   </g>
   <g id="patch_32">
    <path d="M 562.860398 299.80875 
L 579.769489 299.80875 
L 579.769489 253.895707 
L 562.860398 253.895707 
z
" clip-path="url(#pdb4573298d)" style="fill: #008080; fill-opacity: 0.5; stroke: #ffffff; stroke-linejoin: miter"/>
   </g>
   <g id="line2d_14">
    <path d="M 72.496761 223.148929 
L 80.144089 214.546394 
L 85.242307 209.11012 
L 90.340526 204.018378 
L 95.438744 199.357645 
L 100.536962 195.207951 
L 103.086072 193.347375 
L 105.635181 191.640405 
L 108.18429 190.09418 
L 110.733399 188.715029 
L 113.282508 187.508428 
L 115.831617 186.47896 
L 118.380727 185.630286 
L 120.929836 184.965125 
L 123.478945 184.485239 
L 126.028054 184.191427 
L 128.577163 184.083534 
L 131.126273 184.160457 
L 133.675382 184.420168 
L 136.224491 184.859741 
L 138.7736 185.475386 
L 141.322709 186.262488 
L 143.871818 187.215657 
L 146.420928 188.328774 
L 148.970037 189.595054 
L 151.519146 191.007098 
L 156.617364 194.236227 
L 161.715583 197.947224 
L 166.813801 202.065582 
L 171.912019 206.513356 
L 179.559347 213.629249 
L 192.304893 226.030163 
L 202.50133 235.801708 
L 210.148657 242.726658 
L 215.246876 247.059535 
L 220.345094 251.119561 
L 225.443312 254.875047 
L 230.541531 258.300689 
L 235.639749 261.377092 
L 240.737967 264.090191 
L 245.836186 266.430617 
L 250.934404 268.393039 
L 256.032622 269.975499 
L 261.130841 271.178778 
L 266.229059 272.0058 
L 271.327278 272.461095 
L 276.425496 272.550328 
L 281.523714 272.279904 
L 286.621933 271.65664 
L 291.720151 270.687523 
L 296.818369 269.379531 
L 301.916588 267.739533 
L 307.014806 265.774245 
L 312.113024 263.490259 
L 317.211243 260.894125 
L 322.309461 257.992484 
L 327.40768 254.792262 
L 332.505898 251.3009 
L 337.604116 247.526634 
L 342.702335 243.4788 
L 347.800553 239.168181 
L 352.898771 234.60735 
L 357.99699 229.811036 
L 365.644317 222.213495 
L 373.291645 214.195941 
L 380.938972 205.845097 
L 393.684518 191.478196 
L 406.430064 177.077007 
L 414.077392 168.714501 
L 419.17561 163.360015 
L 424.273829 158.24356 
L 429.372047 153.41888 
L 434.470265 148.939724 
L 439.568484 144.859025 
L 444.666702 141.228037 
L 449.76492 138.095428 
L 452.31403 136.730294 
L 454.863139 135.50637 
L 457.412248 134.428603 
L 459.961357 133.501611 
L 462.510466 132.729648 
L 465.059575 132.116584 
L 467.608685 131.665877 
L 470.157794 131.380548 
L 472.706903 131.263162 
L 475.256012 131.3158 
L 477.805121 131.540049 
L 480.354231 131.936975 
L 482.90334 132.507116 
L 485.452449 133.250465 
L 488.001558 134.166462 
L 490.550667 135.253985 
L 493.099776 136.511347 
L 495.648886 137.936294 
L 498.197995 139.526009 
L 500.747104 141.277114 
L 503.296213 143.185681 
L 505.845322 145.247241 
L 510.943541 149.808869 
L 516.041759 154.916133 
L 521.139977 160.515847 
L 526.238196 166.548451 
L 531.336414 172.94911 
L 536.434633 179.648975 
L 544.08196 190.102973 
L 569.573052 225.555789 
L 577.220379 235.530033 
L 579.769489 238.723715 
L 579.769489 238.723715 
" clip-path="url(#pdb4573298d)" style="fill: none; stroke: #008080; stroke-width: 1.5; stroke-linecap: round"/>
   </g>
   <g id="line2d_15">
    <path d="M 346.102726 299.80875 
L 346.102726 22.60875 
" clip-path="url(#pdb4573298d)" style="fill: none; stroke-dasharray: 7.4,3.2; stroke-dashoffset: 0; stroke: #ff0000; stroke-width: 2"/>
   </g>
   <g id="patch_33">
    <path d="M 47.133125 299.80875 
L 47.133125 22.60875 
" style="fill: none; stroke: #262626; stroke-width: 1.25; stroke-linejoin: miter; stroke-linecap: square"/>
   </g>
   <g id="patch_34">
    <path d="M 605.133125 299.80875 
L 605.133125 22.60875 
" style="fill: none; stroke: #262626; stroke-width: 1.25; stroke-linejoin: miter; stroke-linecap: square"/>
   </g>
   <g id="patch_35">
    <path d="M 47.133125 299.80875 
L 605.133125 299.80875 
" style="fill: none; stroke: #262626; stroke-width: 1.25; stroke-linejoin: miter; stroke-linecap: square"/>
   </g>
   <g id="patch_36">
    <path d="M 47.133125 22.60875 
L 605.133125 22.60875 
" style="fill: none; stroke: #262626; stroke-width: 1.25; stroke-linejoin: miter; stroke-linecap: square"/>
   </g>
   <g id="text_16">
    <!-- 간헐천 분출 시간(Duration)의 쌍봉형(Bimodal) 분포 -->
    <g style="fill: #262626" transform="translate(184.345625 16.60875) scale(0.12 -0.12)">
     <defs>
      <path id="AppleGothic-d5d0" d="M 3168 2714 
Q 3168 3021 2842 3149 
Q 2618 3251 2291 3251 
Q 1997 3251 1766 3149 
Q 1434 3014 1434 2714 
Q 1434 2490 1690 2355 
Q 1939 2227 2291 2227 
Q 2662 2227 2893 2342 
Q 3168 2490 3168 2714 
z
M 5542 -448 
Q 5414 -442 5305 -442 
Q 5197 -442 5107 -442 
Q 4499 -429 4099 -422 
Q 3699 -416 3494 -416 
Q 2893 -416 2397 -422 
Q 1901 -429 1434 -448 
L 1453 160 
Q 1453 282 1453 371 
Q 1453 461 1449 528 
Q 1446 595 1443 646 
Q 1440 698 1434 749 
L 3584 736 
Q 4019 736 4348 742 
Q 4678 749 4922 762 
L 4922 1254 
L 3373 1261 
Q 2771 1261 2307 1248 
Q 1843 1235 1427 1216 
L 1427 1587 
Q 1523 1587 1744 1584 
Q 1965 1581 2317 1574 
Q 2675 1568 2934 1568 
Q 3194 1568 3366 1568 
L 4544 1568 
Q 4966 1574 5370 1587 
L 5357 992 
L 5370 403 
Q 5165 403 4822 406 
Q 4480 410 4000 416 
Q 3520 422 3267 425 
Q 3014 429 2982 429 
Q 2771 429 2608 429 
Q 2445 429 2317 425 
Q 2189 422 2086 416 
Q 1984 410 1888 403 
L 1888 -83 
L 3475 -83 
Q 4013 -83 4371 -83 
Q 4730 -83 4928 -77 
Q 5120 -70 5273 -67 
Q 5427 -64 5542 -51 
L 5542 -448 
z
M 3616 2714 
Q 3616 2253 3104 2054 
Q 2938 1997 2736 1965 
Q 2534 1933 2291 1933 
Q 1811 1933 1498 2048 
Q 986 2253 986 2714 
Q 986 3232 1491 3437 
Q 1818 3571 2291 3571 
Q 2784 3571 3104 3437 
Q 3616 3226 3616 2714 
z
M 5427 5075 
Q 5427 5056 5401 4982 
Q 5376 4909 5376 4851 
L 5363 3846 
L 5376 1882 
L 4928 1869 
L 4941 2342 
L 4941 2829 
L 4493 2848 
L 3878 2829 
L 3878 3200 
L 4493 3181 
L 4941 3200 
L 4947 3507 
L 4934 5171 
L 5005 5171 
Q 5178 5171 5302 5152 
Q 5427 5133 5427 5075 
z
M 4019 3834 
Q 3898 3840 3798 3840 
Q 3699 3840 3616 3840 
Q 3072 3853 2733 3859 
Q 2394 3866 2246 3866 
Q 1837 3866 1427 3859 
Q 1018 3853 608 3834 
L 608 4218 
Q 762 4211 954 4204 
Q 1146 4198 1376 4192 
Q 1613 4186 1789 4186 
Q 1965 4186 2093 4186 
L 2259 4186 
Q 2560 4186 2806 4186 
Q 3053 4186 3264 4192 
Q 3475 4198 3657 4201 
Q 3840 4205 4019 4218 
L 4019 3834 
z
M 3014 4550 
Q 2861 4563 2678 4569 
Q 2496 4576 2330 4576 
Q 2182 4576 1980 4566 
Q 1779 4557 1555 4550 
L 1555 4934 
L 2323 4915 
L 3014 4934 
L 3014 4550 
z
" transform="scale(0.015625)"/>
      <path id="AppleGothic-cc9c" d="M 5658 -416 
L 3571 -403 
Q 3059 -403 2502 -409 
Q 1946 -416 1472 -429 
Q 1478 -301 1481 -115 
Q 1485 70 1485 198 
L 1472 1184 
Q 1632 1184 1798 1165 
Q 1978 1146 1978 1082 
Q 1978 1069 1949 995 
Q 1920 922 1920 870 
L 1920 -26 
L 3558 -26 
Q 3968 -26 4285 -26 
Q 4602 -26 4826 -19 
Q 5056 -13 5264 -9 
Q 5472 -6 5658 6 
L 5658 -416 
z
M 4134 1862 
L 4006 1734 
Q 3878 1600 3859 1587 
Q 3808 1613 3769 1632 
Q 3731 1651 3699 1664 
Q 3507 1773 3324 1913 
Q 3142 2054 2970 2227 
Q 2867 2330 2777 2454 
Q 2688 2579 2598 2726 
Q 2547 2810 2477 2982 
Q 2406 2854 2342 2758 
Q 2278 2662 2227 2586 
Q 2138 2464 2035 2352 
Q 1933 2240 1811 2131 
Q 1510 1856 1146 1638 
Q 1018 1562 838 1466 
Q 653 1594 541 1667 
Q 429 1741 429 1760 
L 454 1786 
Q 794 1875 1094 2067 
Q 1395 2259 1683 2547 
Q 2285 3174 2285 3827 
L 1523 3840 
Q 1299 3840 1097 3827 
Q 896 3814 742 3802 
L 742 4205 
Q 845 4198 992 4198 
Q 1139 4198 1344 4192 
Q 1549 4186 1709 4186 
Q 1869 4186 1990 4186 
L 2445 4186 
Q 2829 4186 3155 4195 
Q 3482 4205 3770 4218 
Q 3866 4218 4013 4237 
L 4013 3821 
L 3430 3846 
L 2714 3834 
L 2707 3674 
Q 2707 3418 2780 3206 
Q 2854 2995 2982 2816 
Q 3264 2426 3712 2131 
Q 3859 2029 4115 1907 
L 4134 1862 
z
M 5446 5114 
Q 5446 5094 5414 5001 
Q 5382 4909 5382 4838 
Q 5389 4614 5389 4361 
Q 5389 4109 5389 3821 
Q 5395 3533 5395 3312 
Q 5395 3091 5395 2925 
Q 5395 2541 5395 2246 
Q 5395 1952 5402 1741 
Q 5408 1536 5408 1344 
Q 5408 1152 5414 986 
Q 5414 877 5363 861 
Q 5312 845 5165 845 
L 5024 832 
Q 4954 832 4954 890 
L 4954 2829 
L 4371 2835 
Q 4224 2835 4061 2828 
Q 3898 2822 3763 2810 
L 3763 3200 
Q 3821 3194 3897 3194 
Q 3974 3194 4077 3187 
Q 4173 3181 4246 3181 
Q 4320 3181 4365 3181 
L 4954 3206 
L 4954 4730 
Q 4954 4902 4941 5004 
Q 4928 5107 4915 5190 
L 5050 5190 
Q 5261 5190 5353 5171 
Q 5446 5152 5446 5114 
z
M 3053 4678 
L 2918 4678 
Q 2419 4698 2374 4698 
L 1696 4678 
L 1696 5062 
Q 1850 5050 2032 5043 
Q 2214 5037 2387 5037 
Q 2630 5037 2796 5043 
Q 2963 5050 3053 5062 
L 3053 4678 
z
" transform="scale(0.015625)"/>
      <path id="AppleGothic-44" d="M 358 5024 
L 1562 5024 
Q 2227 5024 2675 4858 
Q 2861 4787 3027 4681 
Q 3194 4576 3341 4429 
Q 3693 4077 3878 3584 
Q 4064 3091 4064 2554 
Q 4064 1357 3379 672 
Q 2688 0 1485 0 
L 358 0 
L 358 5024 
z
M 1363 4582 
L 864 4582 
L 864 442 
L 1690 442 
Q 2413 442 2912 941 
Q 3494 1523 3494 2560 
Q 3494 2765 3472 2944 
Q 3450 3123 3405 3290 
Q 3264 3776 2906 4122 
Q 2643 4371 2298 4480 
Q 1965 4582 1363 4582 
z
" transform="scale(0.015625)"/>
      <path id="AppleGothic-75" d="M 262 3424 
L 730 3424 
L 730 1242 
Q 730 877 941 627 
Q 1171 339 1594 339 
Q 2080 339 2426 730 
Q 2784 1139 2784 1632 
L 2784 3424 
L 3245 3424 
L 3245 0 
L 2842 0 
L 2810 582 
Q 2707 442 2592 330 
Q 2477 218 2342 134 
Q 1984 -83 1555 -83 
Q 966 -83 614 282 
Q 262 653 262 1184 
L 262 3424 
z
" transform="scale(0.015625)"/>
      <path id="AppleGothic-72" d="M 2125 3424 
L 2125 2963 
Q 2054 2989 2009 3005 
Q 1965 3021 1933 3027 
Q 1901 3034 1865 3037 
Q 1830 3040 1773 3040 
Q 1306 3040 1005 2586 
Q 749 2170 749 1658 
L 749 0 
L 288 0 
L 288 3424 
L 710 3424 
L 742 2835 
Q 902 3104 1043 3219 
Q 1331 3456 1734 3456 
Q 1843 3456 1936 3449 
Q 2029 3443 2125 3424 
z
" transform="scale(0.015625)"/>
      <path id="AppleGothic-61" d="M 2950 2214 
L 2950 602 
Q 2950 493 2998 413 
Q 3046 333 3174 333 
Q 3213 333 3238 336 
Q 3264 339 3290 346 
Q 3328 358 3357 371 
Q 3386 384 3405 390 
L 3405 32 
Q 3290 -6 3174 -22 
Q 3059 -38 2995 -38 
Q 2669 -38 2566 134 
Q 2483 243 2483 602 
Q 2400 461 2317 355 
Q 2234 250 2150 179 
Q 1818 -83 1376 -83 
Q 909 -83 563 192 
Q 205 486 205 941 
Q 205 1510 781 1779 
Q 992 1882 1341 1958 
Q 1690 2035 2176 2099 
L 2483 2131 
Q 2483 2579 2256 2832 
Q 2029 3085 1587 3085 
Q 1421 3085 1257 3043 
Q 1094 3002 928 2912 
Q 838 2861 729 2790 
Q 621 2720 493 2611 
L 493 3136 
Q 1037 3501 1664 3501 
Q 2304 3501 2650 3098 
Q 2950 2746 2950 2214 
z
M 2483 1542 
L 2483 1747 
L 2266 1722 
Q 1466 1638 1139 1498 
Q 704 1325 704 934 
Q 704 819 755 713 
Q 806 608 896 525 
Q 986 442 1117 390 
Q 1248 339 1408 339 
Q 1843 339 2170 691 
Q 2483 1050 2483 1542 
z
" transform="scale(0.015625)"/>
      <path id="AppleGothic-74" d="M 691 4435 
L 1114 4435 
L 1114 3430 
L 2016 3430 
L 2016 3014 
L 1114 3014 
L 1114 838 
Q 1114 570 1213 454 
Q 1312 339 1555 339 
Q 1696 339 1795 371 
Q 1894 403 2016 454 
L 2016 38 
Q 1914 6 1770 -22 
Q 1626 -51 1478 -51 
Q 1094 -51 883 122 
Q 646 301 646 698 
L 646 3014 
L 70 3014 
L 70 3430 
L 646 3430 
L 691 4435 
z
" transform="scale(0.015625)"/>
      <path id="AppleGothic-69" d="M 256 3424 
L 717 3424 
L 717 0 
L 256 0 
L 256 3424 
z
M 480 4870 
Q 614 4870 704 4780 
Q 794 4691 794 4525 
Q 794 4358 710 4268 
Q 627 4179 480 4179 
Q 333 4179 253 4281 
Q 173 4384 173 4518 
Q 173 4730 269 4800 
Q 365 4870 480 4870 
z
" transform="scale(0.015625)"/>
      <path id="AppleGothic-6f" d="M 1888 -83 
Q 1229 -83 730 397 
Q 198 902 198 1709 
Q 198 2470 666 2982 
Q 1146 3501 1850 3501 
Q 2547 3501 3027 2982 
Q 3501 2470 3501 1715 
Q 3501 922 2989 403 
Q 2515 -83 1888 -83 
z
M 1843 339 
Q 2304 339 2662 723 
Q 3008 1114 3008 1715 
Q 3008 2336 2637 2726 
Q 2298 3085 1850 3085 
Q 1389 3085 1062 2714 
Q 704 2304 704 1709 
Q 704 1107 1056 704 
Q 1382 339 1843 339 
z
" transform="scale(0.015625)"/>
      <path id="AppleGothic-6e" d="M 3264 2291 
L 3264 0 
L 2803 0 
L 2803 2259 
Q 2803 2618 2541 2848 
Q 2278 3085 1914 3085 
Q 1427 3085 1075 2682 
Q 723 2272 723 1760 
L 723 0 
L 288 0 
L 288 3424 
L 691 3424 
L 710 2784 
Q 883 3046 1114 3219 
Q 1491 3501 1965 3501 
Q 2515 3501 2886 3168 
Q 3264 2842 3264 2291 
z
" transform="scale(0.015625)"/>
      <path id="AppleGothic-c758" d="M 3571 3379 
Q 3571 4218 2573 4218 
Q 2061 4218 1776 3987 
Q 1491 3757 1491 3386 
Q 1491 2970 1786 2733 
Q 2054 2522 2509 2522 
Q 3059 2522 3328 2765 
Q 3571 2976 3571 3379 
z
M 4608 1094 
Q 4134 1018 3872 979 
Q 3456 928 3120 899 
Q 2784 870 2528 870 
L 902 813 
Q 858 800 816 790 
Q 774 781 730 768 
Q 653 768 608 941 
Q 563 1114 563 1242 
L 2477 1248 
Q 2938 1248 3334 1273 
Q 3731 1299 4070 1350 
Q 4282 1376 4576 1459 
L 4608 1094 
z
M 5466 5069 
Q 5466 5037 5437 4944 
Q 5408 4851 5408 4813 
L 5408 2298 
Q 5408 2010 5411 1683 
Q 5414 1357 5421 973 
Q 5427 595 5433 230 
Q 5440 -134 5453 -499 
L 4973 -557 
L 4973 45 
Q 4979 237 4979 512 
Q 4979 787 4986 1158 
Q 4992 1523 4992 1788 
Q 4992 2054 4992 2221 
Q 4992 2880 4985 3357 
Q 4979 3834 4966 4122 
Q 4954 4410 4944 4675 
Q 4934 4941 4922 5184 
L 5024 5184 
Q 5190 5184 5328 5158 
Q 5466 5133 5466 5069 
z
M 4006 3328 
Q 4006 2790 3578 2464 
Q 3155 2138 2528 2138 
Q 1894 2138 1504 2445 
Q 1088 2765 1088 3341 
Q 1088 3955 1517 4288 
Q 1920 4602 2541 4602 
Q 3174 4602 3597 4269 
Q 4006 3936 4006 3354 
L 4006 3328 
z
" transform="scale(0.015625)"/>
      <path id="AppleGothic-c30d" d="M 4819 506 
Q 4819 883 4282 1056 
Q 3878 1184 3200 1184 
Q 2419 1184 2080 1062 
Q 1645 909 1645 525 
Q 1670 262 2073 105 
Q 2477 -51 3213 -51 
Q 4013 -51 4365 51 
Q 4819 179 4819 506 
z
M 5229 518 
Q 5229 -32 4634 -243 
Q 4179 -403 3206 -403 
Q 2330 -403 1798 -186 
Q 1197 64 1197 518 
Q 1197 1152 1933 1382 
Q 2374 1510 3213 1510 
L 3264 1510 
Q 3674 1510 3990 1472 
Q 4307 1434 4550 1344 
Q 5229 1107 5229 518 
z
M 6054 2803 
L 5146 2803 
L 5152 1658 
L 4666 1626 
Q 4678 2022 4681 2502 
Q 4685 2982 4685 3475 
Q 4685 3936 4685 4240 
Q 4685 4544 4678 4698 
Q 4672 4998 4659 5190 
Q 4883 5190 5040 5152 
Q 5197 5114 5197 5050 
Q 5197 5011 5174 4931 
Q 5152 4851 5152 4813 
L 5139 4064 
L 5152 3206 
L 6054 3206 
L 6054 2803 
z
M 4390 2368 
L 4250 2234 
L 4102 2080 
Q 3955 2202 3661 2637 
Q 3354 3104 3354 3270 
Q 3302 3104 3258 3021 
Q 3136 2752 2982 2489 
Q 2829 2227 2643 2003 
Q 2630 1990 2614 1968 
Q 2598 1946 2579 1920 
Q 2522 1952 2467 1974 
Q 2413 1997 2368 2016 
Q 2195 2099 2195 2131 
Q 2234 2182 2240 2202 
Q 2246 2202 2413 2394 
Q 2611 2637 2790 2989 
Q 2906 3232 2995 3478 
Q 3085 3725 3142 3994 
Q 3174 4141 3196 4301 
Q 3219 4461 3232 4627 
Q 3238 4678 3238 4748 
Q 3238 4819 3245 4909 
Q 3302 4909 3376 4899 
Q 3450 4890 3539 4877 
Q 3718 4845 3718 4787 
Q 3718 4768 3706 4717 
Q 3693 4691 3686 4675 
Q 3680 4659 3674 4634 
L 3590 4134 
Q 3584 3974 3629 3776 
Q 3674 3578 3750 3382 
Q 3827 3187 3923 3008 
Q 4019 2829 4122 2707 
Q 4173 2637 4227 2573 
Q 4282 2509 4339 2438 
Q 4352 2419 4365 2400 
Q 4378 2381 4390 2368 
z
M 2458 2720 
Q 2368 2611 2323 2566 
Q 2253 2490 2217 2451 
Q 2182 2413 2176 2406 
Q 2074 2502 1811 2899 
Q 1562 3290 1562 3411 
Q 1510 3302 1485 3238 
Q 1389 3034 1241 2800 
Q 1094 2566 883 2342 
Q 851 2304 803 2262 
Q 755 2221 691 2170 
Q 506 2240 400 2278 
Q 294 2317 294 2336 
Q 294 2355 329 2390 
Q 365 2426 371 2438 
Q 480 2534 569 2620 
Q 659 2707 717 2784 
Q 915 3021 1059 3283 
Q 1203 3546 1293 3846 
Q 1389 4147 1421 4403 
Q 1453 4659 1453 4890 
L 1869 4826 
Q 1952 4826 1952 4762 
Q 1952 4717 1926 4672 
Q 1882 4602 1882 4582 
L 1805 4160 
Q 1805 3789 2131 3226 
Q 2227 3046 2458 2720 
z
" transform="scale(0.015625)"/>
      <path id="AppleGothic-bd09" d="M 4710 371 
Q 4710 941 3238 941 
Q 1715 941 1715 371 
Q 1715 32 2227 -102 
Q 2394 -141 2602 -163 
Q 2810 -186 3059 -186 
L 3238 -186 
Q 3808 -186 4147 -115 
Q 4710 19 4710 371 
z
M 4557 3322 
L 4557 3974 
L 3123 3987 
L 1747 3974 
L 1747 3322 
L 3104 3309 
L 4557 3322 
z
M 5178 371 
Q 5178 141 5043 -35 
Q 4909 -211 4656 -329 
Q 4403 -448 4044 -512 
Q 3686 -576 3238 -576 
Q 2579 -576 2099 -448 
Q 1229 -218 1229 371 
Q 1229 595 1366 768 
Q 1504 941 1763 1056 
Q 2022 1171 2393 1232 
Q 2765 1293 3232 1293 
Q 4147 1293 4662 1062 
Q 5178 832 5178 371 
z
M 6035 1818 
L 3181 1843 
Q 2970 1843 2710 1840 
Q 2451 1837 2144 1830 
Q 1837 1824 1549 1824 
Q 1261 1824 979 1818 
Q 704 1811 550 1811 
Q 397 1811 365 1811 
L 365 2246 
L 1677 2214 
L 2938 2221 
L 2938 2970 
L 1293 2950 
Q 1299 3034 1299 3149 
Q 1299 3264 1306 3418 
Q 1312 3578 1312 3712 
Q 1312 3846 1312 3955 
Q 1312 4243 1312 4432 
Q 1312 4621 1306 4730 
Q 1306 4838 1302 4931 
Q 1299 5024 1293 5114 
L 1427 5114 
Q 1600 5114 1693 5094 
Q 1786 5075 1786 5005 
Q 1786 4979 1766 4924 
Q 1747 4870 1747 4858 
L 1747 4365 
L 3130 4352 
L 4550 4365 
L 4557 4685 
L 4544 5120 
L 4672 5120 
Q 4858 5120 4950 5101 
Q 5043 5082 5043 5011 
Q 5043 4986 5030 4912 
Q 5018 4838 5018 4826 
Q 5011 4749 5011 4646 
Q 5011 4544 5005 4403 
Q 4998 4275 4998 4188 
Q 4998 4102 4998 4058 
L 5018 2950 
L 3398 2970 
L 3398 2221 
L 6035 2246 
L 6035 1818 
z
" transform="scale(0.015625)"/>
      <path id="AppleGothic-d615" d="M 5005 480 
Q 5005 851 4499 986 
Q 4122 1094 3450 1094 
Q 2682 1094 2330 972 
Q 1978 851 1978 499 
Q 1978 218 2352 42 
Q 2726 -134 3462 -134 
Q 4122 -134 4429 -58 
Q 5005 83 5005 480 
z
M 3181 2586 
Q 3181 2950 2842 3085 
Q 2630 3181 2278 3181 
Q 1965 3181 1734 3085 
Q 1389 2950 1389 2592 
Q 1389 2317 1664 2157 
Q 1920 2010 2278 2010 
Q 2643 2010 2899 2157 
Q 3181 2323 3181 2586 
z
M 5446 493 
Q 5446 6 4979 -250 
Q 4474 -531 3462 -531 
Q 2688 -531 2144 -288 
Q 1542 -19 1542 486 
Q 1542 1050 2144 1280 
Q 2611 1466 3430 1466 
Q 4352 1466 4851 1254 
Q 5446 1011 5446 493 
z
M 3622 2586 
Q 3622 2144 3283 1917 
Q 2944 1690 2278 1690 
Q 1798 1690 1485 1805 
Q 928 2022 928 2586 
Q 928 3034 1273 3267 
Q 1619 3501 2278 3501 
Q 2790 3501 3078 3379 
Q 3622 3168 3622 2586 
z
M 5453 5069 
Q 5427 5005 5414 4966 
Q 5402 4928 5402 4896 
L 5389 3616 
L 5414 1453 
L 4947 1421 
L 4954 2291 
L 4422 2310 
L 3872 2291 
L 3872 2650 
L 4410 2630 
L 4954 2650 
L 4966 2976 
L 4954 3251 
L 4864 3251 
Q 4499 3270 4454 3270 
L 3872 3251 
L 3872 3616 
L 4442 3603 
L 4954 3616 
L 4954 4211 
Q 4954 4442 4944 4656 
Q 4934 4870 4934 5094 
L 4934 5190 
L 4960 5190 
Q 5171 5190 5312 5168 
Q 5453 5146 5453 5069 
z
M 3898 3808 
Q 3808 3808 3696 3808 
Q 3584 3808 3450 3814 
Q 2906 3827 2582 3833 
Q 2259 3840 2163 3840 
Q 1760 3840 1357 3833 
Q 954 3827 550 3808 
L 550 4192 
Q 858 4179 1229 4172 
Q 1600 4166 1965 4166 
L 3898 4192 
L 3898 3808 
z
M 3014 4576 
L 2214 4595 
L 1517 4576 
L 1517 4960 
L 2214 4941 
L 3014 4960 
L 3014 4576 
z
" transform="scale(0.015625)"/>
      <path id="AppleGothic-42" d="M 307 5018 
L 2029 5018 
Q 2675 5018 3053 4755 
Q 3494 4442 3494 3859 
Q 3494 3373 3181 3040 
Q 3091 2938 2960 2854 
Q 2829 2771 2662 2694 
Q 3322 2586 3616 2176 
Q 3840 1862 3840 1472 
Q 3840 838 3360 416 
Q 2899 0 2240 0 
L 307 0 
L 307 5018 
z
M 1997 4576 
L 813 4576 
L 813 2854 
L 1766 2854 
Q 2342 2854 2649 3113 
Q 2957 3373 2957 3782 
Q 2957 4102 2739 4333 
Q 2477 4576 1997 4576 
z
M 1907 2413 
L 813 2413 
L 813 442 
L 2029 442 
Q 2579 442 2931 717 
Q 3283 1011 3283 1466 
Q 3283 1926 2928 2169 
Q 2573 2413 1907 2413 
z
" transform="scale(0.015625)"/>
      <path id="AppleGothic-6d" d="M 5389 2195 
L 5389 0 
L 4922 0 
L 4922 2304 
Q 4922 2669 4672 2893 
Q 4461 3085 4173 3085 
Q 3744 3085 3405 2688 
Q 3072 2298 3072 1722 
L 3072 0 
L 2605 0 
L 2605 2304 
Q 2605 2650 2368 2861 
Q 2144 3085 1856 3085 
Q 1440 3085 1114 2714 
Q 755 2304 755 1702 
L 755 0 
L 288 0 
L 288 3424 
L 723 3424 
L 742 2880 
Q 928 3181 1274 3354 
Q 1581 3501 1894 3501 
Q 2381 3501 2714 3219 
Q 2957 3008 3021 2797 
Q 3149 3034 3386 3226 
Q 3757 3501 4205 3501 
Q 4749 3501 5050 3174 
Q 5389 2803 5389 2195 
z
" transform="scale(0.015625)"/>
      <path id="AppleGothic-64" d="M 2682 5018 
L 3174 5018 
L 3174 0 
L 2733 0 
L 2688 557 
Q 2598 429 2508 329 
Q 2419 230 2330 160 
Q 2010 -83 1587 -83 
Q 928 -83 493 429 
Q 64 941 64 1670 
Q 64 2426 518 2957 
Q 979 3501 1670 3501 
Q 1958 3501 2208 3398 
Q 2298 3360 2416 3296 
Q 2534 3232 2682 3142 
L 2682 5018 
z
M 2682 1658 
L 2682 2643 
Q 2381 2906 2157 2995 
Q 1933 3085 1722 3085 
Q 1197 3085 870 2643 
Q 563 2227 563 1677 
Q 563 1088 902 698 
Q 1216 339 1645 339 
Q 2067 339 2374 710 
Q 2682 1082 2682 1658 
z
" transform="scale(0.015625)"/>
      <path id="AppleGothic-6c" d="M 288 5018 
L 749 5018 
L 749 0 
L 288 0 
L 288 5018 
z
" transform="scale(0.015625)"/>
      <path id="AppleGothic-d3ec" d="M 6029 83 
Q 5523 96 4883 102 
Q 4243 109 3546 109 
L 3213 109 
Q 2739 109 2259 102 
Q 1779 96 1274 83 
Q 1094 77 870 70 
Q 646 64 371 51 
L 371 525 
Q 634 512 976 499 
Q 1318 486 1734 486 
L 2970 486 
L 2982 1094 
L 2970 1734 
L 2029 1734 
L 1011 1696 
L 1011 2131 
L 1581 2118 
L 2125 2125 
L 2029 2874 
Q 1997 3059 1971 3203 
Q 1946 3347 1920 3437 
Q 1907 3482 1894 3536 
Q 1882 3590 1869 3648 
L 2298 3680 
Q 2362 3680 2400 3654 
Q 2438 3629 2438 3552 
Q 2438 3366 2448 3187 
Q 2458 3008 2483 2835 
Q 2496 2714 2512 2598 
Q 2528 2483 2541 2368 
Q 2547 2317 2560 2256 
Q 2573 2195 2586 2112 
L 3168 2099 
L 3776 2118 
Q 3789 2182 3801 2230 
Q 3814 2278 3821 2317 
Q 3853 2470 3875 2595 
Q 3898 2720 3910 2816 
Q 3968 3245 3987 3603 
Q 3987 3622 3987 3648 
Q 3987 3674 3994 3706 
Q 4096 3706 4195 3699 
Q 4294 3693 4371 3677 
Q 4448 3661 4493 3641 
Q 4538 3622 4538 3603 
Q 4538 3571 4506 3507 
Q 4474 3443 4461 3386 
Q 4454 3354 4451 3322 
Q 4448 3290 4442 3238 
Q 4435 3187 4412 3065 
Q 4390 2944 4358 2739 
L 4243 2125 
L 4704 2125 
Q 4890 2125 5050 2137 
Q 5210 2150 5338 2163 
L 5338 1702 
Q 5235 1709 5161 1712 
Q 5088 1715 5024 1715 
Q 4563 1734 4442 1734 
L 3456 1734 
L 3443 1094 
L 3456 486 
L 4685 493 
L 6029 538 
L 6029 83 
z
M 5344 4026 
Q 5210 4032 5098 4032 
Q 4986 4032 4896 4032 
Q 4275 4045 3859 4051 
Q 3443 4058 3226 4058 
Q 2982 4058 2649 4051 
Q 2317 4045 1875 4032 
Q 1722 4026 1507 4019 
Q 1293 4013 1011 4000 
L 1011 4448 
Q 1459 4435 2022 4422 
Q 2586 4410 3226 4410 
Q 3706 4410 4058 4413 
Q 4410 4416 4627 4422 
Q 4845 4435 5021 4444 
Q 5197 4454 5344 4467 
L 5344 4026 
z
" transform="scale(0.015625)"/>
     </defs>
     <use xlink:href="#AppleGothic-ac04"/>
     <use xlink:href="#AppleGothic-d5d0" transform="translate(99.999985 0)"/>
     <use xlink:href="#AppleGothic-cc9c" transform="translate(199.999969 0)"/>
     <use xlink:href="#AppleGothic-20" transform="translate(299.999954 0)"/>
     <use xlink:href="#AppleGothic-bd84" transform="translate(331.999939 0)"/>
     <use xlink:href="#AppleGothic-cd9c" transform="translate(431.999924 0)"/>
     <use xlink:href="#AppleGothic-20" transform="translate(531.999908 0)"/>
     <use xlink:href="#AppleGothic-c2dc" transform="translate(563.999893 0)"/>
     <use xlink:href="#AppleGothic-ac04" transform="translate(663.999878 0)"/>
     <use xlink:href="#AppleGothic-28" transform="translate(763.999863 0)"/>
     <use xlink:href="#AppleGothic-44" transform="translate(813.999847 0)"/>
     <use xlink:href="#AppleGothic-75" transform="translate(882.499832 0)"/>
     <use xlink:href="#AppleGothic-72" transform="translate(937.999817 0)"/>
     <use xlink:href="#AppleGothic-61" transform="translate(973.199814 0)"/>
     <use xlink:href="#AppleGothic-74" transform="translate(1029.699799 0)"/>
     <use xlink:href="#AppleGothic-69" transform="translate(1063.899796 0)"/>
     <use xlink:href="#AppleGothic-6f" transform="translate(1079.799789 0)"/>
     <use xlink:href="#AppleGothic-6e" transform="translate(1138.099777 0)"/>
     <use xlink:href="#AppleGothic-29" transform="translate(1193.999771 0)"/>
     <use xlink:href="#AppleGothic-c758" transform="translate(1243.999756 0)"/>
     <use xlink:href="#AppleGothic-20" transform="translate(1343.999741 0)"/>
     <use xlink:href="#AppleGothic-c30d" transform="translate(1375.999725 0)"/>
     <use xlink:href="#AppleGothic-bd09" transform="translate(1475.99971 0)"/>
     <use xlink:href="#AppleGothic-d615" transform="translate(1575.999695 0)"/>
     <use xlink:href="#AppleGothic-28" transform="translate(1675.99968 0)"/>
     <use xlink:href="#AppleGothic-42" transform="translate(1725.999664 0)"/>
     <use xlink:href="#AppleGothic-69" transform="translate(1790.399658 0)"/>
     <use xlink:href="#AppleGothic-6d" transform="translate(1806.299652 0)"/>
     <use xlink:href="#AppleGothic-6f" transform="translate(1895.59964 0)"/>
     <use xlink:href="#AppleGothic-64" transform="translate(1953.899628 0)"/>
     <use xlink:href="#AppleGothic-61" transform="translate(2007.899612 0)"/>
     <use xlink:href="#AppleGothic-6c" transform="translate(2064.399597 0)"/>
     <use xlink:href="#AppleGothic-29" transform="translate(2081.099594 0)"/>
     <use xlink:href="#AppleGothic-20" transform="translate(2131.099579 0)"/>
     <use xlink:href="#AppleGothic-bd84" transform="translate(2163.099564 0)"/>
     <use xlink:href="#AppleGothic-d3ec" transform="translate(2263.099548 0)"/>
    </g>
   </g>
   <g id="legend_1">
    <g id="patch_37">
     <path d="M 495.958125 47.425781 
L 597.433125 47.425781 
Q 599.633125 47.425781 599.633125 45.225781 
L 599.633125 30.30875 
Q 599.633125 28.10875 597.433125 28.10875 
L 495.958125 28.10875 
Q 493.758125 28.10875 493.758125 30.30875 
L 493.758125 45.225781 
Q 493.758125 47.425781 495.958125 47.425781 
z
" style="fill: #ffffff; opacity: 0.8; stroke: #cccccc; stroke-linejoin: miter"/>
    </g>
    <g id="line2d_16">
     <path d="M 498.158125 37.283438 
L 509.158125 37.283438 
L 520.158125 37.283438 
" style="fill: none; stroke-dasharray: 7.4,3.2; stroke-dashoffset: 0; stroke: #ff0000; stroke-width: 2"/>
    </g>
    <g id="text_17">
     <!-- 평균 (3.5분) -->
     <g style="fill: #262626" transform="translate(528.958125 41.133438) scale(0.11 -0.11)">
      <defs>
       <path id="AppleGothic-d3c9" d="M 4915 467 
Q 4915 832 4403 986 
Q 3987 1114 3264 1114 
Q 2477 1114 2093 979 
Q 1651 826 1651 467 
Q 1651 134 2189 -26 
Q 2611 -147 3315 -147 
Q 3738 -147 4051 -102 
Q 4365 -58 4570 38 
Q 4915 192 4915 467 
z
M 5402 467 
Q 5402 -45 4832 -294 
Q 4307 -518 3302 -518 
Q 2362 -518 1824 -307 
Q 1197 -45 1197 474 
Q 1197 1050 1862 1280 
Q 2355 1459 3270 1459 
Q 4269 1459 4806 1235 
Q 5402 986 5402 467 
z
M 4019 2061 
Q 3898 2042 3712 2022 
Q 3526 2003 3289 1990 
Q 3053 1978 2777 1968 
Q 2502 1958 2202 1958 
L 877 1914 
Q 826 1901 771 1888 
Q 717 1875 666 1862 
Q 589 1862 538 2022 
Q 486 2208 486 2304 
L 902 2285 
Q 1075 2285 1206 2291 
Q 1338 2298 1440 2310 
L 1344 3085 
L 1222 3910 
L 1626 3917 
Q 1734 3917 1734 3846 
Q 1734 3821 1721 3750 
Q 1709 3680 1709 3648 
L 1862 2323 
L 2611 2349 
Q 2656 2618 2688 2816 
Q 2720 3014 2739 3142 
Q 2778 3411 2794 3606 
Q 2810 3802 2810 3936 
Q 3034 3936 3184 3904 
Q 3334 3872 3334 3821 
Q 3334 3782 3292 3708 
Q 3251 3635 3245 3603 
L 3053 2368 
Q 3194 2368 3386 2387 
Q 3610 2413 3750 2422 
Q 3891 2432 3949 2432 
L 4019 2061 
z
M 5446 5094 
Q 5446 5069 5420 4982 
Q 5395 4896 5395 4838 
L 5382 3398 
L 5395 1510 
L 4890 1510 
Q 4890 1632 4893 1734 
Q 4896 1837 4902 1933 
Q 4928 2266 4934 2442 
Q 4941 2618 4941 2650 
L 4339 2662 
L 3821 2650 
L 3821 3027 
L 4397 3014 
L 4941 3027 
L 4941 3674 
L 3827 3674 
L 3827 4058 
Q 3942 4045 4092 4038 
Q 4243 4032 4384 4032 
L 4941 4051 
L 4941 4826 
L 4915 5190 
L 5299 5171 
Q 5446 5171 5446 5094 
z
M 3891 4416 
L 2266 4422 
Q 1862 4422 1606 4422 
Q 1350 4422 1222 4416 
Q 1075 4403 924 4400 
Q 774 4397 627 4390 
L 627 4787 
Q 640 4787 800 4787 
Q 960 4787 1286 4781 
Q 1613 4774 1843 4774 
Q 2074 4774 2221 4774 
Q 3814 4813 3891 4813 
L 3891 4416 
z
" transform="scale(0.015625)"/>
       <path id="AppleGothic-ade0" d="M 5325 -403 
L 3226 -403 
Q 2893 -403 2611 -403 
Q 2330 -403 2080 -406 
Q 1830 -410 1606 -416 
Q 1382 -422 1171 -429 
Q 1178 -262 1181 -54 
Q 1184 154 1184 282 
L 1165 1024 
Q 1370 1024 1507 1005 
Q 1645 986 1645 947 
Q 1645 941 1619 861 
Q 1594 781 1594 704 
L 1587 -70 
L 5325 -38 
L 5325 -403 
z
M 6010 2662 
L 5280 2682 
L 4314 2669 
L 4314 1184 
L 4333 749 
L 3910 698 
L 3910 2675 
L 3270 2694 
Q 3053 2694 2784 2675 
Q 2758 2675 2726 2672 
Q 2694 2669 2650 2662 
Q 2650 2605 2643 2397 
Q 2637 2189 2637 1958 
L 2637 1005 
L 2208 973 
L 2234 2054 
Q 2234 2285 2230 2425 
Q 2227 2566 2221 2656 
L 1709 2656 
L 1555 2656 
L 1408 2656 
Q 1376 2662 1353 2665 
Q 1331 2669 1318 2669 
L 390 2650 
L 390 3040 
Q 634 3034 912 3027 
Q 1190 3021 1478 3017 
Q 1766 3014 2057 3014 
Q 2349 3014 2618 3014 
L 4397 3034 
Q 4416 3059 4467 3235 
Q 4518 3411 4589 3744 
Q 4659 4077 4694 4275 
Q 4730 4474 4730 4544 
Q 4582 4538 4368 4538 
Q 4154 4538 3872 4531 
Q 3597 4525 3401 4525 
Q 3206 4525 3085 4525 
L 1114 4512 
L 1114 4883 
L 5229 4902 
Q 5158 4378 5068 3923 
Q 4979 3469 4832 3046 
L 5408 3027 
Q 5574 3027 5737 3036 
Q 5901 3046 6010 3053 
L 6010 2662 
z
" transform="scale(0.015625)"/>
      </defs>
      <use xlink:href="#AppleGothic-d3c9"/>
      <use xlink:href="#AppleGothic-ade0" transform="translate(99.999985 0)"/>
      <use xlink:href="#AppleGothic-20" transform="translate(199.999969 0)"/>
      <use xlink:href="#AppleGothic-28" transform="translate(231.999954 0)"/>
      <use xlink:href="#AppleGothic-33" transform="translate(281.999939 0)"/>
      <use xlink:href="#AppleGothic-2e" transform="translate(349.999924 0)"/>
      <use xlink:href="#AppleGothic-35" transform="translate(384.499908 0)"/>
      <use xlink:href="#AppleGothic-bd84" transform="translate(452.499893 0)"/>
      <use xlink:href="#AppleGothic-29" transform="translate(552.499878 0)"/>
     </g>
    </g>
   </g>
  </g>
 </g>
 <defs>
  <clipPath id="pdb4573298d">
   <rect x="47.133125" y="22.60875" width="558" height="277.2"/>
  </clipPath>
 </defs>
</svg>
