<?xml version="1.0" encoding="utf-8" standalone="no"?>
<!DOCTYPE svg PUBLIC "-//W3C//DTD SVG 1.1//EN"
  "http://www.w3.org/Graphics/SVG/1.1/DTD/svg11.dtd">
<svg xmlns:xlink="http://www.w3.org/1999/xlink" width="612.333125pt" height="401.682656pt" viewBox="0 0 612.333125 401.682656" xmlns="http://www.w3.org/2000/svg" version="1.1">
 <metadata>
  <rdf:RDF xmlns:dc="http://purl.org/dc/elements/1.1/" xmlns:cc="http://creativecommons.org/ns#" xmlns:rdf="http://www.w3.org/1999/02/22-rdf-syntax-ns#">
   <cc:Work>
    <dc:type rdf:resource="http://purl.org/dc/dcmitype/StillImage"/>
    <dc:date>2026-05-22T02:33:57.043291</dc:date>
    <dc:format>image/svg+xml</dc:format>
    <dc:creator>
     <cc:Agent>
      <dc:title>Matplotlib v3.10.9, https://matplotlib.org/</dc:title>
     </cc:Agent>
    </dc:creator>
   </cc:Work>
  </rdf:RDF>
 </metadata>
 <defs>
  <style type="text/css">*{stroke-linejoin: round; stroke-linecap: butt}</style>
 </defs>
 <g id="figure_1">
  <g id="patch_1">
   <path d="M 0 401.682656 
L 612.333125 401.682656 
L 612.333125 0 
L 0 0 
z
" style="fill: #ffffff"/>
  </g>
  <g id="axes_1">
   <g id="patch_2">
    <path d="M 47.133125 358.9925 
L 605.133125 358.9925 
L 605.133125 26.3525 
L 47.133125 26.3525 
z
" style="fill: #ffffff"/>
   </g>
   <g id="matplotlib.axis_1">
    <g id="xtick_1">
     <g id="line2d_1">
      <path d="M 72.496761 358.9925 
L 72.496761 26.3525 
" clip-path="url(#p98601a1493)" style="fill: none; stroke-dasharray: 3.7,1.6; stroke-dashoffset: 0; stroke: #cccccc; stroke-opacity: 0.6"/>
     </g>
     <g id="line2d_2">
      <defs>
       <path id="mf0423d6df9" d="M 0 0 
L 0 6 
" style="stroke: #262626; stroke-width: 1.25"/>
      </defs>
      <g>
       <use xlink:href="#mf0423d6df9" x="72.496761" y="358.9925" style="fill: #262626; stroke: #262626; stroke-width: 1.25"/>
      </g>
     </g>
     <g id="text_1">
      <!-- 1 -->
      <g style="fill: #262626" transform="translate(68.756761 377.117187) scale(0.11 -0.11)">
       <defs>
        <path id="AppleGothic-31" d="M 2342 4774 
L 2752 4774 
L 2752 0 
L 2285 0 
L 2285 3526 
L 1158 3526 
L 1158 3885 
L 1414 3885 
Q 1990 3885 2214 4205 
Q 2342 4410 2342 4774 
z
" transform="scale(0.015625)"/>
       </defs>
       <use xlink:href="#AppleGothic-31"/>
      </g>
     </g>
    </g>
    <g id="xtick_2">
     <g id="line2d_3">
      <path d="M 118.612464 358.9925 
L 118.612464 26.3525 
" clip-path="url(#p98601a1493)" style="fill: none; stroke-dasharray: 3.7,1.6; stroke-dashoffset: 0; stroke: #cccccc; stroke-opacity: 0.6"/>
     </g>
     <g id="line2d_4">
      <g>
       <use xlink:href="#mf0423d6df9" x="118.612464" y="358.9925" style="fill: #262626; stroke: #262626; stroke-width: 1.25"/>
      </g>
     </g>
     <g id="text_2">
      <!-- 2 -->
      <g style="fill: #262626" transform="translate(114.872464 377.117187) scale(0.11 -0.11)">
       <defs>
        <path id="AppleGothic-32" d="M 1101 429 
L 3942 429 
L 3942 0 
L 653 0 
L 653 205 
Q 653 1018 1344 1664 
Q 1670 1894 1990 2124 
Q 2310 2355 2637 2592 
Q 3334 3098 3334 3597 
Q 3334 3994 3014 4218 
Q 2867 4326 2694 4377 
Q 2522 4429 2317 4429 
Q 2016 4429 1741 4352 
Q 1325 4224 883 3910 
L 883 4435 
Q 1325 4659 1667 4758 
Q 2010 4858 2317 4858 
Q 2963 4858 3405 4525 
Q 3840 4198 3840 3622 
Q 3840 2995 3168 2438 
Q 2848 2214 2531 2000 
Q 2214 1786 1894 1562 
Q 1178 1024 1101 429 
z
" transform="scale(0.015625)"/>
       </defs>
       <use xlink:href="#AppleGothic-32"/>
      </g>
     </g>
    </g>
    <g id="xtick_3">
     <g id="line2d_5">
      <path d="M 164.728166 358.9925 
L 164.728166 26.3525 
" clip-path="url(#p98601a1493)" style="fill: none; stroke-dasharray: 3.7,1.6; stroke-dashoffset: 0; stroke: #cccccc; stroke-opacity: 0.6"/>
     </g>
     <g id="line2d_6">
      <g>
       <use xlink:href="#mf0423d6df9" x="164.728166" y="358.9925" style="fill: #262626; stroke: #262626; stroke-width: 1.25"/>
      </g>
     </g>
     <g id="text_3">
      <!-- 3 -->
      <g style="fill: #262626" transform="translate(160.988166 377.117187) scale(0.11 -0.11)">
       <defs>
        <path id="AppleGothic-33" d="M 550 333 
L 550 870 
Q 883 621 1235 483 
Q 1587 346 1971 346 
Q 2522 346 2861 666 
Q 3219 992 3219 1421 
Q 3219 1869 2842 2099 
Q 2515 2304 1965 2304 
L 992 2304 
L 992 2701 
L 1658 2701 
Q 2298 2701 2662 2928 
Q 3027 3155 3027 3584 
Q 3027 3936 2752 4173 
Q 2458 4429 1978 4429 
Q 1786 4429 1597 4393 
Q 1408 4358 1222 4282 
Q 890 4141 531 3872 
L 531 4422 
Q 736 4531 912 4608 
Q 1088 4685 1254 4736 
Q 1626 4858 2022 4858 
Q 2650 4858 3066 4531 
Q 3488 4211 3488 3642 
Q 3488 3168 3168 2861 
Q 2976 2675 2643 2554 
Q 2874 2522 3053 2448 
Q 3232 2374 3366 2266 
Q 3718 1971 3718 1434 
Q 3718 813 3219 365 
Q 2714 -83 1965 -83 
Q 1549 -83 1126 70 
Q 1024 102 880 166 
Q 736 230 550 333 
z
" transform="scale(0.015625)"/>
       </defs>
       <use xlink:href="#AppleGothic-33"/>
      </g>
     </g>
    </g>
    <g id="xtick_4">
     <g id="line2d_7">
      <path d="M 210.843869 358.9925 
L 210.843869 26.3525 
" clip-path="url(#p98601a1493)" style="fill: none; stroke-dasharray: 3.7,1.6; stroke-dashoffset: 0; stroke: #cccccc; stroke-opacity: 0.6"/>
     </g>
     <g id="line2d_8">
      <g>
       <use xlink:href="#mf0423d6df9" x="210.843869" y="358.9925" style="fill: #262626; stroke: #262626; stroke-width: 1.25"/>
      </g>
     </g>
     <g id="text_4">
      <!-- 4 -->
      <g style="fill: #262626" transform="translate(207.103869 377.117187) scale(0.11 -0.11)">
       <defs>
        <path id="AppleGothic-34" d="M 2662 4774 
L 3130 4774 
L 3130 1811 
L 4000 1811 
L 4000 1382 
L 3130 1382 
L 3130 0 
L 2662 0 
L 2662 1382 
L 352 1382 
L 352 1811 
L 2662 4774 
z
M 2662 1811 
L 2662 4166 
L 838 1811 
L 2662 1811 
z
" transform="scale(0.015625)"/>
       </defs>
       <use xlink:href="#AppleGothic-34"/>
      </g>
     </g>
    </g>
    <g id="xtick_5">
     <g id="line2d_9">
      <path d="M 256.959571 358.9925 
L 256.959571 26.3525 
" clip-path="url(#p98601a1493)" style="fill: none; stroke-dasharray: 3.7,1.6; stroke-dashoffset: 0; stroke: #cccccc; stroke-opacity: 0.6"/>
     </g>
     <g id="line2d_10">
      <g>
       <use xlink:href="#mf0423d6df9" x="256.959571" y="358.9925" style="fill: #262626; stroke: #262626; stroke-width: 1.25"/>
      </g>
     </g>
     <g id="text_5">
      <!-- 5 -->
      <g style="fill: #262626" transform="translate(253.219571 377.117187) scale(0.11 -0.11)">
       <defs>
        <path id="AppleGothic-35" d="M 621 4768 
L 3488 4768 
L 3488 4339 
L 1088 4339 
L 1088 2707 
Q 1184 2771 1293 2819 
Q 1402 2867 1510 2912 
Q 1862 3040 2259 3040 
Q 2989 3040 3424 2605 
Q 3827 2202 3827 1581 
Q 3827 870 3296 397 
Q 2765 -83 2010 -83 
Q 1651 -83 1248 45 
Q 1158 77 1001 137 
Q 845 198 621 301 
L 621 838 
Q 928 640 1203 525 
Q 1408 435 1613 390 
Q 1818 346 2010 346 
Q 2528 346 2906 666 
Q 3322 1011 3322 1536 
Q 3322 1990 3021 2291 
Q 2701 2611 2144 2611 
Q 1856 2611 1587 2528 
Q 1318 2445 1088 2272 
L 621 2272 
L 621 4768 
z
" transform="scale(0.015625)"/>
       </defs>
       <use xlink:href="#AppleGothic-35"/>
      </g>
     </g>
    </g>
    <g id="xtick_6">
     <g id="line2d_11">
      <path d="M 303.075274 358.9925 
L 303.075274 26.3525 
" clip-path="url(#p98601a1493)" style="fill: none; stroke-dasharray: 3.7,1.6; stroke-dashoffset: 0; stroke: #cccccc; stroke-opacity: 0.6"/>
     </g>
     <g id="line2d_12">
      <g>
       <use xlink:href="#mf0423d6df9" x="303.075274" y="358.9925" style="fill: #262626; stroke: #262626; stroke-width: 1.25"/>
      </g>
     </g>
     <g id="text_6">
      <!-- 6 -->
      <g style="fill: #262626" transform="translate(299.335274 377.117187) scale(0.11 -0.11)">
       <defs>
        <path id="AppleGothic-36" d="M 3699 4557 
L 3699 4013 
Q 3584 4102 3475 4163 
Q 3366 4224 3258 4275 
Q 3085 4358 2918 4393 
Q 2752 4429 2586 4429 
Q 2470 4429 2352 4409 
Q 2234 4390 2118 4339 
Q 1670 4154 1395 3738 
Q 1011 3149 1011 2189 
Q 1312 2490 1568 2656 
Q 2022 2931 2534 2931 
Q 3162 2931 3584 2566 
Q 4038 2163 4038 1491 
Q 4038 806 3558 358 
Q 3078 -83 2394 -83 
Q 1670 -83 1146 454 
Q 518 1088 518 2253 
Q 518 3411 1120 4134 
Q 1715 4858 2605 4858 
Q 2938 4858 3226 4762 
Q 3309 4730 3427 4682 
Q 3546 4634 3699 4557 
z
M 1062 1702 
Q 1152 1152 1498 768 
Q 1882 346 2419 346 
Q 2899 346 3213 659 
Q 3539 973 3539 1459 
Q 3539 1920 3226 2214 
Q 2918 2502 2496 2502 
Q 1990 2502 1542 2176 
Q 1414 2080 1292 1965 
Q 1171 1850 1062 1702 
z
" transform="scale(0.015625)"/>
       </defs>
       <use xlink:href="#AppleGothic-36"/>
      </g>
     </g>
    </g>
    <g id="xtick_7">
     <g id="line2d_13">
      <path d="M 349.190976 358.9925 
L 349.190976 26.3525 
" clip-path="url(#p98601a1493)" style="fill: none; stroke-dasharray: 3.7,1.6; stroke-dashoffset: 0; stroke: #cccccc; stroke-opacity: 0.6"/>
     </g>
     <g id="line2d_14">
      <g>
       <use xlink:href="#mf0423d6df9" x="349.190976" y="358.9925" style="fill: #262626; stroke: #262626; stroke-width: 1.25"/>
      </g>
     </g>
     <g id="text_7">
      <!-- 7 -->
      <g style="fill: #262626" transform="translate(345.450976 377.117187) scale(0.11 -0.11)">
       <defs>
        <path id="AppleGothic-37" d="M 595 4774 
L 3802 4774 
L 3802 4410 
L 1734 0 
L 1235 0 
L 3277 4352 
L 595 4352 
L 595 4774 
z
" transform="scale(0.015625)"/>
       </defs>
       <use xlink:href="#AppleGothic-37"/>
      </g>
     </g>
    </g>
    <g id="xtick_8">
     <g id="line2d_15">
      <path d="M 395.306679 358.9925 
L 395.306679 26.3525 
" clip-path="url(#p98601a1493)" style="fill: none; stroke-dasharray: 3.7,1.6; stroke-dashoffset: 0; stroke: #cccccc; stroke-opacity: 0.6"/>
     </g>
     <g id="line2d_16">
      <g>
       <use xlink:href="#mf0423d6df9" x="395.306679" y="358.9925" style="fill: #262626; stroke: #262626; stroke-width: 1.25"/>
      </g>
     </g>
     <g id="text_8">
      <!-- 8 -->
      <g style="fill: #262626" transform="translate(391.566679 377.117187) scale(0.11 -0.11)">
       <defs>
        <path id="AppleGothic-38" d="M 2957 2605 
Q 3219 2528 3404 2445 
Q 3590 2362 3706 2272 
Q 4192 1926 4192 1370 
Q 4192 749 3642 333 
Q 3098 -83 2285 -83 
Q 1434 -83 947 326 
Q 512 691 512 1229 
Q 512 1798 998 2125 
Q 1146 2227 1341 2304 
Q 1536 2381 1779 2451 
Q 1574 2534 1430 2617 
Q 1286 2701 1197 2784 
Q 819 3104 819 3603 
Q 819 4173 1261 4512 
Q 1702 4858 2381 4858 
Q 3014 4858 3437 4570 
Q 3898 4262 3898 3738 
Q 3898 3373 3670 3081 
Q 3443 2790 2957 2605 
z
M 2406 2752 
Q 2624 2835 2781 2915 
Q 2938 2995 3040 3066 
Q 3398 3322 3398 3667 
Q 3398 3994 3104 4205 
Q 2822 4429 2362 4429 
Q 1894 4429 1613 4205 
Q 1325 3994 1325 3635 
Q 1325 3322 1581 3098 
Q 1696 3002 1901 2912 
Q 2106 2822 2406 2752 
z
M 2368 2304 
Q 2061 2202 1840 2106 
Q 1619 2010 1472 1920 
Q 1011 1626 1011 1235 
Q 1011 845 1376 595 
Q 1728 346 2310 346 
Q 2938 346 3315 640 
Q 3693 934 3693 1338 
Q 3693 1741 3238 1997 
Q 3104 2067 2886 2147 
Q 2669 2227 2368 2304 
z
" transform="scale(0.015625)"/>
       </defs>
       <use xlink:href="#AppleGothic-38"/>
      </g>
     </g>
    </g>
    <g id="xtick_9">
     <g id="line2d_17">
      <path d="M 441.422381 358.9925 
L 441.422381 26.3525 
" clip-path="url(#p98601a1493)" style="fill: none; stroke-dasharray: 3.7,1.6; stroke-dashoffset: 0; stroke: #cccccc; stroke-opacity: 0.6"/>
     </g>
     <g id="line2d_18">
      <g>
       <use xlink:href="#mf0423d6df9" x="441.422381" y="358.9925" style="fill: #262626; stroke: #262626; stroke-width: 1.25"/>
      </g>
     </g>
     <g id="text_9">
      <!-- 9 -->
      <g style="fill: #262626" transform="translate(437.682381 377.117187) scale(0.11 -0.11)">
       <defs>
        <path id="AppleGothic-39" d="M 928 211 
L 928 762 
Q 1050 672 1155 601 
Q 1261 531 1363 480 
Q 1702 320 2016 320 
Q 2291 320 2541 435 
Q 2739 525 2908 675 
Q 3078 826 3213 1037 
Q 3456 1408 3552 1843 
Q 3616 2144 3616 2573 
Q 3315 2272 3066 2125 
Q 2605 1850 2093 1850 
Q 1459 1850 1037 2214 
Q 589 2598 589 3270 
Q 589 3987 1082 4416 
Q 1549 4832 2234 4832 
Q 2970 4832 3494 4301 
Q 4122 3661 4122 2528 
Q 4122 1325 3475 582 
Q 2874 -109 2035 -109 
Q 1722 -109 1357 19 
Q 1254 51 1148 102 
Q 1043 154 928 211 
z
M 3578 3066 
Q 3462 3718 3053 4077 
Q 2675 4403 2227 4403 
Q 1715 4403 1402 4083 
Q 1082 3750 1082 3302 
Q 1082 2861 1370 2566 
Q 1658 2278 2125 2278 
Q 2573 2278 2915 2473 
Q 3258 2669 3578 3066 
z
" transform="scale(0.015625)"/>
       </defs>
       <use xlink:href="#AppleGothic-39"/>
      </g>
     </g>
    </g>
    <g id="xtick_10">
     <g id="line2d_19">
      <path d="M 487.538084 358.9925 
L 487.538084 26.3525 
" clip-path="url(#p98601a1493)" style="fill: none; stroke-dasharray: 3.7,1.6; stroke-dashoffset: 0; stroke: #cccccc; stroke-opacity: 0.6"/>
     </g>
     <g id="line2d_20">
      <g>
       <use xlink:href="#mf0423d6df9" x="487.538084" y="358.9925" style="fill: #262626; stroke: #262626; stroke-width: 1.25"/>
      </g>
     </g>
     <g id="text_10">
      <!-- 10 -->
      <g style="fill: #262626" transform="translate(480.058084 377.117187) scale(0.11 -0.11)">
       <defs>
        <path id="AppleGothic-30" d="M 2227 -83 
Q 1414 -83 934 576 
Q 461 1229 461 2387 
Q 461 3552 973 4218 
Q 1453 4858 2221 4858 
Q 3027 4858 3482 4173 
Q 3955 3494 3955 2394 
Q 3955 1248 3462 582 
Q 2976 -83 2227 -83 
z
M 2176 346 
Q 2861 346 3200 992 
Q 3462 1536 3462 2400 
Q 3462 3315 3162 3859 
Q 2822 4429 2214 4429 
Q 1574 4429 1248 3821 
Q 960 3283 960 2374 
Q 960 1478 1248 941 
Q 1574 346 2176 346 
z
" transform="scale(0.015625)"/>
       </defs>
       <use xlink:href="#AppleGothic-31"/>
       <use xlink:href="#AppleGothic-30" transform="translate(67.999985 0)"/>
      </g>
     </g>
    </g>
    <g id="xtick_11">
     <g id="line2d_21">
      <path d="M 533.653786 358.9925 
L 533.653786 26.3525 
" clip-path="url(#p98601a1493)" style="fill: none; stroke-dasharray: 3.7,1.6; stroke-dashoffset: 0; stroke: #cccccc; stroke-opacity: 0.6"/>
     </g>
     <g id="line2d_22">
      <g>
       <use xlink:href="#mf0423d6df9" x="533.653786" y="358.9925" style="fill: #262626; stroke: #262626; stroke-width: 1.25"/>
      </g>
     </g>
     <g id="text_11">
      <!-- 11 -->
      <g style="fill: #262626" transform="translate(526.173786 377.117187) scale(0.11 -0.11)">
       <use xlink:href="#AppleGothic-31"/>
       <use xlink:href="#AppleGothic-31" transform="translate(67.999985 0)"/>
      </g>
     </g>
    </g>
    <g id="xtick_12">
     <g id="line2d_23">
      <path d="M 579.769489 358.9925 
L 579.769489 26.3525 
" clip-path="url(#p98601a1493)" style="fill: none; stroke-dasharray: 3.7,1.6; stroke-dashoffset: 0; stroke: #cccccc; stroke-opacity: 0.6"/>
     </g>
     <g id="line2d_24">
      <g>
       <use xlink:href="#mf0423d6df9" x="579.769489" y="358.9925" style="fill: #262626; stroke: #262626; stroke-width: 1.25"/>
      </g>
     </g>
     <g id="text_12">
      <!-- 12 -->
      <g style="fill: #262626" transform="translate(572.289489 377.117187) scale(0.11 -0.11)">
       <use xlink:href="#AppleGothic-31"/>
       <use xlink:href="#AppleGothic-32" transform="translate(67.999985 0)"/>
      </g>
     </g>
    </g>
    <g id="text_13">
     <!-- 월 (Month) -->
     <g style="fill: #262626" transform="translate(294.710938 392.418281) scale(0.12 -0.12)">
      <defs>
       <path id="AppleGothic-c6d4" d="M 3264 4128 
Q 3264 4346 3066 4506 
Q 2829 4685 2394 4685 
Q 1952 4685 1702 4560 
Q 1453 4435 1453 4122 
Q 1453 3872 1734 3731 
Q 2010 3590 2394 3590 
Q 2752 3590 2989 3712 
Q 3264 3872 3264 4128 
z
M 5587 -358 
L 3603 -346 
Q 3002 -346 2480 -358 
Q 1958 -371 1498 -390 
Q 1510 -294 1520 -131 
Q 1530 32 1530 179 
Q 1530 467 1523 592 
Q 1517 717 1504 787 
L 3520 800 
Q 3885 800 4237 806 
Q 4589 813 4890 826 
L 4890 1267 
Q 4563 1267 4112 1257 
Q 3661 1248 3187 1238 
Q 2714 1229 2266 1222 
Q 1818 1216 1491 1216 
L 1491 1542 
Q 1760 1530 2121 1523 
Q 2483 1517 2957 1517 
Q 3168 1517 3510 1520 
Q 3853 1523 4339 1530 
Q 4819 1536 5072 1539 
Q 5325 1542 5357 1542 
L 5344 1030 
L 5363 557 
Q 5197 550 4982 544 
Q 4768 538 4499 531 
Q 4230 525 3993 525 
Q 3757 525 3546 525 
Q 3238 525 2924 515 
Q 2611 506 2266 493 
Q 2138 493 1965 474 
L 1965 -51 
L 3213 -64 
L 3597 -64 
Q 4134 -64 4915 -26 
Q 5165 -19 5587 13 
L 5587 -358 
z
M 4250 2739 
L 2618 2605 
L 2605 2170 
Q 2605 1984 2608 1917 
Q 2611 1850 2618 1811 
L 2189 1805 
L 2182 2586 
L 922 2534 
Q 870 2534 787 2505 
Q 704 2477 685 2477 
Q 640 2477 614 2534 
L 486 2886 
L 979 2880 
Q 1088 2880 1273 2883 
Q 1459 2886 1722 2893 
Q 2227 2912 2406 2912 
Q 2630 2912 2921 2931 
Q 3213 2950 3584 2982 
Q 3706 2995 3866 3011 
Q 4026 3027 4230 3053 
L 4250 2739 
z
M 5402 5082 
Q 5402 5069 5382 4976 
Q 5363 4883 5363 4794 
L 5357 3584 
Q 5357 2963 5363 2547 
Q 5370 2131 5382 1824 
L 4928 1760 
L 4928 2112 
L 4499 2118 
L 3622 2093 
L 3622 2426 
L 4314 2413 
Q 4525 2413 4688 2422 
Q 4851 2432 4941 2445 
L 4941 4762 
Q 4941 4966 4934 5056 
Q 4928 5146 4915 5190 
Q 5126 5190 5264 5177 
Q 5402 5165 5402 5082 
z
M 3699 4122 
Q 3699 3706 3334 3475 
Q 2976 3264 2394 3264 
Q 1818 3264 1446 3482 
Q 1043 3712 1043 4122 
Q 1043 4512 1350 4742 
Q 1523 4883 1785 4947 
Q 2048 5011 2394 5011 
Q 3104 5011 3424 4736 
Q 3699 4499 3699 4122 
z
" transform="scale(0.015625)"/>
       <path id="AppleGothic-20" transform="scale(0.015625)"/>
       <path id="AppleGothic-28" d="M 2227 5261 
L 2650 5261 
Q 2342 4768 2169 4473 
Q 1997 4179 1958 4083 
Q 1606 3283 1606 2272 
Q 1606 1587 1754 1018 
Q 1882 570 2138 102 
Q 2150 70 2275 -131 
Q 2400 -333 2630 -717 
L 2227 -717 
Q 2099 -531 1980 -355 
Q 1862 -179 1734 0 
Q 1581 243 1469 483 
Q 1357 723 1274 954 
Q 1069 1587 1069 2272 
Q 1069 2963 1261 3558 
Q 1338 3789 1450 4022 
Q 1562 4256 1715 4499 
Q 1843 4691 1971 4880 
Q 2099 5069 2227 5261 
z
" transform="scale(0.015625)"/>
       <path id="AppleGothic-4d" d="M 288 0 
L 288 5018 
L 947 5018 
L 2893 864 
L 4902 5018 
L 5523 5018 
L 5523 0 
L 5069 0 
L 5069 4358 
L 3002 0 
L 2784 0 
L 749 4352 
L 749 0 
L 288 0 
z
" transform="scale(0.015625)"/>
       <path id="AppleGothic-6f" d="M 1888 -83 
Q 1229 -83 730 397 
Q 198 902 198 1709 
Q 198 2470 666 2982 
Q 1146 3501 1850 3501 
Q 2547 3501 3027 2982 
Q 3501 2470 3501 1715 
Q 3501 922 2989 403 
Q 2515 -83 1888 -83 
z
M 1843 339 
Q 2304 339 2662 723 
Q 3008 1114 3008 1715 
Q 3008 2336 2637 2726 
Q 2298 3085 1850 3085 
Q 1389 3085 1062 2714 
Q 704 2304 704 1709 
Q 704 1107 1056 704 
Q 1382 339 1843 339 
z
" transform="scale(0.015625)"/>
       <path id="AppleGothic-6e" d="M 3264 2291 
L 3264 0 
L 2803 0 
L 2803 2259 
Q 2803 2618 2541 2848 
Q 2278 3085 1914 3085 
Q 1427 3085 1075 2682 
Q 723 2272 723 1760 
L 723 0 
L 288 0 
L 288 3424 
L 691 3424 
L 710 2784 
Q 883 3046 1114 3219 
Q 1491 3501 1965 3501 
Q 2515 3501 2886 3168 
Q 3264 2842 3264 2291 
z
" transform="scale(0.015625)"/>
       <path id="AppleGothic-74" d="M 691 4435 
L 1114 4435 
L 1114 3430 
L 2016 3430 
L 2016 3014 
L 1114 3014 
L 1114 838 
Q 1114 570 1213 454 
Q 1312 339 1555 339 
Q 1696 339 1795 371 
Q 1894 403 2016 454 
L 2016 38 
Q 1914 6 1770 -22 
Q 1626 -51 1478 -51 
Q 1094 -51 883 122 
Q 646 301 646 698 
L 646 3014 
L 70 3014 
L 70 3430 
L 646 3430 
L 691 4435 
z
" transform="scale(0.015625)"/>
       <path id="AppleGothic-68" d="M 288 5018 
L 749 5018 
L 749 2810 
Q 909 3066 1139 3238 
Q 1491 3501 1926 3501 
Q 2195 3501 2409 3424 
Q 2624 3347 2803 3200 
Q 3181 2867 3181 2266 
L 3181 0 
L 2714 0 
L 2714 2202 
Q 2714 2573 2477 2829 
Q 2240 3085 1901 3085 
Q 1408 3085 1082 2694 
Q 749 2291 749 1773 
L 749 0 
L 288 0 
L 288 5018 
z
" transform="scale(0.015625)"/>
       <path id="AppleGothic-29" d="M 2221 2272 
Q 2221 1587 2016 960 
Q 1862 499 1555 6 
Q 1427 -179 1305 -355 
Q 1184 -531 1062 -717 
L 659 -717 
Q 781 -512 902 -310 
Q 1024 -109 1152 96 
Q 1280 333 1376 557 
Q 1472 781 1530 1005 
Q 1683 1562 1683 2272 
Q 1683 2650 1641 2973 
Q 1600 3296 1517 3584 
Q 1459 3802 1356 4029 
Q 1254 4256 1120 4499 
Q 992 4691 873 4880 
Q 755 5069 640 5261 
L 1062 5261 
Q 1190 5069 1315 4880 
Q 1440 4691 1568 4506 
Q 1722 4256 1837 4022 
Q 1952 3789 2022 3565 
Q 2221 2976 2221 2272 
z
" transform="scale(0.015625)"/>
      </defs>
      <use xlink:href="#AppleGothic-c6d4"/>
      <use xlink:href="#AppleGothic-20" transform="translate(99.999985 0)"/>
      <use xlink:href="#AppleGothic-28" transform="translate(131.999969 0)"/>
      <use xlink:href="#AppleGothic-4d" transform="translate(181.999954 0)"/>
      <use xlink:href="#AppleGothic-6f" transform="translate(273.099945 0)"/>
      <use xlink:href="#AppleGothic-6e" transform="translate(331.399933 0)"/>
      <use xlink:href="#AppleGothic-74" transform="translate(387.299927 0)"/>
      <use xlink:href="#AppleGothic-68" transform="translate(421.499924 0)"/>
      <use xlink:href="#AppleGothic-29" transform="translate(473.699921 0)"/>
     </g>
    </g>
   </g>
   <g id="matplotlib.axis_2">
    <g id="ytick_1">
     <g id="line2d_25">
      <path d="M 47.133125 339.538253 
L 605.133125 339.538253 
" clip-path="url(#p98601a1493)" style="fill: none; stroke-dasharray: 3.7,1.6; stroke-dashoffset: 0; stroke: #cccccc; stroke-opacity: 0.6"/>
     </g>
     <g id="line2d_26">
      <defs>
       <path id="m99e69a6ee8" d="M 0 0 
L -6 0 
" style="stroke: #262626; stroke-width: 1.25"/>
      </defs>
      <g>
       <use xlink:href="#m99e69a6ee8" x="47.133125" y="339.538253" style="fill: #262626; stroke: #262626; stroke-width: 1.25"/>
      </g>
     </g>
     <g id="text_14">
      <!-- 6 -->
      <g style="fill: #262626" transform="translate(30.153125 343.850597) scale(0.11 -0.11)">
       <use xlink:href="#AppleGothic-36"/>
      </g>
     </g>
    </g>
    <g id="ytick_2">
     <g id="line2d_27">
      <path d="M 47.133125 274.886228 
L 605.133125 274.886228 
" clip-path="url(#p98601a1493)" style="fill: none; stroke-dasharray: 3.7,1.6; stroke-dashoffset: 0; stroke: #cccccc; stroke-opacity: 0.6"/>
     </g>
     <g id="line2d_28">
      <g>
       <use xlink:href="#m99e69a6ee8" x="47.133125" y="274.886228" style="fill: #262626; stroke: #262626; stroke-width: 1.25"/>
      </g>
     </g>
     <g id="text_15">
      <!-- 8 -->
      <g style="fill: #262626" transform="translate(30.153125 279.198572) scale(0.11 -0.11)">
       <use xlink:href="#AppleGothic-38"/>
      </g>
     </g>
    </g>
    <g id="ytick_3">
     <g id="line2d_29">
      <path d="M 47.133125 210.234202 
L 605.133125 210.234202 
" clip-path="url(#p98601a1493)" style="fill: none; stroke-dasharray: 3.7,1.6; stroke-dashoffset: 0; stroke: #cccccc; stroke-opacity: 0.6"/>
     </g>
     <g id="line2d_30">
      <g>
       <use xlink:href="#m99e69a6ee8" x="47.133125" y="210.234202" style="fill: #262626; stroke: #262626; stroke-width: 1.25"/>
      </g>
     </g>
     <g id="text_16">
      <!-- 10 -->
      <g style="fill: #262626" transform="translate(22.673125 214.546546) scale(0.11 -0.11)">
       <use xlink:href="#AppleGothic-31"/>
       <use xlink:href="#AppleGothic-30" transform="translate(67.999985 0)"/>
      </g>
     </g>
    </g>
    <g id="ytick_4">
     <g id="line2d_31">
      <path d="M 47.133125 145.582177 
L 605.133125 145.582177 
" clip-path="url(#p98601a1493)" style="fill: none; stroke-dasharray: 3.7,1.6; stroke-dashoffset: 0; stroke: #cccccc; stroke-opacity: 0.6"/>
     </g>
     <g id="line2d_32">
      <g>
       <use xlink:href="#m99e69a6ee8" x="47.133125" y="145.582177" style="fill: #262626; stroke: #262626; stroke-width: 1.25"/>
      </g>
     </g>
     <g id="text_17">
      <!-- 12 -->
      <g style="fill: #262626" transform="translate(22.673125 149.89452) scale(0.11 -0.11)">
       <use xlink:href="#AppleGothic-31"/>
       <use xlink:href="#AppleGothic-32" transform="translate(67.999985 0)"/>
      </g>
     </g>
    </g>
    <g id="ytick_5">
     <g id="line2d_33">
      <path d="M 47.133125 80.930151 
L 605.133125 80.930151 
" clip-path="url(#p98601a1493)" style="fill: none; stroke-dasharray: 3.7,1.6; stroke-dashoffset: 0; stroke: #cccccc; stroke-opacity: 0.6"/>
     </g>
     <g id="line2d_34">
      <g>
       <use xlink:href="#m99e69a6ee8" x="47.133125" y="80.930151" style="fill: #262626; stroke: #262626; stroke-width: 1.25"/>
      </g>
     </g>
     <g id="text_18">
      <!-- 14 -->
      <g style="fill: #262626" transform="translate(22.673125 85.242495) scale(0.11 -0.11)">
       <use xlink:href="#AppleGothic-31"/>
       <use xlink:href="#AppleGothic-34" transform="translate(67.999985 0)"/>
      </g>
     </g>
    </g>
    <g id="text_19">
     <!-- 해빙 면적 (Extent) -->
     <g style="fill: #262626" transform="translate(16.60875 244.004375) rotate(-90) scale(0.12 -0.12)">
      <defs>
       <path id="AppleGothic-d574" d="M 2861 1702 
Q 2861 2048 2694 2266 
Q 2490 2528 2131 2528 
Q 1773 2528 1562 2246 
Q 1389 2003 1389 1715 
Q 1389 1389 1587 1139 
Q 1786 902 2131 902 
Q 2509 902 2701 1171 
Q 2861 1389 2861 1702 
z
M 3309 1683 
Q 3309 1178 2938 826 
Q 2592 512 2163 512 
Q 1658 512 1306 851 
Q 960 1184 960 1734 
Q 960 2285 1344 2605 
Q 1664 2880 2125 2880 
Q 2611 2880 2944 2566 
Q 3309 2227 3309 1683 
z
M 5709 5024 
Q 5709 4986 5686 4890 
Q 5664 4794 5664 4742 
L 5664 1824 
Q 5664 1203 5670 598 
Q 5677 -6 5690 -493 
L 5210 -493 
L 5229 1280 
L 5216 2048 
L 4435 2048 
L 4435 1293 
L 4461 -134 
L 3981 -134 
L 3981 531 
Q 3987 749 3987 1024 
Q 3987 1299 3994 1645 
Q 4000 1990 4000 2342 
Q 4000 2694 4006 3078 
L 3987 5024 
Q 4211 5024 4348 4985 
Q 4486 4947 4486 4890 
Q 4486 4851 4460 4764 
Q 4435 4678 4435 4627 
L 4435 2445 
L 5229 2445 
L 5210 4749 
Q 5210 4858 5200 4973 
Q 5190 5088 5178 5184 
Q 5350 5184 5523 5146 
Q 5709 5114 5709 5024 
z
M 3597 3258 
L 2061 3277 
L 608 3264 
L 608 3635 
Q 928 3622 1309 3616 
Q 1690 3610 2042 3610 
Q 2419 3610 2835 3616 
Q 3251 3622 3597 3635 
L 3597 3258 
z
M 2861 4154 
L 2170 4166 
L 1434 4154 
L 1434 4538 
Q 1587 4525 1779 4518 
Q 1971 4512 2144 4512 
L 2861 4531 
L 2861 4154 
z
" transform="scale(0.015625)"/>
       <path id="AppleGothic-be59" d="M 4909 410 
Q 4909 813 4416 941 
Q 4090 1030 3373 1030 
Q 2573 1030 2176 902 
Q 1779 774 1779 416 
Q 1779 122 2172 -6 
Q 2566 -134 3379 -134 
Q 4102 -134 4505 3 
Q 4909 141 4909 410 
z
M 2982 2432 
L 2982 3514 
L 2074 3526 
Q 1850 3526 1606 3520 
Q 1363 3514 1152 3501 
L 1152 2432 
Q 1267 2419 1433 2412 
Q 1600 2406 1850 2406 
L 2982 2432 
z
M 5402 410 
Q 5402 -70 4800 -301 
Q 4282 -493 3373 -493 
Q 2445 -493 1901 -288 
Q 1306 -58 1306 410 
Q 1306 941 1939 1203 
Q 2464 1408 3366 1408 
Q 4186 1408 4678 1235 
Q 5402 998 5402 410 
z
M 3482 4685 
Q 3482 4672 3478 4662 
Q 3475 4653 3469 4627 
Q 3437 4512 3437 4442 
L 3450 2042 
L 2054 2054 
L 717 2042 
Q 723 2182 723 2342 
Q 723 2502 723 2688 
Q 730 2874 730 3034 
Q 730 3194 730 3322 
Q 730 3686 730 3932 
Q 730 4179 723 4320 
Q 717 4454 713 4563 
Q 710 4672 698 4755 
L 870 4755 
Q 1056 4755 1133 4742 
Q 1210 4730 1210 4685 
Q 1210 4666 1181 4589 
Q 1152 4512 1152 4454 
L 1152 3866 
L 2061 3853 
L 2989 3866 
Q 2989 3968 2989 4051 
Q 2989 4134 2982 4198 
Q 2970 4461 2963 4601 
Q 2957 4742 2957 4768 
L 3110 4768 
Q 3270 4768 3376 4752 
Q 3482 4736 3482 4685 
z
M 5440 5075 
Q 5440 5056 5414 4976 
Q 5389 4896 5389 4838 
Q 5389 4742 5385 4614 
Q 5382 4486 5379 4352 
Q 5376 4218 5376 4080 
Q 5376 3942 5376 3827 
L 5376 3418 
L 5376 2291 
Q 5382 2106 5385 1949 
Q 5389 1792 5402 1651 
L 4922 1626 
Q 4928 1754 4928 1936 
Q 4928 2118 4928 2362 
Q 4934 2611 4934 2854 
Q 4934 3098 4934 3341 
Q 4934 3942 4934 4393 
Q 4934 4845 4922 5190 
L 4986 5190 
Q 5178 5190 5309 5171 
Q 5440 5152 5440 5075 
z
" transform="scale(0.015625)"/>
       <path id="AppleGothic-ba74" d="M 3008 3091 
L 2995 4064 
L 2176 4077 
L 1344 4058 
L 1325 3130 
L 1344 2266 
L 2995 2291 
L 3008 3091 
z
M 5587 -435 
L 1453 -454 
L 1459 198 
L 1434 1216 
Q 1677 1216 1827 1200 
Q 1978 1184 1978 1139 
Q 1978 1120 1949 1037 
Q 1920 954 1920 883 
L 1920 -64 
L 3558 -70 
Q 3955 -70 4364 -60 
Q 4774 -51 5203 -38 
Q 5363 -38 5587 -19 
L 5587 -435 
z
M 5459 5094 
Q 5459 5069 5427 4995 
Q 5395 4922 5395 4870 
L 5408 666 
L 4934 653 
L 4947 1491 
L 4947 2189 
L 3757 2170 
L 3757 2573 
L 4378 2560 
L 4947 2579 
L 4947 3456 
L 3718 3450 
L 3718 3866 
L 4378 3853 
L 4947 3866 
Q 4947 3974 4944 4137 
Q 4941 4301 4934 4525 
Q 4915 4966 4915 5190 
L 5030 5190 
Q 5216 5190 5337 5171 
Q 5459 5152 5459 5094 
z
M 3456 1926 
L 890 1901 
L 902 3104 
L 877 4442 
L 2061 4429 
Q 2406 4429 2774 4435 
Q 3142 4442 3456 4454 
L 3443 3123 
L 3456 1926 
z
" transform="scale(0.015625)"/>
       <path id="AppleGothic-c801" d="M 5402 -506 
L 4947 -538 
L 4954 1203 
L 3283 1216 
Q 2803 1216 2281 1213 
Q 1760 1210 1325 1197 
L 1325 1594 
Q 1414 1587 1491 1587 
Q 1568 1587 1632 1587 
Q 2074 1574 2397 1568 
Q 2720 1562 2944 1562 
L 5402 1587 
Q 5395 1440 5392 1213 
Q 5389 986 5389 595 
L 5402 -506 
z
M 3936 2400 
Q 3936 2381 3869 2339 
Q 3802 2298 3763 2259 
L 3603 2106 
Q 3546 2138 3491 2173 
Q 3437 2208 3392 2240 
Q 3117 2438 2810 2771 
Q 2598 2995 2451 3296 
Q 2426 3347 2397 3411 
Q 2368 3475 2336 3558 
Q 2298 3469 2266 3392 
Q 2234 3315 2202 3258 
Q 2010 2912 1702 2586 
Q 1568 2451 1417 2323 
Q 1267 2195 1101 2074 
Q 1043 2029 969 1984 
Q 896 1939 794 1882 
Q 787 1907 582 2029 
Q 390 2150 390 2176 
Q 1056 2458 1574 3072 
Q 2125 3744 2125 4442 
Q 2054 4448 1875 4454 
Q 1696 4461 1485 4461 
L 762 4442 
L 762 4851 
Q 947 4832 1286 4819 
Q 1626 4806 2118 4806 
L 2291 4806 
Q 2618 4806 2858 4809 
Q 3098 4813 3264 4819 
Q 3430 4826 3561 4832 
Q 3693 4838 3802 4845 
L 3802 4442 
L 3219 4454 
L 2566 4435 
Q 2566 4115 2630 3878 
Q 2682 3680 2768 3510 
Q 2854 3341 2982 3194 
Q 3296 2810 3648 2573 
Q 3763 2502 3923 2426 
L 3936 2400 
z
M 5434 5082 
Q 5434 5062 5414 4976 
Q 5395 4890 5395 4826 
Q 5389 4736 5389 4598 
Q 5389 4461 5382 4269 
Q 5376 4077 5376 3881 
Q 5376 3686 5376 3494 
L 5376 2477 
Q 5382 2310 5382 2176 
Q 5382 2042 5389 1939 
L 4947 1914 
L 4947 3283 
L 4346 3302 
L 3706 3283 
L 3706 3667 
L 4947 3667 
L 4947 4762 
L 4915 5190 
L 5101 5190 
Q 5267 5190 5350 5171 
Q 5434 5152 5434 5082 
z
" transform="scale(0.015625)"/>
       <path id="AppleGothic-45" d="M 282 5024 
L 3405 5024 
L 3405 4582 
L 787 4582 
L 787 2848 
L 3309 2848 
L 3309 2406 
L 787 2406 
L 787 442 
L 3424 442 
L 3424 0 
L 282 0 
L 282 5024 
z
" transform="scale(0.015625)"/>
       <path id="AppleGothic-78" d="M 352 3424 
L 928 3424 
L 1754 2150 
L 2592 3424 
L 3130 3424 
L 2022 1830 
L 3270 0 
L 2682 0 
L 1722 1504 
L 755 0 
L 211 0 
L 1466 1830 
L 352 3424 
z
" transform="scale(0.015625)"/>
       <path id="AppleGothic-65" d="M 3296 1850 
L 691 1850 
Q 691 1114 1033 726 
Q 1376 339 1933 339 
Q 2355 339 2746 608 
Q 2854 678 2976 784 
Q 3098 890 3238 1030 
L 3238 474 
Q 3085 358 2953 272 
Q 2822 186 2707 128 
Q 2304 -83 1901 -83 
Q 1203 -83 717 397 
Q 192 902 192 1709 
Q 192 2470 666 2982 
Q 1146 3501 1850 3501 
Q 2534 3501 2938 3002 
Q 3296 2547 3296 1850 
z
M 755 2240 
L 2758 2240 
Q 2682 2675 2429 2889 
Q 2176 3104 1818 3104 
Q 1421 3104 1146 2854 
Q 890 2624 755 2240 
z
" transform="scale(0.015625)"/>
      </defs>
      <use xlink:href="#AppleGothic-d574"/>
      <use xlink:href="#AppleGothic-be59" transform="translate(99.999985 0)"/>
      <use xlink:href="#AppleGothic-20" transform="translate(199.999969 0)"/>
      <use xlink:href="#AppleGothic-ba74" transform="translate(231.999954 0)"/>
      <use xlink:href="#AppleGothic-c801" transform="translate(331.999939 0)"/>
      <use xlink:href="#AppleGothic-20" transform="translate(431.999924 0)"/>
      <use xlink:href="#AppleGothic-28" transform="translate(463.999908 0)"/>
      <use xlink:href="#AppleGothic-45" transform="translate(513.999893 0)"/>
      <use xlink:href="#AppleGothic-78" transform="translate(571.899887 0)"/>
      <use xlink:href="#AppleGothic-74" transform="translate(626.299881 0)"/>
      <use xlink:href="#AppleGothic-65" transform="translate(660.499878 0)"/>
      <use xlink:href="#AppleGothic-6e" transform="translate(715.399872 0)"/>
      <use xlink:href="#AppleGothic-74" transform="translate(771.299866 0)"/>
      <use xlink:href="#AppleGothic-29" transform="translate(805.499863 0)"/>
     </g>
    </g>
   </g>
   <g id="FillBetweenPolyCollection_1">
    <defs>
     <path id="m3c8c984145" d="M 72.496761 -327.156369 
L 72.496761 -324.65256 
L 118.612464 -352.880276 
L 164.728166 -358.2554 
L 210.843869 -334.750243 
L 256.959571 -289.299495 
L 303.075274 -237.726738 
L 349.190976 -157.936696 
L 395.306679 -83.424459 
L 441.422381 -57.810156 
L 487.538084 -119.407776 
L 533.653786 -202.557553 
L 579.769489 -273.780269 
L 579.769489 -276.813394 
L 579.769489 -276.813394 
L 533.653786 -205.988009 
L 487.538084 -124.592693 
L 441.422381 -62.046893 
L 395.306679 -87.524205 
L 349.190976 -162.170081 
L 303.075274 -240.69857 
L 256.959571 -291.708117 
L 210.843869 -337.000517 
L 164.728166 -360.210156 
L 118.612464 -355.12891 
L 72.496761 -327.156369 
z
" style="stroke: #1e90ff; stroke-opacity: 0.2"/>
    </defs>
    <g clip-path="url(#p98601a1493)">
     <use xlink:href="#m3c8c984145" x="0" y="401.682656" style="fill: #1e90ff; fill-opacity: 0.2; stroke: #1e90ff; stroke-opacity: 0.2"/>
    </g>
   </g>
   <g id="line2d_35">
    <path d="M 72.496761 75.755032 
L 118.612464 47.653588 
L 164.728166 42.456692 
L 210.843869 65.83977 
L 256.959571 111.222638 
L 303.075274 162.424448 
L 349.190976 241.519584 
L 395.306679 316.293747 
L 441.422381 341.740585 
L 487.538084 279.637409 
L 533.653786 197.451227 
L 579.769489 126.390871 
" clip-path="url(#p98601a1493)" style="fill: none; stroke: #1e90ff; stroke-width: 3; stroke-linecap: round"/>
   </g>
   <g id="patch_3">
    <path d="M 47.133125 358.9925 
L 47.133125 26.3525 
" style="fill: none; stroke: #262626; stroke-width: 1.25; stroke-linejoin: miter; stroke-linecap: square"/>
   </g>
   <g id="patch_4">
    <path d="M 605.133125 358.9925 
L 605.133125 26.3525 
" style="fill: none; stroke: #262626; stroke-width: 1.25; stroke-linejoin: miter; stroke-linecap: square"/>
   </g>
   <g id="patch_5">
    <path d="M 47.133125 358.9925 
L 605.133125 358.9925 
" style="fill: none; stroke: #262626; stroke-width: 1.25; stroke-linejoin: miter; stroke-linecap: square"/>
   </g>
   <g id="patch_6">
    <path d="M 47.133125 26.3525 
L 605.133125 26.3525 
" style="fill: none; stroke: #262626; stroke-width: 1.25; stroke-linejoin: miter; stroke-linecap: square"/>
   </g>
   <g id="text_20">
    <!-- 북극 해빙 면적의 1년 주기 계절성(Seasonality) -->
    <g style="fill: #262626" transform="translate(154.499375 20.3525) scale(0.16 -0.16)">
     <defs>
      <path id="AppleGothic-bd81" d="M 4576 3366 
L 4576 4096 
L 3130 4109 
L 1754 4096 
L 1754 3366 
L 3110 3347 
L 4576 3366 
z
M 6022 2010 
Q 5696 2022 5309 2035 
Q 4922 2048 4563 2048 
L 3424 2042 
L 3424 1280 
L 5024 1299 
L 5011 371 
L 5011 -333 
Q 5018 -410 5021 -477 
Q 5024 -544 5030 -608 
L 4544 -614 
Q 4550 -544 4550 -445 
Q 4550 -346 4557 -218 
Q 4563 -90 4563 0 
Q 4563 90 4563 147 
L 4557 902 
L 3014 909 
L 1190 896 
L 1190 1312 
Q 1376 1299 1603 1292 
Q 1830 1286 2042 1286 
L 2976 1286 
L 2976 2042 
L 1651 2048 
Q 1203 2048 899 2041 
Q 595 2035 371 2022 
L 371 2432 
Q 448 2432 1043 2413 
Q 1350 2400 1644 2393 
Q 1939 2387 2240 2381 
Q 2534 2374 2768 2371 
Q 3002 2368 3181 2368 
Q 4077 2368 4758 2381 
Q 5440 2394 6022 2413 
L 6022 2010 
z
M 5088 5050 
Q 5088 5024 5062 4963 
Q 5037 4902 5037 4870 
L 5024 4064 
L 5037 3021 
L 3085 3034 
L 1312 3021 
Q 1318 3085 1318 3187 
Q 1318 3290 1325 3437 
Q 1331 3584 1331 3721 
Q 1331 3859 1331 3994 
Q 1331 4282 1331 4470 
Q 1331 4659 1325 4762 
Q 1325 4870 1321 4960 
Q 1318 5050 1312 5133 
L 1491 5139 
Q 1638 5139 1715 5113 
Q 1792 5088 1792 5011 
Q 1792 4986 1773 4906 
Q 1754 4826 1754 4787 
L 1754 4442 
L 3136 4422 
Q 3290 4422 3469 4422 
Q 3648 4422 3837 4425 
Q 4026 4429 4214 4435 
Q 4403 4442 4576 4448 
L 4563 5158 
Q 4845 5158 4966 5136 
Q 5088 5114 5088 5050 
z
" transform="scale(0.015625)"/>
      <path id="AppleGothic-adf9" d="M 5101 371 
L 5094 -403 
L 4672 -410 
L 4685 352 
Q 4685 563 4685 723 
Q 4685 883 4681 1001 
Q 4678 1120 4675 1206 
Q 4672 1293 4672 1363 
L 3098 1363 
Q 2829 1363 2486 1356 
Q 2144 1350 1734 1338 
Q 1600 1331 1424 1328 
Q 1248 1325 1024 1312 
L 1024 1747 
Q 1395 1734 1862 1724 
Q 2330 1715 2854 1715 
L 5088 1760 
L 5101 371 
z
M 6022 2547 
L 5619 2547 
Q 4090 2566 3821 2566 
Q 3437 2566 3126 2563 
Q 2816 2560 2573 2554 
Q 2112 2547 1427 2534 
Q 1088 2534 829 2531 
Q 570 2528 378 2528 
L 378 2906 
Q 755 2893 1267 2886 
Q 1779 2880 2515 2880 
L 2675 2880 
Q 3123 2880 3520 2889 
Q 3917 2899 4262 2912 
Q 4384 2912 4557 2931 
Q 4570 2995 4582 3043 
Q 4595 3091 4608 3136 
Q 4634 3258 4662 3414 
Q 4691 3571 4720 3740 
Q 4749 3910 4774 4083 
Q 4800 4256 4819 4416 
Q 4819 4442 4822 4467 
Q 4826 4493 4832 4525 
Q 4563 4538 4160 4544 
Q 3757 4550 3117 4550 
L 2995 4550 
Q 2445 4550 1917 4537 
Q 1389 4525 954 4512 
L 954 4909 
Q 1062 4909 1289 4905 
Q 1517 4902 1875 4896 
Q 2234 4890 2470 4890 
Q 2707 4890 2829 4890 
L 5306 4896 
Q 5306 4646 5190 3910 
Q 5126 3539 5078 3296 
Q 5030 3053 4986 2931 
L 5197 2944 
L 5446 2925 
L 6022 2931 
L 6022 2547 
z
" transform="scale(0.015625)"/>
      <path id="AppleGothic-c758" d="M 3571 3379 
Q 3571 4218 2573 4218 
Q 2061 4218 1776 3987 
Q 1491 3757 1491 3386 
Q 1491 2970 1786 2733 
Q 2054 2522 2509 2522 
Q 3059 2522 3328 2765 
Q 3571 2976 3571 3379 
z
M 4608 1094 
Q 4134 1018 3872 979 
Q 3456 928 3120 899 
Q 2784 870 2528 870 
L 902 813 
Q 858 800 816 790 
Q 774 781 730 768 
Q 653 768 608 941 
Q 563 1114 563 1242 
L 2477 1248 
Q 2938 1248 3334 1273 
Q 3731 1299 4070 1350 
Q 4282 1376 4576 1459 
L 4608 1094 
z
M 5466 5069 
Q 5466 5037 5437 4944 
Q 5408 4851 5408 4813 
L 5408 2298 
Q 5408 2010 5411 1683 
Q 5414 1357 5421 973 
Q 5427 595 5433 230 
Q 5440 -134 5453 -499 
L 4973 -557 
L 4973 45 
Q 4979 237 4979 512 
Q 4979 787 4986 1158 
Q 4992 1523 4992 1788 
Q 4992 2054 4992 2221 
Q 4992 2880 4985 3357 
Q 4979 3834 4966 4122 
Q 4954 4410 4944 4675 
Q 4934 4941 4922 5184 
L 5024 5184 
Q 5190 5184 5328 5158 
Q 5466 5133 5466 5069 
z
M 4006 3328 
Q 4006 2790 3578 2464 
Q 3155 2138 2528 2138 
Q 1894 2138 1504 2445 
Q 1088 2765 1088 3341 
Q 1088 3955 1517 4288 
Q 1920 4602 2541 4602 
Q 3174 4602 3597 4269 
Q 4006 3936 4006 3354 
L 4006 3328 
z
" transform="scale(0.015625)"/>
      <path id="AppleGothic-b144" d="M 5498 -454 
Q 5370 -448 5264 -448 
Q 5158 -448 5069 -448 
Q 4467 -435 4070 -428 
Q 3674 -422 3469 -422 
L 1414 -442 
Q 1421 -333 1421 -201 
Q 1421 -70 1421 77 
Q 1427 224 1427 342 
Q 1427 461 1427 557 
L 1414 1107 
Q 1600 1107 1744 1094 
Q 1888 1082 1888 1024 
Q 1869 960 1853 896 
Q 1837 832 1837 774 
L 1837 -70 
L 3450 -90 
Q 4032 -90 4557 -83 
Q 5082 -77 5498 -64 
L 5498 -454 
z
M 5434 5069 
Q 5434 5043 5389 4915 
Q 5350 4768 5350 4717 
L 5325 1901 
Q 5325 1446 5328 1209 
Q 5331 973 5338 826 
L 4909 794 
Q 4922 902 4928 1052 
Q 4934 1203 4934 1389 
L 4928 2554 
L 4166 2566 
L 3347 2547 
L 3347 2918 
L 4192 2899 
Q 4352 2899 4461 2899 
Q 4570 2899 4650 2902 
Q 4730 2906 4794 2909 
Q 4858 2912 4928 2918 
L 4928 3686 
L 4211 3699 
L 3334 3693 
L 3334 4058 
L 4198 4045 
L 4928 4051 
L 4934 4762 
Q 4934 4877 4934 4947 
Q 4934 5018 4931 5062 
Q 4928 5107 4925 5132 
Q 4922 5158 4915 5190 
Q 5011 5190 5104 5187 
Q 5197 5184 5270 5168 
Q 5344 5152 5389 5129 
Q 5434 5107 5434 5069 
z
M 3379 1869 
Q 3251 1856 3145 1843 
Q 3040 1830 2963 1824 
Q 2682 1798 2451 1785 
Q 2221 1773 2035 1773 
L 749 1734 
L 749 3494 
Q 749 3776 749 3968 
Q 749 4160 742 4262 
Q 742 4371 739 4464 
Q 736 4557 730 4646 
Q 896 4646 1069 4627 
Q 1242 4608 1242 4538 
Q 1242 4499 1222 4412 
Q 1203 4326 1190 4205 
Q 1184 4090 1177 3818 
Q 1171 3546 1171 3174 
L 1190 2099 
Q 1210 2099 1296 2102 
Q 1382 2106 1536 2112 
Q 1690 2118 1846 2121 
Q 2003 2125 2157 2125 
Q 2342 2125 2547 2134 
Q 2752 2144 2976 2170 
Q 3053 2176 3152 2189 
Q 3251 2202 3373 2221 
L 3379 1869 
z
" transform="scale(0.015625)"/>
      <path id="AppleGothic-c8fc" d="M 5984 1850 
L 3482 1850 
L 3501 -570 
L 3008 -602 
Q 3014 -480 3014 -345 
Q 3014 -211 3014 -58 
Q 3021 90 3021 211 
Q 3021 333 3021 422 
L 3027 1850 
L 1837 1824 
L 410 1811 
L 410 2214 
Q 518 2208 649 2208 
Q 781 2208 947 2202 
L 1536 2202 
L 3232 2214 
Q 3821 2214 4256 2217 
Q 4691 2221 4986 2227 
Q 5581 2246 5984 2266 
L 5984 1850 
z
M 5562 3123 
Q 5562 3104 5485 3056 
Q 5408 3008 5382 2976 
L 5229 2790 
Q 5062 2822 4928 2857 
Q 4794 2893 4678 2938 
Q 4499 3008 4320 3104 
Q 4141 3200 3955 3328 
Q 3629 3539 3392 3853 
Q 3219 4134 3213 4134 
Q 3187 4083 3168 4041 
Q 3149 4000 3130 3968 
Q 2880 3552 2381 3245 
Q 2182 3117 1971 3024 
Q 1760 2931 1536 2861 
Q 1466 2835 1370 2816 
Q 1274 2797 1165 2778 
L 1005 2938 
Q 973 2970 896 3027 
Q 806 3085 806 3098 
Q 813 3123 832 3123 
Q 928 3136 1014 3145 
Q 1101 3155 1171 3168 
Q 1978 3334 2470 3789 
Q 2746 4026 2886 4365 
Q 2931 4454 2982 4646 
L 2048 4627 
L 1030 4627 
L 1030 5005 
Q 1101 5005 1251 5001 
Q 1402 4998 1645 4992 
Q 1888 4986 2080 4986 
Q 2272 4986 2406 4986 
L 5293 5030 
L 5293 4653 
L 4403 4659 
L 3450 4646 
Q 3456 4570 3469 4512 
Q 3571 4192 3955 3827 
Q 4346 3462 4973 3270 
Q 5082 3238 5219 3209 
Q 5357 3181 5530 3149 
L 5562 3123 
z
" transform="scale(0.015625)"/>
      <path id="AppleGothic-ae30" d="M 5427 5094 
Q 5427 5069 5408 4982 
Q 5389 4896 5389 4832 
L 5363 2362 
L 5382 -493 
L 4909 -518 
Q 4915 -371 4915 -195 
Q 4915 -19 4922 198 
Q 4934 646 4941 1299 
Q 4947 1632 4950 1872 
Q 4954 2112 4954 2259 
Q 4954 3808 4934 4346 
Q 4934 4614 4928 4822 
Q 4922 5030 4915 5184 
L 5114 5190 
Q 5261 5190 5344 5174 
Q 5427 5158 5427 5094 
z
M 3578 4486 
Q 3565 4051 3478 3635 
Q 3392 3219 3209 2819 
Q 3027 2419 2729 2041 
Q 2432 1664 1997 1306 
Q 1786 1139 1555 992 
Q 1325 845 1075 717 
Q 698 525 653 525 
Q 627 557 611 579 
Q 595 602 582 614 
Q 544 653 505 688 
Q 467 723 422 749 
Q 410 762 390 778 
Q 371 794 352 819 
Q 346 826 342 832 
Q 339 838 326 851 
Q 326 877 384 893 
Q 442 909 461 922 
Q 480 922 569 957 
Q 659 992 819 1069 
Q 1043 1171 1238 1283 
Q 1434 1395 1613 1523 
Q 2118 1888 2409 2301 
Q 2701 2714 2886 3187 
Q 2950 3354 2995 3514 
Q 3040 3674 3066 3840 
Q 3072 3898 3078 3962 
Q 3085 4026 3098 4090 
L 1766 4083 
Q 1318 4083 1046 4076 
Q 774 4070 589 4058 
L 589 4474 
Q 685 4467 800 4467 
Q 915 4467 1043 4461 
L 1466 4461 
L 3578 4486 
z
" transform="scale(0.015625)"/>
      <path id="AppleGothic-acc4" d="M 5670 5075 
Q 5670 5062 5638 4963 
Q 5606 4864 5606 4762 
Q 5600 4653 5600 4505 
Q 5600 4358 5594 4173 
Q 5594 3987 5594 3747 
Q 5594 3507 5587 3200 
Q 5587 2899 5587 2582 
Q 5587 2266 5581 1926 
Q 5581 1658 5584 1322 
Q 5587 986 5594 570 
Q 5613 -256 5613 -384 
L 5171 -410 
L 5171 422 
Q 5178 691 5178 1075 
Q 5178 1459 5184 1978 
Q 5190 2496 5190 2877 
Q 5190 3258 5190 3514 
L 5171 5190 
Q 5254 5190 5344 5187 
Q 5434 5184 5507 5171 
Q 5581 5158 5625 5136 
Q 5670 5114 5670 5075 
z
M 4326 4832 
Q 4326 4819 4297 4726 
Q 4269 4634 4269 4576 
L 4256 659 
Q 4256 499 4256 390 
Q 4256 282 4259 198 
Q 4262 115 4265 51 
Q 4269 -13 4275 -77 
L 3840 -115 
L 3846 1670 
L 3354 1690 
L 2810 1683 
L 2810 2067 
L 3354 2054 
L 3846 2061 
L 3846 2886 
L 2861 2874 
L 2861 3296 
Q 2970 3290 3110 3286 
Q 3251 3283 3334 3283 
L 3846 3277 
L 3853 4627 
L 3840 4947 
Q 4026 4947 4176 4928 
Q 4326 4909 4326 4832 
z
M 2938 4461 
Q 2931 4384 2928 4301 
Q 2925 4218 2918 4134 
Q 2867 3718 2765 3315 
Q 2611 2765 2326 2259 
Q 2042 1754 1626 1325 
Q 1338 1024 998 787 
Q 762 614 723 614 
Q 710 627 678 649 
Q 646 672 582 704 
Q 320 864 320 877 
L 339 909 
Q 1178 1235 1824 2214 
Q 2490 3200 2490 4109 
L 1843 4115 
L 717 4090 
L 717 4493 
Q 1222 4493 2022 4474 
Q 2426 4467 2650 4464 
Q 2874 4461 2938 4461 
z
" transform="scale(0.015625)"/>
      <path id="AppleGothic-c808" d="M 5504 -435 
Q 5331 -429 5091 -429 
Q 4851 -429 4544 -422 
Q 4237 -416 4051 -416 
Q 3866 -416 3795 -416 
L 1485 -416 
L 1498 166 
L 1491 864 
Q 1594 864 1811 861 
Q 2029 858 2374 851 
Q 2720 845 2950 845 
Q 3181 845 3302 845 
L 4237 845 
Q 4410 851 4579 854 
Q 4749 858 4922 864 
L 4922 1414 
L 4634 1414 
Q 3565 1434 3462 1434 
L 1427 1395 
L 1427 1760 
Q 1555 1754 1756 1754 
Q 1958 1754 2240 1747 
Q 2515 1741 2768 1741 
Q 3021 1741 3245 1741 
L 4467 1741 
Q 4698 1747 4931 1750 
Q 5165 1754 5395 1760 
L 5389 1146 
L 5408 544 
L 1978 518 
L 1978 -77 
Q 2150 -83 2345 -83 
Q 2541 -83 2765 -83 
Q 2989 -90 3168 -90 
Q 3347 -90 3482 -90 
Q 3923 -90 4246 -86 
Q 4570 -83 4781 -77 
Q 4992 -70 5174 -64 
Q 5357 -58 5504 -45 
L 5504 -435 
z
M 3802 4890 
L 3802 4486 
L 3219 4499 
L 2566 4480 
Q 2566 4160 2630 3923 
Q 2682 3731 2774 3558 
Q 2867 3386 2988 3235 
Q 3110 3085 3244 2960 
Q 3379 2835 3514 2733 
Q 3590 2669 3692 2605 
Q 3795 2541 3923 2483 
L 3936 2458 
Q 3936 2438 3853 2387 
Q 3802 2355 3763 2317 
L 3603 2170 
Q 3571 2189 3542 2208 
Q 3514 2227 3488 2240 
Q 3334 2336 3164 2483 
Q 2995 2630 2810 2822 
Q 2707 2931 2617 3059 
Q 2528 3187 2451 3341 
Q 2426 3392 2397 3459 
Q 2368 3526 2336 3603 
Q 2285 3411 2166 3206 
Q 2048 3002 1856 2790 
Q 1664 2579 1475 2422 
Q 1286 2266 1094 2170 
L 934 2317 
Q 902 2349 832 2393 
Q 762 2438 762 2458 
L 774 2483 
Q 1018 2598 1184 2726 
Q 1318 2829 1456 2957 
Q 1594 3085 1712 3232 
Q 1830 3379 1920 3552 
Q 2010 3725 2061 3917 
Q 2093 4058 2112 4195 
Q 2131 4333 2131 4480 
L 1478 4499 
L 902 4486 
L 902 4890 
Q 954 4883 1005 4883 
Q 1056 4883 1101 4883 
Q 1446 4870 1772 4860 
Q 2099 4851 2406 4851 
Q 2733 4851 2963 4854 
Q 3194 4858 3341 4864 
Q 3488 4870 3603 4876 
Q 3718 4883 3802 4890 
z
M 5453 5101 
Q 5453 5069 5417 4966 
Q 5382 4864 5382 4794 
L 5382 3501 
Q 5382 3034 5382 2691 
Q 5382 2349 5395 2125 
L 4928 2093 
Q 4934 2138 4934 2202 
Q 4934 2266 4934 2355 
Q 4941 2445 4941 2509 
Q 4941 2573 4941 2624 
Q 4941 2893 4941 3085 
Q 4941 3277 4954 3392 
L 4307 3405 
L 3808 3392 
L 3808 3795 
Q 3917 3782 4054 3776 
Q 4192 3770 4378 3770 
L 4941 3795 
Q 4947 3904 4950 4038 
Q 4954 4173 4954 4250 
Q 4954 4282 4950 4342 
Q 4947 4403 4947 4476 
Q 4947 4550 4944 4617 
Q 4941 4685 4941 4736 
L 4922 5190 
L 5037 5190 
Q 5210 5190 5331 5174 
Q 5453 5158 5453 5101 
z
" transform="scale(0.015625)"/>
      <path id="AppleGothic-c131" d="M 5459 486 
Q 5459 -38 4838 -269 
Q 4294 -474 3347 -474 
Q 2445 -474 1907 -262 
Q 1293 -26 1293 442 
Q 1293 1030 1946 1280 
Q 2189 1382 2544 1427 
Q 2899 1472 3354 1472 
Q 3795 1472 4147 1427 
Q 4499 1382 4768 1280 
Q 5459 1024 5459 486 
z
M 5446 5082 
Q 5446 5062 5420 4992 
Q 5395 4922 5395 4870 
L 5382 3981 
L 5395 1664 
L 4922 1587 
L 4922 3315 
L 4333 3334 
L 3725 3315 
L 3725 3706 
L 4352 3686 
L 4928 3706 
L 4915 5190 
L 5094 5197 
Q 5242 5197 5344 5174 
Q 5446 5152 5446 5082 
z
M 3962 2381 
Q 3949 2362 3930 2342 
Q 3898 2310 3878 2284 
Q 3859 2259 3834 2240 
L 3661 2035 
Q 3558 2106 3475 2163 
Q 3392 2221 3334 2266 
Q 3136 2413 2989 2557 
Q 2842 2701 2733 2838 
Q 2624 2976 2541 3113 
Q 2458 3251 2394 3386 
Q 2349 3482 2304 3603 
Q 2285 3565 2269 3533 
Q 2253 3501 2240 3469 
Q 2042 3117 1690 2707 
Q 1568 2573 1421 2425 
Q 1274 2278 1094 2125 
Q 1030 2074 953 2010 
Q 877 1946 768 1862 
L 557 2035 
Q 525 2067 461 2105 
Q 397 2144 397 2163 
Q 403 2189 410 2195 
Q 474 2234 528 2262 
Q 582 2291 627 2323 
Q 883 2502 1123 2736 
Q 1363 2970 1587 3258 
Q 1856 3610 2009 4048 
Q 2163 4486 2163 4928 
L 2202 4928 
Q 2387 4928 2534 4909 
Q 2682 4890 2682 4826 
Q 2682 4774 2637 4723 
Q 2630 4710 2592 4672 
Q 2579 4634 2576 4605 
Q 2573 4576 2566 4550 
Q 2541 4422 2541 4333 
Q 2541 4250 2563 4147 
Q 2586 4045 2630 3910 
Q 2758 3539 3001 3193 
Q 3245 2848 3610 2605 
Q 3674 2560 3754 2518 
Q 3834 2477 3930 2426 
L 3962 2381 
z
M 4979 474 
Q 4979 826 4474 979 
Q 4058 1114 3354 1114 
Q 2624 1114 2266 992 
Q 1773 838 1773 448 
Q 1850 -102 3366 -102 
Q 4154 -102 4525 19 
Q 4979 160 4979 474 
z
" transform="scale(0.015625)"/>
      <path id="AppleGothic-53" d="M 3418 4666 
L 3418 4019 
Q 3251 4160 3081 4269 
Q 2912 4378 2746 4448 
Q 2362 4627 1965 4627 
Q 1466 4627 1139 4378 
Q 806 4122 806 3770 
Q 806 3258 1562 3002 
Q 1914 2880 2262 2768 
Q 2611 2656 2970 2541 
Q 3731 2176 3731 1453 
Q 3731 749 3187 320 
Q 2669 -83 1901 -83 
Q 1389 -83 915 115 
Q 640 224 262 474 
L 262 1126 
Q 755 685 1261 506 
Q 1427 442 1587 416 
Q 1747 390 1907 390 
Q 2419 390 2771 646 
Q 3162 928 3162 1382 
Q 3162 1933 2419 2221 
Q 2061 2330 1715 2445 
Q 1370 2560 1024 2669 
Q 275 3014 275 3731 
Q 275 4333 749 4710 
Q 1235 5101 1965 5101 
Q 2413 5101 2861 4934 
Q 3091 4858 3418 4666 
z
" transform="scale(0.015625)"/>
      <path id="AppleGothic-61" d="M 2950 2214 
L 2950 602 
Q 2950 493 2998 413 
Q 3046 333 3174 333 
Q 3213 333 3238 336 
Q 3264 339 3290 346 
Q 3328 358 3357 371 
Q 3386 384 3405 390 
L 3405 32 
Q 3290 -6 3174 -22 
Q 3059 -38 2995 -38 
Q 2669 -38 2566 134 
Q 2483 243 2483 602 
Q 2400 461 2317 355 
Q 2234 250 2150 179 
Q 1818 -83 1376 -83 
Q 909 -83 563 192 
Q 205 486 205 941 
Q 205 1510 781 1779 
Q 992 1882 1341 1958 
Q 1690 2035 2176 2099 
L 2483 2131 
Q 2483 2579 2256 2832 
Q 2029 3085 1587 3085 
Q 1421 3085 1257 3043 
Q 1094 3002 928 2912 
Q 838 2861 729 2790 
Q 621 2720 493 2611 
L 493 3136 
Q 1037 3501 1664 3501 
Q 2304 3501 2650 3098 
Q 2950 2746 2950 2214 
z
M 2483 1542 
L 2483 1747 
L 2266 1722 
Q 1466 1638 1139 1498 
Q 704 1325 704 934 
Q 704 819 755 713 
Q 806 608 896 525 
Q 986 442 1117 390 
Q 1248 339 1408 339 
Q 1843 339 2170 691 
Q 2483 1050 2483 1542 
z
" transform="scale(0.015625)"/>
      <path id="AppleGothic-73" d="M 224 294 
L 224 851 
Q 621 531 1030 403 
Q 1152 371 1267 355 
Q 1382 339 1504 339 
Q 1894 339 2150 518 
Q 2413 710 2413 947 
Q 2413 1075 2317 1210 
Q 2182 1376 1600 1510 
Q 909 1683 678 1798 
Q 230 2054 230 2515 
Q 230 2944 602 3219 
Q 979 3501 1542 3501 
Q 1798 3501 2003 3456 
Q 2208 3411 2387 3337 
Q 2566 3264 2720 3155 
L 2720 2598 
Q 2451 2822 2156 2953 
Q 1862 3085 1536 3085 
Q 1210 3085 973 2938 
Q 730 2790 730 2554 
Q 730 2240 1306 2054 
Q 1574 1978 1836 1901 
Q 2099 1824 2368 1747 
Q 2950 1498 2950 992 
Q 2950 563 2547 237 
Q 2138 -83 1530 -83 
Q 1261 -83 1005 -26 
Q 595 64 224 294 
z
" transform="scale(0.015625)"/>
      <path id="AppleGothic-6c" d="M 288 5018 
L 749 5018 
L 749 0 
L 288 0 
L 288 5018 
z
" transform="scale(0.015625)"/>
      <path id="AppleGothic-69" d="M 256 3424 
L 717 3424 
L 717 0 
L 256 0 
L 256 3424 
z
M 480 4870 
Q 614 4870 704 4780 
Q 794 4691 794 4525 
Q 794 4358 710 4268 
Q 627 4179 480 4179 
Q 333 4179 253 4281 
Q 173 4384 173 4518 
Q 173 4730 269 4800 
Q 365 4870 480 4870 
z
" transform="scale(0.015625)"/>
      <path id="AppleGothic-79" d="M 179 3424 
L 691 3424 
L 1869 531 
L 2874 3424 
L 3379 3424 
L 1952 -397 
Q 1798 -806 1555 -979 
Q 1338 -1126 1037 -1126 
Q 883 -1126 780 -1104 
Q 678 -1082 582 -1043 
L 582 -602 
Q 672 -646 784 -678 
Q 896 -710 986 -710 
Q 1210 -710 1334 -595 
Q 1459 -480 1555 -230 
L 1632 32 
L 179 3424 
z
" transform="scale(0.015625)"/>
     </defs>
     <use xlink:href="#AppleGothic-bd81"/>
     <use xlink:href="#AppleGothic-adf9" transform="translate(99.999985 0)"/>
     <use xlink:href="#AppleGothic-20" transform="translate(199.999969 0)"/>
     <use xlink:href="#AppleGothic-d574" transform="translate(231.999954 0)"/>
     <use xlink:href="#AppleGothic-be59" transform="translate(331.999939 0)"/>
     <use xlink:href="#AppleGothic-20" transform="translate(431.999924 0)"/>
     <use xlink:href="#AppleGothic-ba74" transform="translate(463.999908 0)"/>
     <use xlink:href="#AppleGothic-c801" transform="translate(563.999893 0)"/>
     <use xlink:href="#AppleGothic-c758" transform="translate(663.999878 0)"/>
     <use xlink:href="#AppleGothic-20" transform="translate(763.999863 0)"/>
     <use xlink:href="#AppleGothic-31" transform="translate(795.999847 0)"/>
     <use xlink:href="#AppleGothic-b144" transform="translate(863.999832 0)"/>
     <use xlink:href="#AppleGothic-20" transform="translate(963.999817 0)"/>
     <use xlink:href="#AppleGothic-c8fc" transform="translate(995.999802 0)"/>
     <use xlink:href="#AppleGothic-ae30" transform="translate(1095.999786 0)"/>
     <use xlink:href="#AppleGothic-20" transform="translate(1195.999771 0)"/>
     <use xlink:href="#AppleGothic-acc4" transform="translate(1227.999756 0)"/>
     <use xlink:href="#AppleGothic-c808" transform="translate(1327.999741 0)"/>
     <use xlink:href="#AppleGothic-c131" transform="translate(1427.999725 0)"/>
     <use xlink:href="#AppleGothic-28" transform="translate(1527.99971 0)"/>
     <use xlink:href="#AppleGothic-53" transform="translate(1577.999695 0)"/>
     <use xlink:href="#AppleGothic-65" transform="translate(1641.199692 0)"/>
     <use xlink:href="#AppleGothic-61" transform="translate(1696.099686 0)"/>
     <use xlink:href="#AppleGothic-73" transform="translate(1752.59967 0)"/>
     <use xlink:href="#AppleGothic-6f" transform="translate(1802.199661 0)"/>
     <use xlink:href="#AppleGothic-6e" transform="translate(1860.499649 0)"/>
     <use xlink:href="#AppleGothic-61" transform="translate(1916.399643 0)"/>
     <use xlink:href="#AppleGothic-6c" transform="translate(1972.899628 0)"/>
     <use xlink:href="#AppleGothic-69" transform="translate(1989.599625 0)"/>
     <use xlink:href="#AppleGothic-74" transform="translate(2005.499619 0)"/>
     <use xlink:href="#AppleGothic-79" transform="translate(2039.699615 0)"/>
     <use xlink:href="#AppleGothic-29" transform="translate(2095.399612 0)"/>
    </g>
   </g>
  </g>
 </g>
 <defs>
  <clipPath id="p98601a1493">
   <rect x="47.133125" y="26.3525" width="558" height="332.64"/>
  </clipPath>
 </defs>
</svg>
