<?xml version="1.0" encoding="utf-8" standalone="no"?>
<!DOCTYPE svg PUBLIC "-//W3C//DTD SVG 1.1//EN"
  "http://www.w3.org/Graphics/SVG/1.1/DTD/svg11.dtd">
<svg xmlns:xlink="http://www.w3.org/1999/xlink" width="891.333125pt" height="395.070625pt" viewBox="0 0 891.333125 395.070625" xmlns="http://www.w3.org/2000/svg" version="1.1">
 <metadata>
  <rdf:RDF xmlns:dc="http://purl.org/dc/elements/1.1/" xmlns:cc="http://creativecommons.org/ns#" xmlns:rdf="http://www.w3.org/1999/02/22-rdf-syntax-ns#">
   <cc:Work>
    <dc:type rdf:resource="http://purl.org/dc/dcmitype/StillImage"/>
    <dc:date>2026-05-22T02:33:55.464810</dc:date>
    <dc:format>image/svg+xml</dc:format>
    <dc:creator>
     <cc:Agent>
      <dc:title>Matplotlib v3.10.9, https://matplotlib.org/</dc:title>
     </cc:Agent>
    </dc:creator>
   </cc:Work>
  </rdf:RDF>
 </metadata>
 <defs>
  <style type="text/css">*{stroke-linejoin: round; stroke-linecap: butt}</style>
 </defs>
 <g id="figure_1">
  <g id="patch_1">
   <path d="M 0 395.070625 
L 891.333125 395.070625 
L 891.333125 0 
L 0 0 
z
" style="fill: #ffffff"/>
  </g>
  <g id="axes_1">
   <g id="patch_2">
    <path d="M 47.133125 355.24875 
L 884.133125 355.24875 
L 884.133125 22.60875 
L 47.133125 22.60875 
z
" style="fill: #ffffff"/>
   </g>
   <g id="matplotlib.axis_1">
    <g id="xtick_1">
     <g id="line2d_1">
      <defs>
       <path id="m024d44800a" d="M 0 0 
L 0 6 
" style="stroke: #262626; stroke-width: 1.25"/>
      </defs>
      <g>
       <use xlink:href="#m024d44800a" x="55.339007" y="355.24875" style="fill: #262626; stroke: #262626; stroke-width: 1.25"/>
      </g>
     </g>
     <g id="text_1">
      <!-- SC -->
      <g style="fill: #262626" transform="translate(50.070882 371.02125) scale(0.08 -0.08)">
       <defs>
        <path id="AppleGothic-53" d="M 3418 4666 
L 3418 4019 
Q 3251 4160 3081 4269 
Q 2912 4378 2746 4448 
Q 2362 4627 1965 4627 
Q 1466 4627 1139 4378 
Q 806 4122 806 3770 
Q 806 3258 1562 3002 
Q 1914 2880 2262 2768 
Q 2611 2656 2970 2541 
Q 3731 2176 3731 1453 
Q 3731 749 3187 320 
Q 2669 -83 1901 -83 
Q 1389 -83 915 115 
Q 640 224 262 474 
L 262 1126 
Q 755 685 1261 506 
Q 1427 442 1587 416 
Q 1747 390 1907 390 
Q 2419 390 2771 646 
Q 3162 928 3162 1382 
Q 3162 1933 2419 2221 
Q 2061 2330 1715 2445 
Q 1370 2560 1024 2669 
Q 275 3014 275 3731 
Q 275 4333 749 4710 
Q 1235 5101 1965 5101 
Q 2413 5101 2861 4934 
Q 3091 4858 3418 4666 
z
" transform="scale(0.015625)"/>
        <path id="AppleGothic-43" d="M 4109 4621 
L 4109 3974 
Q 3872 4205 3565 4371 
Q 3085 4627 2598 4627 
Q 1850 4627 1312 3994 
Q 1043 3680 912 3309 
Q 781 2938 781 2515 
Q 781 1651 1318 1030 
Q 1850 410 2611 410 
Q 2970 410 3344 554 
Q 3718 698 4109 998 
L 4109 378 
Q 3251 -83 2554 -83 
Q 1651 -83 973 614 
Q 243 1363 243 2490 
Q 243 3584 922 4339 
Q 1613 5101 2630 5101 
Q 3027 5101 3392 4979 
Q 3757 4858 4109 4621 
z
" transform="scale(0.015625)"/>
       </defs>
       <use xlink:href="#AppleGothic-53"/>
       <use xlink:href="#AppleGothic-43" transform="translate(63.199997 0)"/>
      </g>
     </g>
    </g>
    <g id="xtick_2">
     <g id="line2d_2">
      <g>
       <use xlink:href="#m024d44800a" x="71.750772" y="355.24875" style="fill: #262626; stroke: #262626; stroke-width: 1.25"/>
      </g>
     </g>
     <g id="text_2">
      <!-- ND -->
      <g style="fill: #262626" transform="translate(66.107022 371.02125) scale(0.08 -0.08)">
       <defs>
        <path id="AppleGothic-4e" d="M 320 0 
L 320 5018 
L 781 5018 
L 3866 768 
L 3866 5018 
L 4326 5018 
L 4326 0 
L 3866 0 
L 781 4243 
L 781 0 
L 320 0 
z
" transform="scale(0.015625)"/>
        <path id="AppleGothic-44" d="M 358 5024 
L 1562 5024 
Q 2227 5024 2675 4858 
Q 2861 4787 3027 4681 
Q 3194 4576 3341 4429 
Q 3693 4077 3878 3584 
Q 4064 3091 4064 2554 
Q 4064 1357 3379 672 
Q 2688 0 1485 0 
L 358 0 
L 358 5024 
z
M 1363 4582 
L 864 4582 
L 864 442 
L 1690 442 
Q 2413 442 2912 941 
Q 3494 1523 3494 2560 
Q 3494 2765 3472 2944 
Q 3450 3123 3405 3290 
Q 3264 3776 2906 4122 
Q 2643 4371 2298 4480 
Q 1965 4582 1363 4582 
z
" transform="scale(0.015625)"/>
       </defs>
       <use xlink:href="#AppleGothic-4e"/>
       <use xlink:href="#AppleGothic-44" transform="translate(72.599991 0)"/>
      </g>
     </g>
    </g>
    <g id="xtick_3">
     <g id="line2d_3">
      <g>
       <use xlink:href="#m024d44800a" x="88.162537" y="355.24875" style="fill: #262626; stroke: #262626; stroke-width: 1.25"/>
      </g>
     </g>
     <g id="text_3">
      <!-- WV -->
      <g style="fill: #262626" transform="translate(81.226912 371.02125) scale(0.08 -0.08)">
       <defs>
        <path id="AppleGothic-57" d="M 5965 5018 
L 6464 5018 
L 4992 0 
L 4506 0 
L 3264 4371 
L 2067 0 
L 1581 0 
L 70 5018 
L 595 5018 
L 1830 749 
L 3014 5018 
L 3501 5018 
L 4749 749 
L 5965 5018 
z
" transform="scale(0.015625)"/>
        <path id="AppleGothic-56" d="M 109 5018 
L 678 5018 
L 2310 608 
L 3910 5018 
L 4493 5018 
L 2573 0 
L 2074 0 
L 109 5018 
z
" transform="scale(0.015625)"/>
       </defs>
       <use xlink:href="#AppleGothic-57"/>
       <use xlink:href="#AppleGothic-56" transform="translate(102.299988 0)"/>
      </g>
     </g>
    </g>
    <g id="xtick_4">
     <g id="line2d_4">
      <g>
       <use xlink:href="#m024d44800a" x="104.574301" y="355.24875" style="fill: #262626; stroke: #262626; stroke-width: 1.25"/>
      </g>
     </g>
     <g id="text_4">
      <!-- AR -->
      <g style="fill: #262626" transform="translate(99.110551 371.02125) scale(0.08 -0.08)">
       <defs>
        <path id="AppleGothic-41" d="M 2086 5018 
L 2579 5018 
L 4448 0 
L 3859 0 
L 3258 1715 
L 1350 1715 
L 723 0 
L 166 0 
L 2086 5018 
z
M 3117 2157 
L 2342 4416 
L 1504 2157 
L 3117 2157 
z
" transform="scale(0.015625)"/>
        <path id="AppleGothic-52" d="M 314 5018 
L 1971 5018 
Q 2637 5018 3072 4800 
Q 3680 4493 3680 3776 
Q 3680 3283 3405 2969 
Q 3130 2656 2522 2470 
Q 2630 2426 2713 2384 
Q 2797 2342 2848 2291 
Q 3072 2099 3200 1728 
L 3840 0 
L 3270 0 
L 2938 1050 
Q 2675 1837 2387 2080 
Q 2138 2310 1562 2310 
L 819 2310 
L 819 0 
L 314 0 
L 314 5018 
z
M 2067 4576 
L 819 4576 
L 819 2707 
L 1587 2707 
Q 2048 2707 2365 2793 
Q 2682 2880 2880 3072 
Q 3014 3194 3100 3373 
Q 3187 3552 3187 3738 
Q 3187 4090 2899 4320 
Q 2586 4576 2067 4576 
z
" transform="scale(0.015625)"/>
       </defs>
       <use xlink:href="#AppleGothic-41"/>
       <use xlink:href="#AppleGothic-52" transform="translate(72.599991 0)"/>
      </g>
     </g>
    </g>
    <g id="xtick_5">
     <g id="line2d_5">
      <g>
       <use xlink:href="#m024d44800a" x="120.986066" y="355.24875" style="fill: #262626; stroke: #262626; stroke-width: 1.25"/>
      </g>
     </g>
     <g id="text_5">
      <!-- KY -->
      <g style="fill: #262626" transform="translate(115.634191 371.02125) scale(0.08 -0.08)">
       <defs>
        <path id="AppleGothic-4b" d="M 269 5018 
L 774 5018 
L 774 2509 
L 3226 5018 
L 3898 5018 
L 1933 3040 
L 4045 0 
L 3386 0 
L 1530 2656 
L 774 1901 
L 774 0 
L 269 0 
L 269 5018 
z
" transform="scale(0.015625)"/>
        <path id="AppleGothic-59" d="M 115 5018 
L 717 5018 
L 2253 2707 
L 3763 5018 
L 4390 5018 
L 2496 2266 
L 2496 0 
L 1997 0 
L 1997 2266 
L 115 5018 
z
" transform="scale(0.015625)"/>
       </defs>
       <use xlink:href="#AppleGothic-4b"/>
       <use xlink:href="#AppleGothic-59" transform="translate(64.299988 0)"/>
      </g>
     </g>
    </g>
    <g id="xtick_6">
     <g id="line2d_6">
      <g>
       <use xlink:href="#m024d44800a" x="137.397831" y="355.24875" style="fill: #262626; stroke: #262626; stroke-width: 1.25"/>
      </g>
     </g>
     <g id="text_6">
      <!-- MT -->
      <g style="fill: #262626" transform="translate(131.110331 371.02125) scale(0.08 -0.08)">
       <defs>
        <path id="AppleGothic-4d" d="M 288 0 
L 288 5018 
L 947 5018 
L 2893 864 
L 4902 5018 
L 5523 5018 
L 5523 0 
L 5069 0 
L 5069 4358 
L 3002 0 
L 2784 0 
L 749 4352 
L 749 0 
L 288 0 
z
" transform="scale(0.015625)"/>
        <path id="AppleGothic-54" d="M 166 5018 
L 4038 5018 
L 4038 4576 
L 2355 4576 
L 2355 0 
L 1856 0 
L 1856 4576 
L 166 4576 
L 166 5018 
z
" transform="scale(0.015625)"/>
       </defs>
       <use xlink:href="#AppleGothic-4d"/>
       <use xlink:href="#AppleGothic-54" transform="translate(91.099991 0)"/>
      </g>
     </g>
    </g>
    <g id="xtick_7">
     <g id="line2d_7">
      <g>
       <use xlink:href="#m024d44800a" x="153.809596" y="355.24875" style="fill: #262626; stroke: #262626; stroke-width: 1.25"/>
      </g>
     </g>
     <g id="text_7">
      <!-- LA -->
      <g style="fill: #262626" transform="translate(148.697721 371.02125) scale(0.08 -0.08)">
       <defs>
        <path id="AppleGothic-4c" d="M 333 5018 
L 838 5018 
L 838 442 
L 3315 442 
L 3315 0 
L 333 0 
L 333 5018 
z
" transform="scale(0.015625)"/>
       </defs>
       <use xlink:href="#AppleGothic-4c"/>
       <use xlink:href="#AppleGothic-41" transform="translate(55.199997 0)"/>
      </g>
     </g>
    </g>
    <g id="xtick_8">
     <g id="line2d_8">
      <g>
       <use xlink:href="#m024d44800a" x="170.22136" y="355.24875" style="fill: #262626; stroke: #262626; stroke-width: 1.25"/>
      </g>
     </g>
     <g id="text_8">
      <!-- OK -->
      <g style="fill: #262626" transform="translate(164.545735 371.02125) scale(0.08 -0.08)">
       <defs>
        <path id="AppleGothic-4f" d="M 2496 -83 
Q 1626 -83 973 595 
Q 256 1331 256 2496 
Q 256 3610 928 4378 
Q 1581 5101 2477 5101 
Q 3386 5101 4038 4390 
Q 4710 3642 4710 2502 
Q 4710 1318 3981 582 
Q 3334 -83 2496 -83 
z
M 2458 390 
Q 3168 390 3667 986 
Q 4173 1594 4173 2502 
Q 4173 2944 4051 3321 
Q 3930 3699 3686 4006 
Q 3200 4627 2483 4627 
Q 1773 4627 1280 4006 
Q 794 3398 794 2490 
Q 794 1542 1306 947 
Q 1786 390 2458 390 
z
" transform="scale(0.015625)"/>
       </defs>
       <use xlink:href="#AppleGothic-4f"/>
       <use xlink:href="#AppleGothic-4b" transform="translate(77.599991 0)"/>
      </g>
     </g>
    </g>
    <g id="xtick_9">
     <g id="line2d_9">
      <g>
       <use xlink:href="#m024d44800a" x="186.633125" y="355.24875" style="fill: #262626; stroke: #262626; stroke-width: 1.25"/>
      </g>
     </g>
     <g id="text_9">
      <!-- TN -->
      <g style="fill: #262626" transform="translate(181.085625 371.02125) scale(0.08 -0.08)">
       <use xlink:href="#AppleGothic-54"/>
       <use xlink:href="#AppleGothic-4e" transform="translate(66.099991 0)"/>
      </g>
     </g>
    </g>
    <g id="xtick_10">
     <g id="line2d_10">
      <g>
       <use xlink:href="#m024d44800a" x="203.04489" y="355.24875" style="fill: #262626; stroke: #262626; stroke-width: 1.25"/>
      </g>
     </g>
     <g id="text_10">
      <!-- TX -->
      <g style="fill: #262626" transform="translate(197.549265 371.02125) scale(0.08 -0.08)">
       <defs>
        <path id="AppleGothic-58" d="M 301 5018 
L 909 5018 
L 2246 3046 
L 3584 5018 
L 4218 5018 
L 2554 2688 
L 4480 0 
L 3821 0 
L 2246 2323 
L 672 0 
L 38 0 
L 1952 2688 
L 301 5018 
z
" transform="scale(0.015625)"/>
       </defs>
       <use xlink:href="#AppleGothic-54"/>
       <use xlink:href="#AppleGothic-58" transform="translate(66.099991 0)"/>
      </g>
     </g>
    </g>
    <g id="xtick_11">
     <g id="line2d_11">
      <g>
       <use xlink:href="#m024d44800a" x="219.456654" y="355.24875" style="fill: #262626; stroke: #262626; stroke-width: 1.25"/>
      </g>
     </g>
     <g id="text_11">
      <!-- SD -->
      <g style="fill: #262626" transform="translate(214.188529 371.02125) scale(0.08 -0.08)">
       <use xlink:href="#AppleGothic-53"/>
       <use xlink:href="#AppleGothic-44" transform="translate(63.199997 0)"/>
      </g>
     </g>
    </g>
    <g id="xtick_12">
     <g id="line2d_12">
      <g>
       <use xlink:href="#m024d44800a" x="235.868419" y="355.24875" style="fill: #262626; stroke: #262626; stroke-width: 1.25"/>
      </g>
     </g>
     <g id="text_12">
      <!-- AL -->
      <g style="fill: #262626" transform="translate(230.756544 371.02125) scale(0.08 -0.08)">
       <use xlink:href="#AppleGothic-41"/>
       <use xlink:href="#AppleGothic-4c" transform="translate(72.599991 0)"/>
      </g>
     </g>
    </g>
    <g id="xtick_13">
     <g id="line2d_13">
      <g>
       <use xlink:href="#m024d44800a" x="252.280184" y="355.24875" style="fill: #262626; stroke: #262626; stroke-width: 1.25"/>
      </g>
     </g>
     <g id="text_13">
      <!-- AZ -->
      <g style="fill: #262626" transform="translate(246.748309 371.02125) scale(0.08 -0.08)">
       <defs>
        <path id="AppleGothic-5a" d="M 397 5018 
L 3949 5018 
L 3949 4595 
L 845 442 
L 4154 442 
L 4154 0 
L 109 0 
L 109 288 
L 3290 4576 
L 397 4576 
L 397 5018 
z
" transform="scale(0.015625)"/>
       </defs>
       <use xlink:href="#AppleGothic-41"/>
       <use xlink:href="#AppleGothic-5a" transform="translate(72.599991 0)"/>
      </g>
     </g>
    </g>
    <g id="xtick_14">
     <g id="line2d_14">
      <g>
       <use xlink:href="#m024d44800a" x="268.691949" y="355.24875" style="fill: #262626; stroke: #262626; stroke-width: 1.25"/>
      </g>
     </g>
     <g id="text_14">
      <!-- NM -->
      <g style="fill: #262626" transform="translate(262.144449 371.02125) scale(0.08 -0.08)">
       <use xlink:href="#AppleGothic-4e"/>
       <use xlink:href="#AppleGothic-4d" transform="translate(72.599991 0)"/>
      </g>
     </g>
    </g>
    <g id="xtick_15">
     <g id="line2d_15">
      <g>
       <use xlink:href="#m024d44800a" x="285.103713" y="355.24875" style="fill: #262626; stroke: #262626; stroke-width: 1.25"/>
      </g>
     </g>
     <g id="text_15">
      <!-- PA -->
      <g style="fill: #262626" transform="translate(279.788088 371.02125) scale(0.08 -0.08)">
       <defs>
        <path id="AppleGothic-50" d="M 262 5018 
L 1869 5018 
Q 2560 5018 3002 4781 
Q 3597 4448 3597 3718 
Q 3597 3014 3104 2630 
Q 2656 2272 1952 2272 
L 768 2272 
L 768 0 
L 262 0 
L 262 5018 
z
M 1862 4576 
L 768 4576 
L 768 2714 
L 1901 2714 
Q 2349 2714 2675 2950 
Q 3040 3219 3040 3674 
Q 3040 4186 2611 4410 
Q 2298 4576 1862 4576 
z
" transform="scale(0.015625)"/>
       </defs>
       <use xlink:href="#AppleGothic-50"/>
       <use xlink:href="#AppleGothic-41" transform="translate(60.299988 0)"/>
      </g>
     </g>
    </g>
    <g id="xtick_16">
     <g id="line2d_16">
      <g>
       <use xlink:href="#m024d44800a" x="301.515478" y="355.24875" style="fill: #262626; stroke: #262626; stroke-width: 1.25"/>
      </g>
     </g>
     <g id="text_16">
      <!-- AK -->
      <g style="fill: #262626" transform="translate(296.039853 371.02125) scale(0.08 -0.08)">
       <use xlink:href="#AppleGothic-41"/>
       <use xlink:href="#AppleGothic-4b" transform="translate(72.599991 0)"/>
      </g>
     </g>
    </g>
    <g id="xtick_17">
     <g id="line2d_17">
      <g>
       <use xlink:href="#m024d44800a" x="317.927243" y="355.24875" style="fill: #262626; stroke: #262626; stroke-width: 1.25"/>
      </g>
     </g>
     <g id="text_17">
      <!-- FL -->
      <g style="fill: #262626" transform="translate(313.390993 371.02125) scale(0.08 -0.08)">
       <defs>
        <path id="AppleGothic-46" d="M 339 5018 
L 3462 5018 
L 3462 4576 
L 845 4576 
L 845 2714 
L 3354 2714 
L 3354 2304 
L 845 2304 
L 845 0 
L 339 0 
L 339 5018 
z
" transform="scale(0.015625)"/>
       </defs>
       <use xlink:href="#AppleGothic-46"/>
       <use xlink:href="#AppleGothic-4c" transform="translate(58.199997 0)"/>
      </g>
     </g>
    </g>
    <g id="xtick_18">
     <g id="line2d_18">
      <g>
       <use xlink:href="#m024d44800a" x="334.339007" y="355.24875" style="fill: #262626; stroke: #262626; stroke-width: 1.25"/>
      </g>
     </g>
     <g id="text_18">
      <!-- KS -->
      <g style="fill: #262626" transform="translate(329.239007 371.02125) scale(0.08 -0.08)">
       <use xlink:href="#AppleGothic-4b"/>
       <use xlink:href="#AppleGothic-53" transform="translate(64.299988 0)"/>
      </g>
     </g>
    </g>
    <g id="xtick_19">
     <g id="line2d_19">
      <g>
       <use xlink:href="#m024d44800a" x="350.750772" y="355.24875" style="fill: #262626; stroke: #262626; stroke-width: 1.25"/>
      </g>
     </g>
     <g id="text_19">
      <!-- MS -->
      <g style="fill: #262626" transform="translate(344.578897 371.02125) scale(0.08 -0.08)">
       <use xlink:href="#AppleGothic-4d"/>
       <use xlink:href="#AppleGothic-53" transform="translate(91.099991 0)"/>
      </g>
     </g>
    </g>
    <g id="xtick_20">
     <g id="line2d_20">
      <g>
       <use xlink:href="#m024d44800a" x="367.162537" y="355.24875" style="fill: #262626; stroke: #262626; stroke-width: 1.25"/>
      </g>
     </g>
     <g id="text_20">
      <!-- HI -->
      <g style="fill: #262626" transform="translate(363.490662 371.02125) scale(0.08 -0.08)">
       <defs>
        <path id="AppleGothic-48" d="M 352 5018 
L 851 5018 
L 851 2829 
L 3610 2829 
L 3610 5018 
L 4109 5018 
L 4109 0 
L 3610 0 
L 3610 2406 
L 851 2406 
L 851 0 
L 352 0 
L 352 5018 
z
" transform="scale(0.015625)"/>
        <path id="AppleGothic-49" d="M 435 5018 
L 934 5018 
L 934 0 
L 435 0 
L 435 5018 
z
" transform="scale(0.015625)"/>
       </defs>
       <use xlink:href="#AppleGothic-48"/>
       <use xlink:href="#AppleGothic-49" transform="translate(70.299988 0)"/>
      </g>
     </g>
    </g>
    <g id="xtick_21">
     <g id="line2d_21">
      <g>
       <use xlink:href="#m024d44800a" x="383.574301" y="355.24875" style="fill: #262626; stroke: #262626; stroke-width: 1.25"/>
      </g>
     </g>
     <g id="text_21">
      <!-- WY -->
      <g style="fill: #262626" transform="translate(376.702426 371.02125) scale(0.08 -0.08)">
       <use xlink:href="#AppleGothic-57"/>
       <use xlink:href="#AppleGothic-59" transform="translate(102.299988 0)"/>
      </g>
     </g>
    </g>
    <g id="xtick_22">
     <g id="line2d_22">
      <g>
       <use xlink:href="#m024d44800a" x="399.986066" y="355.24875" style="fill: #262626; stroke: #262626; stroke-width: 1.25"/>
      </g>
     </g>
     <g id="text_22">
      <!-- NC -->
      <g style="fill: #262626" transform="translate(394.342316 371.02125) scale(0.08 -0.08)">
       <use xlink:href="#AppleGothic-4e"/>
       <use xlink:href="#AppleGothic-43" transform="translate(72.599991 0)"/>
      </g>
     </g>
    </g>
    <g id="xtick_23">
     <g id="line2d_23">
      <g>
       <use xlink:href="#m024d44800a" x="416.397831" y="355.24875" style="fill: #262626; stroke: #262626; stroke-width: 1.25"/>
      </g>
     </g>
     <g id="text_23">
      <!-- DE -->
      <g style="fill: #262626" transform="translate(411.341581 371.02125) scale(0.08 -0.08)">
       <defs>
        <path id="AppleGothic-45" d="M 282 5024 
L 3405 5024 
L 3405 4582 
L 787 4582 
L 787 2848 
L 3309 2848 
L 3309 2406 
L 787 2406 
L 787 442 
L 3424 442 
L 3424 0 
L 282 0 
L 282 5024 
z
" transform="scale(0.015625)"/>
       </defs>
       <use xlink:href="#AppleGothic-44"/>
       <use xlink:href="#AppleGothic-45" transform="translate(68.499985 0)"/>
      </g>
     </g>
    </g>
    <g id="xtick_24">
     <g id="line2d_24">
      <g>
       <use xlink:href="#m024d44800a" x="432.809596" y="355.24875" style="fill: #262626; stroke: #262626; stroke-width: 1.25"/>
      </g>
     </g>
     <g id="text_24">
      <!-- MO -->
      <g style="fill: #262626" transform="translate(426.062096 371.02125) scale(0.08 -0.08)">
       <use xlink:href="#AppleGothic-4d"/>
       <use xlink:href="#AppleGothic-4f" transform="translate(91.099991 0)"/>
      </g>
     </g>
    </g>
    <g id="xtick_25">
     <g id="line2d_25">
      <g>
       <use xlink:href="#m024d44800a" x="449.22136" y="355.24875" style="fill: #262626; stroke: #262626; stroke-width: 1.25"/>
      </g>
     </g>
     <g id="text_25">
      <!-- IA -->
      <g style="fill: #262626" transform="translate(445.45761 371.02125) scale(0.08 -0.08)">
       <use xlink:href="#AppleGothic-49"/>
       <use xlink:href="#AppleGothic-41" transform="translate(21.499985 0)"/>
      </g>
     </g>
    </g>
    <g id="xtick_26">
     <g id="line2d_26">
      <g>
       <use xlink:href="#m024d44800a" x="465.633125" y="355.24875" style="fill: #262626; stroke: #262626; stroke-width: 1.25"/>
      </g>
     </g>
     <g id="text_26">
      <!-- GA -->
      <g style="fill: #262626" transform="translate(459.753125 371.02125) scale(0.08 -0.08)">
       <defs>
        <path id="AppleGothic-47" d="M 4134 4634 
L 4134 3968 
Q 3782 4282 3456 4435 
Q 3072 4627 2669 4627 
Q 1856 4627 1318 3955 
Q 806 3341 806 2483 
Q 806 1613 1357 973 
Q 1875 390 2528 390 
Q 3046 390 3398 723 
Q 3782 1088 3782 1683 
L 3782 2067 
L 2131 2067 
L 2131 2509 
L 4294 2509 
L 4294 0 
L 3853 0 
L 3782 608 
Q 3558 326 3302 166 
Q 2906 -83 2432 -83 
Q 1568 -83 928 653 
Q 269 1395 269 2470 
Q 269 3578 954 4339 
Q 1638 5101 2662 5101 
Q 3110 5101 3539 4934 
Q 3763 4851 4134 4634 
z
" transform="scale(0.015625)"/>
       </defs>
       <use xlink:href="#AppleGothic-47"/>
       <use xlink:href="#AppleGothic-41" transform="translate(74.399994 0)"/>
      </g>
     </g>
    </g>
    <g id="xtick_27">
     <g id="line2d_27">
      <g>
       <use xlink:href="#m024d44800a" x="482.04489" y="355.24875" style="fill: #262626; stroke: #262626; stroke-width: 1.25"/>
      </g>
     </g>
     <g id="text_27">
      <!-- ID -->
      <g style="fill: #262626" transform="translate(478.44489 371.02125) scale(0.08 -0.08)">
       <use xlink:href="#AppleGothic-49"/>
       <use xlink:href="#AppleGothic-44" transform="translate(21.499985 0)"/>
      </g>
     </g>
    </g>
    <g id="xtick_28">
     <g id="line2d_28">
      <g>
       <use xlink:href="#m024d44800a" x="498.456654" y="355.24875" style="fill: #262626; stroke: #262626; stroke-width: 1.25"/>
      </g>
     </g>
     <g id="text_28">
      <!-- ME -->
      <g style="fill: #262626" transform="translate(492.496654 371.02125) scale(0.08 -0.08)">
       <use xlink:href="#AppleGothic-4d"/>
       <use xlink:href="#AppleGothic-45" transform="translate(91.099991 0)"/>
      </g>
     </g>
    </g>
    <g id="xtick_29">
     <g id="line2d_29">
      <g>
       <use xlink:href="#m024d44800a" x="514.868419" y="355.24875" style="fill: #262626; stroke: #262626; stroke-width: 1.25"/>
      </g>
     </g>
     <g id="text_29">
      <!-- NE -->
      <g style="fill: #262626" transform="translate(509.648419 371.02125) scale(0.08 -0.08)">
       <use xlink:href="#AppleGothic-4e"/>
       <use xlink:href="#AppleGothic-45" transform="translate(72.599991 0)"/>
      </g>
     </g>
    </g>
    <g id="xtick_30">
     <g id="line2d_30">
      <g>
       <use xlink:href="#m024d44800a" x="531.280184" y="355.24875" style="fill: #262626; stroke: #262626; stroke-width: 1.25"/>
      </g>
     </g>
     <g id="text_30">
      <!-- NV -->
      <g style="fill: #262626" transform="translate(525.532684 371.02125) scale(0.08 -0.08)">
       <use xlink:href="#AppleGothic-4e"/>
       <use xlink:href="#AppleGothic-56" transform="translate(72.599991 0)"/>
      </g>
     </g>
    </g>
    <g id="xtick_31">
     <g id="line2d_31">
      <g>
       <use xlink:href="#m024d44800a" x="547.691949" y="355.24875" style="fill: #262626; stroke: #262626; stroke-width: 1.25"/>
      </g>
     </g>
     <g id="text_31">
      <!-- IN -->
      <g style="fill: #262626" transform="translate(543.928199 371.02125) scale(0.08 -0.08)">
       <use xlink:href="#AppleGothic-49"/>
       <use xlink:href="#AppleGothic-4e" transform="translate(21.499985 0)"/>
      </g>
     </g>
    </g>
    <g id="xtick_32">
     <g id="line2d_32">
      <g>
       <use xlink:href="#m024d44800a" x="564.103713" y="355.24875" style="fill: #262626; stroke: #262626; stroke-width: 1.25"/>
      </g>
     </g>
     <g id="text_32">
      <!-- OH -->
      <g style="fill: #262626" transform="translate(558.188088 371.02125) scale(0.08 -0.08)">
       <use xlink:href="#AppleGothic-4f"/>
       <use xlink:href="#AppleGothic-48" transform="translate(77.599991 0)"/>
      </g>
     </g>
    </g>
    <g id="xtick_33">
     <g id="line2d_33">
      <g>
       <use xlink:href="#m024d44800a" x="580.515478" y="355.24875" style="fill: #262626; stroke: #262626; stroke-width: 1.25"/>
      </g>
     </g>
     <g id="text_33">
      <!-- MI -->
      <g style="fill: #262626" transform="translate(576.011728 371.02125) scale(0.08 -0.08)">
       <use xlink:href="#AppleGothic-4d"/>
       <use xlink:href="#AppleGothic-49" transform="translate(91.099991 0)"/>
      </g>
     </g>
    </g>
    <g id="xtick_34">
     <g id="line2d_34">
      <g>
       <use xlink:href="#m024d44800a" x="596.927243" y="355.24875" style="fill: #262626; stroke: #262626; stroke-width: 1.25"/>
      </g>
     </g>
     <g id="text_34">
      <!-- WI -->
      <g style="fill: #262626" transform="translate(591.975368 371.02125) scale(0.08 -0.08)">
       <use xlink:href="#AppleGothic-57"/>
       <use xlink:href="#AppleGothic-49" transform="translate(102.299988 0)"/>
      </g>
     </g>
    </g>
    <g id="xtick_35">
     <g id="line2d_35">
      <g>
       <use xlink:href="#m024d44800a" x="613.339007" y="355.24875" style="fill: #262626; stroke: #262626; stroke-width: 1.25"/>
      </g>
     </g>
     <g id="text_35">
      <!-- VT -->
      <g style="fill: #262626" transform="translate(607.851507 371.02125) scale(0.08 -0.08)">
       <use xlink:href="#AppleGothic-56"/>
       <use xlink:href="#AppleGothic-54" transform="translate(71.099991 0)"/>
      </g>
     </g>
    </g>
    <g id="xtick_36">
     <g id="line2d_36">
      <g>
       <use xlink:href="#m024d44800a" x="629.750772" y="355.24875" style="fill: #262626; stroke: #262626; stroke-width: 1.25"/>
      </g>
     </g>
     <g id="text_36">
      <!-- CO -->
      <g style="fill: #262626" transform="translate(623.907022 371.02125) scale(0.08 -0.08)">
       <use xlink:href="#AppleGothic-43"/>
       <use xlink:href="#AppleGothic-4f" transform="translate(68.499985 0)"/>
      </g>
     </g>
    </g>
    <g id="xtick_37">
     <g id="line2d_37">
      <g>
       <use xlink:href="#m024d44800a" x="646.162537" y="355.24875" style="fill: #262626; stroke: #262626; stroke-width: 1.25"/>
      </g>
     </g>
     <g id="text_37">
      <!-- IL -->
      <g style="fill: #262626" transform="translate(643.094412 371.02125) scale(0.08 -0.08)">
       <use xlink:href="#AppleGothic-49"/>
       <use xlink:href="#AppleGothic-4c" transform="translate(21.499985 0)"/>
      </g>
     </g>
    </g>
    <g id="xtick_38">
     <g id="line2d_38">
      <g>
       <use xlink:href="#m024d44800a" x="662.574301" y="355.24875" style="fill: #262626; stroke: #262626; stroke-width: 1.25"/>
      </g>
     </g>
     <g id="text_38">
      <!-- OR -->
      <g style="fill: #262626" transform="translate(656.910551 371.02125) scale(0.08 -0.08)">
       <use xlink:href="#AppleGothic-4f"/>
       <use xlink:href="#AppleGothic-52" transform="translate(77.599991 0)"/>
      </g>
     </g>
    </g>
    <g id="xtick_39">
     <g id="line2d_39">
      <g>
       <use xlink:href="#m024d44800a" x="678.986066" y="355.24875" style="fill: #262626; stroke: #262626; stroke-width: 1.25"/>
      </g>
     </g>
     <g id="text_39">
      <!-- VA -->
      <g style="fill: #262626" transform="translate(673.238566 371.02125) scale(0.08 -0.08)">
       <use xlink:href="#AppleGothic-56"/>
       <use xlink:href="#AppleGothic-41" transform="translate(71.099991 0)"/>
      </g>
     </g>
    </g>
    <g id="xtick_40">
     <g id="line2d_40">
      <g>
       <use xlink:href="#m024d44800a" x="695.397831" y="355.24875" style="fill: #262626; stroke: #262626; stroke-width: 1.25"/>
      </g>
     </g>
     <g id="text_40">
      <!-- MD -->
      <g style="fill: #262626" transform="translate(689.014081 371.02125) scale(0.08 -0.08)">
       <use xlink:href="#AppleGothic-4d"/>
       <use xlink:href="#AppleGothic-44" transform="translate(91.099991 0)"/>
      </g>
     </g>
    </g>
    <g id="xtick_41">
     <g id="line2d_41">
      <g>
       <use xlink:href="#m024d44800a" x="711.809596" y="355.24875" style="fill: #262626; stroke: #262626; stroke-width: 1.25"/>
      </g>
     </g>
     <g id="text_41">
      <!-- NY -->
      <g style="fill: #262626" transform="translate(706.125846 371.02125) scale(0.08 -0.08)">
       <use xlink:href="#AppleGothic-4e"/>
       <use xlink:href="#AppleGothic-59" transform="translate(72.599991 0)"/>
      </g>
     </g>
    </g>
    <g id="xtick_42">
     <g id="line2d_42">
      <g>
       <use xlink:href="#m024d44800a" x="728.22136" y="355.24875" style="fill: #262626; stroke: #262626; stroke-width: 1.25"/>
      </g>
     </g>
     <g id="text_42">
      <!-- CA -->
      <g style="fill: #262626" transform="translate(722.57761 371.02125) scale(0.08 -0.08)">
       <use xlink:href="#AppleGothic-43"/>
       <use xlink:href="#AppleGothic-41" transform="translate(68.499985 0)"/>
      </g>
     </g>
    </g>
    <g id="xtick_43">
     <g id="line2d_43">
      <g>
       <use xlink:href="#m024d44800a" x="744.633125" y="355.24875" style="fill: #262626; stroke: #262626; stroke-width: 1.25"/>
      </g>
     </g>
     <g id="text_43">
      <!-- NH -->
      <g style="fill: #262626" transform="translate(738.9175 371.02125) scale(0.08 -0.08)">
       <use xlink:href="#AppleGothic-4e"/>
       <use xlink:href="#AppleGothic-48" transform="translate(72.599991 0)"/>
      </g>
     </g>
    </g>
    <g id="xtick_44">
     <g id="line2d_44">
      <g>
       <use xlink:href="#m024d44800a" x="761.04489" y="355.24875" style="fill: #262626; stroke: #262626; stroke-width: 1.25"/>
      </g>
     </g>
     <g id="text_44">
      <!-- UT -->
      <g style="fill: #262626" transform="translate(755.46114 371.02125) scale(0.08 -0.08)">
       <defs>
        <path id="AppleGothic-55" d="M 320 5018 
L 819 5018 
L 819 1766 
Q 819 1094 1293 723 
Q 1722 390 2374 390 
Q 2970 390 3386 717 
Q 3866 1101 3866 1766 
L 3866 5018 
L 4397 5018 
L 4397 1830 
Q 4397 947 3770 410 
Q 3187 -83 2394 -83 
Q 1478 -83 915 403 
Q 320 909 320 1811 
L 320 5018 
z
" transform="scale(0.015625)"/>
       </defs>
       <use xlink:href="#AppleGothic-55"/>
       <use xlink:href="#AppleGothic-54" transform="translate(73.499985 0)"/>
      </g>
     </g>
    </g>
    <g id="xtick_45">
     <g id="line2d_45">
      <g>
       <use xlink:href="#m024d44800a" x="777.456654" y="355.24875" style="fill: #262626; stroke: #262626; stroke-width: 1.25"/>
      </g>
     </g>
     <g id="text_45">
      <!-- NJ -->
      <g style="fill: #262626" transform="translate(772.412904 371.02125) scale(0.08 -0.08)">
       <defs>
        <path id="AppleGothic-4a" d="M 1555 429 
Q 1965 429 2253 678 
Q 2547 941 2547 1293 
L 2547 5018 
L 3046 5018 
L 3046 1274 
Q 3046 768 2598 358 
Q 2157 -45 1587 -45 
Q 1171 -45 710 122 
Q 602 154 467 221 
Q 333 288 166 378 
L 166 960 
Q 333 851 489 761 
Q 646 672 806 602 
Q 1210 429 1555 429 
z
" transform="scale(0.015625)"/>
       </defs>
       <use xlink:href="#AppleGothic-4e"/>
       <use xlink:href="#AppleGothic-4a" transform="translate(72.599991 0)"/>
      </g>
     </g>
    </g>
    <g id="xtick_46">
     <g id="line2d_46">
      <g>
       <use xlink:href="#m024d44800a" x="793.868419" y="355.24875" style="fill: #262626; stroke: #262626; stroke-width: 1.25"/>
      </g>
     </g>
     <g id="text_46">
      <!-- RI -->
      <g style="fill: #262626" transform="translate(790.448419 371.02125) scale(0.08 -0.08)">
       <use xlink:href="#AppleGothic-52"/>
       <use xlink:href="#AppleGothic-49" transform="translate(63.999985 0)"/>
      </g>
     </g>
    </g>
    <g id="xtick_47">
     <g id="line2d_47">
      <g>
       <use xlink:href="#m024d44800a" x="810.280184" y="355.24875" style="fill: #262626; stroke: #262626; stroke-width: 1.25"/>
      </g>
     </g>
     <g id="text_47">
      <!-- CT -->
      <g style="fill: #262626" transform="translate(804.896434 371.02125) scale(0.08 -0.08)">
       <use xlink:href="#AppleGothic-43"/>
       <use xlink:href="#AppleGothic-54" transform="translate(68.499985 0)"/>
      </g>
     </g>
    </g>
    <g id="xtick_48">
     <g id="line2d_48">
      <g>
       <use xlink:href="#m024d44800a" x="826.691949" y="355.24875" style="fill: #262626; stroke: #262626; stroke-width: 1.25"/>
      </g>
     </g>
     <g id="text_48">
      <!-- WA -->
      <g style="fill: #262626" transform="translate(819.696324 371.02125) scale(0.08 -0.08)">
       <use xlink:href="#AppleGothic-57"/>
       <use xlink:href="#AppleGothic-41" transform="translate(102.299988 0)"/>
      </g>
     </g>
    </g>
    <g id="xtick_49">
     <g id="line2d_49">
      <g>
       <use xlink:href="#m024d44800a" x="843.103713" y="355.24875" style="fill: #262626; stroke: #262626; stroke-width: 1.25"/>
      </g>
     </g>
     <g id="text_49">
      <!-- MN -->
      <g style="fill: #262626" transform="translate(836.556213 371.02125) scale(0.08 -0.08)">
       <use xlink:href="#AppleGothic-4d"/>
       <use xlink:href="#AppleGothic-4e" transform="translate(91.099991 0)"/>
      </g>
     </g>
    </g>
    <g id="xtick_50">
     <g id="line2d_50">
      <g>
       <use xlink:href="#m024d44800a" x="859.515478" y="355.24875" style="fill: #262626; stroke: #262626; stroke-width: 1.25"/>
      </g>
     </g>
     <g id="text_50">
      <!-- MA -->
      <g style="fill: #262626" transform="translate(852.967978 371.02125) scale(0.08 -0.08)">
       <use xlink:href="#AppleGothic-4d"/>
       <use xlink:href="#AppleGothic-41" transform="translate(91.099991 0)"/>
      </g>
     </g>
    </g>
    <g id="xtick_51">
     <g id="line2d_51">
      <g>
       <use xlink:href="#m024d44800a" x="875.927243" y="355.24875" style="fill: #262626; stroke: #262626; stroke-width: 1.25"/>
      </g>
     </g>
     <g id="text_51">
      <!-- DC -->
      <g style="fill: #262626" transform="translate(870.447243 371.02125) scale(0.08 -0.08)">
       <use xlink:href="#AppleGothic-44"/>
       <use xlink:href="#AppleGothic-43" transform="translate(68.499985 0)"/>
      </g>
     </g>
    </g>
    <g id="text_52">
     <!-- State (주 이름 약자) -->
     <g style="fill: #262626" transform="translate(409.292188 385.80625) scale(0.12 -0.12)">
      <defs>
       <path id="AppleGothic-74" d="M 691 4435 
L 1114 4435 
L 1114 3430 
L 2016 3430 
L 2016 3014 
L 1114 3014 
L 1114 838 
Q 1114 570 1213 454 
Q 1312 339 1555 339 
Q 1696 339 1795 371 
Q 1894 403 2016 454 
L 2016 38 
Q 1914 6 1770 -22 
Q 1626 -51 1478 -51 
Q 1094 -51 883 122 
Q 646 301 646 698 
L 646 3014 
L 70 3014 
L 70 3430 
L 646 3430 
L 691 4435 
z
" transform="scale(0.015625)"/>
       <path id="AppleGothic-61" d="M 2950 2214 
L 2950 602 
Q 2950 493 2998 413 
Q 3046 333 3174 333 
Q 3213 333 3238 336 
Q 3264 339 3290 346 
Q 3328 358 3357 371 
Q 3386 384 3405 390 
L 3405 32 
Q 3290 -6 3174 -22 
Q 3059 -38 2995 -38 
Q 2669 -38 2566 134 
Q 2483 243 2483 602 
Q 2400 461 2317 355 
Q 2234 250 2150 179 
Q 1818 -83 1376 -83 
Q 909 -83 563 192 
Q 205 486 205 941 
Q 205 1510 781 1779 
Q 992 1882 1341 1958 
Q 1690 2035 2176 2099 
L 2483 2131 
Q 2483 2579 2256 2832 
Q 2029 3085 1587 3085 
Q 1421 3085 1257 3043 
Q 1094 3002 928 2912 
Q 838 2861 729 2790 
Q 621 2720 493 2611 
L 493 3136 
Q 1037 3501 1664 3501 
Q 2304 3501 2650 3098 
Q 2950 2746 2950 2214 
z
M 2483 1542 
L 2483 1747 
L 2266 1722 
Q 1466 1638 1139 1498 
Q 704 1325 704 934 
Q 704 819 755 713 
Q 806 608 896 525 
Q 986 442 1117 390 
Q 1248 339 1408 339 
Q 1843 339 2170 691 
Q 2483 1050 2483 1542 
z
" transform="scale(0.015625)"/>
       <path id="AppleGothic-65" d="M 3296 1850 
L 691 1850 
Q 691 1114 1033 726 
Q 1376 339 1933 339 
Q 2355 339 2746 608 
Q 2854 678 2976 784 
Q 3098 890 3238 1030 
L 3238 474 
Q 3085 358 2953 272 
Q 2822 186 2707 128 
Q 2304 -83 1901 -83 
Q 1203 -83 717 397 
Q 192 902 192 1709 
Q 192 2470 666 2982 
Q 1146 3501 1850 3501 
Q 2534 3501 2938 3002 
Q 3296 2547 3296 1850 
z
M 755 2240 
L 2758 2240 
Q 2682 2675 2429 2889 
Q 2176 3104 1818 3104 
Q 1421 3104 1146 2854 
Q 890 2624 755 2240 
z
" transform="scale(0.015625)"/>
       <path id="AppleGothic-20" transform="scale(0.015625)"/>
       <path id="AppleGothic-28" d="M 2227 5261 
L 2650 5261 
Q 2342 4768 2169 4473 
Q 1997 4179 1958 4083 
Q 1606 3283 1606 2272 
Q 1606 1587 1754 1018 
Q 1882 570 2138 102 
Q 2150 70 2275 -131 
Q 2400 -333 2630 -717 
L 2227 -717 
Q 2099 -531 1980 -355 
Q 1862 -179 1734 0 
Q 1581 243 1469 483 
Q 1357 723 1274 954 
Q 1069 1587 1069 2272 
Q 1069 2963 1261 3558 
Q 1338 3789 1450 4022 
Q 1562 4256 1715 4499 
Q 1843 4691 1971 4880 
Q 2099 5069 2227 5261 
z
" transform="scale(0.015625)"/>
       <path id="AppleGothic-c8fc" d="M 5984 1850 
L 3482 1850 
L 3501 -570 
L 3008 -602 
Q 3014 -480 3014 -345 
Q 3014 -211 3014 -58 
Q 3021 90 3021 211 
Q 3021 333 3021 422 
L 3027 1850 
L 1837 1824 
L 410 1811 
L 410 2214 
Q 518 2208 649 2208 
Q 781 2208 947 2202 
L 1536 2202 
L 3232 2214 
Q 3821 2214 4256 2217 
Q 4691 2221 4986 2227 
Q 5581 2246 5984 2266 
L 5984 1850 
z
M 5562 3123 
Q 5562 3104 5485 3056 
Q 5408 3008 5382 2976 
L 5229 2790 
Q 5062 2822 4928 2857 
Q 4794 2893 4678 2938 
Q 4499 3008 4320 3104 
Q 4141 3200 3955 3328 
Q 3629 3539 3392 3853 
Q 3219 4134 3213 4134 
Q 3187 4083 3168 4041 
Q 3149 4000 3130 3968 
Q 2880 3552 2381 3245 
Q 2182 3117 1971 3024 
Q 1760 2931 1536 2861 
Q 1466 2835 1370 2816 
Q 1274 2797 1165 2778 
L 1005 2938 
Q 973 2970 896 3027 
Q 806 3085 806 3098 
Q 813 3123 832 3123 
Q 928 3136 1014 3145 
Q 1101 3155 1171 3168 
Q 1978 3334 2470 3789 
Q 2746 4026 2886 4365 
Q 2931 4454 2982 4646 
L 2048 4627 
L 1030 4627 
L 1030 5005 
Q 1101 5005 1251 5001 
Q 1402 4998 1645 4992 
Q 1888 4986 2080 4986 
Q 2272 4986 2406 4986 
L 5293 5030 
L 5293 4653 
L 4403 4659 
L 3450 4646 
Q 3456 4570 3469 4512 
Q 3571 4192 3955 3827 
Q 4346 3462 4973 3270 
Q 5082 3238 5219 3209 
Q 5357 3181 5530 3149 
L 5562 3123 
z
" transform="scale(0.015625)"/>
       <path id="AppleGothic-c774" d="M 3226 2534 
Q 3226 3309 2899 3725 
Q 2611 4090 2157 4090 
Q 1683 4090 1414 3690 
Q 1146 3290 1146 2534 
Q 1146 1811 1440 1382 
Q 1741 954 2240 954 
Q 2758 954 3021 1446 
Q 3226 1856 3226 2534 
z
M 5446 5082 
Q 5446 5062 5427 4982 
Q 5408 4902 5408 4832 
L 5434 -538 
L 4941 -589 
L 4960 2259 
Q 4960 3552 4941 4070 
Q 4934 4326 4931 4604 
Q 4928 4883 4915 5190 
L 5094 5197 
Q 5242 5197 5344 5174 
Q 5446 5152 5446 5082 
z
M 3686 2547 
Q 3686 2125 3612 1785 
Q 3539 1446 3379 1203 
Q 2995 582 2176 582 
Q 1408 582 1018 1203 
Q 678 1734 678 2560 
Q 678 3379 1050 3898 
Q 1453 4461 2170 4461 
Q 2912 4461 3309 3910 
Q 3686 3411 3686 2547 
z
" transform="scale(0.015625)"/>
       <path id="AppleGothic-b984" d="M 4691 13 
L 4691 1056 
L 3533 1062 
L 1811 1050 
L 1811 6 
L 3290 -13 
Q 3827 -13 4150 -6 
Q 4474 0 4691 13 
z
M 5158 -480 
L 4685 -493 
L 4685 -320 
L 3264 -314 
L 1811 -326 
L 1811 -486 
L 1363 -506 
L 1395 378 
L 1395 1382 
L 3270 1370 
Q 3955 1370 4393 1376 
Q 4832 1382 5133 1395 
L 5126 710 
L 5158 -480 
z
M 5997 1965 
Q 5786 1971 5456 1971 
Q 5126 1971 4685 1978 
Q 4243 1984 3875 1984 
Q 3507 1984 3213 1984 
Q 2771 1984 2444 1984 
Q 2118 1984 1888 1978 
Q 1664 1978 1443 1971 
Q 1222 1965 1024 1961 
Q 826 1958 666 1952 
Q 506 1946 403 1946 
L 403 2291 
Q 410 2291 515 2288 
Q 621 2285 826 2278 
Q 1037 2278 1273 2275 
Q 1510 2272 1798 2269 
Q 2086 2266 2432 2266 
Q 2778 2266 3200 2266 
Q 3718 2266 4214 2272 
Q 4710 2278 5190 2291 
Q 5517 2298 5997 2330 
L 5997 1965 
z
M 5133 2803 
Q 4947 2810 4736 2810 
Q 4525 2810 4282 2810 
Q 4038 2816 3843 2816 
Q 3648 2816 3501 2816 
L 1286 2803 
L 1306 3443 
Q 1306 3578 1306 3670 
Q 1306 3763 1302 3833 
Q 1299 3904 1296 3955 
Q 1293 4006 1286 4064 
Q 1395 4058 1548 4058 
Q 1702 4058 1914 4051 
Q 2125 4045 2304 4045 
Q 2483 4045 2630 4045 
L 4640 4045 
L 4640 4634 
L 3226 4640 
Q 2605 4640 2131 4627 
Q 1658 4614 1299 4602 
L 1299 4947 
L 3590 4941 
L 4518 4941 
Q 4806 4947 5056 4960 
L 5043 4403 
L 5056 3738 
L 4019 3750 
Q 3872 3750 3673 3747 
Q 3475 3744 3232 3738 
L 1760 3738 
L 1760 3117 
L 3507 3117 
Q 3859 3117 4192 3126 
Q 4525 3136 4851 3149 
Q 4960 3149 5133 3168 
L 5133 2803 
z
" transform="scale(0.015625)"/>
       <path id="AppleGothic-c57d" d="M 3117 3462 
Q 3117 3866 2835 4093 
Q 2554 4320 2074 4320 
Q 1645 4320 1370 4141 
Q 1011 3930 1011 3482 
Q 1011 3104 1350 2861 
Q 1664 2656 2099 2656 
Q 2522 2656 2803 2848 
Q 3117 3078 3117 3462 
z
M 5146 -506 
L 4666 -531 
Q 4666 -474 4669 -394 
Q 4672 -314 4675 -224 
Q 4678 -134 4681 -41 
Q 4685 51 4685 128 
L 4685 1178 
L 3187 1184 
L 1293 1171 
L 1293 1542 
Q 1536 1530 1872 1523 
Q 2208 1517 2662 1517 
L 5146 1523 
Q 5139 1357 5136 1104 
Q 5133 851 5133 397 
L 5146 -506 
z
M 3552 3469 
Q 3552 2925 3104 2605 
Q 2688 2304 2080 2304 
Q 1459 2304 1018 2630 
Q 582 2950 582 3482 
Q 582 4006 941 4326 
Q 1338 4678 2061 4678 
Q 2790 4678 3187 4307 
Q 3552 3968 3552 3469 
z
M 6080 2483 
L 5568 2496 
Q 5434 2496 5322 2489 
Q 5210 2483 5120 2470 
L 5126 1882 
L 4666 1869 
Q 4666 1971 4675 2291 
Q 4685 2611 4685 3117 
L 4685 3565 
Q 4685 4000 4681 4288 
Q 4678 4576 4672 4723 
Q 4666 4877 4662 4992 
Q 4659 5107 4646 5190 
Q 4813 5190 4986 5171 
Q 5171 5152 5171 5094 
Q 5171 5075 5139 4995 
Q 5107 4915 5107 4845 
L 5101 4442 
L 5120 4006 
L 5574 3994 
L 6074 4006 
L 6074 3622 
L 5581 3635 
Q 5434 3635 5318 3628 
Q 5203 3622 5114 3610 
L 5114 2854 
Q 5146 2854 5203 2851 
Q 5261 2848 5350 2842 
Q 5440 2835 5494 2835 
Q 5549 2835 5562 2835 
Q 5734 2835 5872 2844 
Q 6010 2854 6080 2867 
L 6080 2483 
z
" transform="scale(0.015625)"/>
       <path id="AppleGothic-c790" d="M 6010 2067 
L 5139 2067 
L 5126 1037 
L 5139 -531 
L 4653 -531 
L 4672 4717 
Q 4672 4960 4665 5056 
Q 4659 5152 4646 5190 
L 4832 5197 
Q 4966 5197 5078 5174 
Q 5190 5152 5190 5101 
Q 5190 5075 5164 4998 
Q 5139 4922 5139 4883 
L 5126 3968 
L 5139 2470 
L 6010 2483 
L 6010 2067 
z
M 4218 1158 
Q 4211 1120 4195 1107 
Q 4179 1094 4144 1072 
Q 4109 1050 4057 1008 
Q 4006 966 3930 883 
Q 3923 870 3885 832 
Q 3814 877 3760 909 
Q 3706 941 3661 973 
Q 3392 1158 3174 1369 
Q 2957 1581 2790 1818 
Q 2720 1914 2643 2045 
Q 2566 2176 2477 2349 
Q 2445 2406 2406 2486 
Q 2368 2566 2317 2662 
Q 2285 2592 2259 2534 
Q 2234 2477 2208 2426 
Q 2061 2157 1901 1926 
Q 1741 1696 1568 1510 
Q 1446 1382 1289 1235 
Q 1133 1088 928 922 
Q 858 864 736 768 
Q 685 819 666 832 
Q 582 915 531 934 
Q 326 1011 326 1050 
Q 326 1056 358 1088 
Q 371 1101 387 1110 
Q 403 1120 416 1133 
Q 538 1222 627 1292 
Q 717 1363 787 1414 
Q 1197 1741 1402 2003 
Q 1766 2458 1942 2922 
Q 2118 3386 2118 3936 
L 2106 4218 
L 1568 4224 
L 646 4198 
L 646 4640 
Q 960 4627 1347 4620 
Q 1734 4614 2144 4614 
L 2330 4614 
Q 2803 4614 3212 4627 
Q 3622 4640 4000 4659 
L 4000 4230 
L 3296 4237 
L 2592 4218 
Q 2579 4122 2576 4042 
Q 2573 3962 2566 3898 
Q 2554 3712 2547 3561 
Q 2541 3411 2541 3296 
Q 2592 2995 2778 2656 
Q 2861 2502 2969 2342 
Q 3078 2182 3213 2003 
Q 3334 1850 3472 1715 
Q 3610 1581 3757 1466 
Q 3808 1434 3872 1389 
Q 3936 1344 4019 1293 
Q 4026 1286 4128 1235 
Q 4218 1184 4218 1158 
z
" transform="scale(0.015625)"/>
       <path id="AppleGothic-29" d="M 2221 2272 
Q 2221 1587 2016 960 
Q 1862 499 1555 6 
Q 1427 -179 1305 -355 
Q 1184 -531 1062 -717 
L 659 -717 
Q 781 -512 902 -310 
Q 1024 -109 1152 96 
Q 1280 333 1376 557 
Q 1472 781 1530 1005 
Q 1683 1562 1683 2272 
Q 1683 2650 1641 2973 
Q 1600 3296 1517 3584 
Q 1459 3802 1356 4029 
Q 1254 4256 1120 4499 
Q 992 4691 873 4880 
Q 755 5069 640 5261 
L 1062 5261 
Q 1190 5069 1315 4880 
Q 1440 4691 1568 4506 
Q 1722 4256 1837 4022 
Q 1952 3789 2022 3565 
Q 2221 2976 2221 2272 
z
" transform="scale(0.015625)"/>
      </defs>
      <use xlink:href="#AppleGothic-53"/>
      <use xlink:href="#AppleGothic-74" transform="translate(63.199997 0)"/>
      <use xlink:href="#AppleGothic-61" transform="translate(97.399994 0)"/>
      <use xlink:href="#AppleGothic-74" transform="translate(153.899979 0)"/>
      <use xlink:href="#AppleGothic-65" transform="translate(188.099976 0)"/>
      <use xlink:href="#AppleGothic-20" transform="translate(242.999969 0)"/>
      <use xlink:href="#AppleGothic-28" transform="translate(274.999954 0)"/>
      <use xlink:href="#AppleGothic-c8fc" transform="translate(324.999939 0)"/>
      <use xlink:href="#AppleGothic-20" transform="translate(424.999924 0)"/>
      <use xlink:href="#AppleGothic-c774" transform="translate(456.999908 0)"/>
      <use xlink:href="#AppleGothic-b984" transform="translate(556.999893 0)"/>
      <use xlink:href="#AppleGothic-20" transform="translate(656.999878 0)"/>
      <use xlink:href="#AppleGothic-c57d" transform="translate(688.999863 0)"/>
      <use xlink:href="#AppleGothic-c790" transform="translate(788.999847 0)"/>
      <use xlink:href="#AppleGothic-29" transform="translate(888.999832 0)"/>
     </g>
    </g>
   </g>
   <g id="matplotlib.axis_2">
    <g id="ytick_1">
     <g id="line2d_52">
      <defs>
       <path id="m58b337222c" d="M 0 0 
L -6 0 
" style="stroke: #262626; stroke-width: 1.25"/>
      </defs>
      <g>
       <use xlink:href="#m58b337222c" x="47.133125" y="355.24875" style="fill: #262626; stroke: #262626; stroke-width: 1.25"/>
      </g>
     </g>
     <g id="text_53">
      <!-- 0 -->
      <g style="fill: #262626" transform="translate(30.153125 359.561094) scale(0.11 -0.11)">
       <defs>
        <path id="AppleGothic-30" d="M 2227 -83 
Q 1414 -83 934 576 
Q 461 1229 461 2387 
Q 461 3552 973 4218 
Q 1453 4858 2221 4858 
Q 3027 4858 3482 4173 
Q 3955 3494 3955 2394 
Q 3955 1248 3462 582 
Q 2976 -83 2227 -83 
z
M 2176 346 
Q 2861 346 3200 992 
Q 3462 1536 3462 2400 
Q 3462 3315 3162 3859 
Q 2822 4429 2214 4429 
Q 1574 4429 1248 3821 
Q 960 3283 960 2374 
Q 960 1478 1248 941 
Q 1574 346 2176 346 
z
" transform="scale(0.015625)"/>
       </defs>
       <use xlink:href="#AppleGothic-30"/>
      </g>
     </g>
    </g>
    <g id="ytick_2">
     <g id="line2d_53">
      <g>
       <use xlink:href="#m58b337222c" x="47.133125" y="288.972599" style="fill: #262626; stroke: #262626; stroke-width: 1.25"/>
      </g>
     </g>
     <g id="text_54">
      <!-- 5 -->
      <g style="fill: #262626" transform="translate(30.153125 293.284943) scale(0.11 -0.11)">
       <defs>
        <path id="AppleGothic-35" d="M 621 4768 
L 3488 4768 
L 3488 4339 
L 1088 4339 
L 1088 2707 
Q 1184 2771 1293 2819 
Q 1402 2867 1510 2912 
Q 1862 3040 2259 3040 
Q 2989 3040 3424 2605 
Q 3827 2202 3827 1581 
Q 3827 870 3296 397 
Q 2765 -83 2010 -83 
Q 1651 -83 1248 45 
Q 1158 77 1001 137 
Q 845 198 621 301 
L 621 838 
Q 928 640 1203 525 
Q 1408 435 1613 390 
Q 1818 346 2010 346 
Q 2528 346 2906 666 
Q 3322 1011 3322 1536 
Q 3322 1990 3021 2291 
Q 2701 2611 2144 2611 
Q 1856 2611 1587 2528 
Q 1318 2445 1088 2272 
L 621 2272 
L 621 4768 
z
" transform="scale(0.015625)"/>
       </defs>
       <use xlink:href="#AppleGothic-35"/>
      </g>
     </g>
    </g>
    <g id="ytick_3">
     <g id="line2d_54">
      <g>
       <use xlink:href="#m58b337222c" x="47.133125" y="222.696449" style="fill: #262626; stroke: #262626; stroke-width: 1.25"/>
      </g>
     </g>
     <g id="text_55">
      <!-- 10 -->
      <g style="fill: #262626" transform="translate(22.673125 227.008792) scale(0.11 -0.11)">
       <defs>
        <path id="AppleGothic-31" d="M 2342 4774 
L 2752 4774 
L 2752 0 
L 2285 0 
L 2285 3526 
L 1158 3526 
L 1158 3885 
L 1414 3885 
Q 1990 3885 2214 4205 
Q 2342 4410 2342 4774 
z
" transform="scale(0.015625)"/>
       </defs>
       <use xlink:href="#AppleGothic-31"/>
       <use xlink:href="#AppleGothic-30" transform="translate(67.999985 0)"/>
      </g>
     </g>
    </g>
    <g id="ytick_4">
     <g id="line2d_55">
      <g>
       <use xlink:href="#m58b337222c" x="47.133125" y="156.420298" style="fill: #262626; stroke: #262626; stroke-width: 1.25"/>
      </g>
     </g>
     <g id="text_56">
      <!-- 15 -->
      <g style="fill: #262626" transform="translate(22.673125 160.732642) scale(0.11 -0.11)">
       <use xlink:href="#AppleGothic-31"/>
       <use xlink:href="#AppleGothic-35" transform="translate(67.999985 0)"/>
      </g>
     </g>
    </g>
    <g id="ytick_5">
     <g id="line2d_56">
      <g>
       <use xlink:href="#m58b337222c" x="47.133125" y="90.144147" style="fill: #262626; stroke: #262626; stroke-width: 1.25"/>
      </g>
     </g>
     <g id="text_57">
      <!-- 20 -->
      <g style="fill: #262626" transform="translate(22.673125 94.456491) scale(0.11 -0.11)">
       <defs>
        <path id="AppleGothic-32" d="M 1101 429 
L 3942 429 
L 3942 0 
L 653 0 
L 653 205 
Q 653 1018 1344 1664 
Q 1670 1894 1990 2124 
Q 2310 2355 2637 2592 
Q 3334 3098 3334 3597 
Q 3334 3994 3014 4218 
Q 2867 4326 2694 4377 
Q 2522 4429 2317 4429 
Q 2016 4429 1741 4352 
Q 1325 4224 883 3910 
L 883 4435 
Q 1325 4659 1667 4758 
Q 2010 4858 2317 4858 
Q 2963 4858 3405 4525 
Q 3840 4198 3840 3622 
Q 3840 2995 3168 2438 
Q 2848 2214 2531 2000 
Q 2214 1786 1894 1562 
Q 1178 1024 1101 429 
z
" transform="scale(0.015625)"/>
       </defs>
       <use xlink:href="#AppleGothic-32"/>
       <use xlink:href="#AppleGothic-30" transform="translate(67.999985 0)"/>
      </g>
     </g>
    </g>
    <g id="ytick_6">
     <g id="line2d_57">
      <g>
       <use xlink:href="#m58b337222c" x="47.133125" y="23.867997" style="fill: #262626; stroke: #262626; stroke-width: 1.25"/>
      </g>
     </g>
     <g id="text_58">
      <!-- 25 -->
      <g style="fill: #262626" transform="translate(22.673125 28.180341) scale(0.11 -0.11)">
       <use xlink:href="#AppleGothic-32"/>
       <use xlink:href="#AppleGothic-35" transform="translate(67.999985 0)"/>
      </g>
     </g>
    </g>
    <g id="text_59">
     <!-- 총 사망자 수 (Total) -->
     <g style="fill: #262626" transform="translate(16.60875 244.596562) rotate(-90) scale(0.12 -0.12)">
      <defs>
       <path id="AppleGothic-cd1d" d="M 4883 333 
Q 4883 646 4422 794 
Q 4198 870 3913 905 
Q 3629 941 3277 941 
L 3142 941 
Q 2810 941 2554 915 
Q 2298 890 2112 832 
Q 1632 678 1632 339 
Q 1632 70 2131 -64 
Q 2349 -115 2640 -144 
Q 2931 -173 3309 -173 
Q 4122 -173 4502 -35 
Q 4883 102 4883 333 
z
M 5338 339 
Q 5338 -147 4678 -365 
Q 4166 -538 3322 -538 
Q 2368 -538 1811 -346 
Q 1165 -115 1165 339 
Q 1165 570 1309 746 
Q 1453 922 1728 1040 
Q 2003 1158 2393 1216 
Q 2784 1274 3283 1274 
Q 4179 1274 4717 1056 
Q 5338 806 5338 339 
z
M 5997 1805 
Q 5888 1811 5798 1811 
Q 5709 1811 5638 1811 
Q 5056 1824 4595 1833 
Q 4134 1843 3782 1843 
L 3283 1843 
Q 2778 1843 2288 1833 
Q 1798 1824 1299 1811 
Q 966 1805 442 1773 
L 442 2182 
Q 512 2176 569 2173 
Q 627 2170 678 2170 
Q 986 2157 1280 2147 
Q 1574 2138 1862 2138 
Q 2246 2138 2518 2144 
Q 2790 2150 3034 2170 
L 3040 2592 
L 3027 2854 
Q 3027 2906 3066 2906 
Q 3123 2899 3206 2889 
Q 3290 2880 3418 2880 
Q 3520 2880 3520 2810 
Q 3520 2790 3504 2704 
Q 3488 2618 3488 2579 
L 3488 2157 
L 4883 2157 
Q 5120 2157 5293 2157 
Q 5466 2157 5581 2163 
Q 5696 2170 5801 2173 
Q 5907 2176 5997 2189 
L 5997 1805 
z
M 5542 2976 
L 5286 2637 
Q 5222 2643 5168 2649 
Q 5114 2656 5062 2669 
Q 4794 2720 4538 2819 
Q 4282 2918 4019 3066 
Q 3686 3270 3360 3597 
Q 3309 3648 3232 3744 
Q 3181 3674 3139 3619 
Q 3098 3565 3059 3520 
Q 2931 3379 2780 3257 
Q 2630 3136 2445 3027 
Q 2131 2835 1587 2688 
Q 1498 2662 1386 2640 
Q 1274 2618 1126 2592 
Q 1120 2605 1113 2617 
Q 1107 2630 1101 2643 
Q 1088 2662 1062 2694 
Q 1037 2726 998 2778 
L 934 2842 
Q 864 2912 864 2938 
Q 890 2976 902 2976 
Q 1498 2976 2061 3213 
Q 2707 3482 2950 3981 
L 2125 3987 
L 1120 3974 
L 1120 4333 
Q 1325 4326 1584 4320 
Q 1843 4314 2170 4307 
Q 2496 4301 2774 4301 
Q 3053 4301 3277 4301 
Q 3930 4301 4435 4313 
Q 4941 4326 5331 4339 
L 5331 3981 
L 4454 4006 
L 4282 4006 
Q 3981 4006 3814 4003 
Q 3648 4000 3488 3987 
Q 3539 3917 3584 3859 
Q 3629 3802 3680 3750 
Q 3770 3667 3866 3590 
Q 3962 3514 4083 3437 
Q 4461 3200 5018 3078 
Q 5114 3066 5235 3046 
Q 5357 3027 5504 3014 
Q 5510 3008 5516 3005 
Q 5523 3002 5530 2995 
Q 5536 2989 5536 2985 
Q 5536 2982 5542 2976 
z
M 3910 4845 
L 3206 4851 
L 2496 4838 
L 2496 5171 
L 3174 5158 
Q 3328 5158 3533 5164 
Q 3738 5171 3910 5184 
L 3910 4845 
z
" transform="scale(0.015625)"/>
       <path id="AppleGothic-c0ac" d="M 6093 2061 
L 5139 2061 
L 5133 1024 
Q 5133 640 5139 240 
Q 5146 -160 5158 -493 
L 4685 -538 
Q 4685 -397 4685 -73 
Q 4685 250 4691 755 
Q 4698 1274 4701 1651 
Q 4704 2029 4704 2285 
Q 4704 2874 4697 3478 
Q 4691 4083 4685 4704 
Q 4685 4877 4675 4992 
Q 4666 5107 4653 5190 
Q 4877 5190 5037 5158 
Q 5197 5126 5197 5069 
Q 5152 4954 5152 4870 
L 5133 3955 
L 5139 2477 
L 6093 2477 
L 6093 2061 
z
M 3923 1331 
Q 3917 1312 3898 1293 
Q 3878 1267 3852 1244 
Q 3827 1222 3782 1197 
L 3584 1018 
Q 3533 1050 3491 1078 
Q 3450 1107 3418 1133 
Q 3014 1446 2675 1946 
Q 2605 2042 2541 2170 
Q 2477 2298 2406 2451 
Q 2336 2605 2291 2736 
Q 2246 2867 2221 2976 
Q 2106 2438 1581 1786 
Q 1312 1466 1059 1245 
Q 806 1024 544 896 
Q 518 909 476 941 
Q 435 973 371 1030 
Q 211 1165 211 1184 
Q 250 1222 256 1235 
Q 301 1235 557 1421 
Q 922 1683 1203 2010 
Q 1606 2477 1818 3078 
Q 1933 3405 1993 3830 
Q 2054 4256 2054 4640 
Q 2106 4640 2186 4630 
Q 2266 4621 2368 4595 
Q 2573 4550 2573 4486 
Q 2560 4454 2521 4361 
Q 2483 4269 2490 4173 
L 2432 3750 
Q 2458 3648 2474 3574 
Q 2490 3501 2502 3437 
Q 2598 3053 2829 2547 
Q 3072 2061 3494 1677 
Q 3565 1613 3657 1539 
Q 3750 1466 3872 1389 
Q 3885 1376 3897 1360 
Q 3910 1344 3923 1331 
z
" transform="scale(0.015625)"/>
       <path id="AppleGothic-b9dd" d="M 4826 531 
Q 4826 870 4448 1014 
Q 4070 1158 3302 1158 
Q 2490 1158 2144 1008 
Q 1798 858 1798 544 
Q 1798 51 2643 -90 
Q 2810 -122 2973 -131 
Q 3136 -141 3302 -141 
Q 4006 -141 4390 19 
Q 4826 192 4826 531 
z
M 2931 2477 
L 2931 4282 
L 2342 4294 
L 1178 4282 
L 1178 2470 
L 2035 2458 
L 2931 2477 
z
M 5325 531 
Q 5325 51 4790 -221 
Q 4256 -493 3302 -493 
Q 2477 -493 1933 -250 
Q 1312 19 1312 531 
Q 1312 1114 1958 1344 
Q 2195 1434 2531 1475 
Q 2867 1517 3309 1517 
Q 4288 1517 4806 1270 
Q 5325 1024 5325 531 
z
M 3386 2048 
L 2208 2054 
L 736 2042 
L 755 3270 
L 736 4717 
Q 806 4717 947 4713 
Q 1088 4710 1312 4704 
Q 1536 4698 1677 4698 
Q 1818 4698 1882 4698 
L 3386 4717 
L 3366 3206 
Q 3366 2790 3372 2521 
Q 3379 2253 3386 2048 
z
M 6061 2970 
L 5133 2995 
L 5133 2746 
Q 5133 2362 5152 1875 
Q 5152 1824 5155 1766 
Q 5158 1709 5165 1638 
L 4672 1613 
L 4698 3680 
Q 4698 3987 4694 4220 
Q 4691 4454 4685 4621 
Q 4678 4787 4672 4924 
Q 4666 5062 4659 5190 
L 4755 5190 
Q 4922 5190 5059 5164 
Q 5197 5139 5197 5075 
Q 5197 5050 5171 4957 
Q 5146 4864 5146 4787 
L 5133 3386 
L 6061 3398 
L 6061 2970 
z
" transform="scale(0.015625)"/>
       <path id="AppleGothic-c218" d="M 6022 1952 
L 3411 1952 
L 3424 896 
L 3462 -582 
L 2982 -582 
L 2982 1952 
Q 2912 1952 2774 1949 
Q 2637 1946 2419 1939 
Q 2208 1933 2086 1933 
Q 1965 1933 1933 1933 
L 378 1894 
L 378 2304 
L 3206 2298 
Q 3706 2298 4202 2307 
Q 4698 2317 5184 2330 
Q 5536 2342 6022 2368 
L 6022 1952 
z
M 5792 3482 
Q 5792 3450 5747 3402 
Q 5702 3354 5658 3315 
L 5523 3117 
Q 5453 3123 5395 3126 
Q 5338 3130 5286 3142 
Q 4685 3251 4090 3610 
Q 3699 3846 3411 4250 
Q 3360 4320 3312 4409 
Q 3264 4499 3206 4621 
Q 3149 4512 3097 4422 
Q 3046 4333 2995 4262 
Q 2688 3846 2208 3552 
Q 2054 3450 1875 3370 
Q 1696 3290 1498 3219 
Q 1382 3181 1232 3142 
Q 1082 3104 896 3072 
Q 896 3072 873 3101 
Q 851 3130 828 3162 
Q 806 3194 780 3226 
Q 755 3258 749 3270 
Q 736 3290 678 3347 
Q 621 3405 621 3424 
L 640 3443 
Q 730 3450 810 3453 
Q 890 3456 954 3469 
Q 1338 3526 1674 3676 
Q 2010 3827 2298 4077 
Q 2605 4326 2790 4659 
Q 2842 4755 2886 4880 
Q 2931 5005 2970 5171 
L 3411 5133 
Q 3475 5133 3475 5075 
Q 3475 5056 3472 5037 
Q 3469 5018 3462 4992 
Q 3462 4973 3443 4947 
Q 3482 4832 3520 4755 
Q 3738 4301 4230 3974 
Q 4659 3686 5261 3571 
Q 5363 3552 5488 3536 
Q 5613 3520 5766 3507 
Q 5786 3507 5792 3482 
z
" transform="scale(0.015625)"/>
       <path id="AppleGothic-6f" d="M 1888 -83 
Q 1229 -83 730 397 
Q 198 902 198 1709 
Q 198 2470 666 2982 
Q 1146 3501 1850 3501 
Q 2547 3501 3027 2982 
Q 3501 2470 3501 1715 
Q 3501 922 2989 403 
Q 2515 -83 1888 -83 
z
M 1843 339 
Q 2304 339 2662 723 
Q 3008 1114 3008 1715 
Q 3008 2336 2637 2726 
Q 2298 3085 1850 3085 
Q 1389 3085 1062 2714 
Q 704 2304 704 1709 
Q 704 1107 1056 704 
Q 1382 339 1843 339 
z
" transform="scale(0.015625)"/>
       <path id="AppleGothic-6c" d="M 288 5018 
L 749 5018 
L 749 0 
L 288 0 
L 288 5018 
z
" transform="scale(0.015625)"/>
      </defs>
      <use xlink:href="#AppleGothic-cd1d"/>
      <use xlink:href="#AppleGothic-20" transform="translate(99.999985 0)"/>
      <use xlink:href="#AppleGothic-c0ac" transform="translate(131.999969 0)"/>
      <use xlink:href="#AppleGothic-b9dd" transform="translate(231.999954 0)"/>
      <use xlink:href="#AppleGothic-c790" transform="translate(331.999939 0)"/>
      <use xlink:href="#AppleGothic-20" transform="translate(431.999924 0)"/>
      <use xlink:href="#AppleGothic-c218" transform="translate(463.999908 0)"/>
      <use xlink:href="#AppleGothic-20" transform="translate(563.999893 0)"/>
      <use xlink:href="#AppleGothic-28" transform="translate(595.999878 0)"/>
      <use xlink:href="#AppleGothic-54" transform="translate(645.999863 0)"/>
      <use xlink:href="#AppleGothic-6f" transform="translate(712.099854 0)"/>
      <use xlink:href="#AppleGothic-74" transform="translate(770.399841 0)"/>
      <use xlink:href="#AppleGothic-61" transform="translate(804.599838 0)"/>
      <use xlink:href="#AppleGothic-6c" transform="translate(861.099823 0)"/>
      <use xlink:href="#AppleGothic-29" transform="translate(877.79982 0)"/>
     </g>
    </g>
   </g>
   <g id="patch_3">
    <path d="M 48.774301 355.24875 
L 61.903713 355.24875 
L 61.903713 38.44875 
L 48.774301 38.44875 
z
" clip-path="url(#p4312dde0a3)" style="fill: #610f19; stroke: #ffffff; stroke-linejoin: miter"/>
   </g>
   <g id="patch_4">
    <path d="M 65.186066 355.24875 
L 78.315478 355.24875 
L 78.315478 38.44875 
L 65.186066 38.44875 
z
" clip-path="url(#p4312dde0a3)" style="fill: #6a131b; stroke: #ffffff; stroke-linejoin: miter"/>
   </g>
   <g id="patch_5">
    <path d="M 81.597831 355.24875 
L 94.727243 355.24875 
L 94.727243 39.774273 
L 81.597831 39.774273 
z
" clip-path="url(#p4312dde0a3)" style="fill: #73161d; stroke: #ffffff; stroke-linejoin: miter"/>
   </g>
   <g id="patch_6">
    <path d="M 98.009596 355.24875 
L 111.139007 355.24875 
L 111.139007 58.331595 
L 98.009596 58.331595 
z
" clip-path="url(#p4312dde0a3)" style="fill: #7c1920; stroke: #ffffff; stroke-linejoin: miter"/>
   </g>
   <g id="patch_7">
    <path d="M 114.42136 355.24875 
L 127.550772 355.24875 
L 127.550772 71.586825 
L 114.42136 71.586825 
z
" clip-path="url(#p4312dde0a3)" style="fill: #841d22; stroke: #ffffff; stroke-linejoin: miter"/>
   </g>
   <g id="patch_8">
    <path d="M 130.833125 355.24875 
L 143.962537 355.24875 
L 143.962537 71.586825 
L 130.833125 71.586825 
z
" clip-path="url(#p4312dde0a3)" style="fill: #8d2025; stroke: #ffffff; stroke-linejoin: miter"/>
   </g>
   <g id="patch_9">
    <path d="M 147.24489 355.24875 
L 160.374301 355.24875 
L 160.374301 83.516532 
L 147.24489 83.516532 
z
" clip-path="url(#p4312dde0a3)" style="fill: #952327; stroke: #ffffff; stroke-linejoin: miter"/>
   </g>
   <g id="patch_10">
    <path d="M 163.656654 355.24875 
L 176.786066 355.24875 
L 176.786066 91.469671 
L 163.656654 91.469671 
z
" clip-path="url(#p4312dde0a3)" style="fill: #9a2529; stroke: #ffffff; stroke-linejoin: miter"/>
   </g>
   <g id="patch_11">
    <path d="M 180.068419 355.24875 
L 193.197831 355.24875 
L 193.197831 96.771763 
L 180.068419 96.771763 
z
" clip-path="url(#p4312dde0a3)" style="fill: #9f272b; stroke: #ffffff; stroke-linejoin: miter"/>
   </g>
   <g id="patch_12">
    <path d="M 196.480184 355.24875 
L 209.609596 355.24875 
L 209.609596 98.097286 
L 196.480184 98.097286 
z
" clip-path="url(#p4312dde0a3)" style="fill: #a5292d; stroke: #ffffff; stroke-linejoin: miter"/>
   </g>
   <g id="patch_13">
    <path d="M 212.891949 355.24875 
L 226.02136 355.24875 
L 226.02136 98.097286 
L 212.891949 98.097286 
z
" clip-path="url(#p4312dde0a3)" style="fill: #aa2b2e; stroke: #ffffff; stroke-linejoin: miter"/>
   </g>
   <g id="patch_14">
    <path d="M 229.303713 355.24875 
L 242.433125 355.24875 
L 242.433125 106.050424 
L 229.303713 106.050424 
z
" clip-path="url(#p4312dde0a3)" style="fill: #b02c30; stroke: #ffffff; stroke-linejoin: miter"/>
   </g>
   <g id="patch_15">
    <path d="M 245.715478 355.24875 
L 258.84489 355.24875 
L 258.84489 108.70147 
L 245.715478 108.70147 
z
" clip-path="url(#p4312dde0a3)" style="fill: #b52f32; stroke: #ffffff; stroke-linejoin: miter"/>
   </g>
   <g id="patch_16">
    <path d="M 262.127243 355.24875 
L 275.256654 355.24875 
L 275.256654 111.352516 
L 262.127243 111.352516 
z
" clip-path="url(#p4312dde0a3)" style="fill: #b93335; stroke: #ffffff; stroke-linejoin: miter"/>
   </g>
   <g id="patch_17">
    <path d="M 278.539007 355.24875 
L 291.668419 355.24875 
L 291.668419 114.003562 
L 278.539007 114.003562 
z
" clip-path="url(#p4312dde0a3)" style="fill: #bf3838; stroke: #ffffff; stroke-linejoin: miter"/>
   </g>
   <g id="patch_18">
    <path d="M 294.950772 355.24875 
L 308.080184 355.24875 
L 308.080184 115.329085 
L 294.950772 115.329085 
z
" clip-path="url(#p4312dde0a3)" style="fill: #c43e3b; stroke: #ffffff; stroke-linejoin: miter"/>
   </g>
   <g id="patch_19">
    <path d="M 311.362537 355.24875 
L 324.491949 355.24875 
L 324.491949 117.980131 
L 311.362537 117.980131 
z
" clip-path="url(#p4312dde0a3)" style="fill: #c9433d; stroke: #ffffff; stroke-linejoin: miter"/>
   </g>
   <g id="patch_20">
    <path d="M 327.774301 355.24875 
L 340.903713 355.24875 
L 340.903713 119.305654 
L 327.774301 119.305654 
z
" clip-path="url(#p4312dde0a3)" style="fill: #cf4840; stroke: #ffffff; stroke-linejoin: miter"/>
   </g>
   <g id="patch_21">
    <path d="M 344.186066 355.24875 
L 357.315478 355.24875 
L 357.315478 121.9567 
L 344.186066 121.9567 
z
" clip-path="url(#p4312dde0a3)" style="fill: #d44d43; stroke: #ffffff; stroke-linejoin: miter"/>
   </g>
   <g id="patch_22">
    <path d="M 360.597831 355.24875 
L 373.727243 355.24875 
L 373.727243 123.282223 
L 360.597831 123.282223 
z
" clip-path="url(#p4312dde0a3)" style="fill: #d85346; stroke: #ffffff; stroke-linejoin: miter"/>
   </g>
   <g id="patch_23">
    <path d="M 377.009596 355.24875 
L 390.139007 355.24875 
L 390.139007 124.607746 
L 377.009596 124.607746 
z
" clip-path="url(#p4312dde0a3)" style="fill: #da594b; stroke: #ffffff; stroke-linejoin: miter"/>
   </g>
   <g id="patch_24">
    <path d="M 393.42136 355.24875 
L 406.550772 355.24875 
L 406.550772 132.560884 
L 393.42136 132.560884 
z
" clip-path="url(#p4312dde0a3)" style="fill: #dc5f4f; stroke: #ffffff; stroke-linejoin: miter"/>
   </g>
   <g id="patch_25">
    <path d="M 409.833125 355.24875 
L 422.962537 355.24875 
L 422.962537 140.514022 
L 409.833125 140.514022 
z
" clip-path="url(#p4312dde0a3)" style="fill: #de6654; stroke: #ffffff; stroke-linejoin: miter"/>
   </g>
   <g id="patch_26">
    <path d="M 426.24489 355.24875 
L 439.374301 355.24875 
L 439.374301 141.839545 
L 426.24489 141.839545 
z
" clip-path="url(#p4312dde0a3)" style="fill: #e16c58; stroke: #ffffff; stroke-linejoin: miter"/>
   </g>
   <g id="patch_27">
    <path d="M 442.656654 355.24875 
L 455.786066 355.24875 
L 455.786066 147.141637 
L 442.656654 147.141637 
z
" clip-path="url(#p4312dde0a3)" style="fill: #e3725c; stroke: #ffffff; stroke-linejoin: miter"/>
   </g>
   <g id="patch_28">
    <path d="M 459.068419 355.24875 
L 472.197831 355.24875 
L 472.197831 148.46716 
L 459.068419 148.46716 
z
" clip-path="url(#p4312dde0a3)" style="fill: #e57961; stroke: #ffffff; stroke-linejoin: miter"/>
   </g>
   <g id="patch_29">
    <path d="M 475.480184 355.24875 
L 488.609596 355.24875 
L 488.609596 152.443729 
L 475.480184 152.443729 
z
" clip-path="url(#p4312dde0a3)" style="fill: #e67d65; stroke: #ffffff; stroke-linejoin: miter"/>
   </g>
   <g id="patch_30">
    <path d="M 491.891949 355.24875 
L 505.02136 355.24875 
L 505.02136 155.094775 
L 491.891949 155.094775 
z
" clip-path="url(#p4312dde0a3)" style="fill: #e7836b; stroke: #ffffff; stroke-linejoin: miter"/>
   </g>
   <g id="patch_31">
    <path d="M 508.303713 355.24875 
L 521.433125 355.24875 
L 521.433125 157.745821 
L 508.303713 157.745821 
z
" clip-path="url(#p4312dde0a3)" style="fill: #e88870; stroke: #ffffff; stroke-linejoin: miter"/>
   </g>
   <g id="patch_32">
    <path d="M 524.715478 355.24875 
L 537.84489 355.24875 
L 537.84489 160.396867 
L 524.715478 160.396867 
z
" clip-path="url(#p4312dde0a3)" style="fill: #e88e76; stroke: #ffffff; stroke-linejoin: miter"/>
   </g>
   <g id="patch_33">
    <path d="M 541.127243 355.24875 
L 554.256654 355.24875 
L 554.256654 163.047913 
L 541.127243 163.047913 
z
" clip-path="url(#p4312dde0a3)" style="fill: #e9937b; stroke: #ffffff; stroke-linejoin: miter"/>
   </g>
   <g id="patch_34">
    <path d="M 557.539007 355.24875 
L 570.668419 355.24875 
L 570.668419 168.350005 
L 557.539007 168.350005 
z
" clip-path="url(#p4312dde0a3)" style="fill: #ea9981; stroke: #ffffff; stroke-linejoin: miter"/>
   </g>
   <g id="patch_35">
    <path d="M 573.950772 355.24875 
L 587.080184 355.24875 
L 587.080184 168.350005 
L 573.950772 168.350005 
z
" clip-path="url(#p4312dde0a3)" style="fill: #eb9e87; stroke: #ffffff; stroke-linejoin: miter"/>
   </g>
   <g id="patch_36">
    <path d="M 590.362537 355.24875 
L 603.491949 355.24875 
L 603.491949 172.326574 
L 590.362537 172.326574 
z
" clip-path="url(#p4312dde0a3)" style="fill: #eca48d; stroke: #ffffff; stroke-linejoin: miter"/>
   </g>
   <g id="patch_37">
    <path d="M 606.774301 355.24875 
L 619.903713 355.24875 
L 619.903713 174.97762 
L 606.774301 174.97762 
z
" clip-path="url(#p4312dde0a3)" style="fill: #edaa94; stroke: #ffffff; stroke-linejoin: miter"/>
   </g>
   <g id="patch_38">
    <path d="M 623.186066 355.24875 
L 636.315478 355.24875 
L 636.315478 174.97762 
L 623.186066 174.97762 
z
" clip-path="url(#p4312dde0a3)" style="fill: #eeb09a; stroke: #ffffff; stroke-linejoin: miter"/>
   </g>
   <g id="patch_39">
    <path d="M 639.597831 355.24875 
L 652.727243 355.24875 
L 652.727243 185.581804 
L 639.597831 185.581804 
z
" clip-path="url(#p4312dde0a3)" style="fill: #efb5a0; stroke: #ffffff; stroke-linejoin: miter"/>
   </g>
   <g id="patch_40">
    <path d="M 656.009596 355.24875 
L 669.139007 355.24875 
L 669.139007 185.581804 
L 656.009596 185.581804 
z
" clip-path="url(#p4312dde0a3)" style="fill: #f0bba7; stroke: #ffffff; stroke-linejoin: miter"/>
   </g>
   <g id="patch_41">
    <path d="M 672.42136 355.24875 
L 685.550772 355.24875 
L 685.550772 186.907327 
L 672.42136 186.907327 
z
" clip-path="url(#p4312dde0a3)" style="fill: #f1c1ad; stroke: #ffffff; stroke-linejoin: miter"/>
   </g>
   <g id="patch_42">
    <path d="M 688.833125 355.24875 
L 701.962537 355.24875 
L 701.962537 189.558373 
L 688.833125 189.558373 
z
" clip-path="url(#p4312dde0a3)" style="fill: #f2c5b3; stroke: #ffffff; stroke-linejoin: miter"/>
   </g>
   <g id="patch_43">
    <path d="M 705.24489 355.24875 
L 718.374301 355.24875 
L 718.374301 192.209419 
L 705.24489 192.209419 
z
" clip-path="url(#p4312dde0a3)" style="fill: #f3caba; stroke: #ffffff; stroke-linejoin: miter"/>
   </g>
   <g id="patch_44">
    <path d="M 721.656654 355.24875 
L 734.786066 355.24875 
L 734.786066 196.185988 
L 721.656654 196.185988 
z
" clip-path="url(#p4312dde0a3)" style="fill: #f4d0c0; stroke: #ffffff; stroke-linejoin: miter"/>
   </g>
   <g id="patch_45">
    <path d="M 738.068419 355.24875 
L 751.197831 355.24875 
L 751.197831 201.488081 
L 738.068419 201.488081 
z
" clip-path="url(#p4312dde0a3)" style="fill: #f6d5c7; stroke: #ffffff; stroke-linejoin: miter"/>
   </g>
   <g id="patch_46">
    <path d="M 754.480184 355.24875 
L 767.609596 355.24875 
L 767.609596 205.46465 
L 754.480184 205.46465 
z
" clip-path="url(#p4312dde0a3)" style="fill: #f7dace; stroke: #ffffff; stroke-linejoin: miter"/>
   </g>
   <g id="patch_47">
    <path d="M 770.891949 355.24875 
L 784.02136 355.24875 
L 784.02136 206.790173 
L 770.891949 206.790173 
z
" clip-path="url(#p4312dde0a3)" style="fill: #f8e0d5; stroke: #ffffff; stroke-linejoin: miter"/>
   </g>
   <g id="patch_48">
    <path d="M 787.303713 355.24875 
L 800.433125 355.24875 
L 800.433125 208.115696 
L 787.303713 208.115696 
z
" clip-path="url(#p4312dde0a3)" style="fill: #f9e4da; stroke: #ffffff; stroke-linejoin: miter"/>
   </g>
   <g id="patch_49">
    <path d="M 803.715478 355.24875 
L 816.84489 355.24875 
L 816.84489 212.092265 
L 803.715478 212.092265 
z
" clip-path="url(#p4312dde0a3)" style="fill: #fae7de; stroke: #ffffff; stroke-linejoin: miter"/>
   </g>
   <g id="patch_50">
    <path d="M 820.127243 355.24875 
L 833.256654 355.24875 
L 833.256654 214.743311 
L 820.127243 214.743311 
z
" clip-path="url(#p4312dde0a3)" style="fill: #faeae2; stroke: #ffffff; stroke-linejoin: miter"/>
   </g>
   <g id="patch_51">
    <path d="M 836.539007 355.24875 
L 849.668419 355.24875 
L 849.668419 227.998541 
L 836.539007 227.998541 
z
" clip-path="url(#p4312dde0a3)" style="fill: #fbede6; stroke: #ffffff; stroke-linejoin: miter"/>
   </g>
   <g id="patch_52">
    <path d="M 852.950772 355.24875 
L 866.080184 355.24875 
L 866.080184 246.555863 
L 852.950772 246.555863 
z
" clip-path="url(#p4312dde0a3)" style="fill: #fcf0ea; stroke: #ffffff; stroke-linejoin: miter"/>
   </g>
   <g id="patch_53">
    <path d="M 869.362537 355.24875 
L 882.491949 355.24875 
L 882.491949 277.042892 
L 869.362537 277.042892 
z
" clip-path="url(#p4312dde0a3)" style="fill: #fdf3ef; stroke: #ffffff; stroke-linejoin: miter"/>
   </g>
   <g id="line2d_58">
    <path clip-path="url(#p4312dde0a3)" style="fill: none; stroke: #424242; stroke-width: 2.25; stroke-linecap: round"/>
   </g>
   <g id="line2d_59">
    <path clip-path="url(#p4312dde0a3)" style="fill: none; stroke: #424242; stroke-width: 2.25; stroke-linecap: round"/>
   </g>
   <g id="line2d_60">
    <path clip-path="url(#p4312dde0a3)" style="fill: none; stroke: #424242; stroke-width: 2.25; stroke-linecap: round"/>
   </g>
   <g id="line2d_61">
    <path clip-path="url(#p4312dde0a3)" style="fill: none; stroke: #424242; stroke-width: 2.25; stroke-linecap: round"/>
   </g>
   <g id="line2d_62">
    <path clip-path="url(#p4312dde0a3)" style="fill: none; stroke: #424242; stroke-width: 2.25; stroke-linecap: round"/>
   </g>
   <g id="line2d_63">
    <path clip-path="url(#p4312dde0a3)" style="fill: none; stroke: #424242; stroke-width: 2.25; stroke-linecap: round"/>
   </g>
   <g id="line2d_64">
    <path clip-path="url(#p4312dde0a3)" style="fill: none; stroke: #424242; stroke-width: 2.25; stroke-linecap: round"/>
   </g>
   <g id="line2d_65">
    <path clip-path="url(#p4312dde0a3)" style="fill: none; stroke: #424242; stroke-width: 2.25; stroke-linecap: round"/>
   </g>
   <g id="line2d_66">
    <path clip-path="url(#p4312dde0a3)" style="fill: none; stroke: #424242; stroke-width: 2.25; stroke-linecap: round"/>
   </g>
   <g id="line2d_67">
    <path clip-path="url(#p4312dde0a3)" style="fill: none; stroke: #424242; stroke-width: 2.25; stroke-linecap: round"/>
   </g>
   <g id="line2d_68">
    <path clip-path="url(#p4312dde0a3)" style="fill: none; stroke: #424242; stroke-width: 2.25; stroke-linecap: round"/>
   </g>
   <g id="line2d_69">
    <path clip-path="url(#p4312dde0a3)" style="fill: none; stroke: #424242; stroke-width: 2.25; stroke-linecap: round"/>
   </g>
   <g id="line2d_70">
    <path clip-path="url(#p4312dde0a3)" style="fill: none; stroke: #424242; stroke-width: 2.25; stroke-linecap: round"/>
   </g>
   <g id="line2d_71">
    <path clip-path="url(#p4312dde0a3)" style="fill: none; stroke: #424242; stroke-width: 2.25; stroke-linecap: round"/>
   </g>
   <g id="line2d_72">
    <path clip-path="url(#p4312dde0a3)" style="fill: none; stroke: #424242; stroke-width: 2.25; stroke-linecap: round"/>
   </g>
   <g id="line2d_73">
    <path clip-path="url(#p4312dde0a3)" style="fill: none; stroke: #424242; stroke-width: 2.25; stroke-linecap: round"/>
   </g>
   <g id="line2d_74">
    <path clip-path="url(#p4312dde0a3)" style="fill: none; stroke: #424242; stroke-width: 2.25; stroke-linecap: round"/>
   </g>
   <g id="line2d_75">
    <path clip-path="url(#p4312dde0a3)" style="fill: none; stroke: #424242; stroke-width: 2.25; stroke-linecap: round"/>
   </g>
   <g id="line2d_76">
    <path clip-path="url(#p4312dde0a3)" style="fill: none; stroke: #424242; stroke-width: 2.25; stroke-linecap: round"/>
   </g>
   <g id="line2d_77">
    <path clip-path="url(#p4312dde0a3)" style="fill: none; stroke: #424242; stroke-width: 2.25; stroke-linecap: round"/>
   </g>
   <g id="line2d_78">
    <path clip-path="url(#p4312dde0a3)" style="fill: none; stroke: #424242; stroke-width: 2.25; stroke-linecap: round"/>
   </g>
   <g id="line2d_79">
    <path clip-path="url(#p4312dde0a3)" style="fill: none; stroke: #424242; stroke-width: 2.25; stroke-linecap: round"/>
   </g>
   <g id="line2d_80">
    <path clip-path="url(#p4312dde0a3)" style="fill: none; stroke: #424242; stroke-width: 2.25; stroke-linecap: round"/>
   </g>
   <g id="line2d_81">
    <path clip-path="url(#p4312dde0a3)" style="fill: none; stroke: #424242; stroke-width: 2.25; stroke-linecap: round"/>
   </g>
   <g id="line2d_82">
    <path clip-path="url(#p4312dde0a3)" style="fill: none; stroke: #424242; stroke-width: 2.25; stroke-linecap: round"/>
   </g>
   <g id="line2d_83">
    <path clip-path="url(#p4312dde0a3)" style="fill: none; stroke: #424242; stroke-width: 2.25; stroke-linecap: round"/>
   </g>
   <g id="line2d_84">
    <path clip-path="url(#p4312dde0a3)" style="fill: none; stroke: #424242; stroke-width: 2.25; stroke-linecap: round"/>
   </g>
   <g id="line2d_85">
    <path clip-path="url(#p4312dde0a3)" style="fill: none; stroke: #424242; stroke-width: 2.25; stroke-linecap: round"/>
   </g>
   <g id="line2d_86">
    <path clip-path="url(#p4312dde0a3)" style="fill: none; stroke: #424242; stroke-width: 2.25; stroke-linecap: round"/>
   </g>
   <g id="line2d_87">
    <path clip-path="url(#p4312dde0a3)" style="fill: none; stroke: #424242; stroke-width: 2.25; stroke-linecap: round"/>
   </g>
   <g id="line2d_88">
    <path clip-path="url(#p4312dde0a3)" style="fill: none; stroke: #424242; stroke-width: 2.25; stroke-linecap: round"/>
   </g>
   <g id="line2d_89">
    <path clip-path="url(#p4312dde0a3)" style="fill: none; stroke: #424242; stroke-width: 2.25; stroke-linecap: round"/>
   </g>
   <g id="line2d_90">
    <path clip-path="url(#p4312dde0a3)" style="fill: none; stroke: #424242; stroke-width: 2.25; stroke-linecap: round"/>
   </g>
   <g id="line2d_91">
    <path clip-path="url(#p4312dde0a3)" style="fill: none; stroke: #424242; stroke-width: 2.25; stroke-linecap: round"/>
   </g>
   <g id="line2d_92">
    <path clip-path="url(#p4312dde0a3)" style="fill: none; stroke: #424242; stroke-width: 2.25; stroke-linecap: round"/>
   </g>
   <g id="line2d_93">
    <path clip-path="url(#p4312dde0a3)" style="fill: none; stroke: #424242; stroke-width: 2.25; stroke-linecap: round"/>
   </g>
   <g id="line2d_94">
    <path clip-path="url(#p4312dde0a3)" style="fill: none; stroke: #424242; stroke-width: 2.25; stroke-linecap: round"/>
   </g>
   <g id="line2d_95">
    <path clip-path="url(#p4312dde0a3)" style="fill: none; stroke: #424242; stroke-width: 2.25; stroke-linecap: round"/>
   </g>
   <g id="line2d_96">
    <path clip-path="url(#p4312dde0a3)" style="fill: none; stroke: #424242; stroke-width: 2.25; stroke-linecap: round"/>
   </g>
   <g id="line2d_97">
    <path clip-path="url(#p4312dde0a3)" style="fill: none; stroke: #424242; stroke-width: 2.25; stroke-linecap: round"/>
   </g>
   <g id="line2d_98">
    <path clip-path="url(#p4312dde0a3)" style="fill: none; stroke: #424242; stroke-width: 2.25; stroke-linecap: round"/>
   </g>
   <g id="line2d_99">
    <path clip-path="url(#p4312dde0a3)" style="fill: none; stroke: #424242; stroke-width: 2.25; stroke-linecap: round"/>
   </g>
   <g id="line2d_100">
    <path clip-path="url(#p4312dde0a3)" style="fill: none; stroke: #424242; stroke-width: 2.25; stroke-linecap: round"/>
   </g>
   <g id="line2d_101">
    <path clip-path="url(#p4312dde0a3)" style="fill: none; stroke: #424242; stroke-width: 2.25; stroke-linecap: round"/>
   </g>
   <g id="line2d_102">
    <path clip-path="url(#p4312dde0a3)" style="fill: none; stroke: #424242; stroke-width: 2.25; stroke-linecap: round"/>
   </g>
   <g id="line2d_103">
    <path clip-path="url(#p4312dde0a3)" style="fill: none; stroke: #424242; stroke-width: 2.25; stroke-linecap: round"/>
   </g>
   <g id="line2d_104">
    <path clip-path="url(#p4312dde0a3)" style="fill: none; stroke: #424242; stroke-width: 2.25; stroke-linecap: round"/>
   </g>
   <g id="line2d_105">
    <path clip-path="url(#p4312dde0a3)" style="fill: none; stroke: #424242; stroke-width: 2.25; stroke-linecap: round"/>
   </g>
   <g id="line2d_106">
    <path clip-path="url(#p4312dde0a3)" style="fill: none; stroke: #424242; stroke-width: 2.25; stroke-linecap: round"/>
   </g>
   <g id="line2d_107">
    <path clip-path="url(#p4312dde0a3)" style="fill: none; stroke: #424242; stroke-width: 2.25; stroke-linecap: round"/>
   </g>
   <g id="line2d_108">
    <path clip-path="url(#p4312dde0a3)" style="fill: none; stroke: #424242; stroke-width: 2.25; stroke-linecap: round"/>
   </g>
   <g id="patch_54">
    <path d="M 47.133125 355.24875 
L 47.133125 22.60875 
" style="fill: none; stroke: #262626; stroke-width: 1.25; stroke-linejoin: miter; stroke-linecap: square"/>
   </g>
   <g id="patch_55">
    <path d="M 884.133125 355.24875 
L 884.133125 22.60875 
" style="fill: none; stroke: #262626; stroke-width: 1.25; stroke-linejoin: miter; stroke-linecap: square"/>
   </g>
   <g id="patch_56">
    <path d="M 47.133125 355.24875 
L 884.133125 355.24875 
" style="fill: none; stroke: #262626; stroke-width: 1.25; stroke-linejoin: miter; stroke-linecap: square"/>
   </g>
   <g id="patch_57">
    <path d="M 47.133125 22.60875 
L 884.133125 22.60875 
" style="fill: none; stroke: #262626; stroke-width: 1.25; stroke-linejoin: miter; stroke-linecap: square"/>
   </g>
   <g id="text_60">
    <!-- 미국 주별(State) 10억 마일당 교통사고 사망자 수 순위 -->
    <g style="fill: #262626" transform="translate(315.452188 16.60875) scale(0.12 -0.12)">
     <defs>
      <path id="AppleGothic-bbf8" d="M 3053 1600 
L 3053 3872 
L 2125 3885 
L 1261 3872 
L 1261 1594 
L 2125 1581 
L 3053 1600 
z
M 5466 5158 
Q 5466 5139 5437 5049 
Q 5408 4960 5408 4890 
L 5408 2291 
Q 5408 1702 5408 1292 
Q 5408 883 5414 659 
Q 5414 429 5420 230 
Q 5427 32 5430 -112 
Q 5434 -256 5440 -339 
Q 5446 -422 5446 -422 
L 4947 -442 
Q 4954 -301 4963 211 
Q 4973 723 4973 1670 
L 4973 2272 
Q 4973 2790 4969 3174 
Q 4966 3558 4960 3827 
Q 4954 4096 4950 4339 
Q 4947 4582 4934 4806 
Q 4928 5254 4915 5254 
L 4947 5254 
Q 5139 5254 5302 5235 
Q 5466 5216 5466 5158 
z
M 3520 1171 
L 2342 1190 
L 781 1165 
Q 781 1254 781 1459 
Q 781 1664 787 1984 
Q 794 2304 797 2483 
Q 800 2662 800 2707 
Q 800 3053 800 3296 
Q 800 3539 794 3693 
Q 794 3846 790 3996 
Q 787 4147 781 4282 
Q 896 4275 1056 4275 
Q 1216 4275 1421 4269 
Q 1626 4262 1754 4262 
Q 1882 4262 1946 4262 
L 3520 4288 
L 3501 2842 
L 3520 1171 
z
" transform="scale(0.015625)"/>
      <path id="AppleGothic-ad6d" d="M 6035 2630 
L 4781 2662 
L 3418 2662 
L 3418 1530 
L 4269 1530 
L 5133 1549 
L 5146 422 
L 5139 -486 
L 4723 -486 
L 4717 1178 
Q 4333 1178 4009 1174 
Q 3686 1171 3418 1165 
Q 3149 1158 2829 1155 
Q 2509 1152 2125 1146 
Q 1741 1139 1478 1139 
Q 1216 1139 1062 1139 
L 1062 1536 
L 2003 1517 
L 2976 1530 
L 2976 2662 
L 371 2624 
L 371 3034 
Q 659 3021 1072 3008 
Q 1485 2995 2131 2995 
Q 2336 2995 2675 2998 
Q 3014 3002 3494 3008 
Q 3974 3014 4227 3017 
Q 4480 3021 4512 3021 
Q 4531 3072 4547 3129 
Q 4563 3187 4576 3245 
Q 4608 3379 4633 3497 
Q 4659 3616 4678 3725 
Q 4730 4064 4774 4461 
Q 4774 4493 4777 4525 
Q 4781 4557 4787 4589 
L 3155 4582 
Q 2675 4582 2144 4569 
Q 1613 4557 1171 4544 
L 1171 4934 
L 5286 4960 
Q 5274 4774 5242 4518 
Q 5210 4262 5158 3936 
Q 5050 3283 4966 3027 
L 6035 3053 
L 6035 2630 
z
" transform="scale(0.015625)"/>
      <path id="AppleGothic-bcc4" d="M 3027 2739 
L 3027 3680 
L 2150 3693 
L 1293 3680 
L 1293 2739 
L 2144 2720 
L 3027 2739 
z
M 5440 -531 
Q 5178 -525 4906 -518 
Q 4634 -512 4339 -506 
Q 4038 -499 3801 -496 
Q 3565 -493 3379 -493 
L 1446 -493 
Q 1453 -422 1456 -336 
Q 1459 -250 1466 -141 
Q 1466 -45 1469 19 
Q 1472 83 1472 115 
L 1459 762 
L 3354 749 
L 4845 774 
L 4845 1382 
L 1446 1370 
L 1446 1734 
Q 1658 1734 1888 1728 
Q 2118 1722 2374 1715 
Q 2630 1709 2864 1705 
Q 3098 1702 3322 1702 
L 5299 1715 
L 5280 1094 
L 5293 410 
L 3373 429 
L 1901 416 
L 1901 -128 
Q 1978 -134 2134 -134 
Q 2291 -134 2522 -134 
Q 2752 -141 2969 -144 
Q 3187 -147 3392 -147 
Q 3846 -147 4380 -137 
Q 4915 -128 5440 -109 
L 5440 -531 
z
M 5440 5062 
Q 5440 5024 5414 4937 
Q 5389 4851 5389 4813 
Q 5382 4589 5372 4224 
Q 5363 3859 5363 3334 
Q 5363 3008 5363 2784 
Q 5363 2560 5370 2445 
Q 5376 2323 5376 2220 
Q 5376 2118 5382 2029 
L 4922 2029 
Q 4941 2189 4941 2394 
L 4941 2822 
L 3878 2803 
L 3878 3174 
L 4941 3162 
L 4941 3917 
L 3859 3904 
L 3859 4269 
L 4941 4256 
L 4941 4685 
Q 4941 4909 4934 5021 
Q 4928 5133 4915 5190 
L 5056 5190 
Q 5222 5190 5331 5164 
Q 5440 5139 5440 5062 
z
M 3488 4877 
L 3469 4710 
L 3456 3462 
L 3469 2362 
L 851 2362 
Q 851 2630 857 2944 
Q 864 3258 870 3578 
Q 870 3853 870 4061 
Q 870 4269 864 4416 
Q 858 4570 858 4704 
Q 858 4838 851 4966 
L 979 4966 
Q 1146 4966 1242 4950 
Q 1338 4934 1338 4864 
Q 1338 4838 1315 4761 
Q 1293 4685 1293 4653 
L 1293 4051 
L 2157 4032 
L 3027 4051 
L 3014 4998 
L 3072 4998 
Q 3264 4998 3376 4976 
Q 3488 4954 3488 4877 
z
" transform="scale(0.015625)"/>
      <path id="AppleGothic-c5b5" d="M 3174 3386 
Q 3174 3821 2925 4064 
Q 2650 4320 2131 4320 
Q 1626 4320 1331 4032 
Q 1056 3770 1056 3386 
Q 1056 3034 1318 2784 
Q 1606 2502 2138 2502 
Q 2592 2502 2874 2758 
Q 3174 3021 3174 3386 
z
M 5395 -474 
L 4909 -506 
Q 4922 -358 4928 -192 
Q 4934 -26 4934 147 
Q 4934 378 4934 541 
Q 4934 704 4928 806 
Q 4928 902 4925 995 
Q 4922 1088 4915 1178 
L 4013 1184 
L 1325 1146 
L 1325 1523 
Q 1453 1517 1632 1517 
Q 1811 1517 2035 1510 
Q 2272 1504 2435 1504 
Q 2598 1504 2694 1504 
Q 2931 1504 3312 1507 
Q 3693 1510 4237 1517 
Q 4781 1523 5065 1526 
Q 5350 1530 5382 1530 
L 5376 230 
L 5376 -256 
Q 5382 -365 5395 -474 
z
M 3616 3386 
Q 3616 2842 3187 2477 
Q 2758 2118 2138 2118 
Q 1466 2118 1037 2470 
Q 621 2822 621 3392 
Q 621 3974 1056 4333 
Q 1491 4704 2125 4704 
Q 2842 4704 3245 4320 
Q 3616 3955 3616 3386 
z
M 5440 5094 
Q 5440 5075 5414 5001 
Q 5389 4928 5389 4858 
Q 5382 4794 5382 4694 
Q 5382 4595 5376 4454 
Q 5370 4320 5370 4198 
Q 5370 4077 5370 3955 
L 5389 1818 
L 4934 1805 
L 4941 2285 
L 4941 3309 
L 4416 3315 
L 3840 3296 
L 3840 3674 
Q 3891 3667 3961 3667 
Q 4032 3667 4128 3661 
Q 4224 3654 4291 3654 
Q 4358 3654 4397 3654 
L 4934 3674 
L 4928 4755 
L 4902 5190 
L 5043 5190 
Q 5216 5190 5328 5171 
Q 5440 5152 5440 5094 
z
" transform="scale(0.015625)"/>
      <path id="AppleGothic-b9c8" d="M 2931 2592 
Q 2931 2918 2924 3267 
Q 2918 3616 2906 3910 
L 1997 3917 
L 1082 3898 
L 1069 2624 
L 1082 1562 
L 2074 1549 
L 2918 1568 
L 2931 2592 
z
M 6074 2086 
L 5126 2086 
L 5146 1178 
L 5152 -493 
L 4685 -518 
L 4685 4608 
Q 4672 4666 4669 4838 
Q 4666 5011 4659 5184 
L 4858 5190 
Q 5005 5190 5081 5164 
Q 5158 5139 5158 5062 
Q 5158 5030 5139 4956 
Q 5120 4883 5120 4838 
L 5133 2490 
L 6074 2496 
L 6074 2086 
z
M 3379 1152 
L 2125 1158 
Q 1760 1158 1357 1152 
Q 954 1146 608 1133 
L 595 4307 
Q 838 4294 1142 4288 
Q 1446 4282 1766 4282 
L 1920 4282 
Q 2093 4282 2326 4291 
Q 2560 4301 2848 4314 
Q 2950 4320 3075 4326 
Q 3200 4333 3366 4346 
L 3379 1152 
z
" transform="scale(0.015625)"/>
      <path id="AppleGothic-c77c" d="M 3379 3494 
Q 3379 3910 3027 4160 
Q 2701 4390 2246 4390 
Q 1792 4390 1478 4166 
Q 1139 3923 1139 3482 
Q 1139 3104 1459 2867 
Q 1786 2637 2202 2637 
Q 2694 2637 3021 2848 
Q 3379 3085 3379 3494 
z
M 5504 -435 
Q 5331 -429 5091 -429 
Q 4851 -429 4544 -422 
Q 4237 -416 4051 -416 
Q 3866 -416 3795 -416 
L 1549 -416 
L 1562 166 
L 1555 864 
Q 1651 864 1859 861 
Q 2067 858 2394 851 
Q 2720 845 2947 845 
Q 3174 845 3302 845 
L 4237 845 
Q 4410 851 4579 854 
Q 4749 858 4922 864 
L 4922 1414 
L 4634 1414 
Q 3565 1434 3462 1434 
L 3232 1434 
Q 2803 1434 2339 1421 
Q 1875 1408 1485 1395 
L 1485 1760 
Q 1606 1754 1795 1754 
Q 1984 1754 2253 1747 
Q 2515 1741 2761 1741 
Q 3008 1741 3245 1741 
L 4467 1741 
Q 4698 1747 4931 1750 
Q 5165 1754 5395 1760 
L 5389 1146 
L 5408 544 
L 2035 518 
L 2035 -77 
Q 2202 -83 2387 -83 
Q 2573 -83 2784 -83 
Q 2995 -90 3171 -90 
Q 3347 -90 3482 -90 
Q 3923 -90 4246 -86 
Q 4570 -83 4781 -77 
Q 4992 -70 5174 -64 
Q 5357 -58 5504 -45 
L 5504 -435 
z
M 3821 3494 
Q 3821 3194 3702 2973 
Q 3584 2752 3354 2586 
Q 2931 2298 2266 2298 
Q 1536 2298 1107 2682 
Q 710 3027 710 3520 
Q 710 4000 1082 4339 
Q 1491 4710 2202 4710 
Q 2573 4710 2873 4627 
Q 3174 4544 3385 4390 
Q 3597 4237 3709 4009 
Q 3821 3782 3821 3494 
z
M 5434 5075 
Q 5434 5056 5414 4982 
Q 5395 4909 5395 4858 
L 5382 3680 
Q 5382 3283 5388 2854 
Q 5395 2426 5408 2061 
L 4928 2061 
L 4941 3686 
Q 4941 4051 4937 4451 
Q 4934 4851 4922 5190 
L 4947 5190 
Q 5210 5190 5322 5161 
Q 5434 5133 5434 5075 
z
" transform="scale(0.015625)"/>
      <path id="AppleGothic-b2f9" d="M 4762 461 
Q 4762 736 4422 877 
Q 4019 1050 3117 1050 
Q 1542 1050 1542 442 
Q 1542 115 2150 -26 
Q 2560 -115 3206 -115 
Q 3936 -115 4349 32 
Q 4762 179 4762 461 
z
M 5222 448 
Q 5222 -32 4713 -262 
Q 4205 -493 3258 -493 
L 3040 -499 
Q 2208 -499 1709 -314 
Q 1082 -77 1082 422 
Q 1082 973 1734 1222 
Q 2253 1427 3123 1427 
Q 4090 1427 4634 1203 
Q 5222 941 5222 448 
z
M 4026 2304 
Q 3853 2272 3699 2253 
Q 3546 2234 3418 2221 
Q 3206 2189 2982 2166 
Q 2758 2144 2515 2118 
Q 2272 2099 1955 2083 
Q 1638 2067 1248 2054 
Q 1133 2048 985 2048 
Q 838 2048 653 2042 
L 666 3347 
L 653 4563 
L 2189 4550 
Q 2605 4550 2931 4563 
Q 3258 4576 3558 4595 
L 3558 4205 
L 2323 4186 
L 1126 4186 
L 1126 2470 
Q 1274 2470 1437 2473 
Q 1600 2477 1786 2483 
Q 1971 2490 2185 2502 
Q 2400 2515 2643 2534 
Q 2886 2560 3116 2582 
Q 3347 2605 3571 2630 
Q 3680 2643 3792 2656 
Q 3904 2669 4026 2682 
L 4026 2304 
z
M 6016 2835 
L 5139 2835 
L 5133 2131 
L 5146 1491 
L 4678 1478 
Q 4685 1568 4685 1747 
Q 4685 1926 4691 2202 
Q 4698 2477 4701 2787 
Q 4704 3098 4704 3450 
Q 4704 3962 4694 4342 
Q 4685 4723 4672 4979 
Q 4672 5030 4669 5081 
Q 4666 5133 4659 5190 
L 4787 5190 
Q 4954 5190 5069 5168 
Q 5184 5146 5184 5069 
Q 5184 5056 5161 4966 
Q 5139 4877 5139 4826 
L 5139 3232 
L 6016 3232 
L 6016 2835 
z
" transform="scale(0.015625)"/>
      <path id="AppleGothic-ad50" d="M 6048 250 
Q 5958 250 5804 250 
Q 5651 250 5440 256 
Q 5229 262 4950 268 
Q 4672 275 4326 282 
Q 3981 288 3715 291 
Q 3450 294 3258 294 
Q 2976 294 2630 288 
Q 2285 282 1862 269 
Q 1440 256 1177 249 
Q 915 243 806 237 
Q 595 224 346 218 
L 346 666 
Q 493 653 691 643 
Q 890 634 1216 634 
L 1818 640 
L 1830 2464 
Q 1830 2592 1824 2691 
Q 1818 2790 1805 2842 
L 2067 2822 
Q 2291 2797 2291 2752 
Q 2291 2739 2265 2659 
Q 2240 2579 2240 2528 
L 2240 653 
L 3437 653 
L 3430 2451 
Q 3430 2566 3430 2636 
Q 3430 2707 3424 2739 
Q 3424 2771 3421 2796 
Q 3418 2822 3411 2848 
Q 3482 2842 3546 2842 
Q 3610 2842 3680 2835 
Q 3904 2810 3904 2765 
Q 3904 2746 3872 2656 
Q 3840 2566 3840 2515 
L 3840 653 
L 6048 672 
L 6048 250 
z
M 5306 4608 
L 5306 4448 
Q 5306 2970 4992 1459 
L 4563 1523 
Q 4589 1651 4608 1750 
Q 4627 1850 4640 1933 
Q 4678 2189 4713 2409 
Q 4749 2630 4774 2822 
Q 4774 3206 4787 3542 
Q 4800 3878 4819 4179 
L 3642 4192 
L 947 4147 
L 947 4589 
L 2528 4576 
L 5306 4608 
z
" transform="scale(0.015625)"/>
      <path id="AppleGothic-d1b5" d="M 4851 365 
Q 4851 614 4531 762 
Q 4147 934 3258 934 
Q 2502 934 2108 793 
Q 1715 653 1715 358 
Q 1715 115 2016 -26 
Q 2400 -198 3213 -198 
L 3334 -198 
Q 4070 -198 4435 -83 
Q 4851 64 4851 365 
z
M 5331 358 
Q 5331 -134 4832 -358 
Q 4333 -582 3386 -582 
L 3226 -582 
Q 2784 -582 2445 -531 
Q 2106 -480 1850 -384 
Q 1248 -141 1248 352 
Q 1248 851 1882 1088 
Q 2131 1178 2473 1222 
Q 2816 1267 3258 1267 
Q 4256 1267 4755 1069 
Q 5331 845 5331 358 
z
M 6022 1722 
Q 5933 1722 5789 1722 
Q 5645 1722 5440 1728 
Q 5043 1734 4358 1747 
Q 4013 1754 3741 1757 
Q 3469 1760 3258 1760 
Q 2938 1760 2579 1753 
Q 2221 1747 1818 1734 
Q 1414 1728 1164 1721 
Q 915 1715 806 1709 
L 384 1690 
L 384 2099 
Q 640 2086 969 2080 
Q 1299 2074 1715 2074 
L 2995 2086 
L 2995 2726 
L 1338 2720 
L 1350 3821 
L 1338 4922 
L 3334 4915 
Q 3840 4915 4281 4928 
Q 4723 4941 5120 4954 
L 5120 4602 
L 3430 4614 
Q 3008 4614 2582 4608 
Q 2157 4602 1811 4589 
L 1811 4026 
L 3277 4013 
Q 3738 4013 4160 4029 
Q 4582 4045 4960 4070 
L 4960 3699 
L 3258 3718 
Q 2906 3718 2522 3712 
Q 2138 3706 1811 3693 
L 1811 3046 
L 3232 3053 
Q 3514 3053 3843 3059 
Q 4173 3066 4563 3078 
Q 4691 3085 4854 3091 
Q 5018 3098 5222 3110 
L 5222 2739 
L 4333 2746 
L 3443 2726 
L 3443 2080 
Q 3654 2080 3974 2086 
Q 4294 2093 4730 2106 
Q 5165 2118 5485 2124 
Q 5805 2131 6022 2131 
L 6022 1722 
z
" transform="scale(0.015625)"/>
      <path id="AppleGothic-ace0" d="M 6035 243 
L 5485 243 
L 4435 243 
Q 4090 250 3718 250 
Q 3347 250 2931 256 
Q 2400 256 2032 256 
Q 1664 256 1440 250 
Q 998 243 739 233 
Q 480 224 352 218 
L 352 698 
L 1606 666 
L 2656 672 
L 2656 2291 
L 2637 2765 
L 2669 2765 
Q 2880 2765 3027 2742 
Q 3174 2720 3174 2643 
Q 3174 2598 3168 2579 
Q 3136 2451 3136 2438 
L 3123 1363 
L 3136 666 
L 6035 704 
L 6035 243 
z
M 5306 4608 
Q 5306 3834 5219 3075 
Q 5133 2317 4954 1459 
L 4518 1523 
Q 4544 1651 4563 1750 
Q 4582 1850 4595 1933 
Q 4646 2240 4684 2461 
Q 4723 2682 4736 2829 
Q 4755 2976 4771 3193 
Q 4787 3411 4800 3699 
Q 4806 3878 4819 4179 
L 3642 4192 
Q 3411 4192 3059 4185 
Q 2707 4179 2234 4166 
Q 1280 4147 947 4147 
L 947 4589 
L 2528 4576 
L 5306 4608 
z
" transform="scale(0.015625)"/>
      <path id="AppleGothic-c21c" d="M 5178 -486 
Q 5088 -480 5011 -480 
Q 4934 -480 4877 -480 
Q 3962 -461 3469 -461 
Q 3078 -461 2761 -461 
Q 2445 -461 2202 -467 
Q 1958 -474 1734 -477 
Q 1510 -480 1306 -493 
L 1318 128 
L 1299 998 
Q 1478 998 1664 979 
Q 1850 960 1850 902 
Q 1805 787 1805 691 
L 1792 320 
L 1811 -77 
L 3379 -83 
Q 3744 -83 4025 -80 
Q 4307 -77 4499 -70 
Q 4691 -64 4860 -57 
Q 5030 -51 5178 -38 
L 5178 -486 
z
M 6010 1997 
Q 5734 2010 5408 2013 
Q 5082 2016 4774 2016 
L 3456 2003 
L 3443 1152 
Q 3443 851 3449 713 
Q 3456 576 3469 493 
L 2970 480 
L 2982 1203 
L 2970 1990 
L 1696 1978 
L 390 1926 
L 390 2381 
L 2291 2368 
L 3187 2374 
Q 3706 2374 4112 2377 
Q 4518 2381 4826 2387 
Q 5427 2406 5658 2426 
Q 5773 2438 5862 2444 
Q 5952 2451 6010 2458 
L 6010 1997 
z
M 5542 3616 
Q 5498 3565 5469 3526 
Q 5440 3488 5414 3456 
Q 5344 3366 5305 3324 
Q 5267 3283 5254 3270 
Q 5088 3290 4992 3309 
Q 4371 3418 3961 3648 
Q 3552 3878 3315 4160 
Q 3232 4250 3142 4403 
Q 3110 4352 3084 4313 
Q 3059 4275 3034 4243 
Q 2707 3853 2195 3565 
Q 1818 3347 1363 3251 
Q 1293 3238 1200 3225 
Q 1107 3213 992 3200 
Q 941 3309 870 3392 
Q 800 3475 755 3526 
Q 736 3546 717 3584 
Q 755 3603 851 3606 
Q 947 3610 1056 3622 
Q 1702 3706 2195 4032 
Q 2624 4314 2822 4762 
Q 2854 4838 2886 4937 
Q 2918 5037 2950 5165 
Q 2995 5165 3068 5152 
Q 3142 5139 3251 5114 
Q 3462 5062 3462 5005 
Q 3462 4973 3437 4941 
L 3411 4915 
Q 3392 4845 3392 4826 
Q 3392 4691 3667 4416 
Q 3776 4314 3869 4237 
Q 3962 4160 4051 4109 
Q 4442 3846 5011 3725 
Q 5203 3686 5510 3648 
Q 5523 3648 5542 3616 
z
" transform="scale(0.015625)"/>
      <path id="AppleGothic-c704" d="M 3667 3725 
Q 3667 4038 3430 4250 
Q 3155 4486 2682 4486 
Q 2266 4486 1984 4326 
Q 1645 4128 1645 3731 
Q 1645 3354 1965 3136 
Q 2246 2950 2675 2950 
Q 3130 2950 3398 3164 
Q 3667 3379 3667 3725 
z
M 4794 1850 
Q 4691 1837 4608 1824 
Q 4525 1811 4454 1805 
Q 4237 1779 4061 1766 
Q 3885 1754 3750 1754 
L 2861 1702 
Q 2861 1645 2854 1421 
Q 2848 1197 2848 883 
L 2861 -230 
L 2400 -262 
Q 2406 -186 2406 -80 
Q 2406 26 2413 173 
Q 2419 320 2419 432 
Q 2419 544 2419 634 
Q 2419 922 2419 1110 
Q 2419 1299 2413 1389 
Q 2413 1478 2409 1548 
Q 2406 1619 2400 1683 
L 928 1587 
Q 902 1587 794 1555 
Q 742 1542 730 1542 
Q 678 1542 659 1638 
L 595 1997 
L 678 1997 
Q 1267 2016 1772 2032 
Q 2278 2048 2682 2048 
Q 3046 2048 3414 2070 
Q 3782 2093 4166 2138 
Q 4294 2150 4444 2172 
Q 4595 2195 4774 2227 
L 4794 1850 
z
M 5523 5101 
Q 5523 5088 5497 4998 
Q 5472 4909 5472 4838 
Q 5466 4640 5466 4377 
Q 5466 4115 5466 3782 
L 5466 2534 
L 5466 1203 
Q 5466 858 5466 566 
Q 5466 275 5472 26 
Q 5478 -474 5485 -474 
L 5011 -506 
L 5030 3200 
Q 5030 3699 5030 4025 
Q 5030 4352 5024 4512 
Q 5018 4678 5011 4844 
Q 5005 5011 4992 5190 
Q 5203 5190 5363 5177 
Q 5523 5165 5523 5101 
z
M 4096 3731 
Q 4096 3238 3693 2912 
Q 3290 2586 2688 2586 
Q 2010 2586 1616 2880 
Q 1222 3174 1222 3718 
Q 1222 4250 1683 4570 
Q 2093 4858 2682 4858 
Q 3245 4858 3648 4582 
Q 4096 4269 4096 3731 
z
" transform="scale(0.015625)"/>
     </defs>
     <use xlink:href="#AppleGothic-bbf8"/>
     <use xlink:href="#AppleGothic-ad6d" transform="translate(99.999985 0)"/>
     <use xlink:href="#AppleGothic-20" transform="translate(199.999969 0)"/>
     <use xlink:href="#AppleGothic-c8fc" transform="translate(231.999954 0)"/>
     <use xlink:href="#AppleGothic-bcc4" transform="translate(331.999939 0)"/>
     <use xlink:href="#AppleGothic-28" transform="translate(431.999924 0)"/>
     <use xlink:href="#AppleGothic-53" transform="translate(481.999908 0)"/>
     <use xlink:href="#AppleGothic-74" transform="translate(545.199905 0)"/>
     <use xlink:href="#AppleGothic-61" transform="translate(579.399902 0)"/>
     <use xlink:href="#AppleGothic-74" transform="translate(635.899887 0)"/>
     <use xlink:href="#AppleGothic-65" transform="translate(670.099884 0)"/>
     <use xlink:href="#AppleGothic-29" transform="translate(724.999878 0)"/>
     <use xlink:href="#AppleGothic-20" transform="translate(774.999863 0)"/>
     <use xlink:href="#AppleGothic-31" transform="translate(806.999847 0)"/>
     <use xlink:href="#AppleGothic-30" transform="translate(874.999832 0)"/>
     <use xlink:href="#AppleGothic-c5b5" transform="translate(942.999817 0)"/>
     <use xlink:href="#AppleGothic-20" transform="translate(1042.999802 0)"/>
     <use xlink:href="#AppleGothic-b9c8" transform="translate(1074.999786 0)"/>
     <use xlink:href="#AppleGothic-c77c" transform="translate(1174.999771 0)"/>
     <use xlink:href="#AppleGothic-b2f9" transform="translate(1274.999756 0)"/>
     <use xlink:href="#AppleGothic-20" transform="translate(1374.999741 0)"/>
     <use xlink:href="#AppleGothic-ad50" transform="translate(1406.999725 0)"/>
     <use xlink:href="#AppleGothic-d1b5" transform="translate(1506.99971 0)"/>
     <use xlink:href="#AppleGothic-c0ac" transform="translate(1606.999695 0)"/>
     <use xlink:href="#AppleGothic-ace0" transform="translate(1706.99968 0)"/>
     <use xlink:href="#AppleGothic-20" transform="translate(1806.999664 0)"/>
     <use xlink:href="#AppleGothic-c0ac" transform="translate(1838.999649 0)"/>
     <use xlink:href="#AppleGothic-b9dd" transform="translate(1938.999634 0)"/>
     <use xlink:href="#AppleGothic-c790" transform="translate(2038.999619 0)"/>
     <use xlink:href="#AppleGothic-20" transform="translate(2138.999603 0)"/>
     <use xlink:href="#AppleGothic-c218" transform="translate(2170.999588 0)"/>
     <use xlink:href="#AppleGothic-20" transform="translate(2270.999573 0)"/>
     <use xlink:href="#AppleGothic-c21c" transform="translate(2302.999557 0)"/>
     <use xlink:href="#AppleGothic-c704" transform="translate(2402.999542 0)"/>
    </g>
   </g>
  </g>
 </g>
 <defs>
  <clipPath id="p4312dde0a3">
   <rect x="47.133125" y="22.60875" width="837" height="332.64"/>
  </clipPath>
 </defs>
</svg>
