<?xml version="1.0" encoding="utf-8" standalone="no"?>
<!DOCTYPE svg PUBLIC "-//W3C//DTD SVG 1.1//EN"
  "http://www.w3.org/Graphics/SVG/1.1/DTD/svg11.dtd">
<svg xmlns:xlink="http://www.w3.org/1999/xlink" width="636.453125pt" height="439.055156pt" viewBox="0 0 636.453125 439.055156" xmlns="http://www.w3.org/2000/svg" version="1.1">
 <metadata>
  <rdf:RDF xmlns:dc="http://purl.org/dc/elements/1.1/" xmlns:cc="http://creativecommons.org/ns#" xmlns:rdf="http://www.w3.org/1999/02/22-rdf-syntax-ns#">
   <cc:Work>
    <dc:type rdf:resource="http://purl.org/dc/dcmitype/StillImage"/>
    <dc:date>2026-05-22T02:33:55.883571</dc:date>
    <dc:format>image/svg+xml</dc:format>
    <dc:creator>
     <cc:Agent>
      <dc:title>Matplotlib v3.10.9, https://matplotlib.org/</dc:title>
     </cc:Agent>
    </dc:creator>
   </cc:Work>
  </rdf:RDF>
 </metadata>
 <defs>
  <style type="text/css">*{stroke-linejoin: round; stroke-linecap: butt}</style>
 </defs>
 <g id="figure_1">
  <g id="patch_1">
   <path d="M 0 439.055156 
L 636.453125 439.055156 
L 636.453125 0 
L 0 0 
z
" style="fill: #ffffff"/>
  </g>
  <g id="axes_1">
   <g id="patch_2">
    <path d="M 47.133125 396.365 
L 629.253125 396.365 
L 629.253125 25.745 
L 47.133125 25.745 
z
" style="fill: #ffffff"/>
   </g>
   <g id="matplotlib.axis_1">
    <g id="xtick_1">
     <g id="line2d_1">
      <path d="M 99.097494 396.365 
L 99.097494 25.745 
" clip-path="url(#p615a74261a)" style="fill: none; stroke-dasharray: 3.7,1.6; stroke-dashoffset: 0; stroke: #cccccc; stroke-opacity: 0.5"/>
     </g>
     <g id="line2d_2">
      <defs>
       <path id="mf830726f75" d="M 0 0 
L 0 6 
" style="stroke: #262626; stroke-width: 1.25"/>
      </defs>
      <g>
       <use xlink:href="#mf830726f75" x="99.097494" y="396.365" style="fill: #262626; stroke: #262626; stroke-width: 1.25"/>
      </g>
     </g>
     <g id="text_1">
      <!-- 2 -->
      <g style="fill: #262626" transform="translate(95.357494 414.489687) scale(0.11 -0.11)">
       <defs>
        <path id="AppleGothic-32" d="M 1101 429 
L 3942 429 
L 3942 0 
L 653 0 
L 653 205 
Q 653 1018 1344 1664 
Q 1670 1894 1990 2124 
Q 2310 2355 2637 2592 
Q 3334 3098 3334 3597 
Q 3334 3994 3014 4218 
Q 2867 4326 2694 4377 
Q 2522 4429 2317 4429 
Q 2016 4429 1741 4352 
Q 1325 4224 883 3910 
L 883 4435 
Q 1325 4659 1667 4758 
Q 2010 4858 2317 4858 
Q 2963 4858 3405 4525 
Q 3840 4198 3840 3622 
Q 3840 2995 3168 2438 
Q 2848 2214 2531 2000 
Q 2214 1786 1894 1562 
Q 1178 1024 1101 429 
z
" transform="scale(0.015625)"/>
       </defs>
       <use xlink:href="#AppleGothic-32"/>
      </g>
     </g>
    </g>
    <g id="xtick_2">
     <g id="line2d_3">
      <path d="M 224.426091 396.365 
L 224.426091 25.745 
" clip-path="url(#p615a74261a)" style="fill: none; stroke-dasharray: 3.7,1.6; stroke-dashoffset: 0; stroke: #cccccc; stroke-opacity: 0.5"/>
     </g>
     <g id="line2d_4">
      <g>
       <use xlink:href="#mf830726f75" x="224.426091" y="396.365" style="fill: #262626; stroke: #262626; stroke-width: 1.25"/>
      </g>
     </g>
     <g id="text_2">
      <!-- 4 -->
      <g style="fill: #262626" transform="translate(220.686091 414.489687) scale(0.11 -0.11)">
       <defs>
        <path id="AppleGothic-34" d="M 2662 4774 
L 3130 4774 
L 3130 1811 
L 4000 1811 
L 4000 1382 
L 3130 1382 
L 3130 0 
L 2662 0 
L 2662 1382 
L 352 1382 
L 352 1811 
L 2662 4774 
z
M 2662 1811 
L 2662 4166 
L 838 1811 
L 2662 1811 
z
" transform="scale(0.015625)"/>
       </defs>
       <use xlink:href="#AppleGothic-34"/>
      </g>
     </g>
    </g>
    <g id="xtick_3">
     <g id="line2d_5">
      <path d="M 349.754688 396.365 
L 349.754688 25.745 
" clip-path="url(#p615a74261a)" style="fill: none; stroke-dasharray: 3.7,1.6; stroke-dashoffset: 0; stroke: #cccccc; stroke-opacity: 0.5"/>
     </g>
     <g id="line2d_6">
      <g>
       <use xlink:href="#mf830726f75" x="349.754688" y="396.365" style="fill: #262626; stroke: #262626; stroke-width: 1.25"/>
      </g>
     </g>
     <g id="text_3">
      <!-- 6 -->
      <g style="fill: #262626" transform="translate(346.014688 414.489687) scale(0.11 -0.11)">
       <defs>
        <path id="AppleGothic-36" d="M 3699 4557 
L 3699 4013 
Q 3584 4102 3475 4163 
Q 3366 4224 3258 4275 
Q 3085 4358 2918 4393 
Q 2752 4429 2586 4429 
Q 2470 4429 2352 4409 
Q 2234 4390 2118 4339 
Q 1670 4154 1395 3738 
Q 1011 3149 1011 2189 
Q 1312 2490 1568 2656 
Q 2022 2931 2534 2931 
Q 3162 2931 3584 2566 
Q 4038 2163 4038 1491 
Q 4038 806 3558 358 
Q 3078 -83 2394 -83 
Q 1670 -83 1146 454 
Q 518 1088 518 2253 
Q 518 3411 1120 4134 
Q 1715 4858 2605 4858 
Q 2938 4858 3226 4762 
Q 3309 4730 3427 4682 
Q 3546 4634 3699 4557 
z
M 1062 1702 
Q 1152 1152 1498 768 
Q 1882 346 2419 346 
Q 2899 346 3213 659 
Q 3539 973 3539 1459 
Q 3539 1920 3226 2214 
Q 2918 2502 2496 2502 
Q 1990 2502 1542 2176 
Q 1414 2080 1292 1965 
Q 1171 1850 1062 1702 
z
" transform="scale(0.015625)"/>
       </defs>
       <use xlink:href="#AppleGothic-36"/>
      </g>
     </g>
    </g>
    <g id="xtick_4">
     <g id="line2d_7">
      <path d="M 475.083285 396.365 
L 475.083285 25.745 
" clip-path="url(#p615a74261a)" style="fill: none; stroke-dasharray: 3.7,1.6; stroke-dashoffset: 0; stroke: #cccccc; stroke-opacity: 0.5"/>
     </g>
     <g id="line2d_8">
      <g>
       <use xlink:href="#mf830726f75" x="475.083285" y="396.365" style="fill: #262626; stroke: #262626; stroke-width: 1.25"/>
      </g>
     </g>
     <g id="text_4">
      <!-- 8 -->
      <g style="fill: #262626" transform="translate(471.343285 414.489687) scale(0.11 -0.11)">
       <defs>
        <path id="AppleGothic-38" d="M 2957 2605 
Q 3219 2528 3404 2445 
Q 3590 2362 3706 2272 
Q 4192 1926 4192 1370 
Q 4192 749 3642 333 
Q 3098 -83 2285 -83 
Q 1434 -83 947 326 
Q 512 691 512 1229 
Q 512 1798 998 2125 
Q 1146 2227 1341 2304 
Q 1536 2381 1779 2451 
Q 1574 2534 1430 2617 
Q 1286 2701 1197 2784 
Q 819 3104 819 3603 
Q 819 4173 1261 4512 
Q 1702 4858 2381 4858 
Q 3014 4858 3437 4570 
Q 3898 4262 3898 3738 
Q 3898 3373 3670 3081 
Q 3443 2790 2957 2605 
z
M 2406 2752 
Q 2624 2835 2781 2915 
Q 2938 2995 3040 3066 
Q 3398 3322 3398 3667 
Q 3398 3994 3104 4205 
Q 2822 4429 2362 4429 
Q 1894 4429 1613 4205 
Q 1325 3994 1325 3635 
Q 1325 3322 1581 3098 
Q 1696 3002 1901 2912 
Q 2106 2822 2406 2752 
z
M 2368 2304 
Q 2061 2202 1840 2106 
Q 1619 2010 1472 1920 
Q 1011 1626 1011 1235 
Q 1011 845 1376 595 
Q 1728 346 2310 346 
Q 2938 346 3315 640 
Q 3693 934 3693 1338 
Q 3693 1741 3238 1997 
Q 3104 2067 2886 2147 
Q 2669 2227 2368 2304 
z
" transform="scale(0.015625)"/>
       </defs>
       <use xlink:href="#AppleGothic-38"/>
      </g>
     </g>
    </g>
    <g id="xtick_5">
     <g id="line2d_9">
      <path d="M 600.411882 396.365 
L 600.411882 25.745 
" clip-path="url(#p615a74261a)" style="fill: none; stroke-dasharray: 3.7,1.6; stroke-dashoffset: 0; stroke: #cccccc; stroke-opacity: 0.5"/>
     </g>
     <g id="line2d_10">
      <g>
       <use xlink:href="#mf830726f75" x="600.411882" y="396.365" style="fill: #262626; stroke: #262626; stroke-width: 1.25"/>
      </g>
     </g>
     <g id="text_5">
      <!-- 10 -->
      <g style="fill: #262626" transform="translate(592.931882 414.489687) scale(0.11 -0.11)">
       <defs>
        <path id="AppleGothic-31" d="M 2342 4774 
L 2752 4774 
L 2752 0 
L 2285 0 
L 2285 3526 
L 1158 3526 
L 1158 3885 
L 1414 3885 
Q 1990 3885 2214 4205 
Q 2342 4410 2342 4774 
z
" transform="scale(0.015625)"/>
        <path id="AppleGothic-30" d="M 2227 -83 
Q 1414 -83 934 576 
Q 461 1229 461 2387 
Q 461 3552 973 4218 
Q 1453 4858 2221 4858 
Q 3027 4858 3482 4173 
Q 3955 3494 3955 2394 
Q 3955 1248 3462 582 
Q 2976 -83 2227 -83 
z
M 2176 346 
Q 2861 346 3200 992 
Q 3462 1536 3462 2400 
Q 3462 3315 3162 3859 
Q 2822 4429 2214 4429 
Q 1574 4429 1248 3821 
Q 960 3283 960 2374 
Q 960 1478 1248 941 
Q 1574 346 2176 346 
z
" transform="scale(0.015625)"/>
       </defs>
       <use xlink:href="#AppleGothic-31"/>
       <use xlink:href="#AppleGothic-30" transform="translate(67.999985 0)"/>
      </g>
     </g>
    </g>
    <g id="text_6">
     <!-- 음주운전 연루 사고 비율 -->
     <g style="fill: #262626" transform="translate(272.433125 429.790781) scale(0.12 -0.12)">
      <defs>
       <path id="AppleGothic-c74c" d="M 4723 -90 
L 4723 966 
L 1619 960 
L 1619 -77 
L 3232 -90 
L 4723 -90 
z
M 4819 3949 
Q 4819 4339 4314 4512 
Q 3891 4666 3194 4666 
Q 2317 4666 1914 4474 
Q 1542 4307 1542 3974 
Q 1542 3571 2125 3392 
Q 2560 3264 3149 3264 
Q 3923 3264 4371 3437 
Q 4819 3610 4819 3949 
z
M 5210 -621 
L 4730 -627 
L 4704 -461 
L 1626 -461 
L 1581 -602 
L 1146 -602 
L 1165 403 
L 1158 1357 
L 2976 1338 
L 5203 1357 
L 5197 525 
L 5210 -621 
z
M 6016 1952 
L 5370 1952 
Q 5171 1952 4918 1955 
Q 4666 1958 4381 1964 
Q 4096 1971 3785 1974 
Q 3475 1978 3168 1978 
Q 2854 1978 2537 1978 
Q 2221 1978 1907 1971 
Q 1594 1971 1354 1968 
Q 1114 1965 931 1961 
Q 749 1958 614 1955 
Q 480 1952 384 1952 
L 384 2362 
Q 589 2355 857 2348 
Q 1126 2342 1472 2336 
Q 1824 2330 2153 2330 
Q 2483 2330 2810 2330 
L 3174 2330 
Q 3821 2330 4281 2330 
Q 4742 2330 5030 2336 
Q 5318 2342 5564 2345 
Q 5811 2349 6016 2362 
L 6016 1952 
z
M 5248 3955 
Q 5248 3437 4729 3158 
Q 4211 2880 3290 2880 
L 3142 2880 
Q 2131 2880 1542 3213 
Q 1075 3482 1075 3936 
Q 1075 4518 1683 4787 
Q 2227 5024 3174 5024 
Q 4122 5024 4646 4800 
Q 5248 4531 5248 3955 
z
" transform="scale(0.015625)"/>
       <path id="AppleGothic-c8fc" d="M 5984 1850 
L 3482 1850 
L 3501 -570 
L 3008 -602 
Q 3014 -480 3014 -345 
Q 3014 -211 3014 -58 
Q 3021 90 3021 211 
Q 3021 333 3021 422 
L 3027 1850 
L 1837 1824 
L 410 1811 
L 410 2214 
Q 518 2208 649 2208 
Q 781 2208 947 2202 
L 1536 2202 
L 3232 2214 
Q 3821 2214 4256 2217 
Q 4691 2221 4986 2227 
Q 5581 2246 5984 2266 
L 5984 1850 
z
M 5562 3123 
Q 5562 3104 5485 3056 
Q 5408 3008 5382 2976 
L 5229 2790 
Q 5062 2822 4928 2857 
Q 4794 2893 4678 2938 
Q 4499 3008 4320 3104 
Q 4141 3200 3955 3328 
Q 3629 3539 3392 3853 
Q 3219 4134 3213 4134 
Q 3187 4083 3168 4041 
Q 3149 4000 3130 3968 
Q 2880 3552 2381 3245 
Q 2182 3117 1971 3024 
Q 1760 2931 1536 2861 
Q 1466 2835 1370 2816 
Q 1274 2797 1165 2778 
L 1005 2938 
Q 973 2970 896 3027 
Q 806 3085 806 3098 
Q 813 3123 832 3123 
Q 928 3136 1014 3145 
Q 1101 3155 1171 3168 
Q 1978 3334 2470 3789 
Q 2746 4026 2886 4365 
Q 2931 4454 2982 4646 
L 2048 4627 
L 1030 4627 
L 1030 5005 
Q 1101 5005 1251 5001 
Q 1402 4998 1645 4992 
Q 1888 4986 2080 4986 
Q 2272 4986 2406 4986 
L 5293 5030 
L 5293 4653 
L 4403 4659 
L 3450 4646 
Q 3456 4570 3469 4512 
Q 3571 4192 3955 3827 
Q 4346 3462 4973 3270 
Q 5082 3238 5219 3209 
Q 5357 3181 5530 3149 
L 5562 3123 
z
" transform="scale(0.015625)"/>
       <path id="AppleGothic-c6b4" d="M 4864 3987 
Q 4864 4307 4506 4480 
Q 4070 4698 3187 4698 
Q 2854 4698 2585 4666 
Q 2317 4634 2106 4563 
Q 1555 4384 1555 3994 
Q 1555 3610 2106 3450 
Q 2310 3386 2579 3360 
Q 2848 3334 3181 3334 
Q 4019 3334 4441 3497 
Q 4864 3661 4864 3987 
z
M 5382 -461 
L 5011 -461 
Q 3616 -442 3341 -442 
L 1267 -461 
Q 1267 -384 1270 -285 
Q 1274 -186 1277 -80 
Q 1280 26 1280 128 
Q 1280 230 1280 314 
Q 1280 493 1280 611 
Q 1280 730 1274 800 
Q 1274 870 1270 931 
Q 1267 992 1261 1050 
L 1389 1050 
Q 1594 1050 1683 1037 
Q 1773 1024 1773 973 
Q 1773 954 1747 877 
Q 1722 800 1722 742 
L 1722 -64 
L 3341 -77 
Q 3750 -77 4060 -77 
Q 4371 -77 4595 -70 
Q 4819 -64 5014 -61 
Q 5210 -58 5382 -45 
L 5382 -461 
z
M 6016 1984 
Q 5933 1990 5805 1990 
Q 5677 1990 5498 1997 
Q 5325 2003 5184 2003 
Q 5043 2003 4934 2003 
L 3501 1997 
Q 3494 1901 3491 1747 
Q 3488 1594 3488 1293 
L 3507 544 
L 3008 512 
L 3021 1331 
L 3008 2003 
L 1491 1997 
Q 1350 1997 1196 1993 
Q 1043 1990 899 1987 
Q 755 1984 624 1977 
Q 493 1971 397 1971 
L 397 2381 
Q 851 2368 1459 2361 
Q 2067 2355 2854 2355 
L 3232 2355 
Q 4166 2355 4864 2371 
Q 5562 2387 6016 2400 
L 6016 1984 
z
M 5325 3987 
Q 5325 2976 3194 2976 
Q 2285 2976 1722 3213 
Q 1094 3482 1094 3987 
Q 1094 4576 1843 4864 
Q 2406 5075 3187 5075 
Q 4026 5075 4582 4870 
Q 5325 4582 5325 3987 
z
" transform="scale(0.015625)"/>
       <path id="AppleGothic-c804" d="M 3981 2138 
L 3648 1830 
Q 3616 1850 3587 1869 
Q 3558 1888 3533 1901 
Q 3226 2112 2854 2522 
Q 2643 2739 2496 3066 
Q 2445 3162 2381 3334 
Q 2304 3142 2246 3027 
Q 2144 2842 2022 2666 
Q 1901 2490 1741 2323 
Q 1504 2067 1146 1798 
Q 1088 1754 1011 1706 
Q 934 1658 838 1594 
Q 832 1613 557 1792 
Q 429 1882 429 1901 
Q 1126 2195 1626 2842 
Q 2170 3546 2170 4256 
Q 2138 4262 2102 4265 
Q 2067 4269 2035 4269 
Q 1786 4288 1530 4288 
L 806 4269 
L 806 4672 
Q 992 4659 1328 4646 
Q 1664 4634 2163 4634 
L 2336 4634 
Q 2662 4634 2902 4637 
Q 3142 4640 3309 4646 
Q 3475 4653 3606 4659 
Q 3738 4666 3846 4666 
L 3846 4269 
L 3264 4282 
Q 3046 4282 2758 4262 
Q 2733 4262 2697 4259 
Q 2662 4256 2611 4250 
Q 2611 3917 2675 3667 
Q 2771 3270 3024 2960 
Q 3277 2650 3558 2426 
Q 3635 2355 3737 2294 
Q 3840 2234 3968 2163 
L 3981 2138 
z
M 5587 -13 
L 5562 -410 
L 4634 -403 
Q 4256 -403 3792 -406 
Q 3328 -410 2752 -416 
Q 1619 -435 1440 -435 
L 1446 230 
L 1421 1274 
L 1536 1274 
Q 1722 1274 1840 1254 
Q 1958 1235 1958 1184 
Q 1958 1165 1932 1081 
Q 1907 998 1907 941 
L 1907 -32 
L 2893 -45 
Q 2950 -45 3043 -45 
Q 3136 -45 3270 -38 
Q 3398 -32 3497 -32 
Q 3597 -32 3667 -32 
L 5587 -13 
z
M 5421 5075 
Q 5421 5056 5401 4995 
Q 5382 4934 5382 4883 
L 5370 2893 
Q 5370 2566 5370 2288 
Q 5370 2010 5376 1763 
Q 5382 1517 5385 1296 
Q 5389 1075 5402 864 
L 4928 864 
L 4941 2042 
L 4941 3059 
L 3757 3059 
L 3757 3475 
L 4218 3462 
L 4941 3482 
L 4941 4698 
Q 4941 5088 4915 5190 
L 4941 5190 
Q 5139 5190 5280 5171 
Q 5421 5152 5421 5075 
z
" transform="scale(0.015625)"/>
       <path id="AppleGothic-20" transform="scale(0.015625)"/>
       <path id="AppleGothic-c5f0" d="M 3200 3149 
Q 3200 3571 2912 3872 
Q 2630 4173 2170 4173 
Q 1715 4173 1434 3930 
Q 1101 3661 1101 3149 
Q 1101 2816 1331 2547 
Q 1619 2214 2170 2214 
Q 2618 2214 2899 2477 
Q 3200 2746 3200 3149 
z
M 5485 -352 
L 3629 -339 
L 1530 -346 
Q 1536 -282 1536 -186 
Q 1536 -90 1542 38 
Q 1549 173 1549 297 
Q 1549 422 1549 538 
L 1549 1274 
Q 1600 1274 1673 1264 
Q 1747 1254 1843 1242 
Q 2035 1216 2035 1165 
Q 2035 1152 2012 1081 
Q 1990 1011 1990 941 
L 1990 45 
L 3622 38 
L 4845 38 
Q 5018 45 5178 48 
Q 5338 51 5485 58 
L 5485 -352 
z
M 5408 5075 
Q 5408 5050 5382 4970 
Q 5357 4890 5357 4838 
L 5382 896 
L 4922 864 
L 4928 2163 
L 4422 2176 
L 3834 2157 
L 3834 2528 
L 4410 2515 
Q 4659 2515 4755 2518 
Q 4851 2522 4928 2534 
L 4928 3565 
L 4403 3578 
L 3840 3558 
L 3840 3942 
Q 3891 3936 3961 3936 
Q 4032 3936 4134 3930 
Q 4230 3923 4300 3923 
Q 4371 3923 4416 3923 
Q 4646 3923 4745 3926 
Q 4845 3930 4934 3942 
L 4915 5190 
Q 5133 5190 5270 5174 
Q 5408 5158 5408 5075 
z
M 3616 3142 
Q 3616 2515 3136 2144 
Q 2720 1824 2176 1824 
Q 1530 1824 1101 2195 
Q 678 2566 678 3142 
Q 678 3680 1050 4083 
Q 1472 4531 2170 4531 
Q 2797 4531 3206 4154 
Q 3616 3782 3616 3142 
z
" transform="scale(0.015625)"/>
       <path id="AppleGothic-b8e8" d="M 6029 1587 
Q 5734 1587 5171 1606 
Q 4595 1626 4301 1626 
Q 4032 1626 3821 1619 
Q 3610 1613 3443 1600 
L 3443 518 
Q 3443 154 3449 -83 
Q 3456 -320 3469 -486 
L 2957 -506 
L 2982 1613 
L 1638 1600 
Q 1261 1600 960 1593 
Q 659 1587 378 1568 
L 378 2003 
Q 384 2003 486 2000 
Q 589 1997 794 1990 
Q 1005 1984 1245 1984 
Q 1485 1984 1760 1978 
Q 2042 1971 2387 1971 
Q 2733 1971 3155 1971 
Q 3565 1971 3881 1971 
Q 4198 1971 4422 1978 
Q 4646 1984 4873 1984 
Q 5101 1984 5331 1990 
Q 5562 1997 5738 2000 
Q 5914 2003 6029 2003 
L 6029 1587 
z
M 5152 2598 
L 3488 2618 
L 3232 2618 
Q 2854 2618 2560 2618 
Q 2266 2618 2048 2611 
Q 1830 2611 1616 2608 
Q 1402 2605 1190 2598 
Q 1203 2771 1206 2979 
Q 1210 3187 1210 3379 
L 1197 3981 
Q 1306 3981 1536 3977 
Q 1766 3974 2131 3968 
Q 2496 3962 2717 3962 
Q 2938 3962 3021 3962 
L 4614 3974 
L 4614 4576 
L 3898 4582 
L 1197 4550 
L 1197 4941 
Q 1325 4934 1424 4934 
Q 1523 4934 1606 4928 
Q 2138 4902 2515 4889 
Q 2893 4877 3130 4877 
L 3347 4877 
Q 3827 4877 4278 4883 
Q 4730 4890 5094 4902 
L 5075 4256 
L 5088 3622 
L 3078 3635 
Q 2810 3635 2598 3635 
Q 2387 3635 2240 3629 
Q 2093 3629 1949 3625 
Q 1805 3622 1664 3616 
L 1664 2976 
L 5152 2995 
L 5152 2598 
z
" transform="scale(0.015625)"/>
       <path id="AppleGothic-c0ac" d="M 6093 2061 
L 5139 2061 
L 5133 1024 
Q 5133 640 5139 240 
Q 5146 -160 5158 -493 
L 4685 -538 
Q 4685 -397 4685 -73 
Q 4685 250 4691 755 
Q 4698 1274 4701 1651 
Q 4704 2029 4704 2285 
Q 4704 2874 4697 3478 
Q 4691 4083 4685 4704 
Q 4685 4877 4675 4992 
Q 4666 5107 4653 5190 
Q 4877 5190 5037 5158 
Q 5197 5126 5197 5069 
Q 5152 4954 5152 4870 
L 5133 3955 
L 5139 2477 
L 6093 2477 
L 6093 2061 
z
M 3923 1331 
Q 3917 1312 3898 1293 
Q 3878 1267 3852 1244 
Q 3827 1222 3782 1197 
L 3584 1018 
Q 3533 1050 3491 1078 
Q 3450 1107 3418 1133 
Q 3014 1446 2675 1946 
Q 2605 2042 2541 2170 
Q 2477 2298 2406 2451 
Q 2336 2605 2291 2736 
Q 2246 2867 2221 2976 
Q 2106 2438 1581 1786 
Q 1312 1466 1059 1245 
Q 806 1024 544 896 
Q 518 909 476 941 
Q 435 973 371 1030 
Q 211 1165 211 1184 
Q 250 1222 256 1235 
Q 301 1235 557 1421 
Q 922 1683 1203 2010 
Q 1606 2477 1818 3078 
Q 1933 3405 1993 3830 
Q 2054 4256 2054 4640 
Q 2106 4640 2186 4630 
Q 2266 4621 2368 4595 
Q 2573 4550 2573 4486 
Q 2560 4454 2521 4361 
Q 2483 4269 2490 4173 
L 2432 3750 
Q 2458 3648 2474 3574 
Q 2490 3501 2502 3437 
Q 2598 3053 2829 2547 
Q 3072 2061 3494 1677 
Q 3565 1613 3657 1539 
Q 3750 1466 3872 1389 
Q 3885 1376 3897 1360 
Q 3910 1344 3923 1331 
z
" transform="scale(0.015625)"/>
       <path id="AppleGothic-ace0" d="M 6035 243 
L 5485 243 
L 4435 243 
Q 4090 250 3718 250 
Q 3347 250 2931 256 
Q 2400 256 2032 256 
Q 1664 256 1440 250 
Q 998 243 739 233 
Q 480 224 352 218 
L 352 698 
L 1606 666 
L 2656 672 
L 2656 2291 
L 2637 2765 
L 2669 2765 
Q 2880 2765 3027 2742 
Q 3174 2720 3174 2643 
Q 3174 2598 3168 2579 
Q 3136 2451 3136 2438 
L 3123 1363 
L 3136 666 
L 6035 704 
L 6035 243 
z
M 5306 4608 
Q 5306 3834 5219 3075 
Q 5133 2317 4954 1459 
L 4518 1523 
Q 4544 1651 4563 1750 
Q 4582 1850 4595 1933 
Q 4646 2240 4684 2461 
Q 4723 2682 4736 2829 
Q 4755 2976 4771 3193 
Q 4787 3411 4800 3699 
Q 4806 3878 4819 4179 
L 3642 4192 
Q 3411 4192 3059 4185 
Q 2707 4179 2234 4166 
Q 1280 4147 947 4147 
L 947 4589 
L 2528 4576 
L 5306 4608 
z
" transform="scale(0.015625)"/>
       <path id="AppleGothic-be44" d="M 2963 2157 
L 2957 2893 
L 954 2893 
L 973 1453 
L 1952 1434 
L 2957 1453 
L 2963 2157 
z
M 5453 5094 
Q 5453 5069 5433 5005 
Q 5414 4941 5414 4922 
L 5414 4416 
Q 5395 2554 5395 2253 
Q 5395 1357 5408 681 
Q 5421 6 5440 -557 
L 4941 -570 
Q 4947 -390 4947 -124 
Q 4947 141 4954 493 
Q 4960 851 4960 1129 
Q 4960 1408 4960 1613 
L 4960 2266 
Q 4960 2554 4957 2822 
Q 4954 3091 4947 3354 
Q 4941 3622 4937 3884 
Q 4934 4147 4934 4416 
Q 4928 4947 4915 5190 
L 5114 5197 
Q 5248 5197 5350 5174 
Q 5453 5152 5453 5094 
z
M 3450 1043 
L 506 1043 
L 518 2720 
Q 518 3360 512 3757 
Q 506 4154 493 4429 
L 877 4410 
Q 986 4410 986 4333 
Q 986 4307 970 4243 
Q 954 4179 954 4160 
L 954 3296 
Q 1114 3290 1344 3286 
Q 1574 3283 1971 3283 
L 2957 3296 
L 2938 4480 
L 3194 4486 
Q 3322 4486 3386 4467 
Q 3450 4448 3450 4390 
Q 3450 4371 3437 4313 
Q 3424 4256 3424 4230 
L 3418 3085 
Q 3418 2566 3424 2057 
Q 3430 1549 3450 1043 
z
" transform="scale(0.015625)"/>
       <path id="AppleGothic-c728" d="M 3859 2003 
Q 3859 2099 3852 2198 
Q 3846 2298 3834 2381 
L 3174 2368 
L 2515 2381 
L 2496 2003 
L 2509 1606 
L 3840 1606 
L 3859 2003 
z
M 4826 4128 
Q 4826 4480 4339 4602 
Q 4006 4685 3213 4685 
L 3066 4685 
Q 2752 4685 2502 4659 
Q 2253 4634 2061 4570 
Q 1587 4416 1587 4128 
Q 1587 3827 2131 3674 
Q 2355 3616 2627 3584 
Q 2899 3552 3213 3552 
Q 4826 3552 4826 4128 
z
M 6016 2362 
L 4288 2387 
L 4288 1613 
L 5037 1626 
L 5043 429 
L 1786 429 
L 1786 -128 
Q 1888 -134 2032 -134 
Q 2176 -134 2374 -134 
Q 2579 -141 2739 -141 
Q 2899 -141 3027 -141 
L 3315 -141 
Q 3750 -141 4144 -134 
Q 4538 -128 4902 -115 
Q 5030 -115 5203 -96 
L 5203 -461 
Q 4845 -448 4384 -441 
Q 3923 -435 3322 -435 
L 3040 -435 
L 2035 -435 
Q 1690 -448 1363 -454 
L 1357 749 
L 3136 736 
Q 3590 736 3932 742 
Q 4275 749 4602 768 
L 4602 1312 
L 3290 1325 
L 1325 1312 
L 1325 1626 
L 2067 1606 
L 2080 1997 
L 2067 2381 
L 384 2349 
L 384 2739 
Q 506 2733 608 2733 
Q 710 2733 800 2733 
Q 1408 2720 1894 2713 
Q 2381 2707 2752 2707 
L 3066 2707 
Q 3962 2707 4733 2723 
Q 5504 2739 6016 2752 
L 6016 2362 
z
M 5286 4134 
Q 5286 3629 4640 3386 
Q 4109 3194 3245 3194 
L 3091 3194 
Q 2675 3194 2342 3245 
Q 2010 3296 1747 3392 
Q 1126 3642 1126 4115 
Q 1126 4602 1779 4845 
Q 2317 5037 3219 5037 
Q 4090 5037 4608 4870 
Q 5286 4640 5286 4134 
z
" transform="scale(0.015625)"/>
      </defs>
      <use xlink:href="#AppleGothic-c74c"/>
      <use xlink:href="#AppleGothic-c8fc" transform="translate(99.999985 0)"/>
      <use xlink:href="#AppleGothic-c6b4" transform="translate(199.999969 0)"/>
      <use xlink:href="#AppleGothic-c804" transform="translate(299.999954 0)"/>
      <use xlink:href="#AppleGothic-20" transform="translate(399.999939 0)"/>
      <use xlink:href="#AppleGothic-c5f0" transform="translate(431.999924 0)"/>
      <use xlink:href="#AppleGothic-b8e8" transform="translate(531.999908 0)"/>
      <use xlink:href="#AppleGothic-20" transform="translate(631.999893 0)"/>
      <use xlink:href="#AppleGothic-c0ac" transform="translate(663.999878 0)"/>
      <use xlink:href="#AppleGothic-ace0" transform="translate(763.999863 0)"/>
      <use xlink:href="#AppleGothic-20" transform="translate(863.999847 0)"/>
      <use xlink:href="#AppleGothic-be44" transform="translate(895.999832 0)"/>
      <use xlink:href="#AppleGothic-c728" transform="translate(995.999817 0)"/>
     </g>
    </g>
   </g>
   <g id="matplotlib.axis_2">
    <g id="ytick_1">
     <g id="line2d_11">
      <path d="M 47.133125 392.391427 
L 629.253125 392.391427 
" clip-path="url(#p615a74261a)" style="fill: none; stroke-dasharray: 3.7,1.6; stroke-dashoffset: 0; stroke: #cccccc; stroke-opacity: 0.5"/>
     </g>
     <g id="line2d_12">
      <defs>
       <path id="me690000082" d="M 0 0 
L -6 0 
" style="stroke: #262626; stroke-width: 1.25"/>
      </defs>
      <g>
       <use xlink:href="#me690000082" x="47.133125" y="392.391427" style="fill: #262626; stroke: #262626; stroke-width: 1.25"/>
      </g>
     </g>
     <g id="text_7">
      <!-- 5 -->
      <g style="fill: #262626" transform="translate(30.153125 396.70377) scale(0.11 -0.11)">
       <defs>
        <path id="AppleGothic-35" d="M 621 4768 
L 3488 4768 
L 3488 4339 
L 1088 4339 
L 1088 2707 
Q 1184 2771 1293 2819 
Q 1402 2867 1510 2912 
Q 1862 3040 2259 3040 
Q 2989 3040 3424 2605 
Q 3827 2202 3827 1581 
Q 3827 870 3296 397 
Q 2765 -83 2010 -83 
Q 1651 -83 1248 45 
Q 1158 77 1001 137 
Q 845 198 621 301 
L 621 838 
Q 928 640 1203 525 
Q 1408 435 1613 390 
Q 1818 346 2010 346 
Q 2528 346 2906 666 
Q 3322 1011 3322 1536 
Q 3322 1990 3021 2291 
Q 2701 2611 2144 2611 
Q 1856 2611 1587 2528 
Q 1318 2445 1088 2272 
L 621 2272 
L 621 4768 
z
" transform="scale(0.015625)"/>
       </defs>
       <use xlink:href="#AppleGothic-35"/>
      </g>
     </g>
    </g>
    <g id="ytick_2">
     <g id="line2d_13">
      <path d="M 47.133125 320.875925 
L 629.253125 320.875925 
" clip-path="url(#p615a74261a)" style="fill: none; stroke-dasharray: 3.7,1.6; stroke-dashoffset: 0; stroke: #cccccc; stroke-opacity: 0.5"/>
     </g>
     <g id="line2d_14">
      <g>
       <use xlink:href="#me690000082" x="47.133125" y="320.875925" style="fill: #262626; stroke: #262626; stroke-width: 1.25"/>
      </g>
     </g>
     <g id="text_8">
      <!-- 10 -->
      <g style="fill: #262626" transform="translate(22.673125 325.188269) scale(0.11 -0.11)">
       <use xlink:href="#AppleGothic-31"/>
       <use xlink:href="#AppleGothic-30" transform="translate(67.999985 0)"/>
      </g>
     </g>
    </g>
    <g id="ytick_3">
     <g id="line2d_15">
      <path d="M 47.133125 249.360423 
L 629.253125 249.360423 
" clip-path="url(#p615a74261a)" style="fill: none; stroke-dasharray: 3.7,1.6; stroke-dashoffset: 0; stroke: #cccccc; stroke-opacity: 0.5"/>
     </g>
     <g id="line2d_16">
      <g>
       <use xlink:href="#me690000082" x="47.133125" y="249.360423" style="fill: #262626; stroke: #262626; stroke-width: 1.25"/>
      </g>
     </g>
     <g id="text_9">
      <!-- 15 -->
      <g style="fill: #262626" transform="translate(22.673125 253.672767) scale(0.11 -0.11)">
       <use xlink:href="#AppleGothic-31"/>
       <use xlink:href="#AppleGothic-35" transform="translate(67.999985 0)"/>
      </g>
     </g>
    </g>
    <g id="ytick_4">
     <g id="line2d_17">
      <path d="M 47.133125 177.844921 
L 629.253125 177.844921 
" clip-path="url(#p615a74261a)" style="fill: none; stroke-dasharray: 3.7,1.6; stroke-dashoffset: 0; stroke: #cccccc; stroke-opacity: 0.5"/>
     </g>
     <g id="line2d_18">
      <g>
       <use xlink:href="#me690000082" x="47.133125" y="177.844921" style="fill: #262626; stroke: #262626; stroke-width: 1.25"/>
      </g>
     </g>
     <g id="text_10">
      <!-- 20 -->
      <g style="fill: #262626" transform="translate(22.673125 182.157265) scale(0.11 -0.11)">
       <use xlink:href="#AppleGothic-32"/>
       <use xlink:href="#AppleGothic-30" transform="translate(67.999985 0)"/>
      </g>
     </g>
    </g>
    <g id="ytick_5">
     <g id="line2d_19">
      <path d="M 47.133125 106.32942 
L 629.253125 106.32942 
" clip-path="url(#p615a74261a)" style="fill: none; stroke-dasharray: 3.7,1.6; stroke-dashoffset: 0; stroke: #cccccc; stroke-opacity: 0.5"/>
     </g>
     <g id="line2d_20">
      <g>
       <use xlink:href="#me690000082" x="47.133125" y="106.32942" style="fill: #262626; stroke: #262626; stroke-width: 1.25"/>
      </g>
     </g>
     <g id="text_11">
      <!-- 25 -->
      <g style="fill: #262626" transform="translate(22.673125 110.641763) scale(0.11 -0.11)">
       <use xlink:href="#AppleGothic-32"/>
       <use xlink:href="#AppleGothic-35" transform="translate(67.999985 0)"/>
      </g>
     </g>
    </g>
    <g id="ytick_6">
     <g id="line2d_21">
      <path d="M 47.133125 34.813918 
L 629.253125 34.813918 
" clip-path="url(#p615a74261a)" style="fill: none; stroke-dasharray: 3.7,1.6; stroke-dashoffset: 0; stroke: #cccccc; stroke-opacity: 0.5"/>
     </g>
     <g id="line2d_22">
      <g>
       <use xlink:href="#me690000082" x="47.133125" y="34.813918" style="fill: #262626; stroke: #262626; stroke-width: 1.25"/>
      </g>
     </g>
     <g id="text_12">
      <!-- 30 -->
      <g style="fill: #262626" transform="translate(22.673125 39.126262) scale(0.11 -0.11)">
       <defs>
        <path id="AppleGothic-33" d="M 550 333 
L 550 870 
Q 883 621 1235 483 
Q 1587 346 1971 346 
Q 2522 346 2861 666 
Q 3219 992 3219 1421 
Q 3219 1869 2842 2099 
Q 2515 2304 1965 2304 
L 992 2304 
L 992 2701 
L 1658 2701 
Q 2298 2701 2662 2928 
Q 3027 3155 3027 3584 
Q 3027 3936 2752 4173 
Q 2458 4429 1978 4429 
Q 1786 4429 1597 4393 
Q 1408 4358 1222 4282 
Q 890 4141 531 3872 
L 531 4422 
Q 736 4531 912 4608 
Q 1088 4685 1254 4736 
Q 1626 4858 2022 4858 
Q 2650 4858 3066 4531 
Q 3488 4211 3488 3642 
Q 3488 3168 3168 2861 
Q 2976 2675 2643 2554 
Q 2874 2522 3053 2448 
Q 3232 2374 3366 2266 
Q 3718 1971 3718 1434 
Q 3718 813 3219 365 
Q 2714 -83 1965 -83 
Q 1549 -83 1126 70 
Q 1024 102 880 166 
Q 736 230 550 333 
z
" transform="scale(0.015625)"/>
       </defs>
       <use xlink:href="#AppleGothic-33"/>
       <use xlink:href="#AppleGothic-30" transform="translate(67.999985 0)"/>
      </g>
     </g>
    </g>
    <g id="text_13">
     <!-- 총 사망자 수 (Total) -->
     <g style="fill: #262626" transform="translate(16.60875 266.722812) rotate(-90) scale(0.12 -0.12)">
      <defs>
       <path id="AppleGothic-cd1d" d="M 4883 333 
Q 4883 646 4422 794 
Q 4198 870 3913 905 
Q 3629 941 3277 941 
L 3142 941 
Q 2810 941 2554 915 
Q 2298 890 2112 832 
Q 1632 678 1632 339 
Q 1632 70 2131 -64 
Q 2349 -115 2640 -144 
Q 2931 -173 3309 -173 
Q 4122 -173 4502 -35 
Q 4883 102 4883 333 
z
M 5338 339 
Q 5338 -147 4678 -365 
Q 4166 -538 3322 -538 
Q 2368 -538 1811 -346 
Q 1165 -115 1165 339 
Q 1165 570 1309 746 
Q 1453 922 1728 1040 
Q 2003 1158 2393 1216 
Q 2784 1274 3283 1274 
Q 4179 1274 4717 1056 
Q 5338 806 5338 339 
z
M 5997 1805 
Q 5888 1811 5798 1811 
Q 5709 1811 5638 1811 
Q 5056 1824 4595 1833 
Q 4134 1843 3782 1843 
L 3283 1843 
Q 2778 1843 2288 1833 
Q 1798 1824 1299 1811 
Q 966 1805 442 1773 
L 442 2182 
Q 512 2176 569 2173 
Q 627 2170 678 2170 
Q 986 2157 1280 2147 
Q 1574 2138 1862 2138 
Q 2246 2138 2518 2144 
Q 2790 2150 3034 2170 
L 3040 2592 
L 3027 2854 
Q 3027 2906 3066 2906 
Q 3123 2899 3206 2889 
Q 3290 2880 3418 2880 
Q 3520 2880 3520 2810 
Q 3520 2790 3504 2704 
Q 3488 2618 3488 2579 
L 3488 2157 
L 4883 2157 
Q 5120 2157 5293 2157 
Q 5466 2157 5581 2163 
Q 5696 2170 5801 2173 
Q 5907 2176 5997 2189 
L 5997 1805 
z
M 5542 2976 
L 5286 2637 
Q 5222 2643 5168 2649 
Q 5114 2656 5062 2669 
Q 4794 2720 4538 2819 
Q 4282 2918 4019 3066 
Q 3686 3270 3360 3597 
Q 3309 3648 3232 3744 
Q 3181 3674 3139 3619 
Q 3098 3565 3059 3520 
Q 2931 3379 2780 3257 
Q 2630 3136 2445 3027 
Q 2131 2835 1587 2688 
Q 1498 2662 1386 2640 
Q 1274 2618 1126 2592 
Q 1120 2605 1113 2617 
Q 1107 2630 1101 2643 
Q 1088 2662 1062 2694 
Q 1037 2726 998 2778 
L 934 2842 
Q 864 2912 864 2938 
Q 890 2976 902 2976 
Q 1498 2976 2061 3213 
Q 2707 3482 2950 3981 
L 2125 3987 
L 1120 3974 
L 1120 4333 
Q 1325 4326 1584 4320 
Q 1843 4314 2170 4307 
Q 2496 4301 2774 4301 
Q 3053 4301 3277 4301 
Q 3930 4301 4435 4313 
Q 4941 4326 5331 4339 
L 5331 3981 
L 4454 4006 
L 4282 4006 
Q 3981 4006 3814 4003 
Q 3648 4000 3488 3987 
Q 3539 3917 3584 3859 
Q 3629 3802 3680 3750 
Q 3770 3667 3866 3590 
Q 3962 3514 4083 3437 
Q 4461 3200 5018 3078 
Q 5114 3066 5235 3046 
Q 5357 3027 5504 3014 
Q 5510 3008 5516 3005 
Q 5523 3002 5530 2995 
Q 5536 2989 5536 2985 
Q 5536 2982 5542 2976 
z
M 3910 4845 
L 3206 4851 
L 2496 4838 
L 2496 5171 
L 3174 5158 
Q 3328 5158 3533 5164 
Q 3738 5171 3910 5184 
L 3910 4845 
z
" transform="scale(0.015625)"/>
       <path id="AppleGothic-b9dd" d="M 4826 531 
Q 4826 870 4448 1014 
Q 4070 1158 3302 1158 
Q 2490 1158 2144 1008 
Q 1798 858 1798 544 
Q 1798 51 2643 -90 
Q 2810 -122 2973 -131 
Q 3136 -141 3302 -141 
Q 4006 -141 4390 19 
Q 4826 192 4826 531 
z
M 2931 2477 
L 2931 4282 
L 2342 4294 
L 1178 4282 
L 1178 2470 
L 2035 2458 
L 2931 2477 
z
M 5325 531 
Q 5325 51 4790 -221 
Q 4256 -493 3302 -493 
Q 2477 -493 1933 -250 
Q 1312 19 1312 531 
Q 1312 1114 1958 1344 
Q 2195 1434 2531 1475 
Q 2867 1517 3309 1517 
Q 4288 1517 4806 1270 
Q 5325 1024 5325 531 
z
M 3386 2048 
L 2208 2054 
L 736 2042 
L 755 3270 
L 736 4717 
Q 806 4717 947 4713 
Q 1088 4710 1312 4704 
Q 1536 4698 1677 4698 
Q 1818 4698 1882 4698 
L 3386 4717 
L 3366 3206 
Q 3366 2790 3372 2521 
Q 3379 2253 3386 2048 
z
M 6061 2970 
L 5133 2995 
L 5133 2746 
Q 5133 2362 5152 1875 
Q 5152 1824 5155 1766 
Q 5158 1709 5165 1638 
L 4672 1613 
L 4698 3680 
Q 4698 3987 4694 4220 
Q 4691 4454 4685 4621 
Q 4678 4787 4672 4924 
Q 4666 5062 4659 5190 
L 4755 5190 
Q 4922 5190 5059 5164 
Q 5197 5139 5197 5075 
Q 5197 5050 5171 4957 
Q 5146 4864 5146 4787 
L 5133 3386 
L 6061 3398 
L 6061 2970 
z
" transform="scale(0.015625)"/>
       <path id="AppleGothic-c790" d="M 6010 2067 
L 5139 2067 
L 5126 1037 
L 5139 -531 
L 4653 -531 
L 4672 4717 
Q 4672 4960 4665 5056 
Q 4659 5152 4646 5190 
L 4832 5197 
Q 4966 5197 5078 5174 
Q 5190 5152 5190 5101 
Q 5190 5075 5164 4998 
Q 5139 4922 5139 4883 
L 5126 3968 
L 5139 2470 
L 6010 2483 
L 6010 2067 
z
M 4218 1158 
Q 4211 1120 4195 1107 
Q 4179 1094 4144 1072 
Q 4109 1050 4057 1008 
Q 4006 966 3930 883 
Q 3923 870 3885 832 
Q 3814 877 3760 909 
Q 3706 941 3661 973 
Q 3392 1158 3174 1369 
Q 2957 1581 2790 1818 
Q 2720 1914 2643 2045 
Q 2566 2176 2477 2349 
Q 2445 2406 2406 2486 
Q 2368 2566 2317 2662 
Q 2285 2592 2259 2534 
Q 2234 2477 2208 2426 
Q 2061 2157 1901 1926 
Q 1741 1696 1568 1510 
Q 1446 1382 1289 1235 
Q 1133 1088 928 922 
Q 858 864 736 768 
Q 685 819 666 832 
Q 582 915 531 934 
Q 326 1011 326 1050 
Q 326 1056 358 1088 
Q 371 1101 387 1110 
Q 403 1120 416 1133 
Q 538 1222 627 1292 
Q 717 1363 787 1414 
Q 1197 1741 1402 2003 
Q 1766 2458 1942 2922 
Q 2118 3386 2118 3936 
L 2106 4218 
L 1568 4224 
L 646 4198 
L 646 4640 
Q 960 4627 1347 4620 
Q 1734 4614 2144 4614 
L 2330 4614 
Q 2803 4614 3212 4627 
Q 3622 4640 4000 4659 
L 4000 4230 
L 3296 4237 
L 2592 4218 
Q 2579 4122 2576 4042 
Q 2573 3962 2566 3898 
Q 2554 3712 2547 3561 
Q 2541 3411 2541 3296 
Q 2592 2995 2778 2656 
Q 2861 2502 2969 2342 
Q 3078 2182 3213 2003 
Q 3334 1850 3472 1715 
Q 3610 1581 3757 1466 
Q 3808 1434 3872 1389 
Q 3936 1344 4019 1293 
Q 4026 1286 4128 1235 
Q 4218 1184 4218 1158 
z
" transform="scale(0.015625)"/>
       <path id="AppleGothic-c218" d="M 6022 1952 
L 3411 1952 
L 3424 896 
L 3462 -582 
L 2982 -582 
L 2982 1952 
Q 2912 1952 2774 1949 
Q 2637 1946 2419 1939 
Q 2208 1933 2086 1933 
Q 1965 1933 1933 1933 
L 378 1894 
L 378 2304 
L 3206 2298 
Q 3706 2298 4202 2307 
Q 4698 2317 5184 2330 
Q 5536 2342 6022 2368 
L 6022 1952 
z
M 5792 3482 
Q 5792 3450 5747 3402 
Q 5702 3354 5658 3315 
L 5523 3117 
Q 5453 3123 5395 3126 
Q 5338 3130 5286 3142 
Q 4685 3251 4090 3610 
Q 3699 3846 3411 4250 
Q 3360 4320 3312 4409 
Q 3264 4499 3206 4621 
Q 3149 4512 3097 4422 
Q 3046 4333 2995 4262 
Q 2688 3846 2208 3552 
Q 2054 3450 1875 3370 
Q 1696 3290 1498 3219 
Q 1382 3181 1232 3142 
Q 1082 3104 896 3072 
Q 896 3072 873 3101 
Q 851 3130 828 3162 
Q 806 3194 780 3226 
Q 755 3258 749 3270 
Q 736 3290 678 3347 
Q 621 3405 621 3424 
L 640 3443 
Q 730 3450 810 3453 
Q 890 3456 954 3469 
Q 1338 3526 1674 3676 
Q 2010 3827 2298 4077 
Q 2605 4326 2790 4659 
Q 2842 4755 2886 4880 
Q 2931 5005 2970 5171 
L 3411 5133 
Q 3475 5133 3475 5075 
Q 3475 5056 3472 5037 
Q 3469 5018 3462 4992 
Q 3462 4973 3443 4947 
Q 3482 4832 3520 4755 
Q 3738 4301 4230 3974 
Q 4659 3686 5261 3571 
Q 5363 3552 5488 3536 
Q 5613 3520 5766 3507 
Q 5786 3507 5792 3482 
z
" transform="scale(0.015625)"/>
       <path id="AppleGothic-28" d="M 2227 5261 
L 2650 5261 
Q 2342 4768 2169 4473 
Q 1997 4179 1958 4083 
Q 1606 3283 1606 2272 
Q 1606 1587 1754 1018 
Q 1882 570 2138 102 
Q 2150 70 2275 -131 
Q 2400 -333 2630 -717 
L 2227 -717 
Q 2099 -531 1980 -355 
Q 1862 -179 1734 0 
Q 1581 243 1469 483 
Q 1357 723 1274 954 
Q 1069 1587 1069 2272 
Q 1069 2963 1261 3558 
Q 1338 3789 1450 4022 
Q 1562 4256 1715 4499 
Q 1843 4691 1971 4880 
Q 2099 5069 2227 5261 
z
" transform="scale(0.015625)"/>
       <path id="AppleGothic-54" d="M 166 5018 
L 4038 5018 
L 4038 4576 
L 2355 4576 
L 2355 0 
L 1856 0 
L 1856 4576 
L 166 4576 
L 166 5018 
z
" transform="scale(0.015625)"/>
       <path id="AppleGothic-6f" d="M 1888 -83 
Q 1229 -83 730 397 
Q 198 902 198 1709 
Q 198 2470 666 2982 
Q 1146 3501 1850 3501 
Q 2547 3501 3027 2982 
Q 3501 2470 3501 1715 
Q 3501 922 2989 403 
Q 2515 -83 1888 -83 
z
M 1843 339 
Q 2304 339 2662 723 
Q 3008 1114 3008 1715 
Q 3008 2336 2637 2726 
Q 2298 3085 1850 3085 
Q 1389 3085 1062 2714 
Q 704 2304 704 1709 
Q 704 1107 1056 704 
Q 1382 339 1843 339 
z
" transform="scale(0.015625)"/>
       <path id="AppleGothic-74" d="M 691 4435 
L 1114 4435 
L 1114 3430 
L 2016 3430 
L 2016 3014 
L 1114 3014 
L 1114 838 
Q 1114 570 1213 454 
Q 1312 339 1555 339 
Q 1696 339 1795 371 
Q 1894 403 2016 454 
L 2016 38 
Q 1914 6 1770 -22 
Q 1626 -51 1478 -51 
Q 1094 -51 883 122 
Q 646 301 646 698 
L 646 3014 
L 70 3014 
L 70 3430 
L 646 3430 
L 691 4435 
z
" transform="scale(0.015625)"/>
       <path id="AppleGothic-61" d="M 2950 2214 
L 2950 602 
Q 2950 493 2998 413 
Q 3046 333 3174 333 
Q 3213 333 3238 336 
Q 3264 339 3290 346 
Q 3328 358 3357 371 
Q 3386 384 3405 390 
L 3405 32 
Q 3290 -6 3174 -22 
Q 3059 -38 2995 -38 
Q 2669 -38 2566 134 
Q 2483 243 2483 602 
Q 2400 461 2317 355 
Q 2234 250 2150 179 
Q 1818 -83 1376 -83 
Q 909 -83 563 192 
Q 205 486 205 941 
Q 205 1510 781 1779 
Q 992 1882 1341 1958 
Q 1690 2035 2176 2099 
L 2483 2131 
Q 2483 2579 2256 2832 
Q 2029 3085 1587 3085 
Q 1421 3085 1257 3043 
Q 1094 3002 928 2912 
Q 838 2861 729 2790 
Q 621 2720 493 2611 
L 493 3136 
Q 1037 3501 1664 3501 
Q 2304 3501 2650 3098 
Q 2950 2746 2950 2214 
z
M 2483 1542 
L 2483 1747 
L 2266 1722 
Q 1466 1638 1139 1498 
Q 704 1325 704 934 
Q 704 819 755 713 
Q 806 608 896 525 
Q 986 442 1117 390 
Q 1248 339 1408 339 
Q 1843 339 2170 691 
Q 2483 1050 2483 1542 
z
" transform="scale(0.015625)"/>
       <path id="AppleGothic-6c" d="M 288 5018 
L 749 5018 
L 749 0 
L 288 0 
L 288 5018 
z
" transform="scale(0.015625)"/>
       <path id="AppleGothic-29" d="M 2221 2272 
Q 2221 1587 2016 960 
Q 1862 499 1555 6 
Q 1427 -179 1305 -355 
Q 1184 -531 1062 -717 
L 659 -717 
Q 781 -512 902 -310 
Q 1024 -109 1152 96 
Q 1280 333 1376 557 
Q 1472 781 1530 1005 
Q 1683 1562 1683 2272 
Q 1683 2650 1641 2973 
Q 1600 3296 1517 3584 
Q 1459 3802 1356 4029 
Q 1254 4256 1120 4499 
Q 992 4691 873 4880 
Q 755 5069 640 5261 
L 1062 5261 
Q 1190 5069 1315 4880 
Q 1440 4691 1568 4506 
Q 1722 4256 1837 4022 
Q 1952 3789 2022 3565 
Q 2221 2976 2221 2272 
z
" transform="scale(0.015625)"/>
      </defs>
      <use xlink:href="#AppleGothic-cd1d"/>
      <use xlink:href="#AppleGothic-20" transform="translate(99.999985 0)"/>
      <use xlink:href="#AppleGothic-c0ac" transform="translate(131.999969 0)"/>
      <use xlink:href="#AppleGothic-b9dd" transform="translate(231.999954 0)"/>
      <use xlink:href="#AppleGothic-c790" transform="translate(331.999939 0)"/>
      <use xlink:href="#AppleGothic-20" transform="translate(431.999924 0)"/>
      <use xlink:href="#AppleGothic-c218" transform="translate(463.999908 0)"/>
      <use xlink:href="#AppleGothic-20" transform="translate(563.999893 0)"/>
      <use xlink:href="#AppleGothic-28" transform="translate(595.999878 0)"/>
      <use xlink:href="#AppleGothic-54" transform="translate(645.999863 0)"/>
      <use xlink:href="#AppleGothic-6f" transform="translate(712.099854 0)"/>
      <use xlink:href="#AppleGothic-74" transform="translate(770.399841 0)"/>
      <use xlink:href="#AppleGothic-61" transform="translate(804.599838 0)"/>
      <use xlink:href="#AppleGothic-6c" transform="translate(861.099823 0)"/>
      <use xlink:href="#AppleGothic-29" transform="translate(877.79982 0)"/>
     </g>
    </g>
   </g>
   <g id="PathCollection_1">
    <defs>
     <path id="m01b1dd068c" d="M 0 3.535534 
C 0.937635 3.535534 1.836992 3.163008 2.5 2.5 
C 3.163008 1.836992 3.535534 0.937635 3.535534 0 
C 3.535534 -0.937635 3.163008 -1.836992 2.5 -2.5 
C 1.836992 -3.163008 0.937635 -3.535534 0 -3.535534 
C -0.937635 -3.535534 -1.836992 -3.163008 -2.5 -2.5 
C -3.163008 -1.836992 -3.535534 -0.937635 -3.535534 0 
C -3.535534 0.937635 -3.163008 1.836992 -2.5 2.5 
C -1.836992 3.163008 -0.937635 3.535534 0 3.535534 
z
" style="stroke: #000000; stroke-opacity: 0.6"/>
    </defs>
    <g clip-path="url(#p615a74261a)">
     <use xlink:href="#m01b1dd068c" x="327.195541" y="195.008642" style="fill-opacity: 0.6; stroke: #000000; stroke-opacity: 0.6"/>
     <use xlink:href="#m01b1dd068c" x="257.324848" y="205.020812" style="fill-opacity: 0.6; stroke: #000000; stroke-opacity: 0.6"/>
     <use xlink:href="#m01b1dd068c" x="300.124564" y="197.869262" style="fill-opacity: 0.6; stroke: #000000; stroke-opacity: 0.6"/>
     <use xlink:href="#m01b1dd068c" x="338.725772" y="143.517481" style="fill-opacity: 0.6; stroke: #000000; stroke-opacity: 0.6"/>
     <use xlink:href="#m01b1dd068c" x="184.32094" y="292.269724" style="fill-opacity: 0.6; stroke: #000000; stroke-opacity: 0.6"/>
     <use xlink:href="#m01b1dd068c" x="212.394546" y="269.384764" style="fill-opacity: 0.6; stroke: #000000; stroke-opacity: 0.6"/>
     <use xlink:href="#m01b1dd068c" x="217.40769" y="309.433445" style="fill-opacity: 0.6; stroke: #000000; stroke-opacity: 0.6"/>
     <use xlink:href="#m01b1dd068c" x="278.317388" y="232.196703" style="fill-opacity: 0.6; stroke: #000000; stroke-opacity: 0.6"/>
     <use xlink:href="#m01b1dd068c" x="73.593125" y="379.518636" style="fill-opacity: 0.6; stroke: #000000; stroke-opacity: 0.6"/>
     <use xlink:href="#m01b1dd068c" x="299.059271" y="207.881432" style="fill-opacity: 0.6; stroke: #000000; stroke-opacity: 0.6"/>
     <use xlink:href="#m01b1dd068c" x="218.159661" y="240.778563" style="fill-opacity: 0.6; stroke: #000000; stroke-opacity: 0.6"/>
     <use xlink:href="#m01b1dd068c" x="423.385239" y="213.602672" style="fill-opacity: 0.6; stroke: #000000; stroke-opacity: 0.6"/>
     <use xlink:href="#m01b1dd068c" x="251.81039" y="245.069493" style="fill-opacity: 0.6; stroke: #000000; stroke-opacity: 0.6"/>
     <use xlink:href="#m01b1dd068c" x="246.483924" y="280.827244" style="fill-opacity: 0.6; stroke: #000000; stroke-opacity: 0.6"/>
     <use xlink:href="#m01b1dd068c" x="237.272272" y="256.511973" style="fill-opacity: 0.6; stroke: #000000; stroke-opacity: 0.6"/>
     <use xlink:href="#m01b1dd068c" x="219.726269" y="239.348253" style="fill-opacity: 0.6; stroke: #000000; stroke-opacity: 0.6"/>
     <use xlink:href="#m01b1dd068c" x="241.47078" y="209.311742" style="fill-opacity: 0.6; stroke: #000000; stroke-opacity: 0.6"/>
     <use xlink:href="#m01b1dd068c" x="282.202574" y="157.820581" style="fill-opacity: 0.6; stroke: #000000; stroke-opacity: 0.6"/>
     <use xlink:href="#m01b1dd068c" x="397.692876" y="170.693371" style="fill-opacity: 0.6; stroke: #000000; stroke-opacity: 0.6"/>
     <use xlink:href="#m01b1dd068c" x="257.638169" y="247.930113" style="fill-opacity: 0.6; stroke: #000000; stroke-opacity: 0.6"/>
     <use xlink:href="#m01b1dd068c" x="224.426091" y="285.118174" style="fill-opacity: 0.6; stroke: #000000; stroke-opacity: 0.6"/>
     <use xlink:href="#m01b1dd068c" x="153.615434" y="346.621506" style="fill-opacity: 0.6; stroke: #000000; stroke-opacity: 0.6"/>
     <use xlink:href="#m01b1dd068c" x="221.167548" y="262.233213" style="fill-opacity: 0.6; stroke: #000000; stroke-opacity: 0.6"/>
     <use xlink:href="#m01b1dd068c" x="148.226304" y="326.597165" style="fill-opacity: 0.6; stroke: #000000; stroke-opacity: 0.6"/>
     <use xlink:href="#m01b1dd068c" x="315.66531" y="212.172362" style="fill-opacity: 0.6; stroke: #000000; stroke-opacity: 0.6"/>
     <use xlink:href="#m01b1dd068c" x="316.793267" y="233.627013" style="fill-opacity: 0.6; stroke: #000000; stroke-opacity: 0.6"/>
     <use xlink:href="#m01b1dd068c" x="563.815931" y="157.820581" style="fill-opacity: 0.6; stroke: #000000; stroke-opacity: 0.6"/>
     <use xlink:href="#m01b1dd068c" x="300.563214" y="250.790733" style="fill-opacity: 0.6; stroke: #000000; stroke-opacity: 0.6"/>
     <use xlink:href="#m01b1dd068c" x="268.541757" y="253.651353" style="fill-opacity: 0.6; stroke: #000000; stroke-opacity: 0.6"/>
     <use xlink:href="#m01b1dd068c" x="191.840656" y="297.990964" style="fill-opacity: 0.6; stroke: #000000; stroke-opacity: 0.6"/>
     <use xlink:href="#m01b1dd068c" x="170.284137" y="303.712205" style="fill-opacity: 0.6; stroke: #000000; stroke-opacity: 0.6"/>
     <use xlink:href="#m01b1dd068c" x="285.085132" y="200.729882" style="fill-opacity: 0.6; stroke: #000000; stroke-opacity: 0.6"/>
     <use xlink:href="#m01b1dd068c" x="197.29245" y="287.978794" style="fill-opacity: 0.6; stroke: #000000; stroke-opacity: 0.6"/>
     <use xlink:href="#m01b1dd068c" x="300.124564" y="223.614843" style="fill-opacity: 0.6; stroke: #000000; stroke-opacity: 0.6"/>
     <use xlink:href="#m01b1dd068c" x="602.793125" y="122.06283" style="fill-opacity: 0.6; stroke: #000000; stroke-opacity: 0.6"/>
     <use xlink:href="#m01b1dd068c" x="274.181544" y="262.233213" style="fill-opacity: 0.6; stroke: #000000; stroke-opacity: 0.6"/>
     <use xlink:href="#m01b1dd068c" x="335.404564" y="179.275231" style="fill-opacity: 0.6; stroke: #000000; stroke-opacity: 0.6"/>
     <use xlink:href="#m01b1dd068c" x="182.315683" y="280.827244" style="fill-opacity: 0.6; stroke: #000000; stroke-opacity: 0.6"/>
     <use xlink:href="#m01b1dd068c" x="327.320869" y="203.590502" style="fill-opacity: 0.6; stroke: #000000; stroke-opacity: 0.6"/>
     <use xlink:href="#m01b1dd068c" x="238.086908" y="305.142515" style="fill-opacity: 0.6; stroke: #000000; stroke-opacity: 0.6"/>
     <use xlink:href="#m01b1dd068c" x="587.816358" y="122.06283" style="fill-opacity: 0.6; stroke: #000000; stroke-opacity: 0.6"/>
     <use xlink:href="#m01b1dd068c" x="374.945736" y="186.426782" style="fill-opacity: 0.6; stroke: #000000; stroke-opacity: 0.6"/>
     <use xlink:href="#m01b1dd068c" x="328.135505" y="184.996472" style="fill-opacity: 0.6; stroke: #000000; stroke-opacity: 0.6"/>
     <use xlink:href="#m01b1dd068c" x="435.730105" y="186.426782" style="fill-opacity: 0.6; stroke: #000000; stroke-opacity: 0.6"/>
     <use xlink:href="#m01b1dd068c" x="87.065949" y="302.281894" style="fill-opacity: 0.6; stroke: #000000; stroke-opacity: 0.6"/>
     <use xlink:href="#m01b1dd068c" x="229.439235" y="269.384764" style="fill-opacity: 0.6; stroke: #000000; stroke-opacity: 0.6"/>
     <use xlink:href="#m01b1dd068c" x="188.644777" y="282.257554" style="fill-opacity: 0.6; stroke: #000000; stroke-opacity: 0.6"/>
     <use xlink:href="#m01b1dd068c" x="192.968613" y="312.294065" style="fill-opacity: 0.6; stroke: #000000; stroke-opacity: 0.6"/>
     <use xlink:href="#m01b1dd068c" x="391.363782" y="123.49314" style="fill-opacity: 0.6; stroke: #000000; stroke-opacity: 0.6"/>
     <use xlink:href="#m01b1dd068c" x="259.142113" y="266.524144" style="fill-opacity: 0.6; stroke: #000000; stroke-opacity: 0.6"/>
     <use xlink:href="#m01b1dd068c" x="322.683711" y="215.032982" style="fill-opacity: 0.6; stroke: #000000; stroke-opacity: 0.6"/>
    </g>
   </g>
   <g id="FillBetweenPolyCollection_1">
    <defs>
     <path id="m1d84f03be4" d="M 73.593125 -124.853849 
L 73.593125 -80.853182 
L 78.93858 -83.946406 
L 84.284034 -86.913031 
L 89.629489 -90.127981 
L 94.974943 -93.265777 
L 100.320398 -96.444472 
L 105.665852 -99.722944 
L 111.011307 -102.803348 
L 116.356761 -106.096219 
L 121.702216 -109.145402 
L 127.04767 -112.201118 
L 132.393125 -115.482936 
L 137.73858 -118.672681 
L 143.084034 -121.848471 
L 148.429489 -124.914711 
L 153.774943 -127.937272 
L 159.120398 -130.965446 
L 164.465852 -133.993621 
L 169.811307 -137.054696 
L 175.156761 -139.874876 
L 180.502216 -142.678405 
L 185.84767 -145.552162 
L 191.193125 -148.581296 
L 196.53858 -151.599777 
L 201.884034 -154.263652 
L 207.229489 -157.324732 
L 212.574943 -160.272546 
L 217.920398 -163.051673 
L 223.265852 -165.833805 
L 228.611307 -168.537337 
L 233.956761 -171.241856 
L 239.302216 -173.708589 
L 244.64767 -176.44047 
L 249.993125 -179.046551 
L 255.33858 -181.554234 
L 260.684034 -184.081751 
L 266.029489 -186.592038 
L 271.374943 -189.113267 
L 276.720398 -191.627207 
L 282.065852 -194.071682 
L 287.411307 -196.654163 
L 292.756761 -198.994538 
L 298.102216 -201.390139 
L 303.44767 -203.830232 
L 308.793125 -206.195918 
L 314.13858 -208.463678 
L 319.484034 -210.621998 
L 324.829489 -212.984937 
L 330.174943 -215.347875 
L 335.520398 -217.634671 
L 340.865852 -219.731919 
L 346.211307 -221.978261 
L 351.556761 -224.131054 
L 356.902216 -226.345188 
L 362.24767 -228.598538 
L 367.593125 -230.874044 
L 372.93858 -233.202313 
L 378.284034 -235.423311 
L 383.629489 -237.78194 
L 388.974943 -239.969199 
L 394.320398 -242.093866 
L 399.665852 -244.440101 
L 405.011307 -246.637779 
L 410.356761 -248.783974 
L 415.702216 -250.848428 
L 421.04767 -252.912883 
L 426.393125 -254.999255 
L 431.73858 -257.293886 
L 437.084034 -259.594286 
L 442.429489 -261.878817 
L 447.774943 -264.189226 
L 453.120398 -266.350997 
L 458.465852 -268.56456 
L 463.811307 -270.615905 
L 469.156761 -272.874804 
L 474.502216 -275.129627 
L 479.84767 -277.38445 
L 485.193125 -279.639274 
L 490.53858 -281.894097 
L 495.884034 -284.14892 
L 501.229489 -286.403743 
L 506.574943 -288.50955 
L 511.920398 -290.599515 
L 517.265852 -292.68948 
L 522.611307 -294.779445 
L 527.956761 -296.912823 
L 533.302216 -298.992234 
L 538.64767 -301.071646 
L 543.993125 -303.151058 
L 549.33858 -305.230469 
L 554.684034 -307.309881 
L 560.029489 -309.389293 
L 565.374943 -311.468704 
L 570.720398 -313.548116 
L 576.065852 -315.627528 
L 581.411307 -317.706939 
L 586.756761 -319.786351 
L 592.102216 -321.865763 
L 597.44767 -323.945175 
L 602.793125 -326.025802 
L 602.793125 -396.463793 
L 602.793125 -396.463793 
L 597.44767 -393.366106 
L 592.102216 -390.352287 
L 586.756761 -387.338468 
L 581.411307 -384.241825 
L 576.065852 -381.136927 
L 570.720398 -378.03203 
L 565.374943 -374.915113 
L 560.029489 -371.791246 
L 554.684034 -368.66738 
L 549.33858 -365.543513 
L 543.993125 -362.419647 
L 538.64767 -359.29578 
L 533.302216 -356.171914 
L 527.956761 -353.048047 
L 522.611307 -349.956563 
L 517.265852 -346.908648 
L 511.920398 -343.860732 
L 506.574943 -340.70864 
L 501.229489 -337.510756 
L 495.884034 -334.310962 
L 490.53858 -331.15861 
L 485.193125 -327.928888 
L 479.84767 -324.739235 
L 474.502216 -321.691419 
L 469.156761 -318.425316 
L 463.811307 -315.519661 
L 458.465852 -312.428914 
L 453.120398 -309.188408 
L 447.774943 -305.893487 
L 442.429489 -302.727224 
L 437.084034 -299.616904 
L 431.73858 -296.506585 
L 426.393125 -293.396265 
L 421.04767 -290.285946 
L 415.702216 -287.175626 
L 410.356761 -284.065307 
L 405.011307 -280.954987 
L 399.665852 -277.844667 
L 394.320398 -274.822704 
L 388.974943 -271.742463 
L 383.629489 -268.513709 
L 378.284034 -265.403389 
L 372.93858 -262.29307 
L 367.593125 -259.209117 
L 362.24767 -256.198344 
L 356.902216 -253.159245 
L 351.556761 -249.942223 
L 346.211307 -246.846797 
L 340.865852 -243.756797 
L 335.520398 -240.72223 
L 330.174943 -237.590028 
L 324.829489 -234.873893 
L 319.484034 -232.121253 
L 314.13858 -229.112 
L 308.793125 -226.194458 
L 303.44767 -223.098847 
L 298.102216 -220.087723 
L 292.756761 -217.114498 
L 287.411307 -214.264919 
L 282.065852 -211.241361 
L 276.720398 -208.422944 
L 271.374943 -205.783797 
L 266.029489 -203.072765 
L 260.684034 -200.595148 
L 255.33858 -198.173502 
L 249.993125 -195.837803 
L 244.64767 -193.563897 
L 239.302216 -191.307561 
L 233.956761 -188.786986 
L 228.611307 -186.622525 
L 223.265852 -184.374027 
L 217.920398 -182.096291 
L 212.574943 -179.907209 
L 207.229489 -177.719931 
L 201.884034 -175.531223 
L 196.53858 -173.345633 
L 191.193125 -171.355109 
L 185.84767 -169.098267 
L 180.502216 -167.01001 
L 175.156761 -164.822117 
L 169.811307 -162.601696 
L 164.465852 -160.384026 
L 159.120398 -158.163361 
L 153.774943 -156.098937 
L 148.429489 -153.874466 
L 143.084034 -151.802109 
L 137.73858 -149.727187 
L 132.393125 -147.655574 
L 127.04767 -145.583961 
L 121.702216 -143.512348 
L 116.356761 -141.439341 
L 111.011307 -139.364217 
L 105.665852 -137.271923 
L 100.320398 -135.212455 
L 94.974943 -133.14447 
L 89.629489 -131.072032 
L 84.284034 -128.999593 
L 78.93858 -126.927155 
L 73.593125 -124.853849 
z
" style="stroke: #ffffff; stroke-opacity: 0.15"/>
    </defs>
    <g clip-path="url(#p615a74261a)">
     <use xlink:href="#m1d84f03be4" x="0" y="439.055156" style="fill: #ff0000; fill-opacity: 0.15; stroke: #ffffff; stroke-opacity: 0.15"/>
    </g>
   </g>
   <g id="line2d_23">
    <path d="M 73.593125 333.81224 
L 78.93858 331.332383 
L 84.284034 328.852527 
L 89.629489 326.37267 
L 94.974943 323.892814 
L 100.320398 321.412957 
L 105.665852 318.933101 
L 111.011307 316.453244 
L 116.356761 313.973388 
L 121.702216 311.493531 
L 127.04767 309.013675 
L 132.393125 306.533818 
L 137.73858 304.053962 
L 143.084034 301.574105 
L 148.429489 299.094249 
L 153.774943 296.614393 
L 159.120398 294.134536 
L 164.465852 291.65468 
L 169.811307 289.174823 
L 175.156761 286.694967 
L 180.502216 284.21511 
L 185.84767 281.735254 
L 191.193125 279.255397 
L 196.53858 276.775541 
L 201.884034 274.295684 
L 207.229489 271.815828 
L 212.574943 269.335971 
L 217.920398 266.856115 
L 223.265852 264.376258 
L 228.611307 261.896402 
L 233.956761 259.416545 
L 239.302216 256.936689 
L 244.64767 254.456832 
L 249.993125 251.976976 
L 255.33858 249.497119 
L 260.684034 247.017263 
L 266.029489 244.537407 
L 271.374943 242.05755 
L 276.720398 239.577694 
L 282.065852 237.097837 
L 287.411307 234.617981 
L 292.756761 232.138124 
L 298.102216 229.658268 
L 303.44767 227.178411 
L 308.793125 224.698555 
L 314.13858 222.218698 
L 319.484034 219.738842 
L 324.829489 217.258985 
L 330.174943 214.779129 
L 335.520398 212.299272 
L 340.865852 209.819416 
L 346.211307 207.339559 
L 351.556761 204.859703 
L 356.902216 202.379846 
L 362.24767 199.89999 
L 367.593125 197.420133 
L 372.93858 194.940277 
L 378.284034 192.460421 
L 383.629489 189.980564 
L 388.974943 187.500708 
L 394.320398 185.020851 
L 399.665852 182.540995 
L 405.011307 180.061138 
L 410.356761 177.581282 
L 415.702216 175.101425 
L 421.04767 172.621569 
L 426.393125 170.141712 
L 431.73858 167.661856 
L 437.084034 165.181999 
L 442.429489 162.702143 
L 447.774943 160.222286 
L 453.120398 157.74243 
L 458.465852 155.262573 
L 463.811307 152.782717 
L 469.156761 150.30286 
L 474.502216 147.823004 
L 479.84767 145.343148 
L 485.193125 142.863291 
L 490.53858 140.383435 
L 495.884034 137.903578 
L 501.229489 135.423722 
L 506.574943 132.943865 
L 511.920398 130.464009 
L 517.265852 127.984152 
L 522.611307 125.504296 
L 527.956761 123.024439 
L 533.302216 120.544583 
L 538.64767 118.064726 
L 543.993125 115.58487 
L 549.33858 113.105013 
L 554.684034 110.625157 
L 560.029489 108.1453 
L 565.374943 105.665444 
L 570.720398 103.185587 
L 576.065852 100.705731 
L 581.411307 98.225874 
L 586.756761 95.746018 
L 592.102216 93.266162 
L 597.44767 90.786305 
L 602.793125 88.306449 
" clip-path="url(#p615a74261a)" style="fill: none; stroke: #ff0000; stroke-width: 3; stroke-linecap: round"/>
   </g>
   <g id="patch_3">
    <path d="M 47.133125 396.365 
L 47.133125 25.745 
" style="fill: none; stroke: #262626; stroke-width: 1.25; stroke-linejoin: miter; stroke-linecap: square"/>
   </g>
   <g id="patch_4">
    <path d="M 47.133125 396.365 
L 629.253125 396.365 
" style="fill: none; stroke: #262626; stroke-width: 1.25; stroke-linejoin: miter; stroke-linecap: square"/>
   </g>
   <g id="text_14">
    <!-- 음주운전(Alcohol)과 교통사고 사망자 수(Total)의 상관관계 -->
    <g style="fill: #262626" transform="translate(123.273125 19.745) scale(0.16 -0.16)">
     <defs>
      <path id="AppleGothic-41" d="M 2086 5018 
L 2579 5018 
L 4448 0 
L 3859 0 
L 3258 1715 
L 1350 1715 
L 723 0 
L 166 0 
L 2086 5018 
z
M 3117 2157 
L 2342 4416 
L 1504 2157 
L 3117 2157 
z
" transform="scale(0.015625)"/>
      <path id="AppleGothic-63" d="M 3085 3123 
L 3085 2522 
Q 2726 2861 2349 3008 
Q 2240 3053 2125 3069 
Q 2010 3085 1894 3085 
Q 1363 3085 1024 2688 
Q 685 2278 685 1715 
Q 685 1139 1037 730 
Q 1389 339 1920 339 
Q 2253 339 2528 483 
Q 2803 627 3085 915 
L 3085 307 
Q 2746 96 2470 6 
Q 2195 -83 1914 -83 
Q 1197 -83 685 429 
Q 186 960 186 1709 
Q 186 2445 678 2976 
Q 1178 3501 1920 3501 
Q 2298 3501 2624 3373 
Q 2816 3302 3085 3123 
z
" transform="scale(0.015625)"/>
      <path id="AppleGothic-68" d="M 288 5018 
L 749 5018 
L 749 2810 
Q 909 3066 1139 3238 
Q 1491 3501 1926 3501 
Q 2195 3501 2409 3424 
Q 2624 3347 2803 3200 
Q 3181 2867 3181 2266 
L 3181 0 
L 2714 0 
L 2714 2202 
Q 2714 2573 2477 2829 
Q 2240 3085 1901 3085 
Q 1408 3085 1082 2694 
Q 749 2291 749 1773 
L 749 0 
L 288 0 
L 288 5018 
z
" transform="scale(0.015625)"/>
      <path id="AppleGothic-acfc" d="M 4339 1184 
Q 4198 1165 4086 1152 
Q 3974 1139 3885 1126 
Q 3373 1062 2973 1014 
Q 2573 966 2266 934 
Q 1965 909 1680 883 
Q 1395 858 1120 826 
Q 966 813 876 803 
Q 787 794 762 794 
Q 710 781 668 774 
Q 627 768 582 755 
Q 499 755 454 934 
Q 429 1024 419 1091 
Q 410 1158 410 1210 
L 1030 1229 
L 1638 1274 
L 1651 2381 
L 1638 3302 
L 1677 3302 
Q 1850 3302 1990 3283 
Q 2131 3264 2131 3206 
Q 2131 3174 2099 3100 
Q 2067 3027 2067 2982 
L 2080 2189 
L 2067 1293 
L 3174 1408 
L 4320 1536 
L 4339 1184 
z
M 6061 2035 
L 5126 2042 
L 5114 1050 
L 5126 -486 
L 4653 -506 
Q 4653 -397 4653 -233 
Q 4653 -70 4659 141 
Q 4666 365 4666 659 
Q 4666 954 4666 1331 
Q 4672 1715 4675 2214 
Q 4678 2714 4678 3347 
L 4678 4691 
Q 4678 4870 4675 4985 
Q 4672 5101 4659 5184 
L 4800 5184 
Q 5011 5184 5100 5158 
Q 5190 5133 5190 5082 
Q 5190 5082 5180 5050 
Q 5171 5018 5161 4973 
Q 5152 4928 5142 4880 
Q 5133 4832 5133 4794 
L 5120 4051 
L 5126 2445 
L 6061 2451 
L 6061 2035 
z
M 3718 4499 
Q 3718 4371 3715 4262 
Q 3712 4154 3706 4064 
Q 3699 3974 3686 3779 
Q 3674 3584 3642 3283 
Q 3610 2982 3597 2793 
Q 3584 2605 3571 2515 
Q 3546 2330 3533 2211 
Q 3520 2093 3507 2042 
L 3078 2054 
Q 3085 2157 3098 2227 
Q 3130 2483 3155 2710 
Q 3181 2938 3200 3142 
L 3264 4109 
L 2042 4109 
Q 1562 4109 1267 4102 
Q 973 4096 768 4083 
L 768 4480 
L 3718 4499 
z
" transform="scale(0.015625)"/>
      <path id="AppleGothic-ad50" d="M 6048 250 
Q 5958 250 5804 250 
Q 5651 250 5440 256 
Q 5229 262 4950 268 
Q 4672 275 4326 282 
Q 3981 288 3715 291 
Q 3450 294 3258 294 
Q 2976 294 2630 288 
Q 2285 282 1862 269 
Q 1440 256 1177 249 
Q 915 243 806 237 
Q 595 224 346 218 
L 346 666 
Q 493 653 691 643 
Q 890 634 1216 634 
L 1818 640 
L 1830 2464 
Q 1830 2592 1824 2691 
Q 1818 2790 1805 2842 
L 2067 2822 
Q 2291 2797 2291 2752 
Q 2291 2739 2265 2659 
Q 2240 2579 2240 2528 
L 2240 653 
L 3437 653 
L 3430 2451 
Q 3430 2566 3430 2636 
Q 3430 2707 3424 2739 
Q 3424 2771 3421 2796 
Q 3418 2822 3411 2848 
Q 3482 2842 3546 2842 
Q 3610 2842 3680 2835 
Q 3904 2810 3904 2765 
Q 3904 2746 3872 2656 
Q 3840 2566 3840 2515 
L 3840 653 
L 6048 672 
L 6048 250 
z
M 5306 4608 
L 5306 4448 
Q 5306 2970 4992 1459 
L 4563 1523 
Q 4589 1651 4608 1750 
Q 4627 1850 4640 1933 
Q 4678 2189 4713 2409 
Q 4749 2630 4774 2822 
Q 4774 3206 4787 3542 
Q 4800 3878 4819 4179 
L 3642 4192 
L 947 4147 
L 947 4589 
L 2528 4576 
L 5306 4608 
z
" transform="scale(0.015625)"/>
      <path id="AppleGothic-d1b5" d="M 4851 365 
Q 4851 614 4531 762 
Q 4147 934 3258 934 
Q 2502 934 2108 793 
Q 1715 653 1715 358 
Q 1715 115 2016 -26 
Q 2400 -198 3213 -198 
L 3334 -198 
Q 4070 -198 4435 -83 
Q 4851 64 4851 365 
z
M 5331 358 
Q 5331 -134 4832 -358 
Q 4333 -582 3386 -582 
L 3226 -582 
Q 2784 -582 2445 -531 
Q 2106 -480 1850 -384 
Q 1248 -141 1248 352 
Q 1248 851 1882 1088 
Q 2131 1178 2473 1222 
Q 2816 1267 3258 1267 
Q 4256 1267 4755 1069 
Q 5331 845 5331 358 
z
M 6022 1722 
Q 5933 1722 5789 1722 
Q 5645 1722 5440 1728 
Q 5043 1734 4358 1747 
Q 4013 1754 3741 1757 
Q 3469 1760 3258 1760 
Q 2938 1760 2579 1753 
Q 2221 1747 1818 1734 
Q 1414 1728 1164 1721 
Q 915 1715 806 1709 
L 384 1690 
L 384 2099 
Q 640 2086 969 2080 
Q 1299 2074 1715 2074 
L 2995 2086 
L 2995 2726 
L 1338 2720 
L 1350 3821 
L 1338 4922 
L 3334 4915 
Q 3840 4915 4281 4928 
Q 4723 4941 5120 4954 
L 5120 4602 
L 3430 4614 
Q 3008 4614 2582 4608 
Q 2157 4602 1811 4589 
L 1811 4026 
L 3277 4013 
Q 3738 4013 4160 4029 
Q 4582 4045 4960 4070 
L 4960 3699 
L 3258 3718 
Q 2906 3718 2522 3712 
Q 2138 3706 1811 3693 
L 1811 3046 
L 3232 3053 
Q 3514 3053 3843 3059 
Q 4173 3066 4563 3078 
Q 4691 3085 4854 3091 
Q 5018 3098 5222 3110 
L 5222 2739 
L 4333 2746 
L 3443 2726 
L 3443 2080 
Q 3654 2080 3974 2086 
Q 4294 2093 4730 2106 
Q 5165 2118 5485 2124 
Q 5805 2131 6022 2131 
L 6022 1722 
z
" transform="scale(0.015625)"/>
      <path id="AppleGothic-c758" d="M 3571 3379 
Q 3571 4218 2573 4218 
Q 2061 4218 1776 3987 
Q 1491 3757 1491 3386 
Q 1491 2970 1786 2733 
Q 2054 2522 2509 2522 
Q 3059 2522 3328 2765 
Q 3571 2976 3571 3379 
z
M 4608 1094 
Q 4134 1018 3872 979 
Q 3456 928 3120 899 
Q 2784 870 2528 870 
L 902 813 
Q 858 800 816 790 
Q 774 781 730 768 
Q 653 768 608 941 
Q 563 1114 563 1242 
L 2477 1248 
Q 2938 1248 3334 1273 
Q 3731 1299 4070 1350 
Q 4282 1376 4576 1459 
L 4608 1094 
z
M 5466 5069 
Q 5466 5037 5437 4944 
Q 5408 4851 5408 4813 
L 5408 2298 
Q 5408 2010 5411 1683 
Q 5414 1357 5421 973 
Q 5427 595 5433 230 
Q 5440 -134 5453 -499 
L 4973 -557 
L 4973 45 
Q 4979 237 4979 512 
Q 4979 787 4986 1158 
Q 4992 1523 4992 1788 
Q 4992 2054 4992 2221 
Q 4992 2880 4985 3357 
Q 4979 3834 4966 4122 
Q 4954 4410 4944 4675 
Q 4934 4941 4922 5184 
L 5024 5184 
Q 5190 5184 5328 5158 
Q 5466 5133 5466 5069 
z
M 4006 3328 
Q 4006 2790 3578 2464 
Q 3155 2138 2528 2138 
Q 1894 2138 1504 2445 
Q 1088 2765 1088 3341 
Q 1088 3955 1517 4288 
Q 1920 4602 2541 4602 
Q 3174 4602 3597 4269 
Q 4006 3936 4006 3354 
L 4006 3328 
z
" transform="scale(0.015625)"/>
      <path id="AppleGothic-c0c1" d="M 5312 538 
Q 5312 -26 4698 -237 
Q 4237 -403 3264 -403 
Q 2381 -403 1837 -173 
Q 1235 77 1235 538 
Q 1235 1120 1843 1363 
Q 2074 1453 2426 1497 
Q 2778 1542 3258 1542 
Q 3686 1542 4019 1500 
Q 4352 1459 4595 1382 
Q 5312 1146 5312 538 
z
M 3942 2413 
Q 3942 2394 3866 2330 
Q 3648 2170 3635 2144 
Q 3546 2195 3469 2240 
Q 3392 2285 3334 2323 
Q 2970 2566 2717 2848 
Q 2464 3130 2278 3456 
Q 2253 3507 2221 3574 
Q 2189 3642 2144 3731 
Q 2093 3616 2051 3517 
Q 2010 3418 1971 3341 
Q 1843 3117 1692 2918 
Q 1542 2720 1357 2534 
Q 1229 2406 1094 2297 
Q 960 2189 819 2086 
Q 768 2054 713 2019 
Q 659 1984 589 1939 
Q 538 1965 416 2042 
Q 365 2093 291 2125 
Q 218 2157 218 2176 
L 230 2202 
Q 307 2246 364 2278 
Q 422 2310 474 2342 
Q 762 2534 1014 2777 
Q 1267 3021 1472 3322 
Q 1613 3514 1709 3718 
Q 1805 3923 1869 4141 
Q 1952 4435 1952 4736 
L 1946 4909 
Q 2016 4909 2099 4902 
Q 2182 4896 2278 4883 
Q 2477 4858 2477 4794 
Q 2477 4774 2419 4713 
Q 2362 4653 2362 4506 
Q 2362 4371 2403 4211 
Q 2445 4051 2573 3770 
Q 2746 3386 3091 3040 
Q 3213 2918 3353 2809 
Q 3494 2701 3661 2592 
Q 3910 2438 3930 2438 
L 3942 2413 
z
M 6010 2784 
L 5933 2784 
Q 5606 2803 5530 2803 
L 5114 2771 
L 5107 2342 
Q 5107 2080 5110 1949 
Q 5114 1818 5120 1734 
L 4653 1722 
Q 4666 1914 4672 2272 
Q 4678 2630 4678 3046 
Q 4678 3482 4678 3808 
Q 4678 4134 4672 4358 
Q 4672 4582 4669 4790 
Q 4666 4998 4659 5190 
L 4730 5190 
Q 4915 5190 5046 5171 
Q 5178 5152 5178 5094 
Q 5158 5030 5139 4969 
Q 5120 4909 5120 4845 
L 5107 4294 
L 5120 3162 
L 5504 3149 
Q 5690 3149 5814 3155 
Q 5939 3162 6010 3174 
L 6010 2784 
z
M 4858 544 
Q 4858 928 4333 1094 
Q 4141 1158 3872 1184 
Q 3603 1210 3258 1210 
Q 2464 1210 2118 1088 
Q 1683 928 1683 544 
Q 1715 282 2121 122 
Q 2528 -38 3270 -38 
Q 4058 -38 4416 70 
Q 4858 192 4858 544 
z
" transform="scale(0.015625)"/>
      <path id="AppleGothic-ad00" d="M 5248 -435 
L 3558 -454 
L 1376 -442 
L 1389 352 
L 1370 992 
Q 1446 992 1526 989 
Q 1606 986 1673 976 
Q 1741 966 1785 947 
Q 1830 928 1830 902 
Q 1830 890 1811 819 
Q 1792 749 1792 678 
L 1792 -77 
L 3341 -96 
L 5248 -83 
L 5248 -435 
z
M 4346 1651 
Q 4333 1651 3680 1613 
Q 3354 1600 2979 1581 
Q 2605 1562 2163 1549 
Q 1722 1536 1363 1526 
Q 1005 1517 717 1517 
Q 685 1517 643 1507 
Q 602 1498 560 1488 
Q 518 1478 486 1472 
Q 454 1466 448 1466 
Q 403 1466 384 1530 
L 326 1907 
Q 435 1888 547 1881 
Q 659 1875 755 1875 
Q 858 1875 989 1878 
Q 1120 1882 1286 1888 
Q 1613 1907 1683 1907 
L 1658 3386 
Q 1882 3386 2003 3363 
Q 2125 3341 2125 3302 
Q 2125 3309 2112 3245 
Q 2080 3130 2080 3066 
L 2074 1914 
Q 2310 1914 2521 1917 
Q 2733 1920 2925 1926 
Q 3590 1952 3942 1961 
Q 4294 1971 4346 1971 
L 4346 1651 
z
M 6112 2240 
Q 6061 2246 5987 2246 
Q 5914 2246 5818 2253 
Q 5728 2259 5667 2259 
Q 5606 2259 5574 2259 
L 5107 2253 
L 5107 518 
L 4659 518 
Q 4659 966 4672 2028 
Q 4685 3091 4685 4832 
Q 4685 5005 4678 5078 
Q 4672 5152 4659 5190 
L 4736 5190 
Q 4909 5190 5043 5174 
Q 5178 5158 5178 5101 
Q 5178 5088 5146 4998 
Q 5114 4909 5114 4838 
L 5101 2637 
L 5568 2618 
L 6112 2630 
L 6112 2240 
z
M 3622 4550 
Q 3616 4480 3616 4425 
Q 3616 4371 3610 4320 
Q 3571 3616 3571 3110 
Q 3571 2976 3561 2841 
Q 3552 2707 3539 2566 
Q 3533 2528 3526 2473 
Q 3520 2419 3507 2349 
L 3091 2362 
Q 3104 2413 3107 2457 
Q 3110 2502 3117 2534 
Q 3174 2944 3174 3283 
Q 3174 3494 3180 3635 
Q 3187 3776 3194 3904 
Q 3194 4051 3190 4105 
Q 3187 4160 3181 4192 
L 2125 4186 
Q 1773 4186 1389 4173 
Q 1005 4160 678 4147 
L 678 4544 
Q 774 4538 908 4538 
Q 1043 4538 1216 4531 
Q 1402 4525 1530 4525 
Q 1658 4525 1747 4525 
L 3622 4550 
z
" transform="scale(0.015625)"/>
      <path id="AppleGothic-acc4" d="M 5670 5075 
Q 5670 5062 5638 4963 
Q 5606 4864 5606 4762 
Q 5600 4653 5600 4505 
Q 5600 4358 5594 4173 
Q 5594 3987 5594 3747 
Q 5594 3507 5587 3200 
Q 5587 2899 5587 2582 
Q 5587 2266 5581 1926 
Q 5581 1658 5584 1322 
Q 5587 986 5594 570 
Q 5613 -256 5613 -384 
L 5171 -410 
L 5171 422 
Q 5178 691 5178 1075 
Q 5178 1459 5184 1978 
Q 5190 2496 5190 2877 
Q 5190 3258 5190 3514 
L 5171 5190 
Q 5254 5190 5344 5187 
Q 5434 5184 5507 5171 
Q 5581 5158 5625 5136 
Q 5670 5114 5670 5075 
z
M 4326 4832 
Q 4326 4819 4297 4726 
Q 4269 4634 4269 4576 
L 4256 659 
Q 4256 499 4256 390 
Q 4256 282 4259 198 
Q 4262 115 4265 51 
Q 4269 -13 4275 -77 
L 3840 -115 
L 3846 1670 
L 3354 1690 
L 2810 1683 
L 2810 2067 
L 3354 2054 
L 3846 2061 
L 3846 2886 
L 2861 2874 
L 2861 3296 
Q 2970 3290 3110 3286 
Q 3251 3283 3334 3283 
L 3846 3277 
L 3853 4627 
L 3840 4947 
Q 4026 4947 4176 4928 
Q 4326 4909 4326 4832 
z
M 2938 4461 
Q 2931 4384 2928 4301 
Q 2925 4218 2918 4134 
Q 2867 3718 2765 3315 
Q 2611 2765 2326 2259 
Q 2042 1754 1626 1325 
Q 1338 1024 998 787 
Q 762 614 723 614 
Q 710 627 678 649 
Q 646 672 582 704 
Q 320 864 320 877 
L 339 909 
Q 1178 1235 1824 2214 
Q 2490 3200 2490 4109 
L 1843 4115 
L 717 4090 
L 717 4493 
Q 1222 4493 2022 4474 
Q 2426 4467 2650 4464 
Q 2874 4461 2938 4461 
z
" transform="scale(0.015625)"/>
     </defs>
     <use xlink:href="#AppleGothic-c74c"/>
     <use xlink:href="#AppleGothic-c8fc" transform="translate(99.999985 0)"/>
     <use xlink:href="#AppleGothic-c6b4" transform="translate(199.999969 0)"/>
     <use xlink:href="#AppleGothic-c804" transform="translate(299.999954 0)"/>
     <use xlink:href="#AppleGothic-28" transform="translate(399.999939 0)"/>
     <use xlink:href="#AppleGothic-41" transform="translate(449.999924 0)"/>
     <use xlink:href="#AppleGothic-6c" transform="translate(522.599915 0)"/>
     <use xlink:href="#AppleGothic-63" transform="translate(539.299911 0)"/>
     <use xlink:href="#AppleGothic-6f" transform="translate(591.199905 0)"/>
     <use xlink:href="#AppleGothic-68" transform="translate(649.499893 0)"/>
     <use xlink:href="#AppleGothic-6f" transform="translate(701.69989 0)"/>
     <use xlink:href="#AppleGothic-6c" transform="translate(759.999878 0)"/>
     <use xlink:href="#AppleGothic-29" transform="translate(776.699875 0)"/>
     <use xlink:href="#AppleGothic-acfc" transform="translate(826.69986 0)"/>
     <use xlink:href="#AppleGothic-20" transform="translate(926.699844 0)"/>
     <use xlink:href="#AppleGothic-ad50" transform="translate(958.699829 0)"/>
     <use xlink:href="#AppleGothic-d1b5" transform="translate(1058.699814 0)"/>
     <use xlink:href="#AppleGothic-c0ac" transform="translate(1158.699799 0)"/>
     <use xlink:href="#AppleGothic-ace0" transform="translate(1258.699783 0)"/>
     <use xlink:href="#AppleGothic-20" transform="translate(1358.699768 0)"/>
     <use xlink:href="#AppleGothic-c0ac" transform="translate(1390.699753 0)"/>
     <use xlink:href="#AppleGothic-b9dd" transform="translate(1490.699738 0)"/>
     <use xlink:href="#AppleGothic-c790" transform="translate(1590.699722 0)"/>
     <use xlink:href="#AppleGothic-20" transform="translate(1690.699707 0)"/>
     <use xlink:href="#AppleGothic-c218" transform="translate(1722.699692 0)"/>
     <use xlink:href="#AppleGothic-28" transform="translate(1822.699677 0)"/>
     <use xlink:href="#AppleGothic-54" transform="translate(1872.699661 0)"/>
     <use xlink:href="#AppleGothic-6f" transform="translate(1938.799652 0)"/>
     <use xlink:href="#AppleGothic-74" transform="translate(1997.09964 0)"/>
     <use xlink:href="#AppleGothic-61" transform="translate(2031.299637 0)"/>
     <use xlink:href="#AppleGothic-6c" transform="translate(2087.799622 0)"/>
     <use xlink:href="#AppleGothic-29" transform="translate(2104.499619 0)"/>
     <use xlink:href="#AppleGothic-c758" transform="translate(2154.499603 0)"/>
     <use xlink:href="#AppleGothic-20" transform="translate(2254.499588 0)"/>
     <use xlink:href="#AppleGothic-c0c1" transform="translate(2286.499573 0)"/>
     <use xlink:href="#AppleGothic-ad00" transform="translate(2386.499557 0)"/>
     <use xlink:href="#AppleGothic-ad00" transform="translate(2486.499542 0)"/>
     <use xlink:href="#AppleGothic-acc4" transform="translate(2586.499527 0)"/>
    </g>
   </g>
  </g>
 </g>
 <defs>
  <clipPath id="p615a74261a">
   <rect x="47.133125" y="25.745" width="582.12" height="370.62"/>
  </clipPath>
 </defs>
</svg>
