<?xml version="1.0" encoding="utf-8" standalone="no"?>
<!DOCTYPE svg PUBLIC "-//W3C//DTD SVG 1.1//EN"
  "http://www.w3.org/Graphics/SVG/1.1/DTD/svg11.dtd">
<svg xmlns:xlink="http://www.w3.org/1999/xlink" width="556.65125pt" height="342.612656pt" viewBox="0 0 556.65125 342.612656" xmlns="http://www.w3.org/2000/svg" version="1.1">
 <metadata>
  <rdf:RDF xmlns:dc="http://purl.org/dc/elements/1.1/" xmlns:cc="http://creativecommons.org/ns#" xmlns:rdf="http://www.w3.org/1999/02/22-rdf-syntax-ns#">
   <cc:Work>
    <dc:type rdf:resource="http://purl.org/dc/dcmitype/StillImage"/>
    <dc:date>2026-05-25T18:32:47.582636</dc:date>
    <dc:format>image/svg+xml</dc:format>
    <dc:creator>
     <cc:Agent>
      <dc:title>Matplotlib v3.10.9, https://matplotlib.org/</dc:title>
     </cc:Agent>
    </dc:creator>
   </cc:Work>
  </rdf:RDF>
 </metadata>
 <defs>
  <style type="text/css">*{stroke-linejoin: round; stroke-linecap: butt}</style>
 </defs>
 <g id="figure_1">
  <g id="patch_1">
   <path d="M 0 342.612656 
L 556.65125 342.612656 
L 556.65125 0 
L 0 0 
z
" style="fill: #ffffff"/>
  </g>
  <g id="axes_1">
   <g id="patch_2">
    <path d="M 47.25125 300.591563 
L 549.45125 300.591563 
L 549.45125 23.391562 
L 47.25125 23.391562 
z
" style="fill: #ffffff"/>
   </g>
   <g id="matplotlib.axis_1">
    <g id="xtick_1">
     <g id="text_1">
      <!-- Yes -->
      <g style="fill: #262626" transform="translate(163.825938 317.965156) scale(0.11 -0.11)">
       <defs>
        <path id="ArialMT-59" d="M 1784 0 
L 1784 1941 
L 19 4581 
L 756 4581 
L 1659 3200 
Q 1909 2813 2125 2425 
Q 2331 2784 2625 3234 
L 3513 4581 
L 4219 4581 
L 2391 1941 
L 2391 0 
L 1784 0 
z
" transform="scale(0.015625)"/>
        <path id="ArialMT-65" d="M 2694 1069 
L 3275 997 
Q 3138 488 2766 206 
Q 2394 -75 1816 -75 
Q 1088 -75 661 373 
Q 234 822 234 1631 
Q 234 2469 665 2931 
Q 1097 3394 1784 3394 
Q 2450 3394 2872 2941 
Q 3294 2488 3294 1666 
Q 3294 1616 3291 1516 
L 816 1516 
Q 847 969 1125 678 
Q 1403 388 1819 388 
Q 2128 388 2347 550 
Q 2566 713 2694 1069 
z
M 847 1978 
L 2700 1978 
Q 2663 2397 2488 2606 
Q 2219 2931 1791 2931 
Q 1403 2931 1139 2672 
Q 875 2413 847 1978 
z
" transform="scale(0.015625)"/>
        <path id="ArialMT-73" d="M 197 991 
L 753 1078 
Q 800 744 1014 566 
Q 1228 388 1613 388 
Q 2000 388 2187 545 
Q 2375 703 2375 916 
Q 2375 1106 2209 1216 
Q 2094 1291 1634 1406 
Q 1016 1563 777 1677 
Q 538 1791 414 1992 
Q 291 2194 291 2438 
Q 291 2659 392 2848 
Q 494 3038 669 3163 
Q 800 3259 1026 3326 
Q 1253 3394 1513 3394 
Q 1903 3394 2198 3281 
Q 2494 3169 2634 2976 
Q 2775 2784 2828 2463 
L 2278 2388 
Q 2241 2644 2061 2787 
Q 1881 2931 1553 2931 
Q 1166 2931 1000 2803 
Q 834 2675 834 2503 
Q 834 2394 903 2306 
Q 972 2216 1119 2156 
Q 1203 2125 1616 2013 
Q 2213 1853 2448 1751 
Q 2684 1650 2818 1456 
Q 2953 1263 2953 975 
Q 2953 694 2789 445 
Q 2625 197 2315 61 
Q 2006 -75 1616 -75 
Q 969 -75 630 194 
Q 291 463 197 991 
z
" transform="scale(0.015625)"/>
       </defs>
       <use xlink:href="#ArialMT-59"/>
       <use xlink:href="#ArialMT-65" transform="translate(57.574219 0)"/>
       <use xlink:href="#ArialMT-73" transform="translate(113.189453 0)"/>
      </g>
     </g>
    </g>
    <g id="xtick_2">
     <g id="text_2">
      <!-- No -->
      <g style="fill: #262626" transform="translate(416.870703 317.965156) scale(0.11 -0.11)">
       <defs>
        <path id="ArialMT-4e" d="M 488 0 
L 488 4581 
L 1109 4581 
L 3516 984 
L 3516 4581 
L 4097 4581 
L 4097 0 
L 3475 0 
L 1069 3600 
L 1069 0 
L 488 0 
z
" transform="scale(0.015625)"/>
        <path id="ArialMT-6f" d="M 213 1659 
Q 213 2581 725 3025 
Q 1153 3394 1769 3394 
Q 2453 3394 2887 2945 
Q 3322 2497 3322 1706 
Q 3322 1066 3130 698 
Q 2938 331 2570 128 
Q 2203 -75 1769 -75 
Q 1072 -75 642 372 
Q 213 819 213 1659 
z
M 791 1659 
Q 791 1022 1069 705 
Q 1347 388 1769 388 
Q 2188 388 2466 706 
Q 2744 1025 2744 1678 
Q 2744 2294 2464 2611 
Q 2184 2928 1769 2928 
Q 1347 2928 1069 2612 
Q 791 2297 791 1659 
z
" transform="scale(0.015625)"/>
       </defs>
       <use xlink:href="#ArialMT-4e"/>
       <use xlink:href="#ArialMT-6f" transform="translate(72.216797 0)"/>
      </g>
     </g>
    </g>
    <g id="text_3">
     <!-- 퇴사 여부 (Attrition) -->
     <g style="fill: #262626" transform="translate(252.681875 332.887031) scale(0.12 -0.12)">
      <defs>
       <path id="ArialMT-d1f4" d="M 800 0 
L 800 4000 
L 4000 4000 
L 4000 0 
L 800 0 
z
M 900 100 
L 3900 100 
L 3900 3900 
L 900 3900 
L 900 100 
z
" transform="scale(0.015625)"/>
       <path id="ArialMT-c0ac" d="M 800 0 
L 800 4000 
L 4000 4000 
L 4000 0 
L 800 0 
z
M 900 100 
L 3900 100 
L 3900 3900 
L 900 3900 
L 900 100 
z
" transform="scale(0.015625)"/>
       <path id="ArialMT-20" transform="scale(0.015625)"/>
       <path id="ArialMT-c5ec" d="M 800 0 
L 800 4000 
L 4000 4000 
L 4000 0 
L 800 0 
z
M 900 100 
L 3900 100 
L 3900 3900 
L 900 3900 
L 900 100 
z
" transform="scale(0.015625)"/>
       <path id="ArialMT-bd80" d="M 800 0 
L 800 4000 
L 4000 4000 
L 4000 0 
L 800 0 
z
M 900 100 
L 3900 100 
L 3900 3900 
L 900 3900 
L 900 100 
z
" transform="scale(0.015625)"/>
       <path id="ArialMT-28" d="M 1497 -1347 
Q 1031 -759 709 28 
Q 388 816 388 1659 
Q 388 2403 628 3084 
Q 909 3875 1497 4659 
L 1900 4659 
Q 1522 4009 1400 3731 
Q 1209 3300 1100 2831 
Q 966 2247 966 1656 
Q 966 153 1900 -1347 
L 1497 -1347 
z
" transform="scale(0.015625)"/>
       <path id="ArialMT-41" d="M -9 0 
L 1750 4581 
L 2403 4581 
L 4278 0 
L 3588 0 
L 3053 1388 
L 1138 1388 
L 634 0 
L -9 0 
z
M 1313 1881 
L 2866 1881 
L 2388 3150 
Q 2169 3728 2063 4100 
Q 1975 3659 1816 3225 
L 1313 1881 
z
" transform="scale(0.015625)"/>
       <path id="ArialMT-74" d="M 1650 503 
L 1731 6 
Q 1494 -44 1306 -44 
Q 1000 -44 831 53 
Q 663 150 594 308 
Q 525 466 525 972 
L 525 2881 
L 113 2881 
L 113 3319 
L 525 3319 
L 525 4141 
L 1084 4478 
L 1084 3319 
L 1650 3319 
L 1650 2881 
L 1084 2881 
L 1084 941 
Q 1084 700 1114 631 
Q 1144 563 1211 522 
Q 1278 481 1403 481 
Q 1497 481 1650 503 
z
" transform="scale(0.015625)"/>
       <path id="ArialMT-72" d="M 416 0 
L 416 3319 
L 922 3319 
L 922 2816 
Q 1116 3169 1280 3281 
Q 1444 3394 1641 3394 
Q 1925 3394 2219 3213 
L 2025 2691 
Q 1819 2813 1613 2813 
Q 1428 2813 1281 2702 
Q 1134 2591 1072 2394 
Q 978 2094 978 1738 
L 978 0 
L 416 0 
z
" transform="scale(0.015625)"/>
       <path id="ArialMT-69" d="M 425 3934 
L 425 4581 
L 988 4581 
L 988 3934 
L 425 3934 
z
M 425 0 
L 425 3319 
L 988 3319 
L 988 0 
L 425 0 
z
" transform="scale(0.015625)"/>
       <path id="ArialMT-6e" d="M 422 0 
L 422 3319 
L 928 3319 
L 928 2847 
Q 1294 3394 1984 3394 
Q 2284 3394 2536 3286 
Q 2788 3178 2913 3003 
Q 3038 2828 3088 2588 
Q 3119 2431 3119 2041 
L 3119 0 
L 2556 0 
L 2556 2019 
Q 2556 2363 2490 2533 
Q 2425 2703 2258 2804 
Q 2091 2906 1866 2906 
Q 1506 2906 1245 2678 
Q 984 2450 984 1813 
L 984 0 
L 422 0 
z
" transform="scale(0.015625)"/>
       <path id="ArialMT-29" d="M 791 -1347 
L 388 -1347 
Q 1322 153 1322 1656 
Q 1322 2244 1188 2822 
Q 1081 3291 891 3722 
Q 769 4003 388 4659 
L 791 4659 
Q 1378 3875 1659 3084 
Q 1900 2403 1900 1659 
Q 1900 816 1576 28 
Q 1253 -759 791 -1347 
z
" transform="scale(0.015625)"/>
      </defs>
      <use xlink:href="#ArialMT-d1f4"/>
      <use xlink:href="#ArialMT-c0ac" transform="translate(75 0)"/>
      <use xlink:href="#ArialMT-20" transform="translate(150 0)"/>
      <use xlink:href="#ArialMT-c5ec" transform="translate(177.783203 0)"/>
      <use xlink:href="#ArialMT-bd80" transform="translate(252.783203 0)"/>
      <use xlink:href="#ArialMT-20" transform="translate(327.783203 0)"/>
      <use xlink:href="#ArialMT-28" transform="translate(355.566406 0)"/>
      <use xlink:href="#ArialMT-41" transform="translate(388.867188 0)"/>
      <use xlink:href="#ArialMT-74" transform="translate(455.566406 0)"/>
      <use xlink:href="#ArialMT-74" transform="translate(483.349609 0)"/>
      <use xlink:href="#ArialMT-72" transform="translate(511.132812 0)"/>
      <use xlink:href="#ArialMT-69" transform="translate(544.433594 0)"/>
      <use xlink:href="#ArialMT-74" transform="translate(566.650391 0)"/>
      <use xlink:href="#ArialMT-69" transform="translate(594.433594 0)"/>
      <use xlink:href="#ArialMT-6f" transform="translate(616.650391 0)"/>
      <use xlink:href="#ArialMT-6e" transform="translate(672.265625 0)"/>
      <use xlink:href="#ArialMT-29" transform="translate(727.880859 0)"/>
     </g>
    </g>
   </g>
   <g id="matplotlib.axis_2">
    <g id="ytick_1">
     <g id="line2d_1">
      <path d="M 47.25125 288.713626 
L 549.45125 288.713626 
" clip-path="url(#p6bd64e6ec0)" style="fill: none; stroke: #cccccc; stroke-linecap: round"/>
     </g>
     <g id="text_4">
      <!-- 1.5 -->
      <g style="fill: #262626" transform="translate(22.46125 292.650422) scale(0.11 -0.11)">
       <defs>
        <path id="ArialMT-31" d="M 2384 0 
L 1822 0 
L 1822 3584 
Q 1619 3391 1289 3197 
Q 959 3003 697 2906 
L 697 3450 
Q 1169 3672 1522 3987 
Q 1875 4303 2022 4600 
L 2384 4600 
L 2384 0 
z
" transform="scale(0.015625)"/>
        <path id="ArialMT-2e" d="M 581 0 
L 581 641 
L 1222 641 
L 1222 0 
L 581 0 
z
" transform="scale(0.015625)"/>
        <path id="ArialMT-35" d="M 266 1200 
L 856 1250 
Q 922 819 1161 601 
Q 1400 384 1738 384 
Q 2144 384 2425 690 
Q 2706 997 2706 1503 
Q 2706 1984 2436 2262 
Q 2166 2541 1728 2541 
Q 1456 2541 1237 2417 
Q 1019 2294 894 2097 
L 366 2166 
L 809 4519 
L 3088 4519 
L 3088 3981 
L 1259 3981 
L 1013 2750 
Q 1425 3038 1878 3038 
Q 2478 3038 2890 2622 
Q 3303 2206 3303 1553 
Q 3303 931 2941 478 
Q 2500 -78 1738 -78 
Q 1113 -78 717 272 
Q 322 622 266 1200 
z
" transform="scale(0.015625)"/>
       </defs>
       <use xlink:href="#ArialMT-31"/>
       <use xlink:href="#ArialMT-2e" transform="translate(55.615234 0)"/>
       <use xlink:href="#ArialMT-35" transform="translate(83.398438 0)"/>
      </g>
     </g>
    </g>
    <g id="ytick_2">
     <g id="line2d_2">
      <path d="M 47.25125 252.610474 
L 549.45125 252.610474 
" clip-path="url(#p6bd64e6ec0)" style="fill: none; stroke: #cccccc; stroke-linecap: round"/>
     </g>
     <g id="text_5">
      <!-- 2.0 -->
      <g style="fill: #262626" transform="translate(22.46125 256.547271) scale(0.11 -0.11)">
       <defs>
        <path id="ArialMT-32" d="M 3222 541 
L 3222 0 
L 194 0 
Q 188 203 259 391 
Q 375 700 629 1000 
Q 884 1300 1366 1694 
Q 2113 2306 2375 2664 
Q 2638 3022 2638 3341 
Q 2638 3675 2398 3904 
Q 2159 4134 1775 4134 
Q 1369 4134 1125 3890 
Q 881 3647 878 3216 
L 300 3275 
Q 359 3922 746 4261 
Q 1134 4600 1788 4600 
Q 2447 4600 2831 4234 
Q 3216 3869 3216 3328 
Q 3216 3053 3103 2787 
Q 2991 2522 2730 2228 
Q 2469 1934 1863 1422 
Q 1356 997 1212 845 
Q 1069 694 975 541 
L 3222 541 
z
" transform="scale(0.015625)"/>
        <path id="ArialMT-30" d="M 266 2259 
Q 266 3072 433 3567 
Q 600 4063 929 4331 
Q 1259 4600 1759 4600 
Q 2128 4600 2406 4451 
Q 2684 4303 2865 4023 
Q 3047 3744 3150 3342 
Q 3253 2941 3253 2259 
Q 3253 1453 3087 958 
Q 2922 463 2592 192 
Q 2263 -78 1759 -78 
Q 1097 -78 719 397 
Q 266 969 266 2259 
z
M 844 2259 
Q 844 1131 1108 757 
Q 1372 384 1759 384 
Q 2147 384 2411 759 
Q 2675 1134 2675 2259 
Q 2675 3391 2411 3762 
Q 2147 4134 1753 4134 
Q 1366 4134 1134 3806 
Q 844 3388 844 2259 
z
" transform="scale(0.015625)"/>
       </defs>
       <use xlink:href="#ArialMT-32"/>
       <use xlink:href="#ArialMT-2e" transform="translate(55.615234 0)"/>
       <use xlink:href="#ArialMT-30" transform="translate(83.398438 0)"/>
      </g>
     </g>
    </g>
    <g id="ytick_3">
     <g id="line2d_3">
      <path d="M 47.25125 216.507322 
L 549.45125 216.507322 
" clip-path="url(#p6bd64e6ec0)" style="fill: none; stroke: #cccccc; stroke-linecap: round"/>
     </g>
     <g id="text_6">
      <!-- 2.5 -->
      <g style="fill: #262626" transform="translate(22.46125 220.444119) scale(0.11 -0.11)">
       <use xlink:href="#ArialMT-32"/>
       <use xlink:href="#ArialMT-2e" transform="translate(55.615234 0)"/>
       <use xlink:href="#ArialMT-35" transform="translate(83.398438 0)"/>
      </g>
     </g>
    </g>
    <g id="ytick_4">
     <g id="line2d_4">
      <path d="M 47.25125 180.40417 
L 549.45125 180.40417 
" clip-path="url(#p6bd64e6ec0)" style="fill: none; stroke: #cccccc; stroke-linecap: round"/>
     </g>
     <g id="text_7">
      <!-- 3.0 -->
      <g style="fill: #262626" transform="translate(22.46125 184.340967) scale(0.11 -0.11)">
       <defs>
        <path id="ArialMT-33" d="M 269 1209 
L 831 1284 
Q 928 806 1161 595 
Q 1394 384 1728 384 
Q 2125 384 2398 659 
Q 2672 934 2672 1341 
Q 2672 1728 2419 1979 
Q 2166 2231 1775 2231 
Q 1616 2231 1378 2169 
L 1441 2663 
Q 1497 2656 1531 2656 
Q 1891 2656 2178 2843 
Q 2466 3031 2466 3422 
Q 2466 3731 2256 3934 
Q 2047 4138 1716 4138 
Q 1388 4138 1169 3931 
Q 950 3725 888 3313 
L 325 3413 
Q 428 3978 793 4289 
Q 1159 4600 1703 4600 
Q 2078 4600 2393 4439 
Q 2709 4278 2876 4000 
Q 3044 3722 3044 3409 
Q 3044 3113 2884 2869 
Q 2725 2625 2413 2481 
Q 2819 2388 3044 2092 
Q 3269 1797 3269 1353 
Q 3269 753 2831 336 
Q 2394 -81 1725 -81 
Q 1122 -81 723 278 
Q 325 638 269 1209 
z
" transform="scale(0.015625)"/>
       </defs>
       <use xlink:href="#ArialMT-33"/>
       <use xlink:href="#ArialMT-2e" transform="translate(55.615234 0)"/>
       <use xlink:href="#ArialMT-30" transform="translate(83.398438 0)"/>
      </g>
     </g>
    </g>
    <g id="ytick_5">
     <g id="line2d_5">
      <path d="M 47.25125 144.301018 
L 549.45125 144.301018 
" clip-path="url(#p6bd64e6ec0)" style="fill: none; stroke: #cccccc; stroke-linecap: round"/>
     </g>
     <g id="text_8">
      <!-- 3.5 -->
      <g style="fill: #262626" transform="translate(22.46125 148.237815) scale(0.11 -0.11)">
       <use xlink:href="#ArialMT-33"/>
       <use xlink:href="#ArialMT-2e" transform="translate(55.615234 0)"/>
       <use xlink:href="#ArialMT-35" transform="translate(83.398438 0)"/>
      </g>
     </g>
    </g>
    <g id="ytick_6">
     <g id="line2d_6">
      <path d="M 47.25125 108.197866 
L 549.45125 108.197866 
" clip-path="url(#p6bd64e6ec0)" style="fill: none; stroke: #cccccc; stroke-linecap: round"/>
     </g>
     <g id="text_9">
      <!-- 4.0 -->
      <g style="fill: #262626" transform="translate(22.46125 112.134663) scale(0.11 -0.11)">
       <defs>
        <path id="ArialMT-34" d="M 2069 0 
L 2069 1097 
L 81 1097 
L 81 1613 
L 2172 4581 
L 2631 4581 
L 2631 1613 
L 3250 1613 
L 3250 1097 
L 2631 1097 
L 2631 0 
L 2069 0 
z
M 2069 1613 
L 2069 3678 
L 634 1613 
L 2069 1613 
z
" transform="scale(0.015625)"/>
       </defs>
       <use xlink:href="#ArialMT-34"/>
       <use xlink:href="#ArialMT-2e" transform="translate(55.615234 0)"/>
       <use xlink:href="#ArialMT-30" transform="translate(83.398438 0)"/>
      </g>
     </g>
    </g>
    <g id="ytick_7">
     <g id="line2d_7">
      <path d="M 47.25125 72.094714 
L 549.45125 72.094714 
" clip-path="url(#p6bd64e6ec0)" style="fill: none; stroke: #cccccc; stroke-linecap: round"/>
     </g>
     <g id="text_10">
      <!-- 4.5 -->
      <g style="fill: #262626" transform="translate(22.46125 76.031511) scale(0.11 -0.11)">
       <use xlink:href="#ArialMT-34"/>
       <use xlink:href="#ArialMT-2e" transform="translate(55.615234 0)"/>
       <use xlink:href="#ArialMT-35" transform="translate(83.398438 0)"/>
      </g>
     </g>
    </g>
    <g id="ytick_8">
     <g id="line2d_8">
      <path d="M 47.25125 35.991562 
L 549.45125 35.991562 
" clip-path="url(#p6bd64e6ec0)" style="fill: none; stroke: #cccccc; stroke-linecap: round"/>
     </g>
     <g id="text_11">
      <!-- 5.0 -->
      <g style="fill: #262626" transform="translate(22.46125 39.928359) scale(0.11 -0.11)">
       <use xlink:href="#ArialMT-35"/>
       <use xlink:href="#ArialMT-2e" transform="translate(55.615234 0)"/>
       <use xlink:href="#ArialMT-30" transform="translate(83.398438 0)"/>
      </g>
     </g>
    </g>
    <g id="text_12">
     <!-- 직무 만족도 점수 (1~5점) -->
     <g style="fill: #262626" transform="translate(15.935625 217.165312) rotate(-90) scale(0.12 -0.12)">
      <defs>
       <path id="ArialMT-c9c1" d="M 800 0 
L 800 4000 
L 4000 4000 
L 4000 0 
L 800 0 
z
M 900 100 
L 3900 100 
L 3900 3900 
L 900 3900 
L 900 100 
z
" transform="scale(0.015625)"/>
       <path id="ArialMT-bb34" d="M 800 0 
L 800 4000 
L 4000 4000 
L 4000 0 
L 800 0 
z
M 900 100 
L 3900 100 
L 3900 3900 
L 900 3900 
L 900 100 
z
" transform="scale(0.015625)"/>
       <path id="ArialMT-b9cc" d="M 800 0 
L 800 4000 
L 4000 4000 
L 4000 0 
L 800 0 
z
M 900 100 
L 3900 100 
L 3900 3900 
L 900 3900 
L 900 100 
z
" transform="scale(0.015625)"/>
       <path id="ArialMT-c871" d="M 800 0 
L 800 4000 
L 4000 4000 
L 4000 0 
L 800 0 
z
M 900 100 
L 3900 100 
L 3900 3900 
L 900 3900 
L 900 100 
z
" transform="scale(0.015625)"/>
       <path id="ArialMT-b3c4" d="M 800 0 
L 800 4000 
L 4000 4000 
L 4000 0 
L 800 0 
z
M 900 100 
L 3900 100 
L 3900 3900 
L 900 3900 
L 900 100 
z
" transform="scale(0.015625)"/>
       <path id="ArialMT-c810" d="M 800 0 
L 800 4000 
L 4000 4000 
L 4000 0 
L 800 0 
z
M 900 100 
L 3900 100 
L 3900 3900 
L 900 3900 
L 900 100 
z
" transform="scale(0.015625)"/>
       <path id="ArialMT-c218" d="M 800 0 
L 800 4000 
L 4000 4000 
L 4000 0 
L 800 0 
z
M 900 100 
L 3900 100 
L 3900 3900 
L 900 3900 
L 900 100 
z
" transform="scale(0.015625)"/>
       <path id="ArialMT-7e" d="M 272 1741 
L 272 2381 
Q 603 2756 1141 2756 
Q 1328 2756 1534 2701 
Q 1741 2647 2122 2484 
Q 2338 2394 2445 2366 
Q 2553 2338 2663 2338 
Q 2866 2338 3083 2459 
Q 3300 2581 3469 2766 
L 3469 2103 
Q 3269 1916 3064 1831 
Q 2859 1747 2603 1747 
Q 2416 1747 2245 1790 
Q 2075 1834 1704 2000 
Q 1334 2166 1088 2166 
Q 888 2166 711 2080 
Q 534 1994 272 1741 
z
" transform="scale(0.015625)"/>
      </defs>
      <use xlink:href="#ArialMT-c9c1"/>
      <use xlink:href="#ArialMT-bb34" transform="translate(75 0)"/>
      <use xlink:href="#ArialMT-20" transform="translate(150 0)"/>
      <use xlink:href="#ArialMT-b9cc" transform="translate(177.783203 0)"/>
      <use xlink:href="#ArialMT-c871" transform="translate(252.783203 0)"/>
      <use xlink:href="#ArialMT-b3c4" transform="translate(327.783203 0)"/>
      <use xlink:href="#ArialMT-20" transform="translate(402.783203 0)"/>
      <use xlink:href="#ArialMT-c810" transform="translate(430.566406 0)"/>
      <use xlink:href="#ArialMT-c218" transform="translate(505.566406 0)"/>
      <use xlink:href="#ArialMT-20" transform="translate(580.566406 0)"/>
      <use xlink:href="#ArialMT-28" transform="translate(608.349609 0)"/>
      <use xlink:href="#ArialMT-31" transform="translate(641.650391 0)"/>
      <use xlink:href="#ArialMT-7e" transform="translate(697.265625 0)"/>
      <use xlink:href="#ArialMT-35" transform="translate(755.664062 0)"/>
      <use xlink:href="#ArialMT-c810" transform="translate(811.279297 0)"/>
      <use xlink:href="#ArialMT-29" transform="translate(886.279297 0)"/>
     </g>
    </g>
   </g>
   <g id="patch_3">
    <path d="M 72.36125 250.6248 
L 273.24125 250.6248 
L 273.24125 159.283826 
L 72.36125 159.283826 
L 72.36125 250.6248 
z
" clip-path="url(#p6bd64e6ec0)" style="fill: #b5caf3; stroke: #797979; stroke-linejoin: miter"/>
   </g>
   <g id="line2d_9">
    <path d="M 172.80125 250.6248 
L 172.80125 287.991562 
" clip-path="url(#p6bd64e6ec0)" style="fill: none; stroke: #797979"/>
   </g>
   <g id="line2d_10">
    <path d="M 172.80125 159.283826 
L 172.80125 35.991562 
" clip-path="url(#p6bd64e6ec0)" style="fill: none; stroke: #797979"/>
   </g>
   <g id="line2d_11">
    <path d="M 122.58125 287.991562 
L 223.02125 287.991562 
" clip-path="url(#p6bd64e6ec0)" style="fill: none; stroke: #797979; stroke-linecap: round"/>
   </g>
   <g id="line2d_12">
    <path d="M 122.58125 35.991562 
L 223.02125 35.991562 
" clip-path="url(#p6bd64e6ec0)" style="fill: none; stroke: #797979; stroke-linecap: round"/>
   </g>
   <g id="line2d_13"/>
   <g id="patch_4">
    <path d="M 323.46125 172.461477 
L 524.34125 172.461477 
L 524.34125 79.315345 
L 323.46125 79.315345 
L 323.46125 172.461477 
z
" clip-path="url(#p6bd64e6ec0)" style="fill: #ecbca7; stroke: #797979; stroke-linejoin: miter"/>
   </g>
   <g id="line2d_14">
    <path d="M 423.90125 172.461477 
L 423.90125 287.269499 
" clip-path="url(#p6bd64e6ec0)" style="fill: none; stroke: #797979"/>
   </g>
   <g id="line2d_15">
    <path d="M 423.90125 79.315345 
L 423.90125 35.991562 
" clip-path="url(#p6bd64e6ec0)" style="fill: none; stroke: #797979"/>
   </g>
   <g id="line2d_16">
    <path d="M 373.68125 287.269499 
L 474.12125 287.269499 
" clip-path="url(#p6bd64e6ec0)" style="fill: none; stroke: #797979; stroke-linecap: round"/>
   </g>
   <g id="line2d_17">
    <path d="M 373.68125 35.991562 
L 474.12125 35.991562 
" clip-path="url(#p6bd64e6ec0)" style="fill: none; stroke: #797979; stroke-linecap: round"/>
   </g>
   <g id="line2d_18"/>
   <g id="line2d_19">
    <path d="M 72.36125 213.980101 
L 273.24125 213.980101 
" clip-path="url(#p6bd64e6ec0)" style="fill: none; stroke: #797979"/>
   </g>
   <g id="line2d_20">
    <path d="M 323.46125 121.195001 
L 524.34125 121.195001 
" clip-path="url(#p6bd64e6ec0)" style="fill: none; stroke: #797979"/>
   </g>
   <g id="patch_5">
    <path d="M 47.25125 300.591562 
L 47.25125 23.391562 
" style="fill: none; stroke: #cccccc; stroke-width: 1.25; stroke-linejoin: miter; stroke-linecap: square"/>
   </g>
   <g id="patch_6">
    <path d="M 549.45125 300.591562 
L 549.45125 23.391562 
" style="fill: none; stroke: #cccccc; stroke-width: 1.25; stroke-linejoin: miter; stroke-linecap: square"/>
   </g>
   <g id="patch_7">
    <path d="M 47.25125 300.591563 
L 549.45125 300.591563 
" style="fill: none; stroke: #cccccc; stroke-width: 1.25; stroke-linejoin: miter; stroke-linecap: square"/>
   </g>
   <g id="patch_8">
    <path d="M 47.25125 23.391562 
L 549.45125 23.391562 
" style="fill: none; stroke: #cccccc; stroke-width: 1.25; stroke-linejoin: miter; stroke-linecap: square"/>
   </g>
   <g id="text_13">
    <!-- 퇴사 여부에 따른 직원 만족도(Satisfaction) 분포 차이 -->
    <g style="fill: #262626" transform="translate(158.349063 17.391562) scale(0.14 -0.14)">
     <defs>
      <path id="Arial-BoldMT-d1f4" d="M 800 0 
L 800 4000 
L 4000 4000 
L 4000 0 
L 800 0 
z
M 900 100 
L 3900 100 
L 3900 3900 
L 900 3900 
L 900 100 
z
" transform="scale(0.015625)"/>
      <path id="Arial-BoldMT-c0ac" d="M 800 0 
L 800 4000 
L 4000 4000 
L 4000 0 
L 800 0 
z
M 900 100 
L 3900 100 
L 3900 3900 
L 900 3900 
L 900 100 
z
" transform="scale(0.015625)"/>
      <path id="Arial-BoldMT-20" transform="scale(0.015625)"/>
      <path id="Arial-BoldMT-c5ec" d="M 800 0 
L 800 4000 
L 4000 4000 
L 4000 0 
L 800 0 
z
M 900 100 
L 3900 100 
L 3900 3900 
L 900 3900 
L 900 100 
z
" transform="scale(0.015625)"/>
      <path id="Arial-BoldMT-bd80" d="M 800 0 
L 800 4000 
L 4000 4000 
L 4000 0 
L 800 0 
z
M 900 100 
L 3900 100 
L 3900 3900 
L 900 3900 
L 900 100 
z
" transform="scale(0.015625)"/>
      <path id="Arial-BoldMT-c5d0" d="M 800 0 
L 800 4000 
L 4000 4000 
L 4000 0 
L 800 0 
z
M 900 100 
L 3900 100 
L 3900 3900 
L 900 3900 
L 900 100 
z
" transform="scale(0.015625)"/>
      <path id="Arial-BoldMT-b530" d="M 800 0 
L 800 4000 
L 4000 4000 
L 4000 0 
L 800 0 
z
M 900 100 
L 3900 100 
L 3900 3900 
L 900 3900 
L 900 100 
z
" transform="scale(0.015625)"/>
      <path id="Arial-BoldMT-b978" d="M 800 0 
L 800 4000 
L 4000 4000 
L 4000 0 
L 800 0 
z
M 900 100 
L 3900 100 
L 3900 3900 
L 900 3900 
L 900 100 
z
" transform="scale(0.015625)"/>
      <path id="Arial-BoldMT-c9c1" d="M 800 0 
L 800 4000 
L 4000 4000 
L 4000 0 
L 800 0 
z
M 900 100 
L 3900 100 
L 3900 3900 
L 900 3900 
L 900 100 
z
" transform="scale(0.015625)"/>
      <path id="Arial-BoldMT-c6d0" d="M 800 0 
L 800 4000 
L 4000 4000 
L 4000 0 
L 800 0 
z
M 900 100 
L 3900 100 
L 3900 3900 
L 900 3900 
L 900 100 
z
" transform="scale(0.015625)"/>
      <path id="Arial-BoldMT-b9cc" d="M 800 0 
L 800 4000 
L 4000 4000 
L 4000 0 
L 800 0 
z
M 900 100 
L 3900 100 
L 3900 3900 
L 900 3900 
L 900 100 
z
" transform="scale(0.015625)"/>
      <path id="Arial-BoldMT-c871" d="M 800 0 
L 800 4000 
L 4000 4000 
L 4000 0 
L 800 0 
z
M 900 100 
L 3900 100 
L 3900 3900 
L 900 3900 
L 900 100 
z
" transform="scale(0.015625)"/>
      <path id="Arial-BoldMT-b3c4" d="M 800 0 
L 800 4000 
L 4000 4000 
L 4000 0 
L 800 0 
z
M 900 100 
L 3900 100 
L 3900 3900 
L 900 3900 
L 900 100 
z
" transform="scale(0.015625)"/>
      <path id="Arial-BoldMT-28" d="M 1916 -1347 
L 1313 -1347 
Q 834 -625 584 153 
Q 334 931 334 1659 
Q 334 2563 644 3369 
Q 913 4069 1325 4659 
L 1925 4659 
Q 1497 3713 1336 3048 
Q 1175 2384 1175 1641 
Q 1175 1128 1270 590 
Q 1366 53 1531 -431 
Q 1641 -750 1916 -1347 
z
" transform="scale(0.015625)"/>
      <path id="Arial-BoldMT-53" d="M 231 1491 
L 1131 1578 
Q 1213 1125 1461 912 
Q 1709 700 2131 700 
Q 2578 700 2804 889 
Q 3031 1078 3031 1331 
Q 3031 1494 2936 1608 
Q 2841 1722 2603 1806 
Q 2441 1863 1863 2006 
Q 1119 2191 819 2459 
Q 397 2838 397 3381 
Q 397 3731 595 4036 
Q 794 4341 1167 4500 
Q 1541 4659 2069 4659 
Q 2931 4659 3367 4281 
Q 3803 3903 3825 3272 
L 2900 3231 
Q 2841 3584 2645 3739 
Q 2450 3894 2059 3894 
Q 1656 3894 1428 3728 
Q 1281 3622 1281 3444 
Q 1281 3281 1419 3166 
Q 1594 3019 2269 2859 
Q 2944 2700 3267 2529 
Q 3591 2359 3773 2064 
Q 3956 1769 3956 1334 
Q 3956 941 3737 597 
Q 3519 253 3119 86 
Q 2719 -81 2122 -81 
Q 1253 -81 787 320 
Q 322 722 231 1491 
z
" transform="scale(0.015625)"/>
      <path id="Arial-BoldMT-61" d="M 1116 2306 
L 319 2450 
Q 453 2931 781 3162 
Q 1109 3394 1756 3394 
Q 2344 3394 2631 3255 
Q 2919 3116 3036 2902 
Q 3153 2688 3153 2116 
L 3144 1091 
Q 3144 653 3186 445 
Q 3228 238 3344 0 
L 2475 0 
Q 2441 88 2391 259 
Q 2369 338 2359 363 
Q 2134 144 1878 34 
Q 1622 -75 1331 -75 
Q 819 -75 523 203 
Q 228 481 228 906 
Q 228 1188 362 1408 
Q 497 1628 739 1745 
Q 981 1863 1438 1950 
Q 2053 2066 2291 2166 
L 2291 2253 
Q 2291 2506 2166 2614 
Q 2041 2722 1694 2722 
Q 1459 2722 1328 2630 
Q 1197 2538 1116 2306 
z
M 2291 1594 
Q 2122 1538 1756 1459 
Q 1391 1381 1278 1306 
Q 1106 1184 1106 997 
Q 1106 813 1243 678 
Q 1381 544 1594 544 
Q 1831 544 2047 700 
Q 2206 819 2256 991 
Q 2291 1103 2291 1419 
L 2291 1594 
z
" transform="scale(0.015625)"/>
      <path id="Arial-BoldMT-74" d="M 1981 3319 
L 1981 2619 
L 1381 2619 
L 1381 1281 
Q 1381 875 1398 808 
Q 1416 741 1477 697 
Q 1538 653 1625 653 
Q 1747 653 1978 738 
L 2053 56 
Q 1747 -75 1359 -75 
Q 1122 -75 931 4 
Q 741 84 652 211 
Q 563 338 528 553 
Q 500 706 500 1172 
L 500 2619 
L 97 2619 
L 97 3319 
L 500 3319 
L 500 3978 
L 1381 4491 
L 1381 3319 
L 1981 3319 
z
" transform="scale(0.015625)"/>
      <path id="Arial-BoldMT-69" d="M 459 3769 
L 459 4581 
L 1338 4581 
L 1338 3769 
L 459 3769 
z
M 459 0 
L 459 3319 
L 1338 3319 
L 1338 0 
L 459 0 
z
" transform="scale(0.015625)"/>
      <path id="Arial-BoldMT-73" d="M 150 947 
L 1031 1081 
Q 1088 825 1259 692 
Q 1431 559 1741 559 
Q 2081 559 2253 684 
Q 2369 772 2369 919 
Q 2369 1019 2306 1084 
Q 2241 1147 2013 1200 
Q 950 1434 666 1628 
Q 272 1897 272 2375 
Q 272 2806 612 3100 
Q 953 3394 1669 3394 
Q 2350 3394 2681 3172 
Q 3013 2950 3138 2516 
L 2309 2363 
Q 2256 2556 2107 2659 
Q 1959 2763 1684 2763 
Q 1338 2763 1188 2666 
Q 1088 2597 1088 2488 
Q 1088 2394 1175 2328 
Q 1294 2241 1995 2081 
Q 2697 1922 2975 1691 
Q 3250 1456 3250 1038 
Q 3250 581 2869 253 
Q 2488 -75 1741 -75 
Q 1063 -75 667 200 
Q 272 475 150 947 
z
" transform="scale(0.015625)"/>
      <path id="Arial-BoldMT-66" d="M 75 3319 
L 563 3319 
L 563 3569 
Q 563 3988 652 4194 
Q 741 4400 980 4529 
Q 1219 4659 1584 4659 
Q 1959 4659 2319 4547 
L 2200 3934 
Q 1991 3984 1797 3984 
Q 1606 3984 1523 3895 
Q 1441 3806 1441 3553 
L 1441 3319 
L 2097 3319 
L 2097 2628 
L 1441 2628 
L 1441 0 
L 563 0 
L 563 2628 
L 75 2628 
L 75 3319 
z
" transform="scale(0.015625)"/>
      <path id="Arial-BoldMT-63" d="M 3353 2338 
L 2488 2181 
Q 2444 2441 2289 2572 
Q 2134 2703 1888 2703 
Q 1559 2703 1364 2476 
Q 1169 2250 1169 1719 
Q 1169 1128 1367 884 
Q 1566 641 1900 641 
Q 2150 641 2309 783 
Q 2469 925 2534 1272 
L 3397 1125 
Q 3263 531 2881 228 
Q 2500 -75 1859 -75 
Q 1131 -75 698 384 
Q 266 844 266 1656 
Q 266 2478 700 2936 
Q 1134 3394 1875 3394 
Q 2481 3394 2839 3133 
Q 3197 2872 3353 2338 
z
" transform="scale(0.015625)"/>
      <path id="Arial-BoldMT-6f" d="M 256 1706 
Q 256 2144 472 2553 
Q 688 2963 1083 3178 
Q 1478 3394 1966 3394 
Q 2719 3394 3200 2905 
Q 3681 2416 3681 1669 
Q 3681 916 3195 420 
Q 2709 -75 1972 -75 
Q 1516 -75 1102 131 
Q 688 338 472 736 
Q 256 1134 256 1706 
z
M 1156 1659 
Q 1156 1166 1390 903 
Q 1625 641 1969 641 
Q 2313 641 2545 903 
Q 2778 1166 2778 1666 
Q 2778 2153 2545 2415 
Q 2313 2678 1969 2678 
Q 1625 2678 1390 2415 
Q 1156 2153 1156 1659 
z
" transform="scale(0.015625)"/>
      <path id="Arial-BoldMT-6e" d="M 3478 0 
L 2600 0 
L 2600 1694 
Q 2600 2231 2544 2389 
Q 2488 2547 2361 2634 
Q 2234 2722 2056 2722 
Q 1828 2722 1647 2597 
Q 1466 2472 1398 2265 
Q 1331 2059 1331 1503 
L 1331 0 
L 453 0 
L 453 3319 
L 1269 3319 
L 1269 2831 
Q 1703 3394 2363 3394 
Q 2653 3394 2893 3289 
Q 3134 3184 3257 3021 
Q 3381 2859 3429 2653 
Q 3478 2447 3478 2063 
L 3478 0 
z
" transform="scale(0.015625)"/>
      <path id="Arial-BoldMT-29" d="M 216 -1347 
Q 475 -791 581 -494 
Q 688 -197 778 190 
Q 869 578 912 926 
Q 956 1275 956 1641 
Q 956 2384 797 3048 
Q 638 3713 209 4659 
L 806 4659 
Q 1278 3988 1539 3234 
Q 1800 2481 1800 1706 
Q 1800 1053 1594 306 
Q 1359 -531 822 -1347 
L 216 -1347 
z
" transform="scale(0.015625)"/>
      <path id="Arial-BoldMT-bd84" d="M 800 0 
L 800 4000 
L 4000 4000 
L 4000 0 
L 800 0 
z
M 900 100 
L 3900 100 
L 3900 3900 
L 900 3900 
L 900 100 
z
" transform="scale(0.015625)"/>
      <path id="Arial-BoldMT-d3ec" d="M 800 0 
L 800 4000 
L 4000 4000 
L 4000 0 
L 800 0 
z
M 900 100 
L 3900 100 
L 3900 3900 
L 900 3900 
L 900 100 
z
" transform="scale(0.015625)"/>
      <path id="Arial-BoldMT-cc28" d="M 800 0 
L 800 4000 
L 4000 4000 
L 4000 0 
L 800 0 
z
M 900 100 
L 3900 100 
L 3900 3900 
L 900 3900 
L 900 100 
z
" transform="scale(0.015625)"/>
      <path id="Arial-BoldMT-c774" d="M 800 0 
L 800 4000 
L 4000 4000 
L 4000 0 
L 800 0 
z
M 900 100 
L 3900 100 
L 3900 3900 
L 900 3900 
L 900 100 
z
" transform="scale(0.015625)"/>
     </defs>
     <use xlink:href="#Arial-BoldMT-d1f4"/>
     <use xlink:href="#Arial-BoldMT-c0ac" transform="translate(75 0)"/>
     <use xlink:href="#Arial-BoldMT-20" transform="translate(150 0)"/>
     <use xlink:href="#Arial-BoldMT-c5ec" transform="translate(177.783203 0)"/>
     <use xlink:href="#Arial-BoldMT-bd80" transform="translate(252.783203 0)"/>
     <use xlink:href="#Arial-BoldMT-c5d0" transform="translate(327.783203 0)"/>
     <use xlink:href="#Arial-BoldMT-20" transform="translate(402.783203 0)"/>
     <use xlink:href="#Arial-BoldMT-b530" transform="translate(430.566406 0)"/>
     <use xlink:href="#Arial-BoldMT-b978" transform="translate(505.566406 0)"/>
     <use xlink:href="#Arial-BoldMT-20" transform="translate(580.566406 0)"/>
     <use xlink:href="#Arial-BoldMT-c9c1" transform="translate(608.349609 0)"/>
     <use xlink:href="#Arial-BoldMT-c6d0" transform="translate(683.349609 0)"/>
     <use xlink:href="#Arial-BoldMT-20" transform="translate(758.349609 0)"/>
     <use xlink:href="#Arial-BoldMT-b9cc" transform="translate(786.132812 0)"/>
     <use xlink:href="#Arial-BoldMT-c871" transform="translate(861.132812 0)"/>
     <use xlink:href="#Arial-BoldMT-b3c4" transform="translate(936.132812 0)"/>
     <use xlink:href="#Arial-BoldMT-28" transform="translate(1011.132812 0)"/>
     <use xlink:href="#Arial-BoldMT-53" transform="translate(1044.433594 0)"/>
     <use xlink:href="#Arial-BoldMT-61" transform="translate(1111.132812 0)"/>
     <use xlink:href="#Arial-BoldMT-74" transform="translate(1166.748047 0)"/>
     <use xlink:href="#Arial-BoldMT-69" transform="translate(1200.048828 0)"/>
     <use xlink:href="#Arial-BoldMT-73" transform="translate(1227.832031 0)"/>
     <use xlink:href="#Arial-BoldMT-66" transform="translate(1283.447266 0)"/>
     <use xlink:href="#Arial-BoldMT-61" transform="translate(1316.748047 0)"/>
     <use xlink:href="#Arial-BoldMT-63" transform="translate(1372.363281 0)"/>
     <use xlink:href="#Arial-BoldMT-74" transform="translate(1427.978516 0)"/>
     <use xlink:href="#Arial-BoldMT-69" transform="translate(1461.279297 0)"/>
     <use xlink:href="#Arial-BoldMT-6f" transform="translate(1489.0625 0)"/>
     <use xlink:href="#Arial-BoldMT-6e" transform="translate(1550.146484 0)"/>
     <use xlink:href="#Arial-BoldMT-29" transform="translate(1611.230469 0)"/>
     <use xlink:href="#Arial-BoldMT-20" transform="translate(1644.53125 0)"/>
     <use xlink:href="#Arial-BoldMT-bd84" transform="translate(1672.314453 0)"/>
     <use xlink:href="#Arial-BoldMT-d3ec" transform="translate(1747.314453 0)"/>
     <use xlink:href="#Arial-BoldMT-20" transform="translate(1822.314453 0)"/>
     <use xlink:href="#Arial-BoldMT-cc28" transform="translate(1850.097656 0)"/>
     <use xlink:href="#Arial-BoldMT-c774" transform="translate(1925.097656 0)"/>
    </g>
   </g>
  </g>
 </g>
 <defs>
  <clipPath id="p6bd64e6ec0">
   <rect x="47.25125" y="23.391562" width="502.2" height="277.2"/>
  </clipPath>
 </defs>
</svg>
