<?xml version="1.0" encoding="utf-8" standalone="no"?>
<!DOCTYPE svg PUBLIC "-//W3C//DTD SVG 1.1//EN"
  "http://www.w3.org/Graphics/SVG/1.1/DTD/svg11.dtd">
<svg xmlns:xlink="http://www.w3.org/1999/xlink" width="731.413125pt" height="342.498906pt" viewBox="0 0 731.413125 342.498906" xmlns="http://www.w3.org/2000/svg" version="1.1">
 <metadata>
  <rdf:RDF xmlns:dc="http://purl.org/dc/elements/1.1/" xmlns:cc="http://creativecommons.org/ns#" xmlns:rdf="http://www.w3.org/1999/02/22-rdf-syntax-ns#">
   <cc:Work>
    <dc:type rdf:resource="http://purl.org/dc/dcmitype/StillImage"/>
    <dc:date>2026-05-22T02:33:55.039308</dc:date>
    <dc:format>image/svg+xml</dc:format>
    <dc:creator>
     <cc:Agent>
      <dc:title>Matplotlib v3.10.9, https://matplotlib.org/</dc:title>
     </cc:Agent>
    </dc:creator>
   </cc:Work>
  </rdf:RDF>
 </metadata>
 <defs>
  <style type="text/css">*{stroke-linejoin: round; stroke-linecap: butt}</style>
 </defs>
 <g id="figure_1">
  <g id="patch_1">
   <path d="M 0 342.498906 
L 731.413125 342.498906 
L 731.413125 0 
L 0 0 
z
" style="fill: #ffffff"/>
  </g>
  <g id="axes_1">
   <g id="patch_2">
    <path d="M 54.613125 299.80875 
L 724.213125 299.80875 
L 724.213125 22.60875 
L 54.613125 22.60875 
z
" style="fill: #ffffff"/>
   </g>
   <g id="matplotlib.axis_1">
    <g id="xtick_1">
     <g id="line2d_1">
      <defs>
       <path id="md0a5882b04" d="M 0 0 
L 0 6 
" style="stroke: #262626; stroke-width: 1.25"/>
      </defs>
      <g>
       <use xlink:href="#md0a5882b04" x="68.563125" y="299.80875" style="fill: #262626; stroke: #262626; stroke-width: 1.25"/>
      </g>
     </g>
     <g id="text_1">
      <!-- 0 -->
      <g style="fill: #262626" transform="translate(64.823125 317.933438) scale(0.11 -0.11)">
       <defs>
        <path id="AppleGothic-30" d="M 2227 -83 
Q 1414 -83 934 576 
Q 461 1229 461 2387 
Q 461 3552 973 4218 
Q 1453 4858 2221 4858 
Q 3027 4858 3482 4173 
Q 3955 3494 3955 2394 
Q 3955 1248 3462 582 
Q 2976 -83 2227 -83 
z
M 2176 346 
Q 2861 346 3200 992 
Q 3462 1536 3462 2400 
Q 3462 3315 3162 3859 
Q 2822 4429 2214 4429 
Q 1574 4429 1248 3821 
Q 960 3283 960 2374 
Q 960 1478 1248 941 
Q 1574 346 2176 346 
z
" transform="scale(0.015625)"/>
       </defs>
       <use xlink:href="#AppleGothic-30"/>
      </g>
     </g>
    </g>
    <g id="xtick_2">
     <g id="line2d_2">
      <g>
       <use xlink:href="#md0a5882b04" x="96.463125" y="299.80875" style="fill: #262626; stroke: #262626; stroke-width: 1.25"/>
      </g>
     </g>
     <g id="text_2">
      <!-- 1 -->
      <g style="fill: #262626" transform="translate(92.723125 317.933438) scale(0.11 -0.11)">
       <defs>
        <path id="AppleGothic-31" d="M 2342 4774 
L 2752 4774 
L 2752 0 
L 2285 0 
L 2285 3526 
L 1158 3526 
L 1158 3885 
L 1414 3885 
Q 1990 3885 2214 4205 
Q 2342 4410 2342 4774 
z
" transform="scale(0.015625)"/>
       </defs>
       <use xlink:href="#AppleGothic-31"/>
      </g>
     </g>
    </g>
    <g id="xtick_3">
     <g id="line2d_3">
      <g>
       <use xlink:href="#md0a5882b04" x="124.363125" y="299.80875" style="fill: #262626; stroke: #262626; stroke-width: 1.25"/>
      </g>
     </g>
     <g id="text_3">
      <!-- 2 -->
      <g style="fill: #262626" transform="translate(120.623125 317.933438) scale(0.11 -0.11)">
       <defs>
        <path id="AppleGothic-32" d="M 1101 429 
L 3942 429 
L 3942 0 
L 653 0 
L 653 205 
Q 653 1018 1344 1664 
Q 1670 1894 1990 2124 
Q 2310 2355 2637 2592 
Q 3334 3098 3334 3597 
Q 3334 3994 3014 4218 
Q 2867 4326 2694 4377 
Q 2522 4429 2317 4429 
Q 2016 4429 1741 4352 
Q 1325 4224 883 3910 
L 883 4435 
Q 1325 4659 1667 4758 
Q 2010 4858 2317 4858 
Q 2963 4858 3405 4525 
Q 3840 4198 3840 3622 
Q 3840 2995 3168 2438 
Q 2848 2214 2531 2000 
Q 2214 1786 1894 1562 
Q 1178 1024 1101 429 
z
" transform="scale(0.015625)"/>
       </defs>
       <use xlink:href="#AppleGothic-32"/>
      </g>
     </g>
    </g>
    <g id="xtick_4">
     <g id="line2d_4">
      <g>
       <use xlink:href="#md0a5882b04" x="152.263125" y="299.80875" style="fill: #262626; stroke: #262626; stroke-width: 1.25"/>
      </g>
     </g>
     <g id="text_4">
      <!-- 3 -->
      <g style="fill: #262626" transform="translate(148.523125 317.933438) scale(0.11 -0.11)">
       <defs>
        <path id="AppleGothic-33" d="M 550 333 
L 550 870 
Q 883 621 1235 483 
Q 1587 346 1971 346 
Q 2522 346 2861 666 
Q 3219 992 3219 1421 
Q 3219 1869 2842 2099 
Q 2515 2304 1965 2304 
L 992 2304 
L 992 2701 
L 1658 2701 
Q 2298 2701 2662 2928 
Q 3027 3155 3027 3584 
Q 3027 3936 2752 4173 
Q 2458 4429 1978 4429 
Q 1786 4429 1597 4393 
Q 1408 4358 1222 4282 
Q 890 4141 531 3872 
L 531 4422 
Q 736 4531 912 4608 
Q 1088 4685 1254 4736 
Q 1626 4858 2022 4858 
Q 2650 4858 3066 4531 
Q 3488 4211 3488 3642 
Q 3488 3168 3168 2861 
Q 2976 2675 2643 2554 
Q 2874 2522 3053 2448 
Q 3232 2374 3366 2266 
Q 3718 1971 3718 1434 
Q 3718 813 3219 365 
Q 2714 -83 1965 -83 
Q 1549 -83 1126 70 
Q 1024 102 880 166 
Q 736 230 550 333 
z
" transform="scale(0.015625)"/>
       </defs>
       <use xlink:href="#AppleGothic-33"/>
      </g>
     </g>
    </g>
    <g id="xtick_5">
     <g id="line2d_5">
      <g>
       <use xlink:href="#md0a5882b04" x="180.163125" y="299.80875" style="fill: #262626; stroke: #262626; stroke-width: 1.25"/>
      </g>
     </g>
     <g id="text_5">
      <!-- 4 -->
      <g style="fill: #262626" transform="translate(176.423125 317.933438) scale(0.11 -0.11)">
       <defs>
        <path id="AppleGothic-34" d="M 2662 4774 
L 3130 4774 
L 3130 1811 
L 4000 1811 
L 4000 1382 
L 3130 1382 
L 3130 0 
L 2662 0 
L 2662 1382 
L 352 1382 
L 352 1811 
L 2662 4774 
z
M 2662 1811 
L 2662 4166 
L 838 1811 
L 2662 1811 
z
" transform="scale(0.015625)"/>
       </defs>
       <use xlink:href="#AppleGothic-34"/>
      </g>
     </g>
    </g>
    <g id="xtick_6">
     <g id="line2d_6">
      <g>
       <use xlink:href="#md0a5882b04" x="208.063125" y="299.80875" style="fill: #262626; stroke: #262626; stroke-width: 1.25"/>
      </g>
     </g>
     <g id="text_6">
      <!-- 5 -->
      <g style="fill: #262626" transform="translate(204.323125 317.933438) scale(0.11 -0.11)">
       <defs>
        <path id="AppleGothic-35" d="M 621 4768 
L 3488 4768 
L 3488 4339 
L 1088 4339 
L 1088 2707 
Q 1184 2771 1293 2819 
Q 1402 2867 1510 2912 
Q 1862 3040 2259 3040 
Q 2989 3040 3424 2605 
Q 3827 2202 3827 1581 
Q 3827 870 3296 397 
Q 2765 -83 2010 -83 
Q 1651 -83 1248 45 
Q 1158 77 1001 137 
Q 845 198 621 301 
L 621 838 
Q 928 640 1203 525 
Q 1408 435 1613 390 
Q 1818 346 2010 346 
Q 2528 346 2906 666 
Q 3322 1011 3322 1536 
Q 3322 1990 3021 2291 
Q 2701 2611 2144 2611 
Q 1856 2611 1587 2528 
Q 1318 2445 1088 2272 
L 621 2272 
L 621 4768 
z
" transform="scale(0.015625)"/>
       </defs>
       <use xlink:href="#AppleGothic-35"/>
      </g>
     </g>
    </g>
    <g id="xtick_7">
     <g id="line2d_7">
      <g>
       <use xlink:href="#md0a5882b04" x="235.963125" y="299.80875" style="fill: #262626; stroke: #262626; stroke-width: 1.25"/>
      </g>
     </g>
     <g id="text_7">
      <!-- 6 -->
      <g style="fill: #262626" transform="translate(232.223125 317.933438) scale(0.11 -0.11)">
       <defs>
        <path id="AppleGothic-36" d="M 3699 4557 
L 3699 4013 
Q 3584 4102 3475 4163 
Q 3366 4224 3258 4275 
Q 3085 4358 2918 4393 
Q 2752 4429 2586 4429 
Q 2470 4429 2352 4409 
Q 2234 4390 2118 4339 
Q 1670 4154 1395 3738 
Q 1011 3149 1011 2189 
Q 1312 2490 1568 2656 
Q 2022 2931 2534 2931 
Q 3162 2931 3584 2566 
Q 4038 2163 4038 1491 
Q 4038 806 3558 358 
Q 3078 -83 2394 -83 
Q 1670 -83 1146 454 
Q 518 1088 518 2253 
Q 518 3411 1120 4134 
Q 1715 4858 2605 4858 
Q 2938 4858 3226 4762 
Q 3309 4730 3427 4682 
Q 3546 4634 3699 4557 
z
M 1062 1702 
Q 1152 1152 1498 768 
Q 1882 346 2419 346 
Q 2899 346 3213 659 
Q 3539 973 3539 1459 
Q 3539 1920 3226 2214 
Q 2918 2502 2496 2502 
Q 1990 2502 1542 2176 
Q 1414 2080 1292 1965 
Q 1171 1850 1062 1702 
z
" transform="scale(0.015625)"/>
       </defs>
       <use xlink:href="#AppleGothic-36"/>
      </g>
     </g>
    </g>
    <g id="xtick_8">
     <g id="line2d_8">
      <g>
       <use xlink:href="#md0a5882b04" x="263.863125" y="299.80875" style="fill: #262626; stroke: #262626; stroke-width: 1.25"/>
      </g>
     </g>
     <g id="text_8">
      <!-- 7 -->
      <g style="fill: #262626" transform="translate(260.123125 317.933438) scale(0.11 -0.11)">
       <defs>
        <path id="AppleGothic-37" d="M 595 4774 
L 3802 4774 
L 3802 4410 
L 1734 0 
L 1235 0 
L 3277 4352 
L 595 4352 
L 595 4774 
z
" transform="scale(0.015625)"/>
       </defs>
       <use xlink:href="#AppleGothic-37"/>
      </g>
     </g>
    </g>
    <g id="xtick_9">
     <g id="line2d_9">
      <g>
       <use xlink:href="#md0a5882b04" x="291.763125" y="299.80875" style="fill: #262626; stroke: #262626; stroke-width: 1.25"/>
      </g>
     </g>
     <g id="text_9">
      <!-- 8 -->
      <g style="fill: #262626" transform="translate(288.023125 317.933438) scale(0.11 -0.11)">
       <defs>
        <path id="AppleGothic-38" d="M 2957 2605 
Q 3219 2528 3404 2445 
Q 3590 2362 3706 2272 
Q 4192 1926 4192 1370 
Q 4192 749 3642 333 
Q 3098 -83 2285 -83 
Q 1434 -83 947 326 
Q 512 691 512 1229 
Q 512 1798 998 2125 
Q 1146 2227 1341 2304 
Q 1536 2381 1779 2451 
Q 1574 2534 1430 2617 
Q 1286 2701 1197 2784 
Q 819 3104 819 3603 
Q 819 4173 1261 4512 
Q 1702 4858 2381 4858 
Q 3014 4858 3437 4570 
Q 3898 4262 3898 3738 
Q 3898 3373 3670 3081 
Q 3443 2790 2957 2605 
z
M 2406 2752 
Q 2624 2835 2781 2915 
Q 2938 2995 3040 3066 
Q 3398 3322 3398 3667 
Q 3398 3994 3104 4205 
Q 2822 4429 2362 4429 
Q 1894 4429 1613 4205 
Q 1325 3994 1325 3635 
Q 1325 3322 1581 3098 
Q 1696 3002 1901 2912 
Q 2106 2822 2406 2752 
z
M 2368 2304 
Q 2061 2202 1840 2106 
Q 1619 2010 1472 1920 
Q 1011 1626 1011 1235 
Q 1011 845 1376 595 
Q 1728 346 2310 346 
Q 2938 346 3315 640 
Q 3693 934 3693 1338 
Q 3693 1741 3238 1997 
Q 3104 2067 2886 2147 
Q 2669 2227 2368 2304 
z
" transform="scale(0.015625)"/>
       </defs>
       <use xlink:href="#AppleGothic-38"/>
      </g>
     </g>
    </g>
    <g id="xtick_10">
     <g id="line2d_10">
      <g>
       <use xlink:href="#md0a5882b04" x="319.663125" y="299.80875" style="fill: #262626; stroke: #262626; stroke-width: 1.25"/>
      </g>
     </g>
     <g id="text_10">
      <!-- 9 -->
      <g style="fill: #262626" transform="translate(315.923125 317.933438) scale(0.11 -0.11)">
       <defs>
        <path id="AppleGothic-39" d="M 928 211 
L 928 762 
Q 1050 672 1155 601 
Q 1261 531 1363 480 
Q 1702 320 2016 320 
Q 2291 320 2541 435 
Q 2739 525 2908 675 
Q 3078 826 3213 1037 
Q 3456 1408 3552 1843 
Q 3616 2144 3616 2573 
Q 3315 2272 3066 2125 
Q 2605 1850 2093 1850 
Q 1459 1850 1037 2214 
Q 589 2598 589 3270 
Q 589 3987 1082 4416 
Q 1549 4832 2234 4832 
Q 2970 4832 3494 4301 
Q 4122 3661 4122 2528 
Q 4122 1325 3475 582 
Q 2874 -109 2035 -109 
Q 1722 -109 1357 19 
Q 1254 51 1148 102 
Q 1043 154 928 211 
z
M 3578 3066 
Q 3462 3718 3053 4077 
Q 2675 4403 2227 4403 
Q 1715 4403 1402 4083 
Q 1082 3750 1082 3302 
Q 1082 2861 1370 2566 
Q 1658 2278 2125 2278 
Q 2573 2278 2915 2473 
Q 3258 2669 3578 3066 
z
" transform="scale(0.015625)"/>
       </defs>
       <use xlink:href="#AppleGothic-39"/>
      </g>
     </g>
    </g>
    <g id="xtick_11">
     <g id="line2d_11">
      <g>
       <use xlink:href="#md0a5882b04" x="347.563125" y="299.80875" style="fill: #262626; stroke: #262626; stroke-width: 1.25"/>
      </g>
     </g>
     <g id="text_11">
      <!-- 10 -->
      <g style="fill: #262626" transform="translate(340.083125 317.933438) scale(0.11 -0.11)">
       <use xlink:href="#AppleGothic-31"/>
       <use xlink:href="#AppleGothic-30" transform="translate(67.999985 0)"/>
      </g>
     </g>
    </g>
    <g id="xtick_12">
     <g id="line2d_12">
      <g>
       <use xlink:href="#md0a5882b04" x="375.463125" y="299.80875" style="fill: #262626; stroke: #262626; stroke-width: 1.25"/>
      </g>
     </g>
     <g id="text_12">
      <!-- 11 -->
      <g style="fill: #262626" transform="translate(367.983125 317.933438) scale(0.11 -0.11)">
       <use xlink:href="#AppleGothic-31"/>
       <use xlink:href="#AppleGothic-31" transform="translate(67.999985 0)"/>
      </g>
     </g>
    </g>
    <g id="xtick_13">
     <g id="line2d_13">
      <g>
       <use xlink:href="#md0a5882b04" x="403.363125" y="299.80875" style="fill: #262626; stroke: #262626; stroke-width: 1.25"/>
      </g>
     </g>
     <g id="text_13">
      <!-- 12 -->
      <g style="fill: #262626" transform="translate(395.883125 317.933438) scale(0.11 -0.11)">
       <use xlink:href="#AppleGothic-31"/>
       <use xlink:href="#AppleGothic-32" transform="translate(67.999985 0)"/>
      </g>
     </g>
    </g>
    <g id="xtick_14">
     <g id="line2d_14">
      <g>
       <use xlink:href="#md0a5882b04" x="431.263125" y="299.80875" style="fill: #262626; stroke: #262626; stroke-width: 1.25"/>
      </g>
     </g>
     <g id="text_14">
      <!-- 13 -->
      <g style="fill: #262626" transform="translate(423.783125 317.933438) scale(0.11 -0.11)">
       <use xlink:href="#AppleGothic-31"/>
       <use xlink:href="#AppleGothic-33" transform="translate(67.999985 0)"/>
      </g>
     </g>
    </g>
    <g id="xtick_15">
     <g id="line2d_15">
      <g>
       <use xlink:href="#md0a5882b04" x="459.163125" y="299.80875" style="fill: #262626; stroke: #262626; stroke-width: 1.25"/>
      </g>
     </g>
     <g id="text_15">
      <!-- 14 -->
      <g style="fill: #262626" transform="translate(451.683125 317.933438) scale(0.11 -0.11)">
       <use xlink:href="#AppleGothic-31"/>
       <use xlink:href="#AppleGothic-34" transform="translate(67.999985 0)"/>
      </g>
     </g>
    </g>
    <g id="xtick_16">
     <g id="line2d_16">
      <g>
       <use xlink:href="#md0a5882b04" x="487.063125" y="299.80875" style="fill: #262626; stroke: #262626; stroke-width: 1.25"/>
      </g>
     </g>
     <g id="text_16">
      <!-- 15 -->
      <g style="fill: #262626" transform="translate(479.583125 317.933438) scale(0.11 -0.11)">
       <use xlink:href="#AppleGothic-31"/>
       <use xlink:href="#AppleGothic-35" transform="translate(67.999985 0)"/>
      </g>
     </g>
    </g>
    <g id="xtick_17">
     <g id="line2d_17">
      <g>
       <use xlink:href="#md0a5882b04" x="514.963125" y="299.80875" style="fill: #262626; stroke: #262626; stroke-width: 1.25"/>
      </g>
     </g>
     <g id="text_17">
      <!-- 16 -->
      <g style="fill: #262626" transform="translate(507.483125 317.933438) scale(0.11 -0.11)">
       <use xlink:href="#AppleGothic-31"/>
       <use xlink:href="#AppleGothic-36" transform="translate(67.999985 0)"/>
      </g>
     </g>
    </g>
    <g id="xtick_18">
     <g id="line2d_18">
      <g>
       <use xlink:href="#md0a5882b04" x="542.863125" y="299.80875" style="fill: #262626; stroke: #262626; stroke-width: 1.25"/>
      </g>
     </g>
     <g id="text_18">
      <!-- 17 -->
      <g style="fill: #262626" transform="translate(535.383125 317.933438) scale(0.11 -0.11)">
       <use xlink:href="#AppleGothic-31"/>
       <use xlink:href="#AppleGothic-37" transform="translate(67.999985 0)"/>
      </g>
     </g>
    </g>
    <g id="xtick_19">
     <g id="line2d_19">
      <g>
       <use xlink:href="#md0a5882b04" x="570.763125" y="299.80875" style="fill: #262626; stroke: #262626; stroke-width: 1.25"/>
      </g>
     </g>
     <g id="text_19">
      <!-- 18 -->
      <g style="fill: #262626" transform="translate(563.283125 317.933438) scale(0.11 -0.11)">
       <use xlink:href="#AppleGothic-31"/>
       <use xlink:href="#AppleGothic-38" transform="translate(67.999985 0)"/>
      </g>
     </g>
    </g>
    <g id="xtick_20">
     <g id="line2d_20">
      <g>
       <use xlink:href="#md0a5882b04" x="598.663125" y="299.80875" style="fill: #262626; stroke: #262626; stroke-width: 1.25"/>
      </g>
     </g>
     <g id="text_20">
      <!-- 19 -->
      <g style="fill: #262626" transform="translate(591.183125 317.933438) scale(0.11 -0.11)">
       <use xlink:href="#AppleGothic-31"/>
       <use xlink:href="#AppleGothic-39" transform="translate(67.999985 0)"/>
      </g>
     </g>
    </g>
    <g id="xtick_21">
     <g id="line2d_21">
      <g>
       <use xlink:href="#md0a5882b04" x="626.563125" y="299.80875" style="fill: #262626; stroke: #262626; stroke-width: 1.25"/>
      </g>
     </g>
     <g id="text_21">
      <!-- 20 -->
      <g style="fill: #262626" transform="translate(619.083125 317.933438) scale(0.11 -0.11)">
       <use xlink:href="#AppleGothic-32"/>
       <use xlink:href="#AppleGothic-30" transform="translate(67.999985 0)"/>
      </g>
     </g>
    </g>
    <g id="xtick_22">
     <g id="line2d_22">
      <g>
       <use xlink:href="#md0a5882b04" x="654.463125" y="299.80875" style="fill: #262626; stroke: #262626; stroke-width: 1.25"/>
      </g>
     </g>
     <g id="text_22">
      <!-- 21 -->
      <g style="fill: #262626" transform="translate(646.983125 317.933438) scale(0.11 -0.11)">
       <use xlink:href="#AppleGothic-32"/>
       <use xlink:href="#AppleGothic-31" transform="translate(67.999985 0)"/>
      </g>
     </g>
    </g>
    <g id="xtick_23">
     <g id="line2d_23">
      <g>
       <use xlink:href="#md0a5882b04" x="682.363125" y="299.80875" style="fill: #262626; stroke: #262626; stroke-width: 1.25"/>
      </g>
     </g>
     <g id="text_23">
      <!-- 22 -->
      <g style="fill: #262626" transform="translate(674.883125 317.933438) scale(0.11 -0.11)">
       <use xlink:href="#AppleGothic-32"/>
       <use xlink:href="#AppleGothic-32" transform="translate(67.999985 0)"/>
      </g>
     </g>
    </g>
    <g id="xtick_24">
     <g id="line2d_24">
      <g>
       <use xlink:href="#md0a5882b04" x="710.263125" y="299.80875" style="fill: #262626; stroke: #262626; stroke-width: 1.25"/>
      </g>
     </g>
     <g id="text_24">
      <!-- 23 -->
      <g style="fill: #262626" transform="translate(702.783125 317.933438) scale(0.11 -0.11)">
       <use xlink:href="#AppleGothic-32"/>
       <use xlink:href="#AppleGothic-33" transform="translate(67.999985 0)"/>
      </g>
     </g>
    </g>
    <g id="text_25">
     <!-- 탑승 시간 (0시 ~ 23시) -->
     <g style="fill: #262626" transform="translate(323.113125 333.234531) scale(0.12 -0.12)">
      <defs>
       <path id="AppleGothic-d0d1" d="M 4717 -38 
L 4717 659 
L 3194 666 
L 1773 659 
L 1773 -38 
Q 1862 -38 2044 -38 
Q 2227 -38 2515 -45 
Q 2803 -51 2960 -54 
Q 3117 -58 3149 -58 
Q 3437 -58 3670 -54 
Q 3904 -51 4093 -48 
Q 4282 -45 4432 -41 
Q 4582 -38 4717 -38 
z
M 5216 1594 
Q 5216 1562 5190 1462 
Q 5165 1363 5165 1299 
L 5158 499 
L 5158 -134 
Q 5165 -243 5168 -348 
Q 5171 -454 5178 -563 
L 4698 -576 
L 4698 -429 
L 3130 -410 
L 1760 -410 
L 1747 -557 
L 1280 -557 
Q 1293 -358 1299 -70 
Q 1306 77 1309 208 
Q 1312 339 1312 448 
L 1299 1702 
Q 1389 1702 1469 1696 
Q 1549 1690 1638 1677 
Q 1805 1645 1805 1562 
Q 1805 1536 1789 1465 
Q 1773 1395 1773 1370 
L 1773 1024 
L 3354 1005 
Q 3789 1005 4105 1011 
Q 4422 1018 4717 1037 
L 4717 1395 
L 4691 1690 
L 4774 1690 
Q 4960 1690 5088 1670 
Q 5216 1651 5216 1594 
z
M 4045 2291 
Q 3942 2278 3859 2272 
Q 3776 2266 3706 2259 
Q 3136 2189 2768 2141 
Q 2400 2093 2221 2080 
Q 2048 2067 1731 2048 
Q 1414 2029 954 2003 
Q 890 2003 810 2000 
Q 730 1997 634 1990 
L 653 3238 
L 653 4768 
Q 966 4755 1344 4748 
Q 1722 4742 2074 4742 
Q 2432 4742 2816 4748 
Q 3200 4755 3526 4768 
L 3526 4397 
L 1094 4403 
L 1094 3642 
L 2221 3635 
L 3494 3654 
L 3494 3277 
L 2374 3290 
L 1094 3277 
L 1094 2445 
L 1318 2438 
L 1395 2438 
Q 1658 2438 1907 2457 
Q 2157 2477 2323 2490 
Q 2918 2490 3514 2566 
Q 3610 2579 3731 2601 
Q 3853 2624 4000 2656 
L 4045 2291 
z
M 6048 3027 
L 5171 3027 
L 5184 1920 
L 4704 1920 
Q 4704 2003 4707 2108 
Q 4710 2214 4713 2326 
Q 4717 2438 4717 2547 
Q 4717 2656 4717 2752 
L 4717 3270 
Q 4717 3629 4713 3910 
Q 4710 4192 4704 4397 
Q 4698 4602 4685 4800 
Q 4672 4998 4659 5190 
L 4819 5190 
Q 4992 5190 5101 5171 
Q 5210 5152 5210 5101 
Q 5210 5082 5187 4998 
Q 5165 4915 5165 4858 
L 5178 3398 
L 6048 3424 
L 6048 3027 
z
" transform="scale(0.015625)"/>
       <path id="AppleGothic-c2b9" d="M 4762 448 
Q 4762 794 4237 934 
Q 3853 1030 3155 1030 
Q 2413 1030 2061 915 
Q 1606 762 1606 378 
Q 1670 -160 3194 -160 
Q 3949 -160 4355 -19 
Q 4762 122 4762 448 
z
M 5261 429 
Q 5261 -83 4608 -339 
Q 4051 -550 3181 -550 
Q 2272 -550 1715 -320 
Q 1107 -64 1107 390 
Q 1107 954 1747 1203 
Q 2272 1408 3155 1408 
Q 4013 1408 4550 1222 
Q 5261 979 5261 429 
z
M 6042 2022 
Q 5997 2029 5955 2029 
Q 5914 2029 5869 2029 
Q 5555 2042 5212 2051 
Q 4870 2061 4506 2061 
L 3226 2048 
Q 2278 2048 1254 2010 
Q 890 1997 358 1971 
L 358 2426 
L 3232 2413 
Q 4192 2413 5184 2451 
Q 5357 2458 5571 2470 
Q 5786 2483 6042 2496 
L 6042 2022 
z
M 5747 3450 
L 5427 3059 
Q 5325 3072 5248 3088 
Q 5171 3104 5101 3117 
Q 4902 3174 4684 3254 
Q 4467 3334 4252 3443 
Q 4038 3552 3827 3699 
Q 3616 3846 3430 4038 
Q 3366 4102 3299 4182 
Q 3232 4262 3149 4371 
Q 3117 4320 3091 4281 
Q 3066 4243 3046 4211 
Q 2739 3827 2214 3494 
Q 2029 3373 1811 3273 
Q 1594 3174 1350 3104 
Q 1267 3078 1168 3059 
Q 1069 3040 941 3014 
Q 909 3046 886 3065 
Q 864 3085 851 3098 
Q 749 3194 707 3232 
Q 666 3270 646 3309 
Q 640 3315 637 3321 
Q 634 3328 627 3334 
Q 627 3360 688 3369 
Q 749 3379 755 3379 
Q 909 3411 1033 3443 
Q 1158 3475 1254 3507 
Q 1856 3699 2285 4045 
Q 2675 4346 2848 4768 
Q 2906 4909 2950 5133 
Q 2982 5133 3030 5129 
Q 3078 5126 3136 5120 
Q 3456 5082 3456 5018 
Q 3456 4986 3424 4925 
Q 3392 4864 3392 4838 
Q 3392 4640 3782 4288 
Q 4109 3994 4339 3872 
Q 4730 3667 5235 3552 
Q 5402 3514 5664 3475 
Q 5702 3462 5728 3456 
Q 5734 3456 5747 3450 
z
" transform="scale(0.015625)"/>
       <path id="AppleGothic-20" transform="scale(0.015625)"/>
       <path id="AppleGothic-c2dc" d="M 5459 5062 
Q 5459 5043 5440 4969 
Q 5421 4896 5421 4826 
L 5402 2349 
L 5414 -531 
L 4909 -557 
Q 4915 -410 4915 -278 
Q 4915 -147 4922 -19 
Q 4928 218 4941 1190 
Q 4960 2150 4960 2253 
Q 4960 3923 4941 4416 
Q 4934 4915 4922 5190 
Q 5146 5190 5302 5158 
Q 5459 5126 5459 5062 
z
M 4250 1478 
Q 4250 1459 4224 1434 
Q 4211 1421 4179 1395 
Q 4147 1370 4109 1338 
L 3917 1178 
Q 3866 1210 3821 1242 
Q 3776 1274 3738 1306 
Q 3290 1658 2899 2227 
Q 2707 2496 2534 2918 
Q 2515 2976 2483 3072 
Q 2451 3168 2400 3309 
Q 2221 2688 1754 2054 
Q 1267 1389 710 1114 
Q 698 1120 653 1155 
Q 608 1190 518 1254 
Q 486 1280 444 1312 
Q 403 1344 346 1395 
Q 346 1421 371 1427 
Q 397 1440 406 1449 
Q 416 1459 422 1466 
Q 467 1466 710 1645 
Q 896 1773 1056 1920 
Q 1216 2067 1350 2234 
Q 1549 2464 1696 2729 
Q 1843 2995 1952 3296 
Q 2061 3610 2125 4000 
Q 2157 4205 2173 4381 
Q 2189 4557 2189 4717 
Q 2323 4717 2534 4678 
Q 2752 4653 2752 4576 
Q 2752 4544 2710 4470 
Q 2669 4397 2669 4378 
L 2630 4032 
Q 2656 3923 2681 3814 
Q 2707 3706 2739 3597 
Q 2790 3430 2857 3248 
Q 2925 3066 3021 2867 
Q 3264 2349 3757 1894 
Q 3840 1818 3949 1728 
Q 4058 1638 4198 1530 
L 4237 1491 
L 4250 1478 
z
" transform="scale(0.015625)"/>
       <path id="AppleGothic-ac04" d="M 5363 -422 
L 4947 -422 
Q 4819 -422 4630 -425 
Q 4442 -429 4179 -435 
Q 3667 -454 3597 -454 
L 2221 -448 
Q 1875 -448 1641 -451 
Q 1408 -454 1235 -461 
Q 1222 -410 1222 -282 
L 1222 -173 
L 1229 1203 
L 1581 1190 
L 1651 1197 
Q 1702 1197 1702 1158 
L 1677 1075 
Q 1677 1050 1670 1030 
Q 1645 954 1645 896 
L 1670 -90 
L 2086 -77 
L 3302 -83 
Q 3821 -83 4333 -73 
Q 4845 -64 5363 -58 
L 5363 -422 
z
M 6093 2362 
L 5094 2362 
L 5075 710 
L 4666 717 
L 4666 1824 
Q 4672 2266 4675 2614 
Q 4678 2963 4678 3232 
L 4672 4800 
Q 4672 4922 4672 4992 
Q 4672 5062 4672 5100 
Q 4672 5139 4669 5158 
Q 4666 5178 4659 5197 
Q 4864 5197 4985 5174 
Q 5107 5152 5107 5114 
L 5088 4806 
L 5088 2726 
L 6093 2726 
L 6093 2362 
z
M 3258 4634 
Q 3258 4192 3123 3763 
Q 2893 2989 2291 2413 
Q 1843 1978 1242 1664 
Q 787 1427 659 1427 
Q 595 1472 547 1510 
Q 499 1549 461 1581 
Q 314 1709 314 1747 
L 320 1766 
L 339 1754 
Q 518 1754 966 1958 
Q 1267 2093 1526 2272 
Q 1786 2451 2010 2675 
Q 2342 3008 2547 3424 
Q 2624 3578 2678 3728 
Q 2733 3878 2765 4026 
Q 2771 4090 2777 4144 
Q 2784 4198 2797 4262 
L 538 4250 
L 538 4634 
L 1818 4614 
L 3258 4634 
z
" transform="scale(0.015625)"/>
       <path id="AppleGothic-28" d="M 2227 5261 
L 2650 5261 
Q 2342 4768 2169 4473 
Q 1997 4179 1958 4083 
Q 1606 3283 1606 2272 
Q 1606 1587 1754 1018 
Q 1882 570 2138 102 
Q 2150 70 2275 -131 
Q 2400 -333 2630 -717 
L 2227 -717 
Q 2099 -531 1980 -355 
Q 1862 -179 1734 0 
Q 1581 243 1469 483 
Q 1357 723 1274 954 
Q 1069 1587 1069 2272 
Q 1069 2963 1261 3558 
Q 1338 3789 1450 4022 
Q 1562 4256 1715 4499 
Q 1843 4691 1971 4880 
Q 2099 5069 2227 5261 
z
" transform="scale(0.015625)"/>
       <path id="AppleGothic-7e" d="M 2336 2374 
L 2112 2483 
Q 1869 2598 1725 2643 
Q 1581 2688 1446 2688 
Q 1165 2688 858 2515 
Q 794 2483 685 2403 
Q 576 2323 410 2202 
L 410 2637 
Q 538 2726 640 2790 
Q 742 2854 813 2893 
Q 1152 3072 1466 3072 
Q 1779 3072 2387 2784 
Q 2982 2490 3264 2490 
Q 3366 2490 3472 2512 
Q 3578 2534 3696 2588 
Q 3814 2643 3955 2739 
Q 4096 2835 4275 2989 
L 4275 2547 
Q 3974 2323 3740 2211 
Q 3507 2099 3245 2099 
Q 3078 2099 2874 2150 
Q 2688 2208 2336 2374 
z
" transform="scale(0.015625)"/>
       <path id="AppleGothic-29" d="M 2221 2272 
Q 2221 1587 2016 960 
Q 1862 499 1555 6 
Q 1427 -179 1305 -355 
Q 1184 -531 1062 -717 
L 659 -717 
Q 781 -512 902 -310 
Q 1024 -109 1152 96 
Q 1280 333 1376 557 
Q 1472 781 1530 1005 
Q 1683 1562 1683 2272 
Q 1683 2650 1641 2973 
Q 1600 3296 1517 3584 
Q 1459 3802 1356 4029 
Q 1254 4256 1120 4499 
Q 992 4691 873 4880 
Q 755 5069 640 5261 
L 1062 5261 
Q 1190 5069 1315 4880 
Q 1440 4691 1568 4506 
Q 1722 4256 1837 4022 
Q 1952 3789 2022 3565 
Q 2221 2976 2221 2272 
z
" transform="scale(0.015625)"/>
      </defs>
      <use xlink:href="#AppleGothic-d0d1"/>
      <use xlink:href="#AppleGothic-c2b9" transform="translate(99.999985 0)"/>
      <use xlink:href="#AppleGothic-20" transform="translate(199.999969 0)"/>
      <use xlink:href="#AppleGothic-c2dc" transform="translate(231.999954 0)"/>
      <use xlink:href="#AppleGothic-ac04" transform="translate(331.999939 0)"/>
      <use xlink:href="#AppleGothic-20" transform="translate(431.999924 0)"/>
      <use xlink:href="#AppleGothic-28" transform="translate(463.999908 0)"/>
      <use xlink:href="#AppleGothic-30" transform="translate(513.999893 0)"/>
      <use xlink:href="#AppleGothic-c2dc" transform="translate(581.999878 0)"/>
      <use xlink:href="#AppleGothic-20" transform="translate(681.999863 0)"/>
      <use xlink:href="#AppleGothic-7e" transform="translate(713.999847 0)"/>
      <use xlink:href="#AppleGothic-20" transform="translate(786.999832 0)"/>
      <use xlink:href="#AppleGothic-32" transform="translate(818.999817 0)"/>
      <use xlink:href="#AppleGothic-33" transform="translate(886.999802 0)"/>
      <use xlink:href="#AppleGothic-c2dc" transform="translate(954.999786 0)"/>
      <use xlink:href="#AppleGothic-29" transform="translate(1054.999771 0)"/>
     </g>
    </g>
   </g>
   <g id="matplotlib.axis_2">
    <g id="ytick_1">
     <g id="line2d_25">
      <defs>
       <path id="m12818bd075" d="M 0 0 
L -6 0 
" style="stroke: #262626; stroke-width: 1.25"/>
      </defs>
      <g>
       <use xlink:href="#m12818bd075" x="54.613125" y="299.80875" style="fill: #262626; stroke: #262626; stroke-width: 1.25"/>
      </g>
     </g>
     <g id="text_26">
      <!-- 0 -->
      <g style="fill: #262626" transform="translate(37.633125 304.121094) scale(0.11 -0.11)">
       <use xlink:href="#AppleGothic-30"/>
      </g>
     </g>
    </g>
    <g id="ytick_2">
     <g id="line2d_26">
      <g>
       <use xlink:href="#m12818bd075" x="54.613125" y="268.154074" style="fill: #262626; stroke: #262626; stroke-width: 1.25"/>
      </g>
     </g>
     <g id="text_27">
      <!-- 50 -->
      <g style="fill: #262626" transform="translate(30.153125 272.466417) scale(0.11 -0.11)">
       <use xlink:href="#AppleGothic-35"/>
       <use xlink:href="#AppleGothic-30" transform="translate(67.999985 0)"/>
      </g>
     </g>
    </g>
    <g id="ytick_3">
     <g id="line2d_27">
      <g>
       <use xlink:href="#m12818bd075" x="54.613125" y="236.499397" style="fill: #262626; stroke: #262626; stroke-width: 1.25"/>
      </g>
     </g>
     <g id="text_28">
      <!-- 100 -->
      <g style="fill: #262626" transform="translate(22.673125 240.811741) scale(0.11 -0.11)">
       <use xlink:href="#AppleGothic-31"/>
       <use xlink:href="#AppleGothic-30" transform="translate(67.999985 0)"/>
       <use xlink:href="#AppleGothic-30" transform="translate(135.999969 0)"/>
      </g>
     </g>
    </g>
    <g id="ytick_4">
     <g id="line2d_28">
      <g>
       <use xlink:href="#m12818bd075" x="54.613125" y="204.844721" style="fill: #262626; stroke: #262626; stroke-width: 1.25"/>
      </g>
     </g>
     <g id="text_29">
      <!-- 150 -->
      <g style="fill: #262626" transform="translate(22.673125 209.157065) scale(0.11 -0.11)">
       <use xlink:href="#AppleGothic-31"/>
       <use xlink:href="#AppleGothic-35" transform="translate(67.999985 0)"/>
       <use xlink:href="#AppleGothic-30" transform="translate(135.999969 0)"/>
      </g>
     </g>
    </g>
    <g id="ytick_5">
     <g id="line2d_29">
      <g>
       <use xlink:href="#m12818bd075" x="54.613125" y="173.190045" style="fill: #262626; stroke: #262626; stroke-width: 1.25"/>
      </g>
     </g>
     <g id="text_30">
      <!-- 200 -->
      <g style="fill: #262626" transform="translate(22.673125 177.502389) scale(0.11 -0.11)">
       <use xlink:href="#AppleGothic-32"/>
       <use xlink:href="#AppleGothic-30" transform="translate(67.999985 0)"/>
       <use xlink:href="#AppleGothic-30" transform="translate(135.999969 0)"/>
      </g>
     </g>
    </g>
    <g id="ytick_6">
     <g id="line2d_30">
      <g>
       <use xlink:href="#m12818bd075" x="54.613125" y="141.535369" style="fill: #262626; stroke: #262626; stroke-width: 1.25"/>
      </g>
     </g>
     <g id="text_31">
      <!-- 250 -->
      <g style="fill: #262626" transform="translate(22.673125 145.847712) scale(0.11 -0.11)">
       <use xlink:href="#AppleGothic-32"/>
       <use xlink:href="#AppleGothic-35" transform="translate(67.999985 0)"/>
       <use xlink:href="#AppleGothic-30" transform="translate(135.999969 0)"/>
      </g>
     </g>
    </g>
    <g id="ytick_7">
     <g id="line2d_31">
      <g>
       <use xlink:href="#m12818bd075" x="54.613125" y="109.880692" style="fill: #262626; stroke: #262626; stroke-width: 1.25"/>
      </g>
     </g>
     <g id="text_32">
      <!-- 300 -->
      <g style="fill: #262626" transform="translate(22.673125 114.193036) scale(0.11 -0.11)">
       <use xlink:href="#AppleGothic-33"/>
       <use xlink:href="#AppleGothic-30" transform="translate(67.999985 0)"/>
       <use xlink:href="#AppleGothic-30" transform="translate(135.999969 0)"/>
      </g>
     </g>
    </g>
    <g id="ytick_8">
     <g id="line2d_32">
      <g>
       <use xlink:href="#m12818bd075" x="54.613125" y="78.226016" style="fill: #262626; stroke: #262626; stroke-width: 1.25"/>
      </g>
     </g>
     <g id="text_33">
      <!-- 350 -->
      <g style="fill: #262626" transform="translate(22.673125 82.53836) scale(0.11 -0.11)">
       <use xlink:href="#AppleGothic-33"/>
       <use xlink:href="#AppleGothic-35" transform="translate(67.999985 0)"/>
       <use xlink:href="#AppleGothic-30" transform="translate(135.999969 0)"/>
      </g>
     </g>
    </g>
    <g id="ytick_9">
     <g id="line2d_33">
      <g>
       <use xlink:href="#m12818bd075" x="54.613125" y="46.57134" style="fill: #262626; stroke: #262626; stroke-width: 1.25"/>
      </g>
     </g>
     <g id="text_34">
      <!-- 400 -->
      <g style="fill: #262626" transform="translate(22.673125 50.883684) scale(0.11 -0.11)">
       <use xlink:href="#AppleGothic-34"/>
       <use xlink:href="#AppleGothic-30" transform="translate(67.999985 0)"/>
       <use xlink:href="#AppleGothic-30" transform="translate(135.999969 0)"/>
      </g>
     </g>
    </g>
    <g id="text_35">
     <!-- 탑승 건수 (Count) -->
     <g style="fill: #262626" transform="translate(16.60875 211.393125) rotate(-90) scale(0.12 -0.12)">
      <defs>
       <path id="AppleGothic-ac74" d="M 5581 -371 
L 3462 -384 
Q 2893 -384 2329 -393 
Q 1766 -403 1306 -416 
L 1299 896 
Q 1299 1043 1296 1104 
Q 1293 1165 1280 1235 
Q 1491 1235 1619 1216 
Q 1747 1197 1747 1158 
Q 1734 1101 1721 1056 
Q 1709 1011 1709 954 
L 1709 -38 
L 1984 -38 
Q 2624 -38 3200 -19 
Q 3494 -13 3814 -6 
Q 4134 0 4493 6 
Q 5210 26 5581 26 
L 5581 -371 
z
M 3398 4653 
Q 3386 4563 3379 4476 
Q 3373 4390 3360 4301 
Q 3328 4077 3267 3872 
Q 3206 3667 3123 3475 
Q 2893 2931 2502 2522 
Q 2163 2163 1702 1869 
Q 1376 1670 998 1498 
Q 730 1382 704 1382 
L 410 1728 
L 422 1741 
Q 1242 1882 2048 2650 
Q 2906 3469 2906 4256 
Q 2835 4256 2691 4256 
Q 2547 4256 2330 4250 
Q 2112 4243 1977 4243 
Q 1843 4243 1786 4243 
L 634 4224 
L 634 4640 
L 1408 4634 
L 3398 4653 
z
M 5402 5094 
Q 5402 5043 5395 5024 
Q 5363 4877 5363 4864 
L 5376 1408 
Q 5376 1197 5379 1097 
Q 5382 998 5395 909 
L 4973 883 
L 4973 2810 
L 4358 2816 
Q 4186 2816 3990 2813 
Q 3795 2810 3629 2797 
L 3629 3194 
L 4333 3181 
Q 4538 3181 4691 3193 
Q 4845 3206 4973 3226 
Q 4960 3533 4954 3718 
Q 4941 4070 4937 4336 
Q 4934 4602 4934 4781 
L 4915 5190 
L 5267 5178 
Q 5402 5178 5402 5094 
z
" transform="scale(0.015625)"/>
       <path id="AppleGothic-c218" d="M 6022 1952 
L 3411 1952 
L 3424 896 
L 3462 -582 
L 2982 -582 
L 2982 1952 
Q 2912 1952 2774 1949 
Q 2637 1946 2419 1939 
Q 2208 1933 2086 1933 
Q 1965 1933 1933 1933 
L 378 1894 
L 378 2304 
L 3206 2298 
Q 3706 2298 4202 2307 
Q 4698 2317 5184 2330 
Q 5536 2342 6022 2368 
L 6022 1952 
z
M 5792 3482 
Q 5792 3450 5747 3402 
Q 5702 3354 5658 3315 
L 5523 3117 
Q 5453 3123 5395 3126 
Q 5338 3130 5286 3142 
Q 4685 3251 4090 3610 
Q 3699 3846 3411 4250 
Q 3360 4320 3312 4409 
Q 3264 4499 3206 4621 
Q 3149 4512 3097 4422 
Q 3046 4333 2995 4262 
Q 2688 3846 2208 3552 
Q 2054 3450 1875 3370 
Q 1696 3290 1498 3219 
Q 1382 3181 1232 3142 
Q 1082 3104 896 3072 
Q 896 3072 873 3101 
Q 851 3130 828 3162 
Q 806 3194 780 3226 
Q 755 3258 749 3270 
Q 736 3290 678 3347 
Q 621 3405 621 3424 
L 640 3443 
Q 730 3450 810 3453 
Q 890 3456 954 3469 
Q 1338 3526 1674 3676 
Q 2010 3827 2298 4077 
Q 2605 4326 2790 4659 
Q 2842 4755 2886 4880 
Q 2931 5005 2970 5171 
L 3411 5133 
Q 3475 5133 3475 5075 
Q 3475 5056 3472 5037 
Q 3469 5018 3462 4992 
Q 3462 4973 3443 4947 
Q 3482 4832 3520 4755 
Q 3738 4301 4230 3974 
Q 4659 3686 5261 3571 
Q 5363 3552 5488 3536 
Q 5613 3520 5766 3507 
Q 5786 3507 5792 3482 
z
" transform="scale(0.015625)"/>
       <path id="AppleGothic-43" d="M 4109 4621 
L 4109 3974 
Q 3872 4205 3565 4371 
Q 3085 4627 2598 4627 
Q 1850 4627 1312 3994 
Q 1043 3680 912 3309 
Q 781 2938 781 2515 
Q 781 1651 1318 1030 
Q 1850 410 2611 410 
Q 2970 410 3344 554 
Q 3718 698 4109 998 
L 4109 378 
Q 3251 -83 2554 -83 
Q 1651 -83 973 614 
Q 243 1363 243 2490 
Q 243 3584 922 4339 
Q 1613 5101 2630 5101 
Q 3027 5101 3392 4979 
Q 3757 4858 4109 4621 
z
" transform="scale(0.015625)"/>
       <path id="AppleGothic-6f" d="M 1888 -83 
Q 1229 -83 730 397 
Q 198 902 198 1709 
Q 198 2470 666 2982 
Q 1146 3501 1850 3501 
Q 2547 3501 3027 2982 
Q 3501 2470 3501 1715 
Q 3501 922 2989 403 
Q 2515 -83 1888 -83 
z
M 1843 339 
Q 2304 339 2662 723 
Q 3008 1114 3008 1715 
Q 3008 2336 2637 2726 
Q 2298 3085 1850 3085 
Q 1389 3085 1062 2714 
Q 704 2304 704 1709 
Q 704 1107 1056 704 
Q 1382 339 1843 339 
z
" transform="scale(0.015625)"/>
       <path id="AppleGothic-75" d="M 262 3424 
L 730 3424 
L 730 1242 
Q 730 877 941 627 
Q 1171 339 1594 339 
Q 2080 339 2426 730 
Q 2784 1139 2784 1632 
L 2784 3424 
L 3245 3424 
L 3245 0 
L 2842 0 
L 2810 582 
Q 2707 442 2592 330 
Q 2477 218 2342 134 
Q 1984 -83 1555 -83 
Q 966 -83 614 282 
Q 262 653 262 1184 
L 262 3424 
z
" transform="scale(0.015625)"/>
       <path id="AppleGothic-6e" d="M 3264 2291 
L 3264 0 
L 2803 0 
L 2803 2259 
Q 2803 2618 2541 2848 
Q 2278 3085 1914 3085 
Q 1427 3085 1075 2682 
Q 723 2272 723 1760 
L 723 0 
L 288 0 
L 288 3424 
L 691 3424 
L 710 2784 
Q 883 3046 1114 3219 
Q 1491 3501 1965 3501 
Q 2515 3501 2886 3168 
Q 3264 2842 3264 2291 
z
" transform="scale(0.015625)"/>
       <path id="AppleGothic-74" d="M 691 4435 
L 1114 4435 
L 1114 3430 
L 2016 3430 
L 2016 3014 
L 1114 3014 
L 1114 838 
Q 1114 570 1213 454 
Q 1312 339 1555 339 
Q 1696 339 1795 371 
Q 1894 403 2016 454 
L 2016 38 
Q 1914 6 1770 -22 
Q 1626 -51 1478 -51 
Q 1094 -51 883 122 
Q 646 301 646 698 
L 646 3014 
L 70 3014 
L 70 3430 
L 646 3430 
L 691 4435 
z
" transform="scale(0.015625)"/>
      </defs>
      <use xlink:href="#AppleGothic-d0d1"/>
      <use xlink:href="#AppleGothic-c2b9" transform="translate(99.999985 0)"/>
      <use xlink:href="#AppleGothic-20" transform="translate(199.999969 0)"/>
      <use xlink:href="#AppleGothic-ac74" transform="translate(231.999954 0)"/>
      <use xlink:href="#AppleGothic-c218" transform="translate(331.999939 0)"/>
      <use xlink:href="#AppleGothic-20" transform="translate(431.999924 0)"/>
      <use xlink:href="#AppleGothic-28" transform="translate(463.999908 0)"/>
      <use xlink:href="#AppleGothic-43" transform="translate(513.999893 0)"/>
      <use xlink:href="#AppleGothic-6f" transform="translate(582.499878 0)"/>
      <use xlink:href="#AppleGothic-75" transform="translate(640.799866 0)"/>
      <use xlink:href="#AppleGothic-6e" transform="translate(696.29985 0)"/>
      <use xlink:href="#AppleGothic-74" transform="translate(752.199844 0)"/>
      <use xlink:href="#AppleGothic-29" transform="translate(786.399841 0)"/>
     </g>
    </g>
   </g>
   <g id="patch_3">
    <path d="M 57.403125 299.80875 
L 79.723125 299.80875 
L 79.723125 170.024577 
L 57.403125 170.024577 
z
" clip-path="url(#p902fd40a74)" style="fill: #441a58; stroke: #ffffff; stroke-linejoin: miter"/>
   </g>
   <g id="patch_4">
    <path d="M 85.303125 299.80875 
L 107.623125 299.80875 
L 107.623125 230.168462 
L 85.303125 230.168462 
z
" clip-path="url(#p902fd40a74)" style="fill: #482865; stroke: #ffffff; stroke-linejoin: miter"/>
   </g>
   <g id="patch_5">
    <path d="M 113.203125 299.80875 
L 135.523125 299.80875 
L 135.523125 235.866304 
L 113.203125 235.866304 
z
" clip-path="url(#p902fd40a74)" style="fill: #4a3470; stroke: #ffffff; stroke-linejoin: miter"/>
   </g>
   <g id="patch_6">
    <path d="M 141.103125 299.80875 
L 163.423125 299.80875 
L 163.423125 257.391484 
L 141.103125 257.391484 
z
" clip-path="url(#p902fd40a74)" style="fill: #4b4078; stroke: #ffffff; stroke-linejoin: miter"/>
   </g>
   <g id="patch_7">
    <path d="M 169.003125 299.80875 
L 191.323125 299.80875 
L 191.323125 263.722419 
L 169.003125 263.722419 
z
" clip-path="url(#p902fd40a74)" style="fill: #4a4c7e; stroke: #ffffff; stroke-linejoin: miter"/>
   </g>
   <g id="patch_8">
    <path d="M 196.903125 299.80875 
L 219.223125 299.80875 
L 219.223125 267.52098 
L 196.903125 267.52098 
z
" clip-path="url(#p902fd40a74)" style="fill: #465481; stroke: #ffffff; stroke-linejoin: miter"/>
   </g>
   <g id="patch_9">
    <path d="M 224.803125 299.80875 
L 247.123125 299.80875 
L 247.123125 209.909469 
L 224.803125 209.909469 
z
" clip-path="url(#p902fd40a74)" style="fill: #425c82; stroke: #ffffff; stroke-linejoin: miter"/>
   </g>
   <g id="patch_10">
    <path d="M 252.703125 299.80875 
L 275.023125 299.80875 
L 275.023125 159.895081 
L 252.703125 159.895081 
z
" clip-path="url(#p902fd40a74)" style="fill: #3e6382; stroke: #ffffff; stroke-linejoin: miter"/>
   </g>
   <g id="patch_11">
    <path d="M 280.603125 299.80875 
L 302.923125 299.80875 
L 302.923125 101.650477 
L 280.603125 101.650477 
z
" clip-path="url(#p902fd40a74)" style="fill: #3a6a82; stroke: #ffffff; stroke-linejoin: miter"/>
   </g>
   <g id="patch_12">
    <path d="M 308.503125 299.80875 
L 330.823125 299.80875 
L 330.823125 97.851915 
L 308.503125 97.851915 
z
" clip-path="url(#p902fd40a74)" style="fill: #367182; stroke: #ffffff; stroke-linejoin: miter"/>
   </g>
   <g id="patch_13">
    <path d="M 336.403125 299.80875 
L 358.723125 299.80875 
L 358.723125 94.053354 
L 336.403125 94.053354 
z
" clip-path="url(#p902fd40a74)" style="fill: #337881; stroke: #ffffff; stroke-linejoin: miter"/>
   </g>
   <g id="patch_14">
    <path d="M 364.303125 299.80875 
L 386.623125 299.80875 
L 386.623125 113.04616 
L 364.303125 113.04616 
z
" clip-path="url(#p902fd40a74)" style="fill: #307e80; stroke: #ffffff; stroke-linejoin: miter"/>
   </g>
   <g id="patch_15">
    <path d="M 392.203125 299.80875 
L 414.523125 299.80875 
L 414.523125 88.355513 
L 392.203125 88.355513 
z
" clip-path="url(#p902fd40a74)" style="fill: #2e877f; stroke: #ffffff; stroke-linejoin: miter"/>
   </g>
   <g id="patch_16">
    <path d="M 420.103125 299.80875 
L 442.423125 299.80875 
L 442.423125 99.751196 
L 420.103125 99.751196 
z
" clip-path="url(#p902fd40a74)" style="fill: #2f8f7e; stroke: #ffffff; stroke-linejoin: miter"/>
   </g>
   <g id="patch_17">
    <path d="M 448.003125 299.80875 
L 470.323125 299.80875 
L 470.323125 71.895081 
L 448.003125 71.895081 
z
" clip-path="url(#p902fd40a74)" style="fill: #33977c; stroke: #ffffff; stroke-linejoin: miter"/>
   </g>
   <g id="patch_18">
    <path d="M 475.903125 299.80875 
L 498.223125 299.80875 
L 498.223125 90.887887 
L 475.903125 90.887887 
z
" clip-path="url(#p902fd40a74)" style="fill: #3ca07a; stroke: #ffffff; stroke-linejoin: miter"/>
   </g>
   <g id="patch_19">
    <path d="M 503.803125 299.80875 
L 526.123125 299.80875 
L 526.123125 87.089326 
L 503.803125 87.089326 
z
" clip-path="url(#p902fd40a74)" style="fill: #4bab77; stroke: #ffffff; stroke-linejoin: miter"/>
   </g>
   <g id="patch_20">
    <path d="M 531.703125 299.80875 
L 554.023125 299.80875 
L 554.023125 54.168462 
L 531.703125 54.168462 
z
" clip-path="url(#p902fd40a74)" style="fill: #5cb472; stroke: #ffffff; stroke-linejoin: miter"/>
   </g>
   <g id="patch_21">
    <path d="M 559.603125 299.80875 
L 581.923125 299.80875 
L 581.923125 35.80875 
L 559.603125 35.80875 
z
" clip-path="url(#p902fd40a74)" style="fill: #6fbd6d; stroke: #ffffff; stroke-linejoin: miter"/>
   </g>
   <g id="patch_22">
    <path d="M 587.503125 299.80875 
L 609.823125 299.80875 
L 609.823125 42.772779 
L 587.503125 42.772779 
z
" clip-path="url(#p902fd40a74)" style="fill: #80c161; stroke: #ffffff; stroke-linejoin: miter"/>
   </g>
   <g id="patch_23">
    <path d="M 615.403125 299.80875 
L 637.723125 299.80875 
L 637.723125 66.830333 
L 615.403125 66.830333 
z
" clip-path="url(#p902fd40a74)" style="fill: #93c553; stroke: #ffffff; stroke-linejoin: miter"/>
   </g>
   <g id="patch_24">
    <path d="M 643.303125 299.80875 
L 665.623125 299.80875 
L 665.623125 75.060549 
L 643.303125 75.060549 
z
" clip-path="url(#p902fd40a74)" style="fill: #a5c744; stroke: #ffffff; stroke-linejoin: miter"/>
   </g>
   <g id="patch_25">
    <path d="M 671.203125 299.80875 
L 693.523125 299.80875 
L 693.523125 96.585728 
L 671.203125 96.585728 
z
" clip-path="url(#p902fd40a74)" style="fill: #b8c837; stroke: #ffffff; stroke-linejoin: miter"/>
   </g>
   <g id="patch_26">
    <path d="M 699.103125 299.80875 
L 721.423125 299.80875 
L 721.423125 112.413067 
L 699.103125 112.413067 
z
" clip-path="url(#p902fd40a74)" style="fill: #cbcb32; stroke: #ffffff; stroke-linejoin: miter"/>
   </g>
   <g id="patch_27">
    <path d="M 54.613125 299.80875 
L 54.613125 22.60875 
" style="fill: none; stroke: #262626; stroke-width: 1.25; stroke-linejoin: miter; stroke-linecap: square"/>
   </g>
   <g id="patch_28">
    <path d="M 724.213125 299.80875 
L 724.213125 22.60875 
" style="fill: none; stroke: #262626; stroke-width: 1.25; stroke-linejoin: miter; stroke-linecap: square"/>
   </g>
   <g id="patch_29">
    <path d="M 54.613125 299.80875 
L 724.213125 299.80875 
" style="fill: none; stroke: #262626; stroke-width: 1.25; stroke-linejoin: miter; stroke-linecap: square"/>
   </g>
   <g id="patch_30">
    <path d="M 54.613125 22.60875 
L 724.213125 22.60875 
" style="fill: none; stroke: #262626; stroke-width: 1.25; stroke-linejoin: miter; stroke-linecap: square"/>
   </g>
   <g id="text_36">
    <!-- 뉴욕 택시 시간대별(Hour) 탑승 건수 분석 -->
    <g style="fill: #262626" transform="translate(276.655313 16.60875) scale(0.12 -0.12)">
     <defs>
      <path id="AppleGothic-b274" d="M 6061 2285 
L 6048 1901 
L 5242 1926 
L 4422 1926 
L 4461 -467 
L 3987 -506 
L 3994 1920 
L 2413 1901 
L 2400 1152 
L 2432 -403 
L 1952 -435 
L 1965 531 
L 1965 1882 
L 358 1850 
L 358 2285 
L 6061 2285 
z
M 5242 3379 
Q 5126 3386 4950 3386 
Q 4774 3386 4544 3392 
Q 4314 3398 4131 3398 
Q 3949 3398 3814 3398 
L 3136 3386 
Q 2906 3386 2656 3382 
Q 2406 3379 2156 3372 
Q 1907 3366 1670 3360 
Q 1434 3354 1222 3347 
L 1235 4256 
Q 1235 4480 1228 4720 
Q 1222 4960 1210 5165 
Q 1459 5165 1596 5133 
Q 1734 5101 1734 5030 
Q 1734 4998 1702 4921 
Q 1670 4845 1670 4813 
L 1690 3744 
Q 2022 3757 2425 3763 
Q 2829 3770 3232 3770 
L 4442 3770 
Q 4646 3776 4848 3779 
Q 5050 3782 5242 3789 
L 5242 3379 
z
" transform="scale(0.015625)"/>
      <path id="AppleGothic-c695" d="M 4806 4038 
Q 4806 4442 4352 4602 
Q 3981 4730 3213 4730 
Q 2547 4730 2125 4595 
Q 1568 4410 1568 4038 
Q 1568 3686 2061 3533 
Q 2477 3405 3213 3405 
Q 3981 3405 4422 3610 
Q 4806 3789 4806 4038 
z
M 5075 -506 
L 4582 -531 
L 4602 128 
Q 4602 301 4602 422 
Q 4602 544 4598 633 
Q 4595 723 4592 793 
Q 4589 864 4582 934 
L 1350 915 
L 1350 1286 
Q 1594 1274 1923 1267 
Q 2253 1261 2707 1261 
Q 2912 1261 3245 1264 
Q 3578 1267 4051 1274 
Q 4518 1280 4768 1283 
Q 5018 1286 5050 1286 
Q 5056 1190 5056 1065 
Q 5056 941 5056 794 
Q 5062 646 5062 515 
Q 5062 384 5062 269 
Q 5062 -38 5065 -217 
Q 5069 -397 5075 -506 
z
M 6042 1990 
L 3226 1997 
Q 2982 1997 2748 1997 
Q 2515 1997 2278 1990 
Q 2054 1984 1696 1977 
Q 1338 1971 858 1958 
Q 730 1952 608 1952 
Q 486 1952 358 1946 
L 358 2355 
Q 416 2349 467 2349 
Q 518 2349 557 2349 
Q 838 2336 1024 2329 
Q 1210 2323 1299 2323 
L 2138 2323 
L 2125 3027 
L 2214 3027 
Q 2406 3027 2508 3014 
Q 2611 3002 2611 2950 
Q 2611 2931 2588 2860 
Q 2566 2790 2566 2739 
L 2560 2323 
L 3872 2336 
L 3885 2758 
Q 3885 2893 3878 2953 
Q 3872 3014 3859 3040 
L 4115 3053 
Q 4173 3053 4211 3049 
Q 4250 3046 4275 3040 
Q 4307 3027 4333 2995 
L 4333 2880 
Q 4314 2822 4301 2771 
Q 4288 2720 4288 2650 
L 4288 2342 
L 5210 2362 
Q 5434 2362 5651 2374 
Q 5869 2387 6042 2400 
L 6042 1990 
z
M 5261 4038 
Q 5261 3526 4595 3277 
Q 4045 3066 3213 3066 
Q 2202 3066 1715 3277 
Q 1133 3507 1133 4045 
Q 1133 4582 1773 4858 
Q 2330 5082 3206 5082 
Q 3610 5082 3933 5040 
Q 4256 4998 4499 4922 
Q 5261 4659 5261 4038 
z
" transform="scale(0.015625)"/>
      <path id="AppleGothic-d0dd" d="M 5696 -582 
L 5210 -582 
L 5216 1011 
L 3642 998 
Q 2982 998 2483 985 
Q 1984 973 1606 960 
L 1606 1357 
Q 1792 1363 2022 1363 
Q 2253 1363 2528 1363 
Q 2797 1370 3030 1370 
Q 3264 1370 3456 1370 
Q 4154 1370 4707 1376 
Q 5261 1382 5690 1395 
L 5683 723 
L 5696 -582 
z
M 3757 2112 
Q 3610 2074 3485 2048 
Q 3360 2022 3251 2010 
Q 3040 1984 2845 1971 
Q 2650 1958 2464 1958 
Q 2061 1958 1683 1942 
Q 1306 1926 870 1907 
L 883 3110 
L 870 4678 
L 2202 4685 
L 3430 4704 
L 3430 4314 
L 2285 4314 
Q 2061 4314 1894 4314 
Q 1728 4314 1638 4307 
Q 1549 4301 1472 4297 
Q 1395 4294 1325 4282 
L 1325 3552 
L 2208 3539 
Q 2483 3539 2777 3545 
Q 3072 3552 3322 3565 
L 3322 3155 
L 2214 3162 
L 1325 3149 
L 1325 2323 
L 1664 2323 
Q 1850 2323 2067 2329 
Q 2285 2336 2496 2342 
Q 2739 2342 2966 2361 
Q 3194 2381 3411 2426 
Q 3552 2451 3744 2509 
L 3757 2112 
z
M 5696 5101 
Q 5677 5005 5664 4925 
Q 5651 4845 5651 4723 
L 5645 3277 
Q 5645 2771 5657 2384 
Q 5670 1997 5683 1702 
L 5197 1683 
L 5197 2925 
L 4499 2925 
L 4499 2349 
Q 4499 2253 4502 2083 
Q 4506 1914 4512 1760 
L 4051 1760 
L 4045 3450 
Q 4045 3840 4041 4115 
Q 4038 4390 4032 4557 
Q 4026 4723 4019 4851 
Q 4013 4979 4006 5069 
L 4166 5069 
Q 4320 5069 4425 5046 
Q 4531 5024 4531 4954 
Q 4531 4934 4521 4899 
Q 4512 4864 4502 4819 
Q 4493 4774 4486 4739 
Q 4480 4704 4480 4685 
L 4480 3309 
L 5210 3309 
L 5210 3514 
L 5210 3667 
L 5210 3827 
L 5210 3968 
L 5210 4102 
L 5210 4211 
L 5210 4307 
L 5210 4390 
Q 5210 4538 5206 4630 
Q 5203 4723 5197 4768 
L 5171 5190 
L 5210 5190 
Q 5389 5190 5542 5174 
Q 5696 5158 5696 5101 
z
" transform="scale(0.015625)"/>
      <path id="AppleGothic-b300" d="M 5702 -486 
L 5210 -506 
Q 5203 -416 5203 -294 
Q 5203 -173 5203 -6 
Q 5197 154 5197 269 
Q 5197 384 5197 454 
Q 5197 646 5200 838 
Q 5203 1030 5210 1216 
L 5210 1370 
Q 5210 1574 5210 1699 
Q 5210 1824 5203 1882 
Q 5203 1946 5203 1994 
Q 5203 2042 5197 2086 
L 4314 2086 
L 4301 1190 
L 4320 -134 
L 3866 -154 
L 3866 627 
Q 3866 870 3866 1232 
Q 3866 1594 3872 2074 
Q 3878 2554 3878 2906 
Q 3878 3258 3878 3482 
L 3878 4595 
L 3866 5050 
L 4013 5050 
Q 4160 5050 4262 5027 
Q 4365 5005 4365 4934 
Q 4365 4915 4355 4873 
Q 4346 4832 4336 4787 
Q 4326 4742 4316 4707 
Q 4307 4672 4307 4653 
L 4307 2490 
L 5210 2490 
L 5210 4730 
Q 5197 4813 5197 4934 
Q 5197 5056 5190 5152 
Q 5210 5171 5318 5171 
L 5376 5171 
Q 5523 5171 5606 5152 
Q 5690 5133 5690 5056 
Q 5670 4973 5657 4902 
Q 5645 4832 5645 4762 
L 5645 1984 
Q 5645 1626 5651 1226 
Q 5658 826 5670 371 
Q 5677 205 5683 -6 
Q 5690 -218 5702 -486 
z
M 3597 1152 
Q 3462 1126 3356 1113 
Q 3251 1101 3168 1088 
Q 2925 1056 2726 1027 
Q 2528 998 2374 986 
Q 2074 954 1782 928 
Q 1491 902 1203 883 
Q 1114 877 1011 870 
Q 909 864 794 858 
L 806 2592 
L 787 4442 
L 1914 4429 
L 2637 4429 
Q 2835 4435 3008 4448 
L 3008 4051 
L 2131 4051 
L 1267 4032 
L 1254 2656 
L 1274 1280 
Q 1402 1293 1504 1299 
Q 1606 1306 1690 1312 
Q 2112 1350 2528 1398 
Q 2944 1446 3379 1517 
Q 3418 1523 3466 1529 
Q 3514 1536 3578 1549 
L 3597 1152 
z
" transform="scale(0.015625)"/>
      <path id="AppleGothic-bcc4" d="M 3027 2739 
L 3027 3680 
L 2150 3693 
L 1293 3680 
L 1293 2739 
L 2144 2720 
L 3027 2739 
z
M 5440 -531 
Q 5178 -525 4906 -518 
Q 4634 -512 4339 -506 
Q 4038 -499 3801 -496 
Q 3565 -493 3379 -493 
L 1446 -493 
Q 1453 -422 1456 -336 
Q 1459 -250 1466 -141 
Q 1466 -45 1469 19 
Q 1472 83 1472 115 
L 1459 762 
L 3354 749 
L 4845 774 
L 4845 1382 
L 1446 1370 
L 1446 1734 
Q 1658 1734 1888 1728 
Q 2118 1722 2374 1715 
Q 2630 1709 2864 1705 
Q 3098 1702 3322 1702 
L 5299 1715 
L 5280 1094 
L 5293 410 
L 3373 429 
L 1901 416 
L 1901 -128 
Q 1978 -134 2134 -134 
Q 2291 -134 2522 -134 
Q 2752 -141 2969 -144 
Q 3187 -147 3392 -147 
Q 3846 -147 4380 -137 
Q 4915 -128 5440 -109 
L 5440 -531 
z
M 5440 5062 
Q 5440 5024 5414 4937 
Q 5389 4851 5389 4813 
Q 5382 4589 5372 4224 
Q 5363 3859 5363 3334 
Q 5363 3008 5363 2784 
Q 5363 2560 5370 2445 
Q 5376 2323 5376 2220 
Q 5376 2118 5382 2029 
L 4922 2029 
Q 4941 2189 4941 2394 
L 4941 2822 
L 3878 2803 
L 3878 3174 
L 4941 3162 
L 4941 3917 
L 3859 3904 
L 3859 4269 
L 4941 4256 
L 4941 4685 
Q 4941 4909 4934 5021 
Q 4928 5133 4915 5190 
L 5056 5190 
Q 5222 5190 5331 5164 
Q 5440 5139 5440 5062 
z
M 3488 4877 
L 3469 4710 
L 3456 3462 
L 3469 2362 
L 851 2362 
Q 851 2630 857 2944 
Q 864 3258 870 3578 
Q 870 3853 870 4061 
Q 870 4269 864 4416 
Q 858 4570 858 4704 
Q 858 4838 851 4966 
L 979 4966 
Q 1146 4966 1242 4950 
Q 1338 4934 1338 4864 
Q 1338 4838 1315 4761 
Q 1293 4685 1293 4653 
L 1293 4051 
L 2157 4032 
L 3027 4051 
L 3014 4998 
L 3072 4998 
Q 3264 4998 3376 4976 
Q 3488 4954 3488 4877 
z
" transform="scale(0.015625)"/>
      <path id="AppleGothic-48" d="M 352 5018 
L 851 5018 
L 851 2829 
L 3610 2829 
L 3610 5018 
L 4109 5018 
L 4109 0 
L 3610 0 
L 3610 2406 
L 851 2406 
L 851 0 
L 352 0 
L 352 5018 
z
" transform="scale(0.015625)"/>
      <path id="AppleGothic-72" d="M 2125 3424 
L 2125 2963 
Q 2054 2989 2009 3005 
Q 1965 3021 1933 3027 
Q 1901 3034 1865 3037 
Q 1830 3040 1773 3040 
Q 1306 3040 1005 2586 
Q 749 2170 749 1658 
L 749 0 
L 288 0 
L 288 3424 
L 710 3424 
L 742 2835 
Q 902 3104 1043 3219 
Q 1331 3456 1734 3456 
Q 1843 3456 1936 3449 
Q 2029 3443 2125 3424 
z
" transform="scale(0.015625)"/>
      <path id="AppleGothic-bd84" d="M 4557 3194 
L 4557 4077 
L 3130 4096 
L 1754 4077 
L 1754 3194 
L 3110 3174 
L 4557 3194 
z
M 5210 -429 
L 3194 -410 
L 1325 -429 
L 1338 474 
L 1325 1197 
L 1549 1203 
Q 1645 1203 1741 1190 
Q 1837 1178 1837 1114 
Q 1837 1094 1817 1030 
Q 1798 966 1798 934 
L 1792 -38 
L 3194 -38 
Q 3539 -38 3820 -38 
Q 4102 -38 4342 -32 
Q 4582 -26 4793 -22 
Q 5005 -19 5210 -6 
L 5210 -429 
z
M 6016 1760 
Q 5504 1760 4614 1779 
Q 4166 1792 3878 1798 
Q 3590 1805 3462 1805 
L 3475 627 
L 2995 621 
L 3002 1805 
L 1670 1792 
Q 1222 1792 915 1779 
Q 608 1766 384 1754 
L 384 2182 
Q 474 2182 621 2179 
Q 768 2176 979 2170 
Q 1190 2163 1472 2160 
Q 1754 2157 2099 2150 
Q 2445 2144 2720 2141 
Q 2995 2138 3200 2138 
Q 3744 2138 4550 2157 
Q 4960 2170 5213 2176 
Q 5466 2182 5568 2189 
Q 5677 2195 5789 2201 
Q 5901 2208 6016 2214 
L 6016 1760 
z
M 5043 5094 
Q 5043 5069 5024 5011 
Q 5005 4954 5005 4934 
L 4992 4122 
L 5011 2803 
L 3104 2822 
L 1306 2803 
Q 1306 2880 1309 3005 
Q 1312 3130 1315 3280 
Q 1318 3430 1321 3593 
Q 1325 3757 1325 3917 
Q 1325 4390 1318 4678 
Q 1312 4966 1299 5158 
L 1472 5165 
Q 1613 5165 1699 5142 
Q 1786 5120 1786 5056 
Q 1786 5024 1770 4957 
Q 1754 4890 1754 4870 
L 1754 4442 
L 3136 4422 
L 4557 4442 
L 4544 5197 
L 4704 5203 
Q 4851 5203 4947 5180 
Q 5043 5158 5043 5094 
z
" transform="scale(0.015625)"/>
      <path id="AppleGothic-c11d" d="M 5414 -563 
L 4922 -621 
Q 4928 -531 4931 -419 
Q 4934 -307 4934 -173 
Q 4941 -45 4944 38 
Q 4947 122 4947 154 
L 4947 1107 
L 3283 1107 
Q 3040 1107 2745 1100 
Q 2451 1094 2106 1082 
Q 1984 1075 1821 1068 
Q 1658 1062 1446 1050 
L 1446 1498 
Q 1600 1491 1805 1484 
Q 2010 1478 2266 1466 
Q 2515 1466 2771 1462 
Q 3027 1459 3290 1459 
Q 3526 1459 3785 1462 
Q 4045 1466 4333 1466 
Q 4621 1472 4889 1478 
Q 5158 1485 5402 1491 
L 5395 250 
L 5414 -563 
z
M 3866 2394 
Q 3866 2362 3731 2246 
Q 3661 2182 3622 2147 
Q 3584 2112 3565 2099 
Q 3514 2125 3475 2147 
Q 3437 2170 3405 2189 
Q 3027 2432 2739 2803 
Q 2630 2944 2547 3085 
Q 2464 3226 2394 3373 
Q 2374 3424 2352 3478 
Q 2330 3533 2304 3603 
Q 2291 3565 2278 3533 
Q 2266 3501 2253 3469 
Q 2067 3098 1709 2701 
Q 1581 2566 1433 2428 
Q 1286 2291 1101 2150 
Q 1037 2099 960 2044 
Q 883 1990 781 1920 
Q 666 2010 592 2064 
Q 518 2118 397 2208 
L 410 2234 
Q 646 2349 781 2451 
Q 1005 2605 1206 2803 
Q 1408 3002 1594 3245 
Q 1862 3603 2010 4038 
Q 2170 4493 2170 4902 
L 2470 4864 
Q 2707 4813 2707 4749 
Q 2707 4723 2675 4672 
L 2643 4640 
Q 2630 4570 2617 4512 
Q 2605 4454 2598 4416 
Q 2547 4160 2547 4160 
Q 2547 4109 2585 3993 
Q 2624 3878 2707 3706 
Q 2784 3533 2864 3398 
Q 2944 3264 3014 3168 
Q 3238 2886 3565 2630 
Q 3616 2586 3689 2541 
Q 3763 2496 3853 2432 
L 3866 2394 
z
M 5466 5043 
Q 5466 5018 5437 4941 
Q 5408 4864 5408 4826 
L 5395 3936 
L 5414 1766 
L 4934 1728 
L 4934 2170 
Q 4941 2342 4944 2432 
Q 4947 2522 4947 2534 
L 4947 3270 
L 4384 3290 
L 3808 3277 
L 3808 3686 
L 4358 3667 
L 4947 3680 
L 4947 4666 
Q 4947 4851 4940 4985 
Q 4934 5120 4922 5190 
Q 5158 5190 5312 5152 
Q 5466 5114 5466 5043 
z
" transform="scale(0.015625)"/>
     </defs>
     <use xlink:href="#AppleGothic-b274"/>
     <use xlink:href="#AppleGothic-c695" transform="translate(99.999985 0)"/>
     <use xlink:href="#AppleGothic-20" transform="translate(199.999969 0)"/>
     <use xlink:href="#AppleGothic-d0dd" transform="translate(231.999954 0)"/>
     <use xlink:href="#AppleGothic-c2dc" transform="translate(331.999939 0)"/>
     <use xlink:href="#AppleGothic-20" transform="translate(431.999924 0)"/>
     <use xlink:href="#AppleGothic-c2dc" transform="translate(463.999908 0)"/>
     <use xlink:href="#AppleGothic-ac04" transform="translate(563.999893 0)"/>
     <use xlink:href="#AppleGothic-b300" transform="translate(663.999878 0)"/>
     <use xlink:href="#AppleGothic-bcc4" transform="translate(763.999863 0)"/>
     <use xlink:href="#AppleGothic-28" transform="translate(863.999847 0)"/>
     <use xlink:href="#AppleGothic-48" transform="translate(913.999832 0)"/>
     <use xlink:href="#AppleGothic-6f" transform="translate(984.29982 0)"/>
     <use xlink:href="#AppleGothic-75" transform="translate(1042.599808 0)"/>
     <use xlink:href="#AppleGothic-72" transform="translate(1098.099792 0)"/>
     <use xlink:href="#AppleGothic-29" transform="translate(1133.299789 0)"/>
     <use xlink:href="#AppleGothic-20" transform="translate(1183.299774 0)"/>
     <use xlink:href="#AppleGothic-d0d1" transform="translate(1215.299759 0)"/>
     <use xlink:href="#AppleGothic-c2b9" transform="translate(1315.299744 0)"/>
     <use xlink:href="#AppleGothic-20" transform="translate(1415.299728 0)"/>
     <use xlink:href="#AppleGothic-ac74" transform="translate(1447.299713 0)"/>
     <use xlink:href="#AppleGothic-c218" transform="translate(1547.299698 0)"/>
     <use xlink:href="#AppleGothic-20" transform="translate(1647.299683 0)"/>
     <use xlink:href="#AppleGothic-bd84" transform="translate(1679.299667 0)"/>
     <use xlink:href="#AppleGothic-c11d" transform="translate(1779.299652 0)"/>
    </g>
   </g>
  </g>
 </g>
 <defs>
  <clipPath id="p902fd40a74">
   <rect x="54.613125" y="22.60875" width="669.6" height="277.2"/>
  </clipPath>
 </defs>
</svg>
