<?xml version="1.0" encoding="utf-8" standalone="no"?>
<!DOCTYPE svg PUBLIC "-//W3C//DTD SVG 1.1//EN"
  "http://www.w3.org/Graphics/SVG/1.1/DTD/svg11.dtd">
<svg xmlns:xlink="http://www.w3.org/1999/xlink" width="501.044375pt" height="398.394531pt" viewBox="0 0 501.044375 398.394531" xmlns="http://www.w3.org/2000/svg" version="1.1">
 <metadata>
  <rdf:RDF xmlns:dc="http://purl.org/dc/elements/1.1/" xmlns:cc="http://creativecommons.org/ns#" xmlns:rdf="http://www.w3.org/1999/02/22-rdf-syntax-ns#">
   <cc:Work>
    <dc:type rdf:resource="http://purl.org/dc/dcmitype/StillImage"/>
    <dc:date>2026-05-22T02:33:55.094786</dc:date>
    <dc:format>image/svg+xml</dc:format>
    <dc:creator>
     <cc:Agent>
      <dc:title>Matplotlib v3.10.9, https://matplotlib.org/</dc:title>
     </cc:Agent>
    </dc:creator>
   </cc:Work>
  </rdf:RDF>
 </metadata>
 <defs>
  <style type="text/css">*{stroke-linejoin: round; stroke-linecap: butt}</style>
 </defs>
 <g id="figure_1">
  <g id="patch_1">
   <path d="M 0 398.394531 
L 501.044375 398.394531 
L 501.044375 0 
L 0 0 
z
" style="fill: #ffffff"/>
  </g>
  <g id="axes_1">
   <g id="patch_2">
    <path d="M 47.444375 355.704375 
L 493.844375 355.704375 
L 493.844375 23.064375 
L 47.444375 23.064375 
z
" style="fill: #ffffff"/>
   </g>
   <g id="matplotlib.axis_1">
    <g id="xtick_1">
     <g id="line2d_1">
      <defs>
       <path id="ma68879b1de" d="M 0 0 
L 0 6 
" style="stroke: #262626; stroke-width: 1.25"/>
      </defs>
      <g>
       <use xlink:href="#ma68879b1de" x="159.044375" y="355.704375" style="fill: #262626; stroke: #262626; stroke-width: 1.25"/>
      </g>
     </g>
     <g id="text_1">
      <!-- credit card -->
      <g style="fill: #262626" transform="translate(132.878984 373.829062) scale(0.11 -0.11)">
       <defs>
        <path id="AppleGothic-63" d="M 3085 3123 
L 3085 2522 
Q 2726 2861 2349 3008 
Q 2240 3053 2125 3069 
Q 2010 3085 1894 3085 
Q 1363 3085 1024 2688 
Q 685 2278 685 1715 
Q 685 1139 1037 730 
Q 1389 339 1920 339 
Q 2253 339 2528 483 
Q 2803 627 3085 915 
L 3085 307 
Q 2746 96 2470 6 
Q 2195 -83 1914 -83 
Q 1197 -83 685 429 
Q 186 960 186 1709 
Q 186 2445 678 2976 
Q 1178 3501 1920 3501 
Q 2298 3501 2624 3373 
Q 2816 3302 3085 3123 
z
" transform="scale(0.015625)"/>
        <path id="AppleGothic-72" d="M 2125 3424 
L 2125 2963 
Q 2054 2989 2009 3005 
Q 1965 3021 1933 3027 
Q 1901 3034 1865 3037 
Q 1830 3040 1773 3040 
Q 1306 3040 1005 2586 
Q 749 2170 749 1658 
L 749 0 
L 288 0 
L 288 3424 
L 710 3424 
L 742 2835 
Q 902 3104 1043 3219 
Q 1331 3456 1734 3456 
Q 1843 3456 1936 3449 
Q 2029 3443 2125 3424 
z
" transform="scale(0.015625)"/>
        <path id="AppleGothic-65" d="M 3296 1850 
L 691 1850 
Q 691 1114 1033 726 
Q 1376 339 1933 339 
Q 2355 339 2746 608 
Q 2854 678 2976 784 
Q 3098 890 3238 1030 
L 3238 474 
Q 3085 358 2953 272 
Q 2822 186 2707 128 
Q 2304 -83 1901 -83 
Q 1203 -83 717 397 
Q 192 902 192 1709 
Q 192 2470 666 2982 
Q 1146 3501 1850 3501 
Q 2534 3501 2938 3002 
Q 3296 2547 3296 1850 
z
M 755 2240 
L 2758 2240 
Q 2682 2675 2429 2889 
Q 2176 3104 1818 3104 
Q 1421 3104 1146 2854 
Q 890 2624 755 2240 
z
" transform="scale(0.015625)"/>
        <path id="AppleGothic-64" d="M 2682 5018 
L 3174 5018 
L 3174 0 
L 2733 0 
L 2688 557 
Q 2598 429 2508 329 
Q 2419 230 2330 160 
Q 2010 -83 1587 -83 
Q 928 -83 493 429 
Q 64 941 64 1670 
Q 64 2426 518 2957 
Q 979 3501 1670 3501 
Q 1958 3501 2208 3398 
Q 2298 3360 2416 3296 
Q 2534 3232 2682 3142 
L 2682 5018 
z
M 2682 1658 
L 2682 2643 
Q 2381 2906 2157 2995 
Q 1933 3085 1722 3085 
Q 1197 3085 870 2643 
Q 563 2227 563 1677 
Q 563 1088 902 698 
Q 1216 339 1645 339 
Q 2067 339 2374 710 
Q 2682 1082 2682 1658 
z
" transform="scale(0.015625)"/>
        <path id="AppleGothic-69" d="M 256 3424 
L 717 3424 
L 717 0 
L 256 0 
L 256 3424 
z
M 480 4870 
Q 614 4870 704 4780 
Q 794 4691 794 4525 
Q 794 4358 710 4268 
Q 627 4179 480 4179 
Q 333 4179 253 4281 
Q 173 4384 173 4518 
Q 173 4730 269 4800 
Q 365 4870 480 4870 
z
" transform="scale(0.015625)"/>
        <path id="AppleGothic-74" d="M 691 4435 
L 1114 4435 
L 1114 3430 
L 2016 3430 
L 2016 3014 
L 1114 3014 
L 1114 838 
Q 1114 570 1213 454 
Q 1312 339 1555 339 
Q 1696 339 1795 371 
Q 1894 403 2016 454 
L 2016 38 
Q 1914 6 1770 -22 
Q 1626 -51 1478 -51 
Q 1094 -51 883 122 
Q 646 301 646 698 
L 646 3014 
L 70 3014 
L 70 3430 
L 646 3430 
L 691 4435 
z
" transform="scale(0.015625)"/>
        <path id="AppleGothic-20" transform="scale(0.015625)"/>
        <path id="AppleGothic-61" d="M 2950 2214 
L 2950 602 
Q 2950 493 2998 413 
Q 3046 333 3174 333 
Q 3213 333 3238 336 
Q 3264 339 3290 346 
Q 3328 358 3357 371 
Q 3386 384 3405 390 
L 3405 32 
Q 3290 -6 3174 -22 
Q 3059 -38 2995 -38 
Q 2669 -38 2566 134 
Q 2483 243 2483 602 
Q 2400 461 2317 355 
Q 2234 250 2150 179 
Q 1818 -83 1376 -83 
Q 909 -83 563 192 
Q 205 486 205 941 
Q 205 1510 781 1779 
Q 992 1882 1341 1958 
Q 1690 2035 2176 2099 
L 2483 2131 
Q 2483 2579 2256 2832 
Q 2029 3085 1587 3085 
Q 1421 3085 1257 3043 
Q 1094 3002 928 2912 
Q 838 2861 729 2790 
Q 621 2720 493 2611 
L 493 3136 
Q 1037 3501 1664 3501 
Q 2304 3501 2650 3098 
Q 2950 2746 2950 2214 
z
M 2483 1542 
L 2483 1747 
L 2266 1722 
Q 1466 1638 1139 1498 
Q 704 1325 704 934 
Q 704 819 755 713 
Q 806 608 896 525 
Q 986 442 1117 390 
Q 1248 339 1408 339 
Q 1843 339 2170 691 
Q 2483 1050 2483 1542 
z
" transform="scale(0.015625)"/>
       </defs>
       <use xlink:href="#AppleGothic-63"/>
       <use xlink:href="#AppleGothic-72" transform="translate(51.899994 0)"/>
       <use xlink:href="#AppleGothic-65" transform="translate(87.099991 0)"/>
       <use xlink:href="#AppleGothic-64" transform="translate(141.999985 0)"/>
       <use xlink:href="#AppleGothic-69" transform="translate(195.999969 0)"/>
       <use xlink:href="#AppleGothic-74" transform="translate(211.899963 0)"/>
       <use xlink:href="#AppleGothic-20" transform="translate(246.09996 0)"/>
       <use xlink:href="#AppleGothic-63" transform="translate(278.099945 0)"/>
       <use xlink:href="#AppleGothic-61" transform="translate(329.999939 0)"/>
       <use xlink:href="#AppleGothic-72" transform="translate(386.499924 0)"/>
       <use xlink:href="#AppleGothic-64" transform="translate(421.699921 0)"/>
      </g>
     </g>
    </g>
    <g id="xtick_2">
     <g id="line2d_2">
      <g>
       <use xlink:href="#ma68879b1de" x="382.244375" y="355.704375" style="fill: #262626; stroke: #262626; stroke-width: 1.25"/>
      </g>
     </g>
     <g id="text_2">
      <!-- cash -->
      <g style="fill: #262626" transform="translate(370.683203 373.829062) scale(0.11 -0.11)">
       <defs>
        <path id="AppleGothic-73" d="M 224 294 
L 224 851 
Q 621 531 1030 403 
Q 1152 371 1267 355 
Q 1382 339 1504 339 
Q 1894 339 2150 518 
Q 2413 710 2413 947 
Q 2413 1075 2317 1210 
Q 2182 1376 1600 1510 
Q 909 1683 678 1798 
Q 230 2054 230 2515 
Q 230 2944 602 3219 
Q 979 3501 1542 3501 
Q 1798 3501 2003 3456 
Q 2208 3411 2387 3337 
Q 2566 3264 2720 3155 
L 2720 2598 
Q 2451 2822 2156 2953 
Q 1862 3085 1536 3085 
Q 1210 3085 973 2938 
Q 730 2790 730 2554 
Q 730 2240 1306 2054 
Q 1574 1978 1836 1901 
Q 2099 1824 2368 1747 
Q 2950 1498 2950 992 
Q 2950 563 2547 237 
Q 2138 -83 1530 -83 
Q 1261 -83 1005 -26 
Q 595 64 224 294 
z
" transform="scale(0.015625)"/>
        <path id="AppleGothic-68" d="M 288 5018 
L 749 5018 
L 749 2810 
Q 909 3066 1139 3238 
Q 1491 3501 1926 3501 
Q 2195 3501 2409 3424 
Q 2624 3347 2803 3200 
Q 3181 2867 3181 2266 
L 3181 0 
L 2714 0 
L 2714 2202 
Q 2714 2573 2477 2829 
Q 2240 3085 1901 3085 
Q 1408 3085 1082 2694 
Q 749 2291 749 1773 
L 749 0 
L 288 0 
L 288 5018 
z
" transform="scale(0.015625)"/>
       </defs>
       <use xlink:href="#AppleGothic-63"/>
       <use xlink:href="#AppleGothic-61" transform="translate(51.899994 0)"/>
       <use xlink:href="#AppleGothic-73" transform="translate(108.399979 0)"/>
       <use xlink:href="#AppleGothic-68" transform="translate(157.999969 0)"/>
      </g>
     </g>
    </g>
    <g id="text_3">
     <!-- 결제 수단 -->
     <g style="fill: #262626" transform="translate(244.724375 389.130156) scale(0.12 -0.12)">
      <defs>
       <path id="AppleGothic-acb0" d="M 5440 -384 
L 3104 -371 
Q 2618 -371 2134 -377 
Q 1651 -384 1254 -397 
Q 1254 -365 1254 -281 
Q 1254 -198 1261 -70 
Q 1267 58 1270 141 
Q 1274 224 1274 269 
L 1267 902 
L 3341 902 
Q 3853 902 4240 912 
Q 4627 922 4915 934 
L 4915 1478 
L 1229 1453 
L 1229 1786 
L 5325 1805 
L 5312 870 
L 5325 576 
L 3373 582 
Q 3034 582 2778 582 
Q 2522 582 2349 576 
Q 2176 576 2013 573 
Q 1850 570 1683 563 
L 1683 -45 
L 3302 -38 
Q 4000 -38 4525 -25 
Q 5050 -13 5440 0 
L 5440 -384 
z
M 3546 4774 
Q 3546 4294 3296 3776 
Q 3014 3213 2522 2835 
Q 2131 2554 1677 2330 
Q 1523 2259 1350 2192 
Q 1178 2125 973 2054 
Q 845 2016 771 1993 
Q 698 1971 685 1971 
Q 666 1990 653 2016 
Q 621 2061 595 2089 
Q 570 2118 557 2138 
Q 538 2182 467 2240 
Q 397 2298 397 2317 
L 429 2342 
Q 608 2374 752 2403 
Q 896 2432 1005 2464 
Q 1344 2560 1632 2710 
Q 1920 2861 2176 3053 
Q 2643 3418 2912 3962 
Q 2957 4051 3001 4169 
Q 3046 4288 3085 4435 
L 1952 4435 
L 634 4416 
L 634 4787 
Q 717 4787 848 4780 
Q 979 4774 1132 4771 
Q 1286 4768 1459 4765 
Q 1632 4762 1805 4762 
L 3546 4774 
z
M 5382 5126 
Q 5382 5114 5360 5034 
Q 5338 4954 5338 4902 
L 5338 2112 
L 4915 2099 
L 4922 2739 
L 4333 2746 
Q 4090 2746 3933 2739 
Q 3776 2733 3680 2720 
L 3680 3072 
L 4333 3066 
Q 4582 3066 4710 3069 
Q 4838 3072 4922 3078 
L 4922 3738 
L 4416 3750 
Q 4141 3750 3958 3744 
Q 3776 3738 3674 3725 
L 3674 4090 
L 4346 4077 
L 4928 4090 
L 4934 4826 
Q 4934 4928 4934 4989 
Q 4934 5050 4931 5088 
Q 4928 5126 4925 5148 
Q 4922 5171 4915 5190 
L 5280 5171 
Q 5382 5171 5382 5126 
z
" transform="scale(0.015625)"/>
       <path id="AppleGothic-c81c" d="M 5683 5056 
Q 5683 5030 5664 4950 
Q 5645 4870 5645 4826 
L 5619 2336 
L 5651 -538 
L 5158 -538 
L 5184 2246 
L 5178 5190 
L 5235 5190 
Q 5408 5190 5545 5164 
Q 5683 5139 5683 5056 
z
M 4576 4890 
Q 4576 4858 4553 4778 
Q 4531 4698 4531 4666 
Q 4518 4256 4512 3766 
Q 4506 3277 4506 2829 
L 4518 -102 
L 4026 -102 
L 4070 2656 
L 2886 2637 
L 2886 3059 
L 4064 3046 
L 4051 5005 
L 4083 5005 
Q 4288 5005 4432 4982 
Q 4576 4960 4576 4890 
z
M 3322 4115 
L 2221 4115 
L 2208 3654 
Q 2208 2912 2490 2330 
Q 2746 1779 3315 1216 
L 3021 896 
Q 2931 979 2844 1062 
Q 2758 1146 2669 1235 
Q 2464 1472 2336 1670 
Q 2259 1798 2179 1952 
Q 2099 2106 2022 2298 
Q 2010 2330 1997 2378 
Q 1984 2426 1965 2477 
Q 1926 2387 1894 2313 
Q 1862 2240 1837 2182 
Q 1760 2010 1667 1853 
Q 1574 1696 1466 1549 
Q 1395 1453 1286 1331 
Q 1178 1210 1030 1075 
Q 960 1011 889 950 
Q 819 890 749 826 
L 352 1114 
Q 384 1114 627 1318 
Q 781 1446 921 1603 
Q 1062 1760 1190 1939 
Q 1530 2413 1658 2918 
Q 1728 3226 1760 3488 
Q 1792 3750 1792 3936 
L 1792 4115 
L 1222 4128 
L 698 4115 
L 698 4531 
L 2010 4512 
L 3322 4531 
L 3322 4115 
z
" transform="scale(0.015625)"/>
       <path id="AppleGothic-c218" d="M 6022 1952 
L 3411 1952 
L 3424 896 
L 3462 -582 
L 2982 -582 
L 2982 1952 
Q 2912 1952 2774 1949 
Q 2637 1946 2419 1939 
Q 2208 1933 2086 1933 
Q 1965 1933 1933 1933 
L 378 1894 
L 378 2304 
L 3206 2298 
Q 3706 2298 4202 2307 
Q 4698 2317 5184 2330 
Q 5536 2342 6022 2368 
L 6022 1952 
z
M 5792 3482 
Q 5792 3450 5747 3402 
Q 5702 3354 5658 3315 
L 5523 3117 
Q 5453 3123 5395 3126 
Q 5338 3130 5286 3142 
Q 4685 3251 4090 3610 
Q 3699 3846 3411 4250 
Q 3360 4320 3312 4409 
Q 3264 4499 3206 4621 
Q 3149 4512 3097 4422 
Q 3046 4333 2995 4262 
Q 2688 3846 2208 3552 
Q 2054 3450 1875 3370 
Q 1696 3290 1498 3219 
Q 1382 3181 1232 3142 
Q 1082 3104 896 3072 
Q 896 3072 873 3101 
Q 851 3130 828 3162 
Q 806 3194 780 3226 
Q 755 3258 749 3270 
Q 736 3290 678 3347 
Q 621 3405 621 3424 
L 640 3443 
Q 730 3450 810 3453 
Q 890 3456 954 3469 
Q 1338 3526 1674 3676 
Q 2010 3827 2298 4077 
Q 2605 4326 2790 4659 
Q 2842 4755 2886 4880 
Q 2931 5005 2970 5171 
L 3411 5133 
Q 3475 5133 3475 5075 
Q 3475 5056 3472 5037 
Q 3469 5018 3462 4992 
Q 3462 4973 3443 4947 
Q 3482 4832 3520 4755 
Q 3738 4301 4230 3974 
Q 4659 3686 5261 3571 
Q 5363 3552 5488 3536 
Q 5613 3520 5766 3507 
Q 5786 3507 5792 3482 
z
" transform="scale(0.015625)"/>
       <path id="AppleGothic-b2e8" d="M 5498 -410 
L 3450 -403 
Q 3059 -403 2755 -403 
Q 2451 -403 2227 -410 
Q 2003 -416 1801 -419 
Q 1600 -422 1414 -435 
L 1427 429 
L 1414 1216 
Q 1555 1216 1741 1197 
Q 1933 1165 1933 1107 
Q 1933 1101 1913 1027 
Q 1894 954 1894 883 
L 1888 454 
L 1901 -45 
L 2547 -51 
L 5498 6 
L 5498 -410 
z
M 6022 2611 
L 5146 2611 
L 5165 698 
L 4685 698 
L 4685 3558 
Q 4685 4000 4685 4291 
Q 4685 4582 4678 4730 
Q 4672 4877 4669 4989 
Q 4666 5101 4659 5190 
L 4819 5190 
Q 4966 5190 5075 5168 
Q 5184 5146 5184 5075 
Q 5184 5043 5165 4956 
Q 5146 4870 5146 4806 
L 5139 3840 
L 5152 3014 
L 6022 3014 
L 6022 2611 
z
M 4083 2042 
Q 3917 2010 3725 1981 
Q 3533 1952 3309 1920 
Q 2867 1862 2496 1862 
L 710 1754 
L 730 2995 
L 717 4403 
L 2221 4390 
L 3571 4403 
L 3571 3994 
L 1190 3994 
Q 1184 3885 1181 3801 
Q 1178 3718 1178 3654 
Q 1158 3162 1158 3040 
L 1178 2163 
Q 1325 2170 1433 2173 
Q 1542 2176 1632 2182 
Q 2112 2208 2477 2240 
Q 2810 2272 3091 2304 
Q 3373 2336 3603 2368 
Q 3718 2387 3830 2406 
Q 3942 2426 4064 2445 
L 4083 2042 
z
" transform="scale(0.015625)"/>
      </defs>
      <use xlink:href="#AppleGothic-acb0"/>
      <use xlink:href="#AppleGothic-c81c" transform="translate(99.999985 0)"/>
      <use xlink:href="#AppleGothic-20" transform="translate(199.999969 0)"/>
      <use xlink:href="#AppleGothic-c218" transform="translate(231.999954 0)"/>
      <use xlink:href="#AppleGothic-b2e8" transform="translate(331.999939 0)"/>
     </g>
    </g>
   </g>
   <g id="matplotlib.axis_2">
    <g id="ytick_1">
     <g id="line2d_3">
      <defs>
       <path id="mbee2cbeaf4" d="M 0 0 
L -6 0 
" style="stroke: #262626; stroke-width: 1.25"/>
      </defs>
      <g>
       <use xlink:href="#mbee2cbeaf4" x="47.444375" y="334.914375" style="fill: #262626; stroke: #262626; stroke-width: 1.25"/>
      </g>
     </g>
     <g id="text_4">
      <!-- 0 -->
      <g style="fill: #262626" transform="translate(30.464375 339.226719) scale(0.11 -0.11)">
       <defs>
        <path id="AppleGothic-30" d="M 2227 -83 
Q 1414 -83 934 576 
Q 461 1229 461 2387 
Q 461 3552 973 4218 
Q 1453 4858 2221 4858 
Q 3027 4858 3482 4173 
Q 3955 3494 3955 2394 
Q 3955 1248 3462 582 
Q 2976 -83 2227 -83 
z
M 2176 346 
Q 2861 346 3200 992 
Q 3462 1536 3462 2400 
Q 3462 3315 3162 3859 
Q 2822 4429 2214 4429 
Q 1574 4429 1248 3821 
Q 960 3283 960 2374 
Q 960 1478 1248 941 
Q 1574 346 2176 346 
z
" transform="scale(0.015625)"/>
       </defs>
       <use xlink:href="#AppleGothic-30"/>
      </g>
     </g>
    </g>
    <g id="ytick_2">
     <g id="line2d_4">
      <g>
       <use xlink:href="#mbee2cbeaf4" x="47.444375" y="293.334375" style="fill: #262626; stroke: #262626; stroke-width: 1.25"/>
      </g>
     </g>
     <g id="text_5">
      <!-- 2 -->
      <g style="fill: #262626" transform="translate(30.464375 297.646719) scale(0.11 -0.11)">
       <defs>
        <path id="AppleGothic-32" d="M 1101 429 
L 3942 429 
L 3942 0 
L 653 0 
L 653 205 
Q 653 1018 1344 1664 
Q 1670 1894 1990 2124 
Q 2310 2355 2637 2592 
Q 3334 3098 3334 3597 
Q 3334 3994 3014 4218 
Q 2867 4326 2694 4377 
Q 2522 4429 2317 4429 
Q 2016 4429 1741 4352 
Q 1325 4224 883 3910 
L 883 4435 
Q 1325 4659 1667 4758 
Q 2010 4858 2317 4858 
Q 2963 4858 3405 4525 
Q 3840 4198 3840 3622 
Q 3840 2995 3168 2438 
Q 2848 2214 2531 2000 
Q 2214 1786 1894 1562 
Q 1178 1024 1101 429 
z
" transform="scale(0.015625)"/>
       </defs>
       <use xlink:href="#AppleGothic-32"/>
      </g>
     </g>
    </g>
    <g id="ytick_3">
     <g id="line2d_5">
      <g>
       <use xlink:href="#mbee2cbeaf4" x="47.444375" y="251.754375" style="fill: #262626; stroke: #262626; stroke-width: 1.25"/>
      </g>
     </g>
     <g id="text_6">
      <!-- 4 -->
      <g style="fill: #262626" transform="translate(30.464375 256.066719) scale(0.11 -0.11)">
       <defs>
        <path id="AppleGothic-34" d="M 2662 4774 
L 3130 4774 
L 3130 1811 
L 4000 1811 
L 4000 1382 
L 3130 1382 
L 3130 0 
L 2662 0 
L 2662 1382 
L 352 1382 
L 352 1811 
L 2662 4774 
z
M 2662 1811 
L 2662 4166 
L 838 1811 
L 2662 1811 
z
" transform="scale(0.015625)"/>
       </defs>
       <use xlink:href="#AppleGothic-34"/>
      </g>
     </g>
    </g>
    <g id="ytick_4">
     <g id="line2d_6">
      <g>
       <use xlink:href="#mbee2cbeaf4" x="47.444375" y="210.174375" style="fill: #262626; stroke: #262626; stroke-width: 1.25"/>
      </g>
     </g>
     <g id="text_7">
      <!-- 6 -->
      <g style="fill: #262626" transform="translate(30.464375 214.486719) scale(0.11 -0.11)">
       <defs>
        <path id="AppleGothic-36" d="M 3699 4557 
L 3699 4013 
Q 3584 4102 3475 4163 
Q 3366 4224 3258 4275 
Q 3085 4358 2918 4393 
Q 2752 4429 2586 4429 
Q 2470 4429 2352 4409 
Q 2234 4390 2118 4339 
Q 1670 4154 1395 3738 
Q 1011 3149 1011 2189 
Q 1312 2490 1568 2656 
Q 2022 2931 2534 2931 
Q 3162 2931 3584 2566 
Q 4038 2163 4038 1491 
Q 4038 806 3558 358 
Q 3078 -83 2394 -83 
Q 1670 -83 1146 454 
Q 518 1088 518 2253 
Q 518 3411 1120 4134 
Q 1715 4858 2605 4858 
Q 2938 4858 3226 4762 
Q 3309 4730 3427 4682 
Q 3546 4634 3699 4557 
z
M 1062 1702 
Q 1152 1152 1498 768 
Q 1882 346 2419 346 
Q 2899 346 3213 659 
Q 3539 973 3539 1459 
Q 3539 1920 3226 2214 
Q 2918 2502 2496 2502 
Q 1990 2502 1542 2176 
Q 1414 2080 1292 1965 
Q 1171 1850 1062 1702 
z
" transform="scale(0.015625)"/>
       </defs>
       <use xlink:href="#AppleGothic-36"/>
      </g>
     </g>
    </g>
    <g id="ytick_5">
     <g id="line2d_7">
      <g>
       <use xlink:href="#mbee2cbeaf4" x="47.444375" y="168.594375" style="fill: #262626; stroke: #262626; stroke-width: 1.25"/>
      </g>
     </g>
     <g id="text_8">
      <!-- 8 -->
      <g style="fill: #262626" transform="translate(30.464375 172.906719) scale(0.11 -0.11)">
       <defs>
        <path id="AppleGothic-38" d="M 2957 2605 
Q 3219 2528 3404 2445 
Q 3590 2362 3706 2272 
Q 4192 1926 4192 1370 
Q 4192 749 3642 333 
Q 3098 -83 2285 -83 
Q 1434 -83 947 326 
Q 512 691 512 1229 
Q 512 1798 998 2125 
Q 1146 2227 1341 2304 
Q 1536 2381 1779 2451 
Q 1574 2534 1430 2617 
Q 1286 2701 1197 2784 
Q 819 3104 819 3603 
Q 819 4173 1261 4512 
Q 1702 4858 2381 4858 
Q 3014 4858 3437 4570 
Q 3898 4262 3898 3738 
Q 3898 3373 3670 3081 
Q 3443 2790 2957 2605 
z
M 2406 2752 
Q 2624 2835 2781 2915 
Q 2938 2995 3040 3066 
Q 3398 3322 3398 3667 
Q 3398 3994 3104 4205 
Q 2822 4429 2362 4429 
Q 1894 4429 1613 4205 
Q 1325 3994 1325 3635 
Q 1325 3322 1581 3098 
Q 1696 3002 1901 2912 
Q 2106 2822 2406 2752 
z
M 2368 2304 
Q 2061 2202 1840 2106 
Q 1619 2010 1472 1920 
Q 1011 1626 1011 1235 
Q 1011 845 1376 595 
Q 1728 346 2310 346 
Q 2938 346 3315 640 
Q 3693 934 3693 1338 
Q 3693 1741 3238 1997 
Q 3104 2067 2886 2147 
Q 2669 2227 2368 2304 
z
" transform="scale(0.015625)"/>
       </defs>
       <use xlink:href="#AppleGothic-38"/>
      </g>
     </g>
    </g>
    <g id="ytick_6">
     <g id="line2d_8">
      <g>
       <use xlink:href="#mbee2cbeaf4" x="47.444375" y="127.014375" style="fill: #262626; stroke: #262626; stroke-width: 1.25"/>
      </g>
     </g>
     <g id="text_9">
      <!-- 10 -->
      <g style="fill: #262626" transform="translate(22.984375 131.326719) scale(0.11 -0.11)">
       <defs>
        <path id="AppleGothic-31" d="M 2342 4774 
L 2752 4774 
L 2752 0 
L 2285 0 
L 2285 3526 
L 1158 3526 
L 1158 3885 
L 1414 3885 
Q 1990 3885 2214 4205 
Q 2342 4410 2342 4774 
z
" transform="scale(0.015625)"/>
       </defs>
       <use xlink:href="#AppleGothic-31"/>
       <use xlink:href="#AppleGothic-30" transform="translate(67.999985 0)"/>
      </g>
     </g>
    </g>
    <g id="ytick_7">
     <g id="line2d_9">
      <g>
       <use xlink:href="#mbee2cbeaf4" x="47.444375" y="85.434375" style="fill: #262626; stroke: #262626; stroke-width: 1.25"/>
      </g>
     </g>
     <g id="text_10">
      <!-- 12 -->
      <g style="fill: #262626" transform="translate(22.984375 89.746719) scale(0.11 -0.11)">
       <use xlink:href="#AppleGothic-31"/>
       <use xlink:href="#AppleGothic-32" transform="translate(67.999985 0)"/>
      </g>
     </g>
    </g>
    <g id="ytick_8">
     <g id="line2d_10">
      <g>
       <use xlink:href="#mbee2cbeaf4" x="47.444375" y="43.854375" style="fill: #262626; stroke: #262626; stroke-width: 1.25"/>
      </g>
     </g>
     <g id="text_11">
      <!-- 14 -->
      <g style="fill: #262626" transform="translate(22.984375 48.166719) scale(0.11 -0.11)">
       <use xlink:href="#AppleGothic-31"/>
       <use xlink:href="#AppleGothic-34" transform="translate(67.999985 0)"/>
      </g>
     </g>
    </g>
    <g id="text_12">
     <!-- 팁 (달러, $) -->
     <g style="fill: #262626" transform="translate(16.92 223.002187) rotate(-90) scale(0.12 -0.12)">
      <defs>
       <path id="AppleGothic-d301" d="M 4954 32 
L 4954 736 
L 3232 736 
Q 3002 736 2829 736 
Q 2656 736 2528 730 
Q 2400 730 2278 726 
Q 2157 723 2029 717 
L 2029 -26 
L 3418 -26 
Q 3898 -26 4294 -6 
Q 4691 13 4954 32 
z
M 5446 1677 
Q 5446 1658 5433 1578 
Q 5421 1498 5421 1427 
L 5414 538 
L 5414 -90 
Q 5421 -198 5424 -304 
Q 5427 -410 5434 -506 
L 4960 -506 
L 4954 -339 
L 2048 -403 
L 2022 -531 
L 1562 -538 
Q 1562 -480 1562 -355 
Q 1562 -230 1568 -32 
Q 1574 160 1577 294 
Q 1581 429 1581 499 
Q 1581 806 1574 1113 
Q 1568 1421 1555 1683 
L 1965 1677 
Q 2054 1677 2054 1594 
Q 2054 1568 2041 1494 
Q 2029 1421 2029 1408 
L 2029 1107 
Q 2240 1094 2505 1088 
Q 2771 1082 3059 1082 
L 4954 1126 
L 4960 1434 
L 4941 1773 
L 5082 1773 
Q 5286 1773 5366 1750 
Q 5446 1728 5446 1677 
z
M 4448 2182 
Q 4333 2170 4233 2157 
Q 4134 2144 4045 2138 
Q 3750 2112 3462 2099 
Q 3174 2086 2874 2086 
Q 2605 2086 2291 2080 
Q 1978 2074 1626 2061 
Q 1498 2054 1331 2048 
Q 1165 2042 954 2029 
L 973 3283 
L 954 4582 
L 2573 4589 
Q 2899 4589 3305 4605 
Q 3712 4621 4064 4640 
L 4064 4237 
L 3162 4250 
Q 3014 4250 2796 4243 
Q 2579 4237 2278 4224 
Q 1984 4211 1766 4204 
Q 1549 4198 1402 4198 
L 1402 3552 
L 1760 3546 
Q 1926 3546 2204 3555 
Q 2483 3565 2874 3578 
Q 3264 3597 3517 3603 
Q 3770 3610 3885 3610 
L 3885 3187 
L 2477 3200 
Q 2131 3200 1881 3193 
Q 1632 3187 1408 3168 
L 1408 2458 
L 2886 2470 
Q 3258 2470 3872 2509 
Q 3981 2515 4115 2521 
Q 4250 2528 4422 2541 
L 4448 2182 
z
M 5466 5062 
Q 5466 5043 5440 4934 
Q 5421 4819 5421 4749 
L 5421 4531 
Q 5402 3706 5402 3558 
L 5421 1939 
L 4928 1920 
Q 4934 1997 4934 2067 
Q 4934 2138 4934 2195 
Q 4954 2970 4954 3341 
L 4954 3539 
Q 4941 4358 4931 4768 
Q 4922 5178 4922 5190 
L 5152 5197 
Q 5299 5197 5382 5171 
Q 5466 5146 5466 5062 
z
" transform="scale(0.015625)"/>
       <path id="AppleGothic-28" d="M 2227 5261 
L 2650 5261 
Q 2342 4768 2169 4473 
Q 1997 4179 1958 4083 
Q 1606 3283 1606 2272 
Q 1606 1587 1754 1018 
Q 1882 570 2138 102 
Q 2150 70 2275 -131 
Q 2400 -333 2630 -717 
L 2227 -717 
Q 2099 -531 1980 -355 
Q 1862 -179 1734 0 
Q 1581 243 1469 483 
Q 1357 723 1274 954 
Q 1069 1587 1069 2272 
Q 1069 2963 1261 3558 
Q 1338 3789 1450 4022 
Q 1562 4256 1715 4499 
Q 1843 4691 1971 4880 
Q 2099 5069 2227 5261 
z
" transform="scale(0.015625)"/>
       <path id="AppleGothic-b2ec" d="M 5286 -410 
L 3251 -390 
L 1357 -397 
L 1370 262 
L 1357 890 
L 4685 883 
L 4685 1414 
L 3283 1427 
L 1344 1414 
L 1344 1766 
Q 1536 1754 1929 1744 
Q 2323 1734 2867 1734 
L 5152 1754 
L 5146 1126 
L 5158 531 
L 1830 531 
L 1830 -45 
L 3379 -58 
Q 3782 -58 4076 -58 
Q 4371 -58 4570 -51 
Q 4960 -51 5286 -32 
L 5286 -410 
z
M 4102 2650 
Q 3981 2618 3881 2595 
Q 3782 2573 3693 2560 
Q 3424 2515 3158 2492 
Q 2893 2470 2630 2470 
Q 2202 2432 1139 2374 
Q 1056 2368 953 2365 
Q 851 2362 723 2349 
L 742 3494 
L 723 4755 
L 2221 4742 
L 3642 4762 
L 3642 4378 
L 2355 4390 
L 1184 4378 
L 1171 3539 
L 1178 2790 
Q 1459 2803 1795 2812 
Q 2131 2822 2451 2822 
Q 3098 2822 3648 2918 
Q 3744 2931 3849 2960 
Q 3955 2989 4083 3021 
L 4102 2650 
z
M 6061 3072 
L 5120 3072 
L 5133 2074 
L 4672 2074 
Q 4672 2093 4672 2160 
Q 4672 2227 4678 2336 
Q 4685 2451 4685 2678 
Q 4685 2906 4685 3251 
L 4685 4666 
Q 4685 4813 4678 4960 
Q 4672 5107 4659 5190 
L 4851 5197 
Q 4986 5197 5078 5174 
Q 5171 5152 5171 5082 
Q 5171 5062 5152 4982 
Q 5133 4902 5133 4845 
L 5120 4134 
L 5126 3482 
L 6061 3494 
L 6061 3072 
z
" transform="scale(0.015625)"/>
       <path id="AppleGothic-b7ec" d="M 5414 5062 
Q 5414 5024 5398 4947 
Q 5382 4870 5382 4851 
L 5363 2502 
Q 5363 2182 5363 1868 
Q 5363 1555 5370 1235 
Q 5376 608 5382 192 
Q 5389 -224 5395 -493 
L 4915 -518 
L 4928 2291 
L 3642 2266 
L 3642 2682 
L 4928 2675 
L 4915 5190 
L 4973 5190 
Q 5165 5190 5289 5168 
Q 5414 5146 5414 5062 
z
M 3776 992 
Q 3648 947 3523 921 
Q 3398 896 3277 883 
Q 2854 826 2336 826 
Q 1862 781 1468 768 
Q 1075 755 787 749 
L 781 3046 
L 1818 3046 
Q 2227 3046 2460 3059 
Q 2694 3072 2867 3085 
L 2867 4173 
L 1843 4179 
Q 1574 4179 1388 4176 
Q 1203 4173 1094 4166 
Q 979 4160 886 4153 
Q 794 4147 717 4134 
L 717 4563 
Q 787 4563 937 4560 
Q 1088 4557 1318 4550 
Q 1549 4544 1686 4544 
Q 1824 4544 1875 4544 
L 2054 4544 
Q 2419 4544 2729 4557 
Q 3040 4570 3328 4589 
L 3315 3789 
L 3334 2694 
L 2381 2682 
Q 2093 2682 1894 2682 
Q 1696 2682 1587 2675 
Q 1478 2669 1385 2665 
Q 1293 2662 1216 2650 
Q 1203 2477 1200 2269 
Q 1197 2061 1197 1875 
Q 1197 1709 1200 1526 
Q 1203 1344 1216 1190 
Q 1242 1190 1318 1184 
Q 1395 1178 1523 1178 
L 1594 1178 
Q 1709 1178 1891 1187 
Q 2074 1197 2310 1210 
Q 2733 1242 3049 1280 
Q 3366 1318 3584 1357 
Q 3616 1363 3657 1369 
Q 3699 1376 3744 1389 
L 3776 992 
z
" transform="scale(0.015625)"/>
       <path id="AppleGothic-2c" d="M 806 -941 
L 550 -941 
Q 666 -698 723 -502 
Q 781 -307 806 -64 
Q 666 0 602 77 
Q 525 160 525 346 
Q 525 576 630 720 
Q 736 864 883 864 
Q 1030 864 1113 701 
Q 1197 538 1197 326 
Q 1197 141 1161 -48 
Q 1126 -237 1056 -429 
Q 1011 -538 950 -662 
Q 890 -787 806 -941 
z
" transform="scale(0.015625)"/>
       <path id="AppleGothic-24" d="M 1984 5344 
L 2400 5344 
L 2400 4877 
Q 2790 4838 3142 4685 
Q 3341 4608 3597 4448 
L 3597 3891 
Q 3418 4026 3270 4118 
Q 3123 4211 2995 4269 
Q 2758 4378 2400 4448 
L 2400 2701 
Q 2720 2637 2953 2569 
Q 3187 2502 3334 2413 
Q 3878 2099 3878 1453 
Q 3878 883 3456 480 
Q 3264 294 2998 179 
Q 2733 64 2400 0 
L 2400 -499 
L 1984 -499 
L 1984 -45 
Q 1613 -45 1312 58 
Q 1126 115 915 224 
Q 704 333 467 486 
L 467 1050 
Q 973 640 1408 480 
Q 1690 378 1984 378 
L 1984 2317 
Q 1677 2368 1446 2432 
Q 1216 2496 1062 2573 
Q 474 2886 474 3533 
Q 474 4096 870 4441 
Q 1267 4787 1984 4877 
L 1984 5344 
z
M 1984 2778 
L 1984 4448 
Q 1434 4371 1178 4077 
Q 973 3840 973 3565 
Q 973 3194 1306 2995 
Q 1414 2931 1580 2876 
Q 1747 2822 1984 2778 
z
M 2400 2240 
L 2400 410 
Q 2931 538 3181 851 
Q 3379 1094 3379 1389 
Q 3379 1811 3021 2016 
Q 2797 2150 2400 2240 
z
" transform="scale(0.015625)"/>
       <path id="AppleGothic-29" d="M 2221 2272 
Q 2221 1587 2016 960 
Q 1862 499 1555 6 
Q 1427 -179 1305 -355 
Q 1184 -531 1062 -717 
L 659 -717 
Q 781 -512 902 -310 
Q 1024 -109 1152 96 
Q 1280 333 1376 557 
Q 1472 781 1530 1005 
Q 1683 1562 1683 2272 
Q 1683 2650 1641 2973 
Q 1600 3296 1517 3584 
Q 1459 3802 1356 4029 
Q 1254 4256 1120 4499 
Q 992 4691 873 4880 
Q 755 5069 640 5261 
L 1062 5261 
Q 1190 5069 1315 4880 
Q 1440 4691 1568 4506 
Q 1722 4256 1837 4022 
Q 1952 3789 2022 3565 
Q 2221 2976 2221 2272 
z
" transform="scale(0.015625)"/>
      </defs>
      <use xlink:href="#AppleGothic-d301"/>
      <use xlink:href="#AppleGothic-20" transform="translate(99.999985 0)"/>
      <use xlink:href="#AppleGothic-28" transform="translate(131.999969 0)"/>
      <use xlink:href="#AppleGothic-b2ec" transform="translate(181.999954 0)"/>
      <use xlink:href="#AppleGothic-b7ec" transform="translate(281.999939 0)"/>
      <use xlink:href="#AppleGothic-2c" transform="translate(381.999924 0)"/>
      <use xlink:href="#AppleGothic-20" transform="translate(410.299911 0)"/>
      <use xlink:href="#AppleGothic-24" transform="translate(442.299896 0)"/>
      <use xlink:href="#AppleGothic-29" transform="translate(510.299881 0)"/>
     </g>
    </g>
   </g>
   <g id="patch_3">
    <path d="M 69.764375 303.729375 
L 248.324375 303.729375 
L 248.324375 267.138975 
L 69.764375 267.138975 
L 69.764375 303.729375 
z
" clip-path="url(#p6dcc72904d)" style="fill: #cb3335; stroke: #484848; stroke-linejoin: miter"/>
   </g>
   <g id="line2d_11">
    <path d="M 159.044375 303.729375 
L 159.044375 334.914375 
" clip-path="url(#p6dcc72904d)" style="fill: none; stroke: #484848"/>
   </g>
   <g id="line2d_12">
    <path d="M 159.044375 267.138975 
L 159.044375 212.669175 
" clip-path="url(#p6dcc72904d)" style="fill: none; stroke: #484848"/>
   </g>
   <g id="line2d_13">
    <path d="M 114.404375 334.914375 
L 203.684375 334.914375 
" clip-path="url(#p6dcc72904d)" style="fill: none; stroke: #484848; stroke-linecap: round"/>
   </g>
   <g id="line2d_14">
    <path d="M 114.404375 212.669175 
L 203.684375 212.669175 
" clip-path="url(#p6dcc72904d)" style="fill: none; stroke: #484848; stroke-linecap: round"/>
   </g>
   <g id="line2d_15">
    <defs>
     <path id="mc8f90d7d93" d="M 0 3 
C 0.795609 3 1.55874 2.683901 2.12132 2.12132 
C 2.683901 1.55874 3 0.795609 3 0 
C 3 -0.795609 2.683901 -1.55874 2.12132 -2.12132 
C 1.55874 -2.683901 0.795609 -3 0 -3 
C -0.795609 -3 -1.55874 -2.683901 -2.12132 -2.12132 
C -2.683901 -1.55874 -3 -0.795609 -3 0 
C -3 0.795609 -2.683901 1.55874 -2.12132 2.12132 
C -1.55874 2.683901 -0.795609 3 0 3 
z
" style="stroke: #484848"/>
    </defs>
    <g clip-path="url(#p6dcc72904d)">
     <use xlink:href="#mc8f90d7d93" x="159.044375" y="207.055875" style="fill-opacity: 0; stroke: #484848"/>
     <use xlink:href="#mc8f90d7d93" x="159.044375" y="162.149475" style="fill-opacity: 0; stroke: #484848"/>
     <use xlink:href="#mc8f90d7d93" x="159.044375" y="208.926975" style="fill-opacity: 0; stroke: #484848"/>
     <use xlink:href="#mc8f90d7d93" x="159.044375" y="-1" style="fill-opacity: 0; stroke: #484848"/>
     <use xlink:href="#mc8f90d7d93" x="159.044375" y="-1" style="fill-opacity: 0; stroke: #484848"/>
     <use xlink:href="#mc8f90d7d93" x="159.044375" y="211.213875" style="fill-opacity: 0; stroke: #484848"/>
     <use xlink:href="#mc8f90d7d93" x="159.044375" y="133.043475" style="fill-opacity: 0; stroke: #484848"/>
     <use xlink:href="#mc8f90d7d93" x="159.044375" y="95.829375" style="fill-opacity: 0; stroke: #484848"/>
     <use xlink:href="#mc8f90d7d93" x="159.044375" y="179.820975" style="fill-opacity: 0; stroke: #484848"/>
     <use xlink:href="#mc8f90d7d93" x="159.044375" y="62.565375" style="fill-opacity: 0; stroke: #484848"/>
     <use xlink:href="#mc8f90d7d93" x="159.044375" y="210.174375" style="fill-opacity: 0; stroke: #484848"/>
     <use xlink:href="#mc8f90d7d93" x="159.044375" y="182.939475" style="fill-opacity: 0; stroke: #484848"/>
     <use xlink:href="#mc8f90d7d93" x="159.044375" y="95.621475" style="fill-opacity: 0; stroke: #484848"/>
     <use xlink:href="#mc8f90d7d93" x="159.044375" y="178.781475" style="fill-opacity: 0; stroke: #484848"/>
     <use xlink:href="#mc8f90d7d93" x="159.044375" y="17.658975" style="fill-opacity: 0; stroke: #484848"/>
     <use xlink:href="#mc8f90d7d93" x="159.044375" y="202.897875" style="fill-opacity: 0; stroke: #484848"/>
     <use xlink:href="#mc8f90d7d93" x="159.044375" y="169.425975" style="fill-opacity: 0; stroke: #484848"/>
     <use xlink:href="#mc8f90d7d93" x="159.044375" y="115.579875" style="fill-opacity: 0; stroke: #484848"/>
     <use xlink:href="#mc8f90d7d93" x="159.044375" y="210.174375" style="fill-opacity: 0; stroke: #484848"/>
     <use xlink:href="#mc8f90d7d93" x="159.044375" y="189.176475" style="fill-opacity: 0; stroke: #484848"/>
     <use xlink:href="#mc8f90d7d93" x="159.044375" y="91.463475" style="fill-opacity: 0; stroke: #484848"/>
     <use xlink:href="#mc8f90d7d93" x="159.044375" y="121.608975" style="fill-opacity: 0; stroke: #484848"/>
     <use xlink:href="#mc8f90d7d93" x="159.044375" y="203.937375" style="fill-opacity: 0; stroke: #484848"/>
     <use xlink:href="#mc8f90d7d93" x="159.044375" y="53.833575" style="fill-opacity: 0; stroke: #484848"/>
     <use xlink:href="#mc8f90d7d93" x="159.044375" y="62.357475" style="fill-opacity: 0; stroke: #484848"/>
     <use xlink:href="#mc8f90d7d93" x="159.044375" y="81.068475" style="fill-opacity: 0; stroke: #484848"/>
     <use xlink:href="#mc8f90d7d93" x="159.044375" y="199.571475" style="fill-opacity: 0; stroke: #484848"/>
     <use xlink:href="#mc8f90d7d93" x="159.044375" y="189.176475" style="fill-opacity: 0; stroke: #484848"/>
     <use xlink:href="#mc8f90d7d93" x="159.044375" y="169.633875" style="fill-opacity: 0; stroke: #484848"/>
     <use xlink:href="#mc8f90d7d93" x="159.044375" y="207.055875" style="fill-opacity: 0; stroke: #484848"/>
     <use xlink:href="#mc8f90d7d93" x="159.044375" y="111.213975" style="fill-opacity: 0; stroke: #484848"/>
     <use xlink:href="#mc8f90d7d93" x="159.044375" y="177.741975" style="fill-opacity: 0; stroke: #484848"/>
     <use xlink:href="#mc8f90d7d93" x="159.044375" y="209.134875" style="fill-opacity: 0; stroke: #484848"/>
     <use xlink:href="#mc8f90d7d93" x="159.044375" y="197.492475" style="fill-opacity: 0; stroke: #484848"/>
     <use xlink:href="#mc8f90d7d93" x="159.044375" y="210.174375" style="fill-opacity: 0; stroke: #484848"/>
     <use xlink:href="#mc8f90d7d93" x="159.044375" y="-1" style="fill-opacity: 0; stroke: #484848"/>
     <use xlink:href="#mc8f90d7d93" x="159.044375" y="-1" style="fill-opacity: 0; stroke: #484848"/>
     <use xlink:href="#mc8f90d7d93" x="159.044375" y="210.174375" style="fill-opacity: 0; stroke: #484848"/>
     <use xlink:href="#mc8f90d7d93" x="159.044375" y="206.847975" style="fill-opacity: 0; stroke: #484848"/>
     <use xlink:href="#mc8f90d7d93" x="159.044375" y="210.174375" style="fill-opacity: 0; stroke: #484848"/>
     <use xlink:href="#mc8f90d7d93" x="159.044375" y="81.068475" style="fill-opacity: 0; stroke: #484848"/>
     <use xlink:href="#mc8f90d7d93" x="159.044375" y="202.897875" style="fill-opacity: 0; stroke: #484848"/>
     <use xlink:href="#mc8f90d7d93" x="159.044375" y="116.203575" style="fill-opacity: 0; stroke: #484848"/>
     <use xlink:href="#mc8f90d7d93" x="159.044375" y="127.014375" style="fill-opacity: 0; stroke: #484848"/>
     <use xlink:href="#mc8f90d7d93" x="159.044375" y="162.149475" style="fill-opacity: 0; stroke: #484848"/>
     <use xlink:href="#mc8f90d7d93" x="159.044375" y="59.238975" style="fill-opacity: 0; stroke: #484848"/>
     <use xlink:href="#mc8f90d7d93" x="159.044375" y="98.116275" style="fill-opacity: 0; stroke: #484848"/>
     <use xlink:href="#mc8f90d7d93" x="159.044375" y="93.542475" style="fill-opacity: 0; stroke: #484848"/>
     <use xlink:href="#mc8f90d7d93" x="159.044375" y="-1" style="fill-opacity: 0; stroke: #484848"/>
     <use xlink:href="#mc8f90d7d93" x="159.044375" y="-1" style="fill-opacity: 0; stroke: #484848"/>
     <use xlink:href="#mc8f90d7d93" x="159.044375" y="192.294975" style="fill-opacity: 0; stroke: #484848"/>
     <use xlink:href="#mc8f90d7d93" x="159.044375" y="17.658975" style="fill-opacity: 0; stroke: #484848"/>
     <use xlink:href="#mc8f90d7d93" x="159.044375" y="180.028875" style="fill-opacity: 0; stroke: #484848"/>
     <use xlink:href="#mc8f90d7d93" x="159.044375" y="81.068475" style="fill-opacity: 0; stroke: #484848"/>
     <use xlink:href="#mc8f90d7d93" x="159.044375" y="23.064375" style="fill-opacity: 0; stroke: #484848"/>
     <use xlink:href="#mc8f90d7d93" x="159.044375" y="197.700375" style="fill-opacity: 0; stroke: #484848"/>
     <use xlink:href="#mc8f90d7d93" x="159.044375" y="17.866875" style="fill-opacity: 0; stroke: #484848"/>
     <use xlink:href="#mc8f90d7d93" x="159.044375" y="130.964475" style="fill-opacity: 0; stroke: #484848"/>
     <use xlink:href="#mc8f90d7d93" x="159.044375" y="211.213875" style="fill-opacity: 0; stroke: #484848"/>
     <use xlink:href="#mc8f90d7d93" x="159.044375" y="139.280475" style="fill-opacity: 0; stroke: #484848"/>
     <use xlink:href="#mc8f90d7d93" x="159.044375" y="210.174375" style="fill-opacity: 0; stroke: #484848"/>
     <use xlink:href="#mc8f90d7d93" x="159.044375" y="177.741975" style="fill-opacity: 0; stroke: #484848"/>
     <use xlink:href="#mc8f90d7d93" x="159.044375" y="134.498775" style="fill-opacity: 0; stroke: #484848"/>
     <use xlink:href="#mc8f90d7d93" x="159.044375" y="211.213875" style="fill-opacity: 0; stroke: #484848"/>
     <use xlink:href="#mc8f90d7d93" x="159.044375" y="127.014375" style="fill-opacity: 0; stroke: #484848"/>
     <use xlink:href="#mc8f90d7d93" x="159.044375" y="180.860475" style="fill-opacity: 0; stroke: #484848"/>
     <use xlink:href="#mc8f90d7d93" x="159.044375" y="17.658975" style="fill-opacity: 0; stroke: #484848"/>
     <use xlink:href="#mc8f90d7d93" x="159.044375" y="144.893775" style="fill-opacity: 0; stroke: #484848"/>
     <use xlink:href="#mc8f90d7d93" x="159.044375" y="206.016375" style="fill-opacity: 0; stroke: #484848"/>
     <use xlink:href="#mc8f90d7d93" x="159.044375" y="185.226375" style="fill-opacity: 0; stroke: #484848"/>
     <use xlink:href="#mc8f90d7d93" x="159.044375" y="161.317875" style="fill-opacity: 0; stroke: #484848"/>
     <use xlink:href="#mc8f90d7d93" x="159.044375" y="81.068475" style="fill-opacity: 0; stroke: #484848"/>
     <use xlink:href="#mc8f90d7d93" x="159.044375" y="105.184875" style="fill-opacity: 0; stroke: #484848"/>
     <use xlink:href="#mc8f90d7d93" x="159.044375" y="113.500875" style="fill-opacity: 0; stroke: #484848"/>
     <use xlink:href="#mc8f90d7d93" x="159.044375" y="81.276375" style="fill-opacity: 0; stroke: #484848"/>
     <use xlink:href="#mc8f90d7d93" x="159.044375" y="159.030975" style="fill-opacity: 0; stroke: #484848"/>
     <use xlink:href="#mc8f90d7d93" x="159.044375" y="127.014375" style="fill-opacity: 0; stroke: #484848"/>
     <use xlink:href="#mc8f90d7d93" x="159.044375" y="184.186875" style="fill-opacity: 0; stroke: #484848"/>
     <use xlink:href="#mc8f90d7d93" x="159.044375" y="200.818875" style="fill-opacity: 0; stroke: #484848"/>
     <use xlink:href="#mc8f90d7d93" x="159.044375" y="168.386475" style="fill-opacity: 0; stroke: #484848"/>
     <use xlink:href="#mc8f90d7d93" x="159.044375" y="91.671375" style="fill-opacity: 0; stroke: #484848"/>
     <use xlink:href="#mc8f90d7d93" x="159.044375" y="81.900075" style="fill-opacity: 0; stroke: #484848"/>
     <use xlink:href="#mc8f90d7d93" x="159.044375" y="196.452975" style="fill-opacity: 0; stroke: #484848"/>
     <use xlink:href="#mc8f90d7d93" x="159.044375" y="154.872975" style="fill-opacity: 0; stroke: #484848"/>
     <use xlink:href="#mc8f90d7d93" x="159.044375" y="200.610975" style="fill-opacity: 0; stroke: #484848"/>
     <use xlink:href="#mc8f90d7d93" x="159.044375" y="41.359575" style="fill-opacity: 0; stroke: #484848"/>
     <use xlink:href="#mc8f90d7d93" x="159.044375" y="81.276375" style="fill-opacity: 0; stroke: #484848"/>
     <use xlink:href="#mc8f90d7d93" x="159.044375" y="147.388575" style="fill-opacity: 0; stroke: #484848"/>
     <use xlink:href="#mc8f90d7d93" x="159.044375" y="197.492475" style="fill-opacity: 0; stroke: #484848"/>
     <use xlink:href="#mc8f90d7d93" x="159.044375" y="202.689975" style="fill-opacity: 0; stroke: #484848"/>
     <use xlink:href="#mc8f90d7d93" x="159.044375" y="211.213875" style="fill-opacity: 0; stroke: #484848"/>
     <use xlink:href="#mc8f90d7d93" x="159.044375" y="62.565375" style="fill-opacity: 0; stroke: #484848"/>
     <use xlink:href="#mc8f90d7d93" x="159.044375" y="189.384375" style="fill-opacity: 0; stroke: #484848"/>
     <use xlink:href="#mc8f90d7d93" x="159.044375" y="145.933275" style="fill-opacity: 0; stroke: #484848"/>
     <use xlink:href="#mc8f90d7d93" x="159.044375" y="160.278375" style="fill-opacity: 0; stroke: #484848"/>
     <use xlink:href="#mc8f90d7d93" x="159.044375" y="198.531975" style="fill-opacity: 0; stroke: #484848"/>
     <use xlink:href="#mc8f90d7d93" x="159.044375" y="154.041375" style="fill-opacity: 0; stroke: #484848"/>
     <use xlink:href="#mc8f90d7d93" x="159.044375" y="183.978975" style="fill-opacity: 0; stroke: #484848"/>
     <use xlink:href="#mc8f90d7d93" x="159.044375" y="202.066275" style="fill-opacity: 0; stroke: #484848"/>
     <use xlink:href="#mc8f90d7d93" x="159.044375" y="17.658975" style="fill-opacity: 0; stroke: #484848"/>
     <use xlink:href="#mc8f90d7d93" x="159.044375" y="81.068475" style="fill-opacity: 0; stroke: #484848"/>
     <use xlink:href="#mc8f90d7d93" x="159.044375" y="-1" style="fill-opacity: 0; stroke: #484848"/>
     <use xlink:href="#mc8f90d7d93" x="159.044375" y="-1" style="fill-opacity: 0; stroke: #484848"/>
     <use xlink:href="#mc8f90d7d93" x="159.044375" y="210.174375" style="fill-opacity: 0; stroke: #484848"/>
     <use xlink:href="#mc8f90d7d93" x="159.044375" y="211.005975" style="fill-opacity: 0; stroke: #484848"/>
     <use xlink:href="#mc8f90d7d93" x="159.044375" y="131.172375" style="fill-opacity: 0; stroke: #484848"/>
     <use xlink:href="#mc8f90d7d93" x="159.044375" y="104.976975" style="fill-opacity: 0; stroke: #484848"/>
     <use xlink:href="#mc8f90d7d93" x="159.044375" y="104.976975" style="fill-opacity: 0; stroke: #484848"/>
     <use xlink:href="#mc8f90d7d93" x="159.044375" y="187.097475" style="fill-opacity: 0; stroke: #484848"/>
     <use xlink:href="#mc8f90d7d93" x="159.044375" y="178.781475" style="fill-opacity: 0; stroke: #484848"/>
     <use xlink:href="#mc8f90d7d93" x="159.044375" y="166.515375" style="fill-opacity: 0; stroke: #484848"/>
     <use xlink:href="#mc8f90d7d93" x="159.044375" y="196.660875" style="fill-opacity: 0; stroke: #484848"/>
     <use xlink:href="#mc8f90d7d93" x="159.044375" y="182.731575" style="fill-opacity: 0; stroke: #484848"/>
     <use xlink:href="#mc8f90d7d93" x="159.044375" y="81.068475" style="fill-opacity: 0; stroke: #484848"/>
     <use xlink:href="#mc8f90d7d93" x="159.044375" y="210.174375" style="fill-opacity: 0; stroke: #484848"/>
     <use xlink:href="#mc8f90d7d93" x="159.044375" y="161.317875" style="fill-opacity: 0; stroke: #484848"/>
     <use xlink:href="#mc8f90d7d93" x="159.044375" y="203.937375" style="fill-opacity: 0; stroke: #484848"/>
     <use xlink:href="#mc8f90d7d93" x="159.044375" y="62.357475" style="fill-opacity: 0; stroke: #484848"/>
     <use xlink:href="#mc8f90d7d93" x="159.044375" y="178.989375" style="fill-opacity: 0; stroke: #484848"/>
     <use xlink:href="#mc8f90d7d93" x="159.044375" y="81.276375" style="fill-opacity: 0; stroke: #484848"/>
     <use xlink:href="#mc8f90d7d93" x="159.044375" y="47.596575" style="fill-opacity: 0; stroke: #484848"/>
     <use xlink:href="#mc8f90d7d93" x="159.044375" y="81.068475" style="fill-opacity: 0; stroke: #484848"/>
     <use xlink:href="#mc8f90d7d93" x="159.044375" y="195.621375" style="fill-opacity: 0; stroke: #484848"/>
     <use xlink:href="#mc8f90d7d93" x="159.044375" y="206.847975" style="fill-opacity: 0; stroke: #484848"/>
     <use xlink:href="#mc8f90d7d93" x="159.044375" y="135.122475" style="fill-opacity: 0; stroke: #484848"/>
     <use xlink:href="#mc8f90d7d93" x="159.044375" y="130.548675" style="fill-opacity: 0; stroke: #484848"/>
     <use xlink:href="#mc8f90d7d93" x="159.044375" y="193.542375" style="fill-opacity: 0; stroke: #484848"/>
     <use xlink:href="#mc8f90d7d93" x="159.044375" y="157.991475" style="fill-opacity: 0; stroke: #484848"/>
     <use xlink:href="#mc8f90d7d93" x="159.044375" y="150.091275" style="fill-opacity: 0; stroke: #484848"/>
     <use xlink:href="#mc8f90d7d93" x="159.044375" y="81.068475" style="fill-opacity: 0; stroke: #484848"/>
     <use xlink:href="#mc8f90d7d93" x="159.044375" y="173.583975" style="fill-opacity: 0; stroke: #484848"/>
     <use xlink:href="#mc8f90d7d93" x="159.044375" y="62.357475" style="fill-opacity: 0; stroke: #484848"/>
     <use xlink:href="#mc8f90d7d93" x="159.044375" y="81.068475" style="fill-opacity: 0; stroke: #484848"/>
     <use xlink:href="#mc8f90d7d93" x="159.044375" y="170.465475" style="fill-opacity: 0; stroke: #484848"/>
     <use xlink:href="#mc8f90d7d93" x="159.044375" y="81.068475" style="fill-opacity: 0; stroke: #484848"/>
     <use xlink:href="#mc8f90d7d93" x="159.044375" y="120.777375" style="fill-opacity: 0; stroke: #484848"/>
     <use xlink:href="#mc8f90d7d93" x="159.044375" y="113.500875" style="fill-opacity: 0; stroke: #484848"/>
     <use xlink:href="#mc8f90d7d93" x="159.044375" y="106.224375" style="fill-opacity: 0; stroke: #484848"/>
     <use xlink:href="#mc8f90d7d93" x="159.044375" y="163.188975" style="fill-opacity: 0; stroke: #484848"/>
     <use xlink:href="#mc8f90d7d93" x="159.044375" y="161.525775" style="fill-opacity: 0; stroke: #484848"/>
     <use xlink:href="#mc8f90d7d93" x="159.044375" y="103.105875" style="fill-opacity: 0; stroke: #484848"/>
     <use xlink:href="#mc8f90d7d93" x="159.044375" y="133.043475" style="fill-opacity: 0; stroke: #484848"/>
     <use xlink:href="#mc8f90d7d93" x="159.044375" y="-1" style="fill-opacity: 0; stroke: #484848"/>
     <use xlink:href="#mc8f90d7d93" x="159.044375" y="-1" style="fill-opacity: 0; stroke: #484848"/>
     <use xlink:href="#mc8f90d7d93" x="159.044375" y="81.068475" style="fill-opacity: 0; stroke: #484848"/>
     <use xlink:href="#mc8f90d7d93" x="159.044375" y="168.594375" style="fill-opacity: 0; stroke: #484848"/>
     <use xlink:href="#mc8f90d7d93" x="159.044375" y="185.226375" style="fill-opacity: 0; stroke: #484848"/>
     <use xlink:href="#mc8f90d7d93" x="159.044375" y="190.215975" style="fill-opacity: 0; stroke: #484848"/>
     <use xlink:href="#mc8f90d7d93" x="159.044375" y="62.357475" style="fill-opacity: 0; stroke: #484848"/>
     <use xlink:href="#mc8f90d7d93" x="159.044375" y="198.116175" style="fill-opacity: 0; stroke: #484848"/>
     <use xlink:href="#mc8f90d7d93" x="159.044375" y="177.949875" style="fill-opacity: 0; stroke: #484848"/>
     <use xlink:href="#mc8f90d7d93" x="159.044375" y="160.278375" style="fill-opacity: 0; stroke: #484848"/>
     <use xlink:href="#mc8f90d7d93" x="159.044375" y="180.860475" style="fill-opacity: 0; stroke: #484848"/>
     <use xlink:href="#mc8f90d7d93" x="159.044375" y="163.396875" style="fill-opacity: 0; stroke: #484848"/>
     <use xlink:href="#mc8f90d7d93" x="159.044375" y="17.658975" style="fill-opacity: 0; stroke: #484848"/>
     <use xlink:href="#mc8f90d7d93" x="159.044375" y="121.608975" style="fill-opacity: 0; stroke: #484848"/>
     <use xlink:href="#mc8f90d7d93" x="159.044375" y="81.276375" style="fill-opacity: 0; stroke: #484848"/>
     <use xlink:href="#mc8f90d7d93" x="159.044375" y="-1" style="fill-opacity: 0; stroke: #484848"/>
     <use xlink:href="#mc8f90d7d93" x="159.044375" y="-1" style="fill-opacity: 0; stroke: #484848"/>
     <use xlink:href="#mc8f90d7d93" x="159.044375" y="62.357475" style="fill-opacity: 0; stroke: #484848"/>
     <use xlink:href="#mc8f90d7d93" x="159.044375" y="64.644375" style="fill-opacity: 0; stroke: #484848"/>
     <use xlink:href="#mc8f90d7d93" x="159.044375" y="162.357375" style="fill-opacity: 0; stroke: #484848"/>
     <use xlink:href="#mc8f90d7d93" x="159.044375" y="202.066275" style="fill-opacity: 0; stroke: #484848"/>
     <use xlink:href="#mc8f90d7d93" x="159.044375" y="168.594375" style="fill-opacity: 0; stroke: #484848"/>
     <use xlink:href="#mc8f90d7d93" x="159.044375" y="159.238875" style="fill-opacity: 0; stroke: #484848"/>
     <use xlink:href="#mc8f90d7d93" x="159.044375" y="183.147375" style="fill-opacity: 0; stroke: #484848"/>
     <use xlink:href="#mc8f90d7d93" x="159.044375" y="157.991475" style="fill-opacity: 0; stroke: #484848"/>
     <use xlink:href="#mc8f90d7d93" x="159.044375" y="168.594375" style="fill-opacity: 0; stroke: #484848"/>
     <use xlink:href="#mc8f90d7d93" x="159.044375" y="-1" style="fill-opacity: 0; stroke: #484848"/>
     <use xlink:href="#mc8f90d7d93" x="159.044375" y="-1" style="fill-opacity: 0; stroke: #484848"/>
     <use xlink:href="#mc8f90d7d93" x="159.044375" y="81.068475" style="fill-opacity: 0; stroke: #484848"/>
     <use xlink:href="#mc8f90d7d93" x="159.044375" y="120.569475" style="fill-opacity: 0; stroke: #484848"/>
     <use xlink:href="#mc8f90d7d93" x="159.044375" y="127.014375" style="fill-opacity: 0; stroke: #484848"/>
     <use xlink:href="#mc8f90d7d93" x="159.044375" y="93.750375" style="fill-opacity: 0; stroke: #484848"/>
     <use xlink:href="#mc8f90d7d93" x="159.044375" y="147.804375" style="fill-opacity: 0; stroke: #484848"/>
     <use xlink:href="#mc8f90d7d93" x="159.044375" y="207.887475" style="fill-opacity: 0; stroke: #484848"/>
     <use xlink:href="#mc8f90d7d93" x="159.044375" y="176.702475" style="fill-opacity: 0; stroke: #484848"/>
     <use xlink:href="#mc8f90d7d93" x="159.044375" y="174.623475" style="fill-opacity: 0; stroke: #484848"/>
     <use xlink:href="#mc8f90d7d93" x="159.044375" y="144.477975" style="fill-opacity: 0; stroke: #484848"/>
     <use xlink:href="#mc8f90d7d93" x="159.044375" y="17.658975" style="fill-opacity: 0; stroke: #484848"/>
     <use xlink:href="#mc8f90d7d93" x="159.044375" y="127.014375" style="fill-opacity: 0; stroke: #484848"/>
     <use xlink:href="#mc8f90d7d93" x="159.044375" y="172.544475" style="fill-opacity: 0; stroke: #484848"/>
     <use xlink:href="#mc8f90d7d93" x="159.044375" y="160.278375" style="fill-opacity: 0; stroke: #484848"/>
     <use xlink:href="#mc8f90d7d93" x="159.044375" y="135.330375" style="fill-opacity: 0; stroke: #484848"/>
     <use xlink:href="#mc8f90d7d93" x="159.044375" y="198.739875" style="fill-opacity: 0; stroke: #484848"/>
     <use xlink:href="#mc8f90d7d93" x="159.044375" y="97.700475" style="fill-opacity: 0; stroke: #484848"/>
     <use xlink:href="#mc8f90d7d93" x="159.044375" y="164.228475" style="fill-opacity: 0; stroke: #484848"/>
     <use xlink:href="#mc8f90d7d93" x="159.044375" y="136.369875" style="fill-opacity: 0; stroke: #484848"/>
     <use xlink:href="#mc8f90d7d93" x="159.044375" y="203.937375" style="fill-opacity: 0; stroke: #484848"/>
     <use xlink:href="#mc8f90d7d93" x="159.044375" y="160.070475" style="fill-opacity: 0; stroke: #484848"/>
     <use xlink:href="#mc8f90d7d93" x="159.044375" y="195.621375" style="fill-opacity: 0; stroke: #484848"/>
     <use xlink:href="#mc8f90d7d93" x="159.044375" y="147.804375" style="fill-opacity: 0; stroke: #484848"/>
     <use xlink:href="#mc8f90d7d93" x="159.044375" y="111.421875" style="fill-opacity: 0; stroke: #484848"/>
     <use xlink:href="#mc8f90d7d93" x="159.044375" y="171.712875" style="fill-opacity: 0; stroke: #484848"/>
     <use xlink:href="#mc8f90d7d93" x="159.044375" y="127.014375" style="fill-opacity: 0; stroke: #484848"/>
     <use xlink:href="#mc8f90d7d93" x="159.044375" y="152.170275" style="fill-opacity: 0; stroke: #484848"/>
     <use xlink:href="#mc8f90d7d93" x="159.044375" y="62.565375" style="fill-opacity: 0; stroke: #484848"/>
     <use xlink:href="#mc8f90d7d93" x="159.044375" y="62.565375" style="fill-opacity: 0; stroke: #484848"/>
     <use xlink:href="#mc8f90d7d93" x="159.044375" y="116.203575" style="fill-opacity: 0; stroke: #484848"/>
     <use xlink:href="#mc8f90d7d93" x="159.044375" y="189.384375" style="fill-opacity: 0; stroke: #484848"/>
     <use xlink:href="#mc8f90d7d93" x="159.044375" y="127.014375" style="fill-opacity: 0; stroke: #484848"/>
     <use xlink:href="#mc8f90d7d93" x="159.044375" y="104.976975" style="fill-opacity: 0; stroke: #484848"/>
     <use xlink:href="#mc8f90d7d93" x="159.044375" y="205.184775" style="fill-opacity: 0; stroke: #484848"/>
     <use xlink:href="#mc8f90d7d93" x="159.044375" y="145.725375" style="fill-opacity: 0; stroke: #484848"/>
     <use xlink:href="#mc8f90d7d93" x="159.044375" y="170.881275" style="fill-opacity: 0; stroke: #484848"/>
     <use xlink:href="#mc8f90d7d93" x="159.044375" y="189.384375" style="fill-opacity: 0; stroke: #484848"/>
     <use xlink:href="#mc8f90d7d93" x="159.044375" y="169.841775" style="fill-opacity: 0; stroke: #484848"/>
     <use xlink:href="#mc8f90d7d93" x="159.044375" y="104.976975" style="fill-opacity: 0; stroke: #484848"/>
     <use xlink:href="#mc8f90d7d93" x="159.044375" y="140.319975" style="fill-opacity: 0; stroke: #484848"/>
     <use xlink:href="#mc8f90d7d93" x="159.044375" y="199.779375" style="fill-opacity: 0; stroke: #484848"/>
     <use xlink:href="#mc8f90d7d93" x="159.044375" y="158.407275" style="fill-opacity: 0; stroke: #484848"/>
     <use xlink:href="#mc8f90d7d93" x="159.044375" y="166.931175" style="fill-opacity: 0; stroke: #484848"/>
     <use xlink:href="#mc8f90d7d93" x="159.044375" y="80.028975" style="fill-opacity: 0; stroke: #484848"/>
     <use xlink:href="#mc8f90d7d93" x="159.044375" y="104.976975" style="fill-opacity: 0; stroke: #484848"/>
     <use xlink:href="#mc8f90d7d93" x="159.044375" y="145.725375" style="fill-opacity: 0; stroke: #484848"/>
     <use xlink:href="#mc8f90d7d93" x="159.044375" y="105.392775" style="fill-opacity: 0; stroke: #484848"/>
     <use xlink:href="#mc8f90d7d93" x="159.044375" y="81.068475" style="fill-opacity: 0; stroke: #484848"/>
     <use xlink:href="#mc8f90d7d93" x="159.044375" y="176.702475" style="fill-opacity: 0; stroke: #484848"/>
     <use xlink:href="#mc8f90d7d93" x="159.044375" y="63.396975" style="fill-opacity: 0; stroke: #484848"/>
     <use xlink:href="#mc8f90d7d93" x="159.044375" y="202.689975" style="fill-opacity: 0; stroke: #484848"/>
     <use xlink:href="#mc8f90d7d93" x="159.044375" y="198.116175" style="fill-opacity: 0; stroke: #484848"/>
     <use xlink:href="#mc8f90d7d93" x="159.044375" y="101.026875" style="fill-opacity: 0; stroke: #484848"/>
     <use xlink:href="#mc8f90d7d93" x="159.044375" y="204.768975" style="fill-opacity: 0; stroke: #484848"/>
     <use xlink:href="#mc8f90d7d93" x="159.044375" y="210.174375" style="fill-opacity: 0; stroke: #484848"/>
     <use xlink:href="#mc8f90d7d93" x="159.044375" y="127.014375" style="fill-opacity: 0; stroke: #484848"/>
     <use xlink:href="#mc8f90d7d93" x="159.044375" y="210.174375" style="fill-opacity: 0; stroke: #484848"/>
     <use xlink:href="#mc8f90d7d93" x="159.044375" y="135.122475" style="fill-opacity: 0; stroke: #484848"/>
     <use xlink:href="#mc8f90d7d93" x="159.044375" y="147.596475" style="fill-opacity: 0; stroke: #484848"/>
     <use xlink:href="#mc8f90d7d93" x="159.044375" y="146.556975" style="fill-opacity: 0; stroke: #484848"/>
     <use xlink:href="#mc8f90d7d93" x="159.044375" y="111.213975" style="fill-opacity: 0; stroke: #484848"/>
     <use xlink:href="#mc8f90d7d93" x="159.044375" y="207.887475" style="fill-opacity: 0; stroke: #484848"/>
     <use xlink:href="#mc8f90d7d93" x="159.044375" y="167.554875" style="fill-opacity: 0; stroke: #484848"/>
     <use xlink:href="#mc8f90d7d93" x="159.044375" y="128.053875" style="fill-opacity: 0; stroke: #484848"/>
     <use xlink:href="#mc8f90d7d93" x="159.044375" y="-1" style="fill-opacity: 0; stroke: #484848"/>
     <use xlink:href="#mc8f90d7d93" x="159.044375" y="-1" style="fill-opacity: 0; stroke: #484848"/>
     <use xlink:href="#mc8f90d7d93" x="159.044375" y="81.068475" style="fill-opacity: 0; stroke: #484848"/>
     <use xlink:href="#mc8f90d7d93" x="159.044375" y="127.014375" style="fill-opacity: 0; stroke: #484848"/>
     <use xlink:href="#mc8f90d7d93" x="159.044375" y="168.594375" style="fill-opacity: 0; stroke: #484848"/>
     <use xlink:href="#mc8f90d7d93" x="159.044375" y="198.739875" style="fill-opacity: 0; stroke: #484848"/>
     <use xlink:href="#mc8f90d7d93" x="159.044375" y="177.326175" style="fill-opacity: 0; stroke: #484848"/>
     <use xlink:href="#mc8f90d7d93" x="159.044375" y="211.005975" style="fill-opacity: 0; stroke: #484848"/>
     <use xlink:href="#mc8f90d7d93" x="159.044375" y="168.594375" style="fill-opacity: 0; stroke: #484848"/>
     <use xlink:href="#mc8f90d7d93" x="159.044375" y="47.596575" style="fill-opacity: 0; stroke: #484848"/>
     <use xlink:href="#mc8f90d7d93" x="159.044375" y="157.159875" style="fill-opacity: 0; stroke: #484848"/>
     <use xlink:href="#mc8f90d7d93" x="159.044375" y="108.511275" style="fill-opacity: 0; stroke: #484848"/>
     <use xlink:href="#mc8f90d7d93" x="159.044375" y="130.964475" style="fill-opacity: 0; stroke: #484848"/>
     <use xlink:href="#mc8f90d7d93" x="159.044375" y="189.384375" style="fill-opacity: 0; stroke: #484848"/>
     <use xlink:href="#mc8f90d7d93" x="159.044375" y="121.816875" style="fill-opacity: 0; stroke: #484848"/>
     <use xlink:href="#mc8f90d7d93" x="159.044375" y="75.039375" style="fill-opacity: 0; stroke: #484848"/>
     <use xlink:href="#mc8f90d7d93" x="159.044375" y="-1" style="fill-opacity: 0; stroke: #484848"/>
     <use xlink:href="#mc8f90d7d93" x="159.044375" y="-1" style="fill-opacity: 0; stroke: #484848"/>
     <use xlink:href="#mc8f90d7d93" x="159.044375" y="196.868775" style="fill-opacity: 0; stroke: #484848"/>
     <use xlink:href="#mc8f90d7d93" x="159.044375" y="161.525775" style="fill-opacity: 0; stroke: #484848"/>
     <use xlink:href="#mc8f90d7d93" x="159.044375" y="185.226375" style="fill-opacity: 0; stroke: #484848"/>
     <use xlink:href="#mc8f90d7d93" x="159.044375" y="163.396875" style="fill-opacity: 0; stroke: #484848"/>
     <use xlink:href="#mc8f90d7d93" x="159.044375" y="199.779375" style="fill-opacity: 0; stroke: #484848"/>
     <use xlink:href="#mc8f90d7d93" x="159.044375" y="62.357475" style="fill-opacity: 0; stroke: #484848"/>
     <use xlink:href="#mc8f90d7d93" x="159.044375" y="75.870975" style="fill-opacity: 0; stroke: #484848"/>
     <use xlink:href="#mc8f90d7d93" x="159.044375" y="180.860475" style="fill-opacity: 0; stroke: #484848"/>
     <use xlink:href="#mc8f90d7d93" x="159.044375" y="17.658975" style="fill-opacity: 0; stroke: #484848"/>
     <use xlink:href="#mc8f90d7d93" x="159.044375" y="172.752375" style="fill-opacity: 0; stroke: #484848"/>
     <use xlink:href="#mc8f90d7d93" x="159.044375" y="209.134875" style="fill-opacity: 0; stroke: #484848"/>
     <use xlink:href="#mc8f90d7d93" x="159.044375" y="105.184875" style="fill-opacity: 0; stroke: #484848"/>
     <use xlink:href="#mc8f90d7d93" x="159.044375" y="192.294975" style="fill-opacity: 0; stroke: #484848"/>
     <use xlink:href="#mc8f90d7d93" x="159.044375" y="168.594375" style="fill-opacity: 0; stroke: #484848"/>
     <use xlink:href="#mc8f90d7d93" x="159.044375" y="202.689975" style="fill-opacity: 0; stroke: #484848"/>
     <use xlink:href="#mc8f90d7d93" x="159.044375" y="17.658975" style="fill-opacity: 0; stroke: #484848"/>
     <use xlink:href="#mc8f90d7d93" x="159.044375" y="91.463475" style="fill-opacity: 0; stroke: #484848"/>
     <use xlink:href="#mc8f90d7d93" x="159.044375" y="166.931175" style="fill-opacity: 0; stroke: #484848"/>
     <use xlink:href="#mc8f90d7d93" x="159.044375" y="153.833475" style="fill-opacity: 0; stroke: #484848"/>
     <use xlink:href="#mc8f90d7d93" x="159.044375" y="145.725375" style="fill-opacity: 0; stroke: #484848"/>
     <use xlink:href="#mc8f90d7d93" x="159.044375" y="202.066275" style="fill-opacity: 0; stroke: #484848"/>
     <use xlink:href="#mc8f90d7d93" x="159.044375" y="203.521575" style="fill-opacity: 0; stroke: #484848"/>
     <use xlink:href="#mc8f90d7d93" x="159.044375" y="96.868875" style="fill-opacity: 0; stroke: #484848"/>
     <use xlink:href="#mc8f90d7d93" x="159.044375" y="81.068475" style="fill-opacity: 0; stroke: #484848"/>
     <use xlink:href="#mc8f90d7d93" x="159.044375" y="139.488375" style="fill-opacity: 0; stroke: #484848"/>
     <use xlink:href="#mc8f90d7d93" x="159.044375" y="208.095375" style="fill-opacity: 0; stroke: #484848"/>
     <use xlink:href="#mc8f90d7d93" x="159.044375" y="62.357475" style="fill-opacity: 0; stroke: #484848"/>
     <use xlink:href="#mc8f90d7d93" x="159.044375" y="62.357475" style="fill-opacity: 0; stroke: #484848"/>
     <use xlink:href="#mc8f90d7d93" x="159.044375" y="84.186975" style="fill-opacity: 0; stroke: #484848"/>
     <use xlink:href="#mc8f90d7d93" x="159.044375" y="183.147375" style="fill-opacity: 0; stroke: #484848"/>
     <use xlink:href="#mc8f90d7d93" x="159.044375" y="-1" style="fill-opacity: 0; stroke: #484848"/>
     <use xlink:href="#mc8f90d7d93" x="159.044375" y="-1" style="fill-opacity: 0; stroke: #484848"/>
     <use xlink:href="#mc8f90d7d93" x="159.044375" y="127.014375" style="fill-opacity: 0; stroke: #484848"/>
     <use xlink:href="#mc8f90d7d93" x="159.044375" y="202.689975" style="fill-opacity: 0; stroke: #484848"/>
     <use xlink:href="#mc8f90d7d93" x="159.044375" y="170.465475" style="fill-opacity: 0; stroke: #484848"/>
     <use xlink:href="#mc8f90d7d93" x="159.044375" y="178.781475" style="fill-opacity: 0; stroke: #484848"/>
     <use xlink:href="#mc8f90d7d93" x="159.044375" y="-1" style="fill-opacity: 0; stroke: #484848"/>
     <use xlink:href="#mc8f90d7d93" x="159.044375" y="-1" style="fill-opacity: 0; stroke: #484848"/>
     <use xlink:href="#mc8f90d7d93" x="159.044375" y="190.423875" style="fill-opacity: 0; stroke: #484848"/>
     <use xlink:href="#mc8f90d7d93" x="159.044375" y="187.097475" style="fill-opacity: 0; stroke: #484848"/>
     <use xlink:href="#mc8f90d7d93" x="159.044375" y="168.594375" style="fill-opacity: 0; stroke: #484848"/>
     <use xlink:href="#mc8f90d7d93" x="159.044375" y="155.080875" style="fill-opacity: 0; stroke: #484848"/>
     <use xlink:href="#mc8f90d7d93" x="159.044375" y="120.569475" style="fill-opacity: 0; stroke: #484848"/>
     <use xlink:href="#mc8f90d7d93" x="159.044375" y="180.028875" style="fill-opacity: 0; stroke: #484848"/>
     <use xlink:href="#mc8f90d7d93" x="159.044375" y="81.276375" style="fill-opacity: 0; stroke: #484848"/>
     <use xlink:href="#mc8f90d7d93" x="159.044375" y="98.947875" style="fill-opacity: 0; stroke: #484848"/>
     <use xlink:href="#mc8f90d7d93" x="159.044375" y="177.326175" style="fill-opacity: 0; stroke: #484848"/>
     <use xlink:href="#mc8f90d7d93" x="159.044375" y="81.068475" style="fill-opacity: 0; stroke: #484848"/>
     <use xlink:href="#mc8f90d7d93" x="159.044375" y="135.122475" style="fill-opacity: 0; stroke: #484848"/>
     <use xlink:href="#mc8f90d7d93" x="159.044375" y="139.696275" style="fill-opacity: 0; stroke: #484848"/>
     <use xlink:href="#mc8f90d7d93" x="159.044375" y="122.856375" style="fill-opacity: 0; stroke: #484848"/>
     <use xlink:href="#mc8f90d7d93" x="159.044375" y="154.872975" style="fill-opacity: 0; stroke: #484848"/>
     <use xlink:href="#mc8f90d7d93" x="159.044375" y="91.463475" style="fill-opacity: 0; stroke: #484848"/>
     <use xlink:href="#mc8f90d7d93" x="159.044375" y="210.174375" style="fill-opacity: 0; stroke: #484848"/>
     <use xlink:href="#mc8f90d7d93" x="159.044375" y="126.598575" style="fill-opacity: 0; stroke: #484848"/>
     <use xlink:href="#mc8f90d7d93" x="159.044375" y="202.689975" style="fill-opacity: 0; stroke: #484848"/>
     <use xlink:href="#mc8f90d7d93" x="159.044375" y="157.991475" style="fill-opacity: 0; stroke: #484848"/>
     <use xlink:href="#mc8f90d7d93" x="159.044375" y="109.342875" style="fill-opacity: 0; stroke: #484848"/>
     <use xlink:href="#mc8f90d7d93" x="159.044375" y="211.421775" style="fill-opacity: 0; stroke: #484848"/>
     <use xlink:href="#mc8f90d7d93" x="159.044375" y="121.608975" style="fill-opacity: 0; stroke: #484848"/>
     <use xlink:href="#mc8f90d7d93" x="159.044375" y="139.280475" style="fill-opacity: 0; stroke: #484848"/>
     <use xlink:href="#mc8f90d7d93" x="159.044375" y="120.985275" style="fill-opacity: 0; stroke: #484848"/>
     <use xlink:href="#mc8f90d7d93" x="159.044375" y="147.804375" style="fill-opacity: 0; stroke: #484848"/>
     <use xlink:href="#mc8f90d7d93" x="159.044375" y="179.820975" style="fill-opacity: 0; stroke: #484848"/>
     <use xlink:href="#mc8f90d7d93" x="159.044375" y="185.226375" style="fill-opacity: 0; stroke: #484848"/>
     <use xlink:href="#mc8f90d7d93" x="159.044375" y="139.280475" style="fill-opacity: 0; stroke: #484848"/>
     <use xlink:href="#mc8f90d7d93" x="159.044375" y="162.149475" style="fill-opacity: 0; stroke: #484848"/>
     <use xlink:href="#mc8f90d7d93" x="159.044375" y="150.714975" style="fill-opacity: 0; stroke: #484848"/>
     <use xlink:href="#mc8f90d7d93" x="159.044375" y="208.926975" style="fill-opacity: 0; stroke: #484848"/>
     <use xlink:href="#mc8f90d7d93" x="159.044375" y="177.741975" style="fill-opacity: 0; stroke: #484848"/>
     <use xlink:href="#mc8f90d7d93" x="159.044375" y="168.594375" style="fill-opacity: 0; stroke: #484848"/>
     <use xlink:href="#mc8f90d7d93" x="159.044375" y="173.583975" style="fill-opacity: 0; stroke: #484848"/>
     <use xlink:href="#mc8f90d7d93" x="159.044375" y="-1" style="fill-opacity: 0; stroke: #484848"/>
     <use xlink:href="#mc8f90d7d93" x="159.044375" y="-1" style="fill-opacity: 0; stroke: #484848"/>
     <use xlink:href="#mc8f90d7d93" x="159.044375" y="194.373975" style="fill-opacity: 0; stroke: #484848"/>
     <use xlink:href="#mc8f90d7d93" x="159.044375" y="114.540375" style="fill-opacity: 0; stroke: #484848"/>
     <use xlink:href="#mc8f90d7d93" x="159.044375" y="136.369875" style="fill-opacity: 0; stroke: #484848"/>
     <use xlink:href="#mc8f90d7d93" x="159.044375" y="146.556975" style="fill-opacity: 0; stroke: #484848"/>
     <use xlink:href="#mc8f90d7d93" x="159.044375" y="185.226375" style="fill-opacity: 0; stroke: #484848"/>
     <use xlink:href="#mc8f90d7d93" x="159.044375" y="81.276375" style="fill-opacity: 0; stroke: #484848"/>
     <use xlink:href="#mc8f90d7d93" x="159.044375" y="176.702475" style="fill-opacity: 0; stroke: #484848"/>
     <use xlink:href="#mc8f90d7d93" x="159.044375" y="189.384375" style="fill-opacity: 0; stroke: #484848"/>
     <use xlink:href="#mc8f90d7d93" x="159.044375" y="180.028875" style="fill-opacity: 0; stroke: #484848"/>
     <use xlink:href="#mc8f90d7d93" x="159.044375" y="96.868875" style="fill-opacity: 0; stroke: #484848"/>
     <use xlink:href="#mc8f90d7d93" x="159.044375" y="81.276375" style="fill-opacity: 0; stroke: #484848"/>
     <use xlink:href="#mc8f90d7d93" x="159.044375" y="198.739875" style="fill-opacity: 0; stroke: #484848"/>
     <use xlink:href="#mc8f90d7d93" x="159.044375" y="81.068475" style="fill-opacity: 0; stroke: #484848"/>
     <use xlink:href="#mc8f90d7d93" x="159.044375" y="188.136975" style="fill-opacity: 0; stroke: #484848"/>
     <use xlink:href="#mc8f90d7d93" x="159.044375" y="104.976975" style="fill-opacity: 0; stroke: #484848"/>
     <use xlink:href="#mc8f90d7d93" x="159.044375" y="152.378175" style="fill-opacity: 0; stroke: #484848"/>
     <use xlink:href="#mc8f90d7d93" x="159.044375" y="193.126575" style="fill-opacity: 0; stroke: #484848"/>
     <use xlink:href="#mc8f90d7d93" x="159.044375" y="81.068475" style="fill-opacity: 0; stroke: #484848"/>
     <use xlink:href="#mc8f90d7d93" x="159.044375" y="121.608975" style="fill-opacity: 0; stroke: #484848"/>
     <use xlink:href="#mc8f90d7d93" x="159.044375" y="74.831475" style="fill-opacity: 0; stroke: #484848"/>
     <use xlink:href="#mc8f90d7d93" x="159.044375" y="127.014375" style="fill-opacity: 0; stroke: #484848"/>
     <use xlink:href="#mc8f90d7d93" x="159.044375" y="209.134875" style="fill-opacity: 0; stroke: #484848"/>
     <use xlink:href="#mc8f90d7d93" x="159.044375" y="203.521575" style="fill-opacity: 0; stroke: #484848"/>
     <use xlink:href="#mc8f90d7d93" x="159.044375" y="170.465475" style="fill-opacity: 0; stroke: #484848"/>
     <use xlink:href="#mc8f90d7d93" x="159.044375" y="185.226375" style="fill-opacity: 0; stroke: #484848"/>
     <use xlink:href="#mc8f90d7d93" x="159.044375" y="142.606875" style="fill-opacity: 0; stroke: #484848"/>
     <use xlink:href="#mc8f90d7d93" x="159.044375" y="185.018475" style="fill-opacity: 0; stroke: #484848"/>
     <use xlink:href="#mc8f90d7d93" x="159.044375" y="212.045475" style="fill-opacity: 0; stroke: #484848"/>
     <use xlink:href="#mc8f90d7d93" x="159.044375" y="210.174375" style="fill-opacity: 0; stroke: #484848"/>
     <use xlink:href="#mc8f90d7d93" x="159.044375" y="198.947775" style="fill-opacity: 0; stroke: #484848"/>
     <use xlink:href="#mc8f90d7d93" x="159.044375" y="104.976975" style="fill-opacity: 0; stroke: #484848"/>
     <use xlink:href="#mc8f90d7d93" x="159.044375" y="118.906275" style="fill-opacity: 0; stroke: #484848"/>
     <use xlink:href="#mc8f90d7d93" x="159.044375" y="130.756575" style="fill-opacity: 0; stroke: #484848"/>
     <use xlink:href="#mc8f90d7d93" x="159.044375" y="183.978975" style="fill-opacity: 0; stroke: #484848"/>
     <use xlink:href="#mc8f90d7d93" x="159.044375" y="155.912475" style="fill-opacity: 0; stroke: #484848"/>
     <use xlink:href="#mc8f90d7d93" x="159.044375" y="152.378175" style="fill-opacity: 0; stroke: #484848"/>
     <use xlink:href="#mc8f90d7d93" x="159.044375" y="50.922975" style="fill-opacity: 0; stroke: #484848"/>
     <use xlink:href="#mc8f90d7d93" x="159.044375" y="160.486275" style="fill-opacity: 0; stroke: #484848"/>
     <use xlink:href="#mc8f90d7d93" x="159.044375" y="185.226375" style="fill-opacity: 0; stroke: #484848"/>
     <use xlink:href="#mc8f90d7d93" x="159.044375" y="207.263775" style="fill-opacity: 0; stroke: #484848"/>
     <use xlink:href="#mc8f90d7d93" x="159.044375" y="112.253475" style="fill-opacity: 0; stroke: #484848"/>
     <use xlink:href="#mc8f90d7d93" x="159.044375" y="207.887475" style="fill-opacity: 0; stroke: #484848"/>
     <use xlink:href="#mc8f90d7d93" x="159.044375" y="137.201475" style="fill-opacity: 0; stroke: #484848"/>
     <use xlink:href="#mc8f90d7d93" x="159.044375" y="210.382275" style="fill-opacity: 0; stroke: #484848"/>
     <use xlink:href="#mc8f90d7d93" x="159.044375" y="197.284575" style="fill-opacity: 0; stroke: #484848"/>
     <use xlink:href="#mc8f90d7d93" x="159.044375" y="197.492475" style="fill-opacity: 0; stroke: #484848"/>
     <use xlink:href="#mc8f90d7d93" x="159.044375" y="187.097475" style="fill-opacity: 0; stroke: #484848"/>
     <use xlink:href="#mc8f90d7d93" x="159.044375" y="190.215975" style="fill-opacity: 0; stroke: #484848"/>
     <use xlink:href="#mc8f90d7d93" x="159.044375" y="166.931175" style="fill-opacity: 0; stroke: #484848"/>
     <use xlink:href="#mc8f90d7d93" x="159.044375" y="199.571475" style="fill-opacity: 0; stroke: #484848"/>
     <use xlink:href="#mc8f90d7d93" x="159.044375" y="201.650475" style="fill-opacity: 0; stroke: #484848"/>
     <use xlink:href="#mc8f90d7d93" x="159.044375" y="174.831375" style="fill-opacity: 0; stroke: #484848"/>
    </g>
   </g>
   <g id="patch_4">
    <path d="M 292.964375 334.914375 
L 471.524375 334.914375 
L 471.524375 334.914375 
L 292.964375 334.914375 
L 292.964375 334.914375 
z
" clip-path="url(#p6dcc72904d)" style="fill: #477ca8; stroke: #484848; stroke-linejoin: miter"/>
   </g>
   <g id="line2d_16">
    <path d="M 382.244375 334.914375 
L 382.244375 334.914375 
" clip-path="url(#p6dcc72904d)" style="fill: none; stroke: #484848"/>
   </g>
   <g id="line2d_17">
    <path d="M 382.244375 334.914375 
L 382.244375 334.914375 
" clip-path="url(#p6dcc72904d)" style="fill: none; stroke: #484848"/>
   </g>
   <g id="line2d_18">
    <path d="M 337.604375 334.914375 
L 426.884375 334.914375 
" clip-path="url(#p6dcc72904d)" style="fill: none; stroke: #484848; stroke-linecap: round"/>
   </g>
   <g id="line2d_19">
    <path d="M 337.604375 334.914375 
L 426.884375 334.914375 
" clip-path="url(#p6dcc72904d)" style="fill: none; stroke: #484848; stroke-linecap: round"/>
   </g>
   <g id="line2d_20"/>
   <g id="line2d_21">
    <path d="M 69.764375 289.176375 
L 248.324375 289.176375 
" clip-path="url(#p6dcc72904d)" style="fill: none; stroke: #484848"/>
   </g>
   <g id="line2d_22">
    <path d="M 292.964375 334.914375 
L 471.524375 334.914375 
" clip-path="url(#p6dcc72904d)" style="fill: none; stroke: #484848"/>
   </g>
   <g id="patch_5">
    <path d="M 47.444375 355.704375 
L 47.444375 23.064375 
" style="fill: none; stroke: #262626; stroke-width: 1.25; stroke-linejoin: miter; stroke-linecap: square"/>
   </g>
   <g id="patch_6">
    <path d="M 493.844375 355.704375 
L 493.844375 23.064375 
" style="fill: none; stroke: #262626; stroke-width: 1.25; stroke-linejoin: miter; stroke-linecap: square"/>
   </g>
   <g id="patch_7">
    <path d="M 47.444375 355.704375 
L 493.844375 355.704375 
" style="fill: none; stroke: #262626; stroke-width: 1.25; stroke-linejoin: miter; stroke-linecap: square"/>
   </g>
   <g id="patch_8">
    <path d="M 47.444375 23.064375 
L 493.844375 23.064375 
" style="fill: none; stroke: #262626; stroke-width: 1.25; stroke-linejoin: miter; stroke-linecap: square"/>
   </g>
   <g id="text_13">
    <!-- 결제 수단(Payment)별 지불한 팁(Tip)의 차이 -->
    <g style="fill: #262626" transform="translate(146.31125 17.064375) scale(0.12 -0.12)">
     <defs>
      <path id="AppleGothic-50" d="M 262 5018 
L 1869 5018 
Q 2560 5018 3002 4781 
Q 3597 4448 3597 3718 
Q 3597 3014 3104 2630 
Q 2656 2272 1952 2272 
L 768 2272 
L 768 0 
L 262 0 
L 262 5018 
z
M 1862 4576 
L 768 4576 
L 768 2714 
L 1901 2714 
Q 2349 2714 2675 2950 
Q 3040 3219 3040 3674 
Q 3040 4186 2611 4410 
Q 2298 4576 1862 4576 
z
" transform="scale(0.015625)"/>
      <path id="AppleGothic-79" d="M 179 3424 
L 691 3424 
L 1869 531 
L 2874 3424 
L 3379 3424 
L 1952 -397 
Q 1798 -806 1555 -979 
Q 1338 -1126 1037 -1126 
Q 883 -1126 780 -1104 
Q 678 -1082 582 -1043 
L 582 -602 
Q 672 -646 784 -678 
Q 896 -710 986 -710 
Q 1210 -710 1334 -595 
Q 1459 -480 1555 -230 
L 1632 32 
L 179 3424 
z
" transform="scale(0.015625)"/>
      <path id="AppleGothic-6d" d="M 5389 2195 
L 5389 0 
L 4922 0 
L 4922 2304 
Q 4922 2669 4672 2893 
Q 4461 3085 4173 3085 
Q 3744 3085 3405 2688 
Q 3072 2298 3072 1722 
L 3072 0 
L 2605 0 
L 2605 2304 
Q 2605 2650 2368 2861 
Q 2144 3085 1856 3085 
Q 1440 3085 1114 2714 
Q 755 2304 755 1702 
L 755 0 
L 288 0 
L 288 3424 
L 723 3424 
L 742 2880 
Q 928 3181 1274 3354 
Q 1581 3501 1894 3501 
Q 2381 3501 2714 3219 
Q 2957 3008 3021 2797 
Q 3149 3034 3386 3226 
Q 3757 3501 4205 3501 
Q 4749 3501 5050 3174 
Q 5389 2803 5389 2195 
z
" transform="scale(0.015625)"/>
      <path id="AppleGothic-6e" d="M 3264 2291 
L 3264 0 
L 2803 0 
L 2803 2259 
Q 2803 2618 2541 2848 
Q 2278 3085 1914 3085 
Q 1427 3085 1075 2682 
Q 723 2272 723 1760 
L 723 0 
L 288 0 
L 288 3424 
L 691 3424 
L 710 2784 
Q 883 3046 1114 3219 
Q 1491 3501 1965 3501 
Q 2515 3501 2886 3168 
Q 3264 2842 3264 2291 
z
" transform="scale(0.015625)"/>
      <path id="AppleGothic-bcc4" d="M 3027 2739 
L 3027 3680 
L 2150 3693 
L 1293 3680 
L 1293 2739 
L 2144 2720 
L 3027 2739 
z
M 5440 -531 
Q 5178 -525 4906 -518 
Q 4634 -512 4339 -506 
Q 4038 -499 3801 -496 
Q 3565 -493 3379 -493 
L 1446 -493 
Q 1453 -422 1456 -336 
Q 1459 -250 1466 -141 
Q 1466 -45 1469 19 
Q 1472 83 1472 115 
L 1459 762 
L 3354 749 
L 4845 774 
L 4845 1382 
L 1446 1370 
L 1446 1734 
Q 1658 1734 1888 1728 
Q 2118 1722 2374 1715 
Q 2630 1709 2864 1705 
Q 3098 1702 3322 1702 
L 5299 1715 
L 5280 1094 
L 5293 410 
L 3373 429 
L 1901 416 
L 1901 -128 
Q 1978 -134 2134 -134 
Q 2291 -134 2522 -134 
Q 2752 -141 2969 -144 
Q 3187 -147 3392 -147 
Q 3846 -147 4380 -137 
Q 4915 -128 5440 -109 
L 5440 -531 
z
M 5440 5062 
Q 5440 5024 5414 4937 
Q 5389 4851 5389 4813 
Q 5382 4589 5372 4224 
Q 5363 3859 5363 3334 
Q 5363 3008 5363 2784 
Q 5363 2560 5370 2445 
Q 5376 2323 5376 2220 
Q 5376 2118 5382 2029 
L 4922 2029 
Q 4941 2189 4941 2394 
L 4941 2822 
L 3878 2803 
L 3878 3174 
L 4941 3162 
L 4941 3917 
L 3859 3904 
L 3859 4269 
L 4941 4256 
L 4941 4685 
Q 4941 4909 4934 5021 
Q 4928 5133 4915 5190 
L 5056 5190 
Q 5222 5190 5331 5164 
Q 5440 5139 5440 5062 
z
M 3488 4877 
L 3469 4710 
L 3456 3462 
L 3469 2362 
L 851 2362 
Q 851 2630 857 2944 
Q 864 3258 870 3578 
Q 870 3853 870 4061 
Q 870 4269 864 4416 
Q 858 4570 858 4704 
Q 858 4838 851 4966 
L 979 4966 
Q 1146 4966 1242 4950 
Q 1338 4934 1338 4864 
Q 1338 4838 1315 4761 
Q 1293 4685 1293 4653 
L 1293 4051 
L 2157 4032 
L 3027 4051 
L 3014 4998 
L 3072 4998 
Q 3264 4998 3376 4976 
Q 3488 4954 3488 4877 
z
" transform="scale(0.015625)"/>
      <path id="AppleGothic-c9c0" d="M 5453 5082 
Q 5453 5069 5427 4982 
Q 5402 4896 5402 4826 
L 5402 2355 
Q 5402 2067 5405 1728 
Q 5408 1389 5414 986 
Q 5421 589 5427 201 
Q 5434 -186 5446 -570 
L 4941 -595 
L 4954 2253 
Q 4954 3808 4934 4346 
Q 4934 4614 4928 4822 
Q 4922 5030 4915 5184 
L 5082 5190 
Q 5235 5190 5344 5168 
Q 5453 5146 5453 5082 
z
M 4211 1190 
Q 4211 1146 4102 1075 
Q 4070 1056 4025 1021 
Q 3981 986 3923 934 
L 3878 890 
Q 3814 915 3683 1008 
Q 3552 1101 3347 1267 
Q 3194 1402 3066 1533 
Q 2938 1664 2835 1792 
Q 2752 1901 2669 2035 
Q 2586 2170 2509 2336 
Q 2483 2387 2451 2457 
Q 2419 2528 2381 2618 
Q 2099 2054 1715 1632 
Q 1331 1210 794 858 
Q 768 883 745 896 
Q 723 909 710 922 
Q 608 986 570 1005 
Q 467 1043 428 1072 
Q 390 1101 390 1120 
L 486 1197 
Q 608 1267 694 1324 
Q 781 1382 851 1434 
Q 1056 1581 1209 1721 
Q 1363 1862 1478 2010 
Q 1658 2227 1789 2441 
Q 1920 2656 2010 2867 
Q 2240 3373 2240 3859 
Q 2240 3891 2240 3926 
Q 2240 3962 2234 3994 
Q 2234 4019 2227 4038 
L 1466 4051 
L 723 4032 
L 723 4467 
L 2317 4454 
L 3910 4474 
L 4064 4467 
L 4064 4032 
L 3942 4026 
Q 3789 4026 3641 4032 
Q 3494 4038 3354 4045 
L 2707 4032 
Q 2694 3949 2688 3891 
Q 2682 3834 2675 3789 
Q 2662 3648 2652 3552 
Q 2643 3456 2643 3386 
Q 2643 3085 2803 2729 
Q 2963 2374 3232 2029 
Q 3354 1882 3488 1750 
Q 3622 1619 3770 1510 
Q 3821 1478 3878 1440 
Q 3936 1402 4013 1357 
Q 4026 1350 4054 1328 
Q 4083 1306 4134 1274 
Q 4211 1222 4211 1190 
z
" transform="scale(0.015625)"/>
      <path id="AppleGothic-bd88" d="M 4563 3507 
L 4563 4166 
L 3123 4179 
L 1747 4166 
L 1747 3507 
L 3098 3494 
L 4563 3507 
z
M 5990 2253 
L 4538 2266 
L 3354 2266 
L 3354 1632 
L 5030 1683 
Q 5024 1562 5021 1402 
Q 5018 1242 5018 1133 
L 5037 506 
L 2906 493 
Q 2662 493 2492 493 
Q 2323 493 2214 486 
Q 2106 486 2000 483 
Q 1894 480 1786 474 
L 1786 -77 
Q 1888 -83 2032 -83 
Q 2176 -83 2368 -90 
Q 2560 -96 2723 -96 
Q 2886 -96 3014 -96 
L 3309 -96 
Q 3744 -96 4144 -86 
Q 4544 -77 4909 -64 
Q 5043 -64 5216 -45 
L 5216 -416 
L 3360 -403 
L 2208 -403 
Q 1984 -410 1769 -413 
Q 1555 -416 1331 -422 
L 1350 192 
L 1338 800 
L 3098 794 
L 4582 813 
L 4582 1357 
Q 4282 1344 3917 1337 
Q 3552 1331 3136 1331 
Q 2650 1331 2157 1318 
Q 1664 1306 1254 1293 
L 1254 1645 
L 2093 1632 
L 2931 1638 
L 2931 2266 
L 2042 2266 
L 410 2240 
L 410 2611 
Q 589 2605 733 2605 
Q 877 2605 992 2605 
Q 1798 2592 2339 2585 
Q 2880 2579 3155 2579 
Q 3584 2579 3965 2579 
Q 4346 2579 4691 2585 
Q 5037 2592 5357 2595 
Q 5677 2598 5990 2611 
L 5990 2253 
z
M 5062 5037 
Q 5062 5011 5046 4950 
Q 5030 4890 5030 4877 
Q 5024 4794 5024 4688 
Q 5024 4582 5018 4442 
Q 5011 4307 5011 4220 
Q 5011 4134 5011 4096 
L 5018 3162 
L 3078 3174 
L 1306 3162 
Q 1312 3264 1318 3520 
Q 1325 3776 1325 4077 
Q 1325 4301 1321 4470 
Q 1318 4640 1312 4765 
Q 1306 4890 1299 4982 
Q 1293 5075 1286 5152 
L 1414 5152 
Q 1568 5152 1677 5129 
Q 1786 5107 1786 5037 
Q 1786 4998 1766 4931 
Q 1747 4864 1747 4851 
L 1747 4499 
L 3091 4486 
L 4563 4499 
L 4550 5152 
L 4678 5152 
Q 4883 5152 4972 5123 
Q 5062 5094 5062 5037 
z
" transform="scale(0.015625)"/>
      <path id="AppleGothic-d55c" d="M 3187 2413 
Q 3187 2701 2976 2874 
Q 2733 3072 2278 3072 
Q 1811 3072 1571 2899 
Q 1331 2726 1331 2464 
Q 1331 2163 1584 2009 
Q 1837 1856 2285 1856 
Q 2752 1856 2995 2048 
Q 3187 2208 3187 2413 
z
M 5466 -435 
L 3315 -403 
L 1293 -416 
L 1299 224 
L 1274 1120 
L 1350 1120 
Q 1542 1120 1670 1101 
Q 1798 1082 1798 1011 
Q 1798 992 1779 918 
Q 1760 845 1760 787 
L 1760 -26 
Q 1888 -26 2070 -26 
Q 2253 -26 2496 -32 
Q 2733 -38 2960 -38 
Q 3187 -38 3411 -45 
Q 4019 -45 4537 -38 
Q 5056 -32 5466 -19 
L 5466 -435 
z
M 3629 2458 
Q 3629 2042 3289 1789 
Q 2950 1536 2291 1536 
Q 1594 1536 1251 1801 
Q 909 2067 909 2496 
Q 909 2970 1331 3200 
Q 1504 3302 1734 3347 
Q 1965 3392 2253 3392 
Q 2893 3392 3261 3136 
Q 3629 2880 3629 2458 
z
M 6003 2483 
L 5126 2483 
L 5114 1203 
Q 5114 1094 5114 1001 
Q 5114 909 5133 794 
L 4666 768 
L 4672 5158 
Q 4838 5158 5005 5139 
Q 5184 5120 5184 5056 
Q 5184 5037 5158 4963 
Q 5133 4890 5133 4826 
L 5114 4122 
L 5120 2899 
L 6003 2886 
L 6003 2483 
z
M 4147 3744 
Q 3930 3757 3757 3760 
Q 3584 3763 3456 3770 
Q 3059 3782 2748 3788 
Q 2438 3795 2208 3795 
Q 1779 3795 1318 3788 
Q 858 3782 474 3770 
L 474 4141 
Q 659 4134 883 4131 
Q 1107 4128 1376 4115 
Q 1645 4109 1843 4105 
Q 2042 4102 2182 4102 
Q 2803 4102 3289 4108 
Q 3776 4115 4147 4128 
L 4147 3744 
z
M 3034 4544 
Q 2874 4557 2685 4563 
Q 2496 4570 2310 4570 
L 1504 4550 
L 1504 4922 
L 2317 4909 
L 3034 4922 
L 3034 4544 
z
" transform="scale(0.015625)"/>
      <path id="AppleGothic-54" d="M 166 5018 
L 4038 5018 
L 4038 4576 
L 2355 4576 
L 2355 0 
L 1856 0 
L 1856 4576 
L 166 4576 
L 166 5018 
z
" transform="scale(0.015625)"/>
      <path id="AppleGothic-70" d="M 736 307 
L 736 -1101 
L 288 -1101 
L 288 3424 
L 704 3424 
L 730 2803 
Q 941 3149 1216 3325 
Q 1491 3501 1882 3501 
Q 2522 3501 2944 3002 
Q 3162 2752 3270 2441 
Q 3379 2131 3379 1747 
Q 3379 954 2899 435 
Q 2419 -83 1754 -83 
Q 1421 -83 1139 58 
Q 1056 90 960 154 
Q 864 218 736 307 
z
M 736 1824 
L 736 800 
Q 838 704 924 637 
Q 1011 570 1082 525 
Q 1395 339 1715 339 
Q 2227 339 2554 742 
Q 2886 1165 2886 1766 
Q 2886 2330 2579 2707 
Q 2278 3085 1811 3085 
Q 1331 3085 1018 2669 
Q 736 2291 736 1824 
z
" transform="scale(0.015625)"/>
      <path id="AppleGothic-c758" d="M 3571 3379 
Q 3571 4218 2573 4218 
Q 2061 4218 1776 3987 
Q 1491 3757 1491 3386 
Q 1491 2970 1786 2733 
Q 2054 2522 2509 2522 
Q 3059 2522 3328 2765 
Q 3571 2976 3571 3379 
z
M 4608 1094 
Q 4134 1018 3872 979 
Q 3456 928 3120 899 
Q 2784 870 2528 870 
L 902 813 
Q 858 800 816 790 
Q 774 781 730 768 
Q 653 768 608 941 
Q 563 1114 563 1242 
L 2477 1248 
Q 2938 1248 3334 1273 
Q 3731 1299 4070 1350 
Q 4282 1376 4576 1459 
L 4608 1094 
z
M 5466 5069 
Q 5466 5037 5437 4944 
Q 5408 4851 5408 4813 
L 5408 2298 
Q 5408 2010 5411 1683 
Q 5414 1357 5421 973 
Q 5427 595 5433 230 
Q 5440 -134 5453 -499 
L 4973 -557 
L 4973 45 
Q 4979 237 4979 512 
Q 4979 787 4986 1158 
Q 4992 1523 4992 1788 
Q 4992 2054 4992 2221 
Q 4992 2880 4985 3357 
Q 4979 3834 4966 4122 
Q 4954 4410 4944 4675 
Q 4934 4941 4922 5184 
L 5024 5184 
Q 5190 5184 5328 5158 
Q 5466 5133 5466 5069 
z
M 4006 3328 
Q 4006 2790 3578 2464 
Q 3155 2138 2528 2138 
Q 1894 2138 1504 2445 
Q 1088 2765 1088 3341 
Q 1088 3955 1517 4288 
Q 1920 4602 2541 4602 
Q 3174 4602 3597 4269 
Q 4006 3936 4006 3354 
L 4006 3328 
z
" transform="scale(0.015625)"/>
      <path id="AppleGothic-cc28" d="M 4083 1082 
Q 4032 1037 3990 1005 
Q 3949 973 3923 947 
Q 3834 877 3786 835 
Q 3738 794 3731 787 
Q 3654 832 3584 877 
Q 3398 998 3219 1158 
Q 3040 1318 2867 1523 
Q 2598 1837 2419 2189 
Q 2387 2246 2358 2313 
Q 2330 2381 2298 2464 
Q 2234 2278 2163 2144 
Q 2054 1952 1926 1766 
Q 1798 1581 1638 1408 
Q 1510 1261 1356 1120 
Q 1203 979 1024 832 
Q 966 781 892 726 
Q 819 672 723 602 
Q 717 608 669 640 
Q 621 672 518 730 
Q 326 851 326 877 
L 339 902 
Q 1062 1248 1587 2003 
Q 2138 2771 2138 3558 
L 1299 3578 
Q 1107 3578 985 3578 
Q 864 3578 800 3571 
Q 736 3571 688 3568 
Q 640 3565 589 3558 
L 589 3949 
L 2291 3949 
Q 2906 3949 3318 3961 
Q 3731 3974 4032 3987 
L 4032 3597 
L 3373 3597 
Q 3117 3597 2790 3578 
Q 2758 3578 2716 3574 
Q 2675 3571 2624 3565 
Q 2624 3514 2617 3440 
Q 2611 3366 2598 3264 
Q 2586 3155 2579 3091 
Q 2573 3027 2573 2995 
Q 2605 2886 2630 2803 
Q 2656 2720 2682 2650 
Q 2765 2445 2864 2272 
Q 2963 2099 3091 1952 
Q 3258 1766 3424 1603 
Q 3590 1440 3770 1312 
Q 3827 1267 3897 1225 
Q 3968 1184 4058 1133 
Q 4077 1114 4083 1082 
z
M 6022 2138 
Q 5933 2150 5808 2156 
Q 5683 2163 5523 2163 
Q 5382 2163 5203 2144 
Q 5190 2144 5168 2141 
Q 5146 2138 5114 2131 
L 5101 115 
L 5114 -506 
L 4640 -544 
L 4666 2579 
L 4659 5190 
L 4806 5190 
Q 4973 5190 5075 5174 
Q 5178 5158 5178 5101 
Q 5178 5082 5152 5008 
Q 5126 4934 5126 4883 
Q 5120 4794 5113 4554 
Q 5107 4314 5107 4006 
L 5107 2541 
L 5549 2534 
L 6022 2547 
L 6022 2138 
z
M 3091 4576 
L 2272 4589 
L 1581 4570 
L 1581 4960 
L 2234 4947 
L 3091 4966 
L 3091 4576 
z
" transform="scale(0.015625)"/>
      <path id="AppleGothic-c774" d="M 3226 2534 
Q 3226 3309 2899 3725 
Q 2611 4090 2157 4090 
Q 1683 4090 1414 3690 
Q 1146 3290 1146 2534 
Q 1146 1811 1440 1382 
Q 1741 954 2240 954 
Q 2758 954 3021 1446 
Q 3226 1856 3226 2534 
z
M 5446 5082 
Q 5446 5062 5427 4982 
Q 5408 4902 5408 4832 
L 5434 -538 
L 4941 -589 
L 4960 2259 
Q 4960 3552 4941 4070 
Q 4934 4326 4931 4604 
Q 4928 4883 4915 5190 
L 5094 5197 
Q 5242 5197 5344 5174 
Q 5446 5152 5446 5082 
z
M 3686 2547 
Q 3686 2125 3612 1785 
Q 3539 1446 3379 1203 
Q 2995 582 2176 582 
Q 1408 582 1018 1203 
Q 678 1734 678 2560 
Q 678 3379 1050 3898 
Q 1453 4461 2170 4461 
Q 2912 4461 3309 3910 
Q 3686 3411 3686 2547 
z
" transform="scale(0.015625)"/>
     </defs>
     <use xlink:href="#AppleGothic-acb0"/>
     <use xlink:href="#AppleGothic-c81c" transform="translate(99.999985 0)"/>
     <use xlink:href="#AppleGothic-20" transform="translate(199.999969 0)"/>
     <use xlink:href="#AppleGothic-c218" transform="translate(231.999954 0)"/>
     <use xlink:href="#AppleGothic-b2e8" transform="translate(331.999939 0)"/>
     <use xlink:href="#AppleGothic-28" transform="translate(431.999924 0)"/>
     <use xlink:href="#AppleGothic-50" transform="translate(481.999908 0)"/>
     <use xlink:href="#AppleGothic-61" transform="translate(542.299896 0)"/>
     <use xlink:href="#AppleGothic-79" transform="translate(598.799881 0)"/>
     <use xlink:href="#AppleGothic-6d" transform="translate(654.499878 0)"/>
     <use xlink:href="#AppleGothic-65" transform="translate(743.799866 0)"/>
     <use xlink:href="#AppleGothic-6e" transform="translate(798.69986 0)"/>
     <use xlink:href="#AppleGothic-74" transform="translate(854.599854 0)"/>
     <use xlink:href="#AppleGothic-29" transform="translate(888.79985 0)"/>
     <use xlink:href="#AppleGothic-bcc4" transform="translate(938.799835 0)"/>
     <use xlink:href="#AppleGothic-20" transform="translate(1038.79982 0)"/>
     <use xlink:href="#AppleGothic-c9c0" transform="translate(1070.799805 0)"/>
     <use xlink:href="#AppleGothic-bd88" transform="translate(1170.799789 0)"/>
     <use xlink:href="#AppleGothic-d55c" transform="translate(1270.799774 0)"/>
     <use xlink:href="#AppleGothic-20" transform="translate(1370.799759 0)"/>
     <use xlink:href="#AppleGothic-d301" transform="translate(1402.799744 0)"/>
     <use xlink:href="#AppleGothic-28" transform="translate(1502.799728 0)"/>
     <use xlink:href="#AppleGothic-54" transform="translate(1552.799713 0)"/>
     <use xlink:href="#AppleGothic-69" transform="translate(1618.899704 0)"/>
     <use xlink:href="#AppleGothic-70" transform="translate(1634.799698 0)"/>
     <use xlink:href="#AppleGothic-29" transform="translate(1690.199692 0)"/>
     <use xlink:href="#AppleGothic-c758" transform="translate(1740.199677 0)"/>
     <use xlink:href="#AppleGothic-20" transform="translate(1840.199661 0)"/>
     <use xlink:href="#AppleGothic-cc28" transform="translate(1872.199646 0)"/>
     <use xlink:href="#AppleGothic-c774" transform="translate(1972.199631 0)"/>
    </g>
   </g>
  </g>
 </g>
 <defs>
  <clipPath id="p6dcc72904d">
   <rect x="47.444375" y="23.064375" width="446.4" height="332.64"/>
  </clipPath>
 </defs>
</svg>
