<?xml version="1.0" encoding="utf-8" standalone="no"?>
<!DOCTYPE svg PUBLIC "-//W3C//DTD SVG 1.1//EN"
  "http://www.w3.org/Graphics/SVG/1.1/DTD/svg11.dtd">
<svg xmlns:xlink="http://www.w3.org/1999/xlink" width="612.333125pt" height="401.075156pt" viewBox="0 0 612.333125 401.075156" xmlns="http://www.w3.org/2000/svg" version="1.1">
 <metadata>
  <rdf:RDF xmlns:dc="http://purl.org/dc/elements/1.1/" xmlns:cc="http://creativecommons.org/ns#" xmlns:rdf="http://www.w3.org/1999/02/22-rdf-syntax-ns#">
   <cc:Work>
    <dc:type rdf:resource="http://purl.org/dc/dcmitype/StillImage"/>
    <dc:date>2026-05-22T02:33:56.901692</dc:date>
    <dc:format>image/svg+xml</dc:format>
    <dc:creator>
     <cc:Agent>
      <dc:title>Matplotlib v3.10.9, https://matplotlib.org/</dc:title>
     </cc:Agent>
    </dc:creator>
   </cc:Work>
  </rdf:RDF>
 </metadata>
 <defs>
  <style type="text/css">*{stroke-linejoin: round; stroke-linecap: butt}</style>
 </defs>
 <g id="figure_1">
  <g id="patch_1">
   <path d="M 0 401.075156 
L 612.333125 401.075156 
L 612.333125 0 
L 0 0 
z
" style="fill: #ffffff"/>
  </g>
  <g id="axes_1">
   <g id="patch_2">
    <path d="M 47.133125 358.385 
L 605.133125 358.385 
L 605.133125 25.745 
L 47.133125 25.745 
z
" style="fill: #ffffff"/>
   </g>
   <g id="matplotlib.axis_1">
    <g id="xtick_1">
     <g id="line2d_1">
      <defs>
       <path id="m38b65f9049" d="M 0 0 
L 0 6 
" style="stroke: #262626; stroke-width: 1.25"/>
      </defs>
      <g>
       <use xlink:href="#m38b65f9049" x="140.133125" y="358.385" style="fill: #262626; stroke: #262626; stroke-width: 1.25"/>
      </g>
     </g>
     <g id="text_1">
      <!-- 2017 -->
      <g style="fill: #262626" transform="translate(125.173125 376.509687) scale(0.11 -0.11)">
       <defs>
        <path id="AppleGothic-32" d="M 1101 429 
L 3942 429 
L 3942 0 
L 653 0 
L 653 205 
Q 653 1018 1344 1664 
Q 1670 1894 1990 2124 
Q 2310 2355 2637 2592 
Q 3334 3098 3334 3597 
Q 3334 3994 3014 4218 
Q 2867 4326 2694 4377 
Q 2522 4429 2317 4429 
Q 2016 4429 1741 4352 
Q 1325 4224 883 3910 
L 883 4435 
Q 1325 4659 1667 4758 
Q 2010 4858 2317 4858 
Q 2963 4858 3405 4525 
Q 3840 4198 3840 3622 
Q 3840 2995 3168 2438 
Q 2848 2214 2531 2000 
Q 2214 1786 1894 1562 
Q 1178 1024 1101 429 
z
" transform="scale(0.015625)"/>
        <path id="AppleGothic-30" d="M 2227 -83 
Q 1414 -83 934 576 
Q 461 1229 461 2387 
Q 461 3552 973 4218 
Q 1453 4858 2221 4858 
Q 3027 4858 3482 4173 
Q 3955 3494 3955 2394 
Q 3955 1248 3462 582 
Q 2976 -83 2227 -83 
z
M 2176 346 
Q 2861 346 3200 992 
Q 3462 1536 3462 2400 
Q 3462 3315 3162 3859 
Q 2822 4429 2214 4429 
Q 1574 4429 1248 3821 
Q 960 3283 960 2374 
Q 960 1478 1248 941 
Q 1574 346 2176 346 
z
" transform="scale(0.015625)"/>
        <path id="AppleGothic-31" d="M 2342 4774 
L 2752 4774 
L 2752 0 
L 2285 0 
L 2285 3526 
L 1158 3526 
L 1158 3885 
L 1414 3885 
Q 1990 3885 2214 4205 
Q 2342 4410 2342 4774 
z
" transform="scale(0.015625)"/>
        <path id="AppleGothic-37" d="M 595 4774 
L 3802 4774 
L 3802 4410 
L 1734 0 
L 1235 0 
L 3277 4352 
L 595 4352 
L 595 4774 
z
" transform="scale(0.015625)"/>
       </defs>
       <use xlink:href="#AppleGothic-32"/>
       <use xlink:href="#AppleGothic-30" transform="translate(67.999985 0)"/>
       <use xlink:href="#AppleGothic-31" transform="translate(135.999969 0)"/>
       <use xlink:href="#AppleGothic-37" transform="translate(203.999954 0)"/>
      </g>
     </g>
    </g>
    <g id="xtick_2">
     <g id="line2d_2">
      <g>
       <use xlink:href="#m38b65f9049" x="326.133125" y="358.385" style="fill: #262626; stroke: #262626; stroke-width: 1.25"/>
      </g>
     </g>
     <g id="text_2">
      <!-- 2018 -->
      <g style="fill: #262626" transform="translate(311.173125 376.509687) scale(0.11 -0.11)">
       <defs>
        <path id="AppleGothic-38" d="M 2957 2605 
Q 3219 2528 3404 2445 
Q 3590 2362 3706 2272 
Q 4192 1926 4192 1370 
Q 4192 749 3642 333 
Q 3098 -83 2285 -83 
Q 1434 -83 947 326 
Q 512 691 512 1229 
Q 512 1798 998 2125 
Q 1146 2227 1341 2304 
Q 1536 2381 1779 2451 
Q 1574 2534 1430 2617 
Q 1286 2701 1197 2784 
Q 819 3104 819 3603 
Q 819 4173 1261 4512 
Q 1702 4858 2381 4858 
Q 3014 4858 3437 4570 
Q 3898 4262 3898 3738 
Q 3898 3373 3670 3081 
Q 3443 2790 2957 2605 
z
M 2406 2752 
Q 2624 2835 2781 2915 
Q 2938 2995 3040 3066 
Q 3398 3322 3398 3667 
Q 3398 3994 3104 4205 
Q 2822 4429 2362 4429 
Q 1894 4429 1613 4205 
Q 1325 3994 1325 3635 
Q 1325 3322 1581 3098 
Q 1696 3002 1901 2912 
Q 2106 2822 2406 2752 
z
M 2368 2304 
Q 2061 2202 1840 2106 
Q 1619 2010 1472 1920 
Q 1011 1626 1011 1235 
Q 1011 845 1376 595 
Q 1728 346 2310 346 
Q 2938 346 3315 640 
Q 3693 934 3693 1338 
Q 3693 1741 3238 1997 
Q 3104 2067 2886 2147 
Q 2669 2227 2368 2304 
z
" transform="scale(0.015625)"/>
       </defs>
       <use xlink:href="#AppleGothic-32"/>
       <use xlink:href="#AppleGothic-30" transform="translate(67.999985 0)"/>
       <use xlink:href="#AppleGothic-31" transform="translate(135.999969 0)"/>
       <use xlink:href="#AppleGothic-38" transform="translate(203.999954 0)"/>
      </g>
     </g>
    </g>
    <g id="xtick_3">
     <g id="line2d_3">
      <g>
       <use xlink:href="#m38b65f9049" x="512.133125" y="358.385" style="fill: #262626; stroke: #262626; stroke-width: 1.25"/>
      </g>
     </g>
     <g id="text_3">
      <!-- 2019 -->
      <g style="fill: #262626" transform="translate(497.173125 376.509687) scale(0.11 -0.11)">
       <defs>
        <path id="AppleGothic-39" d="M 928 211 
L 928 762 
Q 1050 672 1155 601 
Q 1261 531 1363 480 
Q 1702 320 2016 320 
Q 2291 320 2541 435 
Q 2739 525 2908 675 
Q 3078 826 3213 1037 
Q 3456 1408 3552 1843 
Q 3616 2144 3616 2573 
Q 3315 2272 3066 2125 
Q 2605 1850 2093 1850 
Q 1459 1850 1037 2214 
Q 589 2598 589 3270 
Q 589 3987 1082 4416 
Q 1549 4832 2234 4832 
Q 2970 4832 3494 4301 
Q 4122 3661 4122 2528 
Q 4122 1325 3475 582 
Q 2874 -109 2035 -109 
Q 1722 -109 1357 19 
Q 1254 51 1148 102 
Q 1043 154 928 211 
z
M 3578 3066 
Q 3462 3718 3053 4077 
Q 2675 4403 2227 4403 
Q 1715 4403 1402 4083 
Q 1082 3750 1082 3302 
Q 1082 2861 1370 2566 
Q 1658 2278 2125 2278 
Q 2573 2278 2915 2473 
Q 3258 2669 3578 3066 
z
" transform="scale(0.015625)"/>
       </defs>
       <use xlink:href="#AppleGothic-32"/>
       <use xlink:href="#AppleGothic-30" transform="translate(67.999985 0)"/>
       <use xlink:href="#AppleGothic-31" transform="translate(135.999969 0)"/>
       <use xlink:href="#AppleGothic-39" transform="translate(203.999954 0)"/>
      </g>
     </g>
    </g>
    <g id="text_4">
     <!-- 발표 연도 (Year) -->
     <g style="fill: #262626" transform="translate(279.326563 391.810781) scale(0.12 -0.12)">
      <defs>
       <path id="AppleGothic-bc1c" d="M 2867 2784 
L 2867 3667 
L 1120 3667 
L 1120 2784 
L 2029 2771 
L 2867 2784 
z
M 5267 -352 
L 2938 -339 
L 2003 -339 
Q 1658 -352 1331 -358 
L 1344 256 
L 1331 915 
L 4646 902 
L 4646 1459 
L 3130 1459 
Q 2682 1459 2198 1446 
Q 1715 1434 1312 1421 
L 1312 1805 
Q 1427 1805 1667 1801 
Q 1907 1798 2291 1792 
Q 2675 1786 2883 1786 
Q 3091 1786 3130 1786 
L 5114 1805 
L 5107 1261 
L 5120 570 
L 1773 570 
L 1773 0 
L 3200 6 
Q 3718 6 4265 19 
Q 4813 32 5267 45 
L 5267 -352 
z
M 3360 4710 
Q 3360 4678 3341 4592 
Q 3322 4506 3322 4467 
L 3309 3507 
L 3322 2387 
L 672 2387 
Q 678 2490 678 2637 
Q 678 2784 685 2976 
Q 691 3174 691 3328 
Q 691 3482 691 3590 
Q 691 4051 681 4339 
Q 672 4627 659 4819 
L 858 4826 
Q 986 4826 1082 4803 
Q 1178 4781 1178 4723 
Q 1178 4678 1149 4595 
Q 1120 4512 1120 4480 
L 1120 4026 
L 1862 4019 
L 2874 4032 
L 2874 4339 
L 2848 4819 
L 3059 4826 
Q 3194 4826 3277 4803 
Q 3360 4781 3360 4710 
z
M 6022 3110 
L 5126 3117 
L 5158 2125 
L 4666 2106 
L 4691 3878 
Q 4691 4198 4688 4422 
Q 4685 4646 4678 4794 
Q 4672 4941 4669 5056 
Q 4666 5171 4659 5254 
L 4781 5254 
Q 4947 5254 5065 5228 
Q 5184 5203 5184 5133 
Q 5184 5094 5155 5008 
Q 5126 4922 5126 4890 
L 5126 3494 
L 6022 3520 
L 6022 3110 
z
" transform="scale(0.015625)"/>
       <path id="AppleGothic-d45c" d="M 6029 6 
Q 5984 6 5849 9 
Q 5715 13 5491 19 
Q 5267 26 5027 32 
Q 4787 38 4505 41 
Q 4224 45 3897 48 
Q 3571 51 3181 51 
Q 2886 51 2540 44 
Q 2195 38 1792 26 
Q 1389 13 1142 9 
Q 896 6 787 0 
Q 685 -6 579 -12 
Q 474 -19 365 -26 
L 365 442 
L 1338 422 
L 2189 422 
L 2080 1050 
L 1914 1830 
L 2336 1843 
Q 2451 1843 2451 1754 
L 2445 1542 
L 2630 422 
L 3130 410 
L 3699 422 
Q 3718 518 3750 652 
Q 3782 787 3827 973 
Q 3974 1600 3974 1907 
Q 4083 1907 4282 1862 
Q 4493 1824 4493 1760 
Q 4493 1741 4451 1670 
Q 4410 1600 4397 1542 
Q 4333 1261 4272 982 
Q 4211 704 4147 422 
L 6029 442 
L 6029 6 
z
M 5376 2086 
Q 5299 2093 5235 2093 
Q 5171 2093 5107 2093 
Q 4243 2112 3526 2112 
L 3219 2112 
Q 2758 2112 2409 2109 
Q 2061 2106 1805 2099 
Q 1312 2093 966 2080 
L 966 2502 
L 1645 2483 
L 2227 2483 
Q 2214 2554 2208 2605 
Q 2202 2656 2195 2701 
Q 2176 2829 2157 2931 
Q 2138 3034 2118 3104 
Q 2067 3309 2038 3437 
Q 2010 3565 1997 3616 
Q 1984 3674 1968 3731 
Q 1952 3789 1933 3853 
L 2362 3872 
Q 2483 3872 2483 3814 
L 2483 3603 
Q 2509 3558 2573 3072 
Q 2618 2829 2646 2681 
Q 2675 2534 2688 2483 
L 3168 2470 
L 3757 2483 
Q 3782 2579 3811 2713 
Q 3840 2848 3878 3014 
Q 4026 3603 4026 3917 
Q 4141 3917 4346 3878 
Q 4538 3846 4538 3782 
Q 4538 3738 4531 3725 
Q 4518 3693 4505 3664 
Q 4493 3635 4480 3603 
Q 4429 3437 4387 3270 
Q 4346 3104 4301 2938 
Q 4211 2598 4211 2496 
L 4704 2496 
L 5190 2496 
Q 5242 2502 5286 2505 
Q 5331 2509 5376 2515 
L 5376 2086 
z
M 5446 4154 
Q 4947 4166 4348 4172 
Q 3750 4179 3200 4179 
Q 2995 4179 2742 4176 
Q 2490 4173 2182 4166 
Q 1875 4160 1593 4153 
Q 1312 4147 1043 4141 
L 1043 4570 
Q 1165 4563 1267 4563 
Q 1370 4563 1459 4563 
Q 2048 4550 2480 4544 
Q 2912 4538 3200 4538 
Q 3770 4538 4250 4547 
Q 4730 4557 5120 4570 
Q 5254 4570 5446 4589 
L 5446 4154 
z
" transform="scale(0.015625)"/>
       <path id="AppleGothic-20" transform="scale(0.015625)"/>
       <path id="AppleGothic-c5f0" d="M 3200 3149 
Q 3200 3571 2912 3872 
Q 2630 4173 2170 4173 
Q 1715 4173 1434 3930 
Q 1101 3661 1101 3149 
Q 1101 2816 1331 2547 
Q 1619 2214 2170 2214 
Q 2618 2214 2899 2477 
Q 3200 2746 3200 3149 
z
M 5485 -352 
L 3629 -339 
L 1530 -346 
Q 1536 -282 1536 -186 
Q 1536 -90 1542 38 
Q 1549 173 1549 297 
Q 1549 422 1549 538 
L 1549 1274 
Q 1600 1274 1673 1264 
Q 1747 1254 1843 1242 
Q 2035 1216 2035 1165 
Q 2035 1152 2012 1081 
Q 1990 1011 1990 941 
L 1990 45 
L 3622 38 
L 4845 38 
Q 5018 45 5178 48 
Q 5338 51 5485 58 
L 5485 -352 
z
M 5408 5075 
Q 5408 5050 5382 4970 
Q 5357 4890 5357 4838 
L 5382 896 
L 4922 864 
L 4928 2163 
L 4422 2176 
L 3834 2157 
L 3834 2528 
L 4410 2515 
Q 4659 2515 4755 2518 
Q 4851 2522 4928 2534 
L 4928 3565 
L 4403 3578 
L 3840 3558 
L 3840 3942 
Q 3891 3936 3961 3936 
Q 4032 3936 4134 3930 
Q 4230 3923 4300 3923 
Q 4371 3923 4416 3923 
Q 4646 3923 4745 3926 
Q 4845 3930 4934 3942 
L 4915 5190 
Q 5133 5190 5270 5174 
Q 5408 5158 5408 5075 
z
M 3616 3142 
Q 3616 2515 3136 2144 
Q 2720 1824 2176 1824 
Q 1530 1824 1101 2195 
Q 678 2566 678 3142 
Q 678 3680 1050 4083 
Q 1472 4531 2170 4531 
Q 2797 4531 3206 4154 
Q 3616 3782 3616 3142 
z
" transform="scale(0.015625)"/>
       <path id="AppleGothic-b3c4" d="M 6061 -38 
L 3181 -6 
L 2938 -6 
Q 2560 -6 2269 -6 
Q 1978 -6 1766 -13 
Q 1562 -19 1360 -19 
Q 1158 -19 954 -26 
Q 557 -32 352 -45 
L 352 416 
L 1549 397 
L 2963 403 
L 2982 1139 
L 2970 2035 
L 3066 2035 
Q 3238 2035 3369 2012 
Q 3501 1990 3501 1920 
Q 3501 1901 3478 1821 
Q 3456 1741 3456 1709 
Q 3424 1658 3424 1030 
Q 3424 800 3443 531 
Q 3443 506 3446 474 
Q 3450 442 3456 403 
L 4608 397 
Q 4960 397 5347 400 
Q 5734 403 6061 416 
L 6061 -38 
z
M 5299 2202 
L 3744 2208 
L 1146 2195 
L 1165 3379 
L 1152 4640 
Q 1293 4634 1408 4634 
Q 1523 4634 1619 4634 
Q 2266 4621 2701 4614 
Q 3136 4608 3360 4608 
L 5248 4621 
L 5248 4205 
L 3354 4218 
L 1632 4211 
L 1613 3424 
L 1626 2598 
Q 2029 2586 2512 2579 
Q 2995 2573 3443 2573 
Q 3648 2573 3875 2573 
Q 4102 2573 4358 2579 
Q 4858 2586 5299 2598 
L 5299 2202 
z
" transform="scale(0.015625)"/>
       <path id="AppleGothic-28" d="M 2227 5261 
L 2650 5261 
Q 2342 4768 2169 4473 
Q 1997 4179 1958 4083 
Q 1606 3283 1606 2272 
Q 1606 1587 1754 1018 
Q 1882 570 2138 102 
Q 2150 70 2275 -131 
Q 2400 -333 2630 -717 
L 2227 -717 
Q 2099 -531 1980 -355 
Q 1862 -179 1734 0 
Q 1581 243 1469 483 
Q 1357 723 1274 954 
Q 1069 1587 1069 2272 
Q 1069 2963 1261 3558 
Q 1338 3789 1450 4022 
Q 1562 4256 1715 4499 
Q 1843 4691 1971 4880 
Q 2099 5069 2227 5261 
z
" transform="scale(0.015625)"/>
       <path id="AppleGothic-59" d="M 115 5018 
L 717 5018 
L 2253 2707 
L 3763 5018 
L 4390 5018 
L 2496 2266 
L 2496 0 
L 1997 0 
L 1997 2266 
L 115 5018 
z
" transform="scale(0.015625)"/>
       <path id="AppleGothic-65" d="M 3296 1850 
L 691 1850 
Q 691 1114 1033 726 
Q 1376 339 1933 339 
Q 2355 339 2746 608 
Q 2854 678 2976 784 
Q 3098 890 3238 1030 
L 3238 474 
Q 3085 358 2953 272 
Q 2822 186 2707 128 
Q 2304 -83 1901 -83 
Q 1203 -83 717 397 
Q 192 902 192 1709 
Q 192 2470 666 2982 
Q 1146 3501 1850 3501 
Q 2534 3501 2938 3002 
Q 3296 2547 3296 1850 
z
M 755 2240 
L 2758 2240 
Q 2682 2675 2429 2889 
Q 2176 3104 1818 3104 
Q 1421 3104 1146 2854 
Q 890 2624 755 2240 
z
" transform="scale(0.015625)"/>
       <path id="AppleGothic-61" d="M 2950 2214 
L 2950 602 
Q 2950 493 2998 413 
Q 3046 333 3174 333 
Q 3213 333 3238 336 
Q 3264 339 3290 346 
Q 3328 358 3357 371 
Q 3386 384 3405 390 
L 3405 32 
Q 3290 -6 3174 -22 
Q 3059 -38 2995 -38 
Q 2669 -38 2566 134 
Q 2483 243 2483 602 
Q 2400 461 2317 355 
Q 2234 250 2150 179 
Q 1818 -83 1376 -83 
Q 909 -83 563 192 
Q 205 486 205 941 
Q 205 1510 781 1779 
Q 992 1882 1341 1958 
Q 1690 2035 2176 2099 
L 2483 2131 
Q 2483 2579 2256 2832 
Q 2029 3085 1587 3085 
Q 1421 3085 1257 3043 
Q 1094 3002 928 2912 
Q 838 2861 729 2790 
Q 621 2720 493 2611 
L 493 3136 
Q 1037 3501 1664 3501 
Q 2304 3501 2650 3098 
Q 2950 2746 2950 2214 
z
M 2483 1542 
L 2483 1747 
L 2266 1722 
Q 1466 1638 1139 1498 
Q 704 1325 704 934 
Q 704 819 755 713 
Q 806 608 896 525 
Q 986 442 1117 390 
Q 1248 339 1408 339 
Q 1843 339 2170 691 
Q 2483 1050 2483 1542 
z
" transform="scale(0.015625)"/>
       <path id="AppleGothic-72" d="M 2125 3424 
L 2125 2963 
Q 2054 2989 2009 3005 
Q 1965 3021 1933 3027 
Q 1901 3034 1865 3037 
Q 1830 3040 1773 3040 
Q 1306 3040 1005 2586 
Q 749 2170 749 1658 
L 749 0 
L 288 0 
L 288 3424 
L 710 3424 
L 742 2835 
Q 902 3104 1043 3219 
Q 1331 3456 1734 3456 
Q 1843 3456 1936 3449 
Q 2029 3443 2125 3424 
z
" transform="scale(0.015625)"/>
       <path id="AppleGothic-29" d="M 2221 2272 
Q 2221 1587 2016 960 
Q 1862 499 1555 6 
Q 1427 -179 1305 -355 
Q 1184 -531 1062 -717 
L 659 -717 
Q 781 -512 902 -310 
Q 1024 -109 1152 96 
Q 1280 333 1376 557 
Q 1472 781 1530 1005 
Q 1683 1562 1683 2272 
Q 1683 2650 1641 2973 
Q 1600 3296 1517 3584 
Q 1459 3802 1356 4029 
Q 1254 4256 1120 4499 
Q 992 4691 873 4880 
Q 755 5069 640 5261 
L 1062 5261 
Q 1190 5069 1315 4880 
Q 1440 4691 1568 4506 
Q 1722 4256 1837 4022 
Q 1952 3789 2022 3565 
Q 2221 2976 2221 2272 
z
" transform="scale(0.015625)"/>
      </defs>
      <use xlink:href="#AppleGothic-bc1c"/>
      <use xlink:href="#AppleGothic-d45c" transform="translate(99.999985 0)"/>
      <use xlink:href="#AppleGothic-20" transform="translate(199.999969 0)"/>
      <use xlink:href="#AppleGothic-c5f0" transform="translate(231.999954 0)"/>
      <use xlink:href="#AppleGothic-b3c4" transform="translate(331.999939 0)"/>
      <use xlink:href="#AppleGothic-20" transform="translate(431.999924 0)"/>
      <use xlink:href="#AppleGothic-28" transform="translate(463.999908 0)"/>
      <use xlink:href="#AppleGothic-59" transform="translate(513.999893 0)"/>
      <use xlink:href="#AppleGothic-65" transform="translate(583.499878 0)"/>
      <use xlink:href="#AppleGothic-61" transform="translate(638.399872 0)"/>
      <use xlink:href="#AppleGothic-72" transform="translate(694.899857 0)"/>
      <use xlink:href="#AppleGothic-29" transform="translate(730.099854 0)"/>
     </g>
    </g>
   </g>
   <g id="matplotlib.axis_2">
    <g id="ytick_1">
     <g id="line2d_4">
      <path d="M 47.133125 339.53377 
L 605.133125 339.53377 
" clip-path="url(#p0ec424eb13)" style="fill: none; stroke-dasharray: 3.7,1.6; stroke-dashoffset: 0; stroke: #cccccc; stroke-opacity: 0.6"/>
     </g>
     <g id="line2d_5">
      <defs>
       <path id="m208d00b74a" d="M 0 0 
L -6 0 
" style="stroke: #262626; stroke-width: 1.25"/>
      </defs>
      <g>
       <use xlink:href="#m208d00b74a" x="47.133125" y="339.53377" style="fill: #262626; stroke: #262626; stroke-width: 1.25"/>
      </g>
     </g>
     <g id="text_5">
      <!-- 55 -->
      <g style="fill: #262626" transform="translate(22.673125 343.846114) scale(0.11 -0.11)">
       <defs>
        <path id="AppleGothic-35" d="M 621 4768 
L 3488 4768 
L 3488 4339 
L 1088 4339 
L 1088 2707 
Q 1184 2771 1293 2819 
Q 1402 2867 1510 2912 
Q 1862 3040 2259 3040 
Q 2989 3040 3424 2605 
Q 3827 2202 3827 1581 
Q 3827 870 3296 397 
Q 2765 -83 2010 -83 
Q 1651 -83 1248 45 
Q 1158 77 1001 137 
Q 845 198 621 301 
L 621 838 
Q 928 640 1203 525 
Q 1408 435 1613 390 
Q 1818 346 2010 346 
Q 2528 346 2906 666 
Q 3322 1011 3322 1536 
Q 3322 1990 3021 2291 
Q 2701 2611 2144 2611 
Q 1856 2611 1587 2528 
Q 1318 2445 1088 2272 
L 621 2272 
L 621 4768 
z
" transform="scale(0.015625)"/>
       </defs>
       <use xlink:href="#AppleGothic-35"/>
       <use xlink:href="#AppleGothic-35" transform="translate(67.999985 0)"/>
      </g>
     </g>
    </g>
    <g id="ytick_2">
     <g id="line2d_6">
      <path d="M 47.133125 299.250584 
L 605.133125 299.250584 
" clip-path="url(#p0ec424eb13)" style="fill: none; stroke-dasharray: 3.7,1.6; stroke-dashoffset: 0; stroke: #cccccc; stroke-opacity: 0.6"/>
     </g>
     <g id="line2d_7">
      <g>
       <use xlink:href="#m208d00b74a" x="47.133125" y="299.250584" style="fill: #262626; stroke: #262626; stroke-width: 1.25"/>
      </g>
     </g>
     <g id="text_6">
      <!-- 60 -->
      <g style="fill: #262626" transform="translate(22.673125 303.562928) scale(0.11 -0.11)">
       <defs>
        <path id="AppleGothic-36" d="M 3699 4557 
L 3699 4013 
Q 3584 4102 3475 4163 
Q 3366 4224 3258 4275 
Q 3085 4358 2918 4393 
Q 2752 4429 2586 4429 
Q 2470 4429 2352 4409 
Q 2234 4390 2118 4339 
Q 1670 4154 1395 3738 
Q 1011 3149 1011 2189 
Q 1312 2490 1568 2656 
Q 2022 2931 2534 2931 
Q 3162 2931 3584 2566 
Q 4038 2163 4038 1491 
Q 4038 806 3558 358 
Q 3078 -83 2394 -83 
Q 1670 -83 1146 454 
Q 518 1088 518 2253 
Q 518 3411 1120 4134 
Q 1715 4858 2605 4858 
Q 2938 4858 3226 4762 
Q 3309 4730 3427 4682 
Q 3546 4634 3699 4557 
z
M 1062 1702 
Q 1152 1152 1498 768 
Q 1882 346 2419 346 
Q 2899 346 3213 659 
Q 3539 973 3539 1459 
Q 3539 1920 3226 2214 
Q 2918 2502 2496 2502 
Q 1990 2502 1542 2176 
Q 1414 2080 1292 1965 
Q 1171 1850 1062 1702 
z
" transform="scale(0.015625)"/>
       </defs>
       <use xlink:href="#AppleGothic-36"/>
       <use xlink:href="#AppleGothic-30" transform="translate(67.999985 0)"/>
      </g>
     </g>
    </g>
    <g id="ytick_3">
     <g id="line2d_8">
      <path d="M 47.133125 258.967399 
L 605.133125 258.967399 
" clip-path="url(#p0ec424eb13)" style="fill: none; stroke-dasharray: 3.7,1.6; stroke-dashoffset: 0; stroke: #cccccc; stroke-opacity: 0.6"/>
     </g>
     <g id="line2d_9">
      <g>
       <use xlink:href="#m208d00b74a" x="47.133125" y="258.967399" style="fill: #262626; stroke: #262626; stroke-width: 1.25"/>
      </g>
     </g>
     <g id="text_7">
      <!-- 65 -->
      <g style="fill: #262626" transform="translate(22.673125 263.279742) scale(0.11 -0.11)">
       <use xlink:href="#AppleGothic-36"/>
       <use xlink:href="#AppleGothic-35" transform="translate(67.999985 0)"/>
      </g>
     </g>
    </g>
    <g id="ytick_4">
     <g id="line2d_10">
      <path d="M 47.133125 218.684213 
L 605.133125 218.684213 
" clip-path="url(#p0ec424eb13)" style="fill: none; stroke-dasharray: 3.7,1.6; stroke-dashoffset: 0; stroke: #cccccc; stroke-opacity: 0.6"/>
     </g>
     <g id="line2d_11">
      <g>
       <use xlink:href="#m208d00b74a" x="47.133125" y="218.684213" style="fill: #262626; stroke: #262626; stroke-width: 1.25"/>
      </g>
     </g>
     <g id="text_8">
      <!-- 70 -->
      <g style="fill: #262626" transform="translate(22.673125 222.996557) scale(0.11 -0.11)">
       <use xlink:href="#AppleGothic-37"/>
       <use xlink:href="#AppleGothic-30" transform="translate(67.999985 0)"/>
      </g>
     </g>
    </g>
    <g id="ytick_5">
     <g id="line2d_12">
      <path d="M 47.133125 178.401027 
L 605.133125 178.401027 
" clip-path="url(#p0ec424eb13)" style="fill: none; stroke-dasharray: 3.7,1.6; stroke-dashoffset: 0; stroke: #cccccc; stroke-opacity: 0.6"/>
     </g>
     <g id="line2d_13">
      <g>
       <use xlink:href="#m208d00b74a" x="47.133125" y="178.401027" style="fill: #262626; stroke: #262626; stroke-width: 1.25"/>
      </g>
     </g>
     <g id="text_9">
      <!-- 75 -->
      <g style="fill: #262626" transform="translate(22.673125 182.713371) scale(0.11 -0.11)">
       <use xlink:href="#AppleGothic-37"/>
       <use xlink:href="#AppleGothic-35" transform="translate(67.999985 0)"/>
      </g>
     </g>
    </g>
    <g id="ytick_6">
     <g id="line2d_14">
      <path d="M 47.133125 138.117842 
L 605.133125 138.117842 
" clip-path="url(#p0ec424eb13)" style="fill: none; stroke-dasharray: 3.7,1.6; stroke-dashoffset: 0; stroke: #cccccc; stroke-opacity: 0.6"/>
     </g>
     <g id="line2d_15">
      <g>
       <use xlink:href="#m208d00b74a" x="47.133125" y="138.117842" style="fill: #262626; stroke: #262626; stroke-width: 1.25"/>
      </g>
     </g>
     <g id="text_10">
      <!-- 80 -->
      <g style="fill: #262626" transform="translate(22.673125 142.430185) scale(0.11 -0.11)">
       <use xlink:href="#AppleGothic-38"/>
       <use xlink:href="#AppleGothic-30" transform="translate(67.999985 0)"/>
      </g>
     </g>
    </g>
    <g id="ytick_7">
     <g id="line2d_16">
      <path d="M 47.133125 97.834656 
L 605.133125 97.834656 
" clip-path="url(#p0ec424eb13)" style="fill: none; stroke-dasharray: 3.7,1.6; stroke-dashoffset: 0; stroke: #cccccc; stroke-opacity: 0.6"/>
     </g>
     <g id="line2d_17">
      <g>
       <use xlink:href="#m208d00b74a" x="47.133125" y="97.834656" style="fill: #262626; stroke: #262626; stroke-width: 1.25"/>
      </g>
     </g>
     <g id="text_11">
      <!-- 85 -->
      <g style="fill: #262626" transform="translate(22.673125 102.147) scale(0.11 -0.11)">
       <use xlink:href="#AppleGothic-38"/>
       <use xlink:href="#AppleGothic-35" transform="translate(67.999985 0)"/>
      </g>
     </g>
    </g>
    <g id="ytick_8">
     <g id="line2d_18">
      <path d="M 47.133125 57.55147 
L 605.133125 57.55147 
" clip-path="url(#p0ec424eb13)" style="fill: none; stroke-dasharray: 3.7,1.6; stroke-dashoffset: 0; stroke: #cccccc; stroke-opacity: 0.6"/>
     </g>
     <g id="line2d_19">
      <g>
       <use xlink:href="#m208d00b74a" x="47.133125" y="57.55147" style="fill: #262626; stroke: #262626; stroke-width: 1.25"/>
      </g>
     </g>
     <g id="text_12">
      <!-- 90 -->
      <g style="fill: #262626" transform="translate(22.673125 61.863814) scale(0.11 -0.11)">
       <use xlink:href="#AppleGothic-39"/>
       <use xlink:href="#AppleGothic-30" transform="translate(67.999985 0)"/>
      </g>
     </g>
    </g>
    <g id="text_13">
     <!-- 종합 평균 점수 (Score) -->
     <g style="fill: #262626" transform="translate(16.60875 255.635937) rotate(-90) scale(0.12 -0.12)">
      <defs>
       <path id="AppleGothic-c885" d="M 4858 410 
Q 4858 794 4378 941 
Q 4013 1056 3238 1056 
L 3053 1056 
Q 2394 1056 2054 934 
Q 1594 781 1594 403 
Q 1626 90 2093 -51 
Q 2298 -115 2586 -144 
Q 2874 -173 3251 -173 
Q 4083 -173 4470 -29 
Q 4858 115 4858 410 
z
M 5338 410 
Q 5338 -128 4653 -390 
Q 4128 -576 3258 -576 
Q 2323 -576 1766 -371 
Q 1107 -115 1107 403 
Q 1107 915 1683 1178 
Q 2272 1434 3245 1434 
Q 4173 1434 4691 1222 
Q 5338 973 5338 410 
z
M 6016 2003 
Q 5907 2010 5814 2010 
Q 5722 2010 5645 2010 
Q 5088 2022 4617 2028 
Q 4147 2035 3750 2035 
L 3187 2035 
Q 2394 2035 1754 2016 
Q 1434 2010 1110 2006 
Q 787 2003 442 1990 
L 397 1990 
L 397 2406 
Q 474 2349 1722 2349 
L 2970 2362 
L 2976 2963 
Q 2976 3053 2969 3133 
Q 2963 3213 2950 3290 
Q 3174 3290 3331 3277 
Q 3488 3264 3488 3187 
Q 3488 3174 3465 3097 
Q 3443 3021 3443 2963 
L 3443 2368 
L 4749 2381 
Q 5197 2381 5494 2397 
Q 5792 2413 6016 2438 
L 6016 2003 
z
M 5645 3270 
L 5370 2906 
Q 5222 2931 5104 2953 
Q 4986 2976 4896 3002 
Q 4346 3142 3936 3437 
Q 3770 3558 3638 3683 
Q 3507 3808 3398 3942 
Q 3366 3987 3334 4041 
Q 3302 4096 3264 4154 
Q 3206 4077 3155 4006 
Q 3104 3936 3059 3885 
Q 2912 3718 2736 3580 
Q 2560 3443 2355 3315 
Q 2048 3117 1510 2982 
Q 1427 2957 1315 2934 
Q 1203 2912 1056 2880 
L 877 3059 
Q 723 3200 723 3226 
Q 749 3258 832 3264 
Q 915 3270 1024 3283 
Q 1331 3328 1593 3417 
Q 1856 3507 2093 3635 
Q 2624 3942 2848 4307 
Q 2925 4429 2970 4614 
Q 2803 4627 2585 4633 
Q 2368 4640 2086 4640 
Q 1856 4640 1581 4633 
Q 1306 4627 1075 4614 
L 1075 4998 
Q 1197 4998 1469 4995 
Q 1741 4992 2163 4986 
Q 2592 4979 2861 4979 
Q 3130 4979 3251 4979 
Q 3610 4979 3907 4982 
Q 4205 4986 4457 4992 
Q 4710 4998 4928 5004 
Q 5146 5011 5344 5024 
L 5344 4634 
L 4333 4646 
Q 4109 4646 3965 4646 
Q 3821 4646 3750 4640 
Q 3680 4640 3625 4637 
Q 3571 4634 3520 4627 
Q 3520 4493 3590 4352 
Q 3699 4122 4013 3878 
Q 4435 3558 5069 3392 
Q 5267 3347 5619 3296 
Q 5638 3296 5645 3270 
z
" transform="scale(0.015625)"/>
       <path id="AppleGothic-d569" d="M 4672 -32 
L 4672 666 
L 3270 678 
L 1939 666 
L 1939 -32 
L 3437 -51 
Q 3686 -51 3868 -51 
Q 4051 -51 4179 -45 
Q 4307 -45 4432 -41 
Q 4557 -38 4672 -32 
z
M 3110 2733 
Q 3110 3034 2790 3174 
Q 2560 3277 2240 3277 
Q 1946 3277 1722 3174 
Q 1389 3034 1389 2733 
Q 1389 2451 1715 2330 
Q 1901 2259 2240 2259 
Q 2579 2259 2784 2330 
Q 3110 2451 3110 2733 
z
M 5184 1530 
Q 5184 1517 5161 1440 
Q 5139 1363 5139 1318 
L 5133 410 
L 5152 -506 
L 4672 -531 
L 4659 -371 
L 1939 -378 
L 1926 -531 
L 1459 -538 
Q 1466 -403 1466 -227 
Q 1466 -51 1472 166 
Q 1478 384 1481 557 
Q 1485 730 1485 864 
Q 1485 1107 1485 1257 
Q 1485 1408 1478 1472 
Q 1472 1600 1459 1670 
Q 1683 1670 1830 1654 
Q 1978 1638 1978 1549 
Q 1978 1530 1958 1469 
Q 1939 1408 1939 1370 
L 1939 1018 
L 3264 998 
L 4672 1018 
L 4672 1325 
L 4659 1664 
Q 4781 1664 4854 1664 
Q 4928 1664 4947 1658 
Q 5184 1632 5184 1530 
z
M 3546 2733 
Q 3546 2272 3046 2067 
Q 2694 1946 2240 1946 
Q 1760 1946 1453 2061 
Q 947 2266 947 2733 
Q 947 3258 1453 3469 
Q 1760 3603 2240 3603 
Q 2726 3603 3046 3469 
Q 3546 3251 3546 2733 
z
M 6035 3155 
L 5139 3162 
L 5158 1856 
L 4672 1843 
L 4691 3776 
Q 4691 4154 4691 4400 
Q 4691 4646 4685 4774 
Q 4678 4902 4675 5004 
Q 4672 5107 4666 5184 
L 4870 5190 
Q 4998 5190 5081 5168 
Q 5165 5146 5165 5075 
Q 5165 5043 5149 4960 
Q 5133 4877 5133 4851 
L 5139 3565 
L 6035 3578 
L 6035 3155 
z
M 3949 3866 
L 3558 3866 
Q 3014 3878 2678 3884 
Q 2342 3891 2195 3891 
Q 1792 3891 1385 3884 
Q 979 3878 570 3866 
L 570 4256 
Q 672 4250 755 4250 
Q 838 4250 909 4250 
Q 1370 4237 1696 4230 
Q 2022 4224 2208 4224 
Q 2502 4224 2745 4224 
Q 2989 4224 3197 4230 
Q 3405 4237 3590 4240 
Q 3776 4243 3949 4256 
L 3949 3866 
z
M 2918 4550 
Q 2874 4557 2838 4557 
Q 2803 4557 2778 4557 
Q 2355 4576 2240 4576 
Q 2170 4576 2061 4573 
Q 1952 4570 1792 4563 
Q 1638 4557 1545 4553 
Q 1453 4550 1408 4550 
L 1408 4934 
L 2234 4922 
L 2918 4934 
L 2918 4550 
z
" transform="scale(0.015625)"/>
       <path id="AppleGothic-d3c9" d="M 4915 467 
Q 4915 832 4403 986 
Q 3987 1114 3264 1114 
Q 2477 1114 2093 979 
Q 1651 826 1651 467 
Q 1651 134 2189 -26 
Q 2611 -147 3315 -147 
Q 3738 -147 4051 -102 
Q 4365 -58 4570 38 
Q 4915 192 4915 467 
z
M 5402 467 
Q 5402 -45 4832 -294 
Q 4307 -518 3302 -518 
Q 2362 -518 1824 -307 
Q 1197 -45 1197 474 
Q 1197 1050 1862 1280 
Q 2355 1459 3270 1459 
Q 4269 1459 4806 1235 
Q 5402 986 5402 467 
z
M 4019 2061 
Q 3898 2042 3712 2022 
Q 3526 2003 3289 1990 
Q 3053 1978 2777 1968 
Q 2502 1958 2202 1958 
L 877 1914 
Q 826 1901 771 1888 
Q 717 1875 666 1862 
Q 589 1862 538 2022 
Q 486 2208 486 2304 
L 902 2285 
Q 1075 2285 1206 2291 
Q 1338 2298 1440 2310 
L 1344 3085 
L 1222 3910 
L 1626 3917 
Q 1734 3917 1734 3846 
Q 1734 3821 1721 3750 
Q 1709 3680 1709 3648 
L 1862 2323 
L 2611 2349 
Q 2656 2618 2688 2816 
Q 2720 3014 2739 3142 
Q 2778 3411 2794 3606 
Q 2810 3802 2810 3936 
Q 3034 3936 3184 3904 
Q 3334 3872 3334 3821 
Q 3334 3782 3292 3708 
Q 3251 3635 3245 3603 
L 3053 2368 
Q 3194 2368 3386 2387 
Q 3610 2413 3750 2422 
Q 3891 2432 3949 2432 
L 4019 2061 
z
M 5446 5094 
Q 5446 5069 5420 4982 
Q 5395 4896 5395 4838 
L 5382 3398 
L 5395 1510 
L 4890 1510 
Q 4890 1632 4893 1734 
Q 4896 1837 4902 1933 
Q 4928 2266 4934 2442 
Q 4941 2618 4941 2650 
L 4339 2662 
L 3821 2650 
L 3821 3027 
L 4397 3014 
L 4941 3027 
L 4941 3674 
L 3827 3674 
L 3827 4058 
Q 3942 4045 4092 4038 
Q 4243 4032 4384 4032 
L 4941 4051 
L 4941 4826 
L 4915 5190 
L 5299 5171 
Q 5446 5171 5446 5094 
z
M 3891 4416 
L 2266 4422 
Q 1862 4422 1606 4422 
Q 1350 4422 1222 4416 
Q 1075 4403 924 4400 
Q 774 4397 627 4390 
L 627 4787 
Q 640 4787 800 4787 
Q 960 4787 1286 4781 
Q 1613 4774 1843 4774 
Q 2074 4774 2221 4774 
Q 3814 4813 3891 4813 
L 3891 4416 
z
" transform="scale(0.015625)"/>
       <path id="AppleGothic-ade0" d="M 5325 -403 
L 3226 -403 
Q 2893 -403 2611 -403 
Q 2330 -403 2080 -406 
Q 1830 -410 1606 -416 
Q 1382 -422 1171 -429 
Q 1178 -262 1181 -54 
Q 1184 154 1184 282 
L 1165 1024 
Q 1370 1024 1507 1005 
Q 1645 986 1645 947 
Q 1645 941 1619 861 
Q 1594 781 1594 704 
L 1587 -70 
L 5325 -38 
L 5325 -403 
z
M 6010 2662 
L 5280 2682 
L 4314 2669 
L 4314 1184 
L 4333 749 
L 3910 698 
L 3910 2675 
L 3270 2694 
Q 3053 2694 2784 2675 
Q 2758 2675 2726 2672 
Q 2694 2669 2650 2662 
Q 2650 2605 2643 2397 
Q 2637 2189 2637 1958 
L 2637 1005 
L 2208 973 
L 2234 2054 
Q 2234 2285 2230 2425 
Q 2227 2566 2221 2656 
L 1709 2656 
L 1555 2656 
L 1408 2656 
Q 1376 2662 1353 2665 
Q 1331 2669 1318 2669 
L 390 2650 
L 390 3040 
Q 634 3034 912 3027 
Q 1190 3021 1478 3017 
Q 1766 3014 2057 3014 
Q 2349 3014 2618 3014 
L 4397 3034 
Q 4416 3059 4467 3235 
Q 4518 3411 4589 3744 
Q 4659 4077 4694 4275 
Q 4730 4474 4730 4544 
Q 4582 4538 4368 4538 
Q 4154 4538 3872 4531 
Q 3597 4525 3401 4525 
Q 3206 4525 3085 4525 
L 1114 4512 
L 1114 4883 
L 5229 4902 
Q 5158 4378 5068 3923 
Q 4979 3469 4832 3046 
L 5408 3027 
Q 5574 3027 5737 3036 
Q 5901 3046 6010 3053 
L 6010 2662 
z
" transform="scale(0.015625)"/>
       <path id="AppleGothic-c810" d="M 4941 -6 
L 4941 1094 
Q 4800 1101 4601 1107 
Q 4403 1114 4141 1120 
Q 3885 1126 3661 1129 
Q 3437 1133 3245 1133 
Q 2963 1133 2748 1133 
Q 2534 1133 2374 1126 
Q 2214 1126 2057 1123 
Q 1901 1120 1741 1114 
L 1741 6 
Q 1830 6 2009 6 
Q 2189 6 2470 0 
Q 2746 -6 2915 -9 
Q 3085 -13 3142 -13 
L 4941 -6 
z
M 5395 -486 
L 4941 -499 
L 4915 -365 
L 1766 -352 
L 1747 -474 
L 1280 -480 
L 1293 570 
L 1280 1478 
Q 1702 1466 2217 1462 
Q 2733 1459 3258 1459 
L 5382 1459 
L 5376 205 
L 5376 -243 
Q 5382 -314 5385 -371 
Q 5389 -429 5395 -486 
z
M 4006 2259 
L 3859 2106 
Q 3808 2054 3760 2012 
Q 3712 1971 3661 1920 
Q 3571 1965 3497 2003 
Q 3424 2042 3360 2074 
Q 3181 2182 3024 2310 
Q 2867 2438 2726 2592 
Q 2515 2810 2362 3162 
Q 2336 3219 2310 3296 
Q 2285 3373 2253 3475 
Q 2221 3379 2195 3328 
Q 2022 2931 1670 2573 
Q 1542 2445 1379 2313 
Q 1216 2182 1005 2035 
Q 934 1997 844 1939 
Q 755 1882 646 1811 
L 314 2112 
L 326 2131 
Q 1030 2419 1485 2982 
Q 1997 3603 1997 4314 
L 1990 4429 
Q 1875 4442 1718 4448 
Q 1562 4454 1312 4454 
L 640 4448 
L 640 4845 
Q 742 4838 892 4832 
Q 1043 4826 1222 4822 
Q 1402 4819 1600 4816 
Q 1798 4813 2003 4813 
L 2234 4813 
Q 2579 4813 2828 4816 
Q 3078 4819 3232 4826 
Q 3386 4832 3510 4838 
Q 3635 4845 3744 4858 
L 3744 4422 
L 3142 4435 
L 2490 4422 
Q 2490 4102 2534 3885 
Q 2592 3558 2778 3245 
Q 3040 2797 3552 2483 
Q 3725 2374 4006 2259 
z
M 5446 5107 
Q 5446 5094 5408 4995 
Q 5370 4896 5370 4806 
L 5395 1830 
L 4928 1805 
L 4941 2381 
L 4941 3232 
L 4333 3245 
L 3642 3226 
L 3642 3603 
Q 3674 3603 3754 3603 
Q 3834 3603 3962 3597 
Q 4090 3590 4179 3590 
Q 4269 3590 4320 3590 
L 4941 3603 
L 4941 4742 
Q 4941 4954 4934 5053 
Q 4928 5152 4915 5190 
L 4998 5190 
Q 5171 5190 5308 5174 
Q 5446 5158 5446 5107 
z
" transform="scale(0.015625)"/>
       <path id="AppleGothic-c218" d="M 6022 1952 
L 3411 1952 
L 3424 896 
L 3462 -582 
L 2982 -582 
L 2982 1952 
Q 2912 1952 2774 1949 
Q 2637 1946 2419 1939 
Q 2208 1933 2086 1933 
Q 1965 1933 1933 1933 
L 378 1894 
L 378 2304 
L 3206 2298 
Q 3706 2298 4202 2307 
Q 4698 2317 5184 2330 
Q 5536 2342 6022 2368 
L 6022 1952 
z
M 5792 3482 
Q 5792 3450 5747 3402 
Q 5702 3354 5658 3315 
L 5523 3117 
Q 5453 3123 5395 3126 
Q 5338 3130 5286 3142 
Q 4685 3251 4090 3610 
Q 3699 3846 3411 4250 
Q 3360 4320 3312 4409 
Q 3264 4499 3206 4621 
Q 3149 4512 3097 4422 
Q 3046 4333 2995 4262 
Q 2688 3846 2208 3552 
Q 2054 3450 1875 3370 
Q 1696 3290 1498 3219 
Q 1382 3181 1232 3142 
Q 1082 3104 896 3072 
Q 896 3072 873 3101 
Q 851 3130 828 3162 
Q 806 3194 780 3226 
Q 755 3258 749 3270 
Q 736 3290 678 3347 
Q 621 3405 621 3424 
L 640 3443 
Q 730 3450 810 3453 
Q 890 3456 954 3469 
Q 1338 3526 1674 3676 
Q 2010 3827 2298 4077 
Q 2605 4326 2790 4659 
Q 2842 4755 2886 4880 
Q 2931 5005 2970 5171 
L 3411 5133 
Q 3475 5133 3475 5075 
Q 3475 5056 3472 5037 
Q 3469 5018 3462 4992 
Q 3462 4973 3443 4947 
Q 3482 4832 3520 4755 
Q 3738 4301 4230 3974 
Q 4659 3686 5261 3571 
Q 5363 3552 5488 3536 
Q 5613 3520 5766 3507 
Q 5786 3507 5792 3482 
z
" transform="scale(0.015625)"/>
       <path id="AppleGothic-53" d="M 3418 4666 
L 3418 4019 
Q 3251 4160 3081 4269 
Q 2912 4378 2746 4448 
Q 2362 4627 1965 4627 
Q 1466 4627 1139 4378 
Q 806 4122 806 3770 
Q 806 3258 1562 3002 
Q 1914 2880 2262 2768 
Q 2611 2656 2970 2541 
Q 3731 2176 3731 1453 
Q 3731 749 3187 320 
Q 2669 -83 1901 -83 
Q 1389 -83 915 115 
Q 640 224 262 474 
L 262 1126 
Q 755 685 1261 506 
Q 1427 442 1587 416 
Q 1747 390 1907 390 
Q 2419 390 2771 646 
Q 3162 928 3162 1382 
Q 3162 1933 2419 2221 
Q 2061 2330 1715 2445 
Q 1370 2560 1024 2669 
Q 275 3014 275 3731 
Q 275 4333 749 4710 
Q 1235 5101 1965 5101 
Q 2413 5101 2861 4934 
Q 3091 4858 3418 4666 
z
" transform="scale(0.015625)"/>
       <path id="AppleGothic-63" d="M 3085 3123 
L 3085 2522 
Q 2726 2861 2349 3008 
Q 2240 3053 2125 3069 
Q 2010 3085 1894 3085 
Q 1363 3085 1024 2688 
Q 685 2278 685 1715 
Q 685 1139 1037 730 
Q 1389 339 1920 339 
Q 2253 339 2528 483 
Q 2803 627 3085 915 
L 3085 307 
Q 2746 96 2470 6 
Q 2195 -83 1914 -83 
Q 1197 -83 685 429 
Q 186 960 186 1709 
Q 186 2445 678 2976 
Q 1178 3501 1920 3501 
Q 2298 3501 2624 3373 
Q 2816 3302 3085 3123 
z
" transform="scale(0.015625)"/>
       <path id="AppleGothic-6f" d="M 1888 -83 
Q 1229 -83 730 397 
Q 198 902 198 1709 
Q 198 2470 666 2982 
Q 1146 3501 1850 3501 
Q 2547 3501 3027 2982 
Q 3501 2470 3501 1715 
Q 3501 922 2989 403 
Q 2515 -83 1888 -83 
z
M 1843 339 
Q 2304 339 2662 723 
Q 3008 1114 3008 1715 
Q 3008 2336 2637 2726 
Q 2298 3085 1850 3085 
Q 1389 3085 1062 2714 
Q 704 2304 704 1709 
Q 704 1107 1056 704 
Q 1382 339 1843 339 
z
" transform="scale(0.015625)"/>
      </defs>
      <use xlink:href="#AppleGothic-c885"/>
      <use xlink:href="#AppleGothic-d569" transform="translate(99.999985 0)"/>
      <use xlink:href="#AppleGothic-20" transform="translate(199.999969 0)"/>
      <use xlink:href="#AppleGothic-d3c9" transform="translate(231.999954 0)"/>
      <use xlink:href="#AppleGothic-ade0" transform="translate(331.999939 0)"/>
      <use xlink:href="#AppleGothic-20" transform="translate(431.999924 0)"/>
      <use xlink:href="#AppleGothic-c810" transform="translate(463.999908 0)"/>
      <use xlink:href="#AppleGothic-c218" transform="translate(563.999893 0)"/>
      <use xlink:href="#AppleGothic-20" transform="translate(663.999878 0)"/>
      <use xlink:href="#AppleGothic-28" transform="translate(695.999863 0)"/>
      <use xlink:href="#AppleGothic-53" transform="translate(745.999847 0)"/>
      <use xlink:href="#AppleGothic-63" transform="translate(809.199844 0)"/>
      <use xlink:href="#AppleGothic-6f" transform="translate(861.099838 0)"/>
      <use xlink:href="#AppleGothic-72" transform="translate(919.399826 0)"/>
      <use xlink:href="#AppleGothic-65" transform="translate(954.599823 0)"/>
      <use xlink:href="#AppleGothic-29" transform="translate(1009.499817 0)"/>
     </g>
    </g>
   </g>
   <g id="line2d_20">
    <path d="M 135.483125 272.965806 
L 321.483125 241.242797 
" clip-path="url(#p0ec424eb13)" style="fill: none; stroke: #1e90ff; stroke-width: 2.7; stroke-linecap: round"/>
    <defs>
     <path id="m269782d404" d="M 0 3.383948 
C 0.897434 3.383948 1.758231 3.027394 2.392813 2.392813 
C 3.027394 1.758231 3.383948 0.897434 3.383948 0 
C 3.383948 -0.897434 3.027394 -1.758231 2.392813 -2.392813 
C 1.758231 -3.027394 0.897434 -3.383948 0 -3.383948 
C -0.897434 -3.383948 -1.758231 -3.027394 -2.392813 -2.392813 
C -3.027394 -1.758231 -3.383948 -0.897434 -3.383948 0 
C -3.383948 0.897434 -3.027394 1.758231 -2.392813 2.392813 
C -1.758231 3.027394 -0.897434 3.383948 0 3.383948 
z
" style="stroke: #1e90ff; stroke-width: 2.025"/>
    </defs>
    <g clip-path="url(#p0ec424eb13)">
     <use xlink:href="#m269782d404" x="135.483125" y="272.965806" style="fill: #1e90ff; stroke: #1e90ff; stroke-width: 2.025"/>
     <use xlink:href="#m269782d404" x="321.483125" y="241.242797" style="fill: #1e90ff; stroke: #1e90ff; stroke-width: 2.025"/>
    </g>
   </g>
   <g id="line2d_21">
    <path d="M 135.483125 343.265 
L 135.483125 213.385296 
" clip-path="url(#p0ec424eb13)" style="fill: none; stroke: #1e90ff; stroke-width: 2.7; stroke-linecap: round"/>
   </g>
   <g id="line2d_22">
    <path d="M 321.483125 339.440615 
L 321.483125 161.970523 
" clip-path="url(#p0ec424eb13)" style="fill: none; stroke: #1e90ff; stroke-width: 2.7; stroke-linecap: round"/>
   </g>
   <g id="line2d_23">
    <path clip-path="url(#p0ec424eb13)" style="fill: none; stroke: #1e90ff; stroke-width: 2.7; stroke-linecap: round"/>
   </g>
   <g id="line2d_24">
    <path d="M 330.783125 124.119435 
L 516.783125 68.528639 
" clip-path="url(#p0ec424eb13)" style="fill: none; stroke: #dc143c; stroke-width: 2.7; stroke-linecap: round"/>
    <defs>
     <path id="m91052820ee" d="M -3.383948 3.383948 
L 3.383948 3.383948 
L 3.383948 -3.383948 
L -3.383948 -3.383948 
z
" style="stroke: #dc143c; stroke-width: 2.025; stroke-linejoin: miter"/>
    </defs>
    <g clip-path="url(#p0ec424eb13)">
     <use xlink:href="#m91052820ee" x="330.783125" y="124.119435" style="fill: #dc143c; stroke: #dc143c; stroke-width: 2.025; stroke-linejoin: miter"/>
     <use xlink:href="#m91052820ee" x="516.783125" y="68.528639" style="fill: #dc143c; stroke: #dc143c; stroke-width: 2.025; stroke-linejoin: miter"/>
    </g>
   </g>
   <g id="line2d_25">
    <path clip-path="url(#p0ec424eb13)" style="fill: none; stroke: #dc143c; stroke-width: 2.7; stroke-linecap: round"/>
   </g>
   <g id="line2d_26">
    <path d="M 330.783125 195.727833 
L 330.783125 60.268068 
" clip-path="url(#p0ec424eb13)" style="fill: none; stroke: #dc143c; stroke-width: 2.7; stroke-linecap: round"/>
   </g>
   <g id="line2d_27">
    <path d="M 516.783125 100.525237 
L 516.783125 40.865 
" clip-path="url(#p0ec424eb13)" style="fill: none; stroke: #dc143c; stroke-width: 2.7; stroke-linecap: round"/>
   </g>
   <g id="line2d_28"/>
   <g id="line2d_29"/>
   <g id="patch_3">
    <path d="M 47.133125 358.385 
L 47.133125 25.745 
" style="fill: none; stroke: #262626; stroke-width: 1.25; stroke-linejoin: miter; stroke-linecap: square"/>
   </g>
   <g id="patch_4">
    <path d="M 605.133125 358.385 
L 605.133125 25.745 
" style="fill: none; stroke: #262626; stroke-width: 1.25; stroke-linejoin: miter; stroke-linecap: square"/>
   </g>
   <g id="patch_5">
    <path d="M 47.133125 358.385 
L 605.133125 358.385 
" style="fill: none; stroke: #262626; stroke-width: 1.25; stroke-linejoin: miter; stroke-linecap: square"/>
   </g>
   <g id="patch_6">
    <path d="M 47.133125 25.745 
L 605.133125 25.745 
" style="fill: none; stroke: #262626; stroke-width: 1.25; stroke-linejoin: miter; stroke-linecap: square"/>
   </g>
   <g id="text_14">
    <!-- 엔코더(Encoder) 기술 진보에 따른 AI 언어 이해력 상승 -->
    <g style="fill: #262626" transform="translate(127.235625 19.745) scale(0.16 -0.16)">
     <defs>
      <path id="AppleGothic-c5d4" d="M 2835 3098 
Q 2835 3302 2790 3478 
Q 2746 3654 2643 3802 
Q 2413 4166 1978 4166 
Q 1587 4166 1344 3891 
Q 1101 3616 1101 3085 
Q 1101 2662 1299 2394 
Q 1536 2086 1971 2086 
Q 2355 2086 2611 2419 
Q 2835 2707 2835 3098 
z
M 5766 -378 
L 3942 -390 
Q 3283 -390 2752 -396 
Q 2221 -403 1722 -416 
L 1734 518 
L 1734 960 
Q 1734 1011 1731 1059 
Q 1728 1107 1722 1152 
Q 1914 1152 2070 1139 
Q 2227 1126 2227 1069 
Q 2208 1011 2195 969 
Q 2182 928 2182 858 
L 2182 -32 
L 3936 -19 
Q 4378 -19 4765 -9 
Q 5152 0 5485 13 
Q 5613 13 5766 32 
L 5766 -378 
z
M 4474 4941 
Q 4474 4928 4461 4864 
Q 4429 4717 4429 4659 
L 4422 3968 
L 4448 909 
L 3981 877 
L 3987 2867 
L 3597 2874 
L 3258 2861 
Q 3206 2669 3148 2528 
Q 3091 2387 3034 2291 
Q 2669 1728 1978 1728 
Q 1389 1728 1024 2131 
Q 659 2534 659 3098 
Q 659 3725 1011 4122 
Q 1363 4525 1978 4525 
Q 2483 4525 2816 4205 
Q 3059 3981 3174 3603 
Q 3200 3450 3245 3283 
Q 3283 3283 3337 3280 
Q 3392 3277 3449 3273 
Q 3507 3270 3552 3267 
Q 3597 3264 3610 3264 
Q 3891 3264 3994 3290 
L 3981 5043 
L 4096 5043 
Q 4269 5043 4371 5024 
Q 4474 5005 4474 4941 
z
M 5664 5101 
Q 5664 5082 5641 4995 
Q 5619 4909 5619 4851 
L 5619 2931 
Q 5619 2464 5619 2115 
Q 5619 1766 5626 1523 
Q 5632 1043 5645 755 
L 5178 730 
Q 5184 858 5184 1072 
Q 5184 1286 5190 1594 
Q 5197 1901 5197 2224 
Q 5197 2547 5197 2893 
L 5197 3603 
Q 5197 3942 5197 4185 
Q 5197 4429 5190 4595 
Q 5190 4909 5171 5190 
L 5203 5190 
Q 5376 5190 5520 5174 
Q 5664 5158 5664 5101 
z
" transform="scale(0.015625)"/>
      <path id="AppleGothic-cf54" d="M 6035 243 
L 5510 243 
Q 5178 250 4611 256 
Q 4045 262 3386 269 
L 365 243 
L 365 698 
Q 544 691 745 684 
Q 947 678 1171 666 
Q 1395 666 1526 662 
Q 1658 659 1690 659 
L 2765 659 
L 2778 1491 
L 2765 2003 
L 2797 2003 
Q 3002 2003 3149 1980 
Q 3296 1958 3296 1882 
Q 3296 1856 3270 1782 
Q 3245 1709 3245 1670 
L 3258 659 
L 4582 659 
Q 4998 659 5353 668 
Q 5709 678 6035 698 
L 6035 243 
z
M 5344 4410 
Q 5344 4083 5286 3424 
Q 5229 2758 5171 2381 
Q 5139 2189 5094 1958 
Q 5050 1728 4986 1453 
Q 4973 1402 4960 1341 
Q 4947 1280 4934 1203 
L 4480 1216 
L 4614 1830 
Q 4627 1914 4649 2035 
Q 4672 2157 4698 2330 
Q 4704 2381 4717 2448 
Q 4730 2515 4742 2605 
Q 4589 2573 4393 2547 
Q 4198 2522 3968 2490 
Q 3738 2464 3539 2451 
Q 3341 2438 3174 2438 
Q 2963 2419 2691 2400 
Q 2419 2381 2080 2368 
Q 1971 2362 1820 2358 
Q 1670 2355 1478 2342 
Q 1440 2342 1382 2323 
Q 1248 2278 1216 2278 
Q 1139 2278 1075 2470 
Q 1011 2656 1011 2765 
L 1466 2758 
Q 1510 2758 1676 2764 
Q 1843 2771 2131 2784 
Q 2419 2797 2614 2800 
Q 2810 2803 2918 2803 
Q 3315 2803 3660 2822 
Q 4006 2842 4314 2886 
Q 4416 2899 4534 2921 
Q 4653 2944 4781 2976 
L 4826 3398 
L 4845 4013 
L 3386 4026 
L 1120 4013 
L 1120 4416 
Q 1216 4410 1296 4410 
Q 1376 4410 1446 4410 
Q 2349 4390 2758 4390 
L 5344 4410 
z
" transform="scale(0.015625)"/>
      <path id="AppleGothic-b354" d="M 5440 5069 
Q 5440 5037 5424 4966 
Q 5408 4896 5408 4870 
L 5395 2867 
L 5395 1530 
Q 5402 1139 5402 793 
Q 5402 448 5408 134 
Q 5414 -486 5421 -486 
L 4928 -518 
Q 4934 -410 4934 -320 
Q 4934 -230 4934 -160 
Q 4954 819 4954 1171 
L 4954 2560 
L 4224 2573 
L 3296 2560 
L 3296 3014 
L 4218 2995 
L 4960 3002 
L 4954 4685 
Q 4954 4845 4941 4963 
Q 4928 5082 4915 5190 
L 4979 5190 
Q 5184 5190 5312 5168 
Q 5440 5146 5440 5069 
z
M 3840 1075 
Q 3738 1062 3645 1046 
Q 3552 1030 3450 1018 
Q 3258 986 3050 960 
Q 2842 934 2618 902 
Q 2170 845 1440 787 
Q 1312 774 1139 764 
Q 966 755 749 742 
L 762 2598 
L 749 4467 
L 2285 4474 
L 3494 4499 
L 3494 4083 
L 1216 4083 
Q 1210 3917 1206 3792 
Q 1203 3667 1203 3578 
Q 1197 3200 1193 2969 
Q 1190 2739 1190 2650 
Q 1190 2304 1200 1920 
Q 1210 1536 1222 1210 
Q 1434 1216 1706 1222 
Q 1978 1229 2394 1280 
Q 2790 1325 3100 1366 
Q 3411 1408 3635 1459 
Q 3718 1466 3827 1498 
L 3840 1075 
z
" transform="scale(0.015625)"/>
      <path id="AppleGothic-45" d="M 282 5024 
L 3405 5024 
L 3405 4582 
L 787 4582 
L 787 2848 
L 3309 2848 
L 3309 2406 
L 787 2406 
L 787 442 
L 3424 442 
L 3424 0 
L 282 0 
L 282 5024 
z
" transform="scale(0.015625)"/>
      <path id="AppleGothic-6e" d="M 3264 2291 
L 3264 0 
L 2803 0 
L 2803 2259 
Q 2803 2618 2541 2848 
Q 2278 3085 1914 3085 
Q 1427 3085 1075 2682 
Q 723 2272 723 1760 
L 723 0 
L 288 0 
L 288 3424 
L 691 3424 
L 710 2784 
Q 883 3046 1114 3219 
Q 1491 3501 1965 3501 
Q 2515 3501 2886 3168 
Q 3264 2842 3264 2291 
z
" transform="scale(0.015625)"/>
      <path id="AppleGothic-64" d="M 2682 5018 
L 3174 5018 
L 3174 0 
L 2733 0 
L 2688 557 
Q 2598 429 2508 329 
Q 2419 230 2330 160 
Q 2010 -83 1587 -83 
Q 928 -83 493 429 
Q 64 941 64 1670 
Q 64 2426 518 2957 
Q 979 3501 1670 3501 
Q 1958 3501 2208 3398 
Q 2298 3360 2416 3296 
Q 2534 3232 2682 3142 
L 2682 5018 
z
M 2682 1658 
L 2682 2643 
Q 2381 2906 2157 2995 
Q 1933 3085 1722 3085 
Q 1197 3085 870 2643 
Q 563 2227 563 1677 
Q 563 1088 902 698 
Q 1216 339 1645 339 
Q 2067 339 2374 710 
Q 2682 1082 2682 1658 
z
" transform="scale(0.015625)"/>
      <path id="AppleGothic-ae30" d="M 5427 5094 
Q 5427 5069 5408 4982 
Q 5389 4896 5389 4832 
L 5363 2362 
L 5382 -493 
L 4909 -518 
Q 4915 -371 4915 -195 
Q 4915 -19 4922 198 
Q 4934 646 4941 1299 
Q 4947 1632 4950 1872 
Q 4954 2112 4954 2259 
Q 4954 3808 4934 4346 
Q 4934 4614 4928 4822 
Q 4922 5030 4915 5184 
L 5114 5190 
Q 5261 5190 5344 5174 
Q 5427 5158 5427 5094 
z
M 3578 4486 
Q 3565 4051 3478 3635 
Q 3392 3219 3209 2819 
Q 3027 2419 2729 2041 
Q 2432 1664 1997 1306 
Q 1786 1139 1555 992 
Q 1325 845 1075 717 
Q 698 525 653 525 
Q 627 557 611 579 
Q 595 602 582 614 
Q 544 653 505 688 
Q 467 723 422 749 
Q 410 762 390 778 
Q 371 794 352 819 
Q 346 826 342 832 
Q 339 838 326 851 
Q 326 877 384 893 
Q 442 909 461 922 
Q 480 922 569 957 
Q 659 992 819 1069 
Q 1043 1171 1238 1283 
Q 1434 1395 1613 1523 
Q 2118 1888 2409 2301 
Q 2701 2714 2886 3187 
Q 2950 3354 2995 3514 
Q 3040 3674 3066 3840 
Q 3072 3898 3078 3962 
Q 3085 4026 3098 4090 
L 1766 4083 
Q 1318 4083 1046 4076 
Q 774 4070 589 4058 
L 589 4474 
Q 685 4467 800 4467 
Q 915 4467 1043 4461 
L 1466 4461 
L 3578 4486 
z
" transform="scale(0.015625)"/>
      <path id="AppleGothic-c220" d="M 6029 2291 
L 4461 2323 
L 3418 2323 
L 3418 1715 
L 4192 1702 
L 5082 1715 
L 5069 1069 
L 5082 474 
L 3296 486 
Q 2989 486 2761 486 
Q 2534 486 2381 480 
Q 2227 480 2083 477 
Q 1939 474 1792 467 
L 1792 -64 
L 3046 -77 
L 5171 -58 
L 5171 -454 
L 4845 -454 
Q 3654 -435 3533 -435 
L 1312 -454 
L 1331 205 
L 1318 851 
L 3277 838 
L 4602 851 
L 4602 1338 
Q 4275 1350 3897 1356 
Q 3520 1363 3168 1363 
Q 2707 1363 2211 1350 
Q 1715 1338 1299 1325 
L 1299 1728 
Q 1485 1715 1715 1708 
Q 1946 1702 2150 1702 
L 2938 1715 
L 2938 2330 
L 1754 2330 
Q 1421 2330 1056 2323 
Q 691 2317 378 2304 
L 378 2720 
Q 570 2714 874 2714 
Q 1178 2714 1606 2707 
Q 2035 2701 2435 2701 
Q 2835 2701 3219 2701 
Q 3808 2701 4249 2704 
Q 4691 2707 4992 2714 
Q 5299 2720 5552 2726 
Q 5805 2733 6029 2746 
L 6029 2291 
z
M 5536 3712 
Q 5536 3686 5421 3546 
Q 5357 3469 5318 3421 
Q 5280 3373 5261 3354 
Q 5190 3360 5136 3366 
Q 5082 3373 5030 3379 
Q 4749 3430 4473 3536 
Q 4198 3642 3930 3808 
Q 3546 4032 3334 4294 
Q 3302 4339 3267 4387 
Q 3232 4435 3200 4506 
Q 3130 4403 3066 4323 
Q 3002 4243 2944 4179 
Q 2586 3802 2099 3603 
Q 1914 3520 1718 3456 
Q 1523 3392 1318 3347 
Q 1248 3334 1165 3321 
Q 1082 3309 979 3296 
Q 941 3366 845 3520 
Q 826 3552 797 3590 
Q 768 3629 723 3686 
Q 755 3718 762 3718 
Q 922 3731 1053 3744 
Q 1184 3757 1280 3770 
Q 1869 3872 2291 4166 
Q 2637 4410 2806 4678 
Q 2976 4947 2976 5152 
Q 3085 5152 3270 5107 
Q 3462 5056 3462 5005 
Q 3437 4954 3437 4909 
Q 3520 4717 3622 4582 
Q 3782 4390 4090 4192 
Q 4275 4070 4508 3977 
Q 4742 3885 5030 3821 
Q 5120 3802 5241 3782 
Q 5363 3763 5510 3738 
Q 5530 3738 5536 3712 
z
" transform="scale(0.015625)"/>
      <path id="AppleGothic-c9c4" d="M 5606 -390 
Q 5338 -384 5046 -381 
Q 4755 -378 4429 -371 
Q 4115 -365 3827 -365 
Q 3539 -365 3277 -365 
Q 3053 -365 2809 -365 
Q 2566 -365 2291 -371 
Q 2022 -378 1769 -381 
Q 1517 -384 1280 -390 
L 1293 326 
L 1280 1235 
Q 1510 1235 1673 1200 
Q 1837 1165 1837 1107 
Q 1786 973 1786 915 
L 1786 -6 
L 2790 -6 
L 5606 58 
L 5606 -390 
z
M 5446 5114 
Q 5446 5088 5420 5011 
Q 5395 4934 5395 4902 
L 5395 3565 
L 5434 858 
Q 5434 781 5373 758 
Q 5312 736 5210 736 
L 5146 736 
Q 4922 736 4922 781 
Q 4922 941 4925 1229 
Q 4928 1517 4934 1939 
Q 4941 2362 4944 2598 
Q 4947 2835 4947 2899 
L 4947 3482 
Q 4947 4102 4937 4505 
Q 4928 4909 4915 5190 
L 5133 5197 
Q 5280 5197 5363 5181 
Q 5446 5165 5446 5114 
z
M 4256 2106 
Q 4243 2080 4243 2080 
Q 4224 2054 4185 2028 
Q 4147 2003 4038 1894 
Q 4019 1875 3990 1846 
Q 3962 1818 3930 1779 
Q 3859 1818 3801 1856 
Q 3744 1894 3693 1926 
Q 3539 2035 3366 2176 
Q 3194 2317 3008 2490 
Q 2906 2579 2810 2713 
Q 2714 2848 2605 3021 
Q 2573 3072 2534 3152 
Q 2496 3232 2445 3334 
Q 2419 3264 2393 3203 
Q 2368 3142 2336 3091 
Q 2189 2822 1869 2483 
Q 1734 2336 1568 2201 
Q 1402 2067 1216 1939 
Q 1101 1850 909 1747 
Q 838 1792 790 1824 
Q 742 1856 710 1882 
Q 512 2029 512 2042 
Q 512 2067 563 2089 
Q 614 2112 666 2131 
Q 1293 2368 1741 3014 
Q 2214 3661 2214 4320 
L 730 4307 
L 730 4723 
L 2694 4704 
L 3565 4704 
L 4179 4723 
L 4179 4307 
L 2726 4320 
Q 2720 4288 2713 4227 
Q 2707 4166 2707 4115 
Q 2707 3501 3149 2982 
Q 3475 2598 4122 2189 
Q 4154 2170 4205 2150 
Q 4256 2131 4256 2106 
z
" transform="scale(0.015625)"/>
      <path id="AppleGothic-bcf4" d="M 4544 2342 
L 4538 3405 
L 1766 3386 
L 1754 3014 
L 1766 2336 
L 3098 2317 
L 4544 2342 
z
M 6029 77 
Q 5901 83 5789 83 
Q 5677 83 5587 83 
Q 4269 102 3712 102 
L 3187 102 
Q 2854 102 2579 99 
Q 2304 96 2080 90 
Q 1856 83 1619 80 
Q 1382 77 1120 64 
Q 858 51 672 48 
Q 486 45 371 38 
L 371 531 
Q 461 525 537 525 
Q 614 525 666 525 
Q 1069 512 1289 505 
Q 1510 499 1562 499 
L 2912 518 
L 2925 1242 
L 2912 1939 
L 1242 1914 
L 1261 3328 
L 1242 4723 
L 1402 4723 
Q 1574 4723 1683 4704 
Q 1792 4685 1792 4634 
Q 1792 4602 1763 4522 
Q 1734 4442 1734 4403 
L 1734 3795 
L 4544 3795 
L 4538 4371 
L 4506 4742 
L 4826 4749 
Q 4941 4749 5011 4733 
Q 5082 4717 5082 4659 
Q 5082 4634 5056 4570 
Q 5030 4506 5030 4486 
L 5024 3469 
L 5043 1920 
L 3418 1926 
L 3418 1773 
Q 3398 1222 3398 1184 
L 3418 512 
L 4621 525 
Q 4966 525 5340 541 
Q 5715 557 6029 576 
L 6029 77 
z
" transform="scale(0.015625)"/>
      <path id="AppleGothic-c5d0" d="M 2707 2669 
Q 2707 3430 2419 3750 
Q 2208 3981 1856 3981 
Q 1491 3981 1267 3686 
Q 1018 3341 1018 2624 
Q 1018 1235 1862 1235 
Q 2336 1235 2541 1696 
Q 2707 2061 2707 2669 
z
M 5670 5050 
Q 5670 4986 5664 4966 
Q 5632 4806 5632 4806 
L 5619 2336 
L 5626 -544 
L 5158 -544 
L 5184 2240 
L 5178 5184 
L 5286 5184 
Q 5453 5184 5561 5158 
Q 5670 5133 5670 5050 
z
M 4499 4966 
Q 4499 4954 4480 4886 
Q 4461 4819 4461 4768 
Q 4454 4506 4451 4230 
Q 4448 3955 4442 3648 
Q 4435 3341 4435 3069 
Q 4435 2797 4435 2554 
L 4448 -64 
L 3968 -64 
L 3994 2349 
L 3136 2349 
Q 3123 2253 3104 2157 
Q 3085 2061 3072 1965 
Q 2970 1523 2720 1235 
Q 2374 845 1818 845 
Q 1133 845 826 1389 
Q 576 1830 576 2675 
Q 576 3456 909 3910 
Q 1248 4384 1862 4384 
Q 2458 4384 2803 3930 
Q 3142 3488 3142 2752 
L 3987 2752 
L 4000 3968 
Q 4000 4230 4000 4416 
Q 4000 4602 3994 4710 
Q 3994 4832 3994 4918 
Q 3994 5005 3987 5069 
L 4064 5069 
Q 4250 5069 4374 5049 
Q 4499 5030 4499 4966 
z
" transform="scale(0.015625)"/>
      <path id="AppleGothic-b530" d="M 6080 1990 
L 5146 1990 
L 5139 1018 
Q 5139 672 5152 262 
Q 5165 -147 5178 -493 
L 4704 -506 
L 4723 1926 
Q 4723 2150 4713 2384 
Q 4704 2618 4698 2880 
L 4698 3136 
Q 4698 3699 4694 4070 
Q 4691 4442 4685 4627 
Q 4678 4813 4672 4950 
Q 4666 5088 4659 5184 
L 4794 5184 
Q 4979 5184 5088 5165 
Q 5197 5146 5197 5075 
Q 5197 5050 5177 4982 
Q 5158 4915 5158 4864 
L 5139 3949 
L 5146 2432 
L 6080 2438 
L 6080 1990 
z
M 4582 1254 
Q 4474 1222 4390 1206 
Q 4307 1190 4243 1178 
Q 3872 1094 3622 1094 
Q 3488 1069 3347 1049 
Q 3206 1030 3059 1011 
Q 2758 973 2669 973 
L 2669 2682 
L 2650 4339 
L 4211 4320 
L 4211 3898 
L 3110 3917 
L 3098 2918 
L 3117 1453 
L 3149 1446 
Q 3264 1446 3421 1462 
Q 3578 1478 3725 1517 
Q 3859 1530 4000 1552 
Q 4141 1574 4275 1600 
Q 4333 1613 4406 1625 
Q 4480 1638 4582 1664 
L 4582 1254 
z
M 2362 1267 
Q 2182 1229 2042 1210 
Q 1862 1184 1721 1161 
Q 1581 1139 1472 1126 
Q 1370 1114 1203 1098 
Q 1037 1082 800 1062 
Q 768 1062 720 1059 
Q 672 1056 621 1050 
L 640 2624 
L 627 4320 
L 2278 4326 
L 2278 3898 
L 1075 3898 
L 1069 2989 
L 1082 1504 
Q 1146 1510 1190 1513 
Q 1235 1517 1267 1517 
Q 1459 1536 1600 1555 
L 2336 1670 
L 2362 1267 
z
" transform="scale(0.015625)"/>
      <path id="AppleGothic-b978" d="M 5299 -269 
Q 5184 -262 5085 -262 
Q 4986 -262 4915 -262 
Q 4378 -250 4019 -243 
Q 3661 -237 3475 -237 
Q 2867 -237 2380 -243 
Q 1894 -250 1440 -269 
L 1453 403 
L 1427 1242 
L 1638 1248 
Q 1683 1248 1737 1245 
Q 1792 1242 1840 1235 
Q 1888 1229 1920 1209 
Q 1952 1190 1952 1165 
Q 1952 1120 1946 1101 
Q 1933 1037 1923 998 
Q 1914 960 1914 941 
L 1888 589 
L 1894 134 
L 3514 128 
Q 4058 128 4480 134 
Q 4902 141 5299 154 
L 5299 -269 
z
M 6061 1638 
Q 6016 1638 5894 1638 
Q 5773 1638 5574 1645 
Q 5190 1651 4474 1664 
Q 4122 1670 3811 1673 
Q 3501 1677 3219 1677 
Q 2733 1677 2329 1673 
Q 1926 1670 1594 1664 
Q 1261 1658 960 1651 
Q 659 1645 384 1632 
L 384 2029 
Q 634 2022 1434 2010 
Q 1837 2003 2272 2003 
Q 2707 2003 3206 2003 
L 4518 2003 
Q 4838 2003 5081 2006 
Q 5325 2010 5507 2016 
Q 5690 2022 5824 2025 
Q 5958 2029 6061 2029 
L 6061 1638 
z
M 5133 2547 
L 1280 2547 
L 1299 3251 
L 1293 3891 
Q 1440 3885 1638 3878 
Q 1837 3872 2080 3866 
L 2918 3866 
L 4640 3872 
L 4640 4486 
L 3213 4486 
Q 2816 4486 2521 4486 
Q 2227 4486 2035 4480 
Q 1843 4480 1657 4477 
Q 1472 4474 1293 4467 
L 1293 4845 
Q 1440 4838 1667 4838 
Q 1894 4838 2208 4832 
Q 2522 4826 2784 4826 
Q 3046 4826 3270 4826 
L 5075 4838 
L 5062 4275 
L 5075 3571 
L 3782 3584 
L 1747 3565 
L 1747 2886 
L 3494 2874 
Q 4058 2874 4442 2886 
Q 4826 2899 5114 2912 
L 5133 2547 
z
" transform="scale(0.015625)"/>
      <path id="AppleGothic-41" d="M 2086 5018 
L 2579 5018 
L 4448 0 
L 3859 0 
L 3258 1715 
L 1350 1715 
L 723 0 
L 166 0 
L 2086 5018 
z
M 3117 2157 
L 2342 4416 
L 1504 2157 
L 3117 2157 
z
" transform="scale(0.015625)"/>
      <path id="AppleGothic-49" d="M 435 5018 
L 934 5018 
L 934 0 
L 435 0 
L 435 5018 
z
" transform="scale(0.015625)"/>
      <path id="AppleGothic-c5b8" d="M 3187 3264 
Q 3187 3731 2874 3987 
Q 2592 4211 2150 4211 
Q 1613 4211 1331 3930 
Q 1062 3680 1062 3302 
Q 1062 2931 1331 2675 
Q 1619 2387 2118 2387 
Q 2534 2387 2848 2605 
Q 3187 2854 3187 3264 
z
M 5562 -390 
L 3686 -378 
L 1530 -397 
Q 1536 -333 1536 -233 
Q 1536 -134 1542 0 
Q 1549 128 1549 249 
Q 1549 371 1549 480 
Q 1549 685 1549 816 
Q 1549 947 1542 1018 
Q 1542 1088 1539 1149 
Q 1536 1210 1530 1261 
L 1568 1261 
Q 1741 1261 1894 1245 
Q 2048 1229 2048 1178 
Q 2048 1158 2016 1075 
Q 1984 992 1984 934 
L 1984 -26 
L 3661 -38 
Q 4230 -38 4710 -25 
Q 5190 -13 5562 0 
L 5562 -390 
z
M 5421 5082 
Q 5421 5075 5411 5043 
Q 5402 5011 5392 4969 
Q 5382 4928 5372 4883 
Q 5363 4838 5363 4813 
Q 5357 4704 5357 4496 
Q 5357 4288 5350 3981 
Q 5344 3674 5344 3331 
Q 5344 2989 5344 2605 
L 5338 1498 
L 5357 1011 
L 4890 998 
Q 4902 1094 4908 1219 
Q 4915 1344 4915 1491 
L 4915 3059 
L 4390 3066 
L 3821 3040 
L 3821 3437 
Q 3872 3430 3942 3430 
Q 4013 3430 4109 3424 
Q 4205 3418 4272 3418 
Q 4339 3418 4384 3418 
Q 4576 3418 4701 3424 
Q 4826 3430 4915 3443 
L 4922 4794 
Q 4922 4960 4915 5046 
Q 4909 5133 4896 5190 
L 5024 5190 
Q 5210 5190 5315 5171 
Q 5421 5152 5421 5082 
z
M 3616 3251 
Q 3616 2669 3149 2323 
Q 2720 2010 2118 2010 
Q 1523 2010 1114 2310 
Q 646 2656 646 3258 
Q 646 3898 1062 4250 
Q 1491 4608 2144 4608 
Q 2778 4608 3200 4237 
Q 3616 3878 3616 3251 
z
" transform="scale(0.015625)"/>
      <path id="AppleGothic-c5b4" d="M 3136 2592 
Q 3136 3392 2816 3789 
Q 2541 4141 2067 4141 
Q 1581 4141 1318 3750 
Q 1056 3360 1056 2586 
Q 1056 1862 1395 1408 
Q 1709 998 2131 998 
Q 2541 998 2822 1389 
Q 3136 1824 3136 2592 
z
M 5434 5062 
Q 5434 5037 5414 4969 
Q 5395 4902 5395 4851 
L 5376 2579 
L 5376 1344 
Q 5382 979 5382 652 
Q 5382 326 5389 38 
Q 5395 -538 5402 -538 
L 4896 -570 
L 4928 2413 
L 3731 2413 
L 3731 2822 
L 4915 2822 
L 4922 4429 
Q 4922 4621 4922 4752 
Q 4922 4883 4915 4947 
Q 4915 5018 4912 5078 
Q 4909 5139 4902 5190 
Q 5139 5190 5286 5158 
Q 5434 5126 5434 5062 
z
M 3597 2605 
Q 3597 1773 3270 1254 
Q 2886 640 2086 640 
Q 1338 640 934 1254 
Q 589 1798 589 2618 
Q 589 3450 941 3955 
Q 1331 4518 2080 4518 
Q 2816 4518 3213 3968 
Q 3597 3450 3597 2605 
z
" transform="scale(0.015625)"/>
      <path id="AppleGothic-c774" d="M 3226 2534 
Q 3226 3309 2899 3725 
Q 2611 4090 2157 4090 
Q 1683 4090 1414 3690 
Q 1146 3290 1146 2534 
Q 1146 1811 1440 1382 
Q 1741 954 2240 954 
Q 2758 954 3021 1446 
Q 3226 1856 3226 2534 
z
M 5446 5082 
Q 5446 5062 5427 4982 
Q 5408 4902 5408 4832 
L 5434 -538 
L 4941 -589 
L 4960 2259 
Q 4960 3552 4941 4070 
Q 4934 4326 4931 4604 
Q 4928 4883 4915 5190 
L 5094 5197 
Q 5242 5197 5344 5174 
Q 5446 5152 5446 5082 
z
M 3686 2547 
Q 3686 2125 3612 1785 
Q 3539 1446 3379 1203 
Q 2995 582 2176 582 
Q 1408 582 1018 1203 
Q 678 1734 678 2560 
Q 678 3379 1050 3898 
Q 1453 4461 2170 4461 
Q 2912 4461 3309 3910 
Q 3686 3411 3686 2547 
z
" transform="scale(0.015625)"/>
      <path id="AppleGothic-d574" d="M 2861 1702 
Q 2861 2048 2694 2266 
Q 2490 2528 2131 2528 
Q 1773 2528 1562 2246 
Q 1389 2003 1389 1715 
Q 1389 1389 1587 1139 
Q 1786 902 2131 902 
Q 2509 902 2701 1171 
Q 2861 1389 2861 1702 
z
M 3309 1683 
Q 3309 1178 2938 826 
Q 2592 512 2163 512 
Q 1658 512 1306 851 
Q 960 1184 960 1734 
Q 960 2285 1344 2605 
Q 1664 2880 2125 2880 
Q 2611 2880 2944 2566 
Q 3309 2227 3309 1683 
z
M 5709 5024 
Q 5709 4986 5686 4890 
Q 5664 4794 5664 4742 
L 5664 1824 
Q 5664 1203 5670 598 
Q 5677 -6 5690 -493 
L 5210 -493 
L 5229 1280 
L 5216 2048 
L 4435 2048 
L 4435 1293 
L 4461 -134 
L 3981 -134 
L 3981 531 
Q 3987 749 3987 1024 
Q 3987 1299 3994 1645 
Q 4000 1990 4000 2342 
Q 4000 2694 4006 3078 
L 3987 5024 
Q 4211 5024 4348 4985 
Q 4486 4947 4486 4890 
Q 4486 4851 4460 4764 
Q 4435 4678 4435 4627 
L 4435 2445 
L 5229 2445 
L 5210 4749 
Q 5210 4858 5200 4973 
Q 5190 5088 5178 5184 
Q 5350 5184 5523 5146 
Q 5709 5114 5709 5024 
z
M 3597 3258 
L 2061 3277 
L 608 3264 
L 608 3635 
Q 928 3622 1309 3616 
Q 1690 3610 2042 3610 
Q 2419 3610 2835 3616 
Q 3251 3622 3597 3635 
L 3597 3258 
z
M 2861 4154 
L 2170 4166 
L 1434 4154 
L 1434 4538 
Q 1587 4525 1779 4518 
Q 1971 4512 2144 4512 
L 2861 4531 
L 2861 4154 
z
" transform="scale(0.015625)"/>
      <path id="AppleGothic-b825" d="M 5395 -480 
L 4922 -493 
Q 4928 -403 4931 -294 
Q 4934 -186 4934 -58 
Q 4941 77 4944 169 
Q 4947 262 4947 314 
L 4934 1082 
L 3290 1094 
Q 2688 1094 2182 1088 
Q 1677 1082 1280 1069 
L 1280 1466 
Q 1504 1459 1763 1452 
Q 2022 1446 2330 1434 
Q 2637 1427 2873 1424 
Q 3110 1421 3277 1421 
L 3597 1421 
L 4666 1421 
Q 4851 1427 5033 1430 
Q 5216 1434 5389 1440 
L 5376 358 
L 5376 -256 
Q 5382 -326 5385 -377 
Q 5389 -429 5395 -480 
z
M 3514 2093 
Q 3328 2061 3181 2035 
Q 3034 2010 2918 1997 
Q 2566 1946 2249 1920 
Q 1933 1894 1651 1894 
Q 1523 1894 1392 1891 
Q 1261 1888 1114 1882 
Q 966 1875 867 1872 
Q 768 1869 717 1869 
Q 717 1920 717 2029 
Q 717 2138 723 2310 
Q 730 2483 733 2582 
Q 736 2682 736 2701 
L 723 3558 
L 1555 3552 
L 2880 3584 
L 2880 4403 
L 1933 4403 
Q 1690 4403 1501 4403 
Q 1312 4403 1168 4400 
Q 1024 4397 915 4390 
Q 806 4384 717 4378 
L 717 4762 
L 1946 4742 
L 3315 4762 
L 3296 4051 
L 3315 3232 
Q 3181 3219 2829 3213 
Q 2656 3206 2531 3206 
Q 2406 3206 2336 3206 
L 1158 3206 
L 1158 2246 
L 1293 2246 
Q 1338 2246 1424 2249 
Q 1510 2253 1651 2259 
Q 1786 2266 1888 2269 
Q 1990 2272 2048 2272 
Q 2323 2272 2579 2291 
Q 2835 2310 3078 2355 
Q 3162 2368 3261 2390 
Q 3360 2413 3475 2445 
L 3514 2093 
z
M 5440 5094 
Q 5440 5069 5414 4995 
Q 5389 4922 5389 4870 
L 5376 3322 
Q 5376 3014 5376 2768 
Q 5376 2522 5379 2330 
Q 5382 2138 5385 1990 
Q 5389 1843 5389 1722 
L 4934 1696 
L 4947 2285 
L 4947 2643 
L 3763 2624 
L 3763 3014 
L 4422 3002 
L 4947 3014 
L 4947 3706 
L 4518 3693 
L 3757 3680 
L 3757 4064 
L 4461 4045 
L 4947 4058 
L 4947 4781 
Q 4947 4883 4937 4988 
Q 4928 5094 4915 5190 
L 5030 5190 
Q 5216 5190 5328 5171 
Q 5440 5152 5440 5094 
z
" transform="scale(0.015625)"/>
      <path id="AppleGothic-c0c1" d="M 5312 538 
Q 5312 -26 4698 -237 
Q 4237 -403 3264 -403 
Q 2381 -403 1837 -173 
Q 1235 77 1235 538 
Q 1235 1120 1843 1363 
Q 2074 1453 2426 1497 
Q 2778 1542 3258 1542 
Q 3686 1542 4019 1500 
Q 4352 1459 4595 1382 
Q 5312 1146 5312 538 
z
M 3942 2413 
Q 3942 2394 3866 2330 
Q 3648 2170 3635 2144 
Q 3546 2195 3469 2240 
Q 3392 2285 3334 2323 
Q 2970 2566 2717 2848 
Q 2464 3130 2278 3456 
Q 2253 3507 2221 3574 
Q 2189 3642 2144 3731 
Q 2093 3616 2051 3517 
Q 2010 3418 1971 3341 
Q 1843 3117 1692 2918 
Q 1542 2720 1357 2534 
Q 1229 2406 1094 2297 
Q 960 2189 819 2086 
Q 768 2054 713 2019 
Q 659 1984 589 1939 
Q 538 1965 416 2042 
Q 365 2093 291 2125 
Q 218 2157 218 2176 
L 230 2202 
Q 307 2246 364 2278 
Q 422 2310 474 2342 
Q 762 2534 1014 2777 
Q 1267 3021 1472 3322 
Q 1613 3514 1709 3718 
Q 1805 3923 1869 4141 
Q 1952 4435 1952 4736 
L 1946 4909 
Q 2016 4909 2099 4902 
Q 2182 4896 2278 4883 
Q 2477 4858 2477 4794 
Q 2477 4774 2419 4713 
Q 2362 4653 2362 4506 
Q 2362 4371 2403 4211 
Q 2445 4051 2573 3770 
Q 2746 3386 3091 3040 
Q 3213 2918 3353 2809 
Q 3494 2701 3661 2592 
Q 3910 2438 3930 2438 
L 3942 2413 
z
M 6010 2784 
L 5933 2784 
Q 5606 2803 5530 2803 
L 5114 2771 
L 5107 2342 
Q 5107 2080 5110 1949 
Q 5114 1818 5120 1734 
L 4653 1722 
Q 4666 1914 4672 2272 
Q 4678 2630 4678 3046 
Q 4678 3482 4678 3808 
Q 4678 4134 4672 4358 
Q 4672 4582 4669 4790 
Q 4666 4998 4659 5190 
L 4730 5190 
Q 4915 5190 5046 5171 
Q 5178 5152 5178 5094 
Q 5158 5030 5139 4969 
Q 5120 4909 5120 4845 
L 5107 4294 
L 5120 3162 
L 5504 3149 
Q 5690 3149 5814 3155 
Q 5939 3162 6010 3174 
L 6010 2784 
z
M 4858 544 
Q 4858 928 4333 1094 
Q 4141 1158 3872 1184 
Q 3603 1210 3258 1210 
Q 2464 1210 2118 1088 
Q 1683 928 1683 544 
Q 1715 282 2121 122 
Q 2528 -38 3270 -38 
Q 4058 -38 4416 70 
Q 4858 192 4858 544 
z
" transform="scale(0.015625)"/>
      <path id="AppleGothic-c2b9" d="M 4762 448 
Q 4762 794 4237 934 
Q 3853 1030 3155 1030 
Q 2413 1030 2061 915 
Q 1606 762 1606 378 
Q 1670 -160 3194 -160 
Q 3949 -160 4355 -19 
Q 4762 122 4762 448 
z
M 5261 429 
Q 5261 -83 4608 -339 
Q 4051 -550 3181 -550 
Q 2272 -550 1715 -320 
Q 1107 -64 1107 390 
Q 1107 954 1747 1203 
Q 2272 1408 3155 1408 
Q 4013 1408 4550 1222 
Q 5261 979 5261 429 
z
M 6042 2022 
Q 5997 2029 5955 2029 
Q 5914 2029 5869 2029 
Q 5555 2042 5212 2051 
Q 4870 2061 4506 2061 
L 3226 2048 
Q 2278 2048 1254 2010 
Q 890 1997 358 1971 
L 358 2426 
L 3232 2413 
Q 4192 2413 5184 2451 
Q 5357 2458 5571 2470 
Q 5786 2483 6042 2496 
L 6042 2022 
z
M 5747 3450 
L 5427 3059 
Q 5325 3072 5248 3088 
Q 5171 3104 5101 3117 
Q 4902 3174 4684 3254 
Q 4467 3334 4252 3443 
Q 4038 3552 3827 3699 
Q 3616 3846 3430 4038 
Q 3366 4102 3299 4182 
Q 3232 4262 3149 4371 
Q 3117 4320 3091 4281 
Q 3066 4243 3046 4211 
Q 2739 3827 2214 3494 
Q 2029 3373 1811 3273 
Q 1594 3174 1350 3104 
Q 1267 3078 1168 3059 
Q 1069 3040 941 3014 
Q 909 3046 886 3065 
Q 864 3085 851 3098 
Q 749 3194 707 3232 
Q 666 3270 646 3309 
Q 640 3315 637 3321 
Q 634 3328 627 3334 
Q 627 3360 688 3369 
Q 749 3379 755 3379 
Q 909 3411 1033 3443 
Q 1158 3475 1254 3507 
Q 1856 3699 2285 4045 
Q 2675 4346 2848 4768 
Q 2906 4909 2950 5133 
Q 2982 5133 3030 5129 
Q 3078 5126 3136 5120 
Q 3456 5082 3456 5018 
Q 3456 4986 3424 4925 
Q 3392 4864 3392 4838 
Q 3392 4640 3782 4288 
Q 4109 3994 4339 3872 
Q 4730 3667 5235 3552 
Q 5402 3514 5664 3475 
Q 5702 3462 5728 3456 
Q 5734 3456 5747 3450 
z
" transform="scale(0.015625)"/>
     </defs>
     <use xlink:href="#AppleGothic-c5d4"/>
     <use xlink:href="#AppleGothic-cf54" transform="translate(99.999985 0)"/>
     <use xlink:href="#AppleGothic-b354" transform="translate(199.999969 0)"/>
     <use xlink:href="#AppleGothic-28" transform="translate(299.999954 0)"/>
     <use xlink:href="#AppleGothic-45" transform="translate(349.999939 0)"/>
     <use xlink:href="#AppleGothic-6e" transform="translate(407.899933 0)"/>
     <use xlink:href="#AppleGothic-63" transform="translate(463.799927 0)"/>
     <use xlink:href="#AppleGothic-6f" transform="translate(515.699921 0)"/>
     <use xlink:href="#AppleGothic-64" transform="translate(573.999908 0)"/>
     <use xlink:href="#AppleGothic-65" transform="translate(627.999893 0)"/>
     <use xlink:href="#AppleGothic-72" transform="translate(682.899887 0)"/>
     <use xlink:href="#AppleGothic-29" transform="translate(718.099884 0)"/>
     <use xlink:href="#AppleGothic-20" transform="translate(768.099869 0)"/>
     <use xlink:href="#AppleGothic-ae30" transform="translate(800.099854 0)"/>
     <use xlink:href="#AppleGothic-c220" transform="translate(900.099838 0)"/>
     <use xlink:href="#AppleGothic-20" transform="translate(1000.099823 0)"/>
     <use xlink:href="#AppleGothic-c9c4" transform="translate(1032.099808 0)"/>
     <use xlink:href="#AppleGothic-bcf4" transform="translate(1132.099792 0)"/>
     <use xlink:href="#AppleGothic-c5d0" transform="translate(1232.099777 0)"/>
     <use xlink:href="#AppleGothic-20" transform="translate(1332.099762 0)"/>
     <use xlink:href="#AppleGothic-b530" transform="translate(1364.099747 0)"/>
     <use xlink:href="#AppleGothic-b978" transform="translate(1464.099731 0)"/>
     <use xlink:href="#AppleGothic-20" transform="translate(1564.099716 0)"/>
     <use xlink:href="#AppleGothic-41" transform="translate(1596.099701 0)"/>
     <use xlink:href="#AppleGothic-49" transform="translate(1668.699692 0)"/>
     <use xlink:href="#AppleGothic-20" transform="translate(1690.199677 0)"/>
     <use xlink:href="#AppleGothic-c5b8" transform="translate(1722.199661 0)"/>
     <use xlink:href="#AppleGothic-c5b4" transform="translate(1822.199646 0)"/>
     <use xlink:href="#AppleGothic-20" transform="translate(1922.199631 0)"/>
     <use xlink:href="#AppleGothic-c774" transform="translate(1954.199615 0)"/>
     <use xlink:href="#AppleGothic-d574" transform="translate(2054.1996 0)"/>
     <use xlink:href="#AppleGothic-b825" transform="translate(2154.199585 0)"/>
     <use xlink:href="#AppleGothic-20" transform="translate(2254.19957 0)"/>
     <use xlink:href="#AppleGothic-c0c1" transform="translate(2286.199554 0)"/>
     <use xlink:href="#AppleGothic-c2b9" transform="translate(2386.199539 0)"/>
    </g>
   </g>
   <g id="legend_1">
    <g id="patch_7">
     <path d="M 54.833125 83.552187 
L 152.755469 83.552187 
Q 154.955469 83.552187 154.955469 81.352187 
L 154.955469 33.445 
Q 154.955469 31.245 152.755469 31.245 
L 54.833125 31.245 
Q 52.633125 31.245 52.633125 33.445 
L 52.633125 81.352187 
Q 52.633125 83.552187 54.833125 83.552187 
z
" style="fill: #ffffff; opacity: 0.8; stroke: #cccccc; stroke-linejoin: miter"/>
    </g>
    <g id="text_15">
     <!-- Encoder -->
     <g style="fill: #262626" transform="translate(81.706797 45.05375) scale(0.12 -0.12)">
      <use xlink:href="#AppleGothic-45"/>
      <use xlink:href="#AppleGothic-6e" transform="translate(57.899994 0)"/>
      <use xlink:href="#AppleGothic-63" transform="translate(113.799988 0)"/>
      <use xlink:href="#AppleGothic-6f" transform="translate(165.699982 0)"/>
      <use xlink:href="#AppleGothic-64" transform="translate(223.999969 0)"/>
      <use xlink:href="#AppleGothic-65" transform="translate(277.999954 0)"/>
      <use xlink:href="#AppleGothic-72" transform="translate(332.899948 0)"/>
     </g>
    </g>
    <g id="line2d_30">
     <path d="M 57.033125 57.392812 
L 68.033125 57.392812 
L 79.033125 57.392812 
" style="fill: none; stroke: #1e90ff; stroke-width: 2.7; stroke-linecap: round"/>
     <g>
      <use xlink:href="#m269782d404" x="68.033125" y="57.392812" style="fill: #1e90ff; stroke: #1e90ff; stroke-width: 2.025"/>
     </g>
    </g>
    <g id="text_16">
     <!-- LSTM -->
     <g style="fill: #262626" transform="translate(87.833125 61.242812) scale(0.11 -0.11)">
      <defs>
       <path id="AppleGothic-4c" d="M 333 5018 
L 838 5018 
L 838 442 
L 3315 442 
L 3315 0 
L 333 0 
L 333 5018 
z
" transform="scale(0.015625)"/>
       <path id="AppleGothic-54" d="M 166 5018 
L 4038 5018 
L 4038 4576 
L 2355 4576 
L 2355 0 
L 1856 0 
L 1856 4576 
L 166 4576 
L 166 5018 
z
" transform="scale(0.015625)"/>
       <path id="AppleGothic-4d" d="M 288 0 
L 288 5018 
L 947 5018 
L 2893 864 
L 4902 5018 
L 5523 5018 
L 5523 0 
L 5069 0 
L 5069 4358 
L 3002 0 
L 2784 0 
L 749 4352 
L 749 0 
L 288 0 
z
" transform="scale(0.015625)"/>
      </defs>
      <use xlink:href="#AppleGothic-4c"/>
      <use xlink:href="#AppleGothic-53" transform="translate(55.199997 0)"/>
      <use xlink:href="#AppleGothic-54" transform="translate(118.399994 0)"/>
      <use xlink:href="#AppleGothic-4d" transform="translate(184.499985 0)"/>
     </g>
    </g>
    <g id="line2d_31">
     <path d="M 57.033125 73.409844 
L 68.033125 73.409844 
L 79.033125 73.409844 
" style="fill: none; stroke: #dc143c; stroke-width: 2.7; stroke-linecap: round"/>
     <g>
      <use xlink:href="#m91052820ee" x="68.033125" y="73.409844" style="fill: #dc143c; stroke: #dc143c; stroke-width: 2.025; stroke-linejoin: miter"/>
     </g>
    </g>
    <g id="text_17">
     <!-- Transformer -->
     <g style="fill: #262626" transform="translate(87.833125 77.259844) scale(0.11 -0.11)">
      <defs>
       <path id="AppleGothic-73" d="M 224 294 
L 224 851 
Q 621 531 1030 403 
Q 1152 371 1267 355 
Q 1382 339 1504 339 
Q 1894 339 2150 518 
Q 2413 710 2413 947 
Q 2413 1075 2317 1210 
Q 2182 1376 1600 1510 
Q 909 1683 678 1798 
Q 230 2054 230 2515 
Q 230 2944 602 3219 
Q 979 3501 1542 3501 
Q 1798 3501 2003 3456 
Q 2208 3411 2387 3337 
Q 2566 3264 2720 3155 
L 2720 2598 
Q 2451 2822 2156 2953 
Q 1862 3085 1536 3085 
Q 1210 3085 973 2938 
Q 730 2790 730 2554 
Q 730 2240 1306 2054 
Q 1574 1978 1836 1901 
Q 2099 1824 2368 1747 
Q 2950 1498 2950 992 
Q 2950 563 2547 237 
Q 2138 -83 1530 -83 
Q 1261 -83 1005 -26 
Q 595 64 224 294 
z
" transform="scale(0.015625)"/>
       <path id="AppleGothic-66" d="M 646 3430 
L 646 4083 
Q 646 4538 819 4774 
Q 1037 5101 1555 5101 
Q 1613 5101 1657 5097 
Q 1702 5094 1750 5088 
Q 1798 5082 1862 5062 
Q 1926 5043 2016 5018 
L 2016 4595 
Q 1997 4621 1837 4653 
Q 1766 4666 1712 4672 
Q 1658 4678 1619 4678 
Q 1350 4678 1228 4524 
Q 1107 4371 1107 4083 
L 1107 3430 
L 2016 3430 
L 2016 3014 
L 1107 3014 
L 1107 0 
L 646 0 
L 646 3014 
L 64 3014 
L 64 3430 
L 646 3430 
z
" transform="scale(0.015625)"/>
       <path id="AppleGothic-6d" d="M 5389 2195 
L 5389 0 
L 4922 0 
L 4922 2304 
Q 4922 2669 4672 2893 
Q 4461 3085 4173 3085 
Q 3744 3085 3405 2688 
Q 3072 2298 3072 1722 
L 3072 0 
L 2605 0 
L 2605 2304 
Q 2605 2650 2368 2861 
Q 2144 3085 1856 3085 
Q 1440 3085 1114 2714 
Q 755 2304 755 1702 
L 755 0 
L 288 0 
L 288 3424 
L 723 3424 
L 742 2880 
Q 928 3181 1274 3354 
Q 1581 3501 1894 3501 
Q 2381 3501 2714 3219 
Q 2957 3008 3021 2797 
Q 3149 3034 3386 3226 
Q 3757 3501 4205 3501 
Q 4749 3501 5050 3174 
Q 5389 2803 5389 2195 
z
" transform="scale(0.015625)"/>
      </defs>
      <use xlink:href="#AppleGothic-54"/>
      <use xlink:href="#AppleGothic-72" transform="translate(66.099991 0)"/>
      <use xlink:href="#AppleGothic-61" transform="translate(101.299988 0)"/>
      <use xlink:href="#AppleGothic-6e" transform="translate(157.799973 0)"/>
      <use xlink:href="#AppleGothic-73" transform="translate(213.699966 0)"/>
      <use xlink:href="#AppleGothic-66" transform="translate(263.299957 0)"/>
      <use xlink:href="#AppleGothic-6f" transform="translate(297.299942 0)"/>
      <use xlink:href="#AppleGothic-72" transform="translate(355.59993 0)"/>
      <use xlink:href="#AppleGothic-6d" transform="translate(390.799927 0)"/>
      <use xlink:href="#AppleGothic-65" transform="translate(480.099915 0)"/>
      <use xlink:href="#AppleGothic-72" transform="translate(534.999908 0)"/>
     </g>
    </g>
   </g>
  </g>
 </g>
 <defs>
  <clipPath id="p0ec424eb13">
   <rect x="47.133125" y="25.745" width="558" height="332.64"/>
  </clipPath>
 </defs>
</svg>
