<?xml version="1.0" encoding="utf-8" standalone="no"?>
<!DOCTYPE svg PUBLIC "-//W3C//DTD SVG 1.1//EN"
  "http://www.w3.org/Graphics/SVG/1.1/DTD/svg11.dtd">
<svg xmlns:xlink="http://www.w3.org/1999/xlink" width="619.813125pt" height="397.938906pt" viewBox="0 0 619.813125 397.938906" xmlns="http://www.w3.org/2000/svg" version="1.1">
 <metadata>
  <rdf:RDF xmlns:dc="http://purl.org/dc/elements/1.1/" xmlns:cc="http://creativecommons.org/ns#" xmlns:rdf="http://www.w3.org/1999/02/22-rdf-syntax-ns#">
   <cc:Work>
    <dc:type rdf:resource="http://purl.org/dc/dcmitype/StillImage"/>
    <dc:date>2026-05-22T02:33:56.108377</dc:date>
    <dc:format>image/svg+xml</dc:format>
    <dc:creator>
     <cc:Agent>
      <dc:title>Matplotlib v3.10.9, https://matplotlib.org/</dc:title>
     </cc:Agent>
    </dc:creator>
   </cc:Work>
  </rdf:RDF>
 </metadata>
 <defs>
  <style type="text/css">*{stroke-linejoin: round; stroke-linecap: butt}</style>
 </defs>
 <g id="figure_1">
  <g id="patch_1">
   <path d="M 0 397.938906 
L 619.813125 397.938906 
L 619.813125 0 
L 0 0 
z
" style="fill: #ffffff"/>
  </g>
  <g id="axes_1">
   <g id="patch_2">
    <path d="M 54.613125 355.24875 
L 612.613125 355.24875 
L 612.613125 22.60875 
L 54.613125 22.60875 
z
" style="fill: #ffffff"/>
   </g>
   <g id="matplotlib.axis_1">
    <g id="xtick_1">
     <g id="line2d_1">
      <defs>
       <path id="m6e7c8de22a" d="M 0 0 
L 0 6 
" style="stroke: #262626; stroke-width: 1.25"/>
      </defs>
      <g>
       <use xlink:href="#m6e7c8de22a" x="147.613125" y="355.24875" style="fill: #262626; stroke: #262626; stroke-width: 1.25"/>
      </g>
     </g>
     <g id="text_1">
      <!-- 1 min -->
      <g style="fill: #262626" transform="translate(133.252109 373.373437) scale(0.11 -0.11)">
       <defs>
        <path id="AppleGothic-31" d="M 2342 4774 
L 2752 4774 
L 2752 0 
L 2285 0 
L 2285 3526 
L 1158 3526 
L 1158 3885 
L 1414 3885 
Q 1990 3885 2214 4205 
Q 2342 4410 2342 4774 
z
" transform="scale(0.015625)"/>
        <path id="AppleGothic-20" transform="scale(0.015625)"/>
        <path id="AppleGothic-6d" d="M 5389 2195 
L 5389 0 
L 4922 0 
L 4922 2304 
Q 4922 2669 4672 2893 
Q 4461 3085 4173 3085 
Q 3744 3085 3405 2688 
Q 3072 2298 3072 1722 
L 3072 0 
L 2605 0 
L 2605 2304 
Q 2605 2650 2368 2861 
Q 2144 3085 1856 3085 
Q 1440 3085 1114 2714 
Q 755 2304 755 1702 
L 755 0 
L 288 0 
L 288 3424 
L 723 3424 
L 742 2880 
Q 928 3181 1274 3354 
Q 1581 3501 1894 3501 
Q 2381 3501 2714 3219 
Q 2957 3008 3021 2797 
Q 3149 3034 3386 3226 
Q 3757 3501 4205 3501 
Q 4749 3501 5050 3174 
Q 5389 2803 5389 2195 
z
" transform="scale(0.015625)"/>
        <path id="AppleGothic-69" d="M 256 3424 
L 717 3424 
L 717 0 
L 256 0 
L 256 3424 
z
M 480 4870 
Q 614 4870 704 4780 
Q 794 4691 794 4525 
Q 794 4358 710 4268 
Q 627 4179 480 4179 
Q 333 4179 253 4281 
Q 173 4384 173 4518 
Q 173 4730 269 4800 
Q 365 4870 480 4870 
z
" transform="scale(0.015625)"/>
        <path id="AppleGothic-6e" d="M 3264 2291 
L 3264 0 
L 2803 0 
L 2803 2259 
Q 2803 2618 2541 2848 
Q 2278 3085 1914 3085 
Q 1427 3085 1075 2682 
Q 723 2272 723 1760 
L 723 0 
L 288 0 
L 288 3424 
L 691 3424 
L 710 2784 
Q 883 3046 1114 3219 
Q 1491 3501 1965 3501 
Q 2515 3501 2886 3168 
Q 3264 2842 3264 2291 
z
" transform="scale(0.015625)"/>
       </defs>
       <use xlink:href="#AppleGothic-31"/>
       <use xlink:href="#AppleGothic-20" transform="translate(67.999985 0)"/>
       <use xlink:href="#AppleGothic-6d" transform="translate(99.999969 0)"/>
       <use xlink:href="#AppleGothic-69" transform="translate(189.299957 0)"/>
       <use xlink:href="#AppleGothic-6e" transform="translate(205.199951 0)"/>
      </g>
     </g>
    </g>
    <g id="xtick_2">
     <g id="line2d_2">
      <g>
       <use xlink:href="#m6e7c8de22a" x="333.613125" y="355.24875" style="fill: #262626; stroke: #262626; stroke-width: 1.25"/>
      </g>
     </g>
     <g id="text_2">
      <!-- 15 min -->
      <g style="fill: #262626" transform="translate(315.512109 373.373437) scale(0.11 -0.11)">
       <defs>
        <path id="AppleGothic-35" d="M 621 4768 
L 3488 4768 
L 3488 4339 
L 1088 4339 
L 1088 2707 
Q 1184 2771 1293 2819 
Q 1402 2867 1510 2912 
Q 1862 3040 2259 3040 
Q 2989 3040 3424 2605 
Q 3827 2202 3827 1581 
Q 3827 870 3296 397 
Q 2765 -83 2010 -83 
Q 1651 -83 1248 45 
Q 1158 77 1001 137 
Q 845 198 621 301 
L 621 838 
Q 928 640 1203 525 
Q 1408 435 1613 390 
Q 1818 346 2010 346 
Q 2528 346 2906 666 
Q 3322 1011 3322 1536 
Q 3322 1990 3021 2291 
Q 2701 2611 2144 2611 
Q 1856 2611 1587 2528 
Q 1318 2445 1088 2272 
L 621 2272 
L 621 4768 
z
" transform="scale(0.015625)"/>
       </defs>
       <use xlink:href="#AppleGothic-31"/>
       <use xlink:href="#AppleGothic-35" transform="translate(67.999985 0)"/>
       <use xlink:href="#AppleGothic-20" transform="translate(135.999969 0)"/>
       <use xlink:href="#AppleGothic-6d" transform="translate(167.999954 0)"/>
       <use xlink:href="#AppleGothic-69" transform="translate(257.299942 0)"/>
       <use xlink:href="#AppleGothic-6e" transform="translate(273.199936 0)"/>
      </g>
     </g>
    </g>
    <g id="xtick_3">
     <g id="line2d_3">
      <g>
       <use xlink:href="#m6e7c8de22a" x="519.613125" y="355.24875" style="fill: #262626; stroke: #262626; stroke-width: 1.25"/>
      </g>
     </g>
     <g id="text_3">
      <!-- 30 min -->
      <g style="fill: #262626" transform="translate(501.512109 373.373437) scale(0.11 -0.11)">
       <defs>
        <path id="AppleGothic-33" d="M 550 333 
L 550 870 
Q 883 621 1235 483 
Q 1587 346 1971 346 
Q 2522 346 2861 666 
Q 3219 992 3219 1421 
Q 3219 1869 2842 2099 
Q 2515 2304 1965 2304 
L 992 2304 
L 992 2701 
L 1658 2701 
Q 2298 2701 2662 2928 
Q 3027 3155 3027 3584 
Q 3027 3936 2752 4173 
Q 2458 4429 1978 4429 
Q 1786 4429 1597 4393 
Q 1408 4358 1222 4282 
Q 890 4141 531 3872 
L 531 4422 
Q 736 4531 912 4608 
Q 1088 4685 1254 4736 
Q 1626 4858 2022 4858 
Q 2650 4858 3066 4531 
Q 3488 4211 3488 3642 
Q 3488 3168 3168 2861 
Q 2976 2675 2643 2554 
Q 2874 2522 3053 2448 
Q 3232 2374 3366 2266 
Q 3718 1971 3718 1434 
Q 3718 813 3219 365 
Q 2714 -83 1965 -83 
Q 1549 -83 1126 70 
Q 1024 102 880 166 
Q 736 230 550 333 
z
" transform="scale(0.015625)"/>
        <path id="AppleGothic-30" d="M 2227 -83 
Q 1414 -83 934 576 
Q 461 1229 461 2387 
Q 461 3552 973 4218 
Q 1453 4858 2221 4858 
Q 3027 4858 3482 4173 
Q 3955 3494 3955 2394 
Q 3955 1248 3462 582 
Q 2976 -83 2227 -83 
z
M 2176 346 
Q 2861 346 3200 992 
Q 3462 1536 3462 2400 
Q 3462 3315 3162 3859 
Q 2822 4429 2214 4429 
Q 1574 4429 1248 3821 
Q 960 3283 960 2374 
Q 960 1478 1248 941 
Q 1574 346 2176 346 
z
" transform="scale(0.015625)"/>
       </defs>
       <use xlink:href="#AppleGothic-33"/>
       <use xlink:href="#AppleGothic-30" transform="translate(67.999985 0)"/>
       <use xlink:href="#AppleGothic-20" transform="translate(135.999969 0)"/>
       <use xlink:href="#AppleGothic-6d" transform="translate(167.999954 0)"/>
       <use xlink:href="#AppleGothic-69" transform="translate(257.299942 0)"/>
       <use xlink:href="#AppleGothic-6e" transform="translate(273.199936 0)"/>
      </g>
     </g>
    </g>
    <g id="text_4">
     <!-- 측정 시점 (분) -->
     <g style="fill: #262626" transform="translate(293.773125 388.674531) scale(0.12 -0.12)">
      <defs>
       <path id="AppleGothic-ce21" d="M 5056 -563 
L 4557 -563 
L 4576 147 
L 4563 845 
L 2906 858 
Q 2502 858 2220 858 
Q 1939 858 1760 851 
Q 1414 851 1184 832 
L 1184 1248 
Q 1299 1242 1494 1242 
Q 1690 1242 1958 1235 
Q 2227 1229 2480 1229 
Q 2733 1229 2976 1229 
Q 3859 1242 4377 1251 
Q 4896 1261 5050 1261 
L 5056 -563 
z
M 6003 1779 
Q 5779 1779 5580 1779 
Q 5382 1779 5203 1786 
Q 4339 1798 3840 1808 
Q 3341 1818 3206 1818 
Q 2938 1818 2550 1811 
Q 2163 1805 1664 1792 
Q 1158 1779 838 1772 
Q 518 1766 371 1766 
L 371 2189 
Q 1267 2189 1948 2182 
Q 2630 2176 3219 2170 
Q 3750 2170 4480 2189 
Q 4851 2202 5228 2211 
Q 5606 2221 6003 2234 
L 6003 1779 
z
M 5530 3014 
L 5261 2611 
Q 4595 2701 4128 2912 
Q 3584 3162 3194 3629 
Q 2893 3219 2234 2912 
Q 1581 2605 1050 2605 
Q 966 2714 889 2819 
Q 813 2925 704 3008 
Q 1421 3008 1990 3232 
Q 2714 3514 2963 4051 
L 2106 4051 
Q 1811 4051 1523 4041 
Q 1235 4032 1069 4026 
L 1069 4422 
Q 1139 4422 1363 4419 
Q 1587 4416 1971 4410 
Q 2355 4403 2662 4403 
Q 2970 4403 3213 4403 
Q 3494 4403 3772 4403 
Q 4051 4403 4339 4416 
Q 4915 4435 5312 4454 
L 5312 4058 
L 4275 4070 
L 3469 4051 
Q 3507 3846 3724 3644 
Q 3942 3443 4294 3277 
Q 4582 3142 4992 3066 
Q 5158 3040 5289 3027 
Q 5421 3014 5530 3014 
z
M 3936 4774 
L 3219 4787 
L 2477 4774 
L 2477 5165 
Q 2534 5165 2665 5161 
Q 2797 5158 2995 5152 
Q 3200 5146 3315 5142 
Q 3430 5139 3462 5139 
L 3533 5139 
Q 3648 5139 3757 5145 
Q 3866 5152 3936 5171 
L 3936 4774 
z
" transform="scale(0.015625)"/>
       <path id="AppleGothic-c815" d="M 4973 531 
Q 4973 1018 4141 1120 
Q 3853 1158 3341 1158 
L 3206 1158 
Q 2586 1158 2227 1069 
Q 1702 934 1702 595 
Q 1702 192 2291 45 
Q 2483 -6 2745 -32 
Q 3008 -58 3334 -58 
L 3494 -58 
Q 4326 -58 4678 122 
Q 4973 256 4973 531 
z
M 5414 557 
Q 5414 102 5005 -134 
Q 4538 -416 3392 -416 
L 3213 -416 
Q 2342 -416 1869 -218 
Q 1280 19 1280 563 
Q 1280 1133 1978 1350 
Q 2214 1427 2556 1462 
Q 2899 1498 3341 1498 
Q 3789 1498 4128 1462 
Q 4467 1427 4698 1350 
Q 5414 1133 5414 557 
z
M 3955 2362 
Q 3955 2342 3907 2294 
Q 3859 2246 3834 2221 
Q 3782 2163 3753 2121 
Q 3725 2080 3706 2048 
Q 3635 2080 3577 2105 
Q 3520 2131 3469 2157 
Q 3322 2240 3165 2355 
Q 3008 2470 2842 2624 
Q 2605 2848 2438 3174 
Q 2406 3232 2374 3305 
Q 2342 3379 2304 3475 
Q 2266 3386 2224 3312 
Q 2182 3238 2150 3181 
Q 2042 3008 1923 2854 
Q 1805 2701 1677 2573 
Q 1523 2426 1363 2304 
Q 1203 2182 1030 2074 
Q 973 2042 902 2006 
Q 832 1971 742 1926 
Q 685 1971 640 2000 
Q 595 2029 550 2061 
Q 397 2170 397 2202 
Q 403 2227 410 2227 
Q 1139 2496 1606 3066 
Q 2106 3686 2106 4429 
L 768 4410 
L 768 4794 
Q 1088 4781 1469 4774 
Q 1850 4768 2214 4768 
L 3699 4781 
L 3699 4403 
L 2541 4422 
Q 2534 4390 2531 4329 
Q 2528 4269 2528 4224 
Q 2528 4077 2553 3926 
Q 2579 3776 2669 3571 
Q 2880 3053 3430 2675 
Q 3603 2554 3936 2400 
L 3955 2362 
z
M 5427 5101 
Q 5427 5094 5398 4995 
Q 5370 4896 5370 4832 
L 5370 4512 
Q 5350 3302 5350 2995 
L 5350 1664 
L 4909 1664 
L 4915 3309 
Q 4659 3309 4237 3290 
Q 4026 3283 3904 3280 
Q 3782 3277 3738 3277 
L 3738 3654 
L 4358 3642 
L 4928 3654 
L 4928 4896 
L 4915 5190 
Q 5120 5190 5273 5177 
Q 5427 5165 5427 5101 
z
" transform="scale(0.015625)"/>
       <path id="AppleGothic-c2dc" d="M 5459 5062 
Q 5459 5043 5440 4969 
Q 5421 4896 5421 4826 
L 5402 2349 
L 5414 -531 
L 4909 -557 
Q 4915 -410 4915 -278 
Q 4915 -147 4922 -19 
Q 4928 218 4941 1190 
Q 4960 2150 4960 2253 
Q 4960 3923 4941 4416 
Q 4934 4915 4922 5190 
Q 5146 5190 5302 5158 
Q 5459 5126 5459 5062 
z
M 4250 1478 
Q 4250 1459 4224 1434 
Q 4211 1421 4179 1395 
Q 4147 1370 4109 1338 
L 3917 1178 
Q 3866 1210 3821 1242 
Q 3776 1274 3738 1306 
Q 3290 1658 2899 2227 
Q 2707 2496 2534 2918 
Q 2515 2976 2483 3072 
Q 2451 3168 2400 3309 
Q 2221 2688 1754 2054 
Q 1267 1389 710 1114 
Q 698 1120 653 1155 
Q 608 1190 518 1254 
Q 486 1280 444 1312 
Q 403 1344 346 1395 
Q 346 1421 371 1427 
Q 397 1440 406 1449 
Q 416 1459 422 1466 
Q 467 1466 710 1645 
Q 896 1773 1056 1920 
Q 1216 2067 1350 2234 
Q 1549 2464 1696 2729 
Q 1843 2995 1952 3296 
Q 2061 3610 2125 4000 
Q 2157 4205 2173 4381 
Q 2189 4557 2189 4717 
Q 2323 4717 2534 4678 
Q 2752 4653 2752 4576 
Q 2752 4544 2710 4470 
Q 2669 4397 2669 4378 
L 2630 4032 
Q 2656 3923 2681 3814 
Q 2707 3706 2739 3597 
Q 2790 3430 2857 3248 
Q 2925 3066 3021 2867 
Q 3264 2349 3757 1894 
Q 3840 1818 3949 1728 
Q 4058 1638 4198 1530 
L 4237 1491 
L 4250 1478 
z
" transform="scale(0.015625)"/>
       <path id="AppleGothic-c810" d="M 4941 -6 
L 4941 1094 
Q 4800 1101 4601 1107 
Q 4403 1114 4141 1120 
Q 3885 1126 3661 1129 
Q 3437 1133 3245 1133 
Q 2963 1133 2748 1133 
Q 2534 1133 2374 1126 
Q 2214 1126 2057 1123 
Q 1901 1120 1741 1114 
L 1741 6 
Q 1830 6 2009 6 
Q 2189 6 2470 0 
Q 2746 -6 2915 -9 
Q 3085 -13 3142 -13 
L 4941 -6 
z
M 5395 -486 
L 4941 -499 
L 4915 -365 
L 1766 -352 
L 1747 -474 
L 1280 -480 
L 1293 570 
L 1280 1478 
Q 1702 1466 2217 1462 
Q 2733 1459 3258 1459 
L 5382 1459 
L 5376 205 
L 5376 -243 
Q 5382 -314 5385 -371 
Q 5389 -429 5395 -486 
z
M 4006 2259 
L 3859 2106 
Q 3808 2054 3760 2012 
Q 3712 1971 3661 1920 
Q 3571 1965 3497 2003 
Q 3424 2042 3360 2074 
Q 3181 2182 3024 2310 
Q 2867 2438 2726 2592 
Q 2515 2810 2362 3162 
Q 2336 3219 2310 3296 
Q 2285 3373 2253 3475 
Q 2221 3379 2195 3328 
Q 2022 2931 1670 2573 
Q 1542 2445 1379 2313 
Q 1216 2182 1005 2035 
Q 934 1997 844 1939 
Q 755 1882 646 1811 
L 314 2112 
L 326 2131 
Q 1030 2419 1485 2982 
Q 1997 3603 1997 4314 
L 1990 4429 
Q 1875 4442 1718 4448 
Q 1562 4454 1312 4454 
L 640 4448 
L 640 4845 
Q 742 4838 892 4832 
Q 1043 4826 1222 4822 
Q 1402 4819 1600 4816 
Q 1798 4813 2003 4813 
L 2234 4813 
Q 2579 4813 2828 4816 
Q 3078 4819 3232 4826 
Q 3386 4832 3510 4838 
Q 3635 4845 3744 4858 
L 3744 4422 
L 3142 4435 
L 2490 4422 
Q 2490 4102 2534 3885 
Q 2592 3558 2778 3245 
Q 3040 2797 3552 2483 
Q 3725 2374 4006 2259 
z
M 5446 5107 
Q 5446 5094 5408 4995 
Q 5370 4896 5370 4806 
L 5395 1830 
L 4928 1805 
L 4941 2381 
L 4941 3232 
L 4333 3245 
L 3642 3226 
L 3642 3603 
Q 3674 3603 3754 3603 
Q 3834 3603 3962 3597 
Q 4090 3590 4179 3590 
Q 4269 3590 4320 3590 
L 4941 3603 
L 4941 4742 
Q 4941 4954 4934 5053 
Q 4928 5152 4915 5190 
L 4998 5190 
Q 5171 5190 5308 5174 
Q 5446 5158 5446 5107 
z
" transform="scale(0.015625)"/>
       <path id="AppleGothic-28" d="M 2227 5261 
L 2650 5261 
Q 2342 4768 2169 4473 
Q 1997 4179 1958 4083 
Q 1606 3283 1606 2272 
Q 1606 1587 1754 1018 
Q 1882 570 2138 102 
Q 2150 70 2275 -131 
Q 2400 -333 2630 -717 
L 2227 -717 
Q 2099 -531 1980 -355 
Q 1862 -179 1734 0 
Q 1581 243 1469 483 
Q 1357 723 1274 954 
Q 1069 1587 1069 2272 
Q 1069 2963 1261 3558 
Q 1338 3789 1450 4022 
Q 1562 4256 1715 4499 
Q 1843 4691 1971 4880 
Q 2099 5069 2227 5261 
z
" transform="scale(0.015625)"/>
       <path id="AppleGothic-bd84" d="M 4557 3194 
L 4557 4077 
L 3130 4096 
L 1754 4077 
L 1754 3194 
L 3110 3174 
L 4557 3194 
z
M 5210 -429 
L 3194 -410 
L 1325 -429 
L 1338 474 
L 1325 1197 
L 1549 1203 
Q 1645 1203 1741 1190 
Q 1837 1178 1837 1114 
Q 1837 1094 1817 1030 
Q 1798 966 1798 934 
L 1792 -38 
L 3194 -38 
Q 3539 -38 3820 -38 
Q 4102 -38 4342 -32 
Q 4582 -26 4793 -22 
Q 5005 -19 5210 -6 
L 5210 -429 
z
M 6016 1760 
Q 5504 1760 4614 1779 
Q 4166 1792 3878 1798 
Q 3590 1805 3462 1805 
L 3475 627 
L 2995 621 
L 3002 1805 
L 1670 1792 
Q 1222 1792 915 1779 
Q 608 1766 384 1754 
L 384 2182 
Q 474 2182 621 2179 
Q 768 2176 979 2170 
Q 1190 2163 1472 2160 
Q 1754 2157 2099 2150 
Q 2445 2144 2720 2141 
Q 2995 2138 3200 2138 
Q 3744 2138 4550 2157 
Q 4960 2170 5213 2176 
Q 5466 2182 5568 2189 
Q 5677 2195 5789 2201 
Q 5901 2208 6016 2214 
L 6016 1760 
z
M 5043 5094 
Q 5043 5069 5024 5011 
Q 5005 4954 5005 4934 
L 4992 4122 
L 5011 2803 
L 3104 2822 
L 1306 2803 
Q 1306 2880 1309 3005 
Q 1312 3130 1315 3280 
Q 1318 3430 1321 3593 
Q 1325 3757 1325 3917 
Q 1325 4390 1318 4678 
Q 1312 4966 1299 5158 
L 1472 5165 
Q 1613 5165 1699 5142 
Q 1786 5120 1786 5056 
Q 1786 5024 1770 4957 
Q 1754 4890 1754 4870 
L 1754 4442 
L 3136 4422 
L 4557 4442 
L 4544 5197 
L 4704 5203 
Q 4851 5203 4947 5180 
Q 5043 5158 5043 5094 
z
" transform="scale(0.015625)"/>
       <path id="AppleGothic-29" d="M 2221 2272 
Q 2221 1587 2016 960 
Q 1862 499 1555 6 
Q 1427 -179 1305 -355 
Q 1184 -531 1062 -717 
L 659 -717 
Q 781 -512 902 -310 
Q 1024 -109 1152 96 
Q 1280 333 1376 557 
Q 1472 781 1530 1005 
Q 1683 1562 1683 2272 
Q 1683 2650 1641 2973 
Q 1600 3296 1517 3584 
Q 1459 3802 1356 4029 
Q 1254 4256 1120 4499 
Q 992 4691 873 4880 
Q 755 5069 640 5261 
L 1062 5261 
Q 1190 5069 1315 4880 
Q 1440 4691 1568 4506 
Q 1722 4256 1837 4022 
Q 1952 3789 2022 3565 
Q 2221 2976 2221 2272 
z
" transform="scale(0.015625)"/>
      </defs>
      <use xlink:href="#AppleGothic-ce21"/>
      <use xlink:href="#AppleGothic-c815" transform="translate(99.999985 0)"/>
      <use xlink:href="#AppleGothic-20" transform="translate(199.999969 0)"/>
      <use xlink:href="#AppleGothic-c2dc" transform="translate(231.999954 0)"/>
      <use xlink:href="#AppleGothic-c810" transform="translate(331.999939 0)"/>
      <use xlink:href="#AppleGothic-20" transform="translate(431.999924 0)"/>
      <use xlink:href="#AppleGothic-28" transform="translate(463.999908 0)"/>
      <use xlink:href="#AppleGothic-bd84" transform="translate(513.999893 0)"/>
      <use xlink:href="#AppleGothic-29" transform="translate(613.999878 0)"/>
     </g>
    </g>
   </g>
   <g id="matplotlib.axis_2">
    <g id="ytick_1">
     <g id="line2d_4">
      <path d="M 54.613125 318.35595 
L 612.613125 318.35595 
" clip-path="url(#p6b8bea47b5)" style="fill: none; stroke-dasharray: 3.7,1.6; stroke-dashoffset: 0; stroke: #cccccc; stroke-opacity: 0.6"/>
     </g>
     <g id="line2d_5">
      <defs>
       <path id="m67ab73ab0b" d="M 0 0 
L -6 0 
" style="stroke: #262626; stroke-width: 1.25"/>
      </defs>
      <g>
       <use xlink:href="#m67ab73ab0b" x="54.613125" y="318.35595" style="fill: #262626; stroke: #262626; stroke-width: 1.25"/>
      </g>
     </g>
     <g id="text_5">
      <!-- 90 -->
      <g style="fill: #262626" transform="translate(30.153125 322.668294) scale(0.11 -0.11)">
       <defs>
        <path id="AppleGothic-39" d="M 928 211 
L 928 762 
Q 1050 672 1155 601 
Q 1261 531 1363 480 
Q 1702 320 2016 320 
Q 2291 320 2541 435 
Q 2739 525 2908 675 
Q 3078 826 3213 1037 
Q 3456 1408 3552 1843 
Q 3616 2144 3616 2573 
Q 3315 2272 3066 2125 
Q 2605 1850 2093 1850 
Q 1459 1850 1037 2214 
Q 589 2598 589 3270 
Q 589 3987 1082 4416 
Q 1549 4832 2234 4832 
Q 2970 4832 3494 4301 
Q 4122 3661 4122 2528 
Q 4122 1325 3475 582 
Q 2874 -109 2035 -109 
Q 1722 -109 1357 19 
Q 1254 51 1148 102 
Q 1043 154 928 211 
z
M 3578 3066 
Q 3462 3718 3053 4077 
Q 2675 4403 2227 4403 
Q 1715 4403 1402 4083 
Q 1082 3750 1082 3302 
Q 1082 2861 1370 2566 
Q 1658 2278 2125 2278 
Q 2573 2278 2915 2473 
Q 3258 2669 3578 3066 
z
" transform="scale(0.015625)"/>
       </defs>
       <use xlink:href="#AppleGothic-39"/>
       <use xlink:href="#AppleGothic-30" transform="translate(67.999985 0)"/>
      </g>
     </g>
    </g>
    <g id="ytick_2">
     <g id="line2d_6">
      <path d="M 54.613125 257.87595 
L 612.613125 257.87595 
" clip-path="url(#p6b8bea47b5)" style="fill: none; stroke-dasharray: 3.7,1.6; stroke-dashoffset: 0; stroke: #cccccc; stroke-opacity: 0.6"/>
     </g>
     <g id="line2d_7">
      <g>
       <use xlink:href="#m67ab73ab0b" x="54.613125" y="257.87595" style="fill: #262626; stroke: #262626; stroke-width: 1.25"/>
      </g>
     </g>
     <g id="text_6">
      <!-- 100 -->
      <g style="fill: #262626" transform="translate(22.673125 262.188294) scale(0.11 -0.11)">
       <use xlink:href="#AppleGothic-31"/>
       <use xlink:href="#AppleGothic-30" transform="translate(67.999985 0)"/>
       <use xlink:href="#AppleGothic-30" transform="translate(135.999969 0)"/>
      </g>
     </g>
    </g>
    <g id="ytick_3">
     <g id="line2d_8">
      <path d="M 54.613125 197.39595 
L 612.613125 197.39595 
" clip-path="url(#p6b8bea47b5)" style="fill: none; stroke-dasharray: 3.7,1.6; stroke-dashoffset: 0; stroke: #cccccc; stroke-opacity: 0.6"/>
     </g>
     <g id="line2d_9">
      <g>
       <use xlink:href="#m67ab73ab0b" x="54.613125" y="197.39595" style="fill: #262626; stroke: #262626; stroke-width: 1.25"/>
      </g>
     </g>
     <g id="text_7">
      <!-- 110 -->
      <g style="fill: #262626" transform="translate(22.673125 201.708294) scale(0.11 -0.11)">
       <use xlink:href="#AppleGothic-31"/>
       <use xlink:href="#AppleGothic-31" transform="translate(67.999985 0)"/>
       <use xlink:href="#AppleGothic-30" transform="translate(135.999969 0)"/>
      </g>
     </g>
    </g>
    <g id="ytick_4">
     <g id="line2d_10">
      <path d="M 54.613125 136.91595 
L 612.613125 136.91595 
" clip-path="url(#p6b8bea47b5)" style="fill: none; stroke-dasharray: 3.7,1.6; stroke-dashoffset: 0; stroke: #cccccc; stroke-opacity: 0.6"/>
     </g>
     <g id="line2d_11">
      <g>
       <use xlink:href="#m67ab73ab0b" x="54.613125" y="136.91595" style="fill: #262626; stroke: #262626; stroke-width: 1.25"/>
      </g>
     </g>
     <g id="text_8">
      <!-- 120 -->
      <g style="fill: #262626" transform="translate(22.673125 141.228294) scale(0.11 -0.11)">
       <defs>
        <path id="AppleGothic-32" d="M 1101 429 
L 3942 429 
L 3942 0 
L 653 0 
L 653 205 
Q 653 1018 1344 1664 
Q 1670 1894 1990 2124 
Q 2310 2355 2637 2592 
Q 3334 3098 3334 3597 
Q 3334 3994 3014 4218 
Q 2867 4326 2694 4377 
Q 2522 4429 2317 4429 
Q 2016 4429 1741 4352 
Q 1325 4224 883 3910 
L 883 4435 
Q 1325 4659 1667 4758 
Q 2010 4858 2317 4858 
Q 2963 4858 3405 4525 
Q 3840 4198 3840 3622 
Q 3840 2995 3168 2438 
Q 2848 2214 2531 2000 
Q 2214 1786 1894 1562 
Q 1178 1024 1101 429 
z
" transform="scale(0.015625)"/>
       </defs>
       <use xlink:href="#AppleGothic-31"/>
       <use xlink:href="#AppleGothic-32" transform="translate(67.999985 0)"/>
       <use xlink:href="#AppleGothic-30" transform="translate(135.999969 0)"/>
      </g>
     </g>
    </g>
    <g id="ytick_5">
     <g id="line2d_12">
      <path d="M 54.613125 76.43595 
L 612.613125 76.43595 
" clip-path="url(#p6b8bea47b5)" style="fill: none; stroke-dasharray: 3.7,1.6; stroke-dashoffset: 0; stroke: #cccccc; stroke-opacity: 0.6"/>
     </g>
     <g id="line2d_13">
      <g>
       <use xlink:href="#m67ab73ab0b" x="54.613125" y="76.43595" style="fill: #262626; stroke: #262626; stroke-width: 1.25"/>
      </g>
     </g>
     <g id="text_9">
      <!-- 130 -->
      <g style="fill: #262626" transform="translate(22.673125 80.748294) scale(0.11 -0.11)">
       <use xlink:href="#AppleGothic-31"/>
       <use xlink:href="#AppleGothic-33" transform="translate(67.999985 0)"/>
       <use xlink:href="#AppleGothic-30" transform="translate(135.999969 0)"/>
      </g>
     </g>
    </g>
    <g id="text_10">
     <!-- 심박수 (Pulse) -->
     <g style="fill: #262626" transform="translate(16.60875 229.06875) rotate(-90) scale(0.12 -0.12)">
      <defs>
       <path id="AppleGothic-c2ec" d="M 4979 454 
L 4973 1094 
Q 4794 1088 4560 1088 
Q 4326 1088 4032 1082 
Q 3731 1075 3577 1075 
Q 3424 1075 3405 1075 
L 2074 1062 
L 2061 499 
L 2074 0 
Q 2342 -13 2714 -19 
Q 2906 -26 3059 -29 
Q 3213 -32 3328 -32 
L 4973 -13 
L 4979 454 
z
M 5466 -531 
L 4986 -544 
L 4960 -410 
L 3174 -397 
L 2381 -397 
Q 2291 -403 2217 -403 
Q 2144 -403 2074 -410 
L 2035 -550 
L 1600 -550 
L 1613 269 
L 1594 1434 
L 3366 1434 
Q 3603 1434 3859 1437 
Q 4115 1440 4403 1446 
Q 4685 1453 4941 1459 
Q 5197 1466 5434 1466 
L 5434 442 
Q 5434 -19 5453 -371 
Q 5453 -403 5456 -441 
Q 5459 -480 5466 -531 
z
M 4109 2253 
Q 4058 2202 4022 2170 
Q 3987 2138 3962 2112 
Q 3891 2042 3846 2000 
Q 3802 1958 3789 1946 
Q 3744 1971 3712 1990 
Q 3680 2010 3648 2022 
Q 3302 2259 2963 2618 
Q 2790 2803 2652 2988 
Q 2515 3174 2426 3366 
Q 2413 3398 2393 3440 
Q 2374 3482 2355 3533 
Q 2310 3430 2272 3350 
Q 2234 3270 2195 3206 
Q 1971 2822 1677 2522 
Q 1427 2253 1094 2003 
Q 1037 1965 966 1917 
Q 896 1869 806 1805 
Q 781 1805 672 1888 
Q 531 2003 486 2016 
L 397 2074 
Q 422 2086 422 2086 
Q 429 2093 445 2102 
Q 461 2112 486 2138 
Q 634 2221 755 2297 
Q 877 2374 973 2458 
Q 1146 2592 1302 2752 
Q 1459 2912 1606 3098 
Q 1933 3501 2054 4070 
Q 2144 4467 2144 4883 
Q 2387 4883 2547 4851 
Q 2707 4819 2707 4768 
Q 2707 4730 2675 4685 
Q 2643 4640 2605 4589 
Q 2605 4538 2566 4384 
Q 2547 4301 2540 4253 
Q 2534 4205 2534 4192 
Q 2534 4102 2572 3977 
Q 2611 3853 2701 3693 
Q 2771 3558 2883 3401 
Q 2995 3245 3132 3085 
Q 3270 2925 3433 2771 
Q 3597 2618 3776 2490 
Q 3840 2445 3913 2393 
Q 3987 2342 4083 2285 
Q 4102 2266 4109 2253 
z
M 5466 5094 
Q 5466 5094 5459 5065 
Q 5453 5037 5443 5001 
Q 5434 4966 5427 4928 
Q 5421 4890 5421 4864 
L 5408 3174 
L 5408 2176 
Q 5414 1958 5427 1786 
L 4947 1766 
L 4973 3418 
Q 4973 4250 4954 4608 
Q 4947 4787 4940 4931 
Q 4934 5075 4922 5190 
L 5094 5197 
Q 5242 5197 5354 5174 
Q 5466 5152 5466 5094 
z
" transform="scale(0.015625)"/>
       <path id="AppleGothic-bc15" d="M 2925 2515 
L 2925 3565 
L 1990 3578 
L 1165 3565 
L 1165 2515 
L 2061 2502 
L 2925 2515 
z
M 5152 -461 
L 4653 -474 
Q 4659 -339 4662 -185 
Q 4666 -32 4672 115 
Q 4678 262 4681 393 
Q 4685 525 4685 627 
L 4672 1120 
L 3213 1120 
L 1261 1101 
L 1261 1504 
Q 1370 1504 1610 1501 
Q 1850 1498 2221 1491 
Q 2592 1485 2841 1485 
Q 3091 1485 3219 1485 
Q 3802 1485 4282 1491 
Q 4762 1498 5133 1510 
L 5133 646 
L 5152 -461 
z
M 3405 4736 
Q 3386 4646 3373 4582 
Q 3360 4518 3360 4442 
L 3347 3302 
L 3360 2125 
L 704 2125 
Q 710 2234 710 2400 
Q 710 2566 717 2784 
Q 723 2995 723 3152 
Q 723 3309 723 3405 
Q 723 3674 723 3885 
Q 723 4096 720 4265 
Q 717 4435 710 4566 
Q 704 4698 698 4806 
L 730 4806 
Q 922 4806 1062 4787 
Q 1203 4768 1203 4691 
Q 1203 4678 1184 4604 
Q 1165 4531 1165 4493 
L 1165 3923 
L 1760 3917 
L 2918 3930 
L 2918 4371 
L 2899 4819 
L 3104 4826 
Q 3251 4826 3328 4810 
Q 3405 4794 3405 4736 
z
M 6042 3066 
L 5114 3072 
L 5126 1798 
L 4653 1792 
Q 4659 2125 4672 2637 
Q 4691 3155 4691 3571 
L 4691 3744 
Q 4691 4051 4688 4281 
Q 4685 4512 4678 4678 
Q 4672 4845 4669 4989 
Q 4666 5133 4653 5254 
L 4717 5254 
Q 4928 5254 5056 5232 
Q 5184 5210 5184 5139 
Q 5184 5107 5155 5011 
Q 5126 4915 5126 4851 
L 5114 3450 
L 6042 3462 
L 6042 3066 
z
" transform="scale(0.015625)"/>
       <path id="AppleGothic-c218" d="M 6022 1952 
L 3411 1952 
L 3424 896 
L 3462 -582 
L 2982 -582 
L 2982 1952 
Q 2912 1952 2774 1949 
Q 2637 1946 2419 1939 
Q 2208 1933 2086 1933 
Q 1965 1933 1933 1933 
L 378 1894 
L 378 2304 
L 3206 2298 
Q 3706 2298 4202 2307 
Q 4698 2317 5184 2330 
Q 5536 2342 6022 2368 
L 6022 1952 
z
M 5792 3482 
Q 5792 3450 5747 3402 
Q 5702 3354 5658 3315 
L 5523 3117 
Q 5453 3123 5395 3126 
Q 5338 3130 5286 3142 
Q 4685 3251 4090 3610 
Q 3699 3846 3411 4250 
Q 3360 4320 3312 4409 
Q 3264 4499 3206 4621 
Q 3149 4512 3097 4422 
Q 3046 4333 2995 4262 
Q 2688 3846 2208 3552 
Q 2054 3450 1875 3370 
Q 1696 3290 1498 3219 
Q 1382 3181 1232 3142 
Q 1082 3104 896 3072 
Q 896 3072 873 3101 
Q 851 3130 828 3162 
Q 806 3194 780 3226 
Q 755 3258 749 3270 
Q 736 3290 678 3347 
Q 621 3405 621 3424 
L 640 3443 
Q 730 3450 810 3453 
Q 890 3456 954 3469 
Q 1338 3526 1674 3676 
Q 2010 3827 2298 4077 
Q 2605 4326 2790 4659 
Q 2842 4755 2886 4880 
Q 2931 5005 2970 5171 
L 3411 5133 
Q 3475 5133 3475 5075 
Q 3475 5056 3472 5037 
Q 3469 5018 3462 4992 
Q 3462 4973 3443 4947 
Q 3482 4832 3520 4755 
Q 3738 4301 4230 3974 
Q 4659 3686 5261 3571 
Q 5363 3552 5488 3536 
Q 5613 3520 5766 3507 
Q 5786 3507 5792 3482 
z
" transform="scale(0.015625)"/>
       <path id="AppleGothic-50" d="M 262 5018 
L 1869 5018 
Q 2560 5018 3002 4781 
Q 3597 4448 3597 3718 
Q 3597 3014 3104 2630 
Q 2656 2272 1952 2272 
L 768 2272 
L 768 0 
L 262 0 
L 262 5018 
z
M 1862 4576 
L 768 4576 
L 768 2714 
L 1901 2714 
Q 2349 2714 2675 2950 
Q 3040 3219 3040 3674 
Q 3040 4186 2611 4410 
Q 2298 4576 1862 4576 
z
" transform="scale(0.015625)"/>
       <path id="AppleGothic-75" d="M 262 3424 
L 730 3424 
L 730 1242 
Q 730 877 941 627 
Q 1171 339 1594 339 
Q 2080 339 2426 730 
Q 2784 1139 2784 1632 
L 2784 3424 
L 3245 3424 
L 3245 0 
L 2842 0 
L 2810 582 
Q 2707 442 2592 330 
Q 2477 218 2342 134 
Q 1984 -83 1555 -83 
Q 966 -83 614 282 
Q 262 653 262 1184 
L 262 3424 
z
" transform="scale(0.015625)"/>
       <path id="AppleGothic-6c" d="M 288 5018 
L 749 5018 
L 749 0 
L 288 0 
L 288 5018 
z
" transform="scale(0.015625)"/>
       <path id="AppleGothic-73" d="M 224 294 
L 224 851 
Q 621 531 1030 403 
Q 1152 371 1267 355 
Q 1382 339 1504 339 
Q 1894 339 2150 518 
Q 2413 710 2413 947 
Q 2413 1075 2317 1210 
Q 2182 1376 1600 1510 
Q 909 1683 678 1798 
Q 230 2054 230 2515 
Q 230 2944 602 3219 
Q 979 3501 1542 3501 
Q 1798 3501 2003 3456 
Q 2208 3411 2387 3337 
Q 2566 3264 2720 3155 
L 2720 2598 
Q 2451 2822 2156 2953 
Q 1862 3085 1536 3085 
Q 1210 3085 973 2938 
Q 730 2790 730 2554 
Q 730 2240 1306 2054 
Q 1574 1978 1836 1901 
Q 2099 1824 2368 1747 
Q 2950 1498 2950 992 
Q 2950 563 2547 237 
Q 2138 -83 1530 -83 
Q 1261 -83 1005 -26 
Q 595 64 224 294 
z
" transform="scale(0.015625)"/>
       <path id="AppleGothic-65" d="M 3296 1850 
L 691 1850 
Q 691 1114 1033 726 
Q 1376 339 1933 339 
Q 2355 339 2746 608 
Q 2854 678 2976 784 
Q 3098 890 3238 1030 
L 3238 474 
Q 3085 358 2953 272 
Q 2822 186 2707 128 
Q 2304 -83 1901 -83 
Q 1203 -83 717 397 
Q 192 902 192 1709 
Q 192 2470 666 2982 
Q 1146 3501 1850 3501 
Q 2534 3501 2938 3002 
Q 3296 2547 3296 1850 
z
M 755 2240 
L 2758 2240 
Q 2682 2675 2429 2889 
Q 2176 3104 1818 3104 
Q 1421 3104 1146 2854 
Q 890 2624 755 2240 
z
" transform="scale(0.015625)"/>
      </defs>
      <use xlink:href="#AppleGothic-c2ec"/>
      <use xlink:href="#AppleGothic-bc15" transform="translate(99.999985 0)"/>
      <use xlink:href="#AppleGothic-c218" transform="translate(199.999969 0)"/>
      <use xlink:href="#AppleGothic-20" transform="translate(299.999954 0)"/>
      <use xlink:href="#AppleGothic-28" transform="translate(331.999939 0)"/>
      <use xlink:href="#AppleGothic-50" transform="translate(381.999924 0)"/>
      <use xlink:href="#AppleGothic-75" transform="translate(442.299911 0)"/>
      <use xlink:href="#AppleGothic-6c" transform="translate(497.799896 0)"/>
      <use xlink:href="#AppleGothic-73" transform="translate(514.499893 0)"/>
      <use xlink:href="#AppleGothic-65" transform="translate(564.099884 0)"/>
      <use xlink:href="#AppleGothic-29" transform="translate(618.999878 0)"/>
     </g>
    </g>
   </g>
   <g id="line2d_14">
    <path d="M 147.613125 317.14635 
L 333.613125 312.91275 
L 519.613125 309.88875 
" clip-path="url(#p6b8bea47b5)" style="fill: none; stroke: #66c2a5; stroke-width: 2.7; stroke-linecap: round"/>
    <defs>
     <path id="mf3e1a4ea12" d="M 0 3.383948 
C 0.897434 3.383948 1.758231 3.027394 2.392813 2.392813 
C 3.027394 1.758231 3.383948 0.897434 3.383948 0 
C 3.383948 -0.897434 3.027394 -1.758231 2.392813 -2.392813 
C 1.758231 -3.027394 0.897434 -3.383948 0 -3.383948 
C -0.897434 -3.383948 -1.758231 -3.027394 -2.392813 -2.392813 
C -3.027394 -1.758231 -3.383948 -0.897434 -3.383948 0 
C -3.383948 0.897434 -3.027394 1.758231 -2.392813 2.392813 
C -1.758231 3.027394 -0.897434 3.383948 0 3.383948 
z
" style="stroke: #66c2a5; stroke-width: 2.025"/>
    </defs>
    <g clip-path="url(#p6b8bea47b5)">
     <use xlink:href="#mf3e1a4ea12" x="147.613125" y="317.14635" style="fill: #66c2a5; stroke: #66c2a5; stroke-width: 2.025"/>
     <use xlink:href="#mf3e1a4ea12" x="333.613125" y="312.91275" style="fill: #66c2a5; stroke: #66c2a5; stroke-width: 2.025"/>
     <use xlink:href="#mf3e1a4ea12" x="519.613125" y="309.88875" style="fill: #66c2a5; stroke: #66c2a5; stroke-width: 2.025"/>
    </g>
   </g>
   <g id="line2d_15">
    <path d="M 147.613125 340.12875 
L 147.613125 294.76875 
" clip-path="url(#p6b8bea47b5)" style="fill: none; stroke: #66c2a5; stroke-width: 2.7; stroke-linecap: round"/>
   </g>
   <g id="line2d_16">
    <path d="M 333.613125 335.29035 
L 333.613125 289.93035 
" clip-path="url(#p6b8bea47b5)" style="fill: none; stroke: #66c2a5; stroke-width: 2.7; stroke-linecap: round"/>
   </g>
   <g id="line2d_17">
    <path d="M 519.613125 330.45195 
L 519.613125 292.33443 
" clip-path="url(#p6b8bea47b5)" style="fill: none; stroke: #66c2a5; stroke-width: 2.7; stroke-linecap: round"/>
   </g>
   <g id="line2d_18">
    <path d="M 147.613125 299.60715 
L 333.613125 278.43915 
L 519.613125 282.67275 
" clip-path="url(#p6b8bea47b5)" style="fill: none; stroke-dasharray: 9.99,4.32; stroke-dashoffset: 0; stroke: #fc8d62; stroke-width: 2.7"/>
    <defs>
     <path id="m256904dacd" d="M -3.383948 3.383948 
L 3.383948 3.383948 
L 3.383948 -3.383948 
L -3.383948 -3.383948 
z
" style="stroke: #fc8d62; stroke-width: 2.025; stroke-linejoin: miter"/>
    </defs>
    <g clip-path="url(#p6b8bea47b5)">
     <use xlink:href="#m256904dacd" x="147.613125" y="299.60715" style="fill: #fc8d62; stroke: #fc8d62; stroke-width: 2.025; stroke-linejoin: miter"/>
     <use xlink:href="#m256904dacd" x="333.613125" y="278.43915" style="fill: #fc8d62; stroke: #fc8d62; stroke-width: 2.025; stroke-linejoin: miter"/>
     <use xlink:href="#m256904dacd" x="519.613125" y="282.67275" style="fill: #fc8d62; stroke: #fc8d62; stroke-width: 2.025; stroke-linejoin: miter"/>
    </g>
   </g>
   <g id="line2d_19">
    <path d="M 147.613125 321.39507 
L 147.613125 276.62475 
" clip-path="url(#p6b8bea47b5)" style="fill: none; stroke: #fc8d62; stroke-width: 2.7; stroke-linecap: round"/>
   </g>
   <g id="line2d_20">
    <path d="M 333.613125 303.23595 
L 333.613125 251.20803 
" clip-path="url(#p6b8bea47b5)" style="fill: none; stroke: #fc8d62; stroke-width: 2.7; stroke-linecap: round"/>
   </g>
   <g id="line2d_21">
    <path d="M 519.613125 306.27507 
L 519.613125 259.08555 
" clip-path="url(#p6b8bea47b5)" style="fill: none; stroke: #fc8d62; stroke-width: 2.7; stroke-linecap: round"/>
   </g>
   <g id="line2d_22">
    <path d="M 147.613125 281.46315 
L 333.613125 154.45515 
L 519.613125 100.62795 
" clip-path="url(#p6b8bea47b5)" style="fill: none; stroke-dasharray: 2.7,4.455; stroke-dashoffset: 0; stroke: #8da0cb; stroke-width: 2.7"/>
    <defs>
     <path id="m6217eb9106" d="M -0 4.785625 
L 4.785625 0 
L 0 -4.785625 
L -4.785625 -0 
z
" style="stroke: #8da0cb; stroke-width: 2.025; stroke-linejoin: miter"/>
    </defs>
    <g clip-path="url(#p6b8bea47b5)">
     <use xlink:href="#m6217eb9106" x="147.613125" y="281.46315" style="fill: #8da0cb; stroke: #8da0cb; stroke-width: 2.025; stroke-linejoin: miter"/>
     <use xlink:href="#m6217eb9106" x="333.613125" y="154.45515" style="fill: #8da0cb; stroke: #8da0cb; stroke-width: 2.025; stroke-linejoin: miter"/>
     <use xlink:href="#m6217eb9106" x="519.613125" y="100.62795" style="fill: #8da0cb; stroke: #8da0cb; stroke-width: 2.025; stroke-linejoin: miter"/>
    </g>
   </g>
   <g id="line2d_23">
    <path d="M 147.613125 297.18795 
L 147.613125 265.11843 
" clip-path="url(#p6b8bea47b5)" style="fill: none; stroke: #8da0cb; stroke-width: 2.7; stroke-linecap: round"/>
   </g>
   <g id="line2d_24">
    <path d="M 333.613125 199.24059 
L 333.613125 110.30475 
" clip-path="url(#p6b8bea47b5)" style="fill: none; stroke: #8da0cb; stroke-width: 2.7; stroke-linecap: round"/>
   </g>
   <g id="line2d_25">
    <path d="M 519.613125 164.13195 
L 519.613125 37.72875 
" clip-path="url(#p6b8bea47b5)" style="fill: none; stroke: #8da0cb; stroke-width: 2.7; stroke-linecap: round"/>
   </g>
   <g id="line2d_26"/>
   <g id="line2d_27"/>
   <g id="line2d_28"/>
   <g id="patch_3">
    <path d="M 54.613125 355.24875 
L 54.613125 22.60875 
" style="fill: none; stroke: #262626; stroke-width: 1.25; stroke-linejoin: miter; stroke-linecap: square"/>
   </g>
   <g id="patch_4">
    <path d="M 612.613125 355.24875 
L 612.613125 22.60875 
" style="fill: none; stroke: #262626; stroke-width: 1.25; stroke-linejoin: miter; stroke-linecap: square"/>
   </g>
   <g id="patch_5">
    <path d="M 54.613125 355.24875 
L 612.613125 355.24875 
" style="fill: none; stroke: #262626; stroke-width: 1.25; stroke-linejoin: miter; stroke-linecap: square"/>
   </g>
   <g id="patch_6">
    <path d="M 54.613125 22.60875 
L 612.613125 22.60875 
" style="fill: none; stroke: #262626; stroke-width: 1.25; stroke-linejoin: miter; stroke-linecap: square"/>
   </g>
   <g id="text_11">
    <!-- 시간 흐름(Time)과 운동 종류(Kind)에 따른 심박수 변화 추이 -->
    <g style="fill: #262626" transform="translate(169.194375 16.60875) scale(0.12 -0.12)">
     <defs>
      <path id="AppleGothic-ac04" d="M 5363 -422 
L 4947 -422 
Q 4819 -422 4630 -425 
Q 4442 -429 4179 -435 
Q 3667 -454 3597 -454 
L 2221 -448 
Q 1875 -448 1641 -451 
Q 1408 -454 1235 -461 
Q 1222 -410 1222 -282 
L 1222 -173 
L 1229 1203 
L 1581 1190 
L 1651 1197 
Q 1702 1197 1702 1158 
L 1677 1075 
Q 1677 1050 1670 1030 
Q 1645 954 1645 896 
L 1670 -90 
L 2086 -77 
L 3302 -83 
Q 3821 -83 4333 -73 
Q 4845 -64 5363 -58 
L 5363 -422 
z
M 6093 2362 
L 5094 2362 
L 5075 710 
L 4666 717 
L 4666 1824 
Q 4672 2266 4675 2614 
Q 4678 2963 4678 3232 
L 4672 4800 
Q 4672 4922 4672 4992 
Q 4672 5062 4672 5100 
Q 4672 5139 4669 5158 
Q 4666 5178 4659 5197 
Q 4864 5197 4985 5174 
Q 5107 5152 5107 5114 
L 5088 4806 
L 5088 2726 
L 6093 2726 
L 6093 2362 
z
M 3258 4634 
Q 3258 4192 3123 3763 
Q 2893 2989 2291 2413 
Q 1843 1978 1242 1664 
Q 787 1427 659 1427 
Q 595 1472 547 1510 
Q 499 1549 461 1581 
Q 314 1709 314 1747 
L 320 1766 
L 339 1754 
Q 518 1754 966 1958 
Q 1267 2093 1526 2272 
Q 1786 2451 2010 2675 
Q 2342 3008 2547 3424 
Q 2624 3578 2678 3728 
Q 2733 3878 2765 4026 
Q 2771 4090 2777 4144 
Q 2784 4198 2797 4262 
L 538 4250 
L 538 4634 
L 1818 4614 
L 3258 4634 
z
" transform="scale(0.015625)"/>
      <path id="AppleGothic-d750" d="M 4422 2266 
Q 4422 2509 4128 2640 
Q 3834 2771 3194 2771 
Q 2464 2771 2202 2592 
Q 2022 2490 2022 2266 
Q 2022 1984 2387 1843 
Q 2547 1779 2755 1753 
Q 2963 1728 3232 1728 
Q 3853 1728 4137 1872 
Q 4422 2016 4422 2266 
z
M 5997 224 
Q 5472 237 4825 243 
Q 4179 250 3501 250 
L 3187 250 
Q 2944 250 2704 250 
Q 2464 250 2240 243 
Q 2010 237 1667 230 
Q 1325 224 877 211 
Q 755 205 640 205 
Q 525 205 403 198 
L 403 685 
Q 480 685 643 681 
Q 806 678 1069 672 
Q 1331 666 1619 666 
Q 1907 666 2234 659 
Q 2560 653 2793 653 
Q 3027 653 3162 653 
Q 3398 653 3628 653 
Q 3859 653 4090 659 
Q 4320 666 4579 666 
Q 4838 666 5146 672 
Q 5446 685 5657 688 
Q 5869 691 5997 698 
L 5997 224 
z
M 4864 2246 
Q 4864 1818 4493 1581 
Q 4077 1325 3226 1325 
Q 2515 1325 2067 1523 
Q 1542 1773 1542 2291 
Q 1542 2752 1974 2963 
Q 2406 3174 3206 3174 
Q 4864 3174 4864 2246 
z
M 5434 3494 
Q 5274 3501 5152 3501 
Q 5030 3501 4934 3501 
Q 4250 3514 3802 3520 
Q 3354 3526 3142 3526 
Q 2451 3526 1894 3510 
Q 1338 3494 960 3482 
L 960 3955 
Q 1197 3949 1481 3942 
Q 1766 3936 2099 3930 
Q 2432 3923 2681 3923 
Q 2931 3923 3098 3923 
Q 3814 3923 4374 3936 
Q 4934 3949 5434 3968 
L 5434 3494 
z
M 4083 4320 
Q 4038 4320 3920 4323 
Q 3802 4326 3610 4333 
Q 3226 4352 3149 4352 
Q 2899 4352 2688 4336 
Q 2477 4320 2323 4307 
L 2317 4755 
L 3142 4749 
Q 3386 4749 3600 4758 
Q 3814 4768 4083 4781 
L 4083 4320 
z
" transform="scale(0.015625)"/>
      <path id="AppleGothic-b984" d="M 4691 13 
L 4691 1056 
L 3533 1062 
L 1811 1050 
L 1811 6 
L 3290 -13 
Q 3827 -13 4150 -6 
Q 4474 0 4691 13 
z
M 5158 -480 
L 4685 -493 
L 4685 -320 
L 3264 -314 
L 1811 -326 
L 1811 -486 
L 1363 -506 
L 1395 378 
L 1395 1382 
L 3270 1370 
Q 3955 1370 4393 1376 
Q 4832 1382 5133 1395 
L 5126 710 
L 5158 -480 
z
M 5997 1965 
Q 5786 1971 5456 1971 
Q 5126 1971 4685 1978 
Q 4243 1984 3875 1984 
Q 3507 1984 3213 1984 
Q 2771 1984 2444 1984 
Q 2118 1984 1888 1978 
Q 1664 1978 1443 1971 
Q 1222 1965 1024 1961 
Q 826 1958 666 1952 
Q 506 1946 403 1946 
L 403 2291 
Q 410 2291 515 2288 
Q 621 2285 826 2278 
Q 1037 2278 1273 2275 
Q 1510 2272 1798 2269 
Q 2086 2266 2432 2266 
Q 2778 2266 3200 2266 
Q 3718 2266 4214 2272 
Q 4710 2278 5190 2291 
Q 5517 2298 5997 2330 
L 5997 1965 
z
M 5133 2803 
Q 4947 2810 4736 2810 
Q 4525 2810 4282 2810 
Q 4038 2816 3843 2816 
Q 3648 2816 3501 2816 
L 1286 2803 
L 1306 3443 
Q 1306 3578 1306 3670 
Q 1306 3763 1302 3833 
Q 1299 3904 1296 3955 
Q 1293 4006 1286 4064 
Q 1395 4058 1548 4058 
Q 1702 4058 1914 4051 
Q 2125 4045 2304 4045 
Q 2483 4045 2630 4045 
L 4640 4045 
L 4640 4634 
L 3226 4640 
Q 2605 4640 2131 4627 
Q 1658 4614 1299 4602 
L 1299 4947 
L 3590 4941 
L 4518 4941 
Q 4806 4947 5056 4960 
L 5043 4403 
L 5056 3738 
L 4019 3750 
Q 3872 3750 3673 3747 
Q 3475 3744 3232 3738 
L 1760 3738 
L 1760 3117 
L 3507 3117 
Q 3859 3117 4192 3126 
Q 4525 3136 4851 3149 
Q 4960 3149 5133 3168 
L 5133 2803 
z
" transform="scale(0.015625)"/>
      <path id="AppleGothic-54" d="M 166 5018 
L 4038 5018 
L 4038 4576 
L 2355 4576 
L 2355 0 
L 1856 0 
L 1856 4576 
L 166 4576 
L 166 5018 
z
" transform="scale(0.015625)"/>
      <path id="AppleGothic-acfc" d="M 4339 1184 
Q 4198 1165 4086 1152 
Q 3974 1139 3885 1126 
Q 3373 1062 2973 1014 
Q 2573 966 2266 934 
Q 1965 909 1680 883 
Q 1395 858 1120 826 
Q 966 813 876 803 
Q 787 794 762 794 
Q 710 781 668 774 
Q 627 768 582 755 
Q 499 755 454 934 
Q 429 1024 419 1091 
Q 410 1158 410 1210 
L 1030 1229 
L 1638 1274 
L 1651 2381 
L 1638 3302 
L 1677 3302 
Q 1850 3302 1990 3283 
Q 2131 3264 2131 3206 
Q 2131 3174 2099 3100 
Q 2067 3027 2067 2982 
L 2080 2189 
L 2067 1293 
L 3174 1408 
L 4320 1536 
L 4339 1184 
z
M 6061 2035 
L 5126 2042 
L 5114 1050 
L 5126 -486 
L 4653 -506 
Q 4653 -397 4653 -233 
Q 4653 -70 4659 141 
Q 4666 365 4666 659 
Q 4666 954 4666 1331 
Q 4672 1715 4675 2214 
Q 4678 2714 4678 3347 
L 4678 4691 
Q 4678 4870 4675 4985 
Q 4672 5101 4659 5184 
L 4800 5184 
Q 5011 5184 5100 5158 
Q 5190 5133 5190 5082 
Q 5190 5082 5180 5050 
Q 5171 5018 5161 4973 
Q 5152 4928 5142 4880 
Q 5133 4832 5133 4794 
L 5120 4051 
L 5126 2445 
L 6061 2451 
L 6061 2035 
z
M 3718 4499 
Q 3718 4371 3715 4262 
Q 3712 4154 3706 4064 
Q 3699 3974 3686 3779 
Q 3674 3584 3642 3283 
Q 3610 2982 3597 2793 
Q 3584 2605 3571 2515 
Q 3546 2330 3533 2211 
Q 3520 2093 3507 2042 
L 3078 2054 
Q 3085 2157 3098 2227 
Q 3130 2483 3155 2710 
Q 3181 2938 3200 3142 
L 3264 4109 
L 2042 4109 
Q 1562 4109 1267 4102 
Q 973 4096 768 4083 
L 768 4480 
L 3718 4499 
z
" transform="scale(0.015625)"/>
      <path id="AppleGothic-c6b4" d="M 4864 3987 
Q 4864 4307 4506 4480 
Q 4070 4698 3187 4698 
Q 2854 4698 2585 4666 
Q 2317 4634 2106 4563 
Q 1555 4384 1555 3994 
Q 1555 3610 2106 3450 
Q 2310 3386 2579 3360 
Q 2848 3334 3181 3334 
Q 4019 3334 4441 3497 
Q 4864 3661 4864 3987 
z
M 5382 -461 
L 5011 -461 
Q 3616 -442 3341 -442 
L 1267 -461 
Q 1267 -384 1270 -285 
Q 1274 -186 1277 -80 
Q 1280 26 1280 128 
Q 1280 230 1280 314 
Q 1280 493 1280 611 
Q 1280 730 1274 800 
Q 1274 870 1270 931 
Q 1267 992 1261 1050 
L 1389 1050 
Q 1594 1050 1683 1037 
Q 1773 1024 1773 973 
Q 1773 954 1747 877 
Q 1722 800 1722 742 
L 1722 -64 
L 3341 -77 
Q 3750 -77 4060 -77 
Q 4371 -77 4595 -70 
Q 4819 -64 5014 -61 
Q 5210 -58 5382 -45 
L 5382 -461 
z
M 6016 1984 
Q 5933 1990 5805 1990 
Q 5677 1990 5498 1997 
Q 5325 2003 5184 2003 
Q 5043 2003 4934 2003 
L 3501 1997 
Q 3494 1901 3491 1747 
Q 3488 1594 3488 1293 
L 3507 544 
L 3008 512 
L 3021 1331 
L 3008 2003 
L 1491 1997 
Q 1350 1997 1196 1993 
Q 1043 1990 899 1987 
Q 755 1984 624 1977 
Q 493 1971 397 1971 
L 397 2381 
Q 851 2368 1459 2361 
Q 2067 2355 2854 2355 
L 3232 2355 
Q 4166 2355 4864 2371 
Q 5562 2387 6016 2400 
L 6016 1984 
z
M 5325 3987 
Q 5325 2976 3194 2976 
Q 2285 2976 1722 3213 
Q 1094 3482 1094 3987 
Q 1094 4576 1843 4864 
Q 2406 5075 3187 5075 
Q 4026 5075 4582 4870 
Q 5325 4582 5325 3987 
z
" transform="scale(0.015625)"/>
      <path id="AppleGothic-b3d9" d="M 4774 512 
Q 4774 813 4346 947 
Q 3904 1094 3245 1094 
Q 2470 1094 2086 940 
Q 1702 787 1702 518 
Q 1702 198 2266 45 
Q 2720 -83 3309 -83 
Q 4000 -83 4358 58 
Q 4774 211 4774 512 
z
M 5242 512 
Q 5242 6 4723 -230 
Q 4480 -346 4128 -400 
Q 3776 -454 3315 -454 
Q 2886 -454 2534 -406 
Q 2182 -358 1907 -250 
Q 1229 0 1229 518 
Q 1229 1037 1862 1274 
Q 2368 1459 3251 1459 
Q 4198 1459 4720 1216 
Q 5242 973 5242 512 
z
M 6042 1914 
Q 5971 1914 5811 1914 
Q 5651 1914 5402 1920 
Q 5152 1926 4857 1929 
Q 4563 1933 4230 1939 
Q 3898 1946 3651 1949 
Q 3405 1952 3245 1952 
Q 2726 1952 2316 1952 
Q 1907 1952 1594 1946 
Q 1286 1946 976 1942 
Q 666 1939 358 1933 
L 358 2349 
L 1606 2317 
L 3027 2310 
L 3027 3187 
L 1293 3181 
L 1306 4070 
L 1293 4992 
L 3053 4979 
L 5210 5011 
L 5210 4614 
L 3469 4627 
L 1760 4614 
L 1747 4058 
L 1760 3571 
L 3302 3565 
L 5312 3578 
L 5312 3168 
L 3488 3187 
L 3488 2317 
L 4672 2310 
Q 5011 2310 5372 2316 
Q 5734 2323 6042 2336 
L 6042 1914 
z
" transform="scale(0.015625)"/>
      <path id="AppleGothic-c885" d="M 4858 410 
Q 4858 794 4378 941 
Q 4013 1056 3238 1056 
L 3053 1056 
Q 2394 1056 2054 934 
Q 1594 781 1594 403 
Q 1626 90 2093 -51 
Q 2298 -115 2586 -144 
Q 2874 -173 3251 -173 
Q 4083 -173 4470 -29 
Q 4858 115 4858 410 
z
M 5338 410 
Q 5338 -128 4653 -390 
Q 4128 -576 3258 -576 
Q 2323 -576 1766 -371 
Q 1107 -115 1107 403 
Q 1107 915 1683 1178 
Q 2272 1434 3245 1434 
Q 4173 1434 4691 1222 
Q 5338 973 5338 410 
z
M 6016 2003 
Q 5907 2010 5814 2010 
Q 5722 2010 5645 2010 
Q 5088 2022 4617 2028 
Q 4147 2035 3750 2035 
L 3187 2035 
Q 2394 2035 1754 2016 
Q 1434 2010 1110 2006 
Q 787 2003 442 1990 
L 397 1990 
L 397 2406 
Q 474 2349 1722 2349 
L 2970 2362 
L 2976 2963 
Q 2976 3053 2969 3133 
Q 2963 3213 2950 3290 
Q 3174 3290 3331 3277 
Q 3488 3264 3488 3187 
Q 3488 3174 3465 3097 
Q 3443 3021 3443 2963 
L 3443 2368 
L 4749 2381 
Q 5197 2381 5494 2397 
Q 5792 2413 6016 2438 
L 6016 2003 
z
M 5645 3270 
L 5370 2906 
Q 5222 2931 5104 2953 
Q 4986 2976 4896 3002 
Q 4346 3142 3936 3437 
Q 3770 3558 3638 3683 
Q 3507 3808 3398 3942 
Q 3366 3987 3334 4041 
Q 3302 4096 3264 4154 
Q 3206 4077 3155 4006 
Q 3104 3936 3059 3885 
Q 2912 3718 2736 3580 
Q 2560 3443 2355 3315 
Q 2048 3117 1510 2982 
Q 1427 2957 1315 2934 
Q 1203 2912 1056 2880 
L 877 3059 
Q 723 3200 723 3226 
Q 749 3258 832 3264 
Q 915 3270 1024 3283 
Q 1331 3328 1593 3417 
Q 1856 3507 2093 3635 
Q 2624 3942 2848 4307 
Q 2925 4429 2970 4614 
Q 2803 4627 2585 4633 
Q 2368 4640 2086 4640 
Q 1856 4640 1581 4633 
Q 1306 4627 1075 4614 
L 1075 4998 
Q 1197 4998 1469 4995 
Q 1741 4992 2163 4986 
Q 2592 4979 2861 4979 
Q 3130 4979 3251 4979 
Q 3610 4979 3907 4982 
Q 4205 4986 4457 4992 
Q 4710 4998 4928 5004 
Q 5146 5011 5344 5024 
L 5344 4634 
L 4333 4646 
Q 4109 4646 3965 4646 
Q 3821 4646 3750 4640 
Q 3680 4640 3625 4637 
Q 3571 4634 3520 4627 
Q 3520 4493 3590 4352 
Q 3699 4122 4013 3878 
Q 4435 3558 5069 3392 
Q 5267 3347 5619 3296 
Q 5638 3296 5645 3270 
z
" transform="scale(0.015625)"/>
      <path id="AppleGothic-b958" d="M 6054 1779 
L 4390 1805 
L 4390 966 
Q 4390 141 4429 -499 
L 3968 -518 
L 3994 1805 
L 2451 1805 
L 2477 -480 
L 2003 -499 
Q 2016 -230 2022 134 
Q 2029 499 2029 992 
L 2029 1805 
Q 1747 1805 1190 1786 
Q 621 1766 339 1766 
L 339 2195 
Q 397 2195 537 2192 
Q 678 2189 902 2182 
Q 1350 2170 2035 2163 
Q 2381 2157 2656 2157 
Q 2931 2157 3136 2157 
Q 3546 2157 3866 2157 
Q 4186 2157 4410 2163 
Q 4640 2170 4873 2170 
Q 5107 2170 5344 2176 
Q 5811 2182 6054 2195 
L 6054 1779 
z
M 5184 2720 
L 3488 2739 
L 1350 2720 
Q 1357 2797 1357 2902 
Q 1357 3008 1363 3136 
Q 1370 3277 1370 3353 
Q 1370 3430 1370 3456 
L 1357 4064 
Q 1722 4051 2186 4044 
Q 2650 4038 3174 4038 
L 4614 4038 
L 4614 4608 
L 3226 4614 
Q 2867 4614 2585 4614 
Q 2304 4614 2099 4608 
Q 1894 4602 1705 4598 
Q 1517 4595 1350 4582 
L 1350 4954 
Q 1498 4947 1715 4947 
Q 1933 4947 2234 4941 
Q 2534 4934 2796 4934 
Q 3059 4934 3283 4934 
L 5088 4947 
L 5075 4339 
L 5088 3680 
L 3232 3699 
L 1824 3693 
L 1824 3078 
L 3514 3072 
Q 3942 3072 4230 3072 
Q 4518 3072 4672 3078 
Q 4832 3085 4957 3088 
Q 5082 3091 5184 3104 
L 5184 2720 
z
" transform="scale(0.015625)"/>
      <path id="AppleGothic-4b" d="M 269 5018 
L 774 5018 
L 774 2509 
L 3226 5018 
L 3898 5018 
L 1933 3040 
L 4045 0 
L 3386 0 
L 1530 2656 
L 774 1901 
L 774 0 
L 269 0 
L 269 5018 
z
" transform="scale(0.015625)"/>
      <path id="AppleGothic-64" d="M 2682 5018 
L 3174 5018 
L 3174 0 
L 2733 0 
L 2688 557 
Q 2598 429 2508 329 
Q 2419 230 2330 160 
Q 2010 -83 1587 -83 
Q 928 -83 493 429 
Q 64 941 64 1670 
Q 64 2426 518 2957 
Q 979 3501 1670 3501 
Q 1958 3501 2208 3398 
Q 2298 3360 2416 3296 
Q 2534 3232 2682 3142 
L 2682 5018 
z
M 2682 1658 
L 2682 2643 
Q 2381 2906 2157 2995 
Q 1933 3085 1722 3085 
Q 1197 3085 870 2643 
Q 563 2227 563 1677 
Q 563 1088 902 698 
Q 1216 339 1645 339 
Q 2067 339 2374 710 
Q 2682 1082 2682 1658 
z
" transform="scale(0.015625)"/>
      <path id="AppleGothic-c5d0" d="M 2707 2669 
Q 2707 3430 2419 3750 
Q 2208 3981 1856 3981 
Q 1491 3981 1267 3686 
Q 1018 3341 1018 2624 
Q 1018 1235 1862 1235 
Q 2336 1235 2541 1696 
Q 2707 2061 2707 2669 
z
M 5670 5050 
Q 5670 4986 5664 4966 
Q 5632 4806 5632 4806 
L 5619 2336 
L 5626 -544 
L 5158 -544 
L 5184 2240 
L 5178 5184 
L 5286 5184 
Q 5453 5184 5561 5158 
Q 5670 5133 5670 5050 
z
M 4499 4966 
Q 4499 4954 4480 4886 
Q 4461 4819 4461 4768 
Q 4454 4506 4451 4230 
Q 4448 3955 4442 3648 
Q 4435 3341 4435 3069 
Q 4435 2797 4435 2554 
L 4448 -64 
L 3968 -64 
L 3994 2349 
L 3136 2349 
Q 3123 2253 3104 2157 
Q 3085 2061 3072 1965 
Q 2970 1523 2720 1235 
Q 2374 845 1818 845 
Q 1133 845 826 1389 
Q 576 1830 576 2675 
Q 576 3456 909 3910 
Q 1248 4384 1862 4384 
Q 2458 4384 2803 3930 
Q 3142 3488 3142 2752 
L 3987 2752 
L 4000 3968 
Q 4000 4230 4000 4416 
Q 4000 4602 3994 4710 
Q 3994 4832 3994 4918 
Q 3994 5005 3987 5069 
L 4064 5069 
Q 4250 5069 4374 5049 
Q 4499 5030 4499 4966 
z
" transform="scale(0.015625)"/>
      <path id="AppleGothic-b530" d="M 6080 1990 
L 5146 1990 
L 5139 1018 
Q 5139 672 5152 262 
Q 5165 -147 5178 -493 
L 4704 -506 
L 4723 1926 
Q 4723 2150 4713 2384 
Q 4704 2618 4698 2880 
L 4698 3136 
Q 4698 3699 4694 4070 
Q 4691 4442 4685 4627 
Q 4678 4813 4672 4950 
Q 4666 5088 4659 5184 
L 4794 5184 
Q 4979 5184 5088 5165 
Q 5197 5146 5197 5075 
Q 5197 5050 5177 4982 
Q 5158 4915 5158 4864 
L 5139 3949 
L 5146 2432 
L 6080 2438 
L 6080 1990 
z
M 4582 1254 
Q 4474 1222 4390 1206 
Q 4307 1190 4243 1178 
Q 3872 1094 3622 1094 
Q 3488 1069 3347 1049 
Q 3206 1030 3059 1011 
Q 2758 973 2669 973 
L 2669 2682 
L 2650 4339 
L 4211 4320 
L 4211 3898 
L 3110 3917 
L 3098 2918 
L 3117 1453 
L 3149 1446 
Q 3264 1446 3421 1462 
Q 3578 1478 3725 1517 
Q 3859 1530 4000 1552 
Q 4141 1574 4275 1600 
Q 4333 1613 4406 1625 
Q 4480 1638 4582 1664 
L 4582 1254 
z
M 2362 1267 
Q 2182 1229 2042 1210 
Q 1862 1184 1721 1161 
Q 1581 1139 1472 1126 
Q 1370 1114 1203 1098 
Q 1037 1082 800 1062 
Q 768 1062 720 1059 
Q 672 1056 621 1050 
L 640 2624 
L 627 4320 
L 2278 4326 
L 2278 3898 
L 1075 3898 
L 1069 2989 
L 1082 1504 
Q 1146 1510 1190 1513 
Q 1235 1517 1267 1517 
Q 1459 1536 1600 1555 
L 2336 1670 
L 2362 1267 
z
" transform="scale(0.015625)"/>
      <path id="AppleGothic-b978" d="M 5299 -269 
Q 5184 -262 5085 -262 
Q 4986 -262 4915 -262 
Q 4378 -250 4019 -243 
Q 3661 -237 3475 -237 
Q 2867 -237 2380 -243 
Q 1894 -250 1440 -269 
L 1453 403 
L 1427 1242 
L 1638 1248 
Q 1683 1248 1737 1245 
Q 1792 1242 1840 1235 
Q 1888 1229 1920 1209 
Q 1952 1190 1952 1165 
Q 1952 1120 1946 1101 
Q 1933 1037 1923 998 
Q 1914 960 1914 941 
L 1888 589 
L 1894 134 
L 3514 128 
Q 4058 128 4480 134 
Q 4902 141 5299 154 
L 5299 -269 
z
M 6061 1638 
Q 6016 1638 5894 1638 
Q 5773 1638 5574 1645 
Q 5190 1651 4474 1664 
Q 4122 1670 3811 1673 
Q 3501 1677 3219 1677 
Q 2733 1677 2329 1673 
Q 1926 1670 1594 1664 
Q 1261 1658 960 1651 
Q 659 1645 384 1632 
L 384 2029 
Q 634 2022 1434 2010 
Q 1837 2003 2272 2003 
Q 2707 2003 3206 2003 
L 4518 2003 
Q 4838 2003 5081 2006 
Q 5325 2010 5507 2016 
Q 5690 2022 5824 2025 
Q 5958 2029 6061 2029 
L 6061 1638 
z
M 5133 2547 
L 1280 2547 
L 1299 3251 
L 1293 3891 
Q 1440 3885 1638 3878 
Q 1837 3872 2080 3866 
L 2918 3866 
L 4640 3872 
L 4640 4486 
L 3213 4486 
Q 2816 4486 2521 4486 
Q 2227 4486 2035 4480 
Q 1843 4480 1657 4477 
Q 1472 4474 1293 4467 
L 1293 4845 
Q 1440 4838 1667 4838 
Q 1894 4838 2208 4832 
Q 2522 4826 2784 4826 
Q 3046 4826 3270 4826 
L 5075 4838 
L 5062 4275 
L 5075 3571 
L 3782 3584 
L 1747 3565 
L 1747 2886 
L 3494 2874 
Q 4058 2874 4442 2886 
Q 4826 2899 5114 2912 
L 5133 2547 
z
" transform="scale(0.015625)"/>
      <path id="AppleGothic-bcc0" d="M 3059 1939 
L 3059 3123 
L 2163 3136 
L 1248 3123 
L 1248 1939 
L 2118 1926 
L 3059 1939 
z
M 5446 -538 
L 3373 -518 
Q 2912 -518 2400 -524 
Q 1888 -531 1466 -544 
L 1478 371 
Q 1478 595 1478 732 
Q 1478 870 1472 934 
Q 1472 998 1469 1052 
Q 1466 1107 1466 1158 
L 1626 1158 
Q 1811 1158 1904 1139 
Q 1997 1120 1997 1050 
Q 1997 1030 1974 956 
Q 1952 883 1952 851 
L 1939 352 
L 1939 -128 
L 3334 -134 
Q 3917 -134 4461 -128 
Q 5005 -122 5446 -109 
L 5446 -538 
z
M 5440 5043 
Q 5440 5018 5421 4944 
Q 5402 4870 5402 4832 
L 5389 2714 
L 5389 1472 
Q 5395 1254 5398 1036 
Q 5402 819 5408 602 
L 4902 602 
L 4922 1466 
L 4922 2195 
L 3885 2176 
L 3885 2586 
L 4922 2566 
L 4922 3539 
L 3872 3526 
L 3872 3917 
L 4922 3904 
L 4928 4602 
L 4915 5184 
Q 5120 5184 5280 5161 
Q 5440 5139 5440 5043 
z
M 3546 4576 
L 3526 4410 
L 3507 2950 
L 3520 1562 
L 787 1562 
Q 794 1696 794 1885 
Q 794 2074 800 2317 
Q 806 2560 806 2723 
Q 806 2886 806 2976 
Q 806 3578 800 3990 
Q 794 4403 787 4723 
Q 966 4723 1139 4704 
Q 1312 4685 1312 4614 
Q 1312 4582 1286 4505 
Q 1261 4429 1261 4403 
L 1248 3501 
L 1850 3488 
L 3059 3501 
L 3066 4147 
L 3046 4698 
L 3136 4698 
Q 3302 4698 3424 4672 
Q 3546 4646 3546 4576 
z
" transform="scale(0.015625)"/>
      <path id="AppleGothic-d654" d="M 3302 2598 
Q 3302 2835 2970 2982 
Q 2835 3040 2675 3065 
Q 2515 3091 2342 3091 
Q 1888 3091 1677 3034 
Q 1261 2906 1261 2573 
Q 1261 2304 1581 2150 
Q 1894 2003 2317 2003 
Q 2803 2003 3052 2179 
Q 3302 2355 3302 2598 
z
M 4422 1062 
Q 4198 1030 4012 1011 
Q 3827 992 3693 979 
Q 2854 902 2342 902 
Q 1978 902 1558 870 
Q 1139 838 685 806 
Q 634 794 586 787 
Q 538 781 486 768 
Q 442 768 413 809 
Q 384 851 371 918 
Q 358 986 352 1066 
Q 346 1146 346 1229 
L 1331 1235 
Q 1504 1235 1766 1254 
Q 1901 1267 1993 1273 
Q 2086 1280 2138 1280 
L 2138 1664 
Q 1914 1690 1750 1718 
Q 1587 1747 1478 1792 
Q 826 2042 826 2618 
Q 826 3021 1325 3251 
Q 1747 3443 2323 3443 
Q 2963 3443 3331 3209 
Q 3699 2976 3699 2566 
Q 3699 2067 3149 1811 
Q 3059 1766 2921 1731 
Q 2784 1696 2598 1658 
L 2598 1306 
Q 2803 1312 3043 1325 
Q 3283 1338 3533 1363 
L 4422 1459 
L 4422 1062 
z
M 6035 2061 
L 5139 2061 
L 5152 -499 
L 4672 -499 
Q 4678 -288 4678 48 
Q 4678 384 4685 845 
Q 4691 1306 4691 1712 
Q 4691 2118 4691 2470 
Q 4691 2618 4691 2877 
Q 4691 3136 4685 3507 
Q 4678 3878 4678 4176 
Q 4678 4474 4678 4698 
Q 4678 4928 4672 5033 
Q 4666 5139 4653 5190 
L 4819 5190 
Q 5005 5190 5097 5171 
Q 5190 5152 5190 5082 
Q 5190 5062 5165 4954 
Q 5139 4858 5139 4800 
L 5139 2470 
L 6035 2483 
L 6035 2061 
z
M 4128 3648 
L 2189 3667 
L 378 3648 
L 378 4090 
Q 838 4070 1302 4057 
Q 1766 4045 2150 4045 
L 2336 4045 
Q 2899 4045 3321 4051 
Q 3744 4058 4128 4077 
L 4128 3648 
z
M 3046 4410 
L 2355 4422 
L 1427 4410 
L 1427 4800 
Q 1466 4800 1584 4797 
Q 1702 4794 1888 4787 
Q 2080 4781 2189 4777 
Q 2298 4774 2330 4774 
Q 2598 4774 2771 4780 
Q 2944 4787 3046 4800 
L 3046 4410 
z
" transform="scale(0.015625)"/>
      <path id="AppleGothic-cd94" d="M 5990 1638 
L 4390 1658 
Q 4006 1658 3798 1651 
Q 3590 1645 3462 1632 
L 3462 518 
Q 3462 314 3462 160 
Q 3462 6 3469 -96 
Q 3475 -198 3475 -291 
Q 3475 -384 3482 -461 
Q 3482 -538 3392 -566 
Q 3302 -595 3194 -595 
L 3104 -595 
Q 3002 -595 3002 -550 
L 3008 282 
L 2995 1606 
Q 2912 1613 2800 1613 
Q 2688 1613 2541 1619 
Q 2394 1626 2288 1626 
Q 2182 1626 2112 1626 
Q 1946 1626 1712 1619 
Q 1478 1613 1178 1600 
Q 582 1581 403 1581 
L 403 2003 
L 3360 1990 
Q 3910 1990 4390 2000 
Q 4870 2010 5299 2022 
Q 5446 2029 5619 2041 
Q 5792 2054 5990 2067 
L 5990 1638 
z
M 5504 2854 
Q 5504 2842 5459 2784 
Q 5408 2733 5385 2704 
Q 5363 2675 5357 2669 
L 5229 2496 
Q 5088 2515 4973 2534 
Q 4384 2643 3987 2874 
Q 3834 2970 3702 3062 
Q 3571 3155 3462 3245 
Q 3398 3302 3337 3366 
Q 3277 3430 3213 3514 
Q 3155 3430 3104 3372 
Q 3053 3315 3008 3264 
Q 2694 2963 2266 2752 
Q 1990 2624 1645 2541 
Q 1421 2502 1082 2464 
Q 1075 2470 1075 2483 
Q 1062 2502 1036 2537 
Q 1011 2573 966 2624 
Q 934 2662 876 2726 
Q 819 2790 819 2803 
Q 838 2829 931 2835 
Q 1024 2842 1139 2854 
Q 1792 2938 2234 3174 
Q 2406 3277 2540 3379 
Q 2675 3482 2765 3603 
Q 2867 3750 2925 3974 
L 1050 3949 
L 1050 4346 
Q 1184 4339 1376 4339 
Q 1568 4339 1824 4333 
Q 2080 4326 2265 4326 
Q 2451 4326 2566 4326 
Q 2797 4326 3142 4332 
Q 3488 4339 3955 4352 
Q 4422 4365 4768 4371 
Q 5114 4378 5344 4378 
L 5344 3981 
L 4384 3994 
Q 4115 3994 3948 3994 
Q 3782 3994 3699 3987 
Q 3629 3987 3561 3984 
Q 3494 3981 3437 3974 
Q 3443 3942 3446 3910 
Q 3450 3878 3462 3859 
Q 3610 3539 4128 3258 
Q 4442 3085 4851 2976 
Q 5088 2918 5478 2880 
Q 5498 2880 5504 2854 
z
M 4032 4787 
L 3334 4794 
L 2240 4774 
L 2240 5165 
L 3322 5152 
L 4032 5165 
L 4032 4787 
z
" transform="scale(0.015625)"/>
      <path id="AppleGothic-c774" d="M 3226 2534 
Q 3226 3309 2899 3725 
Q 2611 4090 2157 4090 
Q 1683 4090 1414 3690 
Q 1146 3290 1146 2534 
Q 1146 1811 1440 1382 
Q 1741 954 2240 954 
Q 2758 954 3021 1446 
Q 3226 1856 3226 2534 
z
M 5446 5082 
Q 5446 5062 5427 4982 
Q 5408 4902 5408 4832 
L 5434 -538 
L 4941 -589 
L 4960 2259 
Q 4960 3552 4941 4070 
Q 4934 4326 4931 4604 
Q 4928 4883 4915 5190 
L 5094 5197 
Q 5242 5197 5344 5174 
Q 5446 5152 5446 5082 
z
M 3686 2547 
Q 3686 2125 3612 1785 
Q 3539 1446 3379 1203 
Q 2995 582 2176 582 
Q 1408 582 1018 1203 
Q 678 1734 678 2560 
Q 678 3379 1050 3898 
Q 1453 4461 2170 4461 
Q 2912 4461 3309 3910 
Q 3686 3411 3686 2547 
z
" transform="scale(0.015625)"/>
     </defs>
     <use xlink:href="#AppleGothic-c2dc"/>
     <use xlink:href="#AppleGothic-ac04" transform="translate(99.999985 0)"/>
     <use xlink:href="#AppleGothic-20" transform="translate(199.999969 0)"/>
     <use xlink:href="#AppleGothic-d750" transform="translate(231.999954 0)"/>
     <use xlink:href="#AppleGothic-b984" transform="translate(331.999939 0)"/>
     <use xlink:href="#AppleGothic-28" transform="translate(431.999924 0)"/>
     <use xlink:href="#AppleGothic-54" transform="translate(481.999908 0)"/>
     <use xlink:href="#AppleGothic-69" transform="translate(548.099899 0)"/>
     <use xlink:href="#AppleGothic-6d" transform="translate(563.999893 0)"/>
     <use xlink:href="#AppleGothic-65" transform="translate(653.299881 0)"/>
     <use xlink:href="#AppleGothic-29" transform="translate(708.199875 0)"/>
     <use xlink:href="#AppleGothic-acfc" transform="translate(758.19986 0)"/>
     <use xlink:href="#AppleGothic-20" transform="translate(858.199844 0)"/>
     <use xlink:href="#AppleGothic-c6b4" transform="translate(890.199829 0)"/>
     <use xlink:href="#AppleGothic-b3d9" transform="translate(990.199814 0)"/>
     <use xlink:href="#AppleGothic-20" transform="translate(1090.199799 0)"/>
     <use xlink:href="#AppleGothic-c885" transform="translate(1122.199783 0)"/>
     <use xlink:href="#AppleGothic-b958" transform="translate(1222.199768 0)"/>
     <use xlink:href="#AppleGothic-28" transform="translate(1322.199753 0)"/>
     <use xlink:href="#AppleGothic-4b" transform="translate(1372.199738 0)"/>
     <use xlink:href="#AppleGothic-69" transform="translate(1436.499725 0)"/>
     <use xlink:href="#AppleGothic-6e" transform="translate(1452.399719 0)"/>
     <use xlink:href="#AppleGothic-64" transform="translate(1508.299713 0)"/>
     <use xlink:href="#AppleGothic-29" transform="translate(1562.299698 0)"/>
     <use xlink:href="#AppleGothic-c5d0" transform="translate(1612.299683 0)"/>
     <use xlink:href="#AppleGothic-20" transform="translate(1712.299667 0)"/>
     <use xlink:href="#AppleGothic-b530" transform="translate(1744.299652 0)"/>
     <use xlink:href="#AppleGothic-b978" transform="translate(1844.299637 0)"/>
     <use xlink:href="#AppleGothic-20" transform="translate(1944.299622 0)"/>
     <use xlink:href="#AppleGothic-c2ec" transform="translate(1976.299606 0)"/>
     <use xlink:href="#AppleGothic-bc15" transform="translate(2076.299591 0)"/>
     <use xlink:href="#AppleGothic-c218" transform="translate(2176.299576 0)"/>
     <use xlink:href="#AppleGothic-20" transform="translate(2276.299561 0)"/>
     <use xlink:href="#AppleGothic-bcc0" transform="translate(2308.299545 0)"/>
     <use xlink:href="#AppleGothic-d654" transform="translate(2408.29953 0)"/>
     <use xlink:href="#AppleGothic-20" transform="translate(2508.299515 0)"/>
     <use xlink:href="#AppleGothic-cd94" transform="translate(2540.2995 0)"/>
     <use xlink:href="#AppleGothic-c774" transform="translate(2640.299484 0)"/>
    </g>
   </g>
   <g id="legend_1">
    <g id="patch_7">
     <path d="M 532.739375 97.137656 
L 604.913125 97.137656 
Q 607.113125 97.137656 607.113125 94.937656 
L 607.113125 30.30875 
Q 607.113125 28.10875 604.913125 28.10875 
L 532.739375 28.10875 
Q 530.539375 28.10875 530.539375 30.30875 
L 530.539375 94.937656 
Q 530.539375 97.137656 532.739375 97.137656 
z
" style="fill: #ffffff; opacity: 0.8; stroke: #cccccc; stroke-linejoin: miter"/>
    </g>
    <g id="text_12">
     <!-- kind -->
     <g style="fill: #262626" transform="translate(558.193125 41.9175) scale(0.12 -0.12)">
      <defs>
       <path id="AppleGothic-6b" d="M 288 5018 
L 755 5018 
L 755 1914 
L 2330 3424 
L 2982 3424 
L 1542 2093 
L 3187 0 
L 2554 0 
L 1197 1786 
L 755 1376 
L 755 0 
L 288 0 
L 288 5018 
z
" transform="scale(0.015625)"/>
      </defs>
      <use xlink:href="#AppleGothic-6b"/>
      <use xlink:href="#AppleGothic-69" transform="translate(51.399994 0)"/>
      <use xlink:href="#AppleGothic-6e" transform="translate(67.299988 0)"/>
      <use xlink:href="#AppleGothic-64" transform="translate(123.199982 0)"/>
     </g>
    </g>
    <g id="line2d_29">
     <path d="M 534.939375 54.256562 
L 545.939375 54.256562 
L 556.939375 54.256562 
" style="fill: none; stroke: #66c2a5; stroke-width: 2.7; stroke-linecap: round"/>
     <g>
      <use xlink:href="#mf3e1a4ea12" x="545.939375" y="54.256562" style="fill: #66c2a5; stroke: #66c2a5; stroke-width: 2.025"/>
     </g>
    </g>
    <g id="text_13">
     <!-- rest -->
     <g style="fill: #262626" transform="translate(565.739375 58.106562) scale(0.11 -0.11)">
      <defs>
       <path id="AppleGothic-72" d="M 2125 3424 
L 2125 2963 
Q 2054 2989 2009 3005 
Q 1965 3021 1933 3027 
Q 1901 3034 1865 3037 
Q 1830 3040 1773 3040 
Q 1306 3040 1005 2586 
Q 749 2170 749 1658 
L 749 0 
L 288 0 
L 288 3424 
L 710 3424 
L 742 2835 
Q 902 3104 1043 3219 
Q 1331 3456 1734 3456 
Q 1843 3456 1936 3449 
Q 2029 3443 2125 3424 
z
" transform="scale(0.015625)"/>
       <path id="AppleGothic-74" d="M 691 4435 
L 1114 4435 
L 1114 3430 
L 2016 3430 
L 2016 3014 
L 1114 3014 
L 1114 838 
Q 1114 570 1213 454 
Q 1312 339 1555 339 
Q 1696 339 1795 371 
Q 1894 403 2016 454 
L 2016 38 
Q 1914 6 1770 -22 
Q 1626 -51 1478 -51 
Q 1094 -51 883 122 
Q 646 301 646 698 
L 646 3014 
L 70 3014 
L 70 3430 
L 646 3430 
L 691 4435 
z
" transform="scale(0.015625)"/>
      </defs>
      <use xlink:href="#AppleGothic-72"/>
      <use xlink:href="#AppleGothic-65" transform="translate(35.199997 0)"/>
      <use xlink:href="#AppleGothic-73" transform="translate(90.099991 0)"/>
      <use xlink:href="#AppleGothic-74" transform="translate(139.699982 0)"/>
     </g>
    </g>
    <g id="line2d_30">
     <path d="M 534.939375 70.273594 
L 545.939375 70.273594 
L 556.939375 70.273594 
" style="fill: none; stroke-dasharray: 9.99,4.32; stroke-dashoffset: 0; stroke: #fc8d62; stroke-width: 2.7"/>
     <g>
      <use xlink:href="#m256904dacd" x="545.939375" y="70.273594" style="fill: #fc8d62; stroke: #fc8d62; stroke-width: 2.025; stroke-linejoin: miter"/>
     </g>
    </g>
    <g id="text_14">
     <!-- walking -->
     <g style="fill: #262626" transform="translate(565.739375 74.123594) scale(0.11 -0.11)">
      <defs>
       <path id="AppleGothic-77" d="M 2438 3424 
L 2874 3424 
L 3405 1811 
Q 3501 1498 3600 1162 
Q 3699 826 3770 538 
Q 3789 602 3805 646 
Q 3821 691 3834 736 
Q 3904 979 3977 1228 
Q 4051 1478 4122 1747 
L 4646 3424 
L 5126 3424 
L 3981 0 
L 3552 0 
L 2944 1894 
Q 2842 2202 2781 2378 
Q 2720 2554 2707 2618 
Q 2682 2726 2669 2803 
Q 2656 2880 2656 2944 
Q 2598 2771 2556 2636 
Q 2515 2502 2490 2406 
Q 2406 2118 2361 1945 
Q 2317 1773 2304 1715 
L 1760 0 
L 1325 0 
L 186 3424 
L 685 3424 
L 1594 538 
Q 1626 723 1664 886 
Q 1702 1050 1747 1203 
Q 1779 1312 1811 1427 
Q 1843 1542 1888 1664 
L 2438 3424 
z
" transform="scale(0.015625)"/>
       <path id="AppleGothic-61" d="M 2950 2214 
L 2950 602 
Q 2950 493 2998 413 
Q 3046 333 3174 333 
Q 3213 333 3238 336 
Q 3264 339 3290 346 
Q 3328 358 3357 371 
Q 3386 384 3405 390 
L 3405 32 
Q 3290 -6 3174 -22 
Q 3059 -38 2995 -38 
Q 2669 -38 2566 134 
Q 2483 243 2483 602 
Q 2400 461 2317 355 
Q 2234 250 2150 179 
Q 1818 -83 1376 -83 
Q 909 -83 563 192 
Q 205 486 205 941 
Q 205 1510 781 1779 
Q 992 1882 1341 1958 
Q 1690 2035 2176 2099 
L 2483 2131 
Q 2483 2579 2256 2832 
Q 2029 3085 1587 3085 
Q 1421 3085 1257 3043 
Q 1094 3002 928 2912 
Q 838 2861 729 2790 
Q 621 2720 493 2611 
L 493 3136 
Q 1037 3501 1664 3501 
Q 2304 3501 2650 3098 
Q 2950 2746 2950 2214 
z
M 2483 1542 
L 2483 1747 
L 2266 1722 
Q 1466 1638 1139 1498 
Q 704 1325 704 934 
Q 704 819 755 713 
Q 806 608 896 525 
Q 986 442 1117 390 
Q 1248 339 1408 339 
Q 1843 339 2170 691 
Q 2483 1050 2483 1542 
z
" transform="scale(0.015625)"/>
       <path id="AppleGothic-67" d="M 2822 3040 
L 2950 3424 
L 3290 3424 
L 3290 326 
Q 3290 -474 2899 -890 
Q 2509 -1306 1690 -1306 
Q 1357 -1306 1059 -1187 
Q 762 -1069 435 -819 
L 435 -256 
Q 640 -448 838 -579 
Q 1037 -710 1229 -781 
Q 1453 -864 1690 -864 
Q 2195 -864 2477 -634 
Q 2822 -352 2822 269 
L 2822 691 
Q 2579 288 2221 122 
Q 1978 6 1683 6 
Q 1050 6 621 512 
Q 198 1030 198 1709 
Q 198 2387 595 2906 
Q 1056 3501 1773 3501 
Q 2131 3501 2451 3328 
Q 2547 3270 2640 3200 
Q 2733 3130 2822 3040 
z
M 2822 1658 
L 2822 2598 
Q 2714 2720 2602 2803 
Q 2490 2886 2381 2950 
Q 2253 3021 2118 3053 
Q 1984 3085 1843 3085 
Q 1363 3085 1050 2746 
Q 698 2362 698 1734 
Q 698 1165 992 794 
Q 1280 429 1741 429 
Q 2195 429 2509 781 
Q 2822 1120 2822 1658 
z
" transform="scale(0.015625)"/>
      </defs>
      <use xlink:href="#AppleGothic-77"/>
      <use xlink:href="#AppleGothic-61" transform="translate(83.499985 0)"/>
      <use xlink:href="#AppleGothic-6c" transform="translate(139.999969 0)"/>
      <use xlink:href="#AppleGothic-6b" transform="translate(156.699966 0)"/>
      <use xlink:href="#AppleGothic-69" transform="translate(208.09996 0)"/>
      <use xlink:href="#AppleGothic-6e" transform="translate(223.999954 0)"/>
      <use xlink:href="#AppleGothic-67" transform="translate(279.899948 0)"/>
     </g>
    </g>
    <g id="line2d_31">
     <path d="M 534.939375 86.642969 
L 545.939375 86.642969 
L 556.939375 86.642969 
" style="fill: none; stroke-dasharray: 2.7,4.455; stroke-dashoffset: 0; stroke: #8da0cb; stroke-width: 2.7"/>
     <g>
      <use xlink:href="#m6217eb9106" x="545.939375" y="86.642969" style="fill: #8da0cb; stroke: #8da0cb; stroke-width: 2.025; stroke-linejoin: miter"/>
     </g>
    </g>
    <g id="text_15">
     <!-- running -->
     <g style="fill: #262626" transform="translate(565.739375 90.492969) scale(0.11 -0.11)">
      <use xlink:href="#AppleGothic-72"/>
      <use xlink:href="#AppleGothic-75" transform="translate(35.199997 0)"/>
      <use xlink:href="#AppleGothic-6e" transform="translate(90.699982 0)"/>
      <use xlink:href="#AppleGothic-6e" transform="translate(146.599976 0)"/>
      <use xlink:href="#AppleGothic-69" transform="translate(202.499969 0)"/>
      <use xlink:href="#AppleGothic-6e" transform="translate(218.399963 0)"/>
      <use xlink:href="#AppleGothic-67" transform="translate(274.299957 0)"/>
     </g>
    </g>
   </g>
  </g>
 </g>
 <defs>
  <clipPath id="p6b8bea47b5">
   <rect x="54.613125" y="22.60875" width="558" height="332.64"/>
  </clipPath>
 </defs>
</svg>
