<?xml version="1.0" encoding="utf-8" standalone="no"?>
<!DOCTYPE svg PUBLIC "-//W3C//DTD SVG 1.1//EN"
  "http://www.w3.org/Graphics/SVG/1.1/DTD/svg11.dtd">
<svg xmlns:xlink="http://www.w3.org/1999/xlink" width="510.160937pt" height="322.436875pt" viewBox="0 0 510.160937 322.436875" xmlns="http://www.w3.org/2000/svg" version="1.1">
 <metadata>
  <rdf:RDF xmlns:dc="http://purl.org/dc/elements/1.1/" xmlns:cc="http://creativecommons.org/ns#" xmlns:rdf="http://www.w3.org/1999/02/22-rdf-syntax-ns#">
   <cc:Work>
    <dc:type rdf:resource="http://purl.org/dc/dcmitype/StillImage"/>
    <dc:date>2026-05-22T14:25:55.645639</dc:date>
    <dc:format>image/svg+xml</dc:format>
    <dc:creator>
     <cc:Agent>
      <dc:title>Matplotlib v3.10.9, https://matplotlib.org/</dc:title>
     </cc:Agent>
    </dc:creator>
   </cc:Work>
  </rdf:RDF>
 </metadata>
 <defs>
  <style type="text/css">*{stroke-linejoin: round; stroke-linecap: butt}</style>
 </defs>
 <g id="figure_1">
  <g id="patch_1">
   <path d="M 0 322.436875 
L 510.160937 322.436875 
L 510.160937 0 
L 0 0 
z
" style="fill: #ffffff"/>
  </g>
  <g id="axes_1">
   <g id="patch_2">
    <path d="M 46.360938 315.236875 
L 492.760937 315.236875 
L 492.760937 38.036875 
L 46.360938 38.036875 
z
" style="fill: #ffffff"/>
   </g>
   <g id="patch_3">
    <path d="M 46.360938 176.636875 
L 492.760937 176.636875 
L 492.760937 38.036875 
L 46.360938 38.036875 
z
" clip-path="url(#pfde2db19d8)" style="fill: #2ecc71; opacity: 0.1; stroke: #2ecc71; stroke-linejoin: miter"/>
   </g>
   <g id="patch_4">
    <path d="M 46.360938 315.236875 
L 492.760937 315.236875 
L 492.760937 176.636875 
L 46.360938 176.636875 
z
" clip-path="url(#pfde2db19d8)" style="fill: #e74c3c; opacity: 0.1; stroke: #e74c3c; stroke-linejoin: miter"/>
   </g>
   <g id="matplotlib.axis_1">
    <g id="xtick_1">
     <g id="line2d_1">
      <defs>
       <path id="m0701854de3" d="M 0 0 
L 0 3.5 
" style="stroke: #000000; stroke-width: 0.8"/>
      </defs>
      <g>
       <use xlink:href="#m0701854de3" x="46.360938" y="176.636875" style="stroke: #000000; stroke-width: 0.8"/>
      </g>
     </g>
     <g id="text_1">
      <!-- 0 -->
      <g transform="translate(42.960938 191.4775) scale(0.1 -0.1)">
       <defs>
        <path id="AppleGothic-30" d="M 2227 -83 
Q 1414 -83 934 576 
Q 461 1229 461 2387 
Q 461 3552 973 4218 
Q 1453 4858 2221 4858 
Q 3027 4858 3482 4173 
Q 3955 3494 3955 2394 
Q 3955 1248 3462 582 
Q 2976 -83 2227 -83 
z
M 2176 346 
Q 2861 346 3200 992 
Q 3462 1536 3462 2400 
Q 3462 3315 3162 3859 
Q 2822 4429 2214 4429 
Q 1574 4429 1248 3821 
Q 960 3283 960 2374 
Q 960 1478 1248 941 
Q 1574 346 2176 346 
z
" transform="scale(0.015625)"/>
       </defs>
       <use xlink:href="#AppleGothic-30"/>
      </g>
     </g>
    </g>
    <g id="xtick_2">
     <g id="line2d_2">
      <g>
       <use xlink:href="#m0701854de3" x="135.640938" y="176.636875" style="stroke: #000000; stroke-width: 0.8"/>
      </g>
     </g>
     <g id="text_2">
      <!-- 20 -->
      <g transform="translate(128.840937 191.4775) scale(0.1 -0.1)">
       <defs>
        <path id="AppleGothic-32" d="M 1101 429 
L 3942 429 
L 3942 0 
L 653 0 
L 653 205 
Q 653 1018 1344 1664 
Q 1670 1894 1990 2124 
Q 2310 2355 2637 2592 
Q 3334 3098 3334 3597 
Q 3334 3994 3014 4218 
Q 2867 4326 2694 4377 
Q 2522 4429 2317 4429 
Q 2016 4429 1741 4352 
Q 1325 4224 883 3910 
L 883 4435 
Q 1325 4659 1667 4758 
Q 2010 4858 2317 4858 
Q 2963 4858 3405 4525 
Q 3840 4198 3840 3622 
Q 3840 2995 3168 2438 
Q 2848 2214 2531 2000 
Q 2214 1786 1894 1562 
Q 1178 1024 1101 429 
z
" transform="scale(0.015625)"/>
       </defs>
       <use xlink:href="#AppleGothic-32"/>
       <use xlink:href="#AppleGothic-30" transform="translate(67.999985 0)"/>
      </g>
     </g>
    </g>
    <g id="xtick_3">
     <g id="line2d_3">
      <g>
       <use xlink:href="#m0701854de3" x="224.920937" y="176.636875" style="stroke: #000000; stroke-width: 0.8"/>
      </g>
     </g>
     <g id="text_3">
      <!-- 40 -->
      <g transform="translate(218.120937 191.4775) scale(0.1 -0.1)">
       <defs>
        <path id="AppleGothic-34" d="M 2662 4774 
L 3130 4774 
L 3130 1811 
L 4000 1811 
L 4000 1382 
L 3130 1382 
L 3130 0 
L 2662 0 
L 2662 1382 
L 352 1382 
L 352 1811 
L 2662 4774 
z
M 2662 1811 
L 2662 4166 
L 838 1811 
L 2662 1811 
z
" transform="scale(0.015625)"/>
       </defs>
       <use xlink:href="#AppleGothic-34"/>
       <use xlink:href="#AppleGothic-30" transform="translate(67.999985 0)"/>
      </g>
     </g>
    </g>
    <g id="xtick_4">
     <g id="line2d_4">
      <g>
       <use xlink:href="#m0701854de3" x="314.200938" y="176.636875" style="stroke: #000000; stroke-width: 0.8"/>
      </g>
     </g>
     <g id="text_4">
      <!-- 60 -->
      <g transform="translate(307.400937 191.4775) scale(0.1 -0.1)">
       <defs>
        <path id="AppleGothic-36" d="M 3699 4557 
L 3699 4013 
Q 3584 4102 3475 4163 
Q 3366 4224 3258 4275 
Q 3085 4358 2918 4393 
Q 2752 4429 2586 4429 
Q 2470 4429 2352 4409 
Q 2234 4390 2118 4339 
Q 1670 4154 1395 3738 
Q 1011 3149 1011 2189 
Q 1312 2490 1568 2656 
Q 2022 2931 2534 2931 
Q 3162 2931 3584 2566 
Q 4038 2163 4038 1491 
Q 4038 806 3558 358 
Q 3078 -83 2394 -83 
Q 1670 -83 1146 454 
Q 518 1088 518 2253 
Q 518 3411 1120 4134 
Q 1715 4858 2605 4858 
Q 2938 4858 3226 4762 
Q 3309 4730 3427 4682 
Q 3546 4634 3699 4557 
z
M 1062 1702 
Q 1152 1152 1498 768 
Q 1882 346 2419 346 
Q 2899 346 3213 659 
Q 3539 973 3539 1459 
Q 3539 1920 3226 2214 
Q 2918 2502 2496 2502 
Q 1990 2502 1542 2176 
Q 1414 2080 1292 1965 
Q 1171 1850 1062 1702 
z
" transform="scale(0.015625)"/>
       </defs>
       <use xlink:href="#AppleGothic-36"/>
       <use xlink:href="#AppleGothic-30" transform="translate(67.999985 0)"/>
      </g>
     </g>
    </g>
    <g id="xtick_5">
     <g id="line2d_5">
      <g>
       <use xlink:href="#m0701854de3" x="403.480937" y="176.636875" style="stroke: #000000; stroke-width: 0.8"/>
      </g>
     </g>
     <g id="text_5">
      <!-- 80 -->
      <g transform="translate(396.680937 191.4775) scale(0.1 -0.1)">
       <defs>
        <path id="AppleGothic-38" d="M 2957 2605 
Q 3219 2528 3404 2445 
Q 3590 2362 3706 2272 
Q 4192 1926 4192 1370 
Q 4192 749 3642 333 
Q 3098 -83 2285 -83 
Q 1434 -83 947 326 
Q 512 691 512 1229 
Q 512 1798 998 2125 
Q 1146 2227 1341 2304 
Q 1536 2381 1779 2451 
Q 1574 2534 1430 2617 
Q 1286 2701 1197 2784 
Q 819 3104 819 3603 
Q 819 4173 1261 4512 
Q 1702 4858 2381 4858 
Q 3014 4858 3437 4570 
Q 3898 4262 3898 3738 
Q 3898 3373 3670 3081 
Q 3443 2790 2957 2605 
z
M 2406 2752 
Q 2624 2835 2781 2915 
Q 2938 2995 3040 3066 
Q 3398 3322 3398 3667 
Q 3398 3994 3104 4205 
Q 2822 4429 2362 4429 
Q 1894 4429 1613 4205 
Q 1325 3994 1325 3635 
Q 1325 3322 1581 3098 
Q 1696 3002 1901 2912 
Q 2106 2822 2406 2752 
z
M 2368 2304 
Q 2061 2202 1840 2106 
Q 1619 2010 1472 1920 
Q 1011 1626 1011 1235 
Q 1011 845 1376 595 
Q 1728 346 2310 346 
Q 2938 346 3315 640 
Q 3693 934 3693 1338 
Q 3693 1741 3238 1997 
Q 3104 2067 2886 2147 
Q 2669 2227 2368 2304 
z
" transform="scale(0.015625)"/>
       </defs>
       <use xlink:href="#AppleGothic-38"/>
       <use xlink:href="#AppleGothic-30" transform="translate(67.999985 0)"/>
      </g>
     </g>
    </g>
    <g id="xtick_6">
     <g id="line2d_6">
      <g>
       <use xlink:href="#m0701854de3" x="492.760937" y="176.636875" style="stroke: #000000; stroke-width: 0.8"/>
      </g>
     </g>
     <g id="text_6">
      <!-- 100 -->
      <g transform="translate(482.560937 191.4775) scale(0.1 -0.1)">
       <defs>
        <path id="AppleGothic-31" d="M 2342 4774 
L 2752 4774 
L 2752 0 
L 2285 0 
L 2285 3526 
L 1158 3526 
L 1158 3885 
L 1414 3885 
Q 1990 3885 2214 4205 
Q 2342 4410 2342 4774 
z
" transform="scale(0.015625)"/>
       </defs>
       <use xlink:href="#AppleGothic-31"/>
       <use xlink:href="#AppleGothic-30" transform="translate(67.999985 0)"/>
       <use xlink:href="#AppleGothic-30" transform="translate(135.999969 0)"/>
      </g>
     </g>
    </g>
    <g id="text_7">
     <!-- 매출 (Sales) -&gt; 커질수록 우측으로 -->
     <g transform="translate(335.870312 181.038438) scale(0.1 -0.1)">
      <defs>
       <path id="AppleGothic-b9e4" d="M 2643 1587 
L 2643 3885 
L 1210 3885 
L 1210 1581 
Q 1325 1574 1485 1571 
Q 1645 1568 1773 1568 
L 2643 1587 
z
M 5715 5082 
Q 5696 5005 5677 4934 
Q 5658 4864 5658 4800 
Q 5651 4666 5651 4451 
Q 5651 4237 5645 3942 
Q 5638 3654 5638 3404 
Q 5638 3155 5638 2944 
L 5638 2477 
L 5638 1011 
Q 5645 685 5645 416 
Q 5645 147 5651 -64 
Q 5658 -493 5664 -493 
L 5184 -506 
Q 5197 -128 5206 345 
Q 5216 819 5216 1331 
L 5216 2278 
L 4410 2278 
L 4410 1344 
Q 4410 1018 4410 778 
Q 4410 538 4416 384 
Q 4422 224 4425 102 
Q 4429 -19 4435 -115 
L 3949 -134 
Q 3955 -83 3955 -32 
Q 3955 19 3955 77 
Q 3968 506 3977 1072 
Q 3987 1638 3987 2355 
L 3994 3066 
Q 3994 3616 3984 4038 
Q 3974 4461 3962 4755 
Q 3962 4864 3942 4992 
L 3974 4992 
Q 4179 4992 4329 4973 
Q 4480 4954 4480 4883 
Q 4480 4858 4451 4762 
Q 4422 4666 4422 4614 
L 4410 2675 
L 5216 2675 
L 5216 3974 
Q 5216 4269 5213 4473 
Q 5210 4678 5203 4794 
Q 5203 4909 5196 5008 
Q 5190 5107 5178 5190 
L 5286 5190 
Q 5357 5190 5433 5187 
Q 5510 5184 5571 5174 
Q 5632 5165 5673 5142 
Q 5715 5120 5715 5082 
z
M 3098 1197 
L 1946 1203 
L 762 1190 
Q 762 1280 762 1469 
Q 762 1658 768 1958 
Q 774 2259 777 2422 
Q 781 2586 781 2618 
L 762 4275 
Q 819 4275 940 4272 
Q 1062 4269 1248 4262 
Q 1440 4256 1545 4256 
Q 1651 4256 1677 4256 
L 3098 4275 
L 3078 2554 
L 3098 1197 
z
" transform="scale(0.015625)"/>
       <path id="AppleGothic-cd9c" d="M 5946 2099 
L 4666 2125 
Q 4627 2125 4560 2125 
Q 4493 2125 4403 2131 
Q 4314 2138 4243 2138 
Q 4173 2138 4122 2138 
L 3398 2125 
L 3398 1510 
L 4243 1510 
L 5088 1542 
L 5075 979 
L 5088 442 
L 2778 461 
Q 2432 461 2189 454 
Q 1946 448 1773 435 
L 1773 -58 
Q 1997 -70 2294 -76 
Q 2592 -83 2976 -83 
L 5203 -64 
L 5203 -422 
Q 5069 -416 4957 -416 
Q 4845 -416 4755 -416 
Q 3526 -397 3226 -397 
Q 2733 -397 2256 -403 
Q 1779 -410 1306 -422 
L 1325 198 
Q 1325 448 1321 557 
Q 1318 666 1306 755 
L 3091 730 
L 3347 730 
L 4141 730 
Q 4269 736 4390 739 
Q 4512 742 4627 749 
L 4627 1216 
L 3379 1229 
L 1306 1210 
L 1306 1542 
L 2112 1510 
L 2950 1510 
L 2950 2138 
L 1677 2125 
Q 1370 2125 1043 2118 
Q 717 2112 435 2099 
L 435 2490 
Q 557 2483 752 2480 
Q 947 2477 1229 2464 
Q 1798 2451 2243 2444 
Q 2688 2438 3142 2438 
Q 3379 2438 3606 2438 
Q 3834 2438 4058 2445 
Q 4506 2458 5101 2464 
Q 5402 2477 5610 2480 
Q 5818 2483 5946 2490 
L 5946 2099 
z
M 5421 3021 
Q 5414 3002 5414 2989 
Q 5402 2957 5370 2925 
Q 5363 2912 5340 2877 
Q 5318 2842 5286 2784 
Q 5274 2771 5261 2742 
Q 5248 2714 5229 2682 
Q 4992 2714 4858 2739 
Q 4634 2784 4416 2867 
Q 4198 2950 4000 3056 
Q 3802 3162 3632 3283 
Q 3462 3405 3341 3526 
Q 3302 3571 3260 3616 
Q 3219 3661 3174 3725 
Q 2989 3501 2822 3373 
Q 2541 3155 2202 3002 
Q 1811 2822 1440 2733 
Q 1325 2707 1139 2675 
L 947 2938 
Q 928 2970 915 3002 
Q 915 3014 909 3021 
Q 909 3034 947 3043 
Q 986 3053 1040 3059 
Q 1094 3066 1148 3069 
Q 1203 3072 1242 3072 
Q 1658 3142 2074 3328 
Q 2560 3533 2803 3802 
Q 2880 3878 2970 4026 
L 2086 4026 
L 1037 3987 
L 1037 4365 
L 3155 4339 
L 3450 4339 
Q 4070 4339 4518 4345 
Q 4966 4352 5299 4365 
L 5299 3987 
Q 5062 4000 4947 4006 
Q 4717 4019 4566 4025 
Q 4416 4032 4352 4032 
L 3354 4026 
Q 3629 3622 4179 3360 
Q 4448 3283 4710 3206 
Q 4973 3130 5242 3053 
Q 5421 3053 5421 3021 
z
M 3846 4806 
Q 3699 4819 3523 4825 
Q 3347 4832 3181 4832 
Q 3014 4832 2838 4825 
Q 2662 4819 2509 4806 
L 2509 5171 
L 3162 5152 
Q 3405 5152 3581 5161 
Q 3757 5171 3846 5184 
L 3846 4806 
z
" transform="scale(0.015625)"/>
       <path id="AppleGothic-20" transform="scale(0.015625)"/>
       <path id="AppleGothic-28" d="M 2227 5261 
L 2650 5261 
Q 2342 4768 2169 4473 
Q 1997 4179 1958 4083 
Q 1606 3283 1606 2272 
Q 1606 1587 1754 1018 
Q 1882 570 2138 102 
Q 2150 70 2275 -131 
Q 2400 -333 2630 -717 
L 2227 -717 
Q 2099 -531 1980 -355 
Q 1862 -179 1734 0 
Q 1581 243 1469 483 
Q 1357 723 1274 954 
Q 1069 1587 1069 2272 
Q 1069 2963 1261 3558 
Q 1338 3789 1450 4022 
Q 1562 4256 1715 4499 
Q 1843 4691 1971 4880 
Q 2099 5069 2227 5261 
z
" transform="scale(0.015625)"/>
       <path id="AppleGothic-53" d="M 3418 4666 
L 3418 4019 
Q 3251 4160 3081 4269 
Q 2912 4378 2746 4448 
Q 2362 4627 1965 4627 
Q 1466 4627 1139 4378 
Q 806 4122 806 3770 
Q 806 3258 1562 3002 
Q 1914 2880 2262 2768 
Q 2611 2656 2970 2541 
Q 3731 2176 3731 1453 
Q 3731 749 3187 320 
Q 2669 -83 1901 -83 
Q 1389 -83 915 115 
Q 640 224 262 474 
L 262 1126 
Q 755 685 1261 506 
Q 1427 442 1587 416 
Q 1747 390 1907 390 
Q 2419 390 2771 646 
Q 3162 928 3162 1382 
Q 3162 1933 2419 2221 
Q 2061 2330 1715 2445 
Q 1370 2560 1024 2669 
Q 275 3014 275 3731 
Q 275 4333 749 4710 
Q 1235 5101 1965 5101 
Q 2413 5101 2861 4934 
Q 3091 4858 3418 4666 
z
" transform="scale(0.015625)"/>
       <path id="AppleGothic-61" d="M 2950 2214 
L 2950 602 
Q 2950 493 2998 413 
Q 3046 333 3174 333 
Q 3213 333 3238 336 
Q 3264 339 3290 346 
Q 3328 358 3357 371 
Q 3386 384 3405 390 
L 3405 32 
Q 3290 -6 3174 -22 
Q 3059 -38 2995 -38 
Q 2669 -38 2566 134 
Q 2483 243 2483 602 
Q 2400 461 2317 355 
Q 2234 250 2150 179 
Q 1818 -83 1376 -83 
Q 909 -83 563 192 
Q 205 486 205 941 
Q 205 1510 781 1779 
Q 992 1882 1341 1958 
Q 1690 2035 2176 2099 
L 2483 2131 
Q 2483 2579 2256 2832 
Q 2029 3085 1587 3085 
Q 1421 3085 1257 3043 
Q 1094 3002 928 2912 
Q 838 2861 729 2790 
Q 621 2720 493 2611 
L 493 3136 
Q 1037 3501 1664 3501 
Q 2304 3501 2650 3098 
Q 2950 2746 2950 2214 
z
M 2483 1542 
L 2483 1747 
L 2266 1722 
Q 1466 1638 1139 1498 
Q 704 1325 704 934 
Q 704 819 755 713 
Q 806 608 896 525 
Q 986 442 1117 390 
Q 1248 339 1408 339 
Q 1843 339 2170 691 
Q 2483 1050 2483 1542 
z
" transform="scale(0.015625)"/>
       <path id="AppleGothic-6c" d="M 288 5018 
L 749 5018 
L 749 0 
L 288 0 
L 288 5018 
z
" transform="scale(0.015625)"/>
       <path id="AppleGothic-65" d="M 3296 1850 
L 691 1850 
Q 691 1114 1033 726 
Q 1376 339 1933 339 
Q 2355 339 2746 608 
Q 2854 678 2976 784 
Q 3098 890 3238 1030 
L 3238 474 
Q 3085 358 2953 272 
Q 2822 186 2707 128 
Q 2304 -83 1901 -83 
Q 1203 -83 717 397 
Q 192 902 192 1709 
Q 192 2470 666 2982 
Q 1146 3501 1850 3501 
Q 2534 3501 2938 3002 
Q 3296 2547 3296 1850 
z
M 755 2240 
L 2758 2240 
Q 2682 2675 2429 2889 
Q 2176 3104 1818 3104 
Q 1421 3104 1146 2854 
Q 890 2624 755 2240 
z
" transform="scale(0.015625)"/>
       <path id="AppleGothic-73" d="M 224 294 
L 224 851 
Q 621 531 1030 403 
Q 1152 371 1267 355 
Q 1382 339 1504 339 
Q 1894 339 2150 518 
Q 2413 710 2413 947 
Q 2413 1075 2317 1210 
Q 2182 1376 1600 1510 
Q 909 1683 678 1798 
Q 230 2054 230 2515 
Q 230 2944 602 3219 
Q 979 3501 1542 3501 
Q 1798 3501 2003 3456 
Q 2208 3411 2387 3337 
Q 2566 3264 2720 3155 
L 2720 2598 
Q 2451 2822 2156 2953 
Q 1862 3085 1536 3085 
Q 1210 3085 973 2938 
Q 730 2790 730 2554 
Q 730 2240 1306 2054 
Q 1574 1978 1836 1901 
Q 2099 1824 2368 1747 
Q 2950 1498 2950 992 
Q 2950 563 2547 237 
Q 2138 -83 1530 -83 
Q 1261 -83 1005 -26 
Q 595 64 224 294 
z
" transform="scale(0.015625)"/>
       <path id="AppleGothic-29" d="M 2221 2272 
Q 2221 1587 2016 960 
Q 1862 499 1555 6 
Q 1427 -179 1305 -355 
Q 1184 -531 1062 -717 
L 659 -717 
Q 781 -512 902 -310 
Q 1024 -109 1152 96 
Q 1280 333 1376 557 
Q 1472 781 1530 1005 
Q 1683 1562 1683 2272 
Q 1683 2650 1641 2973 
Q 1600 3296 1517 3584 
Q 1459 3802 1356 4029 
Q 1254 4256 1120 4499 
Q 992 4691 873 4880 
Q 755 5069 640 5261 
L 1062 5261 
Q 1190 5069 1315 4880 
Q 1440 4691 1568 4506 
Q 1722 4256 1837 4022 
Q 1952 3789 2022 3565 
Q 2221 2976 2221 2272 
z
" transform="scale(0.015625)"/>
       <path id="AppleGothic-2d" d="M 256 1958 
L 2349 1958 
L 2349 1491 
L 256 1491 
L 256 1958 
z
" transform="scale(0.015625)"/>
       <path id="AppleGothic-3e" d="M 640 5069 
L 870 5248 
L 2675 2368 
L 870 -512 
L 640 -333 
L 2304 2368 
L 640 5069 
z
" transform="scale(0.015625)"/>
       <path id="AppleGothic-cee4" d="M 5472 5075 
Q 5472 5062 5453 4985 
Q 5434 4909 5434 4864 
L 5421 2861 
L 5421 1504 
Q 5427 1101 5427 749 
Q 5427 397 5434 83 
Q 5440 -550 5446 -550 
L 4934 -550 
Q 4947 -230 4950 154 
Q 4954 538 4954 902 
L 4954 2304 
L 4403 2317 
L 3661 2304 
L 3661 2726 
Q 3802 2714 3968 2707 
Q 4134 2701 4339 2701 
L 4954 2714 
L 4954 4672 
Q 4954 4813 4944 4944 
Q 4934 5075 4922 5190 
Q 5114 5190 5286 5171 
Q 5472 5152 5472 5075 
z
M 3782 4506 
Q 3770 4269 3763 4134 
Q 3718 3693 3616 3315 
Q 3514 2938 3347 2611 
Q 2982 1914 2330 1344 
Q 2086 1139 1830 963 
Q 1574 787 1286 640 
Q 890 422 813 422 
Q 768 454 739 483 
Q 710 512 685 525 
Q 518 659 493 672 
Q 461 685 442 710 
Q 429 723 422 736 
Q 422 762 483 778 
Q 544 794 595 813 
Q 762 864 858 909 
Q 1485 1171 2010 1632 
Q 2214 1798 2377 1971 
Q 2541 2144 2669 2323 
Q 2752 2432 2822 2566 
Q 2893 2701 2963 2867 
Q 2912 2854 2873 2851 
Q 2835 2848 2803 2842 
Q 2579 2810 2387 2784 
Q 2195 2758 2035 2733 
Q 1728 2682 1318 2656 
Q 1248 2650 1161 2646 
Q 1075 2643 960 2630 
Q 909 2630 838 2604 
Q 768 2579 749 2579 
Q 691 2579 614 2771 
Q 544 2970 544 3040 
L 685 3040 
Q 819 3040 937 3040 
Q 1056 3040 1165 3046 
Q 1274 3053 1459 3062 
Q 1645 3072 1914 3098 
Q 2182 3123 2403 3145 
Q 2624 3168 2803 3194 
Q 2874 3206 2950 3219 
Q 3027 3232 3110 3245 
Q 3136 3315 3155 3411 
Q 3187 3539 3209 3619 
Q 3232 3699 3238 3744 
Q 3251 3789 3260 3856 
Q 3270 3923 3283 4019 
Q 3283 4032 3283 4057 
Q 3283 4083 3290 4115 
L 2259 4115 
Q 1952 4115 1718 4115 
Q 1485 4115 1318 4109 
Q 1152 4102 1008 4099 
Q 864 4096 736 4083 
L 736 4499 
L 1779 4486 
L 3782 4506 
z
" transform="scale(0.015625)"/>
       <path id="AppleGothic-c9c8" d="M 5504 -403 
Q 5280 -403 5097 -400 
Q 4915 -397 4781 -397 
Q 3725 -378 3469 -378 
Q 2867 -378 2374 -384 
Q 1882 -390 1421 -403 
L 1440 179 
Q 1440 314 1440 410 
Q 1440 506 1437 582 
Q 1434 659 1430 723 
Q 1427 787 1421 858 
L 3501 845 
Q 3955 845 4304 857 
Q 4653 870 4922 883 
L 4922 1414 
L 3347 1408 
Q 2746 1408 2285 1395 
Q 1824 1382 1414 1363 
L 1414 1786 
Q 1754 1773 2218 1766 
Q 2682 1760 3341 1760 
Q 3910 1760 4435 1766 
Q 4960 1773 5382 1786 
L 5370 1101 
L 5382 512 
L 4621 506 
L 3194 518 
Q 2778 518 2451 512 
Q 2125 506 1882 493 
L 1882 -45 
L 2925 -58 
L 5504 -6 
L 5504 -403 
z
M 4237 2560 
Q 4186 2522 4147 2477 
L 3904 2227 
Q 3770 2285 3680 2329 
Q 3590 2374 3552 2400 
Q 3386 2490 3245 2582 
Q 3104 2675 2982 2784 
Q 2880 2867 2784 2979 
Q 2688 3091 2592 3226 
Q 2560 3270 2528 3328 
Q 2496 3386 2451 3456 
Q 2419 3386 2390 3338 
Q 2362 3290 2330 3245 
Q 2163 2995 1862 2746 
Q 1696 2605 1501 2477 
Q 1306 2349 1062 2234 
Q 954 2182 886 2150 
Q 819 2118 800 2106 
Q 781 2118 640 2266 
Q 614 2285 579 2323 
Q 544 2362 493 2413 
Q 493 2426 518 2438 
Q 544 2451 573 2460 
Q 602 2470 630 2480 
Q 659 2490 659 2490 
Q 774 2534 912 2604 
Q 1050 2675 1194 2764 
Q 1338 2854 1478 2960 
Q 1619 3066 1741 3187 
Q 1888 3334 1990 3494 
Q 2093 3654 2163 3827 
Q 2253 4064 2253 4282 
L 2246 4403 
L 1472 4403 
L 755 4378 
L 755 4794 
L 2605 4768 
Q 2803 4768 3008 4771 
Q 3213 4774 3401 4777 
Q 3590 4781 3756 4787 
Q 3923 4794 4051 4794 
L 4051 4378 
L 3392 4403 
L 2739 4403 
Q 2726 4339 2720 4320 
Q 2707 4256 2700 4205 
Q 2694 4154 2694 4115 
Q 2694 3930 2746 3757 
Q 2822 3520 3008 3328 
Q 3258 3040 3686 2816 
Q 3878 2733 3984 2688 
Q 4090 2643 4115 2630 
Q 4134 2624 4153 2617 
Q 4173 2611 4192 2605 
Q 4237 2586 4237 2560 
z
M 5446 5114 
Q 5395 4979 5395 4922 
L 5389 4339 
L 5414 2406 
L 5408 2227 
Q 5408 2157 5353 2137 
Q 5299 2118 5165 2106 
L 5024 2093 
Q 4934 2093 4934 2131 
L 4934 2547 
Q 4934 2931 4937 3209 
Q 4941 3488 4947 3731 
L 4947 4051 
Q 4947 4499 4937 4752 
Q 4928 5005 4915 5184 
L 5184 5190 
Q 5312 5190 5379 5177 
Q 5446 5165 5446 5114 
z
" transform="scale(0.015625)"/>
       <path id="AppleGothic-c218" d="M 6022 1952 
L 3411 1952 
L 3424 896 
L 3462 -582 
L 2982 -582 
L 2982 1952 
Q 2912 1952 2774 1949 
Q 2637 1946 2419 1939 
Q 2208 1933 2086 1933 
Q 1965 1933 1933 1933 
L 378 1894 
L 378 2304 
L 3206 2298 
Q 3706 2298 4202 2307 
Q 4698 2317 5184 2330 
Q 5536 2342 6022 2368 
L 6022 1952 
z
M 5792 3482 
Q 5792 3450 5747 3402 
Q 5702 3354 5658 3315 
L 5523 3117 
Q 5453 3123 5395 3126 
Q 5338 3130 5286 3142 
Q 4685 3251 4090 3610 
Q 3699 3846 3411 4250 
Q 3360 4320 3312 4409 
Q 3264 4499 3206 4621 
Q 3149 4512 3097 4422 
Q 3046 4333 2995 4262 
Q 2688 3846 2208 3552 
Q 2054 3450 1875 3370 
Q 1696 3290 1498 3219 
Q 1382 3181 1232 3142 
Q 1082 3104 896 3072 
Q 896 3072 873 3101 
Q 851 3130 828 3162 
Q 806 3194 780 3226 
Q 755 3258 749 3270 
Q 736 3290 678 3347 
Q 621 3405 621 3424 
L 640 3443 
Q 730 3450 810 3453 
Q 890 3456 954 3469 
Q 1338 3526 1674 3676 
Q 2010 3827 2298 4077 
Q 2605 4326 2790 4659 
Q 2842 4755 2886 4880 
Q 2931 5005 2970 5171 
L 3411 5133 
Q 3475 5133 3475 5075 
Q 3475 5056 3472 5037 
Q 3469 5018 3462 4992 
Q 3462 4973 3443 4947 
Q 3482 4832 3520 4755 
Q 3738 4301 4230 3974 
Q 4659 3686 5261 3571 
Q 5363 3552 5488 3536 
Q 5613 3520 5766 3507 
Q 5786 3507 5792 3482 
z
" transform="scale(0.015625)"/>
       <path id="AppleGothic-b85d" d="M 5030 -493 
L 4557 -506 
L 4576 378 
L 4563 934 
L 1261 909 
L 1261 1306 
Q 1382 1299 1478 1299 
Q 1574 1299 1658 1299 
Q 2202 1286 2570 1280 
Q 2938 1274 3130 1274 
L 5011 1293 
L 5030 -493 
z
M 5933 1760 
L 3155 1773 
Q 2675 1773 2284 1769 
Q 1894 1766 1574 1760 
Q 1267 1754 985 1747 
Q 704 1741 448 1734 
L 448 2118 
Q 794 2106 1200 2093 
Q 1606 2080 1990 2080 
L 2970 2080 
L 2970 2752 
L 1293 2726 
Q 1306 2880 1312 3081 
Q 1318 3283 1318 3507 
L 1312 4013 
Q 1421 4006 1581 4006 
Q 1741 4006 1946 4000 
Q 2157 3994 2307 3994 
Q 2458 3994 2547 3994 
L 4640 4013 
L 4640 4595 
L 3930 4602 
L 1286 4563 
L 1286 4915 
L 5088 4934 
L 5075 4320 
L 5088 3699 
L 3104 3706 
L 1773 3693 
L 1773 3053 
L 5107 3098 
L 5101 2746 
L 3398 2758 
L 3398 2080 
L 4378 2080 
Q 4800 2080 5414 2118 
Q 5510 2125 5641 2134 
Q 5773 2144 5933 2157 
L 5933 1760 
z
" transform="scale(0.015625)"/>
       <path id="AppleGothic-c6b0" d="M 4851 3942 
Q 4851 4301 4390 4461 
Q 3930 4634 3219 4634 
Q 2387 4634 1961 4467 
Q 1536 4301 1536 3994 
Q 1536 3578 2157 3398 
Q 2566 3283 3219 3283 
Q 3962 3283 4365 3418 
Q 4851 3590 4851 3942 
z
M 5984 1869 
Q 5722 1882 5411 1888 
Q 5101 1894 4813 1894 
Q 4474 1894 4115 1888 
Q 3757 1882 3450 1869 
L 3443 851 
Q 3443 422 3449 80 
Q 3456 -262 3475 -589 
L 2963 -589 
L 2982 928 
L 2976 1882 
L 410 1843 
L 410 2266 
L 3213 2253 
Q 3584 2253 4032 2259 
Q 4480 2266 4998 2278 
Q 5376 2291 5984 2317 
L 5984 1869 
z
M 5325 3930 
Q 5325 3424 4723 3149 
Q 4160 2886 3245 2886 
Q 2413 2886 1850 3078 
Q 1069 3360 1069 3936 
Q 1069 4531 1747 4800 
Q 2285 5011 3200 5011 
Q 3661 5011 4029 4950 
Q 4397 4890 4678 4762 
Q 5325 4474 5325 3930 
z
" transform="scale(0.015625)"/>
       <path id="AppleGothic-ce21" d="M 5056 -563 
L 4557 -563 
L 4576 147 
L 4563 845 
L 2906 858 
Q 2502 858 2220 858 
Q 1939 858 1760 851 
Q 1414 851 1184 832 
L 1184 1248 
Q 1299 1242 1494 1242 
Q 1690 1242 1958 1235 
Q 2227 1229 2480 1229 
Q 2733 1229 2976 1229 
Q 3859 1242 4377 1251 
Q 4896 1261 5050 1261 
L 5056 -563 
z
M 6003 1779 
Q 5779 1779 5580 1779 
Q 5382 1779 5203 1786 
Q 4339 1798 3840 1808 
Q 3341 1818 3206 1818 
Q 2938 1818 2550 1811 
Q 2163 1805 1664 1792 
Q 1158 1779 838 1772 
Q 518 1766 371 1766 
L 371 2189 
Q 1267 2189 1948 2182 
Q 2630 2176 3219 2170 
Q 3750 2170 4480 2189 
Q 4851 2202 5228 2211 
Q 5606 2221 6003 2234 
L 6003 1779 
z
M 5530 3014 
L 5261 2611 
Q 4595 2701 4128 2912 
Q 3584 3162 3194 3629 
Q 2893 3219 2234 2912 
Q 1581 2605 1050 2605 
Q 966 2714 889 2819 
Q 813 2925 704 3008 
Q 1421 3008 1990 3232 
Q 2714 3514 2963 4051 
L 2106 4051 
Q 1811 4051 1523 4041 
Q 1235 4032 1069 4026 
L 1069 4422 
Q 1139 4422 1363 4419 
Q 1587 4416 1971 4410 
Q 2355 4403 2662 4403 
Q 2970 4403 3213 4403 
Q 3494 4403 3772 4403 
Q 4051 4403 4339 4416 
Q 4915 4435 5312 4454 
L 5312 4058 
L 4275 4070 
L 3469 4051 
Q 3507 3846 3724 3644 
Q 3942 3443 4294 3277 
Q 4582 3142 4992 3066 
Q 5158 3040 5289 3027 
Q 5421 3014 5530 3014 
z
M 3936 4774 
L 3219 4787 
L 2477 4774 
L 2477 5165 
Q 2534 5165 2665 5161 
Q 2797 5158 2995 5152 
Q 3200 5146 3315 5142 
Q 3430 5139 3462 5139 
L 3533 5139 
Q 3648 5139 3757 5145 
Q 3866 5152 3936 5171 
L 3936 4774 
z
" transform="scale(0.015625)"/>
       <path id="AppleGothic-c73c" d="M 4858 3200 
Q 4858 3712 4403 3962 
Q 4198 4083 3916 4137 
Q 3635 4192 3270 4192 
Q 2451 4192 2000 3949 
Q 1549 3706 1549 3270 
Q 1549 2650 2131 2400 
Q 2496 2240 3098 2240 
Q 3488 2240 3798 2291 
Q 4109 2342 4333 2451 
Q 4858 2701 4858 3200 
z
M 5997 205 
Q 5472 218 4825 224 
Q 4179 230 3501 230 
L 3187 230 
Q 2944 230 2704 230 
Q 2464 230 2240 224 
Q 2010 218 1667 211 
Q 1325 205 877 192 
Q 755 186 640 186 
Q 525 186 403 179 
L 403 666 
Q 480 666 643 666 
Q 806 666 1069 659 
Q 1331 653 1619 649 
Q 1907 646 2234 640 
Q 2560 634 2793 634 
Q 3027 634 3162 634 
Q 3398 634 3628 634 
Q 3859 634 4090 640 
Q 4320 646 4579 649 
Q 4838 653 5146 659 
Q 5734 666 5997 678 
L 5997 205 
z
M 5331 3194 
Q 5331 2534 4717 2170 
Q 4160 1837 3290 1837 
L 3117 1830 
Q 2349 1830 1792 2118 
Q 1088 2483 1088 3213 
Q 1088 3942 1773 4301 
Q 2362 4595 3219 4595 
Q 4128 4595 4698 4256 
Q 5331 3878 5331 3194 
z
" transform="scale(0.015625)"/>
       <path id="AppleGothic-b85c" d="M 6022 45 
Q 5920 51 5827 51 
Q 5734 51 5651 51 
Q 4442 70 3238 70 
Q 2784 70 2409 70 
Q 2035 70 1728 64 
Q 1421 58 1190 58 
Q 960 58 813 51 
Q 666 51 557 51 
Q 448 51 378 45 
L 378 480 
L 1914 461 
L 2970 461 
L 2963 1542 
L 1190 1523 
L 1203 2330 
L 1190 3264 
L 3040 3251 
L 4710 3264 
L 4710 4096 
L 2816 4102 
L 1158 4090 
L 1158 4493 
L 5158 4493 
Q 5146 4326 5139 4128 
Q 5133 3930 5133 3738 
L 5152 2867 
L 1626 2848 
L 1626 1933 
L 3155 1920 
Q 3411 1920 3689 1920 
Q 3968 1920 4246 1923 
Q 4525 1926 4790 1932 
Q 5056 1939 5293 1946 
L 5293 1536 
L 3392 1542 
L 3392 467 
L 6016 474 
L 6022 45 
z
" transform="scale(0.015625)"/>
      </defs>
      <use xlink:href="#AppleGothic-b9e4"/>
      <use xlink:href="#AppleGothic-cd9c" transform="translate(99.999985 0)"/>
      <use xlink:href="#AppleGothic-20" transform="translate(199.999969 0)"/>
      <use xlink:href="#AppleGothic-28" transform="translate(231.999954 0)"/>
      <use xlink:href="#AppleGothic-53" transform="translate(281.999939 0)"/>
      <use xlink:href="#AppleGothic-61" transform="translate(345.199936 0)"/>
      <use xlink:href="#AppleGothic-6c" transform="translate(401.699921 0)"/>
      <use xlink:href="#AppleGothic-65" transform="translate(418.399918 0)"/>
      <use xlink:href="#AppleGothic-73" transform="translate(473.299911 0)"/>
      <use xlink:href="#AppleGothic-29" transform="translate(522.899902 0)"/>
      <use xlink:href="#AppleGothic-20" transform="translate(572.899887 0)"/>
      <use xlink:href="#AppleGothic-2d" transform="translate(604.899872 0)"/>
      <use xlink:href="#AppleGothic-3e" transform="translate(654.899857 0)"/>
      <use xlink:href="#AppleGothic-20" transform="translate(704.899841 0)"/>
      <use xlink:href="#AppleGothic-cee4" transform="translate(736.899826 0)"/>
      <use xlink:href="#AppleGothic-c9c8" transform="translate(836.899811 0)"/>
      <use xlink:href="#AppleGothic-c218" transform="translate(936.899796 0)"/>
      <use xlink:href="#AppleGothic-b85d" transform="translate(1036.89978 0)"/>
      <use xlink:href="#AppleGothic-20" transform="translate(1136.899765 0)"/>
      <use xlink:href="#AppleGothic-c6b0" transform="translate(1168.89975 0)"/>
      <use xlink:href="#AppleGothic-ce21" transform="translate(1268.899734 0)"/>
      <use xlink:href="#AppleGothic-c73c" transform="translate(1368.899719 0)"/>
      <use xlink:href="#AppleGothic-b85c" transform="translate(1468.899704 0)"/>
     </g>
    </g>
   </g>
   <g id="matplotlib.axis_2">
    <g id="ytick_1">
     <g id="line2d_7">
      <defs>
       <path id="m2068bfc0a3" d="M 0 0 
L -3.5 0 
" style="stroke: #000000; stroke-width: 0.8"/>
      </defs>
      <g>
       <use xlink:href="#m2068bfc0a3" x="46.360938" y="287.516875" style="stroke: #000000; stroke-width: 0.8"/>
      </g>
     </g>
     <g id="text_8">
      <!-- -40 -->
      <g transform="translate(20.760938 291.437188) scale(0.1 -0.1)">
       <use xlink:href="#AppleGothic-2d"/>
       <use xlink:href="#AppleGothic-34" transform="translate(49.999985 0)"/>
       <use xlink:href="#AppleGothic-30" transform="translate(117.999969 0)"/>
      </g>
     </g>
    </g>
    <g id="ytick_2">
     <g id="line2d_8">
      <g>
       <use xlink:href="#m2068bfc0a3" x="46.360938" y="232.076875" style="stroke: #000000; stroke-width: 0.8"/>
      </g>
     </g>
     <g id="text_9">
      <!-- -20 -->
      <g transform="translate(20.760938 235.997188) scale(0.1 -0.1)">
       <use xlink:href="#AppleGothic-2d"/>
       <use xlink:href="#AppleGothic-32" transform="translate(49.999985 0)"/>
       <use xlink:href="#AppleGothic-30" transform="translate(117.999969 0)"/>
      </g>
     </g>
    </g>
    <g id="ytick_3">
     <g id="line2d_9">
      <g>
       <use xlink:href="#m2068bfc0a3" x="46.360938" y="176.636875" style="stroke: #000000; stroke-width: 0.8"/>
      </g>
     </g>
     <g id="text_10">
      <!-- 0 -->
      <g transform="translate(32.560938 180.557188) scale(0.1 -0.1)">
       <use xlink:href="#AppleGothic-30"/>
      </g>
     </g>
    </g>
    <g id="ytick_4">
     <g id="line2d_10">
      <g>
       <use xlink:href="#m2068bfc0a3" x="46.360938" y="121.196875" style="stroke: #000000; stroke-width: 0.8"/>
      </g>
     </g>
     <g id="text_11">
      <!-- 20 -->
      <g transform="translate(25.760938 125.117188) scale(0.1 -0.1)">
       <use xlink:href="#AppleGothic-32"/>
       <use xlink:href="#AppleGothic-30" transform="translate(67.999985 0)"/>
      </g>
     </g>
    </g>
    <g id="ytick_5">
     <g id="line2d_11">
      <g>
       <use xlink:href="#m2068bfc0a3" x="46.360938" y="65.756875" style="stroke: #000000; stroke-width: 0.8"/>
      </g>
     </g>
     <g id="text_12">
      <!-- 40 -->
      <g transform="translate(25.760938 69.677187) scale(0.1 -0.1)">
       <use xlink:href="#AppleGothic-34"/>
       <use xlink:href="#AppleGothic-30" transform="translate(67.999985 0)"/>
      </g>
     </g>
    </g>
    <g id="text_13">
     <!-- 수익 (Profit) -->
     <g transform="translate(15.040625 95.0275) rotate(-90) scale(0.1 -0.1)">
      <defs>
       <path id="AppleGothic-c775" d="M 3334 3501 
Q 3334 3898 3043 4144 
Q 2752 4390 2259 4390 
Q 1760 4390 1446 4109 
Q 1171 3853 1171 3488 
Q 1171 3136 1434 2899 
Q 1728 2630 2259 2630 
Q 2490 2630 2688 2691 
Q 2886 2752 3030 2867 
Q 3174 2982 3254 3142 
Q 3334 3302 3334 3501 
z
M 5370 -467 
L 4890 -474 
Q 4896 -403 4896 -310 
Q 4896 -218 4902 -102 
Q 4909 19 4909 83 
Q 4909 147 4909 173 
L 4909 1203 
Q 4608 1216 4233 1222 
Q 3859 1229 3430 1229 
L 1427 1216 
L 1427 1600 
Q 1747 1587 2160 1580 
Q 2573 1574 3066 1574 
L 5357 1587 
L 5357 218 
Q 5357 -77 5360 -227 
Q 5363 -378 5370 -467 
z
M 3731 3507 
Q 3731 2950 3309 2605 
Q 2893 2266 2259 2266 
Q 1600 2266 1190 2592 
Q 768 2925 768 3482 
Q 768 4038 1184 4403 
Q 1594 4755 2259 4755 
Q 2950 4755 3347 4403 
Q 3731 4058 3731 3507 
z
M 5427 5094 
Q 5427 5082 5398 5002 
Q 5370 4922 5370 4870 
L 5376 1946 
L 4909 1952 
L 4909 5190 
Q 5120 5190 5273 5174 
Q 5427 5158 5427 5094 
z
" transform="scale(0.015625)"/>
       <path id="AppleGothic-50" d="M 262 5018 
L 1869 5018 
Q 2560 5018 3002 4781 
Q 3597 4448 3597 3718 
Q 3597 3014 3104 2630 
Q 2656 2272 1952 2272 
L 768 2272 
L 768 0 
L 262 0 
L 262 5018 
z
M 1862 4576 
L 768 4576 
L 768 2714 
L 1901 2714 
Q 2349 2714 2675 2950 
Q 3040 3219 3040 3674 
Q 3040 4186 2611 4410 
Q 2298 4576 1862 4576 
z
" transform="scale(0.015625)"/>
       <path id="AppleGothic-72" d="M 2125 3424 
L 2125 2963 
Q 2054 2989 2009 3005 
Q 1965 3021 1933 3027 
Q 1901 3034 1865 3037 
Q 1830 3040 1773 3040 
Q 1306 3040 1005 2586 
Q 749 2170 749 1658 
L 749 0 
L 288 0 
L 288 3424 
L 710 3424 
L 742 2835 
Q 902 3104 1043 3219 
Q 1331 3456 1734 3456 
Q 1843 3456 1936 3449 
Q 2029 3443 2125 3424 
z
" transform="scale(0.015625)"/>
       <path id="AppleGothic-6f" d="M 1888 -83 
Q 1229 -83 730 397 
Q 198 902 198 1709 
Q 198 2470 666 2982 
Q 1146 3501 1850 3501 
Q 2547 3501 3027 2982 
Q 3501 2470 3501 1715 
Q 3501 922 2989 403 
Q 2515 -83 1888 -83 
z
M 1843 339 
Q 2304 339 2662 723 
Q 3008 1114 3008 1715 
Q 3008 2336 2637 2726 
Q 2298 3085 1850 3085 
Q 1389 3085 1062 2714 
Q 704 2304 704 1709 
Q 704 1107 1056 704 
Q 1382 339 1843 339 
z
" transform="scale(0.015625)"/>
       <path id="AppleGothic-66" d="M 646 3430 
L 646 4083 
Q 646 4538 819 4774 
Q 1037 5101 1555 5101 
Q 1613 5101 1657 5097 
Q 1702 5094 1750 5088 
Q 1798 5082 1862 5062 
Q 1926 5043 2016 5018 
L 2016 4595 
Q 1997 4621 1837 4653 
Q 1766 4666 1712 4672 
Q 1658 4678 1619 4678 
Q 1350 4678 1228 4524 
Q 1107 4371 1107 4083 
L 1107 3430 
L 2016 3430 
L 2016 3014 
L 1107 3014 
L 1107 0 
L 646 0 
L 646 3014 
L 64 3014 
L 64 3430 
L 646 3430 
z
" transform="scale(0.015625)"/>
       <path id="AppleGothic-69" d="M 256 3424 
L 717 3424 
L 717 0 
L 256 0 
L 256 3424 
z
M 480 4870 
Q 614 4870 704 4780 
Q 794 4691 794 4525 
Q 794 4358 710 4268 
Q 627 4179 480 4179 
Q 333 4179 253 4281 
Q 173 4384 173 4518 
Q 173 4730 269 4800 
Q 365 4870 480 4870 
z
" transform="scale(0.015625)"/>
       <path id="AppleGothic-74" d="M 691 4435 
L 1114 4435 
L 1114 3430 
L 2016 3430 
L 2016 3014 
L 1114 3014 
L 1114 838 
Q 1114 570 1213 454 
Q 1312 339 1555 339 
Q 1696 339 1795 371 
Q 1894 403 2016 454 
L 2016 38 
Q 1914 6 1770 -22 
Q 1626 -51 1478 -51 
Q 1094 -51 883 122 
Q 646 301 646 698 
L 646 3014 
L 70 3014 
L 70 3430 
L 646 3430 
L 691 4435 
z
" transform="scale(0.015625)"/>
      </defs>
      <use xlink:href="#AppleGothic-c218"/>
      <use xlink:href="#AppleGothic-c775" transform="translate(99.999985 0)"/>
      <use xlink:href="#AppleGothic-20" transform="translate(199.999969 0)"/>
      <use xlink:href="#AppleGothic-28" transform="translate(231.999954 0)"/>
      <use xlink:href="#AppleGothic-50" transform="translate(281.999939 0)"/>
      <use xlink:href="#AppleGothic-72" transform="translate(342.299927 0)"/>
      <use xlink:href="#AppleGothic-6f" transform="translate(377.499924 0)"/>
      <use xlink:href="#AppleGothic-66" transform="translate(435.799911 0)"/>
      <use xlink:href="#AppleGothic-69" transform="translate(469.799896 0)"/>
      <use xlink:href="#AppleGothic-74" transform="translate(485.69989 0)"/>
      <use xlink:href="#AppleGothic-29" transform="translate(519.899887 0)"/>
     </g>
    </g>
   </g>
   <g id="line2d_12">
    <path d="M 46.360938 176.636875 
L 492.760937 176.636875 
" clip-path="url(#pfde2db19d8)" style="fill: none; stroke-dasharray: 7.4,3.2; stroke-dashoffset: 0; stroke: #ff0000; stroke-width: 2"/>
   </g>
   <g id="patch_5">
    <path d="M 46.360938 315.236875 
L 46.360938 38.036875 
" style="fill: none; stroke: #000000; stroke-width: 0.8; stroke-linejoin: miter; stroke-linecap: square"/>
   </g>
   <g id="patch_6">
    <path d="M 46.360938 176.636875 
L 492.760937 176.636875 
" style="fill: none; stroke: #000000; stroke-width: 0.8; stroke-linejoin: miter; stroke-linecap: square"/>
   </g>
   <g id="text_14">
    <!-- 정상 궤도 -->
    <g style="fill: #27ae60" transform="translate(91.000937 77.896187) scale(0.14 -0.14)">
     <defs>
      <path id="AppleGothic-c815" d="M 4973 531 
Q 4973 1018 4141 1120 
Q 3853 1158 3341 1158 
L 3206 1158 
Q 2586 1158 2227 1069 
Q 1702 934 1702 595 
Q 1702 192 2291 45 
Q 2483 -6 2745 -32 
Q 3008 -58 3334 -58 
L 3494 -58 
Q 4326 -58 4678 122 
Q 4973 256 4973 531 
z
M 5414 557 
Q 5414 102 5005 -134 
Q 4538 -416 3392 -416 
L 3213 -416 
Q 2342 -416 1869 -218 
Q 1280 19 1280 563 
Q 1280 1133 1978 1350 
Q 2214 1427 2556 1462 
Q 2899 1498 3341 1498 
Q 3789 1498 4128 1462 
Q 4467 1427 4698 1350 
Q 5414 1133 5414 557 
z
M 3955 2362 
Q 3955 2342 3907 2294 
Q 3859 2246 3834 2221 
Q 3782 2163 3753 2121 
Q 3725 2080 3706 2048 
Q 3635 2080 3577 2105 
Q 3520 2131 3469 2157 
Q 3322 2240 3165 2355 
Q 3008 2470 2842 2624 
Q 2605 2848 2438 3174 
Q 2406 3232 2374 3305 
Q 2342 3379 2304 3475 
Q 2266 3386 2224 3312 
Q 2182 3238 2150 3181 
Q 2042 3008 1923 2854 
Q 1805 2701 1677 2573 
Q 1523 2426 1363 2304 
Q 1203 2182 1030 2074 
Q 973 2042 902 2006 
Q 832 1971 742 1926 
Q 685 1971 640 2000 
Q 595 2029 550 2061 
Q 397 2170 397 2202 
Q 403 2227 410 2227 
Q 1139 2496 1606 3066 
Q 2106 3686 2106 4429 
L 768 4410 
L 768 4794 
Q 1088 4781 1469 4774 
Q 1850 4768 2214 4768 
L 3699 4781 
L 3699 4403 
L 2541 4422 
Q 2534 4390 2531 4329 
Q 2528 4269 2528 4224 
Q 2528 4077 2553 3926 
Q 2579 3776 2669 3571 
Q 2880 3053 3430 2675 
Q 3603 2554 3936 2400 
L 3955 2362 
z
M 5427 5101 
Q 5427 5094 5398 4995 
Q 5370 4896 5370 4832 
L 5370 4512 
Q 5350 3302 5350 2995 
L 5350 1664 
L 4909 1664 
L 4915 3309 
Q 4659 3309 4237 3290 
Q 4026 3283 3904 3280 
Q 3782 3277 3738 3277 
L 3738 3654 
L 4358 3642 
L 4928 3654 
L 4928 4896 
L 4915 5190 
Q 5120 5190 5273 5177 
Q 5427 5165 5427 5101 
z
" transform="scale(0.015625)"/>
      <path id="AppleGothic-c0c1" d="M 5312 538 
Q 5312 -26 4698 -237 
Q 4237 -403 3264 -403 
Q 2381 -403 1837 -173 
Q 1235 77 1235 538 
Q 1235 1120 1843 1363 
Q 2074 1453 2426 1497 
Q 2778 1542 3258 1542 
Q 3686 1542 4019 1500 
Q 4352 1459 4595 1382 
Q 5312 1146 5312 538 
z
M 3942 2413 
Q 3942 2394 3866 2330 
Q 3648 2170 3635 2144 
Q 3546 2195 3469 2240 
Q 3392 2285 3334 2323 
Q 2970 2566 2717 2848 
Q 2464 3130 2278 3456 
Q 2253 3507 2221 3574 
Q 2189 3642 2144 3731 
Q 2093 3616 2051 3517 
Q 2010 3418 1971 3341 
Q 1843 3117 1692 2918 
Q 1542 2720 1357 2534 
Q 1229 2406 1094 2297 
Q 960 2189 819 2086 
Q 768 2054 713 2019 
Q 659 1984 589 1939 
Q 538 1965 416 2042 
Q 365 2093 291 2125 
Q 218 2157 218 2176 
L 230 2202 
Q 307 2246 364 2278 
Q 422 2310 474 2342 
Q 762 2534 1014 2777 
Q 1267 3021 1472 3322 
Q 1613 3514 1709 3718 
Q 1805 3923 1869 4141 
Q 1952 4435 1952 4736 
L 1946 4909 
Q 2016 4909 2099 4902 
Q 2182 4896 2278 4883 
Q 2477 4858 2477 4794 
Q 2477 4774 2419 4713 
Q 2362 4653 2362 4506 
Q 2362 4371 2403 4211 
Q 2445 4051 2573 3770 
Q 2746 3386 3091 3040 
Q 3213 2918 3353 2809 
Q 3494 2701 3661 2592 
Q 3910 2438 3930 2438 
L 3942 2413 
z
M 6010 2784 
L 5933 2784 
Q 5606 2803 5530 2803 
L 5114 2771 
L 5107 2342 
Q 5107 2080 5110 1949 
Q 5114 1818 5120 1734 
L 4653 1722 
Q 4666 1914 4672 2272 
Q 4678 2630 4678 3046 
Q 4678 3482 4678 3808 
Q 4678 4134 4672 4358 
Q 4672 4582 4669 4790 
Q 4666 4998 4659 5190 
L 4730 5190 
Q 4915 5190 5046 5171 
Q 5178 5152 5178 5094 
Q 5158 5030 5139 4969 
Q 5120 4909 5120 4845 
L 5107 4294 
L 5120 3162 
L 5504 3149 
Q 5690 3149 5814 3155 
Q 5939 3162 6010 3174 
L 6010 2784 
z
M 4858 544 
Q 4858 928 4333 1094 
Q 4141 1158 3872 1184 
Q 3603 1210 3258 1210 
Q 2464 1210 2118 1088 
Q 1683 928 1683 544 
Q 1715 282 2121 122 
Q 2528 -38 3270 -38 
Q 4058 -38 4416 70 
Q 4858 192 4858 544 
z
" transform="scale(0.015625)"/>
      <path id="AppleGothic-ada4" d="M 5670 5082 
Q 5651 4998 5628 4908 
Q 5606 4819 5606 4755 
L 5613 -474 
L 5184 -506 
L 5203 3149 
Q 5203 3622 5203 3961 
Q 5203 4301 5197 4512 
Q 5190 4730 5184 4896 
Q 5178 5062 5171 5190 
L 5274 5190 
Q 5459 5190 5564 5171 
Q 5670 5152 5670 5082 
z
M 3539 2470 
Q 3437 2470 3318 2460 
Q 3200 2451 3066 2438 
Q 2400 2362 2285 2362 
L 2266 1011 
Q 2266 768 2269 617 
Q 2272 467 2285 358 
L 1830 320 
L 1850 858 
L 1850 2330 
Q 1638 2304 1382 2291 
Q 1126 2278 838 2278 
Q 730 2259 621 2227 
Q 563 2227 557 2266 
L 454 2630 
Q 691 2637 838 2650 
Q 1107 2662 1283 2668 
Q 1459 2675 1549 2675 
L 2515 2746 
Q 2528 2797 2537 2845 
Q 2547 2893 2560 2938 
Q 2643 3238 2691 3468 
Q 2739 3699 2765 3923 
Q 2771 3962 2771 4010 
Q 2771 4058 2778 4109 
L 1901 4128 
Q 1638 4128 1356 4121 
Q 1075 4115 832 4102 
L 832 4486 
L 2016 4474 
L 3277 4486 
Q 3277 4339 3130 3603 
Q 2995 2880 2931 2771 
L 3539 2797 
L 3539 2470 
z
M 4506 4909 
Q 4506 4883 4483 4787 
Q 4461 4691 4461 4634 
L 4429 806 
Q 4429 589 4429 435 
Q 4429 282 4432 170 
Q 4435 58 4438 -16 
Q 4442 -90 4442 -147 
L 4000 -160 
L 4026 1043 
L 4019 1446 
L 3533 1466 
Q 3398 1466 3251 1459 
Q 3104 1453 2976 1440 
L 2976 1818 
L 3539 1798 
L 4038 1811 
Q 4038 1888 4038 2051 
Q 4038 2214 4045 2477 
Q 4051 2733 4054 2905 
Q 4058 3078 4058 3155 
Q 4058 3763 4058 4220 
Q 4058 4678 4045 4998 
L 4122 4998 
Q 4339 4998 4422 4979 
Q 4506 4960 4506 4909 
z
" transform="scale(0.015625)"/>
      <path id="AppleGothic-b3c4" d="M 6061 -38 
L 3181 -6 
L 2938 -6 
Q 2560 -6 2269 -6 
Q 1978 -6 1766 -13 
Q 1562 -19 1360 -19 
Q 1158 -19 954 -26 
Q 557 -32 352 -45 
L 352 416 
L 1549 397 
L 2963 403 
L 2982 1139 
L 2970 2035 
L 3066 2035 
Q 3238 2035 3369 2012 
Q 3501 1990 3501 1920 
Q 3501 1901 3478 1821 
Q 3456 1741 3456 1709 
Q 3424 1658 3424 1030 
Q 3424 800 3443 531 
Q 3443 506 3446 474 
Q 3450 442 3456 403 
L 4608 397 
Q 4960 397 5347 400 
Q 5734 403 6061 416 
L 6061 -38 
z
M 5299 2202 
L 3744 2208 
L 1146 2195 
L 1165 3379 
L 1152 4640 
Q 1293 4634 1408 4634 
Q 1523 4634 1619 4634 
Q 2266 4621 2701 4614 
Q 3136 4608 3360 4608 
L 5248 4621 
L 5248 4205 
L 3354 4218 
L 1632 4211 
L 1613 3424 
L 1626 2598 
Q 2029 2586 2512 2579 
Q 2995 2573 3443 2573 
Q 3648 2573 3875 2573 
Q 4102 2573 4358 2579 
Q 4858 2586 5299 2598 
L 5299 2202 
z
" transform="scale(0.015625)"/>
     </defs>
     <use xlink:href="#AppleGothic-c815"/>
     <use xlink:href="#AppleGothic-c0c1" transform="translate(99.999985 0)"/>
     <use xlink:href="#AppleGothic-20" transform="translate(199.999969 0)"/>
     <use xlink:href="#AppleGothic-ada4" transform="translate(231.999954 0)"/>
     <use xlink:href="#AppleGothic-b3c4" transform="translate(331.999939 0)"/>
    </g>
    <!-- (캐시카우 구역) -->
    <g style="fill: #27ae60" transform="translate(91.000937 93.476875) scale(0.14 -0.14)">
     <defs>
      <path id="AppleGothic-ce90" d="M 5715 5069 
Q 5715 5050 5702 4986 
Q 5670 4845 5670 4787 
L 5658 2163 
L 5677 -499 
L 5158 -518 
L 5184 1242 
L 5184 2093 
L 4422 2093 
L 4422 32 
L 3949 32 
Q 3955 198 3964 748 
Q 3974 1299 3974 2310 
Q 3974 3181 3974 3827 
Q 3974 4474 3962 4928 
L 4378 4890 
Q 4474 4870 4474 4794 
Q 4474 4762 4448 4662 
Q 4422 4563 4422 4493 
L 4422 2483 
L 5197 2483 
Q 5197 2720 5193 3104 
Q 5190 3488 5184 4032 
Q 5178 4576 5174 4867 
Q 5171 5158 5171 5190 
L 5235 5190 
Q 5446 5190 5580 5168 
Q 5715 5146 5715 5069 
z
M 3251 4358 
Q 3251 3162 2630 2042 
Q 1984 877 947 371 
L 902 416 
Q 774 538 697 573 
Q 621 608 582 640 
L 550 672 
Q 550 698 598 720 
Q 646 742 698 762 
Q 838 845 944 905 
Q 1050 966 1133 1018 
Q 1376 1171 1545 1318 
Q 1715 1466 1824 1600 
Q 1952 1754 2054 1907 
Q 2157 2061 2240 2208 
Q 2291 2298 2345 2416 
Q 2400 2534 2451 2669 
Q 2400 2662 2349 2659 
Q 2298 2656 2246 2650 
L 1766 2592 
L 1069 2534 
Q 1018 2534 938 2515 
Q 858 2496 826 2496 
Q 736 2496 691 2637 
Q 653 2790 653 2912 
L 1670 2963 
Q 1875 2963 2041 2972 
Q 2208 2982 2355 2995 
Q 2458 3002 2586 3034 
Q 2592 3046 2605 3100 
Q 2618 3155 2643 3264 
Q 2707 3482 2714 3539 
Q 2726 3578 2739 3654 
Q 2752 3731 2765 3859 
Q 2765 3872 2768 3901 
Q 2771 3930 2778 3962 
Q 2669 3968 2406 3974 
Q 2144 3981 1843 3981 
Q 1491 3981 1238 3981 
Q 986 3981 838 3968 
L 838 4384 
Q 915 4378 1040 4378 
Q 1165 4378 1338 4371 
Q 1510 4365 1664 4365 
Q 1818 4365 1958 4365 
L 3251 4358 
z
" transform="scale(0.015625)"/>
      <path id="AppleGothic-c2dc" d="M 5459 5062 
Q 5459 5043 5440 4969 
Q 5421 4896 5421 4826 
L 5402 2349 
L 5414 -531 
L 4909 -557 
Q 4915 -410 4915 -278 
Q 4915 -147 4922 -19 
Q 4928 218 4941 1190 
Q 4960 2150 4960 2253 
Q 4960 3923 4941 4416 
Q 4934 4915 4922 5190 
Q 5146 5190 5302 5158 
Q 5459 5126 5459 5062 
z
M 4250 1478 
Q 4250 1459 4224 1434 
Q 4211 1421 4179 1395 
Q 4147 1370 4109 1338 
L 3917 1178 
Q 3866 1210 3821 1242 
Q 3776 1274 3738 1306 
Q 3290 1658 2899 2227 
Q 2707 2496 2534 2918 
Q 2515 2976 2483 3072 
Q 2451 3168 2400 3309 
Q 2221 2688 1754 2054 
Q 1267 1389 710 1114 
Q 698 1120 653 1155 
Q 608 1190 518 1254 
Q 486 1280 444 1312 
Q 403 1344 346 1395 
Q 346 1421 371 1427 
Q 397 1440 406 1449 
Q 416 1459 422 1466 
Q 467 1466 710 1645 
Q 896 1773 1056 1920 
Q 1216 2067 1350 2234 
Q 1549 2464 1696 2729 
Q 1843 2995 1952 3296 
Q 2061 3610 2125 4000 
Q 2157 4205 2173 4381 
Q 2189 4557 2189 4717 
Q 2323 4717 2534 4678 
Q 2752 4653 2752 4576 
Q 2752 4544 2710 4470 
Q 2669 4397 2669 4378 
L 2630 4032 
Q 2656 3923 2681 3814 
Q 2707 3706 2739 3597 
Q 2790 3430 2857 3248 
Q 2925 3066 3021 2867 
Q 3264 2349 3757 1894 
Q 3840 1818 3949 1728 
Q 4058 1638 4198 1530 
L 4237 1491 
L 4250 1478 
z
" transform="scale(0.015625)"/>
      <path id="AppleGothic-ce74" d="M 6048 2022 
L 5184 2022 
L 5178 979 
Q 5178 512 5184 141 
Q 5190 -230 5203 -576 
L 4691 -576 
Q 4698 -448 4698 -205 
Q 4698 38 4704 403 
Q 4710 768 4713 1133 
Q 4717 1498 4717 1862 
L 4717 2362 
Q 4717 3098 4707 3594 
Q 4698 4090 4685 4339 
Q 4672 4582 4665 4796 
Q 4659 5011 4659 5197 
L 4685 5197 
Q 4781 5197 4870 5190 
Q 4960 5184 5050 5171 
Q 5229 5146 5229 5062 
Q 5229 5030 5206 4944 
Q 5184 4858 5184 4813 
L 5171 3910 
L 5184 2438 
L 6048 2432 
L 6048 2022 
z
M 3552 4326 
Q 3552 2880 2848 1926 
Q 2208 1037 826 352 
Q 774 390 742 419 
Q 710 448 685 467 
Q 614 531 566 569 
Q 518 608 489 630 
Q 461 653 441 665 
Q 422 678 403 698 
L 397 710 
Q 397 723 419 729 
Q 442 736 470 742 
Q 499 749 528 752 
Q 557 755 563 755 
Q 672 787 781 832 
Q 1325 1056 1856 1510 
Q 2253 1850 2522 2208 
Q 2598 2317 2678 2454 
Q 2758 2592 2835 2765 
L 1862 2637 
L 954 2547 
Q 883 2541 803 2515 
Q 723 2490 710 2490 
Q 627 2490 544 2675 
Q 454 2874 454 2963 
Q 467 2963 512 2956 
Q 557 2950 634 2950 
Q 979 2950 1645 3008 
Q 1984 3040 2240 3062 
Q 2496 3085 2675 3104 
Q 2746 3110 2816 3116 
Q 2886 3123 2970 3136 
L 3053 3514 
Q 3066 3571 3075 3644 
Q 3085 3718 3098 3821 
Q 3098 3834 3098 3853 
Q 3098 3872 3104 3904 
Q 3027 3910 2908 3910 
Q 2790 3910 2630 3917 
Q 2477 3923 2349 3923 
Q 2221 3923 2118 3923 
L 659 3904 
L 659 4326 
Q 736 4320 857 4320 
Q 979 4320 1146 4314 
Q 1312 4307 1443 4307 
Q 1574 4307 1677 4307 
L 3552 4326 
z
" transform="scale(0.015625)"/>
      <path id="AppleGothic-ad6c" d="M 6048 2202 
L 4672 2221 
L 3405 2214 
L 3398 915 
L 3411 -486 
L 2925 -518 
Q 2938 -186 2944 214 
Q 2950 614 2950 986 
L 2944 2214 
L 1600 2214 
L 352 2182 
L 352 2618 
Q 794 2605 1328 2592 
Q 1862 2579 2355 2579 
L 2630 2579 
L 3866 2579 
Q 4141 2586 4346 2598 
Q 4371 2701 4390 2774 
Q 4410 2848 4422 2906 
Q 4550 3360 4576 3469 
Q 4640 3738 4730 4160 
Q 4742 4224 4758 4304 
Q 4774 4384 4794 4474 
L 4454 4474 
Q 3232 4493 3149 4493 
L 1005 4461 
L 1005 4890 
Q 1331 4877 1740 4870 
Q 2150 4864 2605 4864 
L 5325 4877 
Q 5312 4781 5299 4697 
Q 5286 4614 5274 4544 
Q 5203 4147 5062 3571 
Q 5030 3430 4992 3280 
Q 4954 3130 4909 2957 
Q 4883 2867 4857 2780 
Q 4832 2694 4806 2605 
L 6048 2618 
L 6048 2202 
z
" transform="scale(0.015625)"/>
      <path id="AppleGothic-c5ed" d="M 3098 3430 
Q 3098 3859 2810 4128 
Q 2515 4403 2099 4403 
Q 1651 4403 1357 4134 
Q 1062 3859 1062 3430 
Q 1062 3130 1280 2874 
Q 1568 2554 2099 2554 
Q 2547 2554 2822 2797 
Q 3098 3040 3098 3430 
z
M 5395 -461 
L 4928 -486 
L 4941 192 
L 4941 1197 
Q 4557 1197 4233 1193 
Q 3910 1190 3642 1184 
Q 3373 1178 3053 1174 
Q 2733 1171 2349 1165 
Q 1965 1158 1702 1158 
Q 1440 1158 1286 1158 
L 1286 1530 
L 2554 1517 
Q 2803 1517 3206 1520 
Q 3610 1523 4173 1530 
Q 4749 1536 5046 1539 
Q 5344 1542 5382 1542 
L 5376 275 
L 5376 -218 
Q 5389 -371 5395 -461 
z
M 3514 3424 
Q 3514 2848 3053 2496 
Q 2643 2182 2106 2182 
Q 1485 2182 1075 2515 
Q 646 2861 646 3424 
Q 646 3962 1005 4326 
Q 1414 4749 2099 4749 
Q 2707 4749 3110 4384 
Q 3514 4006 3514 3424 
z
M 5421 5082 
Q 5421 5056 5401 4989 
Q 5382 4922 5382 4877 
L 5370 3002 
Q 5370 2547 5373 2313 
Q 5376 2080 5382 1939 
L 4922 1907 
L 4934 2611 
L 4371 2618 
L 3744 2605 
L 3744 2950 
L 4397 2950 
L 4774 2950 
Q 4819 2957 4860 2960 
Q 4902 2963 4934 2970 
L 4934 3744 
Q 4806 3757 4662 3763 
Q 4518 3770 4384 3770 
Q 4160 3770 4009 3763 
Q 3859 3757 3770 3744 
L 3770 4128 
Q 3827 4122 3907 4122 
Q 3987 4122 4096 4115 
Q 4205 4109 4275 4109 
Q 4346 4109 4390 4109 
Q 4646 4109 4752 4115 
Q 4858 4122 4934 4134 
L 4934 4800 
Q 4934 4909 4928 5011 
Q 4922 5114 4909 5190 
L 4934 5190 
Q 5133 5190 5277 5171 
Q 5421 5152 5421 5082 
z
" transform="scale(0.015625)"/>
     </defs>
     <use xlink:href="#AppleGothic-28"/>
     <use xlink:href="#AppleGothic-ce90" transform="translate(49.999985 0)"/>
     <use xlink:href="#AppleGothic-c2dc" transform="translate(149.999969 0)"/>
     <use xlink:href="#AppleGothic-ce74" transform="translate(249.999954 0)"/>
     <use xlink:href="#AppleGothic-c6b0" transform="translate(349.999939 0)"/>
     <use xlink:href="#AppleGothic-20" transform="translate(449.999924 0)"/>
     <use xlink:href="#AppleGothic-ad6c" transform="translate(481.999908 0)"/>
     <use xlink:href="#AppleGothic-c5ed" transform="translate(581.999893 0)"/>
     <use xlink:href="#AppleGothic-29" transform="translate(681.999878 0)"/>
    </g>
   </g>
   <g id="text_15">
    <!-- 적자 궤도 -->
    <g style="fill: #c0392b" transform="translate(91.000937 244.216188) scale(0.14 -0.14)">
     <defs>
      <path id="AppleGothic-c801" d="M 5402 -506 
L 4947 -538 
L 4954 1203 
L 3283 1216 
Q 2803 1216 2281 1213 
Q 1760 1210 1325 1197 
L 1325 1594 
Q 1414 1587 1491 1587 
Q 1568 1587 1632 1587 
Q 2074 1574 2397 1568 
Q 2720 1562 2944 1562 
L 5402 1587 
Q 5395 1440 5392 1213 
Q 5389 986 5389 595 
L 5402 -506 
z
M 3936 2400 
Q 3936 2381 3869 2339 
Q 3802 2298 3763 2259 
L 3603 2106 
Q 3546 2138 3491 2173 
Q 3437 2208 3392 2240 
Q 3117 2438 2810 2771 
Q 2598 2995 2451 3296 
Q 2426 3347 2397 3411 
Q 2368 3475 2336 3558 
Q 2298 3469 2266 3392 
Q 2234 3315 2202 3258 
Q 2010 2912 1702 2586 
Q 1568 2451 1417 2323 
Q 1267 2195 1101 2074 
Q 1043 2029 969 1984 
Q 896 1939 794 1882 
Q 787 1907 582 2029 
Q 390 2150 390 2176 
Q 1056 2458 1574 3072 
Q 2125 3744 2125 4442 
Q 2054 4448 1875 4454 
Q 1696 4461 1485 4461 
L 762 4442 
L 762 4851 
Q 947 4832 1286 4819 
Q 1626 4806 2118 4806 
L 2291 4806 
Q 2618 4806 2858 4809 
Q 3098 4813 3264 4819 
Q 3430 4826 3561 4832 
Q 3693 4838 3802 4845 
L 3802 4442 
L 3219 4454 
L 2566 4435 
Q 2566 4115 2630 3878 
Q 2682 3680 2768 3510 
Q 2854 3341 2982 3194 
Q 3296 2810 3648 2573 
Q 3763 2502 3923 2426 
L 3936 2400 
z
M 5434 5082 
Q 5434 5062 5414 4976 
Q 5395 4890 5395 4826 
Q 5389 4736 5389 4598 
Q 5389 4461 5382 4269 
Q 5376 4077 5376 3881 
Q 5376 3686 5376 3494 
L 5376 2477 
Q 5382 2310 5382 2176 
Q 5382 2042 5389 1939 
L 4947 1914 
L 4947 3283 
L 4346 3302 
L 3706 3283 
L 3706 3667 
L 4947 3667 
L 4947 4762 
L 4915 5190 
L 5101 5190 
Q 5267 5190 5350 5171 
Q 5434 5152 5434 5082 
z
" transform="scale(0.015625)"/>
      <path id="AppleGothic-c790" d="M 6010 2067 
L 5139 2067 
L 5126 1037 
L 5139 -531 
L 4653 -531 
L 4672 4717 
Q 4672 4960 4665 5056 
Q 4659 5152 4646 5190 
L 4832 5197 
Q 4966 5197 5078 5174 
Q 5190 5152 5190 5101 
Q 5190 5075 5164 4998 
Q 5139 4922 5139 4883 
L 5126 3968 
L 5139 2470 
L 6010 2483 
L 6010 2067 
z
M 4218 1158 
Q 4211 1120 4195 1107 
Q 4179 1094 4144 1072 
Q 4109 1050 4057 1008 
Q 4006 966 3930 883 
Q 3923 870 3885 832 
Q 3814 877 3760 909 
Q 3706 941 3661 973 
Q 3392 1158 3174 1369 
Q 2957 1581 2790 1818 
Q 2720 1914 2643 2045 
Q 2566 2176 2477 2349 
Q 2445 2406 2406 2486 
Q 2368 2566 2317 2662 
Q 2285 2592 2259 2534 
Q 2234 2477 2208 2426 
Q 2061 2157 1901 1926 
Q 1741 1696 1568 1510 
Q 1446 1382 1289 1235 
Q 1133 1088 928 922 
Q 858 864 736 768 
Q 685 819 666 832 
Q 582 915 531 934 
Q 326 1011 326 1050 
Q 326 1056 358 1088 
Q 371 1101 387 1110 
Q 403 1120 416 1133 
Q 538 1222 627 1292 
Q 717 1363 787 1414 
Q 1197 1741 1402 2003 
Q 1766 2458 1942 2922 
Q 2118 3386 2118 3936 
L 2106 4218 
L 1568 4224 
L 646 4198 
L 646 4640 
Q 960 4627 1347 4620 
Q 1734 4614 2144 4614 
L 2330 4614 
Q 2803 4614 3212 4627 
Q 3622 4640 4000 4659 
L 4000 4230 
L 3296 4237 
L 2592 4218 
Q 2579 4122 2576 4042 
Q 2573 3962 2566 3898 
Q 2554 3712 2547 3561 
Q 2541 3411 2541 3296 
Q 2592 2995 2778 2656 
Q 2861 2502 2969 2342 
Q 3078 2182 3213 2003 
Q 3334 1850 3472 1715 
Q 3610 1581 3757 1466 
Q 3808 1434 3872 1389 
Q 3936 1344 4019 1293 
Q 4026 1286 4128 1235 
Q 4218 1184 4218 1158 
z
" transform="scale(0.015625)"/>
     </defs>
     <use xlink:href="#AppleGothic-c801"/>
     <use xlink:href="#AppleGothic-c790" transform="translate(99.999985 0)"/>
     <use xlink:href="#AppleGothic-20" transform="translate(199.999969 0)"/>
     <use xlink:href="#AppleGothic-ada4" transform="translate(231.999954 0)"/>
     <use xlink:href="#AppleGothic-b3c4" transform="translate(331.999939 0)"/>
    </g>
    <!-- (미끼상품 구역) -->
    <g style="fill: #c0392b" transform="translate(91.000937 259.796875) scale(0.14 -0.14)">
     <defs>
      <path id="AppleGothic-bbf8" d="M 3053 1600 
L 3053 3872 
L 2125 3885 
L 1261 3872 
L 1261 1594 
L 2125 1581 
L 3053 1600 
z
M 5466 5158 
Q 5466 5139 5437 5049 
Q 5408 4960 5408 4890 
L 5408 2291 
Q 5408 1702 5408 1292 
Q 5408 883 5414 659 
Q 5414 429 5420 230 
Q 5427 32 5430 -112 
Q 5434 -256 5440 -339 
Q 5446 -422 5446 -422 
L 4947 -442 
Q 4954 -301 4963 211 
Q 4973 723 4973 1670 
L 4973 2272 
Q 4973 2790 4969 3174 
Q 4966 3558 4960 3827 
Q 4954 4096 4950 4339 
Q 4947 4582 4934 4806 
Q 4928 5254 4915 5254 
L 4947 5254 
Q 5139 5254 5302 5235 
Q 5466 5216 5466 5158 
z
M 3520 1171 
L 2342 1190 
L 781 1165 
Q 781 1254 781 1459 
Q 781 1664 787 1984 
Q 794 2304 797 2483 
Q 800 2662 800 2707 
Q 800 3053 800 3296 
Q 800 3539 794 3693 
Q 794 3846 790 3996 
Q 787 4147 781 4282 
Q 896 4275 1056 4275 
Q 1216 4275 1421 4269 
Q 1626 4262 1754 4262 
Q 1882 4262 1946 4262 
L 3520 4288 
L 3501 2842 
L 3520 1171 
z
" transform="scale(0.015625)"/>
      <path id="AppleGothic-b07c" d="M 5434 5094 
Q 5434 5082 5408 4976 
Q 5382 4870 5382 4774 
L 5389 -486 
L 4915 -506 
L 4947 2285 
L 4947 3136 
Q 4947 3699 4947 4057 
Q 4947 4416 4941 4576 
Q 4934 4742 4931 4892 
Q 4928 5043 4915 5190 
L 5024 5190 
Q 5210 5190 5322 5171 
Q 5434 5152 5434 5094 
z
M 4211 4346 
Q 4198 4141 4182 3977 
Q 4166 3814 4147 3680 
Q 4032 2925 3750 2259 
Q 3654 2035 3532 1827 
Q 3411 1619 3264 1427 
Q 3053 1152 2790 909 
Q 2586 723 2566 723 
Q 2534 755 2387 826 
Q 2234 909 2234 928 
L 2157 986 
Q 2842 1331 3302 2266 
Q 3725 3130 3725 3962 
L 3302 3968 
Q 3098 3968 2995 3965 
Q 2893 3962 2822 3955 
L 2822 4358 
L 4211 4346 
z
M 2432 4352 
Q 2432 3866 2310 3347 
Q 2189 2829 1946 2387 
Q 1798 2112 1616 1888 
Q 1434 1664 1222 1478 
Q 1152 1421 1056 1353 
Q 960 1286 845 1216 
L 563 1376 
L 448 1466 
Q 1088 1715 1536 2509 
Q 1965 3270 1965 3981 
L 1862 3981 
Q 1478 4000 1427 4000 
Q 1139 4000 845 3981 
Q 813 3981 777 3977 
Q 742 3974 698 3968 
L 698 4371 
Q 768 4365 864 4365 
Q 960 4365 1082 4358 
Q 1210 4352 1293 4352 
Q 1376 4352 1427 4352 
L 2432 4352 
z
" transform="scale(0.015625)"/>
      <path id="AppleGothic-d488" d="M 4640 358 
L 4627 858 
Q 4301 870 3907 876 
Q 3514 883 3155 883 
Q 2771 883 2524 883 
Q 2278 883 2163 877 
Q 2042 877 1939 873 
Q 1837 870 1747 864 
L 1747 -32 
L 3136 -64 
L 4627 -58 
L 4640 358 
z
M 6016 1939 
L 3418 2003 
L 3418 1210 
L 4141 1203 
L 5114 1210 
L 5114 205 
Q 5114 -128 5117 -291 
Q 5120 -454 5126 -557 
L 4627 -557 
L 4627 -403 
L 3110 -384 
L 1734 -397 
L 1734 -563 
L 1267 -570 
L 1280 134 
L 1274 1222 
L 2138 1210 
L 2970 1210 
L 2970 1997 
L 1779 2003 
Q 1440 2003 1069 1990 
Q 698 1978 384 1965 
L 384 2362 
Q 454 2355 544 2352 
Q 634 2349 742 2342 
Q 858 2336 1104 2333 
Q 1350 2330 1734 2317 
Q 2131 2310 2489 2307 
Q 2848 2304 3181 2304 
Q 3782 2304 4192 2304 
Q 4602 2304 4845 2310 
Q 5318 2317 5600 2326 
Q 5882 2336 6016 2342 
L 6016 1939 
z
M 5363 2976 
Q 5274 2982 5197 2985 
Q 5120 2989 5050 2989 
Q 4627 3002 4179 3011 
Q 3731 3021 3238 3021 
Q 2758 3021 2416 3021 
Q 2074 3021 1850 3014 
Q 1626 3014 1421 3011 
Q 1216 3008 1024 3002 
L 1024 3379 
Q 1152 3366 1299 3353 
Q 1446 3341 1581 3341 
L 2202 3341 
Q 2189 3392 2182 3433 
Q 2176 3475 2170 3507 
Q 2138 3654 2093 3808 
Q 2048 3962 1971 4192 
Q 1920 4346 1920 4371 
Q 1920 4410 1974 4413 
Q 2029 4416 2067 4416 
L 2317 4422 
Q 2477 4422 2477 4365 
Q 2477 4218 2480 4096 
Q 2483 3974 2515 3802 
L 2630 3334 
Q 2746 3322 2880 3318 
Q 3014 3315 3142 3315 
L 3744 3334 
Q 3770 3405 3798 3545 
Q 3827 3686 3866 3904 
Q 3955 4352 3955 4442 
Q 4064 4442 4256 4403 
Q 4448 4358 4448 4294 
Q 4448 4275 4419 4224 
Q 4390 4173 4378 4141 
L 4166 3334 
L 5363 3347 
L 5363 2976 
z
M 5344 4646 
Q 4960 4653 4685 4666 
Q 3725 4685 3149 4685 
Q 2739 4685 2432 4685 
Q 2125 4685 1901 4678 
Q 1677 4678 1465 4675 
Q 1254 4672 1043 4666 
L 1043 5069 
Q 1446 5050 1968 5034 
Q 2490 5018 3130 5018 
Q 3750 5018 4316 5024 
Q 4883 5030 5344 5043 
L 5344 4646 
z
" transform="scale(0.015625)"/>
     </defs>
     <use xlink:href="#AppleGothic-28"/>
     <use xlink:href="#AppleGothic-bbf8" transform="translate(49.999985 0)"/>
     <use xlink:href="#AppleGothic-b07c" transform="translate(149.999969 0)"/>
     <use xlink:href="#AppleGothic-c0c1" transform="translate(249.999954 0)"/>
     <use xlink:href="#AppleGothic-d488" transform="translate(349.999939 0)"/>
     <use xlink:href="#AppleGothic-20" transform="translate(449.999924 0)"/>
     <use xlink:href="#AppleGothic-ad6c" transform="translate(481.999908 0)"/>
     <use xlink:href="#AppleGothic-c5ed" transform="translate(581.999893 0)"/>
     <use xlink:href="#AppleGothic-29" transform="translate(681.999878 0)"/>
    </g>
   </g>
   <g id="text_16">
    <!-- 산점도로 발견하는 Loss Leader (미끼 상품) -->
    <g transform="translate(130.7225 18.176875) scale(0.14 -0.14)">
     <defs>
      <path id="AppleGothic-c0b0" d="M 5293 -499 
L 3661 -486 
L 1306 -499 
L 1318 346 
L 1306 1178 
L 1677 1171 
Q 1805 1171 1805 1114 
Q 1786 1050 1773 1002 
Q 1760 954 1760 883 
L 1754 -115 
L 3635 -122 
Q 3962 -122 4208 -118 
Q 4454 -115 4640 -109 
Q 4826 -102 4986 -96 
Q 5146 -90 5293 -77 
L 5293 -499 
z
M 5997 2835 
L 5094 2842 
Q 5101 2752 5104 2601 
Q 5107 2451 5107 2170 
L 5094 922 
L 4627 922 
Q 4627 998 4627 1126 
Q 4627 1254 4634 1427 
Q 4646 1773 4653 2701 
Q 4659 3168 4662 3638 
Q 4666 4109 4666 4602 
L 4659 5190 
L 4838 5197 
Q 4973 5197 5062 5174 
Q 5152 5152 5152 5094 
Q 5152 5094 5145 5065 
Q 5139 5037 5129 5001 
Q 5120 4966 5113 4928 
Q 5107 4890 5107 4864 
L 5101 3251 
L 5997 3264 
L 5997 2835 
z
M 4147 2298 
Q 4147 2278 4038 2144 
Q 3942 2029 3885 1978 
Q 3757 2029 3654 2086 
Q 3552 2144 3462 2202 
Q 3174 2394 2880 2669 
Q 2752 2797 2633 2947 
Q 2515 3098 2419 3277 
Q 2387 3328 2352 3405 
Q 2317 3482 2272 3578 
Q 2208 3373 2022 3091 
Q 1830 2790 1568 2534 
Q 1306 2278 979 2035 
Q 928 2003 867 1961 
Q 806 1920 730 1869 
Q 717 1882 704 1885 
Q 691 1888 685 1894 
Q 634 1926 592 1958 
Q 550 1990 512 2022 
Q 493 2042 454 2064 
Q 416 2086 377 2102 
Q 339 2118 313 2131 
Q 288 2144 288 2157 
L 301 2182 
Q 608 2317 781 2432 
Q 1331 2784 1632 3264 
Q 1766 3488 1865 3705 
Q 1965 3923 2022 4141 
Q 2106 4448 2106 4710 
L 2099 4851 
L 2291 4858 
Q 2426 4858 2506 4835 
Q 2586 4813 2586 4742 
Q 2586 4691 2534 4525 
Q 2483 4371 2483 4294 
Q 2483 4192 2502 4093 
Q 2522 3994 2554 3885 
Q 2656 3622 2874 3328 
Q 3066 3078 3280 2880 
Q 3494 2682 3725 2534 
Q 3808 2490 3904 2438 
Q 4000 2387 4128 2336 
Q 4134 2323 4147 2298 
z
" transform="scale(0.015625)"/>
      <path id="AppleGothic-c810" d="M 4941 -6 
L 4941 1094 
Q 4800 1101 4601 1107 
Q 4403 1114 4141 1120 
Q 3885 1126 3661 1129 
Q 3437 1133 3245 1133 
Q 2963 1133 2748 1133 
Q 2534 1133 2374 1126 
Q 2214 1126 2057 1123 
Q 1901 1120 1741 1114 
L 1741 6 
Q 1830 6 2009 6 
Q 2189 6 2470 0 
Q 2746 -6 2915 -9 
Q 3085 -13 3142 -13 
L 4941 -6 
z
M 5395 -486 
L 4941 -499 
L 4915 -365 
L 1766 -352 
L 1747 -474 
L 1280 -480 
L 1293 570 
L 1280 1478 
Q 1702 1466 2217 1462 
Q 2733 1459 3258 1459 
L 5382 1459 
L 5376 205 
L 5376 -243 
Q 5382 -314 5385 -371 
Q 5389 -429 5395 -486 
z
M 4006 2259 
L 3859 2106 
Q 3808 2054 3760 2012 
Q 3712 1971 3661 1920 
Q 3571 1965 3497 2003 
Q 3424 2042 3360 2074 
Q 3181 2182 3024 2310 
Q 2867 2438 2726 2592 
Q 2515 2810 2362 3162 
Q 2336 3219 2310 3296 
Q 2285 3373 2253 3475 
Q 2221 3379 2195 3328 
Q 2022 2931 1670 2573 
Q 1542 2445 1379 2313 
Q 1216 2182 1005 2035 
Q 934 1997 844 1939 
Q 755 1882 646 1811 
L 314 2112 
L 326 2131 
Q 1030 2419 1485 2982 
Q 1997 3603 1997 4314 
L 1990 4429 
Q 1875 4442 1718 4448 
Q 1562 4454 1312 4454 
L 640 4448 
L 640 4845 
Q 742 4838 892 4832 
Q 1043 4826 1222 4822 
Q 1402 4819 1600 4816 
Q 1798 4813 2003 4813 
L 2234 4813 
Q 2579 4813 2828 4816 
Q 3078 4819 3232 4826 
Q 3386 4832 3510 4838 
Q 3635 4845 3744 4858 
L 3744 4422 
L 3142 4435 
L 2490 4422 
Q 2490 4102 2534 3885 
Q 2592 3558 2778 3245 
Q 3040 2797 3552 2483 
Q 3725 2374 4006 2259 
z
M 5446 5107 
Q 5446 5094 5408 4995 
Q 5370 4896 5370 4806 
L 5395 1830 
L 4928 1805 
L 4941 2381 
L 4941 3232 
L 4333 3245 
L 3642 3226 
L 3642 3603 
Q 3674 3603 3754 3603 
Q 3834 3603 3962 3597 
Q 4090 3590 4179 3590 
Q 4269 3590 4320 3590 
L 4941 3603 
L 4941 4742 
Q 4941 4954 4934 5053 
Q 4928 5152 4915 5190 
L 4998 5190 
Q 5171 5190 5308 5174 
Q 5446 5158 5446 5107 
z
" transform="scale(0.015625)"/>
      <path id="AppleGothic-bc1c" d="M 2867 2784 
L 2867 3667 
L 1120 3667 
L 1120 2784 
L 2029 2771 
L 2867 2784 
z
M 5267 -352 
L 2938 -339 
L 2003 -339 
Q 1658 -352 1331 -358 
L 1344 256 
L 1331 915 
L 4646 902 
L 4646 1459 
L 3130 1459 
Q 2682 1459 2198 1446 
Q 1715 1434 1312 1421 
L 1312 1805 
Q 1427 1805 1667 1801 
Q 1907 1798 2291 1792 
Q 2675 1786 2883 1786 
Q 3091 1786 3130 1786 
L 5114 1805 
L 5107 1261 
L 5120 570 
L 1773 570 
L 1773 0 
L 3200 6 
Q 3718 6 4265 19 
Q 4813 32 5267 45 
L 5267 -352 
z
M 3360 4710 
Q 3360 4678 3341 4592 
Q 3322 4506 3322 4467 
L 3309 3507 
L 3322 2387 
L 672 2387 
Q 678 2490 678 2637 
Q 678 2784 685 2976 
Q 691 3174 691 3328 
Q 691 3482 691 3590 
Q 691 4051 681 4339 
Q 672 4627 659 4819 
L 858 4826 
Q 986 4826 1082 4803 
Q 1178 4781 1178 4723 
Q 1178 4678 1149 4595 
Q 1120 4512 1120 4480 
L 1120 4026 
L 1862 4019 
L 2874 4032 
L 2874 4339 
L 2848 4819 
L 3059 4826 
Q 3194 4826 3277 4803 
Q 3360 4781 3360 4710 
z
M 6022 3110 
L 5126 3117 
L 5158 2125 
L 4666 2106 
L 4691 3878 
Q 4691 4198 4688 4422 
Q 4685 4646 4678 4794 
Q 4672 4941 4669 5056 
Q 4666 5171 4659 5254 
L 4781 5254 
Q 4947 5254 5065 5228 
Q 5184 5203 5184 5133 
Q 5184 5094 5155 5008 
Q 5126 4922 5126 4890 
L 5126 3494 
L 6022 3520 
L 6022 3110 
z
" transform="scale(0.015625)"/>
      <path id="AppleGothic-acac" d="M 5485 -352 
Q 5050 -352 4682 -352 
Q 4314 -352 4006 -358 
Q 3699 -365 3328 -368 
Q 2957 -371 2522 -378 
Q 2080 -384 1776 -387 
Q 1472 -390 1299 -390 
L 1306 954 
Q 1306 1062 1306 1129 
Q 1306 1197 1302 1235 
Q 1299 1274 1296 1296 
Q 1293 1318 1286 1344 
L 1446 1350 
Q 1594 1350 1683 1328 
Q 1773 1306 1773 1242 
Q 1773 1216 1753 1129 
Q 1734 1043 1734 986 
L 1734 -26 
L 5485 13 
L 5485 -352 
z
M 5395 5107 
Q 5395 5056 5389 5037 
Q 5376 4966 5366 4918 
Q 5357 4870 5357 4838 
L 5357 781 
L 4934 749 
L 4928 2157 
Q 4621 2157 4141 2138 
Q 3910 2131 3772 2128 
Q 3635 2125 3603 2125 
L 3603 2490 
L 4928 2496 
L 4928 3475 
L 4333 3462 
L 3590 3475 
L 3590 3821 
L 4269 3808 
L 4928 3814 
L 4922 5178 
L 5274 5171 
Q 5395 5171 5395 5107 
z
M 3571 4794 
Q 3558 4704 3548 4617 
Q 3539 4531 3526 4442 
Q 3482 4218 3408 4010 
Q 3334 3802 3238 3603 
Q 2957 3027 2477 2573 
Q 2291 2400 2080 2243 
Q 1869 2086 1638 1952 
Q 1478 1856 1302 1769 
Q 1126 1683 934 1600 
Q 653 1485 640 1485 
Q 627 1510 621 1517 
Q 595 1562 563 1600 
Q 531 1638 499 1677 
Q 480 1702 416 1750 
Q 352 1798 352 1818 
L 371 1837 
Q 397 1837 457 1856 
Q 518 1875 627 1907 
Q 781 1958 941 2022 
Q 1101 2086 1267 2176 
Q 1478 2285 1676 2416 
Q 1875 2547 2061 2694 
Q 2458 3014 2739 3482 
Q 2931 3795 3046 4166 
Q 3059 4237 3078 4313 
Q 3098 4390 3117 4461 
L 2029 4454 
Q 1606 4454 1267 4448 
Q 928 4442 608 4422 
L 608 4800 
Q 659 4794 748 4794 
Q 838 4794 954 4787 
Q 1075 4781 1180 4781 
Q 1286 4781 1382 4781 
L 2854 4800 
L 3571 4794 
z
" transform="scale(0.015625)"/>
      <path id="AppleGothic-d558" d="M 3283 1779 
Q 3283 2125 3053 2317 
Q 2797 2534 2323 2534 
Q 1856 2534 1600 2285 
Q 1376 2074 1376 1792 
Q 1376 1485 1651 1248 
Q 1920 1018 2330 1018 
Q 2765 1018 3046 1267 
Q 3283 1504 3283 1779 
z
M 3757 1747 
Q 3757 1242 3328 928 
Q 2944 646 2387 646 
Q 1734 646 1325 954 
Q 922 1267 922 1811 
Q 922 2368 1370 2656 
Q 1754 2906 2317 2906 
Q 2944 2906 3334 2624 
Q 3757 2317 3757 1747 
z
M 6061 2067 
L 5114 2067 
L 5126 -550 
L 4640 -550 
Q 4646 -422 4656 42 
Q 4666 506 4666 1414 
L 4666 5190 
L 4730 5190 
Q 4934 5190 5062 5168 
Q 5190 5146 5190 5069 
Q 5190 5030 5161 4947 
Q 5133 4864 5133 4826 
L 5120 2483 
L 6061 2490 
L 6061 2067 
z
M 4166 3386 
L 2227 3405 
L 467 3386 
L 467 3827 
Q 659 3821 883 3814 
Q 1107 3808 1376 3795 
Q 1645 3789 1846 3785 
Q 2048 3782 2189 3782 
L 2374 3782 
Q 2950 3782 3369 3788 
Q 3789 3795 4166 3814 
L 4166 3386 
z
M 3110 4301 
L 2291 4314 
L 1478 4301 
L 1478 4685 
Q 1626 4678 1853 4672 
Q 2080 4666 2266 4666 
Q 2419 4666 2643 4669 
Q 2867 4672 3110 4685 
L 3110 4301 
z
" transform="scale(0.015625)"/>
      <path id="AppleGothic-b294" d="M 5261 -384 
Q 5043 -378 4800 -371 
Q 4557 -365 4301 -361 
Q 4045 -358 3789 -358 
Q 3533 -358 3296 -358 
L 1370 -371 
Q 1382 -192 1388 13 
Q 1395 218 1395 410 
L 1395 992 
Q 1395 1114 1398 1194 
Q 1402 1274 1408 1338 
L 1574 1344 
Q 1702 1344 1801 1321 
Q 1901 1299 1901 1248 
Q 1901 1242 1894 1213 
Q 1888 1184 1885 1145 
Q 1882 1107 1875 1068 
Q 1869 1030 1869 1011 
L 1850 38 
L 3475 26 
L 5261 38 
L 5261 -384 
z
M 6067 2003 
L 5389 2003 
Q 5120 2010 4822 2013 
Q 4525 2016 4179 2022 
Q 3840 2029 3603 2032 
Q 3366 2035 3226 2035 
Q 2707 2035 2291 2032 
Q 1875 2029 1536 2022 
Q 1203 2016 908 2009 
Q 614 2003 346 1997 
L 346 2432 
Q 474 2432 1069 2413 
Q 1651 2406 2131 2394 
Q 2374 2387 2636 2387 
Q 2899 2387 3206 2387 
L 4064 2387 
L 5408 2387 
Q 5594 2394 5757 2397 
Q 5920 2400 6067 2406 
L 6067 2003 
z
M 5229 3347 
L 3213 3366 
L 1306 3354 
L 1318 4134 
L 1306 4992 
Q 1555 4992 1692 4963 
Q 1830 4934 1830 4864 
Q 1830 4838 1792 4755 
Q 1754 4672 1754 4634 
L 1754 3763 
L 3392 3744 
L 5229 3757 
L 5229 3347 
z
" transform="scale(0.015625)"/>
      <path id="AppleGothic-4c" d="M 333 5018 
L 838 5018 
L 838 442 
L 3315 442 
L 3315 0 
L 333 0 
L 333 5018 
z
" transform="scale(0.015625)"/>
      <path id="AppleGothic-64" d="M 2682 5018 
L 3174 5018 
L 3174 0 
L 2733 0 
L 2688 557 
Q 2598 429 2508 329 
Q 2419 230 2330 160 
Q 2010 -83 1587 -83 
Q 928 -83 493 429 
Q 64 941 64 1670 
Q 64 2426 518 2957 
Q 979 3501 1670 3501 
Q 1958 3501 2208 3398 
Q 2298 3360 2416 3296 
Q 2534 3232 2682 3142 
L 2682 5018 
z
M 2682 1658 
L 2682 2643 
Q 2381 2906 2157 2995 
Q 1933 3085 1722 3085 
Q 1197 3085 870 2643 
Q 563 2227 563 1677 
Q 563 1088 902 698 
Q 1216 339 1645 339 
Q 2067 339 2374 710 
Q 2682 1082 2682 1658 
z
" transform="scale(0.015625)"/>
     </defs>
     <use xlink:href="#AppleGothic-c0b0"/>
     <use xlink:href="#AppleGothic-c810" transform="translate(99.999985 0)"/>
     <use xlink:href="#AppleGothic-b3c4" transform="translate(199.999969 0)"/>
     <use xlink:href="#AppleGothic-b85c" transform="translate(299.999954 0)"/>
     <use xlink:href="#AppleGothic-20" transform="translate(399.999939 0)"/>
     <use xlink:href="#AppleGothic-bc1c" transform="translate(431.999924 0)"/>
     <use xlink:href="#AppleGothic-acac" transform="translate(531.999908 0)"/>
     <use xlink:href="#AppleGothic-d558" transform="translate(631.999893 0)"/>
     <use xlink:href="#AppleGothic-b294" transform="translate(731.999878 0)"/>
     <use xlink:href="#AppleGothic-20" transform="translate(831.999863 0)"/>
     <use xlink:href="#AppleGothic-4c" transform="translate(863.999847 0)"/>
     <use xlink:href="#AppleGothic-6f" transform="translate(919.199844 0)"/>
     <use xlink:href="#AppleGothic-73" transform="translate(977.499832 0)"/>
     <use xlink:href="#AppleGothic-73" transform="translate(1027.099823 0)"/>
     <use xlink:href="#AppleGothic-20" transform="translate(1076.699814 0)"/>
     <use xlink:href="#AppleGothic-4c" transform="translate(1108.699799 0)"/>
     <use xlink:href="#AppleGothic-65" transform="translate(1163.899796 0)"/>
     <use xlink:href="#AppleGothic-61" transform="translate(1218.799789 0)"/>
     <use xlink:href="#AppleGothic-64" transform="translate(1275.299774 0)"/>
     <use xlink:href="#AppleGothic-65" transform="translate(1329.299759 0)"/>
     <use xlink:href="#AppleGothic-72" transform="translate(1384.199753 0)"/>
     <use xlink:href="#AppleGothic-20" transform="translate(1419.39975 0)"/>
     <use xlink:href="#AppleGothic-28" transform="translate(1451.399734 0)"/>
     <use xlink:href="#AppleGothic-bbf8" transform="translate(1501.399719 0)"/>
     <use xlink:href="#AppleGothic-b07c" transform="translate(1601.399704 0)"/>
     <use xlink:href="#AppleGothic-20" transform="translate(1701.399689 0)"/>
     <use xlink:href="#AppleGothic-c0c1" transform="translate(1733.399673 0)"/>
     <use xlink:href="#AppleGothic-d488" transform="translate(1833.399658 0)"/>
     <use xlink:href="#AppleGothic-29" transform="translate(1933.399643 0)"/>
    </g>
   </g>
   <g id="PathCollection_1">
    <defs>
     <path id="mccc4ab2d41" d="M 0 5 
C 1.326016 5 2.597899 4.473168 3.535534 3.535534 
C 4.473168 2.597899 5 1.326016 5 0 
C 5 -1.326016 4.473168 -2.597899 3.535534 -3.535534 
C 2.597899 -4.473168 1.326016 -5 0 -5 
C -1.326016 -5 -2.597899 -4.473168 -3.535534 -3.535534 
C -4.473168 -2.597899 -5 -1.326016 -5 0 
C -5 1.326016 -4.473168 2.597899 -3.535534 3.535534 
C -2.597899 4.473168 -1.326016 5 0 5 
z
" style="stroke: #000000"/>
    </defs>
    <g clip-path="url(#pfde2db19d8)">
     <use xlink:href="#mccc4ab2d41" x="307.134181" y="105.1516" style="fill: #2ecc71; stroke: #000000"/>
     <use xlink:href="#mccc4ab2d41" x="359.123311" y="90.92385" style="fill: #2ecc71; stroke: #000000"/>
     <use xlink:href="#mccc4ab2d41" x="323.992437" y="110.193527" style="fill: #2ecc71; stroke: #000000"/>
     <use xlink:href="#mccc4ab2d41" x="305.906035" y="92.623786" style="fill: #2ecc71; stroke: #000000"/>
     <use xlink:href="#mccc4ab2d41" x="268.024589" y="126.768662" style="fill: #2ecc71; stroke: #000000"/>
     <use xlink:href="#mccc4ab2d41" x="337.46993" y="100.514909" style="fill: #2ecc71; stroke: #000000"/>
     <use xlink:href="#mccc4ab2d41" x="272.378189" y="133.813165" style="fill: #2ecc71; stroke: #000000"/>
     <use xlink:href="#mccc4ab2d41" x="414.302165" y="80.020814" style="fill: #2ecc71; stroke: #000000"/>
     <use xlink:href="#mccc4ab2d41" x="436.766277" y="79.201763" style="fill: #2ecc71; stroke: #000000"/>
     <use xlink:href="#mccc4ab2d41" x="255.458743" y="115.267016" style="fill: #2ecc71; stroke: #000000"/>
     <use xlink:href="#mccc4ab2d41" x="383.039177" y="114.680409" style="fill: #2ecc71; stroke: #000000"/>
     <use xlink:href="#mccc4ab2d41" x="300.910022" y="121.264596" style="fill: #2ecc71; stroke: #000000"/>
     <use xlink:href="#mccc4ab2d41" x="313.143502" y="113.727721" style="fill: #2ecc71; stroke: #000000"/>
     <use xlink:href="#mccc4ab2d41" x="424.871375" y="61.630303" style="fill: #2ecc71; stroke: #000000"/>
     <use xlink:href="#mccc4ab2d41" x="157.838285" y="153.563516" style="fill: #2ecc71; stroke: #000000"/>
    </g>
   </g>
   <g id="PathCollection_2">
    <defs>
     <path id="m3e2690a14f" d="M 0 5 
C 1.326016 5 2.597899 4.473168 3.535534 3.535534 
C 4.473168 2.597899 5 1.326016 5 0 
C 5 -1.326016 4.473168 -2.597899 3.535534 -3.535534 
C 2.597899 -4.473168 1.326016 -5 0 -5 
C -1.326016 -5 -2.597899 -4.473168 -3.535534 -3.535534 
C -4.473168 -2.597899 -5 -1.326016 -5 0 
C -5 1.326016 -4.473168 2.597899 -3.535534 3.535534 
C -2.597899 4.473168 -1.326016 5 0 5 
z
" style="stroke: #000000"/>
    </defs>
    <g clip-path="url(#pfde2db19d8)">
     <use xlink:href="#m3e2690a14f" x="345.708429" y="231.745939" style="fill: #e74c3c; stroke: #000000"/>
     <use xlink:href="#m3e2690a14f" x="344.224656" y="247.175199" style="fill: #e74c3c; stroke: #000000"/>
     <use xlink:href="#m3e2690a14f" x="345.520539" y="223.500673" style="fill: #e74c3c; stroke: #000000"/>
     <use xlink:href="#m3e2690a14f" x="433.054423" y="254.022195" style="fill: #e74c3c; stroke: #000000"/>
     <use xlink:href="#m3e2690a14f" x="362.899686" y="246.357047" style="fill: #e74c3c; stroke: #000000"/>
     <use xlink:href="#m3e2690a14f" x="276.571534" y="205.722322" style="fill: #e74c3c; stroke: #000000"/>
     <use xlink:href="#m3e2690a14f" x="297.335576" y="250.18524" style="fill: #e74c3c; stroke: #000000"/>
     <use xlink:href="#m3e2690a14f" x="367.134477" y="232.949247" style="fill: #e74c3c; stroke: #000000"/>
     <use xlink:href="#m3e2690a14f" x="196.411728" y="205.022945" style="fill: #e74c3c; stroke: #000000"/>
     <use xlink:href="#m3e2690a14f" x="358.867735" y="236.786976" style="fill: #e74c3c; stroke: #000000"/>
    </g>
   </g>
  </g>
 </g>
 <defs>
  <clipPath id="pfde2db19d8">
   <rect x="46.360938" y="38.036875" width="446.4" height="277.2"/>
  </clipPath>
 </defs>
</svg>
