<?xml version="1.0" encoding="utf-8" standalone="no"?>
<!DOCTYPE svg PUBLIC "-//W3C//DTD SVG 1.1//EN"
  "http://www.w3.org/Graphics/SVG/1.1/DTD/svg11.dtd">
<svg xmlns:xlink="http://www.w3.org/1999/xlink" width="460.8pt" height="236.16pt" viewBox="0 0 460.8 236.16" xmlns="http://www.w3.org/2000/svg" version="1.1">
 <metadata>
  <rdf:RDF xmlns:dc="http://purl.org/dc/elements/1.1/" xmlns:cc="http://creativecommons.org/ns#" xmlns:rdf="http://www.w3.org/1999/02/22-rdf-syntax-ns#">
   <cc:Work>
    <dc:type rdf:resource="http://purl.org/dc/dcmitype/StillImage"/>
    <dc:date>2026-05-22T14:25:55.522983</dc:date>
    <dc:format>image/svg+xml</dc:format>
    <dc:creator>
     <cc:Agent>
      <dc:title>Matplotlib v3.10.9, https://matplotlib.org/</dc:title>
     </cc:Agent>
    </dc:creator>
   </cc:Work>
  </rdf:RDF>
 </metadata>
 <defs>
  <style type="text/css">*{stroke-linejoin: round; stroke-linecap: butt}</style>
 </defs>
 <g id="figure_1">
  <g id="patch_1">
   <path d="M 0 236.16 
L 460.8 236.16 
L 460.8 0 
L 0 0 
z
" style="fill: #ffffff"/>
  </g>
  <g id="axes_1">
   <g id="table_1">
    <g id="patch_2">
     <path d="M 208.08 95.904 
L 263.88 95.904 
L 263.88 51.552 
L 208.08 51.552 
z
" style="fill: #3498db; stroke: #000000; stroke-linejoin: miter"/>
    </g>
    <g id="text_1">
     <!-- Order Date -->
     <g style="fill: #ffffff" transform="translate(210.829219 76.788156) scale(0.1 -0.1)">
      <defs>
       <path id="AppleGothic-4f" d="M 2496 -83 
Q 1626 -83 973 595 
Q 256 1331 256 2496 
Q 256 3610 928 4378 
Q 1581 5101 2477 5101 
Q 3386 5101 4038 4390 
Q 4710 3642 4710 2502 
Q 4710 1318 3981 582 
Q 3334 -83 2496 -83 
z
M 2458 390 
Q 3168 390 3667 986 
Q 4173 1594 4173 2502 
Q 4173 2944 4051 3321 
Q 3930 3699 3686 4006 
Q 3200 4627 2483 4627 
Q 1773 4627 1280 4006 
Q 794 3398 794 2490 
Q 794 1542 1306 947 
Q 1786 390 2458 390 
z
" transform="scale(0.015625)"/>
       <path id="AppleGothic-72" d="M 2125 3424 
L 2125 2963 
Q 2054 2989 2009 3005 
Q 1965 3021 1933 3027 
Q 1901 3034 1865 3037 
Q 1830 3040 1773 3040 
Q 1306 3040 1005 2586 
Q 749 2170 749 1658 
L 749 0 
L 288 0 
L 288 3424 
L 710 3424 
L 742 2835 
Q 902 3104 1043 3219 
Q 1331 3456 1734 3456 
Q 1843 3456 1936 3449 
Q 2029 3443 2125 3424 
z
" transform="scale(0.015625)"/>
       <path id="AppleGothic-64" d="M 2682 5018 
L 3174 5018 
L 3174 0 
L 2733 0 
L 2688 557 
Q 2598 429 2508 329 
Q 2419 230 2330 160 
Q 2010 -83 1587 -83 
Q 928 -83 493 429 
Q 64 941 64 1670 
Q 64 2426 518 2957 
Q 979 3501 1670 3501 
Q 1958 3501 2208 3398 
Q 2298 3360 2416 3296 
Q 2534 3232 2682 3142 
L 2682 5018 
z
M 2682 1658 
L 2682 2643 
Q 2381 2906 2157 2995 
Q 1933 3085 1722 3085 
Q 1197 3085 870 2643 
Q 563 2227 563 1677 
Q 563 1088 902 698 
Q 1216 339 1645 339 
Q 2067 339 2374 710 
Q 2682 1082 2682 1658 
z
" transform="scale(0.015625)"/>
       <path id="AppleGothic-65" d="M 3296 1850 
L 691 1850 
Q 691 1114 1033 726 
Q 1376 339 1933 339 
Q 2355 339 2746 608 
Q 2854 678 2976 784 
Q 3098 890 3238 1030 
L 3238 474 
Q 3085 358 2953 272 
Q 2822 186 2707 128 
Q 2304 -83 1901 -83 
Q 1203 -83 717 397 
Q 192 902 192 1709 
Q 192 2470 666 2982 
Q 1146 3501 1850 3501 
Q 2534 3501 2938 3002 
Q 3296 2547 3296 1850 
z
M 755 2240 
L 2758 2240 
Q 2682 2675 2429 2889 
Q 2176 3104 1818 3104 
Q 1421 3104 1146 2854 
Q 890 2624 755 2240 
z
" transform="scale(0.015625)"/>
       <path id="AppleGothic-20" transform="scale(0.015625)"/>
       <path id="AppleGothic-44" d="M 358 5024 
L 1562 5024 
Q 2227 5024 2675 4858 
Q 2861 4787 3027 4681 
Q 3194 4576 3341 4429 
Q 3693 4077 3878 3584 
Q 4064 3091 4064 2554 
Q 4064 1357 3379 672 
Q 2688 0 1485 0 
L 358 0 
L 358 5024 
z
M 1363 4582 
L 864 4582 
L 864 442 
L 1690 442 
Q 2413 442 2912 941 
Q 3494 1523 3494 2560 
Q 3494 2765 3472 2944 
Q 3450 3123 3405 3290 
Q 3264 3776 2906 4122 
Q 2643 4371 2298 4480 
Q 1965 4582 1363 4582 
z
" transform="scale(0.015625)"/>
       <path id="AppleGothic-61" d="M 2950 2214 
L 2950 602 
Q 2950 493 2998 413 
Q 3046 333 3174 333 
Q 3213 333 3238 336 
Q 3264 339 3290 346 
Q 3328 358 3357 371 
Q 3386 384 3405 390 
L 3405 32 
Q 3290 -6 3174 -22 
Q 3059 -38 2995 -38 
Q 2669 -38 2566 134 
Q 2483 243 2483 602 
Q 2400 461 2317 355 
Q 2234 250 2150 179 
Q 1818 -83 1376 -83 
Q 909 -83 563 192 
Q 205 486 205 941 
Q 205 1510 781 1779 
Q 992 1882 1341 1958 
Q 1690 2035 2176 2099 
L 2483 2131 
Q 2483 2579 2256 2832 
Q 2029 3085 1587 3085 
Q 1421 3085 1257 3043 
Q 1094 3002 928 2912 
Q 838 2861 729 2790 
Q 621 2720 493 2611 
L 493 3136 
Q 1037 3501 1664 3501 
Q 2304 3501 2650 3098 
Q 2950 2746 2950 2214 
z
M 2483 1542 
L 2483 1747 
L 2266 1722 
Q 1466 1638 1139 1498 
Q 704 1325 704 934 
Q 704 819 755 713 
Q 806 608 896 525 
Q 986 442 1117 390 
Q 1248 339 1408 339 
Q 1843 339 2170 691 
Q 2483 1050 2483 1542 
z
" transform="scale(0.015625)"/>
       <path id="AppleGothic-74" d="M 691 4435 
L 1114 4435 
L 1114 3430 
L 2016 3430 
L 2016 3014 
L 1114 3014 
L 1114 838 
Q 1114 570 1213 454 
Q 1312 339 1555 339 
Q 1696 339 1795 371 
Q 1894 403 2016 454 
L 2016 38 
Q 1914 6 1770 -22 
Q 1626 -51 1478 -51 
Q 1094 -51 883 122 
Q 646 301 646 698 
L 646 3014 
L 70 3014 
L 70 3430 
L 646 3430 
L 691 4435 
z
" transform="scale(0.015625)"/>
      </defs>
      <use xlink:href="#AppleGothic-4f"/>
      <use xlink:href="#AppleGothic-72" transform="translate(77.599991 0)"/>
      <use xlink:href="#AppleGothic-64" transform="translate(112.799988 0)"/>
      <use xlink:href="#AppleGothic-65" transform="translate(166.799973 0)"/>
      <use xlink:href="#AppleGothic-72" transform="translate(221.699966 0)"/>
      <use xlink:href="#AppleGothic-20" transform="translate(256.899963 0)"/>
      <use xlink:href="#AppleGothic-44" transform="translate(288.899948 0)"/>
      <use xlink:href="#AppleGothic-61" transform="translate(357.399933 0)"/>
      <use xlink:href="#AppleGothic-74" transform="translate(413.899918 0)"/>
      <use xlink:href="#AppleGothic-65" transform="translate(448.099915 0)"/>
     </g>
    </g>
    <g id="patch_3">
     <path d="M 263.88 95.904 
L 319.68 95.904 
L 319.68 51.552 
L 263.88 51.552 
z
" style="fill: #3498db; stroke: #000000; stroke-linejoin: miter"/>
    </g>
    <g id="text_2">
     <!-- Category -->
     <g style="fill: #ffffff" transform="translate(270.804219 76.692844) scale(0.1 -0.1)">
      <defs>
       <path id="AppleGothic-43" d="M 4109 4621 
L 4109 3974 
Q 3872 4205 3565 4371 
Q 3085 4627 2598 4627 
Q 1850 4627 1312 3994 
Q 1043 3680 912 3309 
Q 781 2938 781 2515 
Q 781 1651 1318 1030 
Q 1850 410 2611 410 
Q 2970 410 3344 554 
Q 3718 698 4109 998 
L 4109 378 
Q 3251 -83 2554 -83 
Q 1651 -83 973 614 
Q 243 1363 243 2490 
Q 243 3584 922 4339 
Q 1613 5101 2630 5101 
Q 3027 5101 3392 4979 
Q 3757 4858 4109 4621 
z
" transform="scale(0.015625)"/>
       <path id="AppleGothic-67" d="M 2822 3040 
L 2950 3424 
L 3290 3424 
L 3290 326 
Q 3290 -474 2899 -890 
Q 2509 -1306 1690 -1306 
Q 1357 -1306 1059 -1187 
Q 762 -1069 435 -819 
L 435 -256 
Q 640 -448 838 -579 
Q 1037 -710 1229 -781 
Q 1453 -864 1690 -864 
Q 2195 -864 2477 -634 
Q 2822 -352 2822 269 
L 2822 691 
Q 2579 288 2221 122 
Q 1978 6 1683 6 
Q 1050 6 621 512 
Q 198 1030 198 1709 
Q 198 2387 595 2906 
Q 1056 3501 1773 3501 
Q 2131 3501 2451 3328 
Q 2547 3270 2640 3200 
Q 2733 3130 2822 3040 
z
M 2822 1658 
L 2822 2598 
Q 2714 2720 2602 2803 
Q 2490 2886 2381 2950 
Q 2253 3021 2118 3053 
Q 1984 3085 1843 3085 
Q 1363 3085 1050 2746 
Q 698 2362 698 1734 
Q 698 1165 992 794 
Q 1280 429 1741 429 
Q 2195 429 2509 781 
Q 2822 1120 2822 1658 
z
" transform="scale(0.015625)"/>
       <path id="AppleGothic-6f" d="M 1888 -83 
Q 1229 -83 730 397 
Q 198 902 198 1709 
Q 198 2470 666 2982 
Q 1146 3501 1850 3501 
Q 2547 3501 3027 2982 
Q 3501 2470 3501 1715 
Q 3501 922 2989 403 
Q 2515 -83 1888 -83 
z
M 1843 339 
Q 2304 339 2662 723 
Q 3008 1114 3008 1715 
Q 3008 2336 2637 2726 
Q 2298 3085 1850 3085 
Q 1389 3085 1062 2714 
Q 704 2304 704 1709 
Q 704 1107 1056 704 
Q 1382 339 1843 339 
z
" transform="scale(0.015625)"/>
       <path id="AppleGothic-79" d="M 179 3424 
L 691 3424 
L 1869 531 
L 2874 3424 
L 3379 3424 
L 1952 -397 
Q 1798 -806 1555 -979 
Q 1338 -1126 1037 -1126 
Q 883 -1126 780 -1104 
Q 678 -1082 582 -1043 
L 582 -602 
Q 672 -646 784 -678 
Q 896 -710 986 -710 
Q 1210 -710 1334 -595 
Q 1459 -480 1555 -230 
L 1632 32 
L 179 3424 
z
" transform="scale(0.015625)"/>
      </defs>
      <use xlink:href="#AppleGothic-43"/>
      <use xlink:href="#AppleGothic-61" transform="translate(68.499985 0)"/>
      <use xlink:href="#AppleGothic-74" transform="translate(124.999969 0)"/>
      <use xlink:href="#AppleGothic-65" transform="translate(159.199966 0)"/>
      <use xlink:href="#AppleGothic-67" transform="translate(214.09996 0)"/>
      <use xlink:href="#AppleGothic-6f" transform="translate(270.299957 0)"/>
      <use xlink:href="#AppleGothic-72" transform="translate(328.599945 0)"/>
      <use xlink:href="#AppleGothic-79" transform="translate(363.799942 0)"/>
     </g>
    </g>
    <g id="patch_4">
     <path d="M 319.68 95.904 
L 375.48 95.904 
L 375.48 51.552 
L 319.68 51.552 
z
" style="fill: #3498db; stroke: #000000; stroke-linejoin: miter"/>
    </g>
    <g id="text_3">
     <!-- Sales -->
     <g style="fill: #ffffff" transform="translate(335.534687 76.788156) scale(0.1 -0.1)">
      <defs>
       <path id="AppleGothic-53" d="M 3418 4666 
L 3418 4019 
Q 3251 4160 3081 4269 
Q 2912 4378 2746 4448 
Q 2362 4627 1965 4627 
Q 1466 4627 1139 4378 
Q 806 4122 806 3770 
Q 806 3258 1562 3002 
Q 1914 2880 2262 2768 
Q 2611 2656 2970 2541 
Q 3731 2176 3731 1453 
Q 3731 749 3187 320 
Q 2669 -83 1901 -83 
Q 1389 -83 915 115 
Q 640 224 262 474 
L 262 1126 
Q 755 685 1261 506 
Q 1427 442 1587 416 
Q 1747 390 1907 390 
Q 2419 390 2771 646 
Q 3162 928 3162 1382 
Q 3162 1933 2419 2221 
Q 2061 2330 1715 2445 
Q 1370 2560 1024 2669 
Q 275 3014 275 3731 
Q 275 4333 749 4710 
Q 1235 5101 1965 5101 
Q 2413 5101 2861 4934 
Q 3091 4858 3418 4666 
z
" transform="scale(0.015625)"/>
       <path id="AppleGothic-6c" d="M 288 5018 
L 749 5018 
L 749 0 
L 288 0 
L 288 5018 
z
" transform="scale(0.015625)"/>
       <path id="AppleGothic-73" d="M 224 294 
L 224 851 
Q 621 531 1030 403 
Q 1152 371 1267 355 
Q 1382 339 1504 339 
Q 1894 339 2150 518 
Q 2413 710 2413 947 
Q 2413 1075 2317 1210 
Q 2182 1376 1600 1510 
Q 909 1683 678 1798 
Q 230 2054 230 2515 
Q 230 2944 602 3219 
Q 979 3501 1542 3501 
Q 1798 3501 2003 3456 
Q 2208 3411 2387 3337 
Q 2566 3264 2720 3155 
L 2720 2598 
Q 2451 2822 2156 2953 
Q 1862 3085 1536 3085 
Q 1210 3085 973 2938 
Q 730 2790 730 2554 
Q 730 2240 1306 2054 
Q 1574 1978 1836 1901 
Q 2099 1824 2368 1747 
Q 2950 1498 2950 992 
Q 2950 563 2547 237 
Q 2138 -83 1530 -83 
Q 1261 -83 1005 -26 
Q 595 64 224 294 
z
" transform="scale(0.015625)"/>
      </defs>
      <use xlink:href="#AppleGothic-53"/>
      <use xlink:href="#AppleGothic-61" transform="translate(63.199997 0)"/>
      <use xlink:href="#AppleGothic-6c" transform="translate(119.699982 0)"/>
      <use xlink:href="#AppleGothic-65" transform="translate(136.399979 0)"/>
      <use xlink:href="#AppleGothic-73" transform="translate(191.299973 0)"/>
     </g>
    </g>
    <g id="patch_5">
     <path d="M 375.48 95.904 
L 431.28 95.904 
L 431.28 51.552 
L 375.48 51.552 
z
" style="fill: #3498db; stroke: #000000; stroke-linejoin: miter"/>
    </g>
    <g id="text_4">
     <!-- Profit -->
     <g style="fill: #ffffff" transform="translate(391.484688 76.788156) scale(0.1 -0.1)">
      <defs>
       <path id="AppleGothic-50" d="M 262 5018 
L 1869 5018 
Q 2560 5018 3002 4781 
Q 3597 4448 3597 3718 
Q 3597 3014 3104 2630 
Q 2656 2272 1952 2272 
L 768 2272 
L 768 0 
L 262 0 
L 262 5018 
z
M 1862 4576 
L 768 4576 
L 768 2714 
L 1901 2714 
Q 2349 2714 2675 2950 
Q 3040 3219 3040 3674 
Q 3040 4186 2611 4410 
Q 2298 4576 1862 4576 
z
" transform="scale(0.015625)"/>
       <path id="AppleGothic-66" d="M 646 3430 
L 646 4083 
Q 646 4538 819 4774 
Q 1037 5101 1555 5101 
Q 1613 5101 1657 5097 
Q 1702 5094 1750 5088 
Q 1798 5082 1862 5062 
Q 1926 5043 2016 5018 
L 2016 4595 
Q 1997 4621 1837 4653 
Q 1766 4666 1712 4672 
Q 1658 4678 1619 4678 
Q 1350 4678 1228 4524 
Q 1107 4371 1107 4083 
L 1107 3430 
L 2016 3430 
L 2016 3014 
L 1107 3014 
L 1107 0 
L 646 0 
L 646 3014 
L 64 3014 
L 64 3430 
L 646 3430 
z
" transform="scale(0.015625)"/>
       <path id="AppleGothic-69" d="M 256 3424 
L 717 3424 
L 717 0 
L 256 0 
L 256 3424 
z
M 480 4870 
Q 614 4870 704 4780 
Q 794 4691 794 4525 
Q 794 4358 710 4268 
Q 627 4179 480 4179 
Q 333 4179 253 4281 
Q 173 4384 173 4518 
Q 173 4730 269 4800 
Q 365 4870 480 4870 
z
" transform="scale(0.015625)"/>
      </defs>
      <use xlink:href="#AppleGothic-50"/>
      <use xlink:href="#AppleGothic-72" transform="translate(60.299988 0)"/>
      <use xlink:href="#AppleGothic-6f" transform="translate(95.499985 0)"/>
      <use xlink:href="#AppleGothic-66" transform="translate(153.799973 0)"/>
      <use xlink:href="#AppleGothic-69" transform="translate(187.799957 0)"/>
      <use xlink:href="#AppleGothic-74" transform="translate(203.699951 0)"/>
     </g>
    </g>
    <g id="patch_6">
     <path d="M 208.08 140.256 
L 263.88 140.256 
L 263.88 95.904 
L 208.08 95.904 
z
" style="fill: #ffffff; stroke: #000000; stroke-linejoin: miter"/>
    </g>
    <g id="text_5">
     <!-- 2023-01-01 -->
     <g transform="translate(203.78 121.140156) scale(0.1 -0.1)">
      <defs>
       <path id="AppleGothic-32" d="M 1101 429 
L 3942 429 
L 3942 0 
L 653 0 
L 653 205 
Q 653 1018 1344 1664 
Q 1670 1894 1990 2124 
Q 2310 2355 2637 2592 
Q 3334 3098 3334 3597 
Q 3334 3994 3014 4218 
Q 2867 4326 2694 4377 
Q 2522 4429 2317 4429 
Q 2016 4429 1741 4352 
Q 1325 4224 883 3910 
L 883 4435 
Q 1325 4659 1667 4758 
Q 2010 4858 2317 4858 
Q 2963 4858 3405 4525 
Q 3840 4198 3840 3622 
Q 3840 2995 3168 2438 
Q 2848 2214 2531 2000 
Q 2214 1786 1894 1562 
Q 1178 1024 1101 429 
z
" transform="scale(0.015625)"/>
       <path id="AppleGothic-30" d="M 2227 -83 
Q 1414 -83 934 576 
Q 461 1229 461 2387 
Q 461 3552 973 4218 
Q 1453 4858 2221 4858 
Q 3027 4858 3482 4173 
Q 3955 3494 3955 2394 
Q 3955 1248 3462 582 
Q 2976 -83 2227 -83 
z
M 2176 346 
Q 2861 346 3200 992 
Q 3462 1536 3462 2400 
Q 3462 3315 3162 3859 
Q 2822 4429 2214 4429 
Q 1574 4429 1248 3821 
Q 960 3283 960 2374 
Q 960 1478 1248 941 
Q 1574 346 2176 346 
z
" transform="scale(0.015625)"/>
       <path id="AppleGothic-33" d="M 550 333 
L 550 870 
Q 883 621 1235 483 
Q 1587 346 1971 346 
Q 2522 346 2861 666 
Q 3219 992 3219 1421 
Q 3219 1869 2842 2099 
Q 2515 2304 1965 2304 
L 992 2304 
L 992 2701 
L 1658 2701 
Q 2298 2701 2662 2928 
Q 3027 3155 3027 3584 
Q 3027 3936 2752 4173 
Q 2458 4429 1978 4429 
Q 1786 4429 1597 4393 
Q 1408 4358 1222 4282 
Q 890 4141 531 3872 
L 531 4422 
Q 736 4531 912 4608 
Q 1088 4685 1254 4736 
Q 1626 4858 2022 4858 
Q 2650 4858 3066 4531 
Q 3488 4211 3488 3642 
Q 3488 3168 3168 2861 
Q 2976 2675 2643 2554 
Q 2874 2522 3053 2448 
Q 3232 2374 3366 2266 
Q 3718 1971 3718 1434 
Q 3718 813 3219 365 
Q 2714 -83 1965 -83 
Q 1549 -83 1126 70 
Q 1024 102 880 166 
Q 736 230 550 333 
z
" transform="scale(0.015625)"/>
       <path id="AppleGothic-2d" d="M 256 1958 
L 2349 1958 
L 2349 1491 
L 256 1491 
L 256 1958 
z
" transform="scale(0.015625)"/>
       <path id="AppleGothic-31" d="M 2342 4774 
L 2752 4774 
L 2752 0 
L 2285 0 
L 2285 3526 
L 1158 3526 
L 1158 3885 
L 1414 3885 
Q 1990 3885 2214 4205 
Q 2342 4410 2342 4774 
z
" transform="scale(0.015625)"/>
      </defs>
      <use xlink:href="#AppleGothic-32"/>
      <use xlink:href="#AppleGothic-30" transform="translate(67.999985 0)"/>
      <use xlink:href="#AppleGothic-32" transform="translate(135.999969 0)"/>
      <use xlink:href="#AppleGothic-33" transform="translate(203.999954 0)"/>
      <use xlink:href="#AppleGothic-2d" transform="translate(271.999939 0)"/>
      <use xlink:href="#AppleGothic-30" transform="translate(321.999924 0)"/>
      <use xlink:href="#AppleGothic-31" transform="translate(389.999908 0)"/>
      <use xlink:href="#AppleGothic-2d" transform="translate(457.999893 0)"/>
      <use xlink:href="#AppleGothic-30" transform="translate(507.999878 0)"/>
      <use xlink:href="#AppleGothic-31" transform="translate(575.999863 0)"/>
     </g>
    </g>
    <g id="patch_7">
     <path d="M 263.88 140.256 
L 319.68 140.256 
L 319.68 95.904 
L 263.88 95.904 
z
" style="fill: #ffffff; stroke: #000000; stroke-linejoin: miter"/>
    </g>
    <g id="text_6">
     <!-- Furniture -->
     <g transform="translate(271.753437 121.140156) scale(0.1 -0.1)">
      <defs>
       <path id="AppleGothic-46" d="M 339 5018 
L 3462 5018 
L 3462 4576 
L 845 4576 
L 845 2714 
L 3354 2714 
L 3354 2304 
L 845 2304 
L 845 0 
L 339 0 
L 339 5018 
z
" transform="scale(0.015625)"/>
       <path id="AppleGothic-75" d="M 262 3424 
L 730 3424 
L 730 1242 
Q 730 877 941 627 
Q 1171 339 1594 339 
Q 2080 339 2426 730 
Q 2784 1139 2784 1632 
L 2784 3424 
L 3245 3424 
L 3245 0 
L 2842 0 
L 2810 582 
Q 2707 442 2592 330 
Q 2477 218 2342 134 
Q 1984 -83 1555 -83 
Q 966 -83 614 282 
Q 262 653 262 1184 
L 262 3424 
z
" transform="scale(0.015625)"/>
       <path id="AppleGothic-6e" d="M 3264 2291 
L 3264 0 
L 2803 0 
L 2803 2259 
Q 2803 2618 2541 2848 
Q 2278 3085 1914 3085 
Q 1427 3085 1075 2682 
Q 723 2272 723 1760 
L 723 0 
L 288 0 
L 288 3424 
L 691 3424 
L 710 2784 
Q 883 3046 1114 3219 
Q 1491 3501 1965 3501 
Q 2515 3501 2886 3168 
Q 3264 2842 3264 2291 
z
" transform="scale(0.015625)"/>
      </defs>
      <use xlink:href="#AppleGothic-46"/>
      <use xlink:href="#AppleGothic-75" transform="translate(58.199997 0)"/>
      <use xlink:href="#AppleGothic-72" transform="translate(113.699982 0)"/>
      <use xlink:href="#AppleGothic-6e" transform="translate(148.899979 0)"/>
      <use xlink:href="#AppleGothic-69" transform="translate(204.799973 0)"/>
      <use xlink:href="#AppleGothic-74" transform="translate(220.699966 0)"/>
      <use xlink:href="#AppleGothic-75" transform="translate(254.899963 0)"/>
      <use xlink:href="#AppleGothic-72" transform="translate(310.399948 0)"/>
      <use xlink:href="#AppleGothic-65" transform="translate(345.599945 0)"/>
     </g>
    </g>
    <g id="patch_8">
     <path d="M 319.68 140.256 
L 375.48 140.256 
L 375.48 95.904 
L 319.68 95.904 
z
" style="fill: #ffffff; stroke: #000000; stroke-linejoin: miter"/>
    </g>
    <g id="text_7">
     <!-- $200 -->
     <g transform="translate(333.98 121.140156) scale(0.1 -0.1)">
      <defs>
       <path id="AppleGothic-24" d="M 1984 5344 
L 2400 5344 
L 2400 4877 
Q 2790 4838 3142 4685 
Q 3341 4608 3597 4448 
L 3597 3891 
Q 3418 4026 3270 4118 
Q 3123 4211 2995 4269 
Q 2758 4378 2400 4448 
L 2400 2701 
Q 2720 2637 2953 2569 
Q 3187 2502 3334 2413 
Q 3878 2099 3878 1453 
Q 3878 883 3456 480 
Q 3264 294 2998 179 
Q 2733 64 2400 0 
L 2400 -499 
L 1984 -499 
L 1984 -45 
Q 1613 -45 1312 58 
Q 1126 115 915 224 
Q 704 333 467 486 
L 467 1050 
Q 973 640 1408 480 
Q 1690 378 1984 378 
L 1984 2317 
Q 1677 2368 1446 2432 
Q 1216 2496 1062 2573 
Q 474 2886 474 3533 
Q 474 4096 870 4441 
Q 1267 4787 1984 4877 
L 1984 5344 
z
M 1984 2778 
L 1984 4448 
Q 1434 4371 1178 4077 
Q 973 3840 973 3565 
Q 973 3194 1306 2995 
Q 1414 2931 1580 2876 
Q 1747 2822 1984 2778 
z
M 2400 2240 
L 2400 410 
Q 2931 538 3181 851 
Q 3379 1094 3379 1389 
Q 3379 1811 3021 2016 
Q 2797 2150 2400 2240 
z
" transform="scale(0.015625)"/>
      </defs>
      <use xlink:href="#AppleGothic-24"/>
      <use xlink:href="#AppleGothic-32" transform="translate(67.999985 0)"/>
      <use xlink:href="#AppleGothic-30" transform="translate(135.999969 0)"/>
      <use xlink:href="#AppleGothic-30" transform="translate(203.999954 0)"/>
     </g>
    </g>
    <g id="patch_9">
     <path d="M 375.48 140.256 
L 431.28 140.256 
L 431.28 95.904 
L 375.48 95.904 
z
" style="fill: #ffffff; stroke: #000000; stroke-linejoin: miter"/>
    </g>
    <g id="text_8">
     <!-- $-20 -->
     <g transform="translate(390.68 121.140156) scale(0.1 -0.1)">
      <use xlink:href="#AppleGothic-24"/>
      <use xlink:href="#AppleGothic-2d" transform="translate(67.999985 0)"/>
      <use xlink:href="#AppleGothic-32" transform="translate(117.999969 0)"/>
      <use xlink:href="#AppleGothic-30" transform="translate(185.999954 0)"/>
     </g>
    </g>
    <g id="patch_10">
     <path d="M 208.08 184.608 
L 263.88 184.608 
L 263.88 140.256 
L 208.08 140.256 
z
" style="fill: #ffffff; stroke: #000000; stroke-linejoin: miter"/>
    </g>
    <g id="text_9">
     <!-- 2023-01-02 -->
     <g transform="translate(203.78 165.492156) scale(0.1 -0.1)">
      <use xlink:href="#AppleGothic-32"/>
      <use xlink:href="#AppleGothic-30" transform="translate(67.999985 0)"/>
      <use xlink:href="#AppleGothic-32" transform="translate(135.999969 0)"/>
      <use xlink:href="#AppleGothic-33" transform="translate(203.999954 0)"/>
      <use xlink:href="#AppleGothic-2d" transform="translate(271.999939 0)"/>
      <use xlink:href="#AppleGothic-30" transform="translate(321.999924 0)"/>
      <use xlink:href="#AppleGothic-31" transform="translate(389.999908 0)"/>
      <use xlink:href="#AppleGothic-2d" transform="translate(457.999893 0)"/>
      <use xlink:href="#AppleGothic-30" transform="translate(507.999878 0)"/>
      <use xlink:href="#AppleGothic-32" transform="translate(575.999863 0)"/>
     </g>
    </g>
    <g id="patch_11">
     <path d="M 263.88 184.608 
L 319.68 184.608 
L 319.68 140.256 
L 263.88 140.256 
z
" style="fill: #ffffff; stroke: #000000; stroke-linejoin: miter"/>
    </g>
    <g id="text_10">
     <!-- Technology -->
     <g transform="translate(265.469062 165.332) scale(0.1 -0.1)">
      <defs>
       <path id="AppleGothic-54" d="M 166 5018 
L 4038 5018 
L 4038 4576 
L 2355 4576 
L 2355 0 
L 1856 0 
L 1856 4576 
L 166 4576 
L 166 5018 
z
" transform="scale(0.015625)"/>
       <path id="AppleGothic-63" d="M 3085 3123 
L 3085 2522 
Q 2726 2861 2349 3008 
Q 2240 3053 2125 3069 
Q 2010 3085 1894 3085 
Q 1363 3085 1024 2688 
Q 685 2278 685 1715 
Q 685 1139 1037 730 
Q 1389 339 1920 339 
Q 2253 339 2528 483 
Q 2803 627 3085 915 
L 3085 307 
Q 2746 96 2470 6 
Q 2195 -83 1914 -83 
Q 1197 -83 685 429 
Q 186 960 186 1709 
Q 186 2445 678 2976 
Q 1178 3501 1920 3501 
Q 2298 3501 2624 3373 
Q 2816 3302 3085 3123 
z
" transform="scale(0.015625)"/>
       <path id="AppleGothic-68" d="M 288 5018 
L 749 5018 
L 749 2810 
Q 909 3066 1139 3238 
Q 1491 3501 1926 3501 
Q 2195 3501 2409 3424 
Q 2624 3347 2803 3200 
Q 3181 2867 3181 2266 
L 3181 0 
L 2714 0 
L 2714 2202 
Q 2714 2573 2477 2829 
Q 2240 3085 1901 3085 
Q 1408 3085 1082 2694 
Q 749 2291 749 1773 
L 749 0 
L 288 0 
L 288 5018 
z
" transform="scale(0.015625)"/>
      </defs>
      <use xlink:href="#AppleGothic-54"/>
      <use xlink:href="#AppleGothic-65" transform="translate(66.099991 0)"/>
      <use xlink:href="#AppleGothic-63" transform="translate(120.999985 0)"/>
      <use xlink:href="#AppleGothic-68" transform="translate(172.899979 0)"/>
      <use xlink:href="#AppleGothic-6e" transform="translate(225.099976 0)"/>
      <use xlink:href="#AppleGothic-6f" transform="translate(280.999969 0)"/>
      <use xlink:href="#AppleGothic-6c" transform="translate(339.299957 0)"/>
      <use xlink:href="#AppleGothic-6f" transform="translate(355.999954 0)"/>
      <use xlink:href="#AppleGothic-67" transform="translate(414.299942 0)"/>
      <use xlink:href="#AppleGothic-79" transform="translate(470.499939 0)"/>
     </g>
    </g>
    <g id="patch_12">
     <path d="M 319.68 184.608 
L 375.48 184.608 
L 375.48 140.256 
L 319.68 140.256 
z
" style="fill: #ffffff; stroke: #000000; stroke-linejoin: miter"/>
    </g>
    <g id="text_11">
     <!-- $500 -->
     <g transform="translate(333.98 165.492156) scale(0.1 -0.1)">
      <defs>
       <path id="AppleGothic-35" d="M 621 4768 
L 3488 4768 
L 3488 4339 
L 1088 4339 
L 1088 2707 
Q 1184 2771 1293 2819 
Q 1402 2867 1510 2912 
Q 1862 3040 2259 3040 
Q 2989 3040 3424 2605 
Q 3827 2202 3827 1581 
Q 3827 870 3296 397 
Q 2765 -83 2010 -83 
Q 1651 -83 1248 45 
Q 1158 77 1001 137 
Q 845 198 621 301 
L 621 838 
Q 928 640 1203 525 
Q 1408 435 1613 390 
Q 1818 346 2010 346 
Q 2528 346 2906 666 
Q 3322 1011 3322 1536 
Q 3322 1990 3021 2291 
Q 2701 2611 2144 2611 
Q 1856 2611 1587 2528 
Q 1318 2445 1088 2272 
L 621 2272 
L 621 4768 
z
" transform="scale(0.015625)"/>
      </defs>
      <use xlink:href="#AppleGothic-24"/>
      <use xlink:href="#AppleGothic-35" transform="translate(67.999985 0)"/>
      <use xlink:href="#AppleGothic-30" transform="translate(135.999969 0)"/>
      <use xlink:href="#AppleGothic-30" transform="translate(203.999954 0)"/>
     </g>
    </g>
    <g id="patch_13">
     <path d="M 375.48 184.608 
L 431.28 184.608 
L 431.28 140.256 
L 375.48 140.256 
z
" style="fill: #ffffff; stroke: #000000; stroke-linejoin: miter"/>
    </g>
    <g id="text_12">
     <!-- $100 -->
     <g transform="translate(389.78 165.492156) scale(0.1 -0.1)">
      <use xlink:href="#AppleGothic-24"/>
      <use xlink:href="#AppleGothic-31" transform="translate(67.999985 0)"/>
      <use xlink:href="#AppleGothic-30" transform="translate(135.999969 0)"/>
      <use xlink:href="#AppleGothic-30" transform="translate(203.999954 0)"/>
     </g>
    </g>
   </g>
   <g id="patch_14">
    <path d="M 51.84 184.608 
L 141.12 184.608 
L 141.12 51.552 
L 51.84 51.552 
z
" clip-path="url(#pd6980196c1)" style="fill: #f1f2f6; stroke: #808080; stroke-width: 2; stroke-linejoin: miter"/>
   </g>
   <g id="text_13">
    <!-- RECEIPT -->
    <g transform="translate(72.707813 73.728) scale(0.12 -0.12)">
     <defs>
      <path id="AppleGothic-52" d="M 314 5018 
L 1971 5018 
Q 2637 5018 3072 4800 
Q 3680 4493 3680 3776 
Q 3680 3283 3405 2969 
Q 3130 2656 2522 2470 
Q 2630 2426 2713 2384 
Q 2797 2342 2848 2291 
Q 3072 2099 3200 1728 
L 3840 0 
L 3270 0 
L 2938 1050 
Q 2675 1837 2387 2080 
Q 2138 2310 1562 2310 
L 819 2310 
L 819 0 
L 314 0 
L 314 5018 
z
M 2067 4576 
L 819 4576 
L 819 2707 
L 1587 2707 
Q 2048 2707 2365 2793 
Q 2682 2880 2880 3072 
Q 3014 3194 3100 3373 
Q 3187 3552 3187 3738 
Q 3187 4090 2899 4320 
Q 2586 4576 2067 4576 
z
" transform="scale(0.015625)"/>
      <path id="AppleGothic-45" d="M 282 5024 
L 3405 5024 
L 3405 4582 
L 787 4582 
L 787 2848 
L 3309 2848 
L 3309 2406 
L 787 2406 
L 787 442 
L 3424 442 
L 3424 0 
L 282 0 
L 282 5024 
z
" transform="scale(0.015625)"/>
      <path id="AppleGothic-49" d="M 435 5018 
L 934 5018 
L 934 0 
L 435 0 
L 435 5018 
z
" transform="scale(0.015625)"/>
     </defs>
     <use xlink:href="#AppleGothic-52"/>
     <use xlink:href="#AppleGothic-45" transform="translate(63.999985 0)"/>
     <use xlink:href="#AppleGothic-43" transform="translate(121.899979 0)"/>
     <use xlink:href="#AppleGothic-45" transform="translate(190.399963 0)"/>
     <use xlink:href="#AppleGothic-49" transform="translate(248.299957 0)"/>
     <use xlink:href="#AppleGothic-50" transform="translate(269.799942 0)"/>
     <use xlink:href="#AppleGothic-54" transform="translate(330.09993 0)"/>
    </g>
   </g>
   <g id="text_14">
    <!-- Chair: $200 -->
    <g transform="translate(67.364375 106.992) scale(0.1 -0.1)">
     <defs>
      <path id="AppleGothic-3a" d="M 1587 2554 
Q 1434 2554 1357 2682 
Q 1280 2810 1280 2995 
Q 1280 3187 1360 3318 
Q 1440 3450 1587 3450 
Q 1722 3450 1805 3331 
Q 1888 3213 1888 3008 
Q 1888 2816 1811 2685 
Q 1734 2554 1587 2554 
z
M 1587 -19 
Q 1434 -19 1357 109 
Q 1280 237 1280 422 
Q 1280 614 1360 745 
Q 1440 877 1587 877 
Q 1722 877 1805 758 
Q 1888 640 1888 435 
Q 1888 243 1811 112 
Q 1734 -19 1587 -19 
z
" transform="scale(0.015625)"/>
     </defs>
     <use xlink:href="#AppleGothic-43"/>
     <use xlink:href="#AppleGothic-68" transform="translate(68.499985 0)"/>
     <use xlink:href="#AppleGothic-61" transform="translate(120.699982 0)"/>
     <use xlink:href="#AppleGothic-69" transform="translate(177.199966 0)"/>
     <use xlink:href="#AppleGothic-72" transform="translate(193.09996 0)"/>
     <use xlink:href="#AppleGothic-3a" transform="translate(228.299957 0)"/>
     <use xlink:href="#AppleGothic-20" transform="translate(278.299942 0)"/>
     <use xlink:href="#AppleGothic-24" transform="translate(310.299927 0)"/>
     <use xlink:href="#AppleGothic-32" transform="translate(378.299911 0)"/>
     <use xlink:href="#AppleGothic-30" transform="translate(446.299896 0)"/>
     <use xlink:href="#AppleGothic-30" transform="translate(514.299881 0)"/>
    </g>
   </g>
   <g id="text_15">
    <!-- Phone: $500 -->
    <g transform="translate(64.699531 129.168) scale(0.1 -0.1)">
     <use xlink:href="#AppleGothic-50"/>
     <use xlink:href="#AppleGothic-68" transform="translate(60.299988 0)"/>
     <use xlink:href="#AppleGothic-6f" transform="translate(112.499985 0)"/>
     <use xlink:href="#AppleGothic-6e" transform="translate(170.799973 0)"/>
     <use xlink:href="#AppleGothic-65" transform="translate(226.699966 0)"/>
     <use xlink:href="#AppleGothic-3a" transform="translate(281.59996 0)"/>
     <use xlink:href="#AppleGothic-20" transform="translate(331.599945 0)"/>
     <use xlink:href="#AppleGothic-24" transform="translate(363.59993 0)"/>
     <use xlink:href="#AppleGothic-35" transform="translate(431.599915 0)"/>
     <use xlink:href="#AppleGothic-30" transform="translate(499.599899 0)"/>
     <use xlink:href="#AppleGothic-30" transform="translate(567.599884 0)"/>
    </g>
   </g>
   <g id="patch_15">
    <path d="M 150.048 116.58 
Q 161.90332 116.58 173.758641 116.58 
L 173.758641 113.08 
Q 179.75932 115.58 185.76 118.08 
Q 179.75932 120.58 173.758641 123.08 
L 173.758641 119.58 
Q 161.90332 119.58 150.048 119.58 
L 150.048 116.58 
z
" style="stroke: #000000; stroke-linecap: round"/>
   </g>
   <g id="text_16">
    <!-- 데이터 변환: 수많은 영수증 내역을 표(DataFrame)로 -->
    <g transform="translate(61.013125 23.376) scale(0.14 -0.14)">
     <defs>
      <path id="AppleGothic-b370" d="M 5702 5082 
Q 5702 5056 5667 4969 
Q 5632 4883 5632 4845 
L 5619 2323 
L 5619 1030 
L 5619 38 
Q 5626 -493 5632 -493 
L 5152 -518 
L 5184 3693 
Q 5184 4186 5184 4554 
Q 5184 4922 5171 5190 
L 5210 5190 
Q 5376 5190 5530 5171 
Q 5702 5152 5702 5082 
z
M 4435 4934 
Q 4435 4915 4400 4832 
Q 4365 4749 4365 4691 
L 4346 2880 
L 4358 -122 
L 3891 -141 
L 3923 1414 
L 3923 2560 
L 2438 2560 
L 2438 2982 
L 3155 2970 
L 3923 2976 
L 3923 4614 
L 3904 5056 
Q 4000 5056 4096 5053 
Q 4192 5050 4265 5034 
Q 4339 5018 4387 4995 
Q 4435 4973 4435 4934 
z
M 3251 1216 
L 3213 1222 
Q 3200 1222 3101 1209 
Q 3002 1197 2816 1171 
Q 2688 1152 2544 1133 
Q 2400 1114 2234 1088 
Q 2067 1069 1824 1049 
Q 1581 1030 1235 1005 
Q 1126 998 985 992 
Q 845 986 659 973 
L 678 2682 
L 678 4403 
L 1722 4390 
L 2867 4403 
L 2867 3981 
L 1165 3981 
Q 1158 3840 1155 3728 
Q 1152 3616 1152 3539 
Q 1133 2886 1133 2733 
L 1152 1440 
Q 1344 1459 1581 1472 
Q 1818 1485 2061 1485 
Q 2323 1485 2508 1494 
Q 2694 1504 2810 1517 
Q 3040 1542 3232 1626 
L 3251 1216 
z
" transform="scale(0.015625)"/>
      <path id="AppleGothic-c774" d="M 3226 2534 
Q 3226 3309 2899 3725 
Q 2611 4090 2157 4090 
Q 1683 4090 1414 3690 
Q 1146 3290 1146 2534 
Q 1146 1811 1440 1382 
Q 1741 954 2240 954 
Q 2758 954 3021 1446 
Q 3226 1856 3226 2534 
z
M 5446 5082 
Q 5446 5062 5427 4982 
Q 5408 4902 5408 4832 
L 5434 -538 
L 4941 -589 
L 4960 2259 
Q 4960 3552 4941 4070 
Q 4934 4326 4931 4604 
Q 4928 4883 4915 5190 
L 5094 5197 
Q 5242 5197 5344 5174 
Q 5446 5152 5446 5082 
z
M 3686 2547 
Q 3686 2125 3612 1785 
Q 3539 1446 3379 1203 
Q 2995 582 2176 582 
Q 1408 582 1018 1203 
Q 678 1734 678 2560 
Q 678 3379 1050 3898 
Q 1453 4461 2170 4461 
Q 2912 4461 3309 3910 
Q 3686 3411 3686 2547 
z
" transform="scale(0.015625)"/>
      <path id="AppleGothic-d130" d="M 5459 5094 
Q 5459 5043 5453 5024 
Q 5421 4877 5421 4851 
L 5402 2848 
L 5402 1504 
Q 5408 1114 5408 765 
Q 5408 416 5414 102 
Q 5421 -518 5427 -518 
L 4947 -550 
L 4947 890 
L 4966 2330 
L 3750 2310 
L 3750 2720 
L 4358 2707 
L 4966 2720 
L 4947 4666 
Q 4947 4762 4937 4906 
Q 4928 5050 4915 5190 
L 5088 5197 
Q 5235 5197 5347 5174 
Q 5459 5152 5459 5094 
z
M 4134 1171 
Q 4026 1158 3939 1148 
Q 3853 1139 3782 1126 
Q 3322 1062 2995 1020 
Q 2669 979 2464 966 
Q 2061 934 1712 912 
Q 1363 890 1056 877 
Q 998 877 934 877 
Q 870 877 794 870 
L 806 2592 
L 794 4390 
L 1760 4384 
L 3571 4403 
L 3571 4006 
L 2253 4006 
L 1248 3987 
L 1248 2899 
L 2266 2886 
L 3302 2906 
L 3302 2522 
L 2246 2534 
L 1248 2522 
L 1248 1293 
Q 1446 1293 1606 1293 
Q 1766 1293 1888 1299 
Q 2016 1306 2214 1322 
Q 2413 1338 2694 1363 
Q 2976 1389 3232 1417 
Q 3488 1446 3731 1478 
Q 3821 1491 3917 1504 
Q 4013 1517 4134 1542 
L 4134 1171 
z
" transform="scale(0.015625)"/>
      <path id="AppleGothic-bcc0" d="M 3059 1939 
L 3059 3123 
L 2163 3136 
L 1248 3123 
L 1248 1939 
L 2118 1926 
L 3059 1939 
z
M 5446 -538 
L 3373 -518 
Q 2912 -518 2400 -524 
Q 1888 -531 1466 -544 
L 1478 371 
Q 1478 595 1478 732 
Q 1478 870 1472 934 
Q 1472 998 1469 1052 
Q 1466 1107 1466 1158 
L 1626 1158 
Q 1811 1158 1904 1139 
Q 1997 1120 1997 1050 
Q 1997 1030 1974 956 
Q 1952 883 1952 851 
L 1939 352 
L 1939 -128 
L 3334 -134 
Q 3917 -134 4461 -128 
Q 5005 -122 5446 -109 
L 5446 -538 
z
M 5440 5043 
Q 5440 5018 5421 4944 
Q 5402 4870 5402 4832 
L 5389 2714 
L 5389 1472 
Q 5395 1254 5398 1036 
Q 5402 819 5408 602 
L 4902 602 
L 4922 1466 
L 4922 2195 
L 3885 2176 
L 3885 2586 
L 4922 2566 
L 4922 3539 
L 3872 3526 
L 3872 3917 
L 4922 3904 
L 4928 4602 
L 4915 5184 
Q 5120 5184 5280 5161 
Q 5440 5139 5440 5043 
z
M 3546 4576 
L 3526 4410 
L 3507 2950 
L 3520 1562 
L 787 1562 
Q 794 1696 794 1885 
Q 794 2074 800 2317 
Q 806 2560 806 2723 
Q 806 2886 806 2976 
Q 806 3578 800 3990 
Q 794 4403 787 4723 
Q 966 4723 1139 4704 
Q 1312 4685 1312 4614 
Q 1312 4582 1286 4505 
Q 1261 4429 1261 4403 
L 1248 3501 
L 1850 3488 
L 3059 3501 
L 3066 4147 
L 3046 4698 
L 3136 4698 
Q 3302 4698 3424 4672 
Q 3546 4646 3546 4576 
z
" transform="scale(0.015625)"/>
      <path id="AppleGothic-d658" d="M 3379 3123 
Q 3379 3309 3193 3408 
Q 3008 3507 2528 3507 
L 2362 3507 
Q 2022 3507 1856 3443 
Q 1619 3354 1619 3123 
Q 1619 2938 1862 2842 
Q 2106 2746 2554 2746 
Q 2694 2746 2816 2762 
Q 2938 2778 3053 2810 
Q 3379 2912 3379 3123 
z
M 5331 -275 
L 4992 -275 
Q 3725 -256 3494 -256 
Q 2816 -256 2272 -262 
Q 1728 -269 1306 -282 
L 1325 538 
L 1312 1274 
L 1414 1274 
Q 1581 1274 1699 1254 
Q 1818 1235 1818 1165 
Q 1818 1139 1792 1062 
Q 1766 986 1766 947 
L 1766 134 
L 5331 134 
L 5331 -275 
z
M 4397 1754 
Q 4243 1734 4112 1715 
Q 3981 1696 3872 1683 
Q 3526 1638 3187 1619 
Q 2848 1600 2502 1600 
Q 2291 1600 2032 1590 
Q 1773 1581 1459 1555 
Q 1306 1542 1158 1529 
Q 1011 1517 864 1504 
Q 819 1504 736 1481 
Q 653 1459 634 1459 
Q 570 1459 534 1574 
Q 499 1690 499 1894 
L 1069 1882 
L 1338 1882 
L 2323 1926 
L 2310 2438 
Q 2093 2451 1910 2502 
Q 1728 2554 1574 2630 
Q 1235 2816 1235 3123 
Q 1235 3533 1734 3699 
Q 2067 3814 2522 3814 
Q 2963 3814 3283 3699 
Q 3763 3526 3763 3123 
Q 3763 2746 3277 2566 
Q 3014 2515 2883 2489 
Q 2752 2464 2739 2458 
L 2733 1946 
Q 2918 1958 3129 1964 
Q 3341 1971 3565 1997 
L 4365 2080 
L 4397 1754 
z
M 6035 2438 
L 5510 2458 
L 5120 2438 
L 5126 1024 
L 4666 998 
Q 4678 1146 4681 1290 
Q 4685 1434 4691 1574 
Q 4698 1722 4701 1917 
Q 4704 2112 4704 2362 
Q 4704 2662 4704 2963 
Q 4704 3264 4698 3590 
Q 4691 3917 4691 4192 
Q 4691 4467 4685 4704 
Q 4685 5190 4678 5190 
L 4800 5190 
Q 4966 5190 5075 5174 
Q 5184 5158 5184 5101 
Q 5184 5075 5155 4998 
Q 5126 4922 5126 4877 
L 5114 4006 
L 5120 2797 
L 5523 2790 
L 6035 2803 
L 6035 2438 
z
M 4256 4038 
Q 3891 4051 3430 4064 
Q 2970 4077 2464 4077 
L 2330 4077 
Q 1926 4077 1529 4064 
Q 1133 4051 813 4038 
L 813 4429 
Q 1114 4416 1491 4406 
Q 1869 4397 2285 4397 
L 2432 4397 
Q 2938 4397 3408 4406 
Q 3878 4416 4256 4429 
L 4256 4038 
z
M 3238 4742 
L 1824 4742 
L 1824 5107 
L 2528 5094 
L 3238 5107 
L 3238 4742 
z
" transform="scale(0.015625)"/>
      <path id="AppleGothic-c218" d="M 6022 1952 
L 3411 1952 
L 3424 896 
L 3462 -582 
L 2982 -582 
L 2982 1952 
Q 2912 1952 2774 1949 
Q 2637 1946 2419 1939 
Q 2208 1933 2086 1933 
Q 1965 1933 1933 1933 
L 378 1894 
L 378 2304 
L 3206 2298 
Q 3706 2298 4202 2307 
Q 4698 2317 5184 2330 
Q 5536 2342 6022 2368 
L 6022 1952 
z
M 5792 3482 
Q 5792 3450 5747 3402 
Q 5702 3354 5658 3315 
L 5523 3117 
Q 5453 3123 5395 3126 
Q 5338 3130 5286 3142 
Q 4685 3251 4090 3610 
Q 3699 3846 3411 4250 
Q 3360 4320 3312 4409 
Q 3264 4499 3206 4621 
Q 3149 4512 3097 4422 
Q 3046 4333 2995 4262 
Q 2688 3846 2208 3552 
Q 2054 3450 1875 3370 
Q 1696 3290 1498 3219 
Q 1382 3181 1232 3142 
Q 1082 3104 896 3072 
Q 896 3072 873 3101 
Q 851 3130 828 3162 
Q 806 3194 780 3226 
Q 755 3258 749 3270 
Q 736 3290 678 3347 
Q 621 3405 621 3424 
L 640 3443 
Q 730 3450 810 3453 
Q 890 3456 954 3469 
Q 1338 3526 1674 3676 
Q 2010 3827 2298 4077 
Q 2605 4326 2790 4659 
Q 2842 4755 2886 4880 
Q 2931 5005 2970 5171 
L 3411 5133 
Q 3475 5133 3475 5075 
Q 3475 5056 3472 5037 
Q 3469 5018 3462 4992 
Q 3462 4973 3443 4947 
Q 3482 4832 3520 4755 
Q 3738 4301 4230 3974 
Q 4659 3686 5261 3571 
Q 5363 3552 5488 3536 
Q 5613 3520 5766 3507 
Q 5786 3507 5792 3482 
z
" transform="scale(0.015625)"/>
      <path id="AppleGothic-b9ce" d="M 5011 410 
Q 5011 512 4950 582 
Q 4890 653 4784 694 
Q 4678 736 4531 752 
Q 4384 768 4218 768 
Q 3846 768 3674 717 
Q 3418 640 3418 397 
Q 3418 173 3706 38 
Q 3942 -77 4218 -77 
Q 4461 -77 4704 38 
Q 5011 179 5011 410 
z
M 2918 3046 
L 2918 4538 
L 1114 4538 
L 1114 3040 
Q 1203 3034 1328 3034 
Q 1453 3034 1606 3027 
Q 1766 3021 1865 3021 
Q 1965 3021 2003 3021 
Q 2214 3021 2460 3027 
Q 2707 3034 2918 3046 
z
M 5318 429 
Q 5318 32 4966 -160 
Q 4672 -326 4218 -326 
Q 3968 -326 3760 -275 
Q 3552 -224 3405 -128 
Q 3258 -32 3174 99 
Q 3091 230 3091 390 
Q 3091 1082 4211 1082 
Q 4678 1082 4960 947 
Q 5318 787 5318 429 
z
M 2989 -70 
Q 2765 -115 2502 -156 
Q 2240 -198 1933 -243 
Q 1318 -339 1024 -339 
L 1043 1254 
L 1024 2054 
L 1197 2061 
Q 1312 2061 1417 2045 
Q 1523 2029 1523 1958 
Q 1523 1939 1504 1856 
Q 1485 1773 1485 1702 
L 1466 134 
Q 1600 134 1741 140 
Q 1882 147 2029 160 
Q 2182 173 2400 211 
Q 2618 250 2906 301 
L 2989 -70 
z
M 5466 1261 
Q 5158 1274 4809 1280 
Q 4461 1286 4179 1286 
Q 3885 1286 3536 1273 
Q 3187 1261 2880 1248 
L 2880 1613 
L 2918 1613 
Q 3123 1613 3372 1606 
Q 3622 1600 3853 1594 
L 5466 1632 
L 5466 1261 
z
M 4890 1818 
L 4019 1830 
L 3482 1811 
L 3482 2170 
L 3994 2157 
L 4890 2170 
L 4890 1818 
z
M 3373 2611 
L 2138 2618 
L 666 2605 
Q 666 2752 669 2934 
Q 672 3117 678 3328 
Q 685 3539 688 3680 
Q 691 3821 691 3891 
L 666 4941 
Q 736 4941 883 4937 
Q 1030 4934 1274 4934 
Q 1517 4928 1664 4928 
Q 1811 4928 1862 4928 
L 3373 4941 
L 3354 3731 
L 3354 2931 
Q 3360 2842 3363 2762 
Q 3366 2682 3373 2611 
z
M 6042 3258 
L 5146 3264 
L 5158 2477 
L 4666 2464 
Q 4672 2547 4681 2659 
Q 4691 2771 4697 2924 
Q 4704 3078 4707 3283 
Q 4710 3488 4710 3763 
L 4710 3910 
Q 4710 4486 4691 4749 
Q 4685 4883 4678 4992 
Q 4672 5101 4659 5190 
L 4858 5197 
Q 5005 5197 5101 5171 
Q 5197 5146 5197 5075 
Q 5197 5050 5177 4957 
Q 5158 4864 5158 4794 
L 5146 3654 
L 6042 3667 
L 6042 3258 
z
" transform="scale(0.015625)"/>
      <path id="AppleGothic-c740" d="M 4858 3846 
Q 4858 4026 4739 4154 
Q 4621 4282 4400 4365 
Q 4179 4448 3872 4486 
Q 3565 4525 3181 4525 
Q 2426 4525 1997 4355 
Q 1568 4186 1568 3846 
Q 1568 3488 2112 3315 
Q 2560 3162 3251 3162 
Q 3942 3162 4384 3328 
Q 4858 3501 4858 3846 
z
M 5318 -282 
L 3379 -269 
L 1274 -282 
L 1274 1434 
L 1376 1434 
Q 1600 1434 1712 1421 
Q 1824 1408 1824 1357 
Q 1824 1350 1786 1235 
Q 1754 1126 1754 1075 
L 1754 141 
L 3475 134 
L 4621 134 
Q 4806 141 4979 144 
Q 5152 147 5318 154 
L 5318 -282 
z
M 5946 1837 
L 3238 1850 
L 461 1837 
L 461 2278 
Q 595 2272 854 2269 
Q 1114 2266 1510 2266 
Q 1907 2259 2332 2259 
Q 2758 2259 3226 2259 
L 3808 2259 
Q 5843 2278 5946 2278 
L 5946 1837 
z
M 5306 3846 
Q 5306 3322 4717 3034 
Q 4448 2899 4089 2835 
Q 3731 2771 3283 2771 
Q 2854 2771 2496 2825 
Q 2138 2880 1843 3002 
Q 1126 3290 1126 3846 
Q 1126 4416 1798 4685 
Q 2355 4915 3245 4915 
Q 4122 4915 4672 4666 
Q 5306 4365 5306 3846 
z
" transform="scale(0.015625)"/>
      <path id="AppleGothic-c601" d="M 4915 608 
Q 4915 883 4614 1050 
Q 4262 1229 3443 1229 
Q 3098 1229 2816 1187 
Q 2534 1146 2336 1066 
Q 2138 986 2029 870 
Q 1920 755 1920 614 
Q 1920 250 2349 96 
Q 2714 -38 3450 -38 
Q 4186 -38 4550 112 
Q 4915 262 4915 608 
z
M 3213 3411 
Q 3213 3782 2950 4032 
Q 2662 4301 2189 4301 
Q 1696 4301 1408 4013 
Q 1139 3763 1139 3373 
Q 1139 3014 1395 2778 
Q 1670 2509 2189 2509 
Q 2675 2509 2944 2761 
Q 3213 3014 3213 3411 
z
M 5370 608 
Q 5370 122 4861 -144 
Q 4352 -410 3430 -410 
Q 2970 -410 2621 -349 
Q 2272 -288 2016 -160 
Q 1478 115 1478 608 
Q 1478 1094 2074 1350 
Q 2611 1581 3443 1581 
Q 4166 1581 4666 1408 
Q 5370 1146 5370 608 
z
M 3616 3411 
Q 3616 2925 3258 2547 
Q 2861 2131 2189 2131 
Q 1517 2131 1107 2522 
Q 749 2867 749 3373 
Q 749 3891 1114 4256 
Q 1523 4666 2189 4666 
Q 2803 4666 3213 4307 
Q 3616 3962 3616 3411 
z
M 5414 5082 
Q 5414 5043 5385 4947 
Q 5357 4851 5357 4813 
L 5376 1715 
L 4928 1683 
L 4941 2451 
L 3853 2438 
L 3853 2784 
L 4941 2778 
L 4941 3629 
L 4397 3648 
Q 4218 3648 3968 3629 
Q 3942 3629 3913 3625 
Q 3885 3622 3853 3616 
L 3853 3994 
Q 3898 3987 3968 3987 
Q 4038 3987 4128 3981 
Q 4218 3974 4285 3974 
Q 4352 3974 4403 3974 
Q 4634 3974 4752 3980 
Q 4870 3987 4941 4000 
L 4941 4787 
Q 4941 5094 4915 5190 
L 5069 5190 
Q 5235 5190 5324 5171 
Q 5414 5152 5414 5082 
z
" transform="scale(0.015625)"/>
      <path id="AppleGothic-c99d" d="M 3258 1005 
Q 2912 1005 2640 979 
Q 2368 954 2163 902 
Q 1632 762 1632 454 
Q 1632 -134 3200 -134 
L 3494 -134 
Q 4070 -134 4378 -51 
Q 4877 83 4877 416 
Q 4877 755 4397 902 
Q 4211 954 3926 979 
Q 3642 1005 3258 1005 
z
M 5370 416 
Q 5370 0 4947 -218 
Q 4442 -493 3251 -493 
Q 2336 -493 1818 -320 
Q 1152 -90 1152 422 
Q 1152 922 1779 1171 
Q 2048 1267 2390 1318 
Q 2733 1370 3168 1370 
Q 3994 1370 4493 1242 
Q 5370 1018 5370 416 
z
M 6042 1971 
L 3219 1984 
Q 2982 1984 2748 1984 
Q 2515 1984 2278 1978 
Q 2054 1971 1699 1964 
Q 1344 1958 864 1946 
Q 736 1939 614 1939 
Q 493 1939 371 1933 
L 371 2342 
Q 538 2336 672 2336 
Q 806 2336 915 2336 
Q 1670 2323 2192 2316 
Q 2714 2310 3021 2310 
L 3219 2310 
Q 3539 2310 3811 2310 
Q 4083 2310 4307 2317 
Q 4531 2323 4774 2329 
Q 5018 2336 5274 2342 
Q 5542 2355 5731 2361 
Q 5920 2368 6042 2374 
L 6042 1971 
z
M 5632 3213 
Q 5632 3194 5587 3155 
Q 5453 3040 5440 3014 
Q 5402 2944 5354 2893 
Q 5306 2842 5299 2835 
Q 5203 2848 5123 2867 
Q 5043 2886 4973 2899 
Q 4205 3091 3738 3443 
Q 3450 3674 3283 3885 
Q 3270 3904 3251 3929 
Q 3232 3955 3213 3987 
Q 3187 3949 3168 3917 
Q 3149 3885 3130 3866 
Q 2906 3558 2413 3264 
Q 2106 3072 1555 2931 
Q 1382 2880 1094 2835 
Q 1082 2848 1069 2857 
Q 1056 2867 1043 2880 
Q 1011 2912 988 2937 
Q 966 2963 941 2995 
Q 922 3021 886 3053 
Q 851 3085 816 3113 
Q 781 3142 755 3161 
Q 730 3181 730 3194 
L 762 3213 
Q 851 3219 921 3225 
Q 992 3232 1050 3238 
Q 1722 3334 2150 3578 
Q 2752 3910 2918 4365 
Q 2963 4544 2963 4563 
L 2080 4576 
Q 1830 4576 1561 4563 
Q 1293 4550 1062 4538 
L 1062 4966 
Q 1478 4954 2016 4947 
Q 2554 4941 3232 4941 
Q 3616 4941 3923 4941 
Q 4230 4941 4474 4947 
Q 4717 4954 4941 4957 
Q 5165 4960 5370 4973 
L 5370 4563 
L 4410 4570 
Q 4058 4570 3834 4563 
Q 3610 4557 3405 4538 
Q 3430 4461 3456 4403 
Q 3482 4346 3507 4294 
Q 3661 4013 3942 3802 
Q 4173 3629 4451 3504 
Q 4730 3379 5056 3309 
Q 5280 3258 5613 3232 
L 5632 3213 
z
" transform="scale(0.015625)"/>
      <path id="AppleGothic-b0b4" d="M 5683 5107 
Q 5683 5094 5651 4995 
Q 5619 4896 5619 4800 
L 5651 -538 
L 5210 -570 
L 5216 2138 
L 4186 2138 
L 4192 -282 
L 3776 -307 
L 3770 4499 
Q 3770 4627 3763 4729 
Q 3757 4832 3744 4915 
L 3885 4915 
Q 4051 4915 4147 4896 
Q 4243 4877 4243 4826 
Q 4243 4806 4217 4723 
Q 4192 4640 4192 4570 
L 4186 2502 
L 5222 2515 
Q 5222 2957 5203 3853 
Q 5190 4294 5184 4630 
Q 5178 4966 5178 5190 
L 5331 5190 
Q 5478 5190 5580 5174 
Q 5683 5158 5683 5107 
z
M 3501 1382 
Q 2893 1248 2192 1177 
Q 1491 1107 826 1107 
L 794 4250 
L 838 4250 
Q 1050 4250 1174 4237 
Q 1299 4224 1299 4173 
Q 1299 4160 1286 4109 
Q 1242 3974 1242 3866 
L 1235 3501 
L 1267 1485 
Q 1824 1485 2342 1545 
Q 2861 1606 3437 1734 
L 3501 1382 
z
" transform="scale(0.015625)"/>
      <path id="AppleGothic-c5ed" d="M 3098 3430 
Q 3098 3859 2810 4128 
Q 2515 4403 2099 4403 
Q 1651 4403 1357 4134 
Q 1062 3859 1062 3430 
Q 1062 3130 1280 2874 
Q 1568 2554 2099 2554 
Q 2547 2554 2822 2797 
Q 3098 3040 3098 3430 
z
M 5395 -461 
L 4928 -486 
L 4941 192 
L 4941 1197 
Q 4557 1197 4233 1193 
Q 3910 1190 3642 1184 
Q 3373 1178 3053 1174 
Q 2733 1171 2349 1165 
Q 1965 1158 1702 1158 
Q 1440 1158 1286 1158 
L 1286 1530 
L 2554 1517 
Q 2803 1517 3206 1520 
Q 3610 1523 4173 1530 
Q 4749 1536 5046 1539 
Q 5344 1542 5382 1542 
L 5376 275 
L 5376 -218 
Q 5389 -371 5395 -461 
z
M 3514 3424 
Q 3514 2848 3053 2496 
Q 2643 2182 2106 2182 
Q 1485 2182 1075 2515 
Q 646 2861 646 3424 
Q 646 3962 1005 4326 
Q 1414 4749 2099 4749 
Q 2707 4749 3110 4384 
Q 3514 4006 3514 3424 
z
M 5421 5082 
Q 5421 5056 5401 4989 
Q 5382 4922 5382 4877 
L 5370 3002 
Q 5370 2547 5373 2313 
Q 5376 2080 5382 1939 
L 4922 1907 
L 4934 2611 
L 4371 2618 
L 3744 2605 
L 3744 2950 
L 4397 2950 
L 4774 2950 
Q 4819 2957 4860 2960 
Q 4902 2963 4934 2970 
L 4934 3744 
Q 4806 3757 4662 3763 
Q 4518 3770 4384 3770 
Q 4160 3770 4009 3763 
Q 3859 3757 3770 3744 
L 3770 4128 
Q 3827 4122 3907 4122 
Q 3987 4122 4096 4115 
Q 4205 4109 4275 4109 
Q 4346 4109 4390 4109 
Q 4646 4109 4752 4115 
Q 4858 4122 4934 4134 
L 4934 4800 
Q 4934 4909 4928 5011 
Q 4922 5114 4909 5190 
L 4934 5190 
Q 5133 5190 5277 5171 
Q 5421 5152 5421 5082 
z
" transform="scale(0.015625)"/>
      <path id="AppleGothic-c744" d="M 4794 4013 
Q 4794 4365 4365 4525 
Q 3942 4685 3232 4685 
Q 2400 4685 1997 4521 
Q 1594 4358 1594 4058 
Q 1594 3642 2189 3462 
Q 2579 3341 3226 3341 
Q 3936 3341 4339 3488 
Q 4794 3661 4794 4013 
z
M 5222 -467 
L 3238 -448 
L 1280 -454 
L 1293 109 
L 1280 800 
L 2938 787 
L 4621 800 
L 4621 1382 
L 1286 1357 
L 1286 1715 
Q 1421 1709 1849 1699 
Q 2278 1690 3040 1690 
Q 3411 1690 3715 1693 
Q 4019 1696 4265 1699 
Q 4512 1702 4713 1705 
Q 4915 1709 5094 1709 
L 5094 474 
L 3635 480 
L 1754 461 
L 1754 -128 
L 3187 -128 
Q 3629 -128 3955 -125 
Q 4282 -122 4493 -115 
Q 4710 -109 4892 -102 
Q 5075 -96 5222 -83 
L 5222 -467 
z
M 5990 2144 
Q 5811 2150 5667 2150 
Q 5523 2150 5414 2150 
Q 4621 2163 4093 2169 
Q 3565 2176 3290 2176 
Q 2746 2176 2323 2176 
Q 1901 2176 1581 2170 
Q 1261 2163 973 2160 
Q 685 2157 416 2144 
L 416 2534 
Q 467 2534 598 2534 
Q 730 2534 934 2528 
Q 1331 2522 2042 2509 
Q 2400 2502 2701 2502 
Q 3002 2502 3251 2502 
Q 3616 2502 3901 2502 
Q 4186 2502 4397 2509 
Q 4602 2515 4826 2515 
Q 5050 2515 5280 2522 
Q 5517 2528 5693 2531 
Q 5869 2534 5990 2534 
L 5990 2144 
z
M 5261 3994 
Q 5261 3469 4723 3219 
Q 4211 2982 3264 2982 
Q 2822 2982 2470 3033 
Q 2118 3085 1850 3181 
Q 1152 3437 1152 4013 
Q 1152 4582 1798 4845 
Q 2054 4941 2403 4992 
Q 2752 5043 3213 5043 
Q 4109 5043 4659 4794 
Q 5261 4518 5261 3994 
z
" transform="scale(0.015625)"/>
      <path id="AppleGothic-d45c" d="M 6029 6 
Q 5984 6 5849 9 
Q 5715 13 5491 19 
Q 5267 26 5027 32 
Q 4787 38 4505 41 
Q 4224 45 3897 48 
Q 3571 51 3181 51 
Q 2886 51 2540 44 
Q 2195 38 1792 26 
Q 1389 13 1142 9 
Q 896 6 787 0 
Q 685 -6 579 -12 
Q 474 -19 365 -26 
L 365 442 
L 1338 422 
L 2189 422 
L 2080 1050 
L 1914 1830 
L 2336 1843 
Q 2451 1843 2451 1754 
L 2445 1542 
L 2630 422 
L 3130 410 
L 3699 422 
Q 3718 518 3750 652 
Q 3782 787 3827 973 
Q 3974 1600 3974 1907 
Q 4083 1907 4282 1862 
Q 4493 1824 4493 1760 
Q 4493 1741 4451 1670 
Q 4410 1600 4397 1542 
Q 4333 1261 4272 982 
Q 4211 704 4147 422 
L 6029 442 
L 6029 6 
z
M 5376 2086 
Q 5299 2093 5235 2093 
Q 5171 2093 5107 2093 
Q 4243 2112 3526 2112 
L 3219 2112 
Q 2758 2112 2409 2109 
Q 2061 2106 1805 2099 
Q 1312 2093 966 2080 
L 966 2502 
L 1645 2483 
L 2227 2483 
Q 2214 2554 2208 2605 
Q 2202 2656 2195 2701 
Q 2176 2829 2157 2931 
Q 2138 3034 2118 3104 
Q 2067 3309 2038 3437 
Q 2010 3565 1997 3616 
Q 1984 3674 1968 3731 
Q 1952 3789 1933 3853 
L 2362 3872 
Q 2483 3872 2483 3814 
L 2483 3603 
Q 2509 3558 2573 3072 
Q 2618 2829 2646 2681 
Q 2675 2534 2688 2483 
L 3168 2470 
L 3757 2483 
Q 3782 2579 3811 2713 
Q 3840 2848 3878 3014 
Q 4026 3603 4026 3917 
Q 4141 3917 4346 3878 
Q 4538 3846 4538 3782 
Q 4538 3738 4531 3725 
Q 4518 3693 4505 3664 
Q 4493 3635 4480 3603 
Q 4429 3437 4387 3270 
Q 4346 3104 4301 2938 
Q 4211 2598 4211 2496 
L 4704 2496 
L 5190 2496 
Q 5242 2502 5286 2505 
Q 5331 2509 5376 2515 
L 5376 2086 
z
M 5446 4154 
Q 4947 4166 4348 4172 
Q 3750 4179 3200 4179 
Q 2995 4179 2742 4176 
Q 2490 4173 2182 4166 
Q 1875 4160 1593 4153 
Q 1312 4147 1043 4141 
L 1043 4570 
Q 1165 4563 1267 4563 
Q 1370 4563 1459 4563 
Q 2048 4550 2480 4544 
Q 2912 4538 3200 4538 
Q 3770 4538 4250 4547 
Q 4730 4557 5120 4570 
Q 5254 4570 5446 4589 
L 5446 4154 
z
" transform="scale(0.015625)"/>
      <path id="AppleGothic-28" d="M 2227 5261 
L 2650 5261 
Q 2342 4768 2169 4473 
Q 1997 4179 1958 4083 
Q 1606 3283 1606 2272 
Q 1606 1587 1754 1018 
Q 1882 570 2138 102 
Q 2150 70 2275 -131 
Q 2400 -333 2630 -717 
L 2227 -717 
Q 2099 -531 1980 -355 
Q 1862 -179 1734 0 
Q 1581 243 1469 483 
Q 1357 723 1274 954 
Q 1069 1587 1069 2272 
Q 1069 2963 1261 3558 
Q 1338 3789 1450 4022 
Q 1562 4256 1715 4499 
Q 1843 4691 1971 4880 
Q 2099 5069 2227 5261 
z
" transform="scale(0.015625)"/>
      <path id="AppleGothic-6d" d="M 5389 2195 
L 5389 0 
L 4922 0 
L 4922 2304 
Q 4922 2669 4672 2893 
Q 4461 3085 4173 3085 
Q 3744 3085 3405 2688 
Q 3072 2298 3072 1722 
L 3072 0 
L 2605 0 
L 2605 2304 
Q 2605 2650 2368 2861 
Q 2144 3085 1856 3085 
Q 1440 3085 1114 2714 
Q 755 2304 755 1702 
L 755 0 
L 288 0 
L 288 3424 
L 723 3424 
L 742 2880 
Q 928 3181 1274 3354 
Q 1581 3501 1894 3501 
Q 2381 3501 2714 3219 
Q 2957 3008 3021 2797 
Q 3149 3034 3386 3226 
Q 3757 3501 4205 3501 
Q 4749 3501 5050 3174 
Q 5389 2803 5389 2195 
z
" transform="scale(0.015625)"/>
      <path id="AppleGothic-29" d="M 2221 2272 
Q 2221 1587 2016 960 
Q 1862 499 1555 6 
Q 1427 -179 1305 -355 
Q 1184 -531 1062 -717 
L 659 -717 
Q 781 -512 902 -310 
Q 1024 -109 1152 96 
Q 1280 333 1376 557 
Q 1472 781 1530 1005 
Q 1683 1562 1683 2272 
Q 1683 2650 1641 2973 
Q 1600 3296 1517 3584 
Q 1459 3802 1356 4029 
Q 1254 4256 1120 4499 
Q 992 4691 873 4880 
Q 755 5069 640 5261 
L 1062 5261 
Q 1190 5069 1315 4880 
Q 1440 4691 1568 4506 
Q 1722 4256 1837 4022 
Q 1952 3789 2022 3565 
Q 2221 2976 2221 2272 
z
" transform="scale(0.015625)"/>
      <path id="AppleGothic-b85c" d="M 6022 45 
Q 5920 51 5827 51 
Q 5734 51 5651 51 
Q 4442 70 3238 70 
Q 2784 70 2409 70 
Q 2035 70 1728 64 
Q 1421 58 1190 58 
Q 960 58 813 51 
Q 666 51 557 51 
Q 448 51 378 45 
L 378 480 
L 1914 461 
L 2970 461 
L 2963 1542 
L 1190 1523 
L 1203 2330 
L 1190 3264 
L 3040 3251 
L 4710 3264 
L 4710 4096 
L 2816 4102 
L 1158 4090 
L 1158 4493 
L 5158 4493 
Q 5146 4326 5139 4128 
Q 5133 3930 5133 3738 
L 5152 2867 
L 1626 2848 
L 1626 1933 
L 3155 1920 
Q 3411 1920 3689 1920 
Q 3968 1920 4246 1923 
Q 4525 1926 4790 1932 
Q 5056 1939 5293 1946 
L 5293 1536 
L 3392 1542 
L 3392 467 
L 6016 474 
L 6022 45 
z
" transform="scale(0.015625)"/>
     </defs>
     <use xlink:href="#AppleGothic-b370"/>
     <use xlink:href="#AppleGothic-c774" transform="translate(99.999985 0)"/>
     <use xlink:href="#AppleGothic-d130" transform="translate(199.999969 0)"/>
     <use xlink:href="#AppleGothic-20" transform="translate(299.999954 0)"/>
     <use xlink:href="#AppleGothic-bcc0" transform="translate(331.999939 0)"/>
     <use xlink:href="#AppleGothic-d658" transform="translate(431.999924 0)"/>
     <use xlink:href="#AppleGothic-3a" transform="translate(531.999908 0)"/>
     <use xlink:href="#AppleGothic-20" transform="translate(581.999893 0)"/>
     <use xlink:href="#AppleGothic-c218" transform="translate(613.999878 0)"/>
     <use xlink:href="#AppleGothic-b9ce" transform="translate(713.999863 0)"/>
     <use xlink:href="#AppleGothic-c740" transform="translate(813.999847 0)"/>
     <use xlink:href="#AppleGothic-20" transform="translate(913.999832 0)"/>
     <use xlink:href="#AppleGothic-c601" transform="translate(945.999817 0)"/>
     <use xlink:href="#AppleGothic-c218" transform="translate(1045.999802 0)"/>
     <use xlink:href="#AppleGothic-c99d" transform="translate(1145.999786 0)"/>
     <use xlink:href="#AppleGothic-20" transform="translate(1245.999771 0)"/>
     <use xlink:href="#AppleGothic-b0b4" transform="translate(1277.999756 0)"/>
     <use xlink:href="#AppleGothic-c5ed" transform="translate(1377.999741 0)"/>
     <use xlink:href="#AppleGothic-c744" transform="translate(1477.999725 0)"/>
     <use xlink:href="#AppleGothic-20" transform="translate(1577.99971 0)"/>
     <use xlink:href="#AppleGothic-d45c" transform="translate(1609.999695 0)"/>
     <use xlink:href="#AppleGothic-28" transform="translate(1709.99968 0)"/>
     <use xlink:href="#AppleGothic-44" transform="translate(1759.999664 0)"/>
     <use xlink:href="#AppleGothic-61" transform="translate(1828.499649 0)"/>
     <use xlink:href="#AppleGothic-74" transform="translate(1884.999634 0)"/>
     <use xlink:href="#AppleGothic-61" transform="translate(1919.199631 0)"/>
     <use xlink:href="#AppleGothic-46" transform="translate(1975.699615 0)"/>
     <use xlink:href="#AppleGothic-72" transform="translate(2033.899612 0)"/>
     <use xlink:href="#AppleGothic-61" transform="translate(2069.099609 0)"/>
     <use xlink:href="#AppleGothic-6d" transform="translate(2125.599594 0)"/>
     <use xlink:href="#AppleGothic-65" transform="translate(2214.899582 0)"/>
     <use xlink:href="#AppleGothic-29" transform="translate(2269.799576 0)"/>
     <use xlink:href="#AppleGothic-b85c" transform="translate(2319.799561 0)"/>
    </g>
   </g>
  </g>
 </g>
 <defs>
  <clipPath id="pd6980196c1">
   <rect x="7.2" y="7.2" width="446.4" height="221.76"/>
  </clipPath>
 </defs>
</svg>
