<svg width="600" height="240" viewBox="0 0 600 240" xmlns="http://www.w3.org/2000/svg">
    <rect width="600" height="240" fill="#f8fafc" rx="10"/>
    <text x="300" y="30" font-family="sans-serif" font-size="20" font-weight="bold" fill="#334155" text-anchor="middle">5행 6열 (5x6) 아파트 뼈대 건설 완료</text>
    <g transform="translate(150, 60)">
        <g font-family="monospace" font-size="14" fill="#64748b" text-anchor="middle">
            <text x="-30" y="20">0층</text><text x="-30" y="50">1층</text><text x="-30" y="80">2층</text><text x="-30" y="110">3층</text><text x="-30" y="140">4층</text>
            <text x="20" y="-10">0호</text><text x="60" y="-10">1호</text><text x="100" y="-10">2호</text><text x="140" y="-10">3호</text><text x="180" y="-10">4호</text><text x="220" y="-10">5호</text>
        </g>
        <g stroke="#cbd5e1" stroke-width="1">
            <rect x="0" y="0" width="40" height="30" fill="#f1f5f9"/> <rect x="40" y="0" width="40" height="30" fill="#f1f5f9"/> <rect x="80" y="0" width="40" height="30" fill="#f1f5f9"/> <rect x="120" y="0" width="40" height="30" fill="#f1f5f9"/> <rect x="160" y="0" width="40" height="30" fill="#f1f5f9"/> <rect x="200" y="0" width="40" height="30" fill="#f1f5f9"/>
            <rect x="0" y="30" width="40" height="30" fill="#f8fafc"/> <rect x="40" y="30" width="40" height="30" fill="#f8fafc"/> <rect x="80" y="30" width="40" height="30" fill="#f8fafc"/> <rect x="120" y="30" width="40" height="30" fill="#f8fafc"/> <rect x="160" y="30" width="40" height="30" fill="#f8fafc"/> <rect x="200" y="30" width="40" height="30" fill="#f8fafc"/>
            <rect x="0" y="60" width="40" height="30" fill="#f1f5f9"/> <rect x="40" y="60" width="40" height="30" fill="#f1f5f9"/> <rect x="80" y="60" width="40" height="30" fill="#f1f5f9"/> <rect x="120" y="60" width="40" height="30" fill="#f1f5f9"/> <rect x="160" y="60" width="40" height="30" fill="#f1f5f9"/> <rect x="200" y="60" width="40" height="30" fill="#f1f5f9"/>
            <rect x="0" y="90" width="40" height="30" fill="#f8fafc"/> <rect x="40" y="90" width="40" height="30" fill="#f8fafc"/> <rect x="80" y="90" width="40" height="30" fill="#f8fafc"/> <rect x="120" y="90" width="40" height="30" fill="#f8fafc"/> <rect x="160" y="90" width="40" height="30" fill="#f8fafc"/> <rect x="200" y="90" width="40" height="30" fill="#f8fafc"/>
            <rect x="0" y="120" width="40" height="30" fill="#f1f5f9"/> <rect x="40" y="120" width="40" height="30" fill="#f1f5f9"/> <rect x="80" y="120" width="40" height="30" fill="#f1f5f9"/> <rect x="120" y="120" width="40" height="30" fill="#f1f5f9"/> <rect x="160" y="120" width="40" height="30" fill="#f1f5f9"/> <rect x="200" y="120" width="40" height="30" fill="#f1f5f9"/>
        </g>
        <g font-family="monospace" font-size="14" font-weight="bold" fill="#334155" text-anchor="middle">
            <text x="20" y="20">0</text> <text x="60" y="20">1</text> <text x="100" y="20">2</text> <text x="140" y="20">3</text> <text x="180" y="20">4</text> <text x="220" y="20">5</text>
            <text x="20" y="50">6</text> <text x="60" y="50">7</text> <text x="100" y="50">8</text> <text x="140" y="50">9</text> <text x="180" y="50">10</text><text x="220" y="50">11</text>
            <text x="20" y="80">12</text><text x="60" y="80">13</text><text x="100" y="80">14</text><text x="140" y="80">15</text><text x="180" y="80">16</text><text x="220" y="80">17</text>
            <text x="20" y="110">18</text><text x="60" y="110">19</text><text x="100" y="110">20</text><text x="140" y="110">21</text><text x="180" y="110">22</text><text x="220" y="110">23</text>
            <text x="20" y="140">24</text><text x="60" y="140">25</text><text x="100" y="140">26</text><text x="140" y="140">27</text><text x="180" y="140">28</text><text x="220" y="140">29</text>
        </g>
    </g>
</svg>
