<?xml version="1.0" encoding="utf-8" standalone="no"?>
<!DOCTYPE svg PUBLIC "-//W3C//DTD SVG 1.1//EN"
  "http://www.w3.org/Graphics/SVG/1.1/DTD/svg11.dtd">
<svg xmlns:xlink="http://www.w3.org/1999/xlink" width="724.960938pt" height="392.570625pt" viewBox="0 0 724.960938 392.570625" xmlns="http://www.w3.org/2000/svg" version="1.1">
 <metadata>
  <rdf:RDF xmlns:dc="http://purl.org/dc/elements/1.1/" xmlns:cc="http://creativecommons.org/ns#" xmlns:rdf="http://www.w3.org/1999/02/22-rdf-syntax-ns#">
   <cc:Work>
    <dc:type rdf:resource="http://purl.org/dc/dcmitype/StillImage"/>
    <dc:date>2026-05-22T02:33:53.781467</dc:date>
    <dc:format>image/svg+xml</dc:format>
    <dc:creator>
     <cc:Agent>
      <dc:title>Matplotlib v3.10.9, https://matplotlib.org/</dc:title>
     </cc:Agent>
    </dc:creator>
   </cc:Work>
  </rdf:RDF>
 </metadata>
 <defs>
  <style type="text/css">*{stroke-linejoin: round; stroke-linecap: butt}</style>
 </defs>
 <g id="figure_1">
  <g id="patch_1">
   <path d="M 0 392.570625 
L 724.960938 392.570625 
L 724.960938 0 
L 0 0 
z
" style="fill: #ffffff"/>
  </g>
  <g id="axes_1">
   <g id="patch_2">
    <path d="M 48.160938 355.24875 
L 717.760938 355.24875 
L 717.760938 22.60875 
L 48.160938 22.60875 
z
" style="fill: #ffffff"/>
   </g>
   <g id="FillBetweenPolyCollection_1">
    <defs>
     <path id="meeb42a7053" d="M 78.597301 -64.236769 
L 78.597301 -52.441875 
L 133.936144 -60.532535 
L 189.274987 -83.868265 
L 244.61383 -102.124395 
L 299.952673 -121.50497 
L 355.291516 -129.721091 
L 410.630359 -161.96925 
L 465.969202 -191.763079 
L 521.308045 -218.730902 
L 576.646888 -225.938631 
L 631.985731 -257.876274 
L 687.324574 -292.134944 
L 687.324574 -354.841875 
L 687.324574 -354.841875 
L 631.985731 -316.039952 
L 576.646888 -276.830281 
L 521.308045 -266.420162 
L 465.969202 -229.343327 
L 410.630359 -194.653385 
L 355.291516 -158.08153 
L 299.952673 -144.34356 
L 244.61383 -121.006262 
L 189.274987 -98.991009 
L 133.936144 -75.653712 
L 78.597301 -64.236769 
z
" style="stroke: #4b0082; stroke-opacity: 0.2"/>
    </defs>
    <g clip-path="url(#p0b240f07d9)">
     <use xlink:href="#meeb42a7053" x="0" y="392.570625" style="fill: #4b0082; fill-opacity: 0.2; stroke: #4b0082; stroke-opacity: 0.2"/>
    </g>
   </g>
   <g id="matplotlib.axis_1">
    <g id="xtick_1">
     <g id="line2d_1">
      <path d="M 133.936144 355.24875 
L 133.936144 22.60875 
" clip-path="url(#p0b240f07d9)" style="fill: none; stroke-dasharray: 2.96,1.28; stroke-dashoffset: 0; stroke: #b0b0b0; stroke-opacity: 0.5; stroke-width: 0.8"/>
     </g>
     <g id="line2d_2">
      <defs>
       <path id="ma31963166b" d="M 0 0 
L 0 3.5 
" style="stroke: #000000; stroke-width: 0.8"/>
      </defs>
      <g>
       <use xlink:href="#ma31963166b" x="133.936144" y="355.24875" style="stroke: #000000; stroke-width: 0.8"/>
      </g>
     </g>
     <g id="text_1">
      <!-- 1950 -->
      <g transform="translate(120.336144 370.089375) scale(0.1 -0.1)">
       <defs>
        <path id="AppleGothic-31" d="M 2342 4774 
L 2752 4774 
L 2752 0 
L 2285 0 
L 2285 3526 
L 1158 3526 
L 1158 3885 
L 1414 3885 
Q 1990 3885 2214 4205 
Q 2342 4410 2342 4774 
z
" transform="scale(0.015625)"/>
        <path id="AppleGothic-39" d="M 928 211 
L 928 762 
Q 1050 672 1155 601 
Q 1261 531 1363 480 
Q 1702 320 2016 320 
Q 2291 320 2541 435 
Q 2739 525 2908 675 
Q 3078 826 3213 1037 
Q 3456 1408 3552 1843 
Q 3616 2144 3616 2573 
Q 3315 2272 3066 2125 
Q 2605 1850 2093 1850 
Q 1459 1850 1037 2214 
Q 589 2598 589 3270 
Q 589 3987 1082 4416 
Q 1549 4832 2234 4832 
Q 2970 4832 3494 4301 
Q 4122 3661 4122 2528 
Q 4122 1325 3475 582 
Q 2874 -109 2035 -109 
Q 1722 -109 1357 19 
Q 1254 51 1148 102 
Q 1043 154 928 211 
z
M 3578 3066 
Q 3462 3718 3053 4077 
Q 2675 4403 2227 4403 
Q 1715 4403 1402 4083 
Q 1082 3750 1082 3302 
Q 1082 2861 1370 2566 
Q 1658 2278 2125 2278 
Q 2573 2278 2915 2473 
Q 3258 2669 3578 3066 
z
" transform="scale(0.015625)"/>
        <path id="AppleGothic-35" d="M 621 4768 
L 3488 4768 
L 3488 4339 
L 1088 4339 
L 1088 2707 
Q 1184 2771 1293 2819 
Q 1402 2867 1510 2912 
Q 1862 3040 2259 3040 
Q 2989 3040 3424 2605 
Q 3827 2202 3827 1581 
Q 3827 870 3296 397 
Q 2765 -83 2010 -83 
Q 1651 -83 1248 45 
Q 1158 77 1001 137 
Q 845 198 621 301 
L 621 838 
Q 928 640 1203 525 
Q 1408 435 1613 390 
Q 1818 346 2010 346 
Q 2528 346 2906 666 
Q 3322 1011 3322 1536 
Q 3322 1990 3021 2291 
Q 2701 2611 2144 2611 
Q 1856 2611 1587 2528 
Q 1318 2445 1088 2272 
L 621 2272 
L 621 4768 
z
" transform="scale(0.015625)"/>
        <path id="AppleGothic-30" d="M 2227 -83 
Q 1414 -83 934 576 
Q 461 1229 461 2387 
Q 461 3552 973 4218 
Q 1453 4858 2221 4858 
Q 3027 4858 3482 4173 
Q 3955 3494 3955 2394 
Q 3955 1248 3462 582 
Q 2976 -83 2227 -83 
z
M 2176 346 
Q 2861 346 3200 992 
Q 3462 1536 3462 2400 
Q 3462 3315 3162 3859 
Q 2822 4429 2214 4429 
Q 1574 4429 1248 3821 
Q 960 3283 960 2374 
Q 960 1478 1248 941 
Q 1574 346 2176 346 
z
" transform="scale(0.015625)"/>
       </defs>
       <use xlink:href="#AppleGothic-31"/>
       <use xlink:href="#AppleGothic-39" transform="translate(67.999985 0)"/>
       <use xlink:href="#AppleGothic-35" transform="translate(135.999969 0)"/>
       <use xlink:href="#AppleGothic-30" transform="translate(203.999954 0)"/>
      </g>
     </g>
    </g>
    <g id="xtick_2">
     <g id="line2d_3">
      <path d="M 244.61383 355.24875 
L 244.61383 22.60875 
" clip-path="url(#p0b240f07d9)" style="fill: none; stroke-dasharray: 2.96,1.28; stroke-dashoffset: 0; stroke: #b0b0b0; stroke-opacity: 0.5; stroke-width: 0.8"/>
     </g>
     <g id="line2d_4">
      <g>
       <use xlink:href="#ma31963166b" x="244.61383" y="355.24875" style="stroke: #000000; stroke-width: 0.8"/>
      </g>
     </g>
     <g id="text_2">
      <!-- 1952 -->
      <g transform="translate(231.01383 370.089375) scale(0.1 -0.1)">
       <defs>
        <path id="AppleGothic-32" d="M 1101 429 
L 3942 429 
L 3942 0 
L 653 0 
L 653 205 
Q 653 1018 1344 1664 
Q 1670 1894 1990 2124 
Q 2310 2355 2637 2592 
Q 3334 3098 3334 3597 
Q 3334 3994 3014 4218 
Q 2867 4326 2694 4377 
Q 2522 4429 2317 4429 
Q 2016 4429 1741 4352 
Q 1325 4224 883 3910 
L 883 4435 
Q 1325 4659 1667 4758 
Q 2010 4858 2317 4858 
Q 2963 4858 3405 4525 
Q 3840 4198 3840 3622 
Q 3840 2995 3168 2438 
Q 2848 2214 2531 2000 
Q 2214 1786 1894 1562 
Q 1178 1024 1101 429 
z
" transform="scale(0.015625)"/>
       </defs>
       <use xlink:href="#AppleGothic-31"/>
       <use xlink:href="#AppleGothic-39" transform="translate(67.999985 0)"/>
       <use xlink:href="#AppleGothic-35" transform="translate(135.999969 0)"/>
       <use xlink:href="#AppleGothic-32" transform="translate(203.999954 0)"/>
      </g>
     </g>
    </g>
    <g id="xtick_3">
     <g id="line2d_5">
      <path d="M 355.291516 355.24875 
L 355.291516 22.60875 
" clip-path="url(#p0b240f07d9)" style="fill: none; stroke-dasharray: 2.96,1.28; stroke-dashoffset: 0; stroke: #b0b0b0; stroke-opacity: 0.5; stroke-width: 0.8"/>
     </g>
     <g id="line2d_6">
      <g>
       <use xlink:href="#ma31963166b" x="355.291516" y="355.24875" style="stroke: #000000; stroke-width: 0.8"/>
      </g>
     </g>
     <g id="text_3">
      <!-- 1954 -->
      <g transform="translate(341.691516 370.089375) scale(0.1 -0.1)">
       <defs>
        <path id="AppleGothic-34" d="M 2662 4774 
L 3130 4774 
L 3130 1811 
L 4000 1811 
L 4000 1382 
L 3130 1382 
L 3130 0 
L 2662 0 
L 2662 1382 
L 352 1382 
L 352 1811 
L 2662 4774 
z
M 2662 1811 
L 2662 4166 
L 838 1811 
L 2662 1811 
z
" transform="scale(0.015625)"/>
       </defs>
       <use xlink:href="#AppleGothic-31"/>
       <use xlink:href="#AppleGothic-39" transform="translate(67.999985 0)"/>
       <use xlink:href="#AppleGothic-35" transform="translate(135.999969 0)"/>
       <use xlink:href="#AppleGothic-34" transform="translate(203.999954 0)"/>
      </g>
     </g>
    </g>
    <g id="xtick_4">
     <g id="line2d_7">
      <path d="M 465.969202 355.24875 
L 465.969202 22.60875 
" clip-path="url(#p0b240f07d9)" style="fill: none; stroke-dasharray: 2.96,1.28; stroke-dashoffset: 0; stroke: #b0b0b0; stroke-opacity: 0.5; stroke-width: 0.8"/>
     </g>
     <g id="line2d_8">
      <g>
       <use xlink:href="#ma31963166b" x="465.969202" y="355.24875" style="stroke: #000000; stroke-width: 0.8"/>
      </g>
     </g>
     <g id="text_4">
      <!-- 1956 -->
      <g transform="translate(452.369202 370.089375) scale(0.1 -0.1)">
       <defs>
        <path id="AppleGothic-36" d="M 3699 4557 
L 3699 4013 
Q 3584 4102 3475 4163 
Q 3366 4224 3258 4275 
Q 3085 4358 2918 4393 
Q 2752 4429 2586 4429 
Q 2470 4429 2352 4409 
Q 2234 4390 2118 4339 
Q 1670 4154 1395 3738 
Q 1011 3149 1011 2189 
Q 1312 2490 1568 2656 
Q 2022 2931 2534 2931 
Q 3162 2931 3584 2566 
Q 4038 2163 4038 1491 
Q 4038 806 3558 358 
Q 3078 -83 2394 -83 
Q 1670 -83 1146 454 
Q 518 1088 518 2253 
Q 518 3411 1120 4134 
Q 1715 4858 2605 4858 
Q 2938 4858 3226 4762 
Q 3309 4730 3427 4682 
Q 3546 4634 3699 4557 
z
M 1062 1702 
Q 1152 1152 1498 768 
Q 1882 346 2419 346 
Q 2899 346 3213 659 
Q 3539 973 3539 1459 
Q 3539 1920 3226 2214 
Q 2918 2502 2496 2502 
Q 1990 2502 1542 2176 
Q 1414 2080 1292 1965 
Q 1171 1850 1062 1702 
z
" transform="scale(0.015625)"/>
       </defs>
       <use xlink:href="#AppleGothic-31"/>
       <use xlink:href="#AppleGothic-39" transform="translate(67.999985 0)"/>
       <use xlink:href="#AppleGothic-35" transform="translate(135.999969 0)"/>
       <use xlink:href="#AppleGothic-36" transform="translate(203.999954 0)"/>
      </g>
     </g>
    </g>
    <g id="xtick_5">
     <g id="line2d_9">
      <path d="M 576.646888 355.24875 
L 576.646888 22.60875 
" clip-path="url(#p0b240f07d9)" style="fill: none; stroke-dasharray: 2.96,1.28; stroke-dashoffset: 0; stroke: #b0b0b0; stroke-opacity: 0.5; stroke-width: 0.8"/>
     </g>
     <g id="line2d_10">
      <g>
       <use xlink:href="#ma31963166b" x="576.646888" y="355.24875" style="stroke: #000000; stroke-width: 0.8"/>
      </g>
     </g>
     <g id="text_5">
      <!-- 1958 -->
      <g transform="translate(563.046888 370.089375) scale(0.1 -0.1)">
       <defs>
        <path id="AppleGothic-38" d="M 2957 2605 
Q 3219 2528 3404 2445 
Q 3590 2362 3706 2272 
Q 4192 1926 4192 1370 
Q 4192 749 3642 333 
Q 3098 -83 2285 -83 
Q 1434 -83 947 326 
Q 512 691 512 1229 
Q 512 1798 998 2125 
Q 1146 2227 1341 2304 
Q 1536 2381 1779 2451 
Q 1574 2534 1430 2617 
Q 1286 2701 1197 2784 
Q 819 3104 819 3603 
Q 819 4173 1261 4512 
Q 1702 4858 2381 4858 
Q 3014 4858 3437 4570 
Q 3898 4262 3898 3738 
Q 3898 3373 3670 3081 
Q 3443 2790 2957 2605 
z
M 2406 2752 
Q 2624 2835 2781 2915 
Q 2938 2995 3040 3066 
Q 3398 3322 3398 3667 
Q 3398 3994 3104 4205 
Q 2822 4429 2362 4429 
Q 1894 4429 1613 4205 
Q 1325 3994 1325 3635 
Q 1325 3322 1581 3098 
Q 1696 3002 1901 2912 
Q 2106 2822 2406 2752 
z
M 2368 2304 
Q 2061 2202 1840 2106 
Q 1619 2010 1472 1920 
Q 1011 1626 1011 1235 
Q 1011 845 1376 595 
Q 1728 346 2310 346 
Q 2938 346 3315 640 
Q 3693 934 3693 1338 
Q 3693 1741 3238 1997 
Q 3104 2067 2886 2147 
Q 2669 2227 2368 2304 
z
" transform="scale(0.015625)"/>
       </defs>
       <use xlink:href="#AppleGothic-31"/>
       <use xlink:href="#AppleGothic-39" transform="translate(67.999985 0)"/>
       <use xlink:href="#AppleGothic-35" transform="translate(135.999969 0)"/>
       <use xlink:href="#AppleGothic-38" transform="translate(203.999954 0)"/>
      </g>
     </g>
    </g>
    <g id="xtick_6">
     <g id="line2d_11">
      <path d="M 687.324574 355.24875 
L 687.324574 22.60875 
" clip-path="url(#p0b240f07d9)" style="fill: none; stroke-dasharray: 2.96,1.28; stroke-dashoffset: 0; stroke: #b0b0b0; stroke-opacity: 0.5; stroke-width: 0.8"/>
     </g>
     <g id="line2d_12">
      <g>
       <use xlink:href="#ma31963166b" x="687.324574" y="355.24875" style="stroke: #000000; stroke-width: 0.8"/>
      </g>
     </g>
     <g id="text_6">
      <!-- 1960 -->
      <g transform="translate(673.724574 370.089375) scale(0.1 -0.1)">
       <use xlink:href="#AppleGothic-31"/>
       <use xlink:href="#AppleGothic-39" transform="translate(67.999985 0)"/>
       <use xlink:href="#AppleGothic-36" transform="translate(135.999969 0)"/>
       <use xlink:href="#AppleGothic-30" transform="translate(203.999954 0)"/>
      </g>
     </g>
    </g>
    <g id="text_7">
     <!-- 연도 (Year) -->
     <g transform="translate(355.555469 383.650312) scale(0.1 -0.1)">
      <defs>
       <path id="AppleGothic-c5f0" d="M 3200 3149 
Q 3200 3571 2912 3872 
Q 2630 4173 2170 4173 
Q 1715 4173 1434 3930 
Q 1101 3661 1101 3149 
Q 1101 2816 1331 2547 
Q 1619 2214 2170 2214 
Q 2618 2214 2899 2477 
Q 3200 2746 3200 3149 
z
M 5485 -352 
L 3629 -339 
L 1530 -346 
Q 1536 -282 1536 -186 
Q 1536 -90 1542 38 
Q 1549 173 1549 297 
Q 1549 422 1549 538 
L 1549 1274 
Q 1600 1274 1673 1264 
Q 1747 1254 1843 1242 
Q 2035 1216 2035 1165 
Q 2035 1152 2012 1081 
Q 1990 1011 1990 941 
L 1990 45 
L 3622 38 
L 4845 38 
Q 5018 45 5178 48 
Q 5338 51 5485 58 
L 5485 -352 
z
M 5408 5075 
Q 5408 5050 5382 4970 
Q 5357 4890 5357 4838 
L 5382 896 
L 4922 864 
L 4928 2163 
L 4422 2176 
L 3834 2157 
L 3834 2528 
L 4410 2515 
Q 4659 2515 4755 2518 
Q 4851 2522 4928 2534 
L 4928 3565 
L 4403 3578 
L 3840 3558 
L 3840 3942 
Q 3891 3936 3961 3936 
Q 4032 3936 4134 3930 
Q 4230 3923 4300 3923 
Q 4371 3923 4416 3923 
Q 4646 3923 4745 3926 
Q 4845 3930 4934 3942 
L 4915 5190 
Q 5133 5190 5270 5174 
Q 5408 5158 5408 5075 
z
M 3616 3142 
Q 3616 2515 3136 2144 
Q 2720 1824 2176 1824 
Q 1530 1824 1101 2195 
Q 678 2566 678 3142 
Q 678 3680 1050 4083 
Q 1472 4531 2170 4531 
Q 2797 4531 3206 4154 
Q 3616 3782 3616 3142 
z
" transform="scale(0.015625)"/>
       <path id="AppleGothic-b3c4" d="M 6061 -38 
L 3181 -6 
L 2938 -6 
Q 2560 -6 2269 -6 
Q 1978 -6 1766 -13 
Q 1562 -19 1360 -19 
Q 1158 -19 954 -26 
Q 557 -32 352 -45 
L 352 416 
L 1549 397 
L 2963 403 
L 2982 1139 
L 2970 2035 
L 3066 2035 
Q 3238 2035 3369 2012 
Q 3501 1990 3501 1920 
Q 3501 1901 3478 1821 
Q 3456 1741 3456 1709 
Q 3424 1658 3424 1030 
Q 3424 800 3443 531 
Q 3443 506 3446 474 
Q 3450 442 3456 403 
L 4608 397 
Q 4960 397 5347 400 
Q 5734 403 6061 416 
L 6061 -38 
z
M 5299 2202 
L 3744 2208 
L 1146 2195 
L 1165 3379 
L 1152 4640 
Q 1293 4634 1408 4634 
Q 1523 4634 1619 4634 
Q 2266 4621 2701 4614 
Q 3136 4608 3360 4608 
L 5248 4621 
L 5248 4205 
L 3354 4218 
L 1632 4211 
L 1613 3424 
L 1626 2598 
Q 2029 2586 2512 2579 
Q 2995 2573 3443 2573 
Q 3648 2573 3875 2573 
Q 4102 2573 4358 2579 
Q 4858 2586 5299 2598 
L 5299 2202 
z
" transform="scale(0.015625)"/>
       <path id="AppleGothic-20" transform="scale(0.015625)"/>
       <path id="AppleGothic-28" d="M 2227 5261 
L 2650 5261 
Q 2342 4768 2169 4473 
Q 1997 4179 1958 4083 
Q 1606 3283 1606 2272 
Q 1606 1587 1754 1018 
Q 1882 570 2138 102 
Q 2150 70 2275 -131 
Q 2400 -333 2630 -717 
L 2227 -717 
Q 2099 -531 1980 -355 
Q 1862 -179 1734 0 
Q 1581 243 1469 483 
Q 1357 723 1274 954 
Q 1069 1587 1069 2272 
Q 1069 2963 1261 3558 
Q 1338 3789 1450 4022 
Q 1562 4256 1715 4499 
Q 1843 4691 1971 4880 
Q 2099 5069 2227 5261 
z
" transform="scale(0.015625)"/>
       <path id="AppleGothic-59" d="M 115 5018 
L 717 5018 
L 2253 2707 
L 3763 5018 
L 4390 5018 
L 2496 2266 
L 2496 0 
L 1997 0 
L 1997 2266 
L 115 5018 
z
" transform="scale(0.015625)"/>
       <path id="AppleGothic-65" d="M 3296 1850 
L 691 1850 
Q 691 1114 1033 726 
Q 1376 339 1933 339 
Q 2355 339 2746 608 
Q 2854 678 2976 784 
Q 3098 890 3238 1030 
L 3238 474 
Q 3085 358 2953 272 
Q 2822 186 2707 128 
Q 2304 -83 1901 -83 
Q 1203 -83 717 397 
Q 192 902 192 1709 
Q 192 2470 666 2982 
Q 1146 3501 1850 3501 
Q 2534 3501 2938 3002 
Q 3296 2547 3296 1850 
z
M 755 2240 
L 2758 2240 
Q 2682 2675 2429 2889 
Q 2176 3104 1818 3104 
Q 1421 3104 1146 2854 
Q 890 2624 755 2240 
z
" transform="scale(0.015625)"/>
       <path id="AppleGothic-61" d="M 2950 2214 
L 2950 602 
Q 2950 493 2998 413 
Q 3046 333 3174 333 
Q 3213 333 3238 336 
Q 3264 339 3290 346 
Q 3328 358 3357 371 
Q 3386 384 3405 390 
L 3405 32 
Q 3290 -6 3174 -22 
Q 3059 -38 2995 -38 
Q 2669 -38 2566 134 
Q 2483 243 2483 602 
Q 2400 461 2317 355 
Q 2234 250 2150 179 
Q 1818 -83 1376 -83 
Q 909 -83 563 192 
Q 205 486 205 941 
Q 205 1510 781 1779 
Q 992 1882 1341 1958 
Q 1690 2035 2176 2099 
L 2483 2131 
Q 2483 2579 2256 2832 
Q 2029 3085 1587 3085 
Q 1421 3085 1257 3043 
Q 1094 3002 928 2912 
Q 838 2861 729 2790 
Q 621 2720 493 2611 
L 493 3136 
Q 1037 3501 1664 3501 
Q 2304 3501 2650 3098 
Q 2950 2746 2950 2214 
z
M 2483 1542 
L 2483 1747 
L 2266 1722 
Q 1466 1638 1139 1498 
Q 704 1325 704 934 
Q 704 819 755 713 
Q 806 608 896 525 
Q 986 442 1117 390 
Q 1248 339 1408 339 
Q 1843 339 2170 691 
Q 2483 1050 2483 1542 
z
" transform="scale(0.015625)"/>
       <path id="AppleGothic-72" d="M 2125 3424 
L 2125 2963 
Q 2054 2989 2009 3005 
Q 1965 3021 1933 3027 
Q 1901 3034 1865 3037 
Q 1830 3040 1773 3040 
Q 1306 3040 1005 2586 
Q 749 2170 749 1658 
L 749 0 
L 288 0 
L 288 3424 
L 710 3424 
L 742 2835 
Q 902 3104 1043 3219 
Q 1331 3456 1734 3456 
Q 1843 3456 1936 3449 
Q 2029 3443 2125 3424 
z
" transform="scale(0.015625)"/>
       <path id="AppleGothic-29" d="M 2221 2272 
Q 2221 1587 2016 960 
Q 1862 499 1555 6 
Q 1427 -179 1305 -355 
Q 1184 -531 1062 -717 
L 659 -717 
Q 781 -512 902 -310 
Q 1024 -109 1152 96 
Q 1280 333 1376 557 
Q 1472 781 1530 1005 
Q 1683 1562 1683 2272 
Q 1683 2650 1641 2973 
Q 1600 3296 1517 3584 
Q 1459 3802 1356 4029 
Q 1254 4256 1120 4499 
Q 992 4691 873 4880 
Q 755 5069 640 5261 
L 1062 5261 
Q 1190 5069 1315 4880 
Q 1440 4691 1568 4506 
Q 1722 4256 1837 4022 
Q 1952 3789 2022 3565 
Q 2221 2976 2221 2272 
z
" transform="scale(0.015625)"/>
      </defs>
      <use xlink:href="#AppleGothic-c5f0"/>
      <use xlink:href="#AppleGothic-b3c4" transform="translate(99.999985 0)"/>
      <use xlink:href="#AppleGothic-20" transform="translate(199.999969 0)"/>
      <use xlink:href="#AppleGothic-28" transform="translate(231.999954 0)"/>
      <use xlink:href="#AppleGothic-59" transform="translate(281.999939 0)"/>
      <use xlink:href="#AppleGothic-65" transform="translate(351.499924 0)"/>
      <use xlink:href="#AppleGothic-61" transform="translate(406.399918 0)"/>
      <use xlink:href="#AppleGothic-72" transform="translate(462.899902 0)"/>
      <use xlink:href="#AppleGothic-29" transform="translate(498.099899 0)"/>
     </g>
    </g>
   </g>
   <g id="matplotlib.axis_2">
    <g id="ytick_1">
     <g id="line2d_13">
      <path d="M 48.160938 354.368563 
L 717.760938 354.368563 
" clip-path="url(#p0b240f07d9)" style="fill: none; stroke-dasharray: 2.96,1.28; stroke-dashoffset: 0; stroke: #b0b0b0; stroke-opacity: 0.5; stroke-width: 0.8"/>
     </g>
     <g id="line2d_14">
      <defs>
       <path id="ma450cb80ae" d="M 0 0 
L -3.5 0 
" style="stroke: #000000; stroke-width: 0.8"/>
      </defs>
      <g>
       <use xlink:href="#ma450cb80ae" x="48.160938" y="354.368563" style="stroke: #000000; stroke-width: 0.8"/>
      </g>
     </g>
     <g id="text_8">
      <!-- 100 -->
      <g transform="translate(20.760938 358.288876) scale(0.1 -0.1)">
       <use xlink:href="#AppleGothic-31"/>
       <use xlink:href="#AppleGothic-30" transform="translate(67.999985 0)"/>
       <use xlink:href="#AppleGothic-30" transform="translate(135.999969 0)"/>
      </g>
     </g>
    </g>
    <g id="ytick_2">
     <g id="line2d_15">
      <path d="M 48.160938 316.73029 
L 717.760938 316.73029 
" clip-path="url(#p0b240f07d9)" style="fill: none; stroke-dasharray: 2.96,1.28; stroke-dashoffset: 0; stroke: #b0b0b0; stroke-opacity: 0.5; stroke-width: 0.8"/>
     </g>
     <g id="line2d_16">
      <g>
       <use xlink:href="#ma450cb80ae" x="48.160938" y="316.73029" style="stroke: #000000; stroke-width: 0.8"/>
      </g>
     </g>
     <g id="text_9">
      <!-- 150 -->
      <g transform="translate(20.760938 320.650603) scale(0.1 -0.1)">
       <use xlink:href="#AppleGothic-31"/>
       <use xlink:href="#AppleGothic-35" transform="translate(67.999985 0)"/>
       <use xlink:href="#AppleGothic-30" transform="translate(135.999969 0)"/>
      </g>
     </g>
    </g>
    <g id="ytick_3">
     <g id="line2d_17">
      <path d="M 48.160938 279.092017 
L 717.760938 279.092017 
" clip-path="url(#p0b240f07d9)" style="fill: none; stroke-dasharray: 2.96,1.28; stroke-dashoffset: 0; stroke: #b0b0b0; stroke-opacity: 0.5; stroke-width: 0.8"/>
     </g>
     <g id="line2d_18">
      <g>
       <use xlink:href="#ma450cb80ae" x="48.160938" y="279.092017" style="stroke: #000000; stroke-width: 0.8"/>
      </g>
     </g>
     <g id="text_10">
      <!-- 200 -->
      <g transform="translate(20.760938 283.01233) scale(0.1 -0.1)">
       <use xlink:href="#AppleGothic-32"/>
       <use xlink:href="#AppleGothic-30" transform="translate(67.999985 0)"/>
       <use xlink:href="#AppleGothic-30" transform="translate(135.999969 0)"/>
      </g>
     </g>
    </g>
    <g id="ytick_4">
     <g id="line2d_19">
      <path d="M 48.160938 241.453744 
L 717.760938 241.453744 
" clip-path="url(#p0b240f07d9)" style="fill: none; stroke-dasharray: 2.96,1.28; stroke-dashoffset: 0; stroke: #b0b0b0; stroke-opacity: 0.5; stroke-width: 0.8"/>
     </g>
     <g id="line2d_20">
      <g>
       <use xlink:href="#ma450cb80ae" x="48.160938" y="241.453744" style="stroke: #000000; stroke-width: 0.8"/>
      </g>
     </g>
     <g id="text_11">
      <!-- 250 -->
      <g transform="translate(20.760938 245.374057) scale(0.1 -0.1)">
       <use xlink:href="#AppleGothic-32"/>
       <use xlink:href="#AppleGothic-35" transform="translate(67.999985 0)"/>
       <use xlink:href="#AppleGothic-30" transform="translate(135.999969 0)"/>
      </g>
     </g>
    </g>
    <g id="ytick_5">
     <g id="line2d_21">
      <path d="M 48.160938 203.815471 
L 717.760938 203.815471 
" clip-path="url(#p0b240f07d9)" style="fill: none; stroke-dasharray: 2.96,1.28; stroke-dashoffset: 0; stroke: #b0b0b0; stroke-opacity: 0.5; stroke-width: 0.8"/>
     </g>
     <g id="line2d_22">
      <g>
       <use xlink:href="#ma450cb80ae" x="48.160938" y="203.815471" style="stroke: #000000; stroke-width: 0.8"/>
      </g>
     </g>
     <g id="text_12">
      <!-- 300 -->
      <g transform="translate(20.760938 207.735784) scale(0.1 -0.1)">
       <defs>
        <path id="AppleGothic-33" d="M 550 333 
L 550 870 
Q 883 621 1235 483 
Q 1587 346 1971 346 
Q 2522 346 2861 666 
Q 3219 992 3219 1421 
Q 3219 1869 2842 2099 
Q 2515 2304 1965 2304 
L 992 2304 
L 992 2701 
L 1658 2701 
Q 2298 2701 2662 2928 
Q 3027 3155 3027 3584 
Q 3027 3936 2752 4173 
Q 2458 4429 1978 4429 
Q 1786 4429 1597 4393 
Q 1408 4358 1222 4282 
Q 890 4141 531 3872 
L 531 4422 
Q 736 4531 912 4608 
Q 1088 4685 1254 4736 
Q 1626 4858 2022 4858 
Q 2650 4858 3066 4531 
Q 3488 4211 3488 3642 
Q 3488 3168 3168 2861 
Q 2976 2675 2643 2554 
Q 2874 2522 3053 2448 
Q 3232 2374 3366 2266 
Q 3718 1971 3718 1434 
Q 3718 813 3219 365 
Q 2714 -83 1965 -83 
Q 1549 -83 1126 70 
Q 1024 102 880 166 
Q 736 230 550 333 
z
" transform="scale(0.015625)"/>
       </defs>
       <use xlink:href="#AppleGothic-33"/>
       <use xlink:href="#AppleGothic-30" transform="translate(67.999985 0)"/>
       <use xlink:href="#AppleGothic-30" transform="translate(135.999969 0)"/>
      </g>
     </g>
    </g>
    <g id="ytick_6">
     <g id="line2d_23">
      <path d="M 48.160938 166.177198 
L 717.760938 166.177198 
" clip-path="url(#p0b240f07d9)" style="fill: none; stroke-dasharray: 2.96,1.28; stroke-dashoffset: 0; stroke: #b0b0b0; stroke-opacity: 0.5; stroke-width: 0.8"/>
     </g>
     <g id="line2d_24">
      <g>
       <use xlink:href="#ma450cb80ae" x="48.160938" y="166.177198" style="stroke: #000000; stroke-width: 0.8"/>
      </g>
     </g>
     <g id="text_13">
      <!-- 350 -->
      <g transform="translate(20.760938 170.097511) scale(0.1 -0.1)">
       <use xlink:href="#AppleGothic-33"/>
       <use xlink:href="#AppleGothic-35" transform="translate(67.999985 0)"/>
       <use xlink:href="#AppleGothic-30" transform="translate(135.999969 0)"/>
      </g>
     </g>
    </g>
    <g id="ytick_7">
     <g id="line2d_25">
      <path d="M 48.160938 128.538925 
L 717.760938 128.538925 
" clip-path="url(#p0b240f07d9)" style="fill: none; stroke-dasharray: 2.96,1.28; stroke-dashoffset: 0; stroke: #b0b0b0; stroke-opacity: 0.5; stroke-width: 0.8"/>
     </g>
     <g id="line2d_26">
      <g>
       <use xlink:href="#ma450cb80ae" x="48.160938" y="128.538925" style="stroke: #000000; stroke-width: 0.8"/>
      </g>
     </g>
     <g id="text_14">
      <!-- 400 -->
      <g transform="translate(20.760938 132.459238) scale(0.1 -0.1)">
       <use xlink:href="#AppleGothic-34"/>
       <use xlink:href="#AppleGothic-30" transform="translate(67.999985 0)"/>
       <use xlink:href="#AppleGothic-30" transform="translate(135.999969 0)"/>
      </g>
     </g>
    </g>
    <g id="ytick_8">
     <g id="line2d_27">
      <path d="M 48.160938 90.900652 
L 717.760938 90.900652 
" clip-path="url(#p0b240f07d9)" style="fill: none; stroke-dasharray: 2.96,1.28; stroke-dashoffset: 0; stroke: #b0b0b0; stroke-opacity: 0.5; stroke-width: 0.8"/>
     </g>
     <g id="line2d_28">
      <g>
       <use xlink:href="#ma450cb80ae" x="48.160938" y="90.900652" style="stroke: #000000; stroke-width: 0.8"/>
      </g>
     </g>
     <g id="text_15">
      <!-- 450 -->
      <g transform="translate(20.760938 94.820964) scale(0.1 -0.1)">
       <use xlink:href="#AppleGothic-34"/>
       <use xlink:href="#AppleGothic-35" transform="translate(67.999985 0)"/>
       <use xlink:href="#AppleGothic-30" transform="translate(135.999969 0)"/>
      </g>
     </g>
    </g>
    <g id="ytick_9">
     <g id="line2d_29">
      <path d="M 48.160938 53.262379 
L 717.760938 53.262379 
" clip-path="url(#p0b240f07d9)" style="fill: none; stroke-dasharray: 2.96,1.28; stroke-dashoffset: 0; stroke: #b0b0b0; stroke-opacity: 0.5; stroke-width: 0.8"/>
     </g>
     <g id="line2d_30">
      <g>
       <use xlink:href="#ma450cb80ae" x="48.160938" y="53.262379" style="stroke: #000000; stroke-width: 0.8"/>
      </g>
     </g>
     <g id="text_16">
      <!-- 500 -->
      <g transform="translate(20.760938 57.182691) scale(0.1 -0.1)">
       <use xlink:href="#AppleGothic-35"/>
       <use xlink:href="#AppleGothic-30" transform="translate(67.999985 0)"/>
       <use xlink:href="#AppleGothic-30" transform="translate(135.999969 0)"/>
      </g>
     </g>
    </g>
    <g id="text_17">
     <!-- 월 평균 탑승객 수 (명) -->
     <g transform="translate(15.040625 240.32875) rotate(-90) scale(0.1 -0.1)">
      <defs>
       <path id="AppleGothic-c6d4" d="M 3264 4128 
Q 3264 4346 3066 4506 
Q 2829 4685 2394 4685 
Q 1952 4685 1702 4560 
Q 1453 4435 1453 4122 
Q 1453 3872 1734 3731 
Q 2010 3590 2394 3590 
Q 2752 3590 2989 3712 
Q 3264 3872 3264 4128 
z
M 5587 -358 
L 3603 -346 
Q 3002 -346 2480 -358 
Q 1958 -371 1498 -390 
Q 1510 -294 1520 -131 
Q 1530 32 1530 179 
Q 1530 467 1523 592 
Q 1517 717 1504 787 
L 3520 800 
Q 3885 800 4237 806 
Q 4589 813 4890 826 
L 4890 1267 
Q 4563 1267 4112 1257 
Q 3661 1248 3187 1238 
Q 2714 1229 2266 1222 
Q 1818 1216 1491 1216 
L 1491 1542 
Q 1760 1530 2121 1523 
Q 2483 1517 2957 1517 
Q 3168 1517 3510 1520 
Q 3853 1523 4339 1530 
Q 4819 1536 5072 1539 
Q 5325 1542 5357 1542 
L 5344 1030 
L 5363 557 
Q 5197 550 4982 544 
Q 4768 538 4499 531 
Q 4230 525 3993 525 
Q 3757 525 3546 525 
Q 3238 525 2924 515 
Q 2611 506 2266 493 
Q 2138 493 1965 474 
L 1965 -51 
L 3213 -64 
L 3597 -64 
Q 4134 -64 4915 -26 
Q 5165 -19 5587 13 
L 5587 -358 
z
M 4250 2739 
L 2618 2605 
L 2605 2170 
Q 2605 1984 2608 1917 
Q 2611 1850 2618 1811 
L 2189 1805 
L 2182 2586 
L 922 2534 
Q 870 2534 787 2505 
Q 704 2477 685 2477 
Q 640 2477 614 2534 
L 486 2886 
L 979 2880 
Q 1088 2880 1273 2883 
Q 1459 2886 1722 2893 
Q 2227 2912 2406 2912 
Q 2630 2912 2921 2931 
Q 3213 2950 3584 2982 
Q 3706 2995 3866 3011 
Q 4026 3027 4230 3053 
L 4250 2739 
z
M 5402 5082 
Q 5402 5069 5382 4976 
Q 5363 4883 5363 4794 
L 5357 3584 
Q 5357 2963 5363 2547 
Q 5370 2131 5382 1824 
L 4928 1760 
L 4928 2112 
L 4499 2118 
L 3622 2093 
L 3622 2426 
L 4314 2413 
Q 4525 2413 4688 2422 
Q 4851 2432 4941 2445 
L 4941 4762 
Q 4941 4966 4934 5056 
Q 4928 5146 4915 5190 
Q 5126 5190 5264 5177 
Q 5402 5165 5402 5082 
z
M 3699 4122 
Q 3699 3706 3334 3475 
Q 2976 3264 2394 3264 
Q 1818 3264 1446 3482 
Q 1043 3712 1043 4122 
Q 1043 4512 1350 4742 
Q 1523 4883 1785 4947 
Q 2048 5011 2394 5011 
Q 3104 5011 3424 4736 
Q 3699 4499 3699 4122 
z
" transform="scale(0.015625)"/>
       <path id="AppleGothic-d3c9" d="M 4915 467 
Q 4915 832 4403 986 
Q 3987 1114 3264 1114 
Q 2477 1114 2093 979 
Q 1651 826 1651 467 
Q 1651 134 2189 -26 
Q 2611 -147 3315 -147 
Q 3738 -147 4051 -102 
Q 4365 -58 4570 38 
Q 4915 192 4915 467 
z
M 5402 467 
Q 5402 -45 4832 -294 
Q 4307 -518 3302 -518 
Q 2362 -518 1824 -307 
Q 1197 -45 1197 474 
Q 1197 1050 1862 1280 
Q 2355 1459 3270 1459 
Q 4269 1459 4806 1235 
Q 5402 986 5402 467 
z
M 4019 2061 
Q 3898 2042 3712 2022 
Q 3526 2003 3289 1990 
Q 3053 1978 2777 1968 
Q 2502 1958 2202 1958 
L 877 1914 
Q 826 1901 771 1888 
Q 717 1875 666 1862 
Q 589 1862 538 2022 
Q 486 2208 486 2304 
L 902 2285 
Q 1075 2285 1206 2291 
Q 1338 2298 1440 2310 
L 1344 3085 
L 1222 3910 
L 1626 3917 
Q 1734 3917 1734 3846 
Q 1734 3821 1721 3750 
Q 1709 3680 1709 3648 
L 1862 2323 
L 2611 2349 
Q 2656 2618 2688 2816 
Q 2720 3014 2739 3142 
Q 2778 3411 2794 3606 
Q 2810 3802 2810 3936 
Q 3034 3936 3184 3904 
Q 3334 3872 3334 3821 
Q 3334 3782 3292 3708 
Q 3251 3635 3245 3603 
L 3053 2368 
Q 3194 2368 3386 2387 
Q 3610 2413 3750 2422 
Q 3891 2432 3949 2432 
L 4019 2061 
z
M 5446 5094 
Q 5446 5069 5420 4982 
Q 5395 4896 5395 4838 
L 5382 3398 
L 5395 1510 
L 4890 1510 
Q 4890 1632 4893 1734 
Q 4896 1837 4902 1933 
Q 4928 2266 4934 2442 
Q 4941 2618 4941 2650 
L 4339 2662 
L 3821 2650 
L 3821 3027 
L 4397 3014 
L 4941 3027 
L 4941 3674 
L 3827 3674 
L 3827 4058 
Q 3942 4045 4092 4038 
Q 4243 4032 4384 4032 
L 4941 4051 
L 4941 4826 
L 4915 5190 
L 5299 5171 
Q 5446 5171 5446 5094 
z
M 3891 4416 
L 2266 4422 
Q 1862 4422 1606 4422 
Q 1350 4422 1222 4416 
Q 1075 4403 924 4400 
Q 774 4397 627 4390 
L 627 4787 
Q 640 4787 800 4787 
Q 960 4787 1286 4781 
Q 1613 4774 1843 4774 
Q 2074 4774 2221 4774 
Q 3814 4813 3891 4813 
L 3891 4416 
z
" transform="scale(0.015625)"/>
       <path id="AppleGothic-ade0" d="M 5325 -403 
L 3226 -403 
Q 2893 -403 2611 -403 
Q 2330 -403 2080 -406 
Q 1830 -410 1606 -416 
Q 1382 -422 1171 -429 
Q 1178 -262 1181 -54 
Q 1184 154 1184 282 
L 1165 1024 
Q 1370 1024 1507 1005 
Q 1645 986 1645 947 
Q 1645 941 1619 861 
Q 1594 781 1594 704 
L 1587 -70 
L 5325 -38 
L 5325 -403 
z
M 6010 2662 
L 5280 2682 
L 4314 2669 
L 4314 1184 
L 4333 749 
L 3910 698 
L 3910 2675 
L 3270 2694 
Q 3053 2694 2784 2675 
Q 2758 2675 2726 2672 
Q 2694 2669 2650 2662 
Q 2650 2605 2643 2397 
Q 2637 2189 2637 1958 
L 2637 1005 
L 2208 973 
L 2234 2054 
Q 2234 2285 2230 2425 
Q 2227 2566 2221 2656 
L 1709 2656 
L 1555 2656 
L 1408 2656 
Q 1376 2662 1353 2665 
Q 1331 2669 1318 2669 
L 390 2650 
L 390 3040 
Q 634 3034 912 3027 
Q 1190 3021 1478 3017 
Q 1766 3014 2057 3014 
Q 2349 3014 2618 3014 
L 4397 3034 
Q 4416 3059 4467 3235 
Q 4518 3411 4589 3744 
Q 4659 4077 4694 4275 
Q 4730 4474 4730 4544 
Q 4582 4538 4368 4538 
Q 4154 4538 3872 4531 
Q 3597 4525 3401 4525 
Q 3206 4525 3085 4525 
L 1114 4512 
L 1114 4883 
L 5229 4902 
Q 5158 4378 5068 3923 
Q 4979 3469 4832 3046 
L 5408 3027 
Q 5574 3027 5737 3036 
Q 5901 3046 6010 3053 
L 6010 2662 
z
" transform="scale(0.015625)"/>
       <path id="AppleGothic-d0d1" d="M 4717 -38 
L 4717 659 
L 3194 666 
L 1773 659 
L 1773 -38 
Q 1862 -38 2044 -38 
Q 2227 -38 2515 -45 
Q 2803 -51 2960 -54 
Q 3117 -58 3149 -58 
Q 3437 -58 3670 -54 
Q 3904 -51 4093 -48 
Q 4282 -45 4432 -41 
Q 4582 -38 4717 -38 
z
M 5216 1594 
Q 5216 1562 5190 1462 
Q 5165 1363 5165 1299 
L 5158 499 
L 5158 -134 
Q 5165 -243 5168 -348 
Q 5171 -454 5178 -563 
L 4698 -576 
L 4698 -429 
L 3130 -410 
L 1760 -410 
L 1747 -557 
L 1280 -557 
Q 1293 -358 1299 -70 
Q 1306 77 1309 208 
Q 1312 339 1312 448 
L 1299 1702 
Q 1389 1702 1469 1696 
Q 1549 1690 1638 1677 
Q 1805 1645 1805 1562 
Q 1805 1536 1789 1465 
Q 1773 1395 1773 1370 
L 1773 1024 
L 3354 1005 
Q 3789 1005 4105 1011 
Q 4422 1018 4717 1037 
L 4717 1395 
L 4691 1690 
L 4774 1690 
Q 4960 1690 5088 1670 
Q 5216 1651 5216 1594 
z
M 4045 2291 
Q 3942 2278 3859 2272 
Q 3776 2266 3706 2259 
Q 3136 2189 2768 2141 
Q 2400 2093 2221 2080 
Q 2048 2067 1731 2048 
Q 1414 2029 954 2003 
Q 890 2003 810 2000 
Q 730 1997 634 1990 
L 653 3238 
L 653 4768 
Q 966 4755 1344 4748 
Q 1722 4742 2074 4742 
Q 2432 4742 2816 4748 
Q 3200 4755 3526 4768 
L 3526 4397 
L 1094 4403 
L 1094 3642 
L 2221 3635 
L 3494 3654 
L 3494 3277 
L 2374 3290 
L 1094 3277 
L 1094 2445 
L 1318 2438 
L 1395 2438 
Q 1658 2438 1907 2457 
Q 2157 2477 2323 2490 
Q 2918 2490 3514 2566 
Q 3610 2579 3731 2601 
Q 3853 2624 4000 2656 
L 4045 2291 
z
M 6048 3027 
L 5171 3027 
L 5184 1920 
L 4704 1920 
Q 4704 2003 4707 2108 
Q 4710 2214 4713 2326 
Q 4717 2438 4717 2547 
Q 4717 2656 4717 2752 
L 4717 3270 
Q 4717 3629 4713 3910 
Q 4710 4192 4704 4397 
Q 4698 4602 4685 4800 
Q 4672 4998 4659 5190 
L 4819 5190 
Q 4992 5190 5101 5171 
Q 5210 5152 5210 5101 
Q 5210 5082 5187 4998 
Q 5165 4915 5165 4858 
L 5178 3398 
L 6048 3424 
L 6048 3027 
z
" transform="scale(0.015625)"/>
       <path id="AppleGothic-c2b9" d="M 4762 448 
Q 4762 794 4237 934 
Q 3853 1030 3155 1030 
Q 2413 1030 2061 915 
Q 1606 762 1606 378 
Q 1670 -160 3194 -160 
Q 3949 -160 4355 -19 
Q 4762 122 4762 448 
z
M 5261 429 
Q 5261 -83 4608 -339 
Q 4051 -550 3181 -550 
Q 2272 -550 1715 -320 
Q 1107 -64 1107 390 
Q 1107 954 1747 1203 
Q 2272 1408 3155 1408 
Q 4013 1408 4550 1222 
Q 5261 979 5261 429 
z
M 6042 2022 
Q 5997 2029 5955 2029 
Q 5914 2029 5869 2029 
Q 5555 2042 5212 2051 
Q 4870 2061 4506 2061 
L 3226 2048 
Q 2278 2048 1254 2010 
Q 890 1997 358 1971 
L 358 2426 
L 3232 2413 
Q 4192 2413 5184 2451 
Q 5357 2458 5571 2470 
Q 5786 2483 6042 2496 
L 6042 2022 
z
M 5747 3450 
L 5427 3059 
Q 5325 3072 5248 3088 
Q 5171 3104 5101 3117 
Q 4902 3174 4684 3254 
Q 4467 3334 4252 3443 
Q 4038 3552 3827 3699 
Q 3616 3846 3430 4038 
Q 3366 4102 3299 4182 
Q 3232 4262 3149 4371 
Q 3117 4320 3091 4281 
Q 3066 4243 3046 4211 
Q 2739 3827 2214 3494 
Q 2029 3373 1811 3273 
Q 1594 3174 1350 3104 
Q 1267 3078 1168 3059 
Q 1069 3040 941 3014 
Q 909 3046 886 3065 
Q 864 3085 851 3098 
Q 749 3194 707 3232 
Q 666 3270 646 3309 
Q 640 3315 637 3321 
Q 634 3328 627 3334 
Q 627 3360 688 3369 
Q 749 3379 755 3379 
Q 909 3411 1033 3443 
Q 1158 3475 1254 3507 
Q 1856 3699 2285 4045 
Q 2675 4346 2848 4768 
Q 2906 4909 2950 5133 
Q 2982 5133 3030 5129 
Q 3078 5126 3136 5120 
Q 3456 5082 3456 5018 
Q 3456 4986 3424 4925 
Q 3392 4864 3392 4838 
Q 3392 4640 3782 4288 
Q 4109 3994 4339 3872 
Q 4730 3667 5235 3552 
Q 5402 3514 5664 3475 
Q 5702 3462 5728 3456 
Q 5734 3456 5747 3450 
z
" transform="scale(0.015625)"/>
       <path id="AppleGothic-ac1d" d="M 5594 -499 
L 5152 -531 
L 5171 1197 
L 3290 1197 
L 1414 1165 
L 1414 1536 
L 3258 1523 
Q 3546 1523 3840 1523 
Q 4134 1523 4448 1530 
Q 4768 1536 5049 1539 
Q 5331 1542 5594 1549 
Q 5587 1434 5587 1296 
Q 5587 1158 5581 992 
L 5581 454 
L 5594 -499 
z
M 3277 4589 
Q 3264 4506 3257 4432 
Q 3251 4358 3245 4282 
Q 3213 4083 3152 3897 
Q 3091 3712 3014 3539 
Q 2778 3027 2394 2643 
Q 2042 2291 1632 2054 
Q 1491 1978 1340 1907 
Q 1190 1837 1030 1786 
Q 838 1722 787 1722 
L 640 1862 
Q 621 1882 589 1904 
Q 557 1926 525 1948 
Q 493 1971 470 1990 
Q 448 2010 448 2016 
L 474 2042 
Q 563 2054 630 2070 
Q 698 2086 755 2099 
Q 1453 2304 2003 2816 
Q 2374 3168 2579 3578 
Q 2643 3706 2694 3862 
Q 2746 4019 2784 4224 
L 1741 4237 
L 678 4237 
L 678 4614 
Q 819 4602 1190 4595 
Q 1382 4589 1564 4589 
Q 1747 4589 1933 4589 
L 3277 4589 
z
M 5651 5082 
Q 5651 5069 5625 4989 
Q 5600 4909 5600 4838 
Q 5594 4710 5594 4528 
Q 5594 4346 5587 4109 
Q 5581 3866 5581 3690 
Q 5581 3514 5581 3386 
L 5581 2246 
Q 5587 1990 5600 1798 
L 5152 1773 
L 5171 2950 
L 4333 2944 
L 4333 1837 
L 3917 1818 
L 3955 3443 
L 3955 4269 
Q 3955 4538 3955 4739 
Q 3955 4941 3942 5069 
L 4013 5069 
Q 4179 5069 4297 5049 
Q 4416 5030 4416 4966 
Q 4416 4941 4387 4867 
Q 4358 4794 4358 4736 
L 4333 3296 
L 5178 3302 
L 5184 4749 
L 5171 5190 
Q 5331 5190 5485 5171 
Q 5651 5152 5651 5082 
z
" transform="scale(0.015625)"/>
       <path id="AppleGothic-c218" d="M 6022 1952 
L 3411 1952 
L 3424 896 
L 3462 -582 
L 2982 -582 
L 2982 1952 
Q 2912 1952 2774 1949 
Q 2637 1946 2419 1939 
Q 2208 1933 2086 1933 
Q 1965 1933 1933 1933 
L 378 1894 
L 378 2304 
L 3206 2298 
Q 3706 2298 4202 2307 
Q 4698 2317 5184 2330 
Q 5536 2342 6022 2368 
L 6022 1952 
z
M 5792 3482 
Q 5792 3450 5747 3402 
Q 5702 3354 5658 3315 
L 5523 3117 
Q 5453 3123 5395 3126 
Q 5338 3130 5286 3142 
Q 4685 3251 4090 3610 
Q 3699 3846 3411 4250 
Q 3360 4320 3312 4409 
Q 3264 4499 3206 4621 
Q 3149 4512 3097 4422 
Q 3046 4333 2995 4262 
Q 2688 3846 2208 3552 
Q 2054 3450 1875 3370 
Q 1696 3290 1498 3219 
Q 1382 3181 1232 3142 
Q 1082 3104 896 3072 
Q 896 3072 873 3101 
Q 851 3130 828 3162 
Q 806 3194 780 3226 
Q 755 3258 749 3270 
Q 736 3290 678 3347 
Q 621 3405 621 3424 
L 640 3443 
Q 730 3450 810 3453 
Q 890 3456 954 3469 
Q 1338 3526 1674 3676 
Q 2010 3827 2298 4077 
Q 2605 4326 2790 4659 
Q 2842 4755 2886 4880 
Q 2931 5005 2970 5171 
L 3411 5133 
Q 3475 5133 3475 5075 
Q 3475 5056 3472 5037 
Q 3469 5018 3462 4992 
Q 3462 4973 3443 4947 
Q 3482 4832 3520 4755 
Q 3738 4301 4230 3974 
Q 4659 3686 5261 3571 
Q 5363 3552 5488 3536 
Q 5613 3520 5766 3507 
Q 5786 3507 5792 3482 
z
" transform="scale(0.015625)"/>
       <path id="AppleGothic-ba85" d="M 4998 480 
Q 4998 851 4435 992 
Q 4237 1043 3981 1072 
Q 3725 1101 3398 1101 
L 3245 1101 
Q 2598 1101 2221 992 
Q 1734 858 1734 512 
Q 1734 160 2227 -6 
Q 2432 -77 2704 -109 
Q 2976 -141 3328 -141 
Q 3699 -141 3984 -115 
Q 4269 -90 4474 -26 
Q 4998 128 4998 480 
z
M 2912 2438 
L 2912 4262 
L 1235 4262 
L 1242 2438 
L 2131 2426 
L 2912 2438 
z
M 5434 493 
Q 5434 -19 4838 -275 
Q 4288 -506 3315 -506 
Q 2419 -506 1875 -282 
Q 1254 -19 1254 506 
Q 1254 1011 1914 1248 
Q 2470 1466 3398 1466 
Q 4339 1466 4858 1229 
Q 5434 973 5434 493 
z
M 3386 2054 
L 787 2042 
L 806 3469 
Q 806 3795 800 4102 
Q 794 4410 781 4659 
L 1862 4646 
L 3379 4659 
L 3360 3360 
Q 3360 2989 3366 2656 
Q 3373 2323 3386 2054 
z
M 5440 5082 
Q 5440 5050 5417 4970 
Q 5395 4890 5395 4858 
Q 5395 4768 5395 4614 
Q 5395 4461 5389 4243 
Q 5382 4032 5382 3821 
Q 5382 3610 5376 3398 
Q 5376 2918 5376 2595 
Q 5376 2272 5382 2106 
Q 5389 1939 5392 1814 
Q 5395 1690 5408 1594 
L 4922 1581 
Q 4922 1581 4925 1597 
Q 4928 1613 4928 1657 
Q 4928 1702 4931 1785 
Q 4934 1869 4934 2010 
L 4934 2528 
L 4582 2528 
Q 4371 2528 4140 2521 
Q 3910 2515 3706 2502 
L 3706 2906 
L 4557 2893 
L 4934 2899 
L 4934 3718 
L 4512 3706 
Q 4243 3706 3878 3686 
Q 3846 3686 3801 3683 
Q 3757 3680 3706 3674 
L 3706 4090 
L 4461 4070 
L 4934 4077 
L 4941 4634 
Q 4941 4870 4934 4998 
Q 4928 5126 4915 5190 
L 5030 5190 
Q 5222 5190 5331 5171 
Q 5440 5152 5440 5082 
z
" transform="scale(0.015625)"/>
      </defs>
      <use xlink:href="#AppleGothic-c6d4"/>
      <use xlink:href="#AppleGothic-20" transform="translate(99.999985 0)"/>
      <use xlink:href="#AppleGothic-d3c9" transform="translate(131.999969 0)"/>
      <use xlink:href="#AppleGothic-ade0" transform="translate(231.999954 0)"/>
      <use xlink:href="#AppleGothic-20" transform="translate(331.999939 0)"/>
      <use xlink:href="#AppleGothic-d0d1" transform="translate(363.999924 0)"/>
      <use xlink:href="#AppleGothic-c2b9" transform="translate(463.999908 0)"/>
      <use xlink:href="#AppleGothic-ac1d" transform="translate(563.999893 0)"/>
      <use xlink:href="#AppleGothic-20" transform="translate(663.999878 0)"/>
      <use xlink:href="#AppleGothic-c218" transform="translate(695.999863 0)"/>
      <use xlink:href="#AppleGothic-20" transform="translate(795.999847 0)"/>
      <use xlink:href="#AppleGothic-28" transform="translate(827.999832 0)"/>
      <use xlink:href="#AppleGothic-ba85" transform="translate(877.999817 0)"/>
      <use xlink:href="#AppleGothic-29" transform="translate(977.999802 0)"/>
     </g>
    </g>
   </g>
   <g id="line2d_31">
    <path d="M 78.597301 334.294818 
L 133.936144 324.508867 
L 189.274987 301.54952 
L 244.61383 281.350314 
L 299.952673 260.272881 
L 355.291516 249.796895 
L 410.630359 215.859718 
L 465.969202 182.549847 
L 521.308045 152.313768 
L 576.646888 142.841469 
L 631.985731 107.21057 
L 687.324574 71.203289 
" clip-path="url(#p0b240f07d9)" style="fill: none; stroke: #4b0082; stroke-width: 2.5; stroke-linecap: square"/>
    <defs>
     <path id="m8628bfb9a2" d="M 0 3 
C 0.795609 3 1.55874 2.683901 2.12132 2.12132 
C 2.683901 1.55874 3 0.795609 3 0 
C 3 -0.795609 2.683901 -1.55874 2.12132 -2.12132 
C 1.55874 -2.683901 0.795609 -3 0 -3 
C -0.795609 -3 -1.55874 -2.683901 -2.12132 -2.12132 
C -2.683901 -1.55874 -3 -0.795609 -3 0 
C -3 0.795609 -2.683901 1.55874 -2.12132 2.12132 
C -1.55874 2.683901 -0.795609 3 0 3 
z
" style="stroke: #ffffff; stroke-width: 0.75"/>
    </defs>
    <g clip-path="url(#p0b240f07d9)">
     <use xlink:href="#m8628bfb9a2" x="78.597301" y="334.294818" style="fill: #4b0082; stroke: #ffffff; stroke-width: 0.75"/>
     <use xlink:href="#m8628bfb9a2" x="133.936144" y="324.508867" style="fill: #4b0082; stroke: #ffffff; stroke-width: 0.75"/>
     <use xlink:href="#m8628bfb9a2" x="189.274987" y="301.54952" style="fill: #4b0082; stroke: #ffffff; stroke-width: 0.75"/>
     <use xlink:href="#m8628bfb9a2" x="244.61383" y="281.350314" style="fill: #4b0082; stroke: #ffffff; stroke-width: 0.75"/>
     <use xlink:href="#m8628bfb9a2" x="299.952673" y="260.272881" style="fill: #4b0082; stroke: #ffffff; stroke-width: 0.75"/>
     <use xlink:href="#m8628bfb9a2" x="355.291516" y="249.796895" style="fill: #4b0082; stroke: #ffffff; stroke-width: 0.75"/>
     <use xlink:href="#m8628bfb9a2" x="410.630359" y="215.859718" style="fill: #4b0082; stroke: #ffffff; stroke-width: 0.75"/>
     <use xlink:href="#m8628bfb9a2" x="465.969202" y="182.549847" style="fill: #4b0082; stroke: #ffffff; stroke-width: 0.75"/>
     <use xlink:href="#m8628bfb9a2" x="521.308045" y="152.313768" style="fill: #4b0082; stroke: #ffffff; stroke-width: 0.75"/>
     <use xlink:href="#m8628bfb9a2" x="576.646888" y="142.841469" style="fill: #4b0082; stroke: #ffffff; stroke-width: 0.75"/>
     <use xlink:href="#m8628bfb9a2" x="631.985731" y="107.21057" style="fill: #4b0082; stroke: #ffffff; stroke-width: 0.75"/>
     <use xlink:href="#m8628bfb9a2" x="687.324574" y="71.203289" style="fill: #4b0082; stroke: #ffffff; stroke-width: 0.75"/>
    </g>
   </g>
   <g id="patch_3">
    <path d="M 48.160938 355.24875 
L 48.160938 22.60875 
" style="fill: none; stroke: #000000; stroke-width: 0.8; stroke-linejoin: miter; stroke-linecap: square"/>
   </g>
   <g id="patch_4">
    <path d="M 717.760938 355.24875 
L 717.760938 22.60875 
" style="fill: none; stroke: #000000; stroke-width: 0.8; stroke-linejoin: miter; stroke-linecap: square"/>
   </g>
   <g id="patch_5">
    <path d="M 48.160937 355.24875 
L 717.760937 355.24875 
" style="fill: none; stroke: #000000; stroke-width: 0.8; stroke-linejoin: miter; stroke-linecap: square"/>
   </g>
   <g id="patch_6">
    <path d="M 48.160937 22.60875 
L 717.760937 22.60875 
" style="fill: none; stroke: #000000; stroke-width: 0.8; stroke-linejoin: miter; stroke-linecap: square"/>
   </g>
   <g id="text_18">
    <!-- 연도별 항공기 탑승객 수 추이 (1949-1960) -->
    <g transform="translate(259.720937 16.60875) scale(0.12 -0.12)">
     <defs>
      <path id="AppleGothic-bcc4" d="M 3027 2739 
L 3027 3680 
L 2150 3693 
L 1293 3680 
L 1293 2739 
L 2144 2720 
L 3027 2739 
z
M 5440 -531 
Q 5178 -525 4906 -518 
Q 4634 -512 4339 -506 
Q 4038 -499 3801 -496 
Q 3565 -493 3379 -493 
L 1446 -493 
Q 1453 -422 1456 -336 
Q 1459 -250 1466 -141 
Q 1466 -45 1469 19 
Q 1472 83 1472 115 
L 1459 762 
L 3354 749 
L 4845 774 
L 4845 1382 
L 1446 1370 
L 1446 1734 
Q 1658 1734 1888 1728 
Q 2118 1722 2374 1715 
Q 2630 1709 2864 1705 
Q 3098 1702 3322 1702 
L 5299 1715 
L 5280 1094 
L 5293 410 
L 3373 429 
L 1901 416 
L 1901 -128 
Q 1978 -134 2134 -134 
Q 2291 -134 2522 -134 
Q 2752 -141 2969 -144 
Q 3187 -147 3392 -147 
Q 3846 -147 4380 -137 
Q 4915 -128 5440 -109 
L 5440 -531 
z
M 5440 5062 
Q 5440 5024 5414 4937 
Q 5389 4851 5389 4813 
Q 5382 4589 5372 4224 
Q 5363 3859 5363 3334 
Q 5363 3008 5363 2784 
Q 5363 2560 5370 2445 
Q 5376 2323 5376 2220 
Q 5376 2118 5382 2029 
L 4922 2029 
Q 4941 2189 4941 2394 
L 4941 2822 
L 3878 2803 
L 3878 3174 
L 4941 3162 
L 4941 3917 
L 3859 3904 
L 3859 4269 
L 4941 4256 
L 4941 4685 
Q 4941 4909 4934 5021 
Q 4928 5133 4915 5190 
L 5056 5190 
Q 5222 5190 5331 5164 
Q 5440 5139 5440 5062 
z
M 3488 4877 
L 3469 4710 
L 3456 3462 
L 3469 2362 
L 851 2362 
Q 851 2630 857 2944 
Q 864 3258 870 3578 
Q 870 3853 870 4061 
Q 870 4269 864 4416 
Q 858 4570 858 4704 
Q 858 4838 851 4966 
L 979 4966 
Q 1146 4966 1242 4950 
Q 1338 4934 1338 4864 
Q 1338 4838 1315 4761 
Q 1293 4685 1293 4653 
L 1293 4051 
L 2157 4032 
L 3027 4051 
L 3014 4998 
L 3072 4998 
Q 3264 4998 3376 4976 
Q 3488 4954 3488 4877 
z
" transform="scale(0.015625)"/>
      <path id="AppleGothic-d56d" d="M 4768 506 
Q 4768 838 4282 992 
Q 3885 1120 3258 1120 
Q 2611 1120 2278 1024 
Q 1779 890 1779 512 
Q 1779 173 2208 0 
Q 2566 -141 3245 -141 
Q 4000 -141 4384 12 
Q 4768 166 4768 506 
z
M 3309 2771 
Q 3309 3008 3091 3142 
Q 2867 3302 2387 3302 
Q 1914 3302 1686 3158 
Q 1459 3014 1459 2810 
Q 1459 2573 1728 2432 
Q 1997 2291 2426 2291 
Q 2880 2291 3094 2428 
Q 3309 2566 3309 2771 
z
M 5229 499 
Q 5229 -45 4685 -294 
Q 4198 -518 3258 -518 
Q 2432 -518 1907 -275 
Q 1318 -6 1318 512 
Q 1318 1024 1875 1254 
Q 2336 1453 3251 1453 
Q 4122 1453 4627 1248 
Q 5229 1011 5229 499 
z
M 3763 2803 
Q 3763 2400 3414 2185 
Q 3066 1971 2438 1971 
Q 1715 1971 1363 2204 
Q 1011 2438 1011 2854 
Q 1011 3251 1440 3443 
Q 1626 3533 1856 3574 
Q 2086 3616 2362 3616 
Q 2675 3616 2931 3561 
Q 3187 3507 3372 3404 
Q 3558 3302 3660 3152 
Q 3763 3002 3763 2803 
z
M 6029 2989 
L 5133 2989 
L 5120 2285 
L 5133 1690 
L 4666 1658 
L 4672 4678 
Q 4672 4781 4669 4918 
Q 4666 5056 4653 5184 
Q 4826 5184 4998 5165 
Q 5184 5146 5184 5082 
Q 5184 5069 5158 4992 
Q 5133 4915 5133 4858 
L 5120 4154 
L 5133 3398 
L 6029 3398 
L 6029 2989 
z
M 4154 3955 
L 2253 3968 
Q 1978 3968 1744 3965 
Q 1510 3962 1318 3955 
Q 1126 3949 912 3942 
Q 698 3936 454 3930 
L 454 4320 
Q 467 4320 608 4317 
Q 749 4314 1018 4307 
Q 1286 4301 1510 4301 
Q 1734 4301 1914 4294 
L 2208 4294 
Q 2752 4294 3238 4310 
Q 3725 4326 4154 4352 
L 4154 3955 
z
M 3117 4666 
L 2394 4666 
L 1536 4659 
L 1536 5037 
L 2426 5018 
L 3117 5037 
L 3117 4666 
z
" transform="scale(0.015625)"/>
      <path id="AppleGothic-acf5" d="M 4870 570 
Q 4870 960 4352 1165 
Q 3904 1325 3187 1325 
Q 2387 1325 1961 1120 
Q 1536 915 1536 608 
Q 1536 186 2144 6 
Q 2349 -58 2611 -86 
Q 2874 -115 3200 -115 
Q 4051 -115 4460 41 
Q 4870 198 4870 570 
z
M 5357 576 
Q 5357 314 5213 112 
Q 5069 -90 4800 -227 
Q 4531 -365 4147 -435 
Q 3763 -506 3277 -506 
Q 2362 -506 1779 -288 
Q 1050 -13 1050 608 
Q 1050 1158 1734 1453 
Q 2304 1690 3168 1690 
Q 3629 1690 4000 1619 
Q 4371 1549 4678 1414 
Q 5357 1101 5357 576 
z
M 6042 2195 
Q 5971 2195 5811 2195 
Q 5651 2195 5389 2202 
Q 5126 2208 4838 2211 
Q 4550 2214 4211 2221 
Q 3885 2227 3645 2230 
Q 3405 2234 3251 2234 
L 3110 2234 
Q 2637 2234 2288 2234 
Q 1939 2234 1715 2227 
Q 1261 2221 899 2211 
Q 538 2202 352 2195 
L 352 2650 
L 1453 2605 
L 2765 2598 
L 2752 3616 
L 2790 3616 
Q 2995 3616 3145 3600 
Q 3296 3584 3296 3514 
Q 3296 3482 3267 3398 
Q 3238 3315 3238 3270 
L 3238 2592 
L 4704 2605 
Q 5107 2605 5424 2611 
Q 5741 2618 6042 2637 
L 6042 2195 
z
M 5382 4877 
Q 5370 4691 5363 4570 
Q 5350 4422 5324 4227 
Q 5299 4032 5261 3776 
Q 5248 3667 5222 3545 
Q 5197 3424 5165 3277 
Q 5152 3226 5139 3165 
Q 5126 3104 5101 3027 
L 4666 3053 
L 4794 3674 
Q 4826 3846 4851 4076 
Q 4877 4307 4877 4461 
Q 4506 4474 4054 4480 
Q 3603 4486 3168 4486 
L 909 4480 
L 909 4902 
Q 1299 4890 1772 4883 
Q 2246 4877 2714 4877 
L 5382 4877 
z
" transform="scale(0.015625)"/>
      <path id="AppleGothic-ae30" d="M 5427 5094 
Q 5427 5069 5408 4982 
Q 5389 4896 5389 4832 
L 5363 2362 
L 5382 -493 
L 4909 -518 
Q 4915 -371 4915 -195 
Q 4915 -19 4922 198 
Q 4934 646 4941 1299 
Q 4947 1632 4950 1872 
Q 4954 2112 4954 2259 
Q 4954 3808 4934 4346 
Q 4934 4614 4928 4822 
Q 4922 5030 4915 5184 
L 5114 5190 
Q 5261 5190 5344 5174 
Q 5427 5158 5427 5094 
z
M 3578 4486 
Q 3565 4051 3478 3635 
Q 3392 3219 3209 2819 
Q 3027 2419 2729 2041 
Q 2432 1664 1997 1306 
Q 1786 1139 1555 992 
Q 1325 845 1075 717 
Q 698 525 653 525 
Q 627 557 611 579 
Q 595 602 582 614 
Q 544 653 505 688 
Q 467 723 422 749 
Q 410 762 390 778 
Q 371 794 352 819 
Q 346 826 342 832 
Q 339 838 326 851 
Q 326 877 384 893 
Q 442 909 461 922 
Q 480 922 569 957 
Q 659 992 819 1069 
Q 1043 1171 1238 1283 
Q 1434 1395 1613 1523 
Q 2118 1888 2409 2301 
Q 2701 2714 2886 3187 
Q 2950 3354 2995 3514 
Q 3040 3674 3066 3840 
Q 3072 3898 3078 3962 
Q 3085 4026 3098 4090 
L 1766 4083 
Q 1318 4083 1046 4076 
Q 774 4070 589 4058 
L 589 4474 
Q 685 4467 800 4467 
Q 915 4467 1043 4461 
L 1466 4461 
L 3578 4486 
z
" transform="scale(0.015625)"/>
      <path id="AppleGothic-cd94" d="M 5990 1638 
L 4390 1658 
Q 4006 1658 3798 1651 
Q 3590 1645 3462 1632 
L 3462 518 
Q 3462 314 3462 160 
Q 3462 6 3469 -96 
Q 3475 -198 3475 -291 
Q 3475 -384 3482 -461 
Q 3482 -538 3392 -566 
Q 3302 -595 3194 -595 
L 3104 -595 
Q 3002 -595 3002 -550 
L 3008 282 
L 2995 1606 
Q 2912 1613 2800 1613 
Q 2688 1613 2541 1619 
Q 2394 1626 2288 1626 
Q 2182 1626 2112 1626 
Q 1946 1626 1712 1619 
Q 1478 1613 1178 1600 
Q 582 1581 403 1581 
L 403 2003 
L 3360 1990 
Q 3910 1990 4390 2000 
Q 4870 2010 5299 2022 
Q 5446 2029 5619 2041 
Q 5792 2054 5990 2067 
L 5990 1638 
z
M 5504 2854 
Q 5504 2842 5459 2784 
Q 5408 2733 5385 2704 
Q 5363 2675 5357 2669 
L 5229 2496 
Q 5088 2515 4973 2534 
Q 4384 2643 3987 2874 
Q 3834 2970 3702 3062 
Q 3571 3155 3462 3245 
Q 3398 3302 3337 3366 
Q 3277 3430 3213 3514 
Q 3155 3430 3104 3372 
Q 3053 3315 3008 3264 
Q 2694 2963 2266 2752 
Q 1990 2624 1645 2541 
Q 1421 2502 1082 2464 
Q 1075 2470 1075 2483 
Q 1062 2502 1036 2537 
Q 1011 2573 966 2624 
Q 934 2662 876 2726 
Q 819 2790 819 2803 
Q 838 2829 931 2835 
Q 1024 2842 1139 2854 
Q 1792 2938 2234 3174 
Q 2406 3277 2540 3379 
Q 2675 3482 2765 3603 
Q 2867 3750 2925 3974 
L 1050 3949 
L 1050 4346 
Q 1184 4339 1376 4339 
Q 1568 4339 1824 4333 
Q 2080 4326 2265 4326 
Q 2451 4326 2566 4326 
Q 2797 4326 3142 4332 
Q 3488 4339 3955 4352 
Q 4422 4365 4768 4371 
Q 5114 4378 5344 4378 
L 5344 3981 
L 4384 3994 
Q 4115 3994 3948 3994 
Q 3782 3994 3699 3987 
Q 3629 3987 3561 3984 
Q 3494 3981 3437 3974 
Q 3443 3942 3446 3910 
Q 3450 3878 3462 3859 
Q 3610 3539 4128 3258 
Q 4442 3085 4851 2976 
Q 5088 2918 5478 2880 
Q 5498 2880 5504 2854 
z
M 4032 4787 
L 3334 4794 
L 2240 4774 
L 2240 5165 
L 3322 5152 
L 4032 5165 
L 4032 4787 
z
" transform="scale(0.015625)"/>
      <path id="AppleGothic-c774" d="M 3226 2534 
Q 3226 3309 2899 3725 
Q 2611 4090 2157 4090 
Q 1683 4090 1414 3690 
Q 1146 3290 1146 2534 
Q 1146 1811 1440 1382 
Q 1741 954 2240 954 
Q 2758 954 3021 1446 
Q 3226 1856 3226 2534 
z
M 5446 5082 
Q 5446 5062 5427 4982 
Q 5408 4902 5408 4832 
L 5434 -538 
L 4941 -589 
L 4960 2259 
Q 4960 3552 4941 4070 
Q 4934 4326 4931 4604 
Q 4928 4883 4915 5190 
L 5094 5197 
Q 5242 5197 5344 5174 
Q 5446 5152 5446 5082 
z
M 3686 2547 
Q 3686 2125 3612 1785 
Q 3539 1446 3379 1203 
Q 2995 582 2176 582 
Q 1408 582 1018 1203 
Q 678 1734 678 2560 
Q 678 3379 1050 3898 
Q 1453 4461 2170 4461 
Q 2912 4461 3309 3910 
Q 3686 3411 3686 2547 
z
" transform="scale(0.015625)"/>
      <path id="AppleGothic-2d" d="M 256 1958 
L 2349 1958 
L 2349 1491 
L 256 1491 
L 256 1958 
z
" transform="scale(0.015625)"/>
     </defs>
     <use xlink:href="#AppleGothic-c5f0"/>
     <use xlink:href="#AppleGothic-b3c4" transform="translate(99.999985 0)"/>
     <use xlink:href="#AppleGothic-bcc4" transform="translate(199.999969 0)"/>
     <use xlink:href="#AppleGothic-20" transform="translate(299.999954 0)"/>
     <use xlink:href="#AppleGothic-d56d" transform="translate(331.999939 0)"/>
     <use xlink:href="#AppleGothic-acf5" transform="translate(431.999924 0)"/>
     <use xlink:href="#AppleGothic-ae30" transform="translate(531.999908 0)"/>
     <use xlink:href="#AppleGothic-20" transform="translate(631.999893 0)"/>
     <use xlink:href="#AppleGothic-d0d1" transform="translate(663.999878 0)"/>
     <use xlink:href="#AppleGothic-c2b9" transform="translate(763.999863 0)"/>
     <use xlink:href="#AppleGothic-ac1d" transform="translate(863.999847 0)"/>
     <use xlink:href="#AppleGothic-20" transform="translate(963.999832 0)"/>
     <use xlink:href="#AppleGothic-c218" transform="translate(995.999817 0)"/>
     <use xlink:href="#AppleGothic-20" transform="translate(1095.999802 0)"/>
     <use xlink:href="#AppleGothic-cd94" transform="translate(1127.999786 0)"/>
     <use xlink:href="#AppleGothic-c774" transform="translate(1227.999771 0)"/>
     <use xlink:href="#AppleGothic-20" transform="translate(1327.999756 0)"/>
     <use xlink:href="#AppleGothic-28" transform="translate(1359.999741 0)"/>
     <use xlink:href="#AppleGothic-31" transform="translate(1409.999725 0)"/>
     <use xlink:href="#AppleGothic-39" transform="translate(1477.99971 0)"/>
     <use xlink:href="#AppleGothic-34" transform="translate(1545.999695 0)"/>
     <use xlink:href="#AppleGothic-39" transform="translate(1613.99968 0)"/>
     <use xlink:href="#AppleGothic-2d" transform="translate(1681.999664 0)"/>
     <use xlink:href="#AppleGothic-31" transform="translate(1731.999649 0)"/>
     <use xlink:href="#AppleGothic-39" transform="translate(1799.999634 0)"/>
     <use xlink:href="#AppleGothic-36" transform="translate(1867.999619 0)"/>
     <use xlink:href="#AppleGothic-30" transform="translate(1935.999603 0)"/>
     <use xlink:href="#AppleGothic-29" transform="translate(2003.999588 0)"/>
    </g>
   </g>
  </g>
 </g>
 <defs>
  <clipPath id="p0b240f07d9">
   <rect x="48.160938" y="22.60875" width="669.6" height="332.64"/>
  </clipPath>
 </defs>
</svg>
