<?xml version="1.0" encoding="utf-8" standalone="no"?>
<!DOCTYPE svg PUBLIC "-//W3C//DTD SVG 1.1//EN"
  "http://www.w3.org/Graphics/SVG/1.1/DTD/svg11.dtd">
<svg xmlns:xlink="http://www.w3.org/1999/xlink" width="503.912344pt" height="342.612656pt" viewBox="0 0 503.912344 342.612656" xmlns="http://www.w3.org/2000/svg" version="1.1">
 <metadata>
  <rdf:RDF xmlns:dc="http://purl.org/dc/elements/1.1/" xmlns:cc="http://creativecommons.org/ns#" xmlns:rdf="http://www.w3.org/1999/02/22-rdf-syntax-ns#">
   <cc:Work>
    <dc:type rdf:resource="http://purl.org/dc/dcmitype/StillImage"/>
    <dc:date>2026-05-25T18:32:46.886248</dc:date>
    <dc:format>image/svg+xml</dc:format>
    <dc:creator>
     <cc:Agent>
      <dc:title>Matplotlib v3.10.9, https://matplotlib.org/</dc:title>
     </cc:Agent>
    </dc:creator>
   </cc:Work>
  </rdf:RDF>
 </metadata>
 <defs>
  <style type="text/css">*{stroke-linejoin: round; stroke-linecap: butt}</style>
 </defs>
 <g id="figure_1">
  <g id="patch_1">
   <path d="M 0 342.612656 
L 503.912344 342.612656 
L 503.912344 0 
L 0 0 
z
" style="fill: #ffffff"/>
  </g>
  <g id="axes_1">
   <g id="patch_2">
    <path d="M 50.312344 300.591563 
L 496.712344 300.591563 
L 496.712344 23.391562 
L 50.312344 23.391562 
z
" style="fill: #ffffff"/>
   </g>
   <g id="matplotlib.axis_1">
    <g id="xtick_1">
     <g id="line2d_1">
      <path d="M 108.353781 300.591563 
L 108.353781 23.391562 
" clip-path="url(#p24285aabc9)" style="fill: none; stroke: #cccccc; stroke-linecap: round"/>
     </g>
     <g id="text_1">
      <!-- 20 -->
      <g style="fill: #262626" transform="translate(102.23675 317.965156) scale(0.11 -0.11)">
       <defs>
        <path id="ArialMT-32" d="M 3222 541 
L 3222 0 
L 194 0 
Q 188 203 259 391 
Q 375 700 629 1000 
Q 884 1300 1366 1694 
Q 2113 2306 2375 2664 
Q 2638 3022 2638 3341 
Q 2638 3675 2398 3904 
Q 2159 4134 1775 4134 
Q 1369 4134 1125 3890 
Q 881 3647 878 3216 
L 300 3275 
Q 359 3922 746 4261 
Q 1134 4600 1788 4600 
Q 2447 4600 2831 4234 
Q 3216 3869 3216 3328 
Q 3216 3053 3103 2787 
Q 2991 2522 2730 2228 
Q 2469 1934 1863 1422 
Q 1356 997 1212 845 
Q 1069 694 975 541 
L 3222 541 
z
" transform="scale(0.015625)"/>
        <path id="ArialMT-30" d="M 266 2259 
Q 266 3072 433 3567 
Q 600 4063 929 4331 
Q 1259 4600 1759 4600 
Q 2128 4600 2406 4451 
Q 2684 4303 2865 4023 
Q 3047 3744 3150 3342 
Q 3253 2941 3253 2259 
Q 3253 1453 3087 958 
Q 2922 463 2592 192 
Q 2263 -78 1759 -78 
Q 1097 -78 719 397 
Q 266 969 266 2259 
z
M 844 2259 
Q 844 1131 1108 757 
Q 1372 384 1759 384 
Q 2147 384 2411 759 
Q 2675 1134 2675 2259 
Q 2675 3391 2411 3762 
Q 2147 4134 1753 4134 
Q 1366 4134 1134 3806 
Q 844 3388 844 2259 
z
" transform="scale(0.015625)"/>
       </defs>
       <use xlink:href="#ArialMT-32"/>
       <use xlink:href="#ArialMT-30" transform="translate(55.615234 0)"/>
      </g>
     </g>
    </g>
    <g id="xtick_2">
     <g id="line2d_2">
      <path d="M 202.730103 300.591563 
L 202.730103 23.391562 
" clip-path="url(#p24285aabc9)" style="fill: none; stroke: #cccccc; stroke-linecap: round"/>
     </g>
     <g id="text_2">
      <!-- 40 -->
      <g style="fill: #262626" transform="translate(196.613071 317.965156) scale(0.11 -0.11)">
       <defs>
        <path id="ArialMT-34" d="M 2069 0 
L 2069 1097 
L 81 1097 
L 81 1613 
L 2172 4581 
L 2631 4581 
L 2631 1613 
L 3250 1613 
L 3250 1097 
L 2631 1097 
L 2631 0 
L 2069 0 
z
M 2069 1613 
L 2069 3678 
L 634 1613 
L 2069 1613 
z
" transform="scale(0.015625)"/>
       </defs>
       <use xlink:href="#ArialMT-34"/>
       <use xlink:href="#ArialMT-30" transform="translate(55.615234 0)"/>
      </g>
     </g>
    </g>
    <g id="xtick_3">
     <g id="line2d_3">
      <path d="M 297.106424 300.591563 
L 297.106424 23.391562 
" clip-path="url(#p24285aabc9)" style="fill: none; stroke: #cccccc; stroke-linecap: round"/>
     </g>
     <g id="text_3">
      <!-- 60 -->
      <g style="fill: #262626" transform="translate(290.989393 317.965156) scale(0.11 -0.11)">
       <defs>
        <path id="ArialMT-36" d="M 3184 3459 
L 2625 3416 
Q 2550 3747 2413 3897 
Q 2184 4138 1850 4138 
Q 1581 4138 1378 3988 
Q 1113 3794 959 3422 
Q 806 3050 800 2363 
Q 1003 2672 1297 2822 
Q 1591 2972 1913 2972 
Q 2475 2972 2870 2558 
Q 3266 2144 3266 1488 
Q 3266 1056 3080 686 
Q 2894 316 2569 119 
Q 2244 -78 1831 -78 
Q 1128 -78 684 439 
Q 241 956 241 2144 
Q 241 3472 731 4075 
Q 1159 4600 1884 4600 
Q 2425 4600 2770 4297 
Q 3116 3994 3184 3459 
z
M 888 1484 
Q 888 1194 1011 928 
Q 1134 663 1356 523 
Q 1578 384 1822 384 
Q 2178 384 2434 671 
Q 2691 959 2691 1453 
Q 2691 1928 2437 2201 
Q 2184 2475 1800 2475 
Q 1419 2475 1153 2201 
Q 888 1928 888 1484 
z
" transform="scale(0.015625)"/>
       </defs>
       <use xlink:href="#ArialMT-36"/>
       <use xlink:href="#ArialMT-30" transform="translate(55.615234 0)"/>
      </g>
     </g>
    </g>
    <g id="xtick_4">
     <g id="line2d_4">
      <path d="M 391.482745 300.591563 
L 391.482745 23.391562 
" clip-path="url(#p24285aabc9)" style="fill: none; stroke: #cccccc; stroke-linecap: round"/>
     </g>
     <g id="text_4">
      <!-- 80 -->
      <g style="fill: #262626" transform="translate(385.365714 317.965156) scale(0.11 -0.11)">
       <defs>
        <path id="ArialMT-38" d="M 1131 2484 
Q 781 2613 612 2850 
Q 444 3088 444 3419 
Q 444 3919 803 4259 
Q 1163 4600 1759 4600 
Q 2359 4600 2725 4251 
Q 3091 3903 3091 3403 
Q 3091 3084 2923 2848 
Q 2756 2613 2416 2484 
Q 2838 2347 3058 2040 
Q 3278 1734 3278 1309 
Q 3278 722 2862 322 
Q 2447 -78 1769 -78 
Q 1091 -78 675 323 
Q 259 725 259 1325 
Q 259 1772 486 2073 
Q 713 2375 1131 2484 
z
M 1019 3438 
Q 1019 3113 1228 2906 
Q 1438 2700 1772 2700 
Q 2097 2700 2305 2904 
Q 2513 3109 2513 3406 
Q 2513 3716 2298 3927 
Q 2084 4138 1766 4138 
Q 1444 4138 1231 3931 
Q 1019 3725 1019 3438 
z
M 838 1322 
Q 838 1081 952 856 
Q 1066 631 1291 507 
Q 1516 384 1775 384 
Q 2178 384 2440 643 
Q 2703 903 2703 1303 
Q 2703 1709 2433 1975 
Q 2163 2241 1756 2241 
Q 1359 2241 1098 1978 
Q 838 1716 838 1322 
z
" transform="scale(0.015625)"/>
       </defs>
       <use xlink:href="#ArialMT-38"/>
       <use xlink:href="#ArialMT-30" transform="translate(55.615234 0)"/>
      </g>
     </g>
    </g>
    <g id="xtick_5">
     <g id="line2d_5">
      <path d="M 485.859067 300.591563 
L 485.859067 23.391562 
" clip-path="url(#p24285aabc9)" style="fill: none; stroke: #cccccc; stroke-linecap: round"/>
     </g>
     <g id="text_5">
      <!-- 100 -->
      <g style="fill: #262626" transform="translate(476.68352 317.965156) scale(0.11 -0.11)">
       <defs>
        <path id="ArialMT-31" d="M 2384 0 
L 1822 0 
L 1822 3584 
Q 1619 3391 1289 3197 
Q 959 3003 697 2906 
L 697 3450 
Q 1169 3672 1522 3987 
Q 1875 4303 2022 4600 
L 2384 4600 
L 2384 0 
z
" transform="scale(0.015625)"/>
       </defs>
       <use xlink:href="#ArialMT-31"/>
       <use xlink:href="#ArialMT-30" transform="translate(55.615234 0)"/>
       <use xlink:href="#ArialMT-30" transform="translate(111.230469 0)"/>
      </g>
     </g>
    </g>
    <g id="text_6">
     <!-- 인기도 (0~100) -->
     <g style="fill: #262626" transform="translate(237.499219 332.887031) scale(0.12 -0.12)">
      <defs>
       <path id="ArialMT-c778" d="M 800 0 
L 800 4000 
L 4000 4000 
L 4000 0 
L 800 0 
z
M 900 100 
L 3900 100 
L 3900 3900 
L 900 3900 
L 900 100 
z
" transform="scale(0.015625)"/>
       <path id="ArialMT-ae30" d="M 800 0 
L 800 4000 
L 4000 4000 
L 4000 0 
L 800 0 
z
M 900 100 
L 3900 100 
L 3900 3900 
L 900 3900 
L 900 100 
z
" transform="scale(0.015625)"/>
       <path id="ArialMT-b3c4" d="M 800 0 
L 800 4000 
L 4000 4000 
L 4000 0 
L 800 0 
z
M 900 100 
L 3900 100 
L 3900 3900 
L 900 3900 
L 900 100 
z
" transform="scale(0.015625)"/>
       <path id="ArialMT-20" transform="scale(0.015625)"/>
       <path id="ArialMT-28" d="M 1497 -1347 
Q 1031 -759 709 28 
Q 388 816 388 1659 
Q 388 2403 628 3084 
Q 909 3875 1497 4659 
L 1900 4659 
Q 1522 4009 1400 3731 
Q 1209 3300 1100 2831 
Q 966 2247 966 1656 
Q 966 153 1900 -1347 
L 1497 -1347 
z
" transform="scale(0.015625)"/>
       <path id="ArialMT-7e" d="M 272 1741 
L 272 2381 
Q 603 2756 1141 2756 
Q 1328 2756 1534 2701 
Q 1741 2647 2122 2484 
Q 2338 2394 2445 2366 
Q 2553 2338 2663 2338 
Q 2866 2338 3083 2459 
Q 3300 2581 3469 2766 
L 3469 2103 
Q 3269 1916 3064 1831 
Q 2859 1747 2603 1747 
Q 2416 1747 2245 1790 
Q 2075 1834 1704 2000 
Q 1334 2166 1088 2166 
Q 888 2166 711 2080 
Q 534 1994 272 1741 
z
" transform="scale(0.015625)"/>
       <path id="ArialMT-29" d="M 791 -1347 
L 388 -1347 
Q 1322 153 1322 1656 
Q 1322 2244 1188 2822 
Q 1081 3291 891 3722 
Q 769 4003 388 4659 
L 791 4659 
Q 1378 3875 1659 3084 
Q 1900 2403 1900 1659 
Q 1900 816 1576 28 
Q 1253 -759 791 -1347 
z
" transform="scale(0.015625)"/>
      </defs>
      <use xlink:href="#ArialMT-c778"/>
      <use xlink:href="#ArialMT-ae30" transform="translate(75 0)"/>
      <use xlink:href="#ArialMT-b3c4" transform="translate(150 0)"/>
      <use xlink:href="#ArialMT-20" transform="translate(225 0)"/>
      <use xlink:href="#ArialMT-28" transform="translate(252.783203 0)"/>
      <use xlink:href="#ArialMT-30" transform="translate(286.083984 0)"/>
      <use xlink:href="#ArialMT-7e" transform="translate(341.699219 0)"/>
      <use xlink:href="#ArialMT-31" transform="translate(400.097656 0)"/>
      <use xlink:href="#ArialMT-30" transform="translate(455.712891 0)"/>
      <use xlink:href="#ArialMT-30" transform="translate(511.328125 0)"/>
      <use xlink:href="#ArialMT-29" transform="translate(566.943359 0)"/>
     </g>
    </g>
   </g>
   <g id="matplotlib.axis_2">
    <g id="ytick_1">
     <g id="line2d_6">
      <path d="M 50.312344 300.591563 
L 496.712344 300.591563 
" clip-path="url(#p24285aabc9)" style="fill: none; stroke: #cccccc; stroke-linecap: round"/>
     </g>
     <g id="text_7">
      <!-- 0 -->
      <g style="fill: #262626" transform="translate(34.695313 304.528359) scale(0.11 -0.11)">
       <use xlink:href="#ArialMT-30"/>
      </g>
     </g>
    </g>
    <g id="ytick_2">
     <g id="line2d_7">
      <path d="M 50.312344 262.330693 
L 496.712344 262.330693 
" clip-path="url(#p24285aabc9)" style="fill: none; stroke: #cccccc; stroke-linecap: round"/>
     </g>
     <g id="text_8">
      <!-- 20 -->
      <g style="fill: #262626" transform="translate(28.578281 266.26749) scale(0.11 -0.11)">
       <use xlink:href="#ArialMT-32"/>
       <use xlink:href="#ArialMT-30" transform="translate(55.615234 0)"/>
      </g>
     </g>
    </g>
    <g id="ytick_3">
     <g id="line2d_8">
      <path d="M 50.312344 224.069823 
L 496.712344 224.069823 
" clip-path="url(#p24285aabc9)" style="fill: none; stroke: #cccccc; stroke-linecap: round"/>
     </g>
     <g id="text_9">
      <!-- 40 -->
      <g style="fill: #262626" transform="translate(28.578281 228.00662) scale(0.11 -0.11)">
       <use xlink:href="#ArialMT-34"/>
       <use xlink:href="#ArialMT-30" transform="translate(55.615234 0)"/>
      </g>
     </g>
    </g>
    <g id="ytick_4">
     <g id="line2d_9">
      <path d="M 50.312344 185.808954 
L 496.712344 185.808954 
" clip-path="url(#p24285aabc9)" style="fill: none; stroke: #cccccc; stroke-linecap: round"/>
     </g>
     <g id="text_10">
      <!-- 60 -->
      <g style="fill: #262626" transform="translate(28.578281 189.745751) scale(0.11 -0.11)">
       <use xlink:href="#ArialMT-36"/>
       <use xlink:href="#ArialMT-30" transform="translate(55.615234 0)"/>
      </g>
     </g>
    </g>
    <g id="ytick_5">
     <g id="line2d_10">
      <path d="M 50.312344 147.548084 
L 496.712344 147.548084 
" clip-path="url(#p24285aabc9)" style="fill: none; stroke: #cccccc; stroke-linecap: round"/>
     </g>
     <g id="text_11">
      <!-- 80 -->
      <g style="fill: #262626" transform="translate(28.578281 151.484881) scale(0.11 -0.11)">
       <use xlink:href="#ArialMT-38"/>
       <use xlink:href="#ArialMT-30" transform="translate(55.615234 0)"/>
      </g>
     </g>
    </g>
    <g id="ytick_6">
     <g id="line2d_11">
      <path d="M 50.312344 109.287215 
L 496.712344 109.287215 
" clip-path="url(#p24285aabc9)" style="fill: none; stroke: #cccccc; stroke-linecap: round"/>
     </g>
     <g id="text_12">
      <!-- 100 -->
      <g style="fill: #262626" transform="translate(22.46125 113.224012) scale(0.11 -0.11)">
       <use xlink:href="#ArialMT-31"/>
       <use xlink:href="#ArialMT-30" transform="translate(55.615234 0)"/>
       <use xlink:href="#ArialMT-30" transform="translate(111.230469 0)"/>
      </g>
     </g>
    </g>
    <g id="ytick_7">
     <g id="line2d_12">
      <path d="M 50.312344 71.026345 
L 496.712344 71.026345 
" clip-path="url(#p24285aabc9)" style="fill: none; stroke: #cccccc; stroke-linecap: round"/>
     </g>
     <g id="text_13">
      <!-- 120 -->
      <g style="fill: #262626" transform="translate(22.46125 74.963142) scale(0.11 -0.11)">
       <use xlink:href="#ArialMT-31"/>
       <use xlink:href="#ArialMT-32" transform="translate(55.615234 0)"/>
       <use xlink:href="#ArialMT-30" transform="translate(111.230469 0)"/>
      </g>
     </g>
    </g>
    <g id="ytick_8">
     <g id="line2d_13">
      <path d="M 50.312344 32.765476 
L 496.712344 32.765476 
" clip-path="url(#p24285aabc9)" style="fill: none; stroke: #cccccc; stroke-linecap: round"/>
     </g>
     <g id="text_14">
      <!-- 140 -->
      <g style="fill: #262626" transform="translate(22.46125 36.702272) scale(0.11 -0.11)">
       <use xlink:href="#ArialMT-31"/>
       <use xlink:href="#ArialMT-34" transform="translate(55.615234 0)"/>
       <use xlink:href="#ArialMT-30" transform="translate(111.230469 0)"/>
      </g>
     </g>
    </g>
    <g id="text_15">
     <!-- 음원 수 (개) -->
     <g style="fill: #262626" transform="translate(15.935625 187.320937) rotate(-90) scale(0.12 -0.12)">
      <defs>
       <path id="ArialMT-c74c" d="M 800 0 
L 800 4000 
L 4000 4000 
L 4000 0 
L 800 0 
z
M 900 100 
L 3900 100 
L 3900 3900 
L 900 3900 
L 900 100 
z
" transform="scale(0.015625)"/>
       <path id="ArialMT-c6d0" d="M 800 0 
L 800 4000 
L 4000 4000 
L 4000 0 
L 800 0 
z
M 900 100 
L 3900 100 
L 3900 3900 
L 900 3900 
L 900 100 
z
" transform="scale(0.015625)"/>
       <path id="ArialMT-c218" d="M 800 0 
L 800 4000 
L 4000 4000 
L 4000 0 
L 800 0 
z
M 900 100 
L 3900 100 
L 3900 3900 
L 900 3900 
L 900 100 
z
" transform="scale(0.015625)"/>
       <path id="ArialMT-ac1c" d="M 800 0 
L 800 4000 
L 4000 4000 
L 4000 0 
L 800 0 
z
M 900 100 
L 3900 100 
L 3900 3900 
L 900 3900 
L 900 100 
z
" transform="scale(0.015625)"/>
      </defs>
      <use xlink:href="#ArialMT-c74c"/>
      <use xlink:href="#ArialMT-c6d0" transform="translate(75 0)"/>
      <use xlink:href="#ArialMT-20" transform="translate(150 0)"/>
      <use xlink:href="#ArialMT-c218" transform="translate(177.783203 0)"/>
      <use xlink:href="#ArialMT-20" transform="translate(252.783203 0)"/>
      <use xlink:href="#ArialMT-28" transform="translate(280.566406 0)"/>
      <use xlink:href="#ArialMT-ac1c" transform="translate(313.867188 0)"/>
      <use xlink:href="#ArialMT-29" transform="translate(388.867188 0)"/>
     </g>
    </g>
   </g>
   <g id="patch_3">
    <path d="M 70.603253 300.591563 
L 90.894162 300.591563 
L 90.894162 296.765476 
L 70.603253 296.765476 
z
" clip-path="url(#p24285aabc9)" style="fill: #800080; fill-opacity: 0.5; stroke: #ffffff; stroke-linejoin: miter"/>
   </g>
   <g id="patch_4">
    <path d="M 90.894162 300.591563 
L 111.185071 300.591563 
L 111.185071 294.852432 
L 90.894162 294.852432 
z
" clip-path="url(#p24285aabc9)" style="fill: #800080; fill-opacity: 0.5; stroke: #ffffff; stroke-linejoin: miter"/>
   </g>
   <g id="patch_5">
    <path d="M 111.185071 300.591563 
L 131.47598 300.591563 
L 131.47598 277.635041 
L 111.185071 277.635041 
z
" clip-path="url(#p24285aabc9)" style="fill: #800080; fill-opacity: 0.5; stroke: #ffffff; stroke-linejoin: miter"/>
   </g>
   <g id="patch_6">
    <path d="M 131.47598 300.591563 
L 151.766889 300.591563 
L 151.766889 250.852432 
L 131.47598 250.852432 
z
" clip-path="url(#p24285aabc9)" style="fill: #800080; fill-opacity: 0.5; stroke: #ffffff; stroke-linejoin: miter"/>
   </g>
   <g id="patch_7">
    <path d="M 151.766889 300.591563 
L 172.057798 300.591563 
L 172.057798 231.721997 
L 151.766889 231.721997 
z
" clip-path="url(#p24285aabc9)" style="fill: #800080; fill-opacity: 0.5; stroke: #ffffff; stroke-linejoin: miter"/>
   </g>
   <g id="patch_8">
    <path d="M 172.057798 300.591563 
L 192.348707 300.591563 
L 192.348707 247.026345 
L 172.057798 247.026345 
z
" clip-path="url(#p24285aabc9)" style="fill: #800080; fill-opacity: 0.5; stroke: #ffffff; stroke-linejoin: miter"/>
   </g>
   <g id="patch_9">
    <path d="M 192.348707 300.591563 
L 212.639616 300.591563 
L 212.639616 147.548084 
L 192.348707 147.548084 
z
" clip-path="url(#p24285aabc9)" style="fill: #800080; fill-opacity: 0.5; stroke: #ffffff; stroke-linejoin: miter"/>
   </g>
   <g id="patch_10">
    <path d="M 212.639616 300.591563 
L 232.930526 300.591563 
L 232.930526 126.504606 
L 212.639616 126.504606 
z
" clip-path="url(#p24285aabc9)" style="fill: #800080; fill-opacity: 0.5; stroke: #ffffff; stroke-linejoin: miter"/>
   </g>
   <g id="patch_11">
    <path d="M 232.930526 300.591563 
L 253.221435 300.591563 
L 253.221435 103.548084 
L 232.930526 103.548084 
z
" clip-path="url(#p24285aabc9)" style="fill: #800080; fill-opacity: 0.5; stroke: #ffffff; stroke-linejoin: miter"/>
   </g>
   <g id="patch_12">
    <path d="M 253.221435 300.591563 
L 273.512344 300.591563 
L 273.512344 95.89591 
L 253.221435 95.89591 
z
" clip-path="url(#p24285aabc9)" style="fill: #800080; fill-opacity: 0.5; stroke: #ffffff; stroke-linejoin: miter"/>
   </g>
   <g id="patch_13">
    <path d="M 273.512344 300.591563 
L 293.803253 300.591563 
L 293.803253 36.591562 
L 273.512344 36.591562 
z
" clip-path="url(#p24285aabc9)" style="fill: #800080; fill-opacity: 0.5; stroke: #ffffff; stroke-linejoin: miter"/>
   </g>
   <g id="patch_14">
    <path d="M 293.803253 300.591563 
L 314.094162 300.591563 
L 314.094162 157.113302 
L 293.803253 157.113302 
z
" clip-path="url(#p24285aabc9)" style="fill: #800080; fill-opacity: 0.5; stroke: #ffffff; stroke-linejoin: miter"/>
   </g>
   <g id="patch_15">
    <path d="M 314.094162 300.591563 
L 334.385071 300.591563 
L 334.385071 139.89591 
L 314.094162 139.89591 
z
" clip-path="url(#p24285aabc9)" style="fill: #800080; fill-opacity: 0.5; stroke: #ffffff; stroke-linejoin: miter"/>
   </g>
   <g id="patch_16">
    <path d="M 334.385071 300.591563 
L 354.67598 300.591563 
L 354.67598 118.852432 
L 334.385071 118.852432 
z
" clip-path="url(#p24285aabc9)" style="fill: #800080; fill-opacity: 0.5; stroke: #ffffff; stroke-linejoin: miter"/>
   </g>
   <g id="patch_17">
    <path d="M 354.67598 300.591563 
L 374.966889 300.591563 
L 374.966889 210.678519 
L 354.67598 210.678519 
z
" clip-path="url(#p24285aabc9)" style="fill: #800080; fill-opacity: 0.5; stroke: #ffffff; stroke-linejoin: miter"/>
   </g>
   <g id="patch_18">
    <path d="M 374.966889 300.591563 
L 395.257798 300.591563 
L 395.257798 227.89591 
L 374.966889 227.89591 
z
" clip-path="url(#p24285aabc9)" style="fill: #800080; fill-opacity: 0.5; stroke: #ffffff; stroke-linejoin: miter"/>
   </g>
   <g id="patch_19">
    <path d="M 395.257798 300.591563 
L 415.548707 300.591563 
L 415.548707 266.15678 
L 395.257798 266.15678 
z
" clip-path="url(#p24285aabc9)" style="fill: #800080; fill-opacity: 0.5; stroke: #ffffff; stroke-linejoin: miter"/>
   </g>
   <g id="patch_20">
    <path d="M 415.548707 300.591563 
L 435.839616 300.591563 
L 435.839616 283.374171 
L 415.548707 283.374171 
z
" clip-path="url(#p24285aabc9)" style="fill: #800080; fill-opacity: 0.5; stroke: #ffffff; stroke-linejoin: miter"/>
   </g>
   <g id="patch_21">
    <path d="M 435.839616 300.591563 
L 456.130526 300.591563 
L 456.130526 289.113302 
L 435.839616 289.113302 
z
" clip-path="url(#p24285aabc9)" style="fill: #800080; fill-opacity: 0.5; stroke: #ffffff; stroke-linejoin: miter"/>
   </g>
   <g id="patch_22">
    <path d="M 456.130526 300.591563 
L 476.421435 300.591563 
L 476.421435 296.765476 
L 456.130526 296.765476 
z
" clip-path="url(#p24285aabc9)" style="fill: #800080; fill-opacity: 0.5; stroke: #ffffff; stroke-linejoin: miter"/>
   </g>
   <g id="line2d_14">
    <path d="M 70.603253 298.0832 
L 78.760402 297.388107 
L 82.838977 296.907733 
L 86.917552 296.250027 
L 90.996126 295.33921 
L 95.074701 294.10082 
L 99.153276 292.468812 
L 103.23185 290.392663 
L 107.310425 287.844724 
L 111.389 284.827175 
L 115.467574 281.376762 
L 119.546149 277.564825 
L 125.664011 271.391124 
L 137.899735 258.770301 
L 144.017597 252.871744 
L 150.135459 247.382931 
L 156.253321 242.227891 
L 164.410471 235.386971 
L 168.489045 231.621758 
L 170.528333 229.557796 
L 172.56762 227.333574 
L 174.606907 224.921299 
L 176.646195 222.296572 
L 178.685482 219.440003 
L 180.72477 216.338568 
L 182.764057 212.986574 
L 184.803344 209.386118 
L 188.881919 201.486102 
L 192.960494 192.794919 
L 197.039068 183.540445 
L 213.353367 145.581705 
L 217.431942 136.803853 
L 221.510516 128.617628 
L 225.589091 121.146778 
L 229.667666 114.473567 
L 231.706953 111.444407 
L 233.746241 108.615169 
L 237.824815 103.513899 
L 241.90339 99.051954 
L 245.981965 95.09107 
L 250.060539 91.526331 
L 254.139114 88.336193 
L 256.178401 86.905234 
L 258.217689 85.610519 
L 260.256976 84.479748 
L 262.296263 83.544912 
L 264.335551 82.840324 
L 266.374838 82.400366 
L 268.414125 82.257111 
L 270.453413 82.437972 
L 272.4927 82.963532 
L 274.531987 83.845697 
L 276.571275 85.086279 
L 278.610562 86.676118 
L 280.649849 88.594795 
L 282.689137 90.810972 
L 284.728424 93.283347 
L 288.806999 98.791528 
L 296.964148 110.417712 
L 301.042723 115.662147 
L 303.08201 118.006979 
L 305.121298 120.144729 
L 307.160585 122.074411 
L 309.199872 123.807057 
L 311.23916 125.364481 
L 315.317734 128.08346 
L 323.474884 133.085544 
L 327.553458 136.0159 
L 329.592746 137.701853 
L 331.632033 139.564178 
L 333.67132 141.618058 
L 335.710608 143.873801 
L 337.749895 146.337358 
L 339.789182 149.0108 
L 341.82847 151.892675 
L 345.907045 158.25939 
L 349.985619 165.35979 
L 354.064194 173.061973 
L 360.182056 185.330956 
L 368.339205 201.857146 
L 372.41778 209.752473 
L 376.496355 217.257134 
L 380.574929 224.361235 
L 384.653504 231.113968 
L 390.771366 240.733922 
L 396.889228 249.843542 
L 400.967803 255.58136 
L 405.046378 260.948086 
L 409.124952 265.837978 
L 413.203527 270.165485 
L 417.282102 273.891463 
L 421.360676 277.03546 
L 425.439251 279.671695 
L 429.517826 281.911331 
L 433.5964 283.877146 
L 439.714262 286.54236 
L 447.871412 289.862819 
L 453.989274 292.184634 
L 460.107136 294.243484 
L 464.185711 295.420116 
L 468.264285 296.426373 
L 472.34286 297.268926 
L 476.421435 297.96583 
L 476.421435 297.96583 
" clip-path="url(#p24285aabc9)" style="fill: none; stroke: #800080; stroke-width: 1.5; stroke-linecap: round"/>
   </g>
   <g id="patch_23">
    <path d="M 50.312344 300.591563 
L 50.312344 23.391562 
" style="fill: none; stroke: #cccccc; stroke-width: 1.25; stroke-linejoin: miter; stroke-linecap: square"/>
   </g>
   <g id="patch_24">
    <path d="M 496.712344 300.591563 
L 496.712344 23.391562 
" style="fill: none; stroke: #cccccc; stroke-width: 1.25; stroke-linejoin: miter; stroke-linecap: square"/>
   </g>
   <g id="patch_25">
    <path d="M 50.312344 300.591563 
L 496.712344 300.591563 
" style="fill: none; stroke: #cccccc; stroke-width: 1.25; stroke-linejoin: miter; stroke-linecap: square"/>
   </g>
   <g id="patch_26">
    <path d="M 50.312344 23.391562 
L 496.712344 23.391562 
" style="fill: none; stroke: #cccccc; stroke-width: 1.25; stroke-linejoin: miter; stroke-linecap: square"/>
   </g>
   <g id="text_16">
    <!-- 스포티파이 음원 인기 강도(Popularity) 분포 -->
    <g style="fill: #262626" transform="translate(158.596406 17.391562) scale(0.14 -0.14)">
     <defs>
      <path id="Arial-BoldMT-c2a4" d="M 800 0 
L 800 4000 
L 4000 4000 
L 4000 0 
L 800 0 
z
M 900 100 
L 3900 100 
L 3900 3900 
L 900 3900 
L 900 100 
z
" transform="scale(0.015625)"/>
      <path id="Arial-BoldMT-d3ec" d="M 800 0 
L 800 4000 
L 4000 4000 
L 4000 0 
L 800 0 
z
M 900 100 
L 3900 100 
L 3900 3900 
L 900 3900 
L 900 100 
z
" transform="scale(0.015625)"/>
      <path id="Arial-BoldMT-d2f0" d="M 800 0 
L 800 4000 
L 4000 4000 
L 4000 0 
L 800 0 
z
M 900 100 
L 3900 100 
L 3900 3900 
L 900 3900 
L 900 100 
z
" transform="scale(0.015625)"/>
      <path id="Arial-BoldMT-d30c" d="M 800 0 
L 800 4000 
L 4000 4000 
L 4000 0 
L 800 0 
z
M 900 100 
L 3900 100 
L 3900 3900 
L 900 3900 
L 900 100 
z
" transform="scale(0.015625)"/>
      <path id="Arial-BoldMT-c774" d="M 800 0 
L 800 4000 
L 4000 4000 
L 4000 0 
L 800 0 
z
M 900 100 
L 3900 100 
L 3900 3900 
L 900 3900 
L 900 100 
z
" transform="scale(0.015625)"/>
      <path id="Arial-BoldMT-20" transform="scale(0.015625)"/>
      <path id="Arial-BoldMT-c74c" d="M 800 0 
L 800 4000 
L 4000 4000 
L 4000 0 
L 800 0 
z
M 900 100 
L 3900 100 
L 3900 3900 
L 900 3900 
L 900 100 
z
" transform="scale(0.015625)"/>
      <path id="Arial-BoldMT-c6d0" d="M 800 0 
L 800 4000 
L 4000 4000 
L 4000 0 
L 800 0 
z
M 900 100 
L 3900 100 
L 3900 3900 
L 900 3900 
L 900 100 
z
" transform="scale(0.015625)"/>
      <path id="Arial-BoldMT-c778" d="M 800 0 
L 800 4000 
L 4000 4000 
L 4000 0 
L 800 0 
z
M 900 100 
L 3900 100 
L 3900 3900 
L 900 3900 
L 900 100 
z
" transform="scale(0.015625)"/>
      <path id="Arial-BoldMT-ae30" d="M 800 0 
L 800 4000 
L 4000 4000 
L 4000 0 
L 800 0 
z
M 900 100 
L 3900 100 
L 3900 3900 
L 900 3900 
L 900 100 
z
" transform="scale(0.015625)"/>
      <path id="Arial-BoldMT-ac15" d="M 800 0 
L 800 4000 
L 4000 4000 
L 4000 0 
L 800 0 
z
M 900 100 
L 3900 100 
L 3900 3900 
L 900 3900 
L 900 100 
z
" transform="scale(0.015625)"/>
      <path id="Arial-BoldMT-b3c4" d="M 800 0 
L 800 4000 
L 4000 4000 
L 4000 0 
L 800 0 
z
M 900 100 
L 3900 100 
L 3900 3900 
L 900 3900 
L 900 100 
z
" transform="scale(0.015625)"/>
      <path id="Arial-BoldMT-28" d="M 1916 -1347 
L 1313 -1347 
Q 834 -625 584 153 
Q 334 931 334 1659 
Q 334 2563 644 3369 
Q 913 4069 1325 4659 
L 1925 4659 
Q 1497 3713 1336 3048 
Q 1175 2384 1175 1641 
Q 1175 1128 1270 590 
Q 1366 53 1531 -431 
Q 1641 -750 1916 -1347 
z
" transform="scale(0.015625)"/>
      <path id="Arial-BoldMT-50" d="M 466 0 
L 466 4581 
L 1950 4581 
Q 2794 4581 3050 4513 
Q 3444 4409 3709 4064 
Q 3975 3719 3975 3172 
Q 3975 2750 3822 2462 
Q 3669 2175 3433 2011 
Q 3197 1847 2953 1794 
Q 2622 1728 1994 1728 
L 1391 1728 
L 1391 0 
L 466 0 
z
M 1391 3806 
L 1391 2506 
L 1897 2506 
Q 2444 2506 2628 2578 
Q 2813 2650 2917 2803 
Q 3022 2956 3022 3159 
Q 3022 3409 2875 3571 
Q 2728 3734 2503 3775 
Q 2338 3806 1838 3806 
L 1391 3806 
z
" transform="scale(0.015625)"/>
      <path id="Arial-BoldMT-6f" d="M 256 1706 
Q 256 2144 472 2553 
Q 688 2963 1083 3178 
Q 1478 3394 1966 3394 
Q 2719 3394 3200 2905 
Q 3681 2416 3681 1669 
Q 3681 916 3195 420 
Q 2709 -75 1972 -75 
Q 1516 -75 1102 131 
Q 688 338 472 736 
Q 256 1134 256 1706 
z
M 1156 1659 
Q 1156 1166 1390 903 
Q 1625 641 1969 641 
Q 2313 641 2545 903 
Q 2778 1166 2778 1666 
Q 2778 2153 2545 2415 
Q 2313 2678 1969 2678 
Q 1625 2678 1390 2415 
Q 1156 2153 1156 1659 
z
" transform="scale(0.015625)"/>
      <path id="Arial-BoldMT-70" d="M 434 3319 
L 1253 3319 
L 1253 2831 
Q 1413 3081 1684 3237 
Q 1956 3394 2288 3394 
Q 2866 3394 3269 2941 
Q 3672 2488 3672 1678 
Q 3672 847 3265 386 
Q 2859 -75 2281 -75 
Q 2006 -75 1782 34 
Q 1559 144 1313 409 
L 1313 -1263 
L 434 -1263 
L 434 3319 
z
M 1303 1716 
Q 1303 1156 1525 889 
Q 1747 622 2066 622 
Q 2372 622 2575 867 
Q 2778 1113 2778 1672 
Q 2778 2194 2568 2447 
Q 2359 2700 2050 2700 
Q 1728 2700 1515 2451 
Q 1303 2203 1303 1716 
z
" transform="scale(0.015625)"/>
      <path id="Arial-BoldMT-75" d="M 2644 0 
L 2644 497 
Q 2463 231 2167 78 
Q 1872 -75 1544 -75 
Q 1209 -75 943 72 
Q 678 219 559 484 
Q 441 750 441 1219 
L 441 3319 
L 1319 3319 
L 1319 1794 
Q 1319 1094 1367 936 
Q 1416 778 1544 686 
Q 1672 594 1869 594 
Q 2094 594 2272 717 
Q 2450 841 2515 1023 
Q 2581 1206 2581 1919 
L 2581 3319 
L 3459 3319 
L 3459 0 
L 2644 0 
z
" transform="scale(0.015625)"/>
      <path id="Arial-BoldMT-6c" d="M 459 0 
L 459 4581 
L 1338 4581 
L 1338 0 
L 459 0 
z
" transform="scale(0.015625)"/>
      <path id="Arial-BoldMT-61" d="M 1116 2306 
L 319 2450 
Q 453 2931 781 3162 
Q 1109 3394 1756 3394 
Q 2344 3394 2631 3255 
Q 2919 3116 3036 2902 
Q 3153 2688 3153 2116 
L 3144 1091 
Q 3144 653 3186 445 
Q 3228 238 3344 0 
L 2475 0 
Q 2441 88 2391 259 
Q 2369 338 2359 363 
Q 2134 144 1878 34 
Q 1622 -75 1331 -75 
Q 819 -75 523 203 
Q 228 481 228 906 
Q 228 1188 362 1408 
Q 497 1628 739 1745 
Q 981 1863 1438 1950 
Q 2053 2066 2291 2166 
L 2291 2253 
Q 2291 2506 2166 2614 
Q 2041 2722 1694 2722 
Q 1459 2722 1328 2630 
Q 1197 2538 1116 2306 
z
M 2291 1594 
Q 2122 1538 1756 1459 
Q 1391 1381 1278 1306 
Q 1106 1184 1106 997 
Q 1106 813 1243 678 
Q 1381 544 1594 544 
Q 1831 544 2047 700 
Q 2206 819 2256 991 
Q 2291 1103 2291 1419 
L 2291 1594 
z
" transform="scale(0.015625)"/>
      <path id="Arial-BoldMT-72" d="M 1300 0 
L 422 0 
L 422 3319 
L 1238 3319 
L 1238 2847 
Q 1447 3181 1614 3287 
Q 1781 3394 1994 3394 
Q 2294 3394 2572 3228 
L 2300 2463 
Q 2078 2606 1888 2606 
Q 1703 2606 1575 2504 
Q 1447 2403 1373 2137 
Q 1300 1872 1300 1025 
L 1300 0 
z
" transform="scale(0.015625)"/>
      <path id="Arial-BoldMT-69" d="M 459 3769 
L 459 4581 
L 1338 4581 
L 1338 3769 
L 459 3769 
z
M 459 0 
L 459 3319 
L 1338 3319 
L 1338 0 
L 459 0 
z
" transform="scale(0.015625)"/>
      <path id="Arial-BoldMT-74" d="M 1981 3319 
L 1981 2619 
L 1381 2619 
L 1381 1281 
Q 1381 875 1398 808 
Q 1416 741 1477 697 
Q 1538 653 1625 653 
Q 1747 653 1978 738 
L 2053 56 
Q 1747 -75 1359 -75 
Q 1122 -75 931 4 
Q 741 84 652 211 
Q 563 338 528 553 
Q 500 706 500 1172 
L 500 2619 
L 97 2619 
L 97 3319 
L 500 3319 
L 500 3978 
L 1381 4491 
L 1381 3319 
L 1981 3319 
z
" transform="scale(0.015625)"/>
      <path id="Arial-BoldMT-79" d="M 44 3319 
L 978 3319 
L 1772 963 
L 2547 3319 
L 3456 3319 
L 2284 125 
L 2075 -453 
Q 1959 -744 1854 -897 
Q 1750 -1050 1614 -1145 
Q 1478 -1241 1279 -1294 
Q 1081 -1347 831 -1347 
Q 578 -1347 334 -1294 
L 256 -606 
Q 463 -647 628 -647 
Q 934 -647 1081 -467 
Q 1228 -288 1306 -9 
L 44 3319 
z
" transform="scale(0.015625)"/>
      <path id="Arial-BoldMT-29" d="M 216 -1347 
Q 475 -791 581 -494 
Q 688 -197 778 190 
Q 869 578 912 926 
Q 956 1275 956 1641 
Q 956 2384 797 3048 
Q 638 3713 209 4659 
L 806 4659 
Q 1278 3988 1539 3234 
Q 1800 2481 1800 1706 
Q 1800 1053 1594 306 
Q 1359 -531 822 -1347 
L 216 -1347 
z
" transform="scale(0.015625)"/>
      <path id="Arial-BoldMT-bd84" d="M 800 0 
L 800 4000 
L 4000 4000 
L 4000 0 
L 800 0 
z
M 900 100 
L 3900 100 
L 3900 3900 
L 900 3900 
L 900 100 
z
" transform="scale(0.015625)"/>
     </defs>
     <use xlink:href="#Arial-BoldMT-c2a4"/>
     <use xlink:href="#Arial-BoldMT-d3ec" transform="translate(75 0)"/>
     <use xlink:href="#Arial-BoldMT-d2f0" transform="translate(150 0)"/>
     <use xlink:href="#Arial-BoldMT-d30c" transform="translate(225 0)"/>
     <use xlink:href="#Arial-BoldMT-c774" transform="translate(300 0)"/>
     <use xlink:href="#Arial-BoldMT-20" transform="translate(375 0)"/>
     <use xlink:href="#Arial-BoldMT-c74c" transform="translate(402.783203 0)"/>
     <use xlink:href="#Arial-BoldMT-c6d0" transform="translate(477.783203 0)"/>
     <use xlink:href="#Arial-BoldMT-20" transform="translate(552.783203 0)"/>
     <use xlink:href="#Arial-BoldMT-c778" transform="translate(580.566406 0)"/>
     <use xlink:href="#Arial-BoldMT-ae30" transform="translate(655.566406 0)"/>
     <use xlink:href="#Arial-BoldMT-20" transform="translate(730.566406 0)"/>
     <use xlink:href="#Arial-BoldMT-ac15" transform="translate(758.349609 0)"/>
     <use xlink:href="#Arial-BoldMT-b3c4" transform="translate(833.349609 0)"/>
     <use xlink:href="#Arial-BoldMT-28" transform="translate(908.349609 0)"/>
     <use xlink:href="#Arial-BoldMT-50" transform="translate(941.650391 0)"/>
     <use xlink:href="#Arial-BoldMT-6f" transform="translate(1008.349609 0)"/>
     <use xlink:href="#Arial-BoldMT-70" transform="translate(1069.433594 0)"/>
     <use xlink:href="#Arial-BoldMT-75" transform="translate(1130.517578 0)"/>
     <use xlink:href="#Arial-BoldMT-6c" transform="translate(1191.601562 0)"/>
     <use xlink:href="#Arial-BoldMT-61" transform="translate(1219.384766 0)"/>
     <use xlink:href="#Arial-BoldMT-72" transform="translate(1275 0)"/>
     <use xlink:href="#Arial-BoldMT-69" transform="translate(1313.916016 0)"/>
     <use xlink:href="#Arial-BoldMT-74" transform="translate(1341.699219 0)"/>
     <use xlink:href="#Arial-BoldMT-79" transform="translate(1375 0)"/>
     <use xlink:href="#Arial-BoldMT-29" transform="translate(1430.615234 0)"/>
     <use xlink:href="#Arial-BoldMT-20" transform="translate(1463.916016 0)"/>
     <use xlink:href="#Arial-BoldMT-bd84" transform="translate(1491.699219 0)"/>
     <use xlink:href="#Arial-BoldMT-d3ec" transform="translate(1566.699219 0)"/>
    </g>
   </g>
  </g>
 </g>
 <defs>
  <clipPath id="p24285aabc9">
   <rect x="50.312344" y="23.391562" width="446.4" height="277.2"/>
  </clipPath>
 </defs>
</svg>
